<?xml version="1.0" encoding="iso-8859-1"?>
<!-- Generator: Adobe Illustrator 28.5.0, SVG Export Plug-In . SVG Version: 9.03 Build 54727)  -->
<svg version="1.1" id="Layer_1" xmlns="http://www.w3.org/2000/svg" xmlns:xlink="http://www.w3.org/1999/xlink" x="0px" y="0px"
	 viewBox="0 0 1920 1080" style="enable-background:new 0 0 1920 1080;" xml:space="preserve">
<g>
	<path style="fill:#FFFFFF;" d="M224-418h1472v1916H224V-418 M857.04-391.91c-39.68,3.35-77.92,18.09-111.05,39.89
		c-24.79,15.89-46.21,36.38-65.89,58.14c-50.89,57.9-83.11,130.47-99.49,205.35c0.23,9.58-11.39,10.05-14.67,17.48
		c-11.56,16.74-9.72,38.07-10.93,57.29c-3.04,8.38-3.03,17.28-3.98,26.03c-1.64,7.53-7.42,13.05-11.6,19.22
		c-8.18,12.86-15.6,26.21-24.14,38.84c-6.07,6.46-9.43,14.84-12.02,23.19c-2.69,6.8-4.75,13.83-6.37,20.96
		c-2.48,15.41-7.04,31.57-2.22,47.01c2.57,6.16,4.17,12.64,6.06,19.04c3.74,9.25,10.45,17.22,12.8,27.06
		c1.91,8.24,5.58,15.82,9.3,23.36c3.65,10.18,10.6,18.6,17.15,27.02c10.49,18.15,19.29,37.25,28.96,55.84
		c5.18,17.3,12.45,33.83,20.1,50.16c4.87,8.89,8.84,18.71,8.69,29.01c-0.7,14.87-0.02,29.89-2.73,44.59
		c-3.48,21.25-6.79,43.07-15.59,62.88c-13.86,10.18-31.29,13.87-47.18,19.79c-10.3,4.53-20.12,10.11-30.61,14.23
		c-10.59,4.47-21.96,6.82-32.34,11.85c-12.5,6.17-25.4,11.47-37.59,18.27c-8.89,5.12-19.08,7.63-27.5,13.63
		c-8.51,6.08-17.38,11.72-24.89,19.08c-9.16,5.89-18.4,12.19-24.94,21.09c-8.81,9.64-17.19,19.69-24.3,30.67
		c-14.15,23.5-25.52,48.52-36.3,73.7c-5.95,13.92-8.38,28.91-12.63,43.35c-3.37,12.73-3.91,25.95-5.75,38.95
		c-0.9,38.51-3.14,77.17,0.82,115.6c1.18,17.16,0.74,34.47,3.21,51.55c2.03,12.5,1.52,25.25,3.6,37.75
		c0.65,6.04,2.15,11.98,2.7,18.05c0.66,15.74-0.39,31.64,2.22,47.28c1.24,7.85,0.64,15.88,1.82,23.74
		c1.96,12.24,0.62,24.8,2.91,37.02c2.93,14.83,5.1,29.82,5.67,44.95c-0.5,6.3-2.78,12.48-1.73,18.9c1.18,12.76,0.97,25.6,2.36,38.37
		c4.44,15.77,9.14,31.55,12.38,47.64c2.58,8.15,6.15,15.96,8.27,24.29c2.03,7.71,3.46,16.13,8.64,22.53
		c7.11,7.58,14.75,14.76,23.65,20.24c6.01,3.47,10.28,9.2,16.32,12.65c12.15,7.1,22.15,17.89,35.81,22.24
		c12.6,3.77,24.28,12.71,37.98,11.52c10.71,0.17,20.92-3.93,29.72-9.75c5.16-3.41,8.45-8.96,13.75-12.2
		c7.62-4.86,14.47-10.75,21.1-16.85c3.2-2.9,4.83-7.06,7.99-9.98c8.24-7.77,17.2-14.81,24.73-23.31
		c10.7-10.71,18.98-23.53,30.16-33.81c7.07-5.75,11.14-14.09,17.75-20.24c6.07-6.08,11.68-12.65,15.44-20.46
		c7.33-15.03,20.7-25.92,28.48-40.64c7.15-16.98,13.36-34.31,18.92-51.87c3.6-13.77,9.75-27.47,6.78-42.06
		c1.93-11.44,1.01-23.02,1.86-34.53c3.29-22.39,3.04-45.09,4.74-67.61c0.37-7.15,2.94-13.95,3.32-21.1
		c0.58-14.14,6.89-27.31,7.18-41.49c1.65-21.67,8.44-42.58,9.7-64.28c3.49-18.2,5.18-36.69,8.7-54.89
		c2.44-16.14,1.61-32.68,5.07-48.69c3.24-20.32,4.85-40.86,7.95-61.21c1.35-16.33,6.89-31.98,7.69-48.38
		c0.7-11.22,2.89-22.28,4.74-33.33c2.5-14.46,7.58-28.43,8.19-43.2c1.31-16.13,8.35-30.87,12.42-46.35
		c8.09-19.58,10.05-40.8,15.66-61.07c3.25-11.47,3.03-23.57,6.06-35.05c2.3-4.12,6.46-6.77,9.74-10.07
		c32.41,16.72,68.53,26.96,105.13,27.1c30.41,0.54,61.2-3.49,89.68-14.52c14.68-4.87,27.96-12.95,42.19-18.86
		c6.14-2.97,12.04-6.41,18.04-9.64c5.49,7.86,10.54,16.05,16.6,23.51c15.75,14.78,34.39,26.28,54.32,34.57
		c16.98,6.83,33.57,14.72,51.18,19.87c13.38,3.85,25.55,10.77,38.68,15.32c8.94,3.26,18.51,5.12,26.67,10.23
		c8.98,5.27,18.9,8.55,28.48,12.55c9.93,4.28,20.65,6.65,30.15,11.96c16.16,7.15,31.76,15.45,47.63,23.23
		c9.77,4.74,19.42,10.14,27.16,17.89c4.15,3.9,8.64,7.4,12.84,11.26c4.51,4.14,6.45,10.12,10.13,14.88
		c12.07,13.26,18.7,30.22,27.12,45.81c5.3,12.52,11.21,24.76,17.01,37.06c7.94,16.88,11.87,35.3,19.34,52.38
		c3.09,6.72,4.16,14.15,7.29,20.85c5.09,11.48,8.12,23.73,12.76,35.39c3.3,8.18,6.52,16.4,9.15,24.84
		c2.17,6.14,3.72,12.86,7.96,18.02c3.47,3.92,3.19,9.56,4.8,14.31c1.9,8.69,4.83,17.13,7.37,25.65c4.72,12.59,7.6,25.77,12.42,38.33
		c6.56,23.99,18.15,46.4,23.36,70.83c1.66,7.88,6.9,14.36,8.79,22.16c2.75,12.4,8.88,23.68,11.87,36.02
		c1.23,6.28,3.62,12.19,5.88,18.18c5.52,13.35,8.59,27.56,14.08,40.95c2.29,5.59,4.14,11.36,5.12,17.35
		c2.98,14.68,9.51,28.3,12.55,42.96c3.37,8.91,5.97,18.09,9.04,27.1c5.93,13.59,8.93,28.14,12.65,42.43
		c2.99,10.19,3.68,20.87,6.65,31.08c2.58,9.07,1.94,18.79,5.2,27.7c3.29,13.21,4.19,26.96,9.52,39.67
		c7.95,18.27,8.54,38.48,12.82,57.7c1.49,7.88,2.21,15.87,3.67,23.77c1.22,8.33,3.97,16.59,3.36,25.11
		c6.55,0.02,13.12,0.02,19.7-0.01c-2.97-24.53-7.51-48.81-11.88-73.1c-2.48-14.61-8.41-28.29-11.73-42.68
		c-4.06-13.88-6.73-28.13-9.34-42.34c-2.23-20.69-8.09-40.81-13.38-60.88c-3.27-10.11-6.36-20.32-10.91-29.94
		c-6.38-13.49-8.07-28.5-12.45-42.63c-1.91-4.98-3.1-10.19-4.18-15.38c-3.84-11.57-8.55-22.89-10.81-34.92
		c-0.76-5.59-4.37-10.2-5.96-15.51c-1.56-5.98-4.35-11.49-6.82-17.1c-3.66-9.5-5.43-19.58-8.17-29.33
		c-3.41-9.18-7.4-18.13-11.23-27.12c-1.11-4.81-0.99-9.96-3.22-14.47c-5.66-12.68-7.78-26.56-13.23-39.3
		c-4.71-17.21-11.61-33.68-16.42-50.84c-4.13-10.92-6.39-22.42-10.73-33.26c-3.83-9.38-6.34-19.27-7.91-29.25
		c-6.08-15.15-14.99-29.34-18.47-45.45c-3.49-12.98-8.95-25.31-12.29-38.32c-2.67-11.37-8.8-21.46-12.5-32.47
		c-3.96-10.66-5.91-22.03-11.16-32.19c-5.04-9.63-8.92-19.8-12.93-29.88c-4.92-13.64-12.41-26.09-18.95-38.96
		c-5.4-12.46-13.98-23.14-20.08-35.21c-3.48-6.73-11.26-9.3-15.92-14.99c-9.24-10.38-20.96-17.97-32.47-25.53
		c-12.09-7.77-27.05-9.69-38.52-18.47c-6.19-3.79-13.15-6.05-19.5-9.55c-9.32-5.27-19.94-7.4-29.86-11.22
		c-10.73-3.64-20.74-9.01-30.93-13.88c-14.51-7.36-31.01-9.83-45.32-17.67c-12.78-6.83-27.29-9.09-40.59-14.62
		c-26.01-10.93-53.7-20.42-74.32-40.53c-8.33-7.54-13.61-17.61-17.06-28.15c4.07-3.19,8.16-6.36,11.96-9.88
		c7.3-6.7,15.72-12.25,21.74-20.26c19.49-21.58,37.42-44.64,52.41-69.6c36.41-61.26,57.93-130.68,66.71-201.21
		c9.77-84.19,3.44-170.75-21.95-251.79c-21.41-66.41-55.83-129.78-106.57-178.35c-29.99-30.03-66.5-53.97-106.96-67.19
		C924.55-392.43,890.37-395.14,857.04-391.91 M441.22-39c0.46,17.57-2.77,35.06-1.78,52.59c1.05,7.76,14.1,8.41,15.78,0.77
		c1.25-7.4,1.4-14.95,2.8-22.33c2.45,8.78,10.46,17.03,7.74,26.67c-4.44,11.39-13.27,20.65-16.22,32.75
		c-2.18,6.35,4.68,12.41,10.79,9.92c5.92-2.15,7.34-8.99,10.46-13.76c3.63,10.34,1.66,21.29-0.74,31.63
		c-2.59,11.19-3.57,22.86-8.45,33.41c-1.54,4.29-4.59,8.14-4.17,12.96c0.78,4.8,6.44,7.42,10.87,5.71
		c4.82-1.89,8.25-6.42,9.64-11.32c5.88-14.13,8.01-29.35,11.1-44.23c2.24-12.58-0.72-25.22-1.29-37.79c3.35,2.36,6.7,4.75,9.72,7.55
		c2.8,2.41,5.98,5.41,10.13,4.04c5.4-0.83,7.85-7.79,5.08-12.24c-3.87-6.46-11.08-9.57-16.35-14.64c-3.73-3.3-6.62-7.39-10.19-10.84
		c-2.19-2.02-3.62-4.67-4.66-7.43c-2.36-6.12-4.96-12.15-7.69-18.12c6.51,2.92,13.13,7.14,20.54,6.06
		c6.55-1.59,7.51-12.22,1.33-14.93c-10.13-5.01-20.89-8.78-30.65-14.54c-3.87-2-6.17-5.77-9.42-8.49
		C450.46-49.49,441.05-45.89,441.22-39 M741-328.01c49.66-36.88,113.82-58.09,175.67-46.61c44,8.08,85.24,28.84,119.3,57.66
		c30.06,24.65,53.87,55.93,74.12,88.89c36.29,61.03,57.89,130.2,66.35,200.53c10.29,77.82,2.6,157.61-20.39,232.56
		c-19.43,62.11-50.2,121.41-94.83,169.2c-41.42,44.03-97.26,76.31-157.89,83.15c-42.28,5.56-85.2-5.3-122.96-24.11
		c3.01-5.56,4.52-11.77,7.48-17.35c2.79-5.6,4.73-11.65,5.2-17.9c2.18-28.96,2.65-58.09-0.17-87.03c0.33-5.89-2.78-10.96-4.24-16.44
		c-2.15-8.56-6.13-16.54-7.96-25.19c9.94-2.52,19.73-6.38,27.75-12.92c5.6-5.42,9.26-12.53,12.02-19.72
		c1.16-13.54,0.81-27.17,0.42-40.73c-1.77-15.51-10.94-28.54-20.73-40.14c-2.41-3.62-6.54-6.8-5.59-11.71
		c-0.58-18.15-1.98-38.66-14.96-52.72c-9.5-10.74-23.01-15.91-35.03-23.05c-7.87-9.74-6.56-23.89-13.94-34.05
		c-11.26-15.03-28.5-25.16-46.81-28.96c-3.62-1.16-8.12-1.42-10.09-5.13c-5.2-8.24-8.69-18.12-17.01-23.93
		c-4.92-3.28-8.64-8.11-13.8-11.03c-8.97-3.56-17.42-8.43-26.6-11.44c-8.47-1.23-17.06-0.82-25.58-1.01
		c0.24-4.5,0.08-9.02,0.7-13.48c10.79-58.72,30.93-115.99,61.48-167.4C676.2-266.05,704.69-301.7,741-328.01 M602.96-23.03
		c13.21-3.81,27.33,1.34,38.24,8.86c7.06,7.36,9.47,17.89,16.53,25.26c-16.78,15.22-31.31,32.77-44.27,51.31
		c-5.06,7.51-12.77,12.7-17.78,20.27c-7.3,10.86-18.97,18-25.57,29.41c-3.75,4.01-2.41,9.61-2.41,14.53
		c5.51-0.32,11.86-0.42,15.2-5.64c12.97-15.69,29.1-28.68,40.32-45.82c10.26-13.56,22.21-25.71,34.35-37.58
		c5.99-6.91,14.87-11.8,24.18-11.1c9.23,3.18,18.64,7.01,25.46,14.31c7.02,6.34,10.61,15.56,12.24,24.7
		c1.79,6.67-1.99,13.76-7.54,17.38c-7.82,5.39-15.15,11.45-22.09,17.93c-13.02,8.87-24.52,19.74-37.64,28.47
		c-6.36,5.13-14.41,7.85-20.2,13.71c-5.66,5.6-11.36,11.17-16.57,17.2c2.56,4.05,6.65,6.6,10.57,9.2
		c9.86-5.62,17.85-13.8,27.11-20.27c22.92-16.1,44.86-33.61,68.77-48.27c6.95-6.06,16.99-9.76,25.89-5.62
		c7.92,4.66,15.17,10.88,20.15,18.68c3.18,9.82,5.27,20.57,2.71,30.77c-2.02,3.68-4.45,7.68-8.41,9.53
		c-11.38,5.37-23.65,8.59-34.93,14.16c-5.59,2.53-10.8,5.82-16.41,8.27c-9.05,3.31-19.05,5.19-26.53,11.69
		c-2.44,3.14-4.11,6.8-5.9,10.34c2,2.32,3.8,4.89,6.27,6.75c4.74,0.99,10.03,1.15,14.35-1.34c13.04-7.79,27.99-11.1,41.74-17.31
		c13.44-6.55,27.88-12.83,43.09-12.66c4.34,2.39,9.03,5.47,10.95,10.3c3.19,6.4,2.73,13.77,3.56,20.68
		c0.12,10.6,2.46,21.73-1.37,31.96c-3.69,8.33-13.11,12.59-21.89,11.82c-9.04-3.13-15.36-12.28-15.15-21.86
		c0.01-5.28-3.47-10.39-8.99-10.85c-4.11,0.4-8.49,3.24-9.38,7.49c-1.54,13.07,0.02,26.75,6.34,38.44
		c5.52,9.88,9.92,20.37,16.17,29.85c4.91,6.61,7.43,14.63,7.87,22.83c5.64,25.47,1.51,51.53,0.72,77.25
		c-1.25,7.54-2.23,15.54-6.64,22.02c-7.16,12.11-18.73,20.73-30.3,28.34c4.31,10.09,0.99,20.75-0.11,31.1
		c-1.42,9.16-1.91,18.57-4.78,27.45c-2.5,8.16-2.55,16.85-5.18,24.99c-4.54,15.58-7.61,31.57-13.13,46.86
		c-5.27,15.49-5.76,31.99-9.72,47.77c-3.81,15.86-5.16,32.16-7.48,48.28c-0.67,4.24-0.23,8.51-0.34,12.79
		c-0.54,6.91-2.62,13.55-3.93,20.33c-2.55,19.23-6.15,38.32-7.75,57.68c-5.32,27.61-5.97,55.82-11.24,83.43
		c-5.41,30.78-6.64,62.22-14.27,92.63c-3.16,12.19-3.62,24.85-6.13,37.18c-2.18,10.42-4.46,20.82-6.5,31.29
		c-1.99,11.06-1.34,22.37-2.43,33.53c-0.73,9,0.4,18.16-1.27,27.11c-1.14,6.18-2.66,12.35-2.87,18.68
		c-0.4,8.29,1.2,16.69-0.08,24.97c-1.89,10.74-0.07,21.79-2.89,32.4c-5.16,19.19-12.3,37.76-19.72,56.17
		c-3.37,7.51-8.71,13.88-13.32,20.65c-13.47,18.76-25.49,38.66-41.41,55.54c-8.87,10.79-19.49,20.01-27.82,31.27
		c-9.35,10.6-19.91,20.07-30.16,29.78c-7.13,7.85-14.22,15.98-23.12,21.93c-8.23,5.36-14.44,13.63-23.7,17.42
		c-10.09,5.49-22.12,3.68-32.42-0.16c-8.5-2.01-15.9-6.72-23.47-10.82c-14.71-7.34-25.65-20.01-39.08-29.18
		c-6.48-3.68-10.84-9.74-15.98-14.92c-6.73-7.16-8.43-16.97-10.62-26.13c-7.28-18.7-9.66-38.81-15.54-57.94
		c-2.6-7.34-1.49-15.26-1.75-22.88c0.35-21.81,1.54-43.77,6.03-65.17c1.85-10.71,2.34-21.6,4.38-32.26
		c2.94-10.29,5.71-20.69,9.59-30.66c6.84-13.36,10.98-27.88,17.5-41.38c4.79-11.82,12.86-21.88,19.03-32.96
		c6.73-11.49,12.05-23.75,18.87-35.18c12.54-19.82,21.16-41.78,32.95-62.02c10.03-15.43,15.59-33.22,25.04-48.97
		c4.29-6.2,8.13-12.71,11.25-19.58c9.63-21.27,20.43-41.96,32.05-62.21c4.74-7.36,7.12-15.89,11.41-23.46
		c7.45-12.15,13.89-24.89,20.06-37.72c4.03-11.85,9.08-23.3,13.16-35.13c9.85-21.08,20.38-42.01,26.61-64.53
		c7.66-22.45,14.44-45.18,20.49-68.09c2.15-17.48,9.37-33.63,13.97-50.48c2.14-5.78,4.74-11.52,4.84-17.81
		c1.11-17.78,7.24-34.64,11.2-51.86c1.31-19.95,6.01-40.62,0.05-60.25c-3.68-10.55-9.73-20.09-13.53-30.59
		c-2.48-6.39-6.74-12.01-8.18-18.81c-3.06-10.53-7.84-20.42-12.7-30.22c-6.03-14.38-13.3-28.48-23.51-40.37
		c-3.75-4.06-5.21-9.53-7.96-14.21c-9.83-12.86-14.64-28.52-21.93-42.78c-6.85-16.76-14.74-33.55-16.12-51.89
		c-0.9-16.7,1.2-34.24,10.24-48.68c6.37-10.04,11.06-21.06,18.17-30.63C556.57,39.08,569,11.88,589.21-9.78
		C593.61-14.29,597.13-20.24,602.96-23.03 M543,534.02c10.14-3.21,20.36-6.44,29.69-11.65c-1.61,20.51-9.82,39.59-14.19,59.52
		c-5.34,19.89-12.64,39.16-20.46,58.18c-2.93,6.05-6.66,11.73-8.94,18.09c-3.47,9.78-6.32,19.79-10.59,29.27
		c-4.68,9.09-6.38,19.27-10.43,28.6c-5.34,13.64-12.17,26.66-19.88,39.1c-14.49,28.58-29.88,56.68-43.61,85.65
		c-8.15,16.37-18.87,31.45-25.5,48.56c-5.1,11.87-12.92,22.39-17.32,34.59c-7.5,15.86-18.31,29.86-26.47,45.36
		c-8.85,14.15-15.37,29.6-24.32,43.7c-4.97,7.9-9.79,15.96-13.38,24.61c-4.11,10.46-9.48,20.35-14.9,30.17
		c-3.04,5.48-4.69,11.61-7.82,17.06c-2.14,4.04-5.34,7.8-5.29,12.63c-7.44-23.61-6.02-48.88-7.04-73.29
		c-2.47-14.24-4.46-28.57-4.86-43.03c-2.9-20.21-3.81-40.59-4.29-60.97c-4.17-37.58-1.94-75.43-1.01-113.11
		c1.99-14.06,2.52-28.4,6.53-42.08c3.8-13.09,5.98-26.72,11.84-39.11c16.39-37.26,33.51-76.02,64.26-103.84
		c4.97-4.17,10.75-7.22,15.9-11.13c5.61-4.69,10.48-10.3,16.69-14.21c11.65-7.7,24.57-13.16,37.19-18.99
		c10.89-6.92,23.07-11.33,34.51-17.19c14.63-5.17,29.16-10.66,43.4-16.84C529.55,540.59,535.66,535.96,543,534.02L543,534.02z"/>
	<path d="M857.04-391.91c33.33-3.23,67.51-0.52,99.28,10.44c40.46,13.22,76.97,37.16,106.96,67.19
		c50.74,48.57,85.16,111.94,106.57,178.35c25.39,81.04,31.72,167.6,21.95,251.79c-8.78,70.53-30.3,139.95-66.71,201.21
		c-14.99,24.96-32.92,48.02-52.41,69.6c-6.02,8.01-14.44,13.56-21.74,20.26c-3.8,3.52-7.89,6.69-11.96,9.88
		c3.45,10.54,8.73,20.61,17.06,28.15c20.62,20.11,48.31,29.6,74.32,40.53c13.3,5.53,27.81,7.79,40.59,14.62
		c14.31,7.84,30.81,10.31,45.32,17.67c10.19,4.87,20.2,10.24,30.93,13.88c9.92,3.82,20.54,5.95,29.86,11.22
		c6.35,3.5,13.31,5.76,19.5,9.55c11.47,8.78,26.43,10.7,38.52,18.47c11.51,7.56,23.23,15.15,32.47,25.53
		c4.66,5.69,12.44,8.26,15.92,14.99c6.1,12.07,14.68,22.75,20.08,35.21c6.54,12.87,14.03,25.32,18.95,38.96
		c4.01,10.08,7.89,20.25,12.93,29.88c5.25,10.16,7.2,21.53,11.16,32.19c3.7,11.01,9.83,21.1,12.5,32.47
		c3.34,13.01,8.8,25.34,12.29,38.32c3.48,16.11,12.39,30.3,18.47,45.45c1.57,9.98,4.08,19.87,7.91,29.25
		c4.34,10.84,6.6,22.34,10.73,33.26c4.81,17.16,11.71,33.63,16.42,50.84c5.45,12.74,7.57,26.62,13.23,39.3
		c2.23,4.51,2.11,9.66,3.22,14.47c3.83,8.99,7.82,17.94,11.23,27.12c2.74,9.75,4.51,19.83,8.17,29.33
		c2.47,5.61,5.26,11.12,6.82,17.1c1.59,5.31,5.2,9.92,5.96,15.51c2.26,12.03,6.97,23.35,10.81,34.92c1.08,5.19,2.27,10.4,4.18,15.38
		c4.38,14.13,6.07,29.14,12.45,42.63c4.55,9.62,7.64,19.83,10.91,29.94c5.29,20.07,11.15,40.19,13.38,60.88
		c2.61,14.21,5.28,28.46,9.34,42.34c3.32,14.39,9.25,28.07,11.73,42.68c4.37,24.29,8.91,48.57,11.88,73.1
		c-6.58,0.03-13.15,0.03-19.7,0.01c0.61-8.52-2.14-16.78-3.36-25.11c-1.46-7.9-2.18-15.89-3.67-23.77
		c-4.28-19.22-4.87-39.43-12.82-57.7c-5.33-12.71-6.23-26.46-9.52-39.67c-3.26-8.91-2.62-18.63-5.2-27.7
		c-2.97-10.21-3.66-20.89-6.65-31.08c-3.72-14.29-6.72-28.84-12.65-42.43c-3.07-9.01-5.67-18.19-9.04-27.1
		c-3.04-14.66-9.57-28.28-12.55-42.96c-0.98-5.99-2.83-11.76-5.12-17.35c-5.49-13.39-8.56-27.6-14.08-40.95
		c-2.26-5.99-4.65-11.9-5.88-18.18c-2.99-12.34-9.12-23.62-11.87-36.02c-1.89-7.8-7.13-14.28-8.79-22.16
		c-5.21-24.43-16.8-46.84-23.36-70.83c-4.82-12.56-7.7-25.74-12.42-38.33c-2.54-8.52-5.47-16.96-7.37-25.65
		c-1.61-4.75-1.33-10.39-4.8-14.31c-4.24-5.16-5.79-11.88-7.96-18.02c-2.63-8.44-5.85-16.66-9.15-24.84
		c-4.64-11.66-7.67-23.91-12.76-35.39c-3.13-6.7-4.2-14.13-7.29-20.85c-7.47-17.08-11.4-35.5-19.34-52.38
		c-5.8-12.3-11.71-24.54-17.01-37.06c-8.42-15.59-15.05-32.55-27.12-45.81c-3.68-4.76-5.62-10.74-10.13-14.88
		c-4.2-3.86-8.69-7.36-12.84-11.26c-7.74-7.75-17.39-13.15-27.16-17.89c-15.87-7.78-31.47-16.08-47.63-23.23
		c-9.5-5.31-20.22-7.68-30.15-11.96c-9.58-4-19.5-7.28-28.48-12.55c-8.16-5.11-17.73-6.97-26.67-10.23
		c-13.13-4.55-25.3-11.47-38.68-15.32c-17.61-5.15-34.2-13.04-51.18-19.87c-19.93-8.29-38.57-19.79-54.32-34.57
		c-6.06-7.46-11.11-15.65-16.6-23.51c-6,3.23-11.9,6.67-18.04,9.64c-14.23,5.91-27.51,13.99-42.19,18.86
		c-28.48,11.03-59.27,15.06-89.68,14.52c-36.6-0.14-72.72-10.38-105.13-27.1c-3.28,3.3-7.44,5.95-9.74,10.07
		c-3.03,11.48-2.81,23.58-6.06,35.05c-5.61,20.27-7.57,41.49-15.66,61.07c-4.07,15.48-11.11,30.22-12.42,46.35
		c-0.61,14.77-5.69,28.74-8.19,43.2c-1.85,11.05-4.04,22.11-4.74,33.33c-0.8,16.4-6.34,32.05-7.69,48.38
		c-3.1,20.35-4.71,40.89-7.95,61.21c-3.46,16.01-2.63,32.55-5.07,48.69c-3.52,18.2-5.21,36.69-8.7,54.89
		c-1.26,21.7-8.05,42.61-9.7,64.28c-0.29,14.18-6.6,27.35-7.18,41.49c-0.38,7.15-2.95,13.95-3.32,21.1
		c-1.7,22.52-1.45,45.22-4.74,67.61c-0.85,11.51,0.07,23.09-1.86,34.53c2.97,14.59-3.18,28.29-6.78,42.06
		c-5.56,17.56-11.77,34.89-18.92,51.87c-7.78,14.72-21.15,25.61-28.48,40.64c-3.76,7.81-9.37,14.38-15.44,20.46
		c-6.61,6.15-10.68,14.49-17.75,20.24c-11.18,10.28-19.46,23.1-30.16,33.81c-7.53,8.5-16.49,15.54-24.73,23.31
		c-3.16,2.92-4.79,7.08-7.99,9.98c-6.63,6.1-13.48,11.99-21.1,16.85c-5.3,3.24-8.59,8.79-13.75,12.2
		c-8.8,5.82-19.01,9.92-29.72,9.75c-13.7,1.19-25.38-7.75-37.98-11.52c-13.66-4.35-23.66-15.14-35.81-22.24
		c-6.04-3.45-10.31-9.18-16.32-12.65c-8.9-5.48-16.54-12.66-23.65-20.24c-5.18-6.4-6.61-14.82-8.64-22.53
		c-2.12-8.33-5.69-16.14-8.27-24.29c-3.24-16.09-7.94-31.87-12.38-47.64c-1.39-12.77-1.18-25.61-2.36-38.37
		c-1.05-6.42,1.23-12.6,1.73-18.9c-0.57-15.13-2.74-30.12-5.67-44.95c-2.29-12.22-0.95-24.78-2.91-37.02
		c-1.18-7.86-0.58-15.89-1.82-23.74c-2.61-15.64-1.56-31.54-2.22-47.28c-0.55-6.07-2.05-12.01-2.7-18.05
		c-2.08-12.5-1.57-25.25-3.6-37.75c-2.47-17.08-2.03-34.39-3.21-51.55c-3.96-38.43-1.72-77.09-0.82-115.6
		c1.84-13,2.38-26.22,5.75-38.95c4.25-14.44,6.68-29.43,12.63-43.35c10.78-25.18,22.15-50.2,36.3-73.7
		c7.11-10.98,15.49-21.03,24.3-30.67c6.54-8.9,15.78-15.2,24.94-21.09c7.51-7.36,16.38-13,24.89-19.08c8.42-6,18.61-8.51,27.5-13.63
		c12.19-6.8,25.09-12.1,37.59-18.27c10.38-5.03,21.75-7.38,32.34-11.85c10.49-4.12,20.31-9.7,30.61-14.23
		c15.89-5.92,33.32-9.61,47.18-19.79c8.8-19.81,12.11-41.63,15.59-62.88c2.71-14.7,2.03-29.72,2.73-44.59
		c0.15-10.3-3.82-20.12-8.69-29.01c-7.65-16.33-14.92-32.86-20.1-50.16c-9.67-18.59-18.47-37.69-28.96-55.84
		c-6.55-8.42-13.5-16.84-17.15-27.02c-3.72-7.54-7.39-15.12-9.3-23.36c-2.35-9.84-9.06-17.81-12.8-27.06
		c-1.89-6.4-3.49-12.88-6.06-19.04c-4.82-15.44-0.26-31.6,2.22-47.01c1.62-7.13,3.68-14.16,6.37-20.96
		c2.59-8.35,5.95-16.73,12.02-23.19c8.54-12.63,15.96-25.98,24.14-38.84c4.18-6.17,9.96-11.69,11.6-19.22
		c0.95-8.75,0.94-17.65,3.98-26.03c1.21-19.22-0.63-40.55,10.93-57.29c3.28-7.43,14.9-7.9,14.67-17.48
		c16.38-74.88,48.6-147.45,99.49-205.35c19.68-21.76,41.1-42.25,65.89-58.14C779.12-373.82,817.36-388.56,857.04-391.91 M741-328.01
		c-36.31,26.31-64.8,61.96-88.09,99.94c-30.55,51.41-50.69,108.68-61.48,167.4c-0.62,4.46-0.46,8.98-0.7,13.48
		c8.52,0.19,17.11-0.22,25.58,1.01c9.18,3.01,17.63,7.88,26.6,11.44c5.16,2.92,8.88,7.75,13.8,11.03
		c8.32,5.81,11.81,15.69,17.01,23.93c1.97,3.71,6.47,3.97,10.09,5.13c18.31,3.8,35.55,13.93,46.81,28.96
		c7.38,10.16,6.07,24.31,13.94,34.05c12.02,7.14,25.53,12.31,35.03,23.05c12.98,14.06,14.38,34.57,14.96,52.72
		c-0.95,4.91,3.18,8.09,5.59,11.71c9.79,11.6,18.96,24.63,20.73,40.14c0.39,13.56,0.74,27.19-0.42,40.73
		c-2.76,7.19-6.42,14.3-12.02,19.72c-8.02,6.54-17.81,10.4-27.75,12.92c1.83,8.65,5.81,16.63,7.96,25.19
		c1.46,5.48,4.57,10.55,4.24,16.44c2.82,28.94,2.35,58.07,0.17,87.03c-0.47,6.25-2.41,12.3-5.2,17.9
		c-2.96,5.58-4.47,11.79-7.48,17.35c37.76,18.81,80.68,29.67,122.96,24.11c60.63-6.84,116.47-39.12,157.89-83.15
		c44.63-47.79,75.4-107.09,94.83-169.2c22.99-74.95,30.68-154.74,20.39-232.56c-8.46-70.33-30.06-139.5-66.35-200.53
		c-20.25-32.96-44.06-64.24-74.12-88.89c-34.06-28.82-75.3-49.58-119.3-57.66C854.82-386.1,790.66-364.89,741-328.01 M602.96-23.03
		c-5.83,2.79-9.35,8.74-13.75,13.25C569,11.88,556.57,39.08,540.52,63.66c-7.11,9.57-11.8,20.59-18.17,30.63
		c-9.04,14.44-11.14,31.98-10.24,48.68c1.38,18.34,9.27,35.13,16.12,51.89c7.29,14.26,12.1,29.92,21.93,42.78
		c2.75,4.68,4.21,10.15,7.96,14.21c10.21,11.89,17.48,25.99,23.51,40.37c4.86,9.8,9.64,19.69,12.7,30.22
		c1.44,6.8,5.7,12.42,8.18,18.81c3.8,10.5,9.85,20.04,13.53,30.59c5.96,19.63,1.26,40.3-0.05,60.25
		c-3.96,17.22-10.09,34.08-11.2,51.86c-0.1,6.29-2.7,12.03-4.84,17.81c-4.6,16.85-11.82,33-13.97,50.48
		c-6.05,22.91-12.83,45.64-20.49,68.09c-6.23,22.52-16.76,43.45-26.61,64.53c-4.08,11.83-9.13,23.28-13.16,35.13
		c-6.17,12.83-12.61,25.57-20.06,37.72c-4.29,7.57-6.67,16.1-11.41,23.46c-11.62,20.25-22.42,40.94-32.05,62.21
		c-3.12,6.87-6.96,13.38-11.25,19.58c-9.45,15.75-15.01,33.54-25.04,48.97c-11.79,20.24-20.41,42.2-32.95,62.02
		c-6.82,11.43-12.14,23.69-18.87,35.18c-6.17,11.08-14.24,21.14-19.03,32.96c-6.52,13.5-10.66,28.02-17.5,41.38
		c-3.88,9.97-6.65,20.37-9.59,30.66c-2.04,10.66-2.53,21.55-4.38,32.26c-4.49,21.4-5.68,43.36-6.03,65.17
		c0.26,7.62-0.85,15.54,1.75,22.88c5.88,19.13,8.26,39.24,15.54,57.94c2.19,9.16,3.89,18.97,10.62,26.13
		c5.14,5.18,9.5,11.24,15.98,14.92c13.43,9.17,24.37,21.84,39.08,29.18c7.57,4.1,14.97,8.81,23.47,10.82
		c10.3,3.84,22.33,5.65,32.42,0.16c9.26-3.79,15.47-12.06,23.7-17.42c8.9-5.95,15.99-14.08,23.12-21.93
		c10.25-9.71,20.81-19.18,30.16-29.78c8.33-11.26,18.95-20.48,27.82-31.27c15.92-16.88,27.94-36.78,41.41-55.54
		c4.61-6.77,9.95-13.14,13.32-20.65c7.42-18.41,14.56-36.98,19.72-56.17c2.82-10.61,1-21.66,2.89-32.4
		c1.28-8.28-0.32-16.68,0.08-24.97c0.21-6.33,1.73-12.5,2.87-18.68c1.67-8.95,0.54-18.11,1.27-27.11
		c1.09-11.16,0.44-22.47,2.43-33.53c2.04-10.47,4.32-20.87,6.5-31.29c2.51-12.33,2.97-24.99,6.13-37.18
		c7.63-30.41,8.86-61.85,14.27-92.63c5.27-27.61,5.92-55.82,11.24-83.43c1.6-19.36,5.2-38.45,7.75-57.68
		c1.31-6.78,3.39-13.42,3.93-20.33c0.11-4.28-0.33-8.55,0.34-12.79c2.32-16.12,3.67-32.42,7.48-48.28
		c3.96-15.78,4.45-32.28,9.72-47.77c5.52-15.29,8.59-31.28,13.13-46.86c2.63-8.14,2.68-16.83,5.18-24.99
		c2.87-8.88,3.36-18.29,4.78-27.45c1.1-10.35,4.42-21.01,0.11-31.1c11.57-7.61,23.14-16.23,30.3-28.34
		c4.41-6.48,5.39-14.48,6.64-22.02c0.79-25.72,4.92-51.78-0.72-77.25c-0.44-8.2-2.96-16.22-7.87-22.83
		c-6.25-9.48-10.65-19.97-16.17-29.85c-6.32-11.69-7.88-25.37-6.34-38.44c0.89-4.25,5.27-7.09,9.38-7.49
		c5.52,0.46,9,5.57,8.99,10.85c-0.21,9.58,6.11,18.73,15.15,21.86c8.78,0.77,18.2-3.49,21.89-11.82
		c3.83-10.23,1.49-21.36,1.37-31.96c-0.83-6.91-0.37-14.28-3.56-20.68c-1.92-4.83-6.61-7.91-10.95-10.3
		c-15.21-0.17-29.65,6.11-43.09,12.66c-13.75,6.21-28.7,9.52-41.74,17.31c-4.32,2.49-9.61,2.33-14.35,1.34
		c-2.47-1.86-4.27-4.43-6.27-6.75c1.79-3.54,3.46-7.2,5.9-10.34c7.48-6.5,17.48-8.38,26.53-11.69c5.61-2.45,10.82-5.74,16.41-8.27
		c11.28-5.57,23.55-8.79,34.93-14.16c3.96-1.85,6.39-5.85,8.41-9.53c2.56-10.2,0.47-20.95-2.71-30.77
		c-4.98-7.8-12.23-14.02-20.15-18.68c-8.9-4.14-18.94-0.44-25.89,5.62c-23.91,14.66-45.85,32.17-68.77,48.27
		c-9.26,6.47-17.25,14.65-27.11,20.27c-3.92-2.6-8.01-5.15-10.57-9.2c5.21-6.03,10.91-11.6,16.57-17.2
		c5.79-5.86,13.84-8.58,20.2-13.71c13.12-8.73,24.62-19.6,37.64-28.47c6.94-6.48,14.27-12.54,22.09-17.93
		c5.55-3.62,9.33-10.71,7.54-17.38c-1.63-9.14-5.22-18.36-12.24-24.7c-6.82-7.3-16.23-11.13-25.46-14.31
		c-9.31-0.7-18.19,4.19-24.18,11.1c-12.14,11.87-24.09,24.02-34.35,37.58c-11.22,17.14-27.35,30.13-40.32,45.82
		c-3.34,5.22-9.69,5.32-15.2,5.64c0-4.92-1.34-10.52,2.41-14.53c6.6-11.41,18.27-18.55,25.57-29.41
		c5.01-7.57,12.72-12.76,17.78-20.27c12.96-18.54,27.49-36.09,44.27-51.31c-7.06-7.37-9.47-17.9-16.53-25.26
		C630.29-21.69,616.17-26.84,602.96-23.03 M543,534.02c-7.34,1.94-13.45,6.57-20.29,9.65c-14.24,6.18-28.77,11.67-43.4,16.84
		c-11.44,5.86-23.62,10.27-34.51,17.19c-12.62,5.83-25.54,11.29-37.19,18.99c-6.21,3.91-11.08,9.52-16.69,14.21
		c-5.15,3.91-10.93,6.96-15.9,11.13c-30.75,27.82-47.87,66.58-64.26,103.84c-5.86,12.39-8.04,26.02-11.84,39.11
		c-4.01,13.68-4.54,28.02-6.53,42.08c-0.93,37.68-3.16,75.53,1.01,113.11c0.48,20.38,1.39,40.76,4.29,60.97
		c0.4,14.46,2.39,28.79,4.86,43.03c1.02,24.41-0.4,49.68,7.04,73.29c-0.05-4.83,3.15-8.59,5.29-12.63
		c3.13-5.45,4.78-11.58,7.82-17.06c5.42-9.82,10.79-19.71,14.9-30.17c3.59-8.65,8.41-16.71,13.38-24.61
		c8.95-14.1,15.47-29.55,24.32-43.7c8.16-15.5,18.97-29.5,26.47-45.36c4.4-12.2,12.22-22.72,17.32-34.59
		c6.63-17.11,17.35-32.19,25.5-48.56c13.73-28.97,29.12-57.07,43.61-85.65c7.71-12.44,14.54-25.46,19.88-39.1
		c4.05-9.33,5.75-19.51,10.43-28.6c4.27-9.48,7.12-19.49,10.59-29.27c2.28-6.36,6.01-12.04,8.94-18.09
		c7.82-19.02,15.12-38.29,20.46-58.18c4.37-19.93,12.58-39.01,14.19-59.52C563.36,527.58,553.14,530.81,543,534.02 M441.22-39
		c-0.17-6.89,9.24-10.49,14.37-6.6c3.25,2.72,5.55,6.49,9.42,8.49c9.76,5.76,20.52,9.53,30.65,14.54
		c6.18,2.71,5.22,13.34-1.33,14.93c-7.41,1.08-14.03-3.14-20.54-6.06c2.73,5.97,5.33,12,7.69,18.12c1.04,2.76,2.47,5.41,4.66,7.43
		c3.57,3.45,6.46,7.54,10.19,10.84c5.27,5.07,12.48,8.18,16.35,14.64c2.77,4.45,0.32,11.41-5.08,12.24
		c-4.15,1.37-7.33-1.63-10.13-4.04c-3.02-2.8-6.37-5.19-9.72-7.55c0.57,12.57,3.53,25.21,1.29,37.79
		c-3.09,14.88-5.22,30.1-11.1,44.23c-1.39,4.9-4.82,9.43-9.64,11.32c-4.43,1.71-10.09-0.91-10.87-5.71
		c-0.42-4.82,2.63-8.67,4.17-12.96c4.88-10.55,5.86-22.22,8.45-33.41c2.4-10.34,4.37-21.29,0.74-31.63
		c-3.12,4.77-4.54,11.61-10.46,13.76c-6.11,2.49-12.97-3.57-10.79-9.92c2.95-12.1,11.78-21.36,16.22-32.75
		c2.72-9.64-5.29-17.89-7.74-26.67c-1.4,7.38-1.55,14.93-2.8,22.33c-1.68,7.64-14.73,6.99-15.78-0.77
		C438.45-3.94,441.68-21.43,441.22-39L441.22-39z"/>
</g>
</svg>
