<?xml version="1.0" encoding="iso-8859-1"?>
<!-- Generator: Adobe Illustrator 28.5.0, SVG Export Plug-In . SVG Version: 9.03 Build 54727)  -->
<svg version="1.1" id="Layer_1" xmlns="http://www.w3.org/2000/svg" xmlns:xlink="http://www.w3.org/1999/xlink" x="0px" y="0px"
	 viewBox="0 0 1920 1080" style="enable-background:new 0 0 1920 1080;" xml:space="preserve">
<g>
	<path style="fill:#FFFFFF;" d="M-15-540h1949v2160H-15V-540 M965.66-507.4c-41.91,9.65-80.65,30.91-112.99,59.05
		c-26.64,23.57-50.21,50.64-69.4,80.61c-3.7,6.47-6.58,13.37-10.42,19.76c-53.26-4.72-106.91-3.35-160,2.74
		c-107.46,12.06-212.97,44.55-307.17,97.91c-73.3,41.16-139.69,94.68-194.85,158.16C76.61-49.47,45.62-6.42,22.94,40.97
		c-4.97,7.81-2.03,17.1-0.46,25.46C34.69,124.8,51.2,182.24,71.74,238.22c27.28,73.72,62.16,145.28,110.25,207.79
		c74.21,97.59,167.71,177.7,255.3,262.7c18.13,18.95,37.19,37.52,50.92,60.07c13.52,22.87,25.12,46.92,34.24,71.89
		c9.14,24.35,15.86,49.5,23.54,74.33c8.39,28.1,18.07,55.83,28.88,83.1c7.7,18.2,15.44,36.71,27.53,52.52
		c10.32,12.67,25.53,19.59,39.37,27.62c15.38,8.84,31.58,16.18,46.84,25.24c9.23,6.14,20.52,10.57,31.75,7.91
		c5.57-1.12,9.27-5.82,12.41-10.17c8.29,3.19,15.15,9.54,24.22,10.77c10.45,0.28,21.35-0.9,30.51-6.36
		c4.91-1.77,9.75-6.56,15.18-4.4c6.26,1.9,12.4,4.34,18.91,5.34c-8.17,8.47-15.44,18.16-25.56,24.47
		c-10.07,6.37-18.41,15.07-28.56,21.33c-16.01,9.83-32.2,19.38-48.7,28.37c-12.09,6.69-25.83,9.63-38.08,16
		c-4.21,2.25-2.74,7.55-2.78,11.5c0.33,13.86,4.2,29.27,15.63,38.22c6.96,6.18,15.35,10.5,24.55,12.27c15.48,2.8,31.66,3.13,47-0.66
		c11.61-2.28,22.68-6.51,33.92-10.09c-14.63,26.7-30.87,52.53-44.21,79.92c-3.15,5.97-7.38,11.25-10.78,17.09
		c-7.51,12.4-13.03,25.88-20.64,38.22c-8.52,15.23-17.93,29.98-25.44,45.76c-8.43,17.27-21.2,32.71-24.84,52.05
		c-1.86,13.36,2.97,27.07,12.03,36.87c8.83,8.48,21.52,10.72,33.28,11.5c-4.3,15.09-5.6,32.7,4.05,46.11
		c7.53,9.41,19.49,14.76,31.5,14.76c12.44,2.16,23.79-4.56,34.16-10.43c3.79,7.46,8.09,15.79,16.44,18.89
		c12.16,7.31,28.31,7.25,40.66,0.46c7.69-5.47,15.86-10.69,21.65-18.29c6.13-7.54,11.74-15.52,18.5-22.52
		c9.42-10.64,18.02-21.98,27.02-32.97c2.18,3.13,4.23,6.64,7.77,8.44c8.78,4.68,18.61,8.76,28.8,7.02
		c13.82-0.83,24.82-10.48,34.81-19.1c5.59-4.82,9.38-11.24,14.55-16.45c35.02-36.31,70.63-72.05,104.79-109.19
		c31.37-34.28,53.2-75.91,71.94-118.08c28.36-65.32,51.82-132.61,78.39-198.65c12.74-31.55,26.03-63.06,43.74-92.2
		c14.99-24.97,37.87-43.46,58.11-63.89c77.57-71.9,157.73-140.93,236.55-211.46c39.44-35.51,79.11-70.81,117.07-107.91
		c17.03-15.3,32.39-32.32,47.88-49.14c60.14-69.04,105.61-149.75,141.27-233.77c2.45-6.42,4.74-13.24,3.38-20.19
		c-8.9-90.56-31.48-180.05-69.27-262.92c-19.31-42.27-43.63-82.24-72.15-118.92c-29.8-38.41-66.55-70.85-105.99-99.03
		c-78.11-55.49-168.47-93.09-262.36-111.65c-33.58-6.66-67.72-11.44-102.01-11.54c-0.89-2.92-1.47-5.96-2.78-8.71
		c-7.18-12.91-13.35-26.36-20.82-39.1c-28.58-48.77-66.96-92.62-114.69-123.35c-29.19-18.56-62.16-31.38-96.4-36.52
		C1025.3-514.84,994.93-513.62,965.66-507.4 M1009.44-497.5c52.43-2.82,104.14,16.59,146.56,46.53
		c25.48,18.45,48.34,40.61,66.99,65.97c35.43,46.36,59.88,100.37,75.57,156.37c20.2,74.84,26.03,153.86,14.36,230.62
		c-12.78,83.8-43.26,166.55-96.96,232.97c-37.59,47.29-89.91,83.92-149.02,98.07c-24.21,5.31-49.35,7.75-73.98,4.01
		c-60.31-8.56-115.17-41.51-156.16-85.84c-46.86-51.82-78.35-116.09-96.78-183.14c-22.14-82.66-26.48-170.43-9.49-254.46
		c15.1-77.15,46.18-152.44,97.04-213.02C872.5-453.66,938.22-493.11,1009.44-497.5 M538.61-316.41
		c73.25-14.76,148.43-20.75,223.04-15.56c-5.12,12.85-11.59,25.11-16.6,38.01c-32.19,78.17-43.3,163.92-39.44,248.01
		c2.54,54.89,13.58,109.26,31.56,161.15c-25.7,2.31-51.44-0.9-76.85-4.52c-38.07-5.96-74.35-19.32-111.28-29.81
		c-26.57-7.22-54.09-12.39-81.73-10.56c-34.18,2.9-67.23,13.12-98.89,25.93c-7.29-9.19-14.85-18.21-23.26-26.38
		c-2.95-2.63-6.45-5.51-10.78-4.5c-4.33,1.33-7.78,6.44-5.7,10.93c5.89,7.7,13.45,13.94,19.49,21.53
		c25.27,30.61,46.22,64.66,63.85,100.17c36.18,70.38,58.62,146.6,82.45,221.74c20.14,62.76,40.33,126.47,74.47,183.33
		c26.83,45.27,68.37,78.78,109.34,110.66c43.39,32.76,89.17,62.16,133.74,93.25c12.02,8.8,24.8,17.01,34.57,28.42
		c7.96,12.31,12.13,26.54,16.84,40.29c10.06,32.4,18.19,65.37,25.46,98.51c-10.73-13.23-22.93-25.14-34.05-38.02
		c-3.56-3.46-7.32-8.84-13.17-6.55c-6.25,1.65-6.86,10.24-2.75,14.43c11.67,13.32,24.11,25.94,35.83,39.21
		c6.84,7.81,15,14.39,21.34,22.66c4.46,5.81,9.91,10.72,14.87,16.09c11.84,13.79,24.56,26.77,36.92,40.09
		c6.31,7.67,14.17,13.9,20.22,21.82c5.32,6.95,12.09,12.59,17.68,19.32c12.39,14.54,26.55,27.48,38.65,42.28
		c5.33,7.08,12.67,12.82,15.63,21.46c2.45,6.46,2.37,13.89-0.95,20.07c-4.49,13.71-24.85,17.8-34.68,7.54
		c-69.53-69.48-138.99-139.04-208.54-208.5c-3.89-4.58-12.66-3.55-14.27,2.58c-1.72,3.98,0.79,7.61,3.43,10.26
		c22.25,22.21,44.54,44.4,66.69,66.72c-3.49,3.52-7.22,6.84-10.23,10.8c-5.48,7.67-14.97,12.23-24.32,12.35
		c-16.05-4.22-23.02-20.25-34.73-30.25c-7.04-7.28-14.55-14.12-21.2-21.76c-4.22-5.77-10.31-9.73-14.8-15.27
		c-3.91-4.04-8.23-10.04-14.79-7.9c-5.52,1.41-7.18,9.14-3.5,13.22c12.82,14.78,27.58,27.79,40.23,42.72
		c6.79,4.99,12.59,11.22,16.11,18.96c-9.07,4.11-19.3,8.48-29.32,5.24c-7.1-4.33-13.92-9.28-20.15-14.79
		c-6.46-6.74-15.4-10.39-21.63-17.37c-8.38-9.41-18.99-16.35-28.43-24.58c-4.64-4.02-8.3-9.05-13.12-12.86
		c-3.97-2.99-10.45-4.36-14.4-0.7c-2.94,3.33-3.69,9.81,0.7,12.27c5.4,3.59,8.91,9.2,14.04,13.11c6.34,5.31,12.81,10.46,19.24,15.67
		c5.52,3.77,9.41,9.3,14.48,13.59c4.18,3.84,8.92,7,13.47,10.39c-1.38,2.19-2.27,5.07-4.73,6.3c-5.71,0.65-10.97-1.91-15.73-4.67
		c-24.3-14.3-50.12-25.93-73.81-41.28c-8.36-4.97-13.23-13.78-18-21.93c-19.92-36.55-31.78-76.72-44.87-116.03
		c-8.16-26.68-15.23-53.74-25.33-79.78c-10.72-28.14-24.01-55.39-40.37-80.69c-18.34-25.59-41.56-47.07-63.8-69.16
		c-15.63-16.06-32.52-30.81-48.54-46.46c-44.39-41.57-88.33-83.72-129.56-128.45c-33.43-36.72-65.27-75.13-91.73-117.25
		c-37.86-60.35-65.71-126.39-88.35-193.77c-14.11-42.89-25.75-86.56-35.23-130.7c-0.93-4.75-2.02-9.52-1.92-14.39
		c3.49-9.82,9.27-18.6,14.02-27.83c47.53-81.84,113.43-152.51,189.74-208.23C329.35-250.2,431.82-294.26,538.61-316.41
		 M1297.03-286.16c55.68,1.76,110.64,13.35,163.85,29.41c87.8,27.74,170.53,73.02,238.74,135.15
		c61.85,57.21,105.33,131.56,135.31,209.69c20.98,55.63,35.96,113.53,44.51,172.37c2.07,15.78,4.75,31.55,5.21,47.48
		c-2.25,8.37-6.35,16.09-9.68,24.05c-17.36,38.79-36.62,76.8-59.07,112.91c-26.83,44.76-58.53,86.65-95.13,123.87
		c-32.53,32.84-66.73,63.99-100.89,95.12c-87.24,79.17-176.8,155.74-263.53,235.48c-17.09,16.56-35.19,32.13-51.17,49.81
		c-12.61,12.85-22.34,28.2-31.1,43.84c-27.21,51.72-46.73,106.91-67.78,161.29c-17.18,44.12-33.48,88.64-53.46,131.61
		c-9.98,21.37-20.77,42.4-33.84,62.08c-15.36,24.93-36.51,45.39-56.37,66.64c-29.88,31.76-61.24,62.15-90.52,94.46
		c-8.83,7.87-19.18,16.67-31.93,14.63c-6.93-0.9-12.16-6.26-16.38-11.44c9.36-11.47,18-23.54,28.1-34.39
		c7.65-8.13,13.53-17.72,21.04-25.95c8.52-8.3,14.7-18.59,22.65-27.39c6.15-6.57,11.16-14.09,17.35-20.62
		c4.42-4.65,8.31-9.77,12.21-14.85c3.76-4.86,8.34-9,12.05-13.88c3.29-4.07,1.32-11.28-3.87-12.59c-3.18-1.32-6.37-0.06-8.72,1.99
		c-9.53,8.27-15.88,19.38-24.55,28.45c-6.26,6.47-11.13,14.12-17.36,20.62c-8.14,8.95-14.36,19.51-23.09,27.95
		c-8.13,9.23-14.83,19.68-23.44,28.52c-10.48,11.31-18.59,24.6-29.5,35.52c-13.41,16.25-26.15,33.07-40.32,48.68
		c-6.32,7.63-11.65,16.3-19.75,22.26c-5.95,4.39-11.58,10.75-19.63,10.44c-7.66,1.95-13.61-3.78-19.02-8.03
		c-5.12-4.21-4.64-11.93-4.64-17.83c2.84-6.61,8.16-11.86,12.15-17.76c20.12-28.76,40.75-57.15,61.43-85.51
		c19.55-27.19,38.68-54.67,58.12-81.95c6.91-7.92,11.89-17.25,18.73-25.21c3.77-4.01,2.1-11.74-3.41-13.14
		c-6.31-2.19-10.72,3.44-13.96,7.79c-9.01,13.83-19.87,26.31-28.66,40.31c-10.17,12.95-18.69,27.07-28.85,40.01
		c-8.49,13.04-17.7,25.6-27.23,37.9c-21.71,30.32-43.2,60.82-64.87,91.18c-4.64,6.68-10.52,12.51-17.92,16.08
		c-7.35,4.31-16.39,2.51-24.14,0.38c-8.74-2.76-12.57-12.84-12.67-21.22c1.15-17.95,13.75-31.77,22.54-46.45
		c16.68-27.81,35.41-54.35,51.61-82.46c22.15-34.26,43.41-69.08,65.68-103.25c2.45-4.43-0.21-10.68-5.26-11.46
		c-4.85-1.36-8.83,2.15-11.41,5.71c-8.69,14-17.94,27.66-26.16,41.96c-8.17,10.45-13.45,22.79-21.49,33.34
		c-19.55,30.5-37.81,61.83-58.03,91.9c-5.6,9.35-10.66,19.14-17.6,27.6c-7.31,8.1-19.86,5.42-28.78,1.91
		c-6.42-1.87-9.99-7.93-12.26-13.73c-3.49-11.82,2.1-23.42,7.71-33.51c7.13-10.64,12.63-22.22,18.56-33.53
		c11.58-20.71,23.76-41.09,34.74-62.12c4.93-10.11,11.41-19.31,16.99-29.03c9.47-18.28,19-36.58,29.97-54.02
		c10.33-18.15,19.95-36.69,30.49-54.73c11.82-20.26,21.59-41.69,34.39-61.37c4.42-4.32,1.76-12.34-4.12-13.38
		c-4.06-1.39-7.67,1.24-9.81,4.33c-10.42,14.53-17.27,31.15-26.48,46.42c-3.71,6.12-5.29,14.32-12.24,17.88
		c-14.71,9.22-31.6,13.87-48.06,18.84c-14.18,4.17-29.3,3.45-43.67,0.68c-6.25-1.52-11.48-5.6-16.32-9.63
		c-6.38-5.63-6.32-14.97-8.39-22.51c10.68-4.69,21.79-8.38,32.27-13.54c14.74-8.07,29.34-16.4,43.67-25.18
		c9.91-5.04,18.06-12.65,26.83-19.33c6.95-5.75,15.01-10.13,21.14-16.85c7.58-7.12,13.9-15.42,21.47-22.53
		c8.73-8.05,15.28-18.07,23.03-26.98c2.09-2.86,6.41-2.15,8.56,0.34c30.22,30.45,60.69,60.66,90.98,91.05
		c8.53,8.84,17.76,17.01,25.73,26.38c-15.8,20.68-31.26,41.62-47.02,62.33c-0.51-7.51-0.55-15.11-1.97-22.49
		c-1.62-6.63-12.19-7.33-15.1-1.4c-2.09,6.27-0.68,13.29-0.66,19.82c1.35,13.27-1.61,26.62-6.66,38.85
		c-1.91,4.74-2.82,12.02,3.05,14.21c5.03,2.52,9.42-1.21,12.39-4.78c6.62-7.64,16.19-11.32,24.7-16.29c7.54-4.5,16.4-6,24.27-9.77
		c5.79-3.32,4.07-13.89-2.71-14.85c-7.85,0.35-15.14,3.7-22.65,5.65c13.21-18.7,27.65-36.48,41.08-55.02
		c1.53-1.93,3.28-4.53,6.09-4.23c6.93,0.95,13.59,4.07,20.75,3.11c7.21-0.93,13.4-4.85,19.39-8.67c11.2-7.34,15.1-21.64,15.64-34.32
		c0.15-9.78-4.1-18.86-7.49-27.81c15.24-19.71,29.9-39.86,45.21-59.51c3.1-4.81,8.23-9.17,7.3-15.51
		c-1.86-6.27-11.52-8.43-15.02-2.23c-16.96,21.83-33.54,44.04-50.1,66.21c-13.28-15.66-28.27-29.72-41.54-45.37
		c-5.04-5.63-10.76-10.63-15.36-16.64c-6.34-8.28-14.57-14.81-21.13-22.89c-9.39-9.79-18.59-19.76-27.71-29.8
		c11.73-6.26,23.33-12.9,35.81-17.57c19.23-7.84,40-10.9,59.24-18.71c39.65-14.57,73.9-40.83,102.63-71.38
		c34.91-37.6,63.32-80.62,89.34-124.69c69.62-118.65,132.5-241.13,202.36-359.64c34.35-59.62,79.79-112.22,130.25-158.74
		c5.11-5.18,11.89-9.02,15.31-15.68c1.61-2.1,0.7-4.68-0.1-6.84c-8.83-20.86-23.46-38.8-40.29-53.74
		c-30.15-24.84-68.72-38.11-107.43-40.77c-29.12-2.67-58.11,2.45-86.61,7.85c-16.87,3.23-34.2,3.01-51.15,0.56
		c19.05-42.06,33.99-86.1,41.92-131.67C1342.91-74.99,1336.12-186.05,1297.03-286.16 M1433.14,826.11
		c-1.34,0.67-1.35,1.35-0.03,2.03C1434.41,827.44,1434.42,826.76,1433.14,826.11 M379.47,110.18
		c36.12-14.63,74.94-25.06,114.21-22.83c37.27,3.22,72.45,16.83,108.18,26.91c45.54,14.13,93.66,19.59,141.23,18.44
		c2.21,6.99,6.59,12.97,9.55,19.64c15.81,35.45,36.61,68.7,61.78,98.27c28.32,32.88,61.98,61.98,101.57,80.41
		c12.39,6.44,26.01,9.84,38.83,15.21c5.66,5.22,9.13,12.28,13.36,18.64c9.48,14.24,18.43,28.83,27.53,43.32
		c3.87,6.18,7.37,13.95,14.86,16.35c7.54,2.13,16.97,3.34,22.74-3.23c19.63-21.58,29.9-49.34,44.86-74
		c31.02-8.08,60.38-22.09,86.42-40.76c33.74-24.87,63.03-55.76,86.32-90.61c5.81-8.69,11.95-17.29,16.11-26.93
		c1.51-4.38,4.46-7.93,7.24-11.53c19.64,3.41,39.89,5.18,59.6,1.25c22.18-4.16,44.5-8.14,67.13-8.62
		c24.98-1.1,50.05,3.52,73.31,12.62c32.58,11.88,60.85,36.43,75.91,67.8c-43.97,38.35-83.35,82.05-116.79,129.86
		c-20.34,30.25-38.39,61.94-56.49,93.56c-59.33,105.14-115.53,212.07-177.01,315.99c-28.38,47.07-59.93,92.98-100.25,130.72
		c-28.95,27.2-64.73,47.12-103.29,56.8c-22.63,5.98-44.95,13.75-65.1,25.85c-3.25,1.69-6.29,4.27-10.06,4.56
		c-6.87-4-10.59-11.62-11.78-19.26c-7.55-35.83-16.13-71.47-26.43-106.61c-4.98-15.89-9.8-31.94-17.18-46.91
		c-4.62-10.28-12.87-18.44-21.63-25.28c-25.94-20.51-54.12-37.92-81.32-56.66c-50.3-34.55-100.71-69.73-144.13-112.9
		c-23.44-23.82-40.81-52.73-55.33-82.62c-30.01-63.99-48.99-132.32-70.74-199.35c-22.49-71.7-48.71-142.86-87.21-207.7
		C397.45,136.7,388.14,123.63,379.47,110.18 M982.59,352.02c23.73,1.94,47.69,3.37,71.38,0.05c-9.69,17.99-18.18,36.83-31.16,52.8
		c-1.59,1.23-3.31,2.24-5.17,3.03C1006.6,388.88,994.02,370.8,982.59,352.02L982.59,352.02z"/>
	<path d="M965.66-507.4c29.27-6.22,59.64-7.44,89.31-3.51c34.24,5.14,67.21,17.96,96.4,36.52c47.73,30.73,86.11,74.58,114.69,123.35
		c7.47,12.74,13.64,26.19,20.82,39.1c1.31,2.75,1.89,5.79,2.78,8.71c34.29,0.1,68.43,4.88,102.01,11.54
		c93.89,18.56,184.25,56.16,262.36,111.65c39.44,28.18,76.19,60.62,105.99,99.03c28.52,36.68,52.84,76.65,72.15,118.92
		c37.79,82.87,60.37,172.36,69.27,262.92c1.36,6.95-0.93,13.77-3.38,20.19c-35.66,84.02-81.13,164.73-141.27,233.77
		c-15.49,16.82-30.85,33.84-47.88,49.14c-37.96,37.1-77.63,72.4-117.07,107.91c-78.82,70.53-158.98,139.56-236.55,211.46
		c-20.24,20.43-43.12,38.92-58.11,63.89c-17.71,29.14-31,60.65-43.74,92.2c-26.57,66.04-50.03,133.33-78.39,198.65
		c-18.74,42.17-40.57,83.8-71.94,118.08c-34.16,37.14-69.77,72.88-104.79,109.19c-5.17,5.21-8.96,11.63-14.55,16.45
		c-9.99,8.62-20.99,18.27-34.81,19.1c-10.19,1.74-20.02-2.34-28.8-7.02c-3.54-1.8-5.59-5.31-7.77-8.44
		c-9,10.99-17.6,22.33-27.02,32.97c-6.76,7-12.37,14.98-18.5,22.52c-5.79,7.6-13.96,12.82-21.65,18.29
		c-12.35,6.79-28.5,6.85-40.66-0.46c-8.35-3.1-12.65-11.43-16.44-18.89c-10.37,5.87-21.72,12.59-34.16,10.43
		c-12.01,0-23.97-5.35-31.5-14.76c-9.65-13.41-8.35-31.02-4.05-46.11c-11.76-0.78-24.45-3.02-33.28-11.5
		c-9.06-9.8-13.89-23.51-12.03-36.87c3.64-19.34,16.41-34.78,24.84-52.05c7.51-15.78,16.92-30.53,25.44-45.76
		c7.61-12.34,13.13-25.82,20.64-38.22c3.4-5.84,7.63-11.12,10.78-17.09c13.34-27.39,29.58-53.22,44.21-79.92
		c-11.24,3.58-22.31,7.81-33.92,10.09c-15.34,3.79-31.52,3.46-47,0.66c-9.2-1.77-17.59-6.09-24.55-12.27
		c-11.43-8.95-15.3-24.36-15.63-38.22c0.04-3.95-1.43-9.25,2.78-11.5c12.25-6.37,25.99-9.31,38.08-16
		c16.5-8.99,32.69-18.54,48.7-28.37c10.15-6.26,18.49-14.96,28.56-21.33c10.12-6.31,17.39-16,25.56-24.47
		c-6.51-1-12.65-3.44-18.91-5.34c-5.43-2.16-10.27,2.63-15.18,4.4c-9.16,5.46-20.06,6.64-30.51,6.36
		c-9.07-1.23-15.93-7.58-24.22-10.77c-3.14,4.35-6.84,9.05-12.41,10.17c-11.23,2.66-22.52-1.77-31.75-7.91
		c-15.26-9.06-31.46-16.4-46.84-25.24c-13.84-8.03-29.05-14.95-39.37-27.62c-12.09-15.81-19.83-34.32-27.53-52.52
		c-10.81-27.27-20.49-55-28.88-83.1c-7.68-24.83-14.4-49.98-23.54-74.33c-9.12-24.97-20.72-49.02-34.24-71.89
		c-13.73-22.55-32.79-41.12-50.92-60.07c-87.59-85-181.09-165.11-255.3-262.7C133.9,383.5,99.02,311.94,71.74,238.22
		C51.2,182.24,34.69,124.8,22.48,66.43c-1.57-8.36-4.51-17.65,0.46-25.46C45.62-6.42,76.61-49.47,110.83-89.17
		c55.16-63.48,121.55-117,194.85-158.16c94.2-53.36,199.71-85.85,307.17-97.91c53.09-6.09,106.74-7.46,160-2.74
		c3.84-6.39,6.72-13.29,10.42-19.76c19.19-29.97,42.76-57.04,69.4-80.61C885.01-476.49,923.75-497.75,965.66-507.4 M1009.44-497.5
		c-71.22,4.39-136.94,43.84-181.87,98.08c-50.86,60.58-81.94,135.87-97.04,213.02c-16.99,84.03-12.65,171.8,9.49,254.46
		c18.43,67.05,49.92,131.32,96.78,183.14c40.99,44.33,95.85,77.28,156.16,85.84c24.63,3.74,49.77,1.3,73.98-4.01
		c59.11-14.15,111.43-50.78,149.02-98.07c53.7-66.42,84.18-149.17,96.96-232.97c11.67-76.76,5.84-155.78-14.36-230.62
		c-15.69-56-40.14-110.01-75.57-156.37c-18.65-25.36-41.51-47.52-66.99-65.97C1113.58-480.91,1061.87-500.32,1009.44-497.5
		 M538.61-316.41c-106.79,22.15-209.26,66.21-297.43,130.58C164.87-130.11,98.97-59.44,51.44,22.4
		c-4.75,9.23-10.53,18.01-14.02,27.83c-0.1,4.87,0.99,9.64,1.92,14.39c9.48,44.14,21.12,87.81,35.23,130.7
		c22.64,67.38,50.49,133.42,88.35,193.77c26.46,42.12,58.3,80.53,91.73,117.25c41.23,44.73,85.17,86.88,129.56,128.45
		c16.02,15.65,32.91,30.4,48.54,46.46c22.24,22.09,45.46,43.57,63.8,69.16c16.36,25.3,29.65,52.55,40.37,80.69
		c10.1,26.04,17.17,53.1,25.33,79.78c13.09,39.31,24.95,79.48,44.87,116.03c4.77,8.15,9.64,16.96,18,21.93
		c23.69,15.35,49.51,26.98,73.81,41.28c4.76,2.76,10.02,5.32,15.73,4.67c2.46-1.23,3.35-4.11,4.73-6.3
		c-4.55-3.39-9.29-6.55-13.47-10.39c-5.07-4.29-8.96-9.82-14.48-13.59c-6.43-5.21-12.9-10.36-19.24-15.67
		c-5.13-3.91-8.64-9.52-14.04-13.11c-4.39-2.46-3.64-8.94-0.7-12.27c3.95-3.66,10.43-2.29,14.4,0.7c4.82,3.81,8.48,8.84,13.12,12.86
		c9.44,8.23,20.05,15.17,28.43,24.58c6.23,6.98,15.17,10.63,21.63,17.37c6.23,5.51,13.05,10.46,20.15,14.79
		c10.02,3.24,20.25-1.13,29.32-5.24c-3.52-7.74-9.32-13.97-16.11-18.96c-12.65-14.93-27.41-27.94-40.23-42.72
		c-3.68-4.08-2.02-11.81,3.5-13.22c6.56-2.14,10.88,3.86,14.79,7.9c4.49,5.54,10.58,9.5,14.8,15.27
		c6.65,7.64,14.16,14.48,21.2,21.76c11.71,10,18.68,26.03,34.73,30.25c9.35-0.12,18.84-4.68,24.32-12.35
		c3.01-3.96,6.74-7.28,10.23-10.8c-22.15-22.32-44.44-44.51-66.69-66.72c-2.64-2.65-5.15-6.28-3.43-10.26
		c1.61-6.13,10.38-7.16,14.27-2.58c69.55,69.46,139.01,139.02,208.54,208.5c9.83,10.26,30.19,6.17,34.68-7.54
		c3.32-6.18,3.4-13.61,0.95-20.07c-2.96-8.64-10.3-14.38-15.63-21.46c-12.1-14.8-26.26-27.74-38.65-42.28
		c-5.59-6.73-12.36-12.37-17.68-19.32c-6.05-7.92-13.91-14.15-20.22-21.82c-12.36-13.32-25.08-26.3-36.92-40.09
		c-4.96-5.37-10.41-10.28-14.87-16.09c-6.34-8.27-14.5-14.85-21.34-22.66c-11.72-13.27-24.16-25.89-35.83-39.21
		c-4.11-4.19-3.5-12.78,2.75-14.43c5.85-2.29,9.61,3.09,13.17,6.55c11.12,12.88,23.32,24.79,34.05,38.02
		c-7.27-33.14-15.4-66.11-25.46-98.51c-4.71-13.75-8.88-27.98-16.84-40.29c-9.77-11.41-22.55-19.62-34.57-28.42
		c-44.57-31.09-90.35-60.49-133.74-93.25c-40.97-31.88-82.51-65.39-109.34-110.66c-34.14-56.86-54.33-120.57-74.47-183.33
		c-23.83-75.14-46.27-151.36-82.45-221.74c-17.63-35.51-38.58-69.56-63.85-100.17c-6.04-7.59-13.6-13.83-19.49-21.53
		c-2.08-4.49,1.37-9.6,5.7-10.93c4.33-1.01,7.83,1.87,10.78,4.5c8.41,8.17,15.97,17.19,23.26,26.38
		c31.66-12.81,64.71-23.03,98.89-25.93c27.64-1.83,55.16,3.34,81.73,10.56c36.93,10.49,73.21,23.85,111.28,29.81
		c25.41,3.62,51.15,6.83,76.85,4.52C719.19,63.31,708.15,8.94,705.61-45.95c-3.86-84.09,7.25-169.84,39.44-248.01
		c5.01-12.9,11.48-25.16,16.6-38.01C687.04-337.16,611.86-331.17,538.61-316.41 M1297.03-286.16
		c39.09,100.11,45.88,211.17,27.31,316.54c-7.93,45.57-22.87,89.61-41.92,131.67c16.95,2.45,34.28,2.67,51.15-0.56
		c28.5-5.4,57.49-10.52,86.61-7.85c38.71,2.66,77.28,15.93,107.43,40.77c16.83,14.94,31.46,32.88,40.29,53.74
		c0.8,2.16,1.71,4.74,0.1,6.84c-3.42,6.66-10.2,10.5-15.31,15.68c-50.46,46.52-95.9,99.12-130.25,158.74
		c-69.86,118.51-132.74,240.99-202.36,359.64c-26.02,44.07-54.43,87.09-89.34,124.69c-28.73,30.55-62.98,56.81-102.63,71.38
		c-19.24,7.81-40.01,10.87-59.24,18.71c-12.48,4.67-24.08,11.31-35.81,17.57c9.12,10.04,18.32,20.01,27.71,29.8
		c6.56,8.08,14.79,14.61,21.13,22.89c4.6,6.01,10.32,11.01,15.36,16.64c13.27,15.65,28.26,29.71,41.54,45.37
		c16.56-22.17,33.14-44.38,50.1-66.21c3.5-6.2,13.16-4.04,15.02,2.23c0.93,6.34-4.2,10.7-7.3,15.51
		c-15.31,19.65-29.97,39.8-45.21,59.51c3.39,8.95,7.64,18.03,7.49,27.81c-0.54,12.68-4.44,26.98-15.64,34.32
		c-5.99,3.82-12.18,7.74-19.39,8.67c-7.16,0.96-13.82-2.16-20.75-3.11c-2.81-0.3-4.56,2.3-6.09,4.23
		c-13.43,18.54-27.87,36.32-41.08,55.02c7.51-1.95,14.8-5.3,22.65-5.65c6.78,0.96,8.5,11.53,2.71,14.85
		c-7.87,3.77-16.73,5.27-24.27,9.77c-8.51,4.97-18.08,8.65-24.7,16.29c-2.97,3.57-7.36,7.3-12.39,4.78
		c-5.87-2.19-4.96-9.47-3.05-14.21c5.05-12.23,8.01-25.58,6.66-38.85c-0.02-6.53-1.43-13.55,0.66-19.82
		c2.91-5.93,13.48-5.23,15.1,1.4c1.42,7.38,1.46,14.98,1.97,22.49c15.76-20.71,31.22-41.65,47.02-62.33
		c-7.97-9.37-17.2-17.54-25.73-26.38c-30.29-30.39-60.76-60.6-90.98-91.05c-2.15-2.49-6.47-3.2-8.56-0.34
		c-7.75,8.91-14.3,18.93-23.03,26.98c-7.57,7.11-13.89,15.41-21.47,22.53c-6.13,6.72-14.19,11.1-21.14,16.85
		c-8.77,6.68-16.92,14.29-26.83,19.33c-14.33,8.78-28.93,17.11-43.67,25.18c-10.48,5.16-21.59,8.85-32.27,13.54
		c2.07,7.54,2.01,16.88,8.39,22.51c4.84,4.03,10.07,8.11,16.32,9.63c14.37,2.77,29.49,3.49,43.67-0.68
		c16.46-4.97,33.35-9.62,48.06-18.84c6.95-3.56,8.53-11.76,12.24-17.88c9.21-15.27,16.06-31.89,26.48-46.42
		c2.14-3.09,5.75-5.72,9.81-4.33c5.88,1.04,8.54,9.06,4.12,13.38c-12.8,19.68-22.57,41.11-34.39,61.37
		c-10.54,18.04-20.16,36.58-30.49,54.73c-10.97,17.44-20.5,35.74-29.97,54.02c-5.58,9.72-12.06,18.92-16.99,29.03
		c-10.98,21.03-23.16,41.41-34.74,62.12c-5.93,11.31-11.43,22.89-18.56,33.53c-5.61,10.09-11.2,21.69-7.71,33.51
		c2.27,5.8,5.84,11.86,12.26,13.73c8.92,3.51,21.47,6.19,28.78-1.91c6.94-8.46,12-18.25,17.6-27.6
		c20.22-30.07,38.48-61.4,58.03-91.9c8.04-10.55,13.32-22.89,21.49-33.34c8.22-14.3,17.47-27.96,26.16-41.96
		c2.58-3.56,6.56-7.07,11.41-5.71c5.05,0.78,7.71,7.03,5.26,11.46c-22.27,34.17-43.53,68.99-65.68,103.25
		c-16.2,28.11-34.93,54.65-51.61,82.46c-8.79,14.68-21.39,28.5-22.54,46.45c0.1,8.38,3.93,18.46,12.67,21.22
		c7.75,2.13,16.79,3.93,24.14-0.38c7.4-3.57,13.28-9.4,17.92-16.08c21.67-30.36,43.16-60.86,64.87-91.18
		c9.53-12.3,18.74-24.86,27.23-37.9c10.16-12.94,18.68-27.06,28.85-40.01c8.79-14,19.65-26.48,28.66-40.31
		c3.24-4.35,7.65-9.98,13.96-7.79c5.51,1.4,7.18,9.13,3.41,13.14c-6.84,7.96-11.82,17.29-18.73,25.21
		c-19.44,27.28-38.57,54.76-58.12,81.95c-20.68,28.36-41.31,56.75-61.43,85.51c-3.99,5.9-9.31,11.15-12.15,17.76
		c0,5.9-0.48,13.62,4.64,17.83c5.41,4.25,11.36,9.98,19.02,8.03c8.05,0.31,13.68-6.05,19.63-10.44c8.1-5.96,13.43-14.63,19.75-22.26
		c14.17-15.61,26.91-32.43,40.32-48.68c10.91-10.92,19.02-24.21,29.5-35.52c8.61-8.84,15.31-19.29,23.44-28.52
		c8.73-8.44,14.95-19,23.09-27.95c6.23-6.5,11.1-14.15,17.36-20.62c8.67-9.07,15.02-20.18,24.55-28.45
		c2.35-2.05,5.54-3.31,8.72-1.99c5.19,1.31,7.16,8.52,3.87,12.59c-3.71,4.88-8.29,9.02-12.05,13.88c-3.9,5.08-7.79,10.2-12.21,14.85
		c-6.19,6.53-11.2,14.05-17.35,20.62c-7.95,8.8-14.13,19.09-22.65,27.39c-7.51,8.23-13.39,17.82-21.04,25.95
		c-10.1,10.85-18.74,22.92-28.1,34.39c4.22,5.18,9.45,10.54,16.38,11.44c12.75,2.04,23.1-6.76,31.93-14.63
		c29.28-32.31,60.64-62.7,90.52-94.46c19.86-21.25,41.01-41.71,56.37-66.64c13.07-19.68,23.86-40.71,33.84-62.08
		c19.98-42.97,36.28-87.49,53.46-131.61c21.05-54.38,40.57-109.57,67.78-161.29c8.76-15.64,18.49-30.99,31.1-43.84
		c15.98-17.68,34.08-33.25,51.17-49.81c86.73-79.74,176.29-156.31,263.53-235.48c34.16-31.13,68.36-62.28,100.89-95.12
		c36.6-37.22,68.3-79.11,95.13-123.87c22.45-36.11,41.71-74.12,59.07-112.91c3.33-7.96,7.43-15.68,9.68-24.05
		c-0.46-15.93-3.14-31.7-5.21-47.48c-8.55-58.84-23.53-116.74-44.51-172.37c-29.98-78.13-73.46-152.48-135.31-209.69
		c-68.21-62.13-150.94-107.41-238.74-135.15C1407.67-272.81,1352.71-284.4,1297.03-286.16 M379.47,110.18
		c8.67,13.45,17.98,26.52,26,40.4c38.5,64.84,64.72,136,87.21,207.7c21.75,67.03,40.73,135.36,70.74,199.35
		c14.52,29.89,31.89,58.8,55.33,82.62c43.42,43.17,93.83,78.35,144.13,112.9c27.2,18.74,55.38,36.15,81.32,56.66
		c8.76,6.84,17.01,15,21.63,25.28c7.38,14.97,12.2,31.02,17.18,46.91c10.3,35.14,18.88,70.78,26.43,106.61
		c1.19,7.64,4.91,15.26,11.78,19.26c3.77-0.29,6.81-2.87,10.06-4.56c20.15-12.1,42.47-19.87,65.1-25.85
		c38.56-9.68,74.34-29.6,103.29-56.8c40.32-37.74,71.87-83.65,100.25-130.72c61.48-103.92,117.68-210.85,177.01-315.99
		c18.1-31.62,36.15-63.31,56.49-93.56c33.44-47.81,72.82-91.51,116.79-129.86c-15.06-31.37-43.33-55.92-75.91-67.8
		c-23.26-9.1-48.33-13.72-73.31-12.62c-22.63,0.48-44.95,4.46-67.13,8.62c-19.71,3.93-39.96,2.16-59.6-1.25
		c-2.78,3.6-5.73,7.15-7.24,11.53c-4.16,9.64-10.3,18.24-16.11,26.93c-23.29,34.85-52.58,65.74-86.32,90.61
		c-26.04,18.67-55.4,32.68-86.42,40.76c-14.96,24.66-25.23,52.42-44.86,74c-5.77,6.57-15.2,5.36-22.74,3.23
		c-7.49-2.4-10.99-10.17-14.86-16.35c-9.1-14.49-18.05-29.08-27.53-43.32c-4.23-6.36-7.7-13.42-13.36-18.64
		c-12.82-5.37-26.44-8.77-38.83-15.21c-39.59-18.43-73.25-47.53-101.57-80.41c-25.17-29.57-45.97-62.82-61.78-98.27
		c-2.96-6.67-7.34-12.65-9.55-19.64c-47.57,1.15-95.69-4.31-141.23-18.44c-35.73-10.08-70.91-23.69-108.18-26.91
		C454.41,85.12,415.59,95.55,379.47,110.18 M982.59,352.02c11.43,18.78,24.01,36.86,35.05,55.88c1.86-0.79,3.58-1.8,5.17-3.03
		c12.98-15.97,21.47-34.81,31.16-52.8C1030.28,355.39,1006.32,353.96,982.59,352.02 M1433.14,826.11c1.28,0.65,1.27,1.33-0.03,2.03
		C1431.79,827.46,1431.8,826.78,1433.14,826.11L1433.14,826.11z"/>
</g>
</svg>
