<?xml version="1.0" encoding="iso-8859-1"?>
<!-- Generator: Adobe Illustrator 28.5.0, SVG Export Plug-In . SVG Version: 9.03 Build 54727)  -->
<svg version="1.1" id="Layer_1" xmlns="http://www.w3.org/2000/svg" xmlns:xlink="http://www.w3.org/1999/xlink" x="0px" y="0px"
	 viewBox="0 0 1920 1080" style="enable-background:new 0 0 1920 1080;" xml:space="preserve">
<g>
	<path style="fill:#FFFFFF;" d="M11-607h1897v2295H11V-607 M911.87-580.22c-39.74,9.34-76.7,29.01-107.88,55.22
		c-38.85,32.89-70.6,73.85-93.94,119.03c-14.94,29.05-27.04,59.57-36.08,90.96c-25.87,89.57-28.33,185.14-11.54,276.62
		c14.68,76.35,45.25,150.7,94.78,211.18c10.77,13.58,23.67,25.23,35.61,37.74c-5.11,8.69-10.16,17.63-18.01,24.23
		c-16.87,14.28-37.69,22.96-58.59,29.45c-17.17,6.64-35.13,10.62-52.95,15.03c-7.2,1.25-13.19,5.8-20.29,7.31
		c-6.54,1.55-12.87,3.92-19.49,5.1c-8.79,1.78-16.93,5.68-25.3,8.75c-13.39,6.02-27.73,9.33-41.9,12.91
		c-7.74,1.71-14.6,5.9-22.25,7.86c-8.48,2.13-14.95,9.25-23.7,10.51c-5.3,0.8-9.88,3.85-15.07,5.08
		c-8.9,2.31-16.54,7.49-24.32,12.14c-7.74,3.9-14.26,9.64-20.61,15.44c-4.83,4.62-11.88,6.57-15.71,12.29
		c-3.86,5.76-7.73,11.54-11.95,17.05c-9.16,11.85-15.99,25.22-24.28,37.65c-8.7,15.26-15.09,31.75-24.39,46.7
		c-5.91,8.47-7.7,18.75-11.98,27.99c-4.84,11.86-12.43,22.46-16.39,34.71c-2.18,6.27-4.64,12.45-7.52,18.45
		c-5.79,11.62-8.56,24.56-15.21,35.77c-4.5,8.11-7.75,16.92-13.35,24.39c-2.88,10.87-6.15,21.81-11.41,31.84
		c-5.21,10-7.63,21.15-12.72,31.21c-3.78,8.13-6,16.9-10.12,24.9c-5.7,10.79-8.2,23.02-14.66,33.41c-2.01,3.67-1.69,8.25-4.05,11.81
		c-3.35,5.18-3.46,11.84-7.43,16.68c-3.33,4.3-1.43,10.31-4.07,14.94c-4.85,8.8-9.51,17.73-13.9,26.77
		c-3.89,11.56-6.72,23.71-13.28,34.17c-3.88,5.63-4.03,13.04-8.61,18.28c-3.13,3.35-2.8,8.18-4.52,12.2
		c-4.88,12.82-10.75,25.26-15.26,38.24c-5.23,12.01-8.37,24.74-12.72,37.06c-2.96,7.03-7.2,13.41-10.61,20.22
		c-2.85,6.77-5.55,13.63-8.21,20.48c-2.55,11.61-9.24,21.84-10.87,33.74c-7.11,22.79-11.44,46.44-19.94,68.8
		c-5,14.84-12.36,28.9-15.4,44.38c-2.32,16.22-10.85,30.79-13.64,46.88c-0.75,7.24-4.36,13.67-5.99,20.68
		c-1.84,9.7-6.53,18.48-9.03,27.99c-3.15,12.41-7.09,24.61-10.01,37.08c-7.57,22.43-13.7,45.33-18.54,68.51
		c-5.3,26.17-9.24,52.96-7,79.72c2.42,27.41,7.33,54.6,15.03,81.03c8.05,27.7,17.97,55.23,33.1,79.94
		c9.36,15.09,21.35,30.16,38.62,36.37c10.82,3.54,22.34,4.75,33.69,4.23c22.81-0.64,45.38-4.53,67.66-9.25
		c41.63-9.5,82.4-23.04,121.28-40.75c35.65-16.03,65.55-41.79,94.88-67.08c43.27-38.04,84.83-78.04,129.46-114.52
		c30.84-24.71,64.5-45.61,98.67-65.33c35.03-19.37,70.64-38.09,108.4-51.59c13.39-4.5,27.36-8.3,41.65-7.44
		c26.11-0.51,51.13,8.34,77.04,10.02c20.11,1.94,40.32-1.51,59.88-6c39.86-9.63,78.43-23.84,116.78-38.21
		c61.12-23.03,120.92-49.45,179.32-78.69c8.24-4.4,17.82-7.62,23.19-15.83c7.44-10.56,6.36-24.34,2.19-35.96
		c5.32-3.13,10.73-6.12,16.53-8.28c9.06-3.48,17.61-8.34,27.12-10.55c5.9-0.13,11.74,0.39,17.66,0.74
		c9.8,32.67,20.56,65.06,30.55,97.68c28.88,91.4,57.51,182.97,91.2,272.75c8.16,22.06,16.9,43.92,26.59,65.36
		c10.26,20.63,19.62,42.32,35.77,59.21c33.32,34.89,77.14,58.33,123.07,72.07c32.53,9.21,66.95,15.41,100.67,9.3
		c15.76-2.59,31.07-9.15,42.72-20.26c15.7-15.09,27.39-33.9,36.51-53.55c16.11-34.19,26.4-70.9,32.88-108.05
		c3.37-19.23,2.71-38.91,0.73-58.23c-3.7-33.68-8.78-67.36-18.96-99.74c-3.38-8.58-3.21-17.99-6.36-26.61
		c-3.85-11-4.47-22.85-8.69-33.71c-2.85-8.66-3.54-18.04-7.92-26.17c-2.73-4.88-4.44-10.2-5.55-15.65
		c-2.26-11.63-8.7-21.86-11.05-33.46c-1.53-9.48-4.67-18.55-7.38-27.71c-3.14-23.24-14.32-44.27-21.08-66.49
		c-2.45-13.32-7.9-25.93-9.49-39.42c-4.51-12.88-6.2-26.64-12.13-39.04c-4.29-15.38-10.07-30.43-18.16-44.24
		c-2.53-3.98-3.75-8.55-4.67-13.11c-1.58-4.88-4.32-9.38-4.78-14.61c-1.34-6.7-5.26-12.53-6.57-19.22
		c-0.52-2.36-1.06-4.73-2.07-6.91c-5.63-11.55-11.07-23.43-13.62-36.08c-0.76-2.38-2.53-4.37-3.67-6.49
		c-3.26-4.65-3.65-10.6-6.75-15.32c-6.88-10.8-9.32-23.65-13.64-35.53c-2.64-5.96-5.68-11.71-8.45-17.6c-2.24-5.03-6-9.6-6.21-15.32
		c-0.42-6.82-5.76-11.92-6.95-18.55c-0.89-4.62-4.21-8.22-5.05-12.81c-0.73-6.2-5.25-10.88-6.97-16.72
		c-3.55-11.27-8.13-22.16-13.07-32.86c-2.9-10.53-8.33-20.1-11.6-30.49c-2.98-12.15-10.6-22.49-13.64-34.62
		c-2.12-4.86-1.97-10.49-4.85-15c-3.86-6.43-7.26-13.13-10.39-19.94c-2.16-4.13-5.03-7.92-6.3-12.45
		c-4.74-17.92-14.15-34.04-19.52-51.73c-6.93-14.66-15.03-28.96-19.56-44.61c-4.43-11.09-11.76-20.71-16.1-31.83
		c-5.25-11.41-11.02-22.57-17.29-33.43c-7.84-10.46-12.59-22.86-20.93-32.97c-5.84-6.87-9-16.08-17.01-20.92
		c-8.02-5.17-14.11-12.72-22.14-17.89c-11.18-6.86-22.14-14.38-34.75-18.43c-7.05-3.26-15.26-3.5-21.76-7.95
		c-8.12-5.56-17.92-7.49-26.65-11.8c-8.98-4.19-18.88-5.75-28.36-8.42c-14.6-3.97-28.04-11.17-42.29-16.11
		c-12.93-2.74-25.86-6-37.93-11.48c-10.5-4.67-21.92-6.43-32.98-9.23c-11.11-3.18-21.72-7.81-32.75-11.21
		c-7.28-1.69-13.96-4.92-20.57-8.26c-13.2-5.5-25.29-13.63-35.47-23.64c-5.2-5.23-8.37-11.95-11.96-18.28
		c16.84-17.22,34.38-33.87,48.62-53.4c50.62-66.59,79.16-147.89,90.81-230.14c10.39-79.84,5.94-161.91-15.03-239.73
		c-17.69-63.8-47.08-125.04-90.5-175.4c-23.59-26.62-50.23-51.02-81.21-68.81c-28.68-16.41-60.47-27.84-93.38-31.6
		C967.76-587.61,939.32-586.2,911.87-580.22 M956.45-570.5c26.03-1.74,52.2,2.87,76.87,11.02c56.77,18.65,105.42,57.89,140.1,106.07
		c39.31,53.12,64.79,115.58,79.07,179.83c14.48,67.2,17.81,137.03,7.05,205.04c-9.52,61.15-28.57,121.11-58.97,175.16
		c-24.82,43.2-56.55,83.46-97.57,112.34c-34.04,24.13-73.76,41.11-115.45,45.5c-30.42,4.01-61.44-0.88-90.27-10.8
		c-33.25-11.21-63.77-29.74-90.1-52.82c-27.88-23.93-50.08-53.64-69.27-84.77c-36.29-61.03-57.9-130.2-66.35-200.53
		c-11.26-86.13-1-174.83,28.52-256.45c13.58-37.02,31.16-72.75,54.08-104.91c22.22-31.86,49.3-60.72,81.82-82.21
		C871.58-552.2,913.33-567.88,956.45-570.5 M786.82,246.82c7.04-7.75,14.34-15.57,18.87-25.13c24.12,19.18,50.78,35.57,80,45.69
		c31.46,11.88,65.62,14.97,99,13.31c50.21-3.29,98.37-24.14,137.58-55.24c4.74,7.52,10.71,14.19,15.97,21.35
		c24.84,22.35,57.18,33.13,88.48,42.9c11.08,4.23,22.81,6.2,34.13,9.66c13.68,5.6,27.82,10.1,42.26,13.38
		c9.77,1.94,17.7,8.65,27.4,10.93c11.48,3.29,22.62,7.61,34.17,10.66c16.43,5.12,31.94,12.62,47.85,19.08
		c7.65,3.44,15.53,6.34,23.03,10.14c11.04,4.92,19.59,13.74,29.53,20.42c3.4,2.26,5.87,5.58,7.8,9.15
		c2.78,5.3,7.66,8.98,11.21,13.71c17.34,22.17,28.51,48.24,42.48,72.51c9.27,16.29,14.09,34.6,22.68,51.22
		c3.26,6.15,4.89,12.98,8,19.2c7.17,13.36,10.99,28.24,18.34,41.54c6.24,11.97,8.94,25.77,17.38,36.56
		c4.22,7.88,5.65,16.83,9.05,25.07c8.37,21.13,16.57,42.34,24.52,63.61c5.33,10.25,9.26,21.14,14.31,31.53
		c5.31,11.56,6.99,24.54,13.78,35.47c4.08,6.05,5.36,13.27,8.08,19.92c5.3,10.2,9.68,20.87,12.88,31.92
		c9.34,18.96,15.58,39.24,24.69,58.29c2.85,8.47,4.74,17.32,8.53,25.47c3.35,7.03,6.36,14.3,8.07,21.94
		c1.73,7.32,6.14,13.59,8.43,20.74c3.99,11.96,10.77,22.81,13.92,35.09c3.13,11.32,7.75,22.2,10.1,33.75
		c1.95,9.61,5.88,18.69,7.38,28.43c1.22,10.28,6.74,19.44,7.7,29.81c3.46,12.05,8.93,23.42,13.27,35.16
		c1.47,7.81,4.9,15.09,6.17,22.96c1.31,9.04,5.43,17.28,7.96,26c4.16,19.91,13.39,38.37,17.05,58.41
		c5.92,16.33,11.77,32.79,15.34,49.85c2.34,10.67,6.19,21,7.54,31.89c1.12,10.1,5.05,19.55,7.03,29.48
		c3.98,11.91,5.55,24.39,8.07,36.65c4.13,14.23,5.47,29.05,7.05,43.74c1.91,19.23,1.83,38.83-2.15,57.82
		c-8.45,42.44-20.9,84.92-43.99,121.89c-9.84,14.76-22.14,29.56-39.38,35.68c-32.43,9.9-67.22,5.15-99.4-3.38
		c-35.85-9.63-70.26-25.6-99.63-48.44c-15.1-12.13-29.81-25.5-39.16-42.73c-15.16-26.23-26.16-54.56-37.45-82.59
		c-32.39-84.7-59.86-171.16-87.26-257.56c-12.87-41.36-26.31-82.54-38.73-124.02c14.81-1.81,27.84-9.97,40.1-17.93
		c12.86-8.47,22.01-21.1,29.91-34.05c5.05-6.01,10.26-11.93,14.12-18.83c5.42-10.01,15.02-16.73,24.38-22.7
		c5.82-3.41,4.13-13.76-2.66-14.76c-9.76-0.67-17.01,7.29-23.48,13.47c0.89-33.67-13.36-68.83-41.2-88.81
		c-13.38-10.48-29.62-16.93-46.35-19.49c-14.81-2.31-30.27-2.44-44.62,2.3c-9.62,2.5-18.12,7.74-27.09,11.79
		c-8.52,2.24-17.69,3.04-26.37,1.65c-18.42-10.32-37.02-20.33-55.72-30.12c-12.69-7.79-27.91-14.06-34.79-28.21
		c-10.32-19.26-17.99-39.78-25.79-60.15c-15.54-41.46-29.63-83.48-41.99-125.99c-2.7-9.84-6.36-20.22-3.75-30.5
		c3.19-12.01,8.9-23.21,11.54-35.37c3.72-14.62,4.53-29.77,5.5-44.76c17.54-4.6,38.9,0.21,49.18,16.09
		c6.36,14.35,4.04,30.53,2.24,45.62c-1.26,11.61-4.38,23.51-0.92,35.05c2.99,14.42,11.98,26.65,21.43,37.59
		c4.66-0.18,8.71-2.43,12.8-4.39c-1.25-6.71-4.72-12.66-8.78-18.01c8.28,0.12,16.76-0.7,24.24-4.53
		c3.82,7.02,10.53,12.05,17.94,14.78c5.84,1.76,12.06,1.26,18.11,1.89c-2.68,11.11,0.26,22.92,6.63,32.24
		c5.4,7.42,13.79,11.87,21.36,16.7c6.39,2.65,13.59,2.21,20.32,3.27c1.65,8.76,6.71,17.49,15.01,21.39
		c9.15,5,18.86,8.86,28.66,12.38c6.89,2.59,14.31,3.32,21.26,5.79c10.51,3.68,21.75,5.3,32.87,4.61c7.8-2.23,15.52-5.71,21.36-11.49
		c9.52-7.39,11.63-20.03,15.51-30.76c3.74,2.68,8.61,4.05,13.08,2.36c5.77-6.23,2.14-15.39-2.78-20.81
		c-6.36-5.97-13.19-12.52-22.61-12.52c-10.52-2.53-19.89,4.19-27.79,10.1c-5.94,5.01-12.13,9.92-16.86,16.14
		c-3.3,4.56-3.93,12.97,2.19,15.38c4,2,8.48,0.08,10.66-3.46c5.32-8.02,13.62-13.24,21.11-18.99c3.19-2.55,7.44-1.78,11.26-2.03
		c-4.07,7.3-6.12,15.47-9.28,23.16c-4.02,10.2-15.16,17.37-26.15,15.91c-11.64-0.62-22.15-6-33.51-7.9
		c-7.34-1.64-14.02-5.21-20.99-7.89c-5.76-1.85-11.8-5.85-12.62-12.34c-3.09-11.11,4.34-20.43,8.04-30.19
		c4.8-12.34,11.11-23.99,15.53-36.47c3.91-10.27,15.59-14.34,25.68-15.28c21.04-1.96,42.15-4.41,63.32-3.55
		c7.32,0.56,11.31,7.66,14.7,13.23c4.42,7.64,9.95,14.95,12.28,23.59c3.17,15.7,10.41,30.31,12.88,46.2
		c2.55,16.88,5.3,33.79,6.09,50.88c0.6,12.64,2.04,25.55-1.05,37.99c-1.54,7.22-1.9,14.67-4.27,21.72
		c-4.83,15.55-13.64,29.48-24.06,41.87c-6.69,9.69-17.51,15.14-24.9,24.19c3.31,4.02,6.28,10.88,12.87,8.69
		c5.12-2.14,9.14-6.22,14-8.86c36.5,81.12,82.21,158.11,135.82,229.09c59.97,77.21,127.69,148.41,201.81,212.16
		c3.4,2.64,6.71,5.87,10.97,7.06c3.84,0.16,6.59-3.42,9.89-4.88c-0.73-4.5-1.6-9.59-5.98-12.06
		c-40.16-33.64-77.95-70.03-113.96-108.05c-37.52-39.8-72.96-81.61-105.19-125.82c-45.9-64.22-85.83-132.78-118.25-204.77
		c-0.83-2.5-2.85-5.34-1.28-7.92c4.57-8.58,12.29-15.15,15.86-24.29c5.72-13.28,11.73-26.79,12.61-41.44
		c4.54-18.17,2.98-37.05,1.86-55.53c-2.7-23.9-5.5-47.98-12.93-70.96c-4.48-12.9-7.76-26.35-14.68-38.23
		c-5.47-9.67-11.14-19.63-20.03-26.59c0.22-12.67,4.95-25.97-0.39-38.08c-3.52-9.24-10.23-17.16-18.63-22.34
		c-5.53-3.98-12.48-4.65-18.9-6.17c-7.55-1.76-15.27-2.71-22.91-3.8c-1.35-9.52-2.78-20.19-9.88-27.3
		c-3.61-3.46-7.71-6.37-11.97-8.94c-5.66-2.87-11.92-4.4-17.22-7.94c-4.9-3.38-10.84-4.59-16.3-6.65
		c-7.46-2.49-14.33-6.41-21.61-9.3c-19.23-5.62-38.46-11.45-58.24-14.96c-7.57-0.61-12.64-7.14-19.74-9.14
		c-10.5-2.68-19.77-9.32-30.7-10.26c-11.72-1.1-24.59,0.36-33.92,8.17c-5.45,5.57-8.54,12.95-12.16,19.73
		c-4.38,14.96-4.04,30.97-1.52,46.26c-13.8-5.52-29.34-6.36-43.66-2.37c-4.28,1.54-9.67,3.46-10.44,8.59
		c-3.04,16.61-1.72,33.91-6.67,50.23c-3.92,16.03-13.58,30.78-12.85,47.78c1.26,12.37,5.77,24.07,8.91,36.04
		c15.64,50.99,32.54,101.67,52.94,150.97c-3.92-3.27-8.09-8.71-13.84-6.4c-7.19,2.37-13.82,6.07-20.74,9.08
		c-20.12,8.64-40.89,15.8-62.18,20.95c-23.28,5.9-47.21,8.31-70.89,11.93c-9.59,1.43-19.17,3.35-28.27,6.78
		c-12.7,5.33-24.14,13.09-35.9,20.17c-34.9,21.83-69.52,44.16-103.26,67.74c-12.37,9.08-26.22,16.95-35.16,29.8
		c-23.01,32.5-39.1,69.16-60.13,102.87c-8.14,13-16.56,27.12-30.83,34.17c-25.96,13.52-53.91,22.55-81.33,32.54
		c-95.56,32.77-192.5,61.27-289.01,91.06c-48.55,15-97.17,29.86-145,47.06c-14.28,5.51-29.2,10.12-41.6,19.43
		c-22.88,16.51-37.74,44.42-36.92,72.82c1.12,7.97,13.93,9.5,15.95,1.41c1.22-18.06,6.54-36.55,19.2-50.02
		c9.41-11.15,22.67-17.82,36.1-22.85c44.62-17.02,90.36-30.83,135.91-45.1c94.84-29.42,190.07-57.6,284.38-88.69
		c33.06-11.4,66.24-22.64,98.28-36.73c13.11-5.81,26.3-13.25,34.78-25.17c28.22-37.95,45.85-82.42,72.79-121.18
		c7.64-11.45,19.41-18.82,30.46-26.54c35.56-24.37,71.61-48.06,108.24-70.78c10.58-6.31,20.98-13.23,32.59-17.51
		c17.37-4.77,35.45-5.9,53.18-8.79c27.89-4.55,55.72-10.52,82.15-20.72c12.88-4.54,25.24-10.38,37.81-15.68
		c5.47,9.46,8.88,20.32,7.92,31.36c-2.31,14.79-12.83,26.13-23.21,36.09c-20.68-1.95-41.51-1.7-62.12-4.42
		c-12.73-1.83-25.66-2.11-38.28-4.62c-3.59-0.54-7.67-1.77-11.02,0.26c-5.57,2.76-5.5,12.84,0.75,14.67
		c9.29,2.8,18.91,4.1,28.59,4.64c11.85,0.64,23.52,2.94,35.36,3.63c11.82,0.95,23.74,0.58,35.52,2.1c32.82,1.83,65.74,2.2,98.6,2.19
		c21.09,0.6,42.2-0.47,63.22-2.36c-11.01,14.06-19.61,30.16-23.57,47.66c-37.29,4.9-74.99,4.21-112.38,7.76
		c-6.56,1.02-8.17,10.57-3.32,14.51c3.67,2.79,8.68,1.59,12.97,2.07c15.69-0.59,31.3-2.59,47.01-2.84
		c17.93-0.13,35.74-2.39,53.66-3.03c0.2,18.54,4.88,36.98,13.62,53.34c-16.03,2.16-32.25,3.75-47.68,8.87
		c-14.79,2.88-29.2,7.69-44.26,9.09c-10.9,1.49-21.71,3.78-32.35,6.56c-6.77,2.09-6.18,13.68,0.69,15.3
		c10.97,2.02,21.32-3.78,32.19-4.5c16.05-1.18,31.2-7.2,47.18-8.82c8.24-0.62,15.97-3.65,23.91-5.68
		c9.69-2.07,19.51-3.37,29.31-4.84c3.32-0.86,4.6,3.76,7.09,5.12c9.21,10.24,21.06,17.75,33.79,22.85
		c-7.55,3.23-15.53,5.66-22.49,10.1c-10.13,6.09-22.11,7.91-32.38,13.71c-9.91,5.22-20.67,8.48-31.34,11.71
		c-17.2,6.79-34.65,12.93-52.25,18.62c-7.21,1.8-12.56,7.38-19.66,9.41c-5.09,2.22-10.7,2.94-15.72,5.32
		c-6.11,2.72-5.22,13.43,1.37,14.98c11.29,1.36,21.95-3.79,31.48-9.3c7.96-5.17,17.16-8.03,26.44-9.74
		c18.42-7.55,37.32-13.9,56.07-20.63c8.84-3.04,16.46-8.88,25.58-11.24c4.02,8.1,4.17,20.13-5.23,24.54
		c-57.55,29.41-116.5,56.13-176.87,79.24c-37.2,14.3-74.65,28.11-113.08,38.78c-19.43,5.09-39.28,9.74-59.49,9.48
		c-29.27-0.01-57.26-10.98-86.56-10.53c-23.21-1.11-45.37,7.15-66.63,15.5c-40.13,16.47-78.49,36.93-115.6,59.34
		c-26.23,15.96-52.27,32.46-76.09,51.89c-55.93,45.12-106.54,96.36-162.09,141.91c-13.94,10.95-28.08,21.8-43.7,30.27
		c-30.03,16.41-62.51,27.59-95.02,37.9c-28.79,8.23-58.04,15.42-87.92,18.17c-15.31,1.37-31.26,2.57-45.95-2.94
		c-8.19-3.05-13.89-10.13-19.53-16.43c-11.62-15.14-19.99-32.47-26.94-50.16c-14.19-36.56-23.68-75.12-26.89-114.24
		c-1.88-20.69,0.22-41.44,3.66-61.84c5.16-28.52,12.72-56.56,21.85-84.05c3.48-13.2,7.14-26.36,10.81-39.49
		c5.92-10.01,7.46-21.64,11.32-32.44c5.7-26.56,16.2-51.71,22.98-77.98c3.42-14.42,11.31-27.24,15.47-41.39
		c1.54-8.64,3.72-17.25,7.62-25.14c1.51-7.25,2.41-14.7,4.97-21.7c3.52-9.52,5.14-19.59,8.58-29.12
		c4.71-13.54,8.05-27.65,14.98-40.29c3.86-6.7,5.51-14.36,8.73-21.35c1.52-2.94,3.39-5.75,4.25-8.98
		c3.24-16.52,14.06-30.38,16.95-47c4.4-10.95,10.19-21.31,14.06-32.49c4.08-12.38,11.65-23.27,15.23-35.82
		c3.15-11.97,10.59-22.19,13.95-34.08c2.32-7.13,7.33-12.94,10.04-19.88c6.85-24.75,20.57-46.83,29.3-70.84
		c3.34-6.57,5.85-13.51,8.38-20.41c5.7-15.78,13.34-30.85,18.02-47c1.13-3.05,2.31-6.11,4.28-8.69c6.94-9.36,9.85-20.84,15.07-31.11
		c6.4-13.15,12.01-26.66,17.92-40.02c5.16-9.16,7.79-19.49,13.15-28.55c7.79-16.91,13.75-34.74,23.42-50.74
		c14.07-24.04,25.78-49.82,43.89-71.21c7.57-6.26,10.82-16.38,19.39-21.52c10.02-7.11,19.56-15.13,30.95-20.02
		c22.25-8.76,44.1-18.63,66.83-26.09c8.81-2.24,17.62-4.51,26.05-7.92c15.3-3.08,28.63-11.84,43.94-14.85
		c15.01-2.55,28.59-9.77,43.34-13.21c18.21-3.83,35.77-10.08,53.46-15.78C748.79,271.08,769.25,260.9,786.82,246.82 M1196.84,466.54
		c11.79-0.64,22.06,5.96,33.16,8.86c-6.8,4.65-14.76,7.98-19.44,15.14c-9.98,10.09-12.79,24.63-13.32,38.3
		c1.47,10.95,2.35,21.95,3.34,32.96c3.51,17.21,4.8,34.78,7.93,52.04c0.4,5,5.6,11.26,1.04,15.7c-8.86,6.34-24.08,0.3-23.87-11.37
		c-1.47-16.6,4.38-32.98,2.98-49.65c-1.23-14.08-7.07-27.12-12.14-40.12c-6.09-18.16-7.39-40.15,4.66-56.26
		C1184.06,466.22,1191.47,467.18,1196.84,466.54 M1248.85,486.79c10.93-2.04,21.43,2.87,31.75,5.73c12.38,4.2,26.18,5.23,37.39,12.5
		c6.77,4.49,15.1,5.33,22.33,8.84c8.47,4.55,18.37,6.51,25.51,13.36c6.08,3.4,5.9,10.75,7.18,16.7
		c-19.56,0.08-39.14,0.28-58.64,1.67c-9.62,2.05-20.51,4.67-26.14,13.57c-7.03,11.58-9.78,25.11-15.71,37.23
		c-3.45,14.86-7.97,29.49-13.47,43.73c-1.43,4.02-6.35,2.78-9.74,2.69c-5.69-0.79-13.07-1.36-16.05-7.18
		c-7.04-14.46-8.92-30.63-10.94-46.38c-3.67-19.9-5.67-40.05-7.08-60.2c-0.76-11.59,3.05-24.01,12.35-31.4
		C1234.01,492.91,1241.16,489.04,1248.85,486.79 M1321.02,562.24c20.97-0.49,41.93-1.65,62.93-1.74c11.7,1.07,23.48,2.6,34.72,6.19
		c7.99,2.15,12.96,9.24,16.38,16.23c2.08,8.85,0.57,18.14-1.2,26.94c-20.62-0.2-41.18,1.46-61.69,3.36
		c-9.81,0.92-19.13,4.73-27.79,9.21c-6.06,4.36-10.74,10.66-13.46,17.6c-8.3,18.96-15.1,38.61-25.16,56.76
		c-10.61,0.21-21.7-3.54-28.38-12.05c-2.47-4.37-4.95-8.91-5.92-13.85c-0.72-15.57,7.01-29.6,11.15-44.2
		c4.31-10.31,4.05-21.89,8.89-32.01c3.29-8.36,5.77-17.09,10.33-24.89C1305.64,563.31,1314.28,562.83,1321.02,562.24
		 M1155.09,836.87c4.9,8.43,9.38,17.65,17.75,23.28c18.65,13.94,40.09,23.39,60.42,34.55c-31.06,2-62.18-0.02-93.28,0.3
		c5.9-8.78,12.72-17.43,14.93-28.02C1157.87,857.19,1157.26,846.73,1155.09,836.87 M1319.39,895.37
		c25.08-6.81,53.09-3.16,74.69,11.54c24.8,16.26,38.92,46.53,37.63,75.87c-3.92-5.14-6.65-11.04-10.06-16.47
		c-2.56-4.35-8.37-5.58-12.98-4.68c-5.15,1.26-7.28,8.55-3.83,12.52c2.62,3.36,5.8,6.34,7.67,10.25c2.54,5.39,6.69,10.07,7.87,16.06
		c0.45,5.47,4.02,10.96,2.61,16.51c-9.8,21.08-29.24,36.55-51,43.99c-7.27,2.01-14.73,3.11-22.17,4.16
		c2.5-7.34,6.77-14.26,7.08-22.16c0.69-5.49-1.15-10.68-2.86-15.75c16.57-4.33,28.1-21.3,27.04-38.21
		c0.34-8.95-3.76-17.4-8.24-24.86c-6.86-9.68-18.73-12.84-29.46-16.21c1.28-9.99,3.39-20.91-2.34-29.96
		C1337.34,907.51,1327.57,901.88,1319.39,895.37 M1292.32,910.33c8.62-3.85,17.96,0.3,25.17,5.22c7.46,5.27,13.1,15.23,9.39,24.38
		c-1.38,3.24-2.34,8.28-6.36,9.35c-19.23,4.46-39.09,5.64-58.77,5.75C1267.63,937.82,1277.73,921.43,1292.32,910.33 M1338.43,965.43
		c12.84-0.83,25.98,10.34,25.45,23.57c0.41,10.13-7.72,19.76-17.71,21.26c-24.44,5.24-48.86,10.61-73.38,15.48
		c-9.7-15.94-14.79-34.66-13.61-53.36c16.92-0.37,33.97-0.61,50.68-3.64C1319.28,966.96,1328.81,965.6,1338.43,965.43
		 M1285.48,1040.75c17.01-1.37,33.01-8.87,50.15-9c2.39-0.27,3.05,2.28,3.59,4.1c2.87,9.87-2.63,20.15-10.01,26.4
		c-7.06,1.58-13.6-3.06-19.99-5.4C1300.19,1053.31,1292.59,1047.18,1285.48,1040.75L1285.48,1040.75z"/>
	<path d="M911.87-580.22c27.45-5.98,55.89-7.39,83.81-4.46c32.91,3.76,64.7,15.19,93.38,31.6c30.98,17.79,57.62,42.19,81.21,68.81
		c43.42,50.36,72.81,111.6,90.5,175.4c20.97,77.82,25.42,159.89,15.03,239.73c-11.65,82.25-40.19,163.55-90.81,230.14
		c-14.24,19.53-31.78,36.18-48.62,53.4c3.59,6.33,6.76,13.05,11.96,18.28c10.18,10.01,22.27,18.14,35.47,23.64
		c6.61,3.34,13.29,6.57,20.57,8.26c11.03,3.4,21.64,8.03,32.75,11.21c11.06,2.8,22.48,4.56,32.98,9.23
		c12.07,5.48,25,8.74,37.93,11.48c14.25,4.94,27.69,12.14,42.29,16.11c9.48,2.67,19.38,4.23,28.36,8.42
		c8.73,4.31,18.53,6.24,26.65,11.8c6.5,4.45,14.71,4.69,21.76,7.95c12.61,4.05,23.57,11.57,34.75,18.43
		c8.03,5.17,14.12,12.72,22.14,17.89c8.01,4.84,11.17,14.05,17.01,20.92c8.34,10.11,13.09,22.51,20.93,32.97
		c6.27,10.86,12.04,22.02,17.29,33.43c4.34,11.12,11.67,20.74,16.1,31.83c4.53,15.65,12.63,29.95,19.56,44.61
		c5.37,17.69,14.78,33.81,19.52,51.73c1.27,4.53,4.14,8.32,6.3,12.45c3.13,6.81,6.53,13.51,10.39,19.94
		c2.88,4.51,2.73,10.14,4.85,15c3.04,12.13,10.66,22.47,13.64,34.62c3.27,10.39,8.7,19.96,11.6,30.49
		c4.94,10.7,9.52,21.59,13.07,32.86c1.72,5.84,6.24,10.52,6.97,16.72c0.84,4.59,4.16,8.19,5.05,12.81
		c1.19,6.63,6.53,11.73,6.95,18.55c0.21,5.72,3.97,10.29,6.21,15.32c2.77,5.89,5.81,11.64,8.45,17.6
		c4.32,11.88,6.76,24.73,13.64,35.53c3.1,4.72,3.49,10.67,6.75,15.32c1.14,2.12,2.91,4.11,3.67,6.49
		c2.55,12.65,7.99,24.53,13.62,36.08c1.01,2.18,1.55,4.55,2.07,6.91c1.31,6.69,5.23,12.52,6.57,19.22c0.46,5.23,3.2,9.73,4.78,14.61
		c0.92,4.56,2.14,9.13,4.67,13.11c8.09,13.81,13.87,28.86,18.16,44.24c5.93,12.4,7.62,26.16,12.13,39.04
		c1.59,13.49,7.04,26.1,9.49,39.42c6.76,22.22,17.94,43.25,21.08,66.49c2.71,9.16,5.85,18.23,7.38,27.71
		c2.35,11.6,8.79,21.83,11.05,33.46c1.11,5.45,2.82,10.77,5.55,15.65c4.38,8.13,5.07,17.51,7.92,26.17
		c4.22,10.86,4.84,22.71,8.69,33.71c3.15,8.62,2.98,18.03,6.36,26.61c10.18,32.38,15.26,66.06,18.96,99.74
		c1.98,19.32,2.64,39-0.73,58.23c-6.48,37.15-16.77,73.86-32.88,108.05c-9.12,19.65-20.81,38.46-36.51,53.55
		c-11.65,11.11-26.96,17.67-42.72,20.26c-33.72,6.11-68.14-0.09-100.67-9.3c-45.93-13.74-89.75-37.18-123.07-72.07
		c-16.15-16.89-25.51-38.58-35.77-59.21c-9.69-21.44-18.43-43.3-26.59-65.36c-33.69-89.78-62.32-181.35-91.2-272.75
		c-9.99-32.62-20.75-65.01-30.55-97.68c-5.92-0.35-11.76-0.87-17.66-0.74c-9.51,2.21-18.06,7.07-27.12,10.55
		c-5.8,2.16-11.21,5.15-16.53,8.28c4.17,11.62,5.25,25.4-2.19,35.96c-5.37,8.21-14.95,11.43-23.19,15.83
		c-58.4,29.24-118.2,55.66-179.32,78.69c-38.35,14.37-76.92,28.58-116.78,38.21c-19.56,4.49-39.77,7.94-59.88,6
		c-25.91-1.68-50.93-10.53-77.04-10.02c-14.29-0.86-28.26,2.94-41.65,7.44c-37.76,13.5-73.37,32.22-108.4,51.59
		c-34.17,19.72-67.83,40.62-98.67,65.33c-44.63,36.48-86.19,76.48-129.46,114.52c-29.33,25.29-59.23,51.05-94.88,67.08
		c-38.88,17.71-79.65,31.25-121.28,40.75c-22.28,4.72-44.85,8.61-67.66,9.25c-11.35,0.52-22.87-0.69-33.69-4.23
		c-17.27-6.21-29.26-21.28-38.62-36.37c-15.13-24.71-25.05-52.24-33.1-79.94c-7.7-26.43-12.61-53.62-15.03-81.03
		c-2.24-26.76,1.7-53.55,7-79.72c4.84-23.18,10.97-46.08,18.54-68.51c2.92-12.47,6.86-24.67,10.01-37.08
		c2.5-9.51,7.19-18.29,9.03-27.99c1.63-7.01,5.24-13.44,5.99-20.68c2.79-16.09,11.32-30.66,13.64-46.88
		c3.04-15.48,10.4-29.54,15.4-44.38c8.5-22.36,12.83-46.01,19.94-68.8c1.63-11.9,8.32-22.13,10.87-33.74
		c2.66-6.85,5.36-13.71,8.21-20.48c3.41-6.81,7.65-13.19,10.61-20.22c4.35-12.32,7.49-25.05,12.72-37.06
		c4.51-12.98,10.38-25.42,15.26-38.24c1.72-4.02,1.39-8.85,4.52-12.2c4.58-5.24,4.73-12.65,8.61-18.28
		c6.56-10.46,9.39-22.61,13.28-34.17c4.39-9.04,9.05-17.97,13.9-26.77c2.64-4.63,0.74-10.64,4.07-14.94
		c3.97-4.84,4.08-11.5,7.43-16.68c2.36-3.56,2.04-8.14,4.05-11.81c6.46-10.39,8.96-22.62,14.66-33.41c4.12-8,6.34-16.77,10.12-24.9
		c5.09-10.06,7.51-21.21,12.72-31.21c5.26-10.03,8.53-20.97,11.41-31.84c5.6-7.47,8.85-16.28,13.35-24.39
		c6.65-11.21,9.42-24.15,15.21-35.77c2.88-6,5.34-12.18,7.52-18.45c3.96-12.25,11.55-22.85,16.39-34.71
		c4.28-9.24,6.07-19.52,11.98-27.99c9.3-14.95,15.69-31.44,24.39-46.7c8.29-12.43,15.12-25.8,24.28-37.65
		c4.22-5.51,8.09-11.29,11.95-17.05c3.83-5.72,10.88-7.67,15.71-12.29c6.35-5.8,12.87-11.54,20.61-15.44
		c7.78-4.65,15.42-9.83,24.32-12.14c5.19-1.23,9.77-4.28,15.07-5.08c8.75-1.26,15.22-8.38,23.7-10.51
		c7.65-1.96,14.51-6.15,22.25-7.86c14.17-3.58,28.51-6.89,41.9-12.91c8.37-3.07,16.51-6.97,25.3-8.75
		c6.62-1.18,12.95-3.55,19.49-5.1c7.1-1.51,13.09-6.06,20.29-7.31c17.82-4.41,35.78-8.39,52.95-15.03
		c20.9-6.49,41.72-15.17,58.59-29.45c7.85-6.6,12.9-15.54,18.01-24.23c-11.94-12.51-24.84-24.16-35.61-37.74
		c-49.53-60.48-80.1-134.83-94.78-211.18c-16.79-91.48-14.33-187.05,11.54-276.62c9.04-31.39,21.14-61.91,36.08-90.96
		c23.34-45.18,55.09-86.14,93.94-119.03C835.17-551.21,872.13-570.88,911.87-580.22 M956.45-570.5
		c-43.12,2.62-84.87,18.3-120.47,42.47c-32.52,21.49-59.6,50.35-81.82,82.21c-22.92,32.16-40.5,67.89-54.08,104.91
		c-29.52,81.62-39.78,170.32-28.52,256.45c8.45,70.33,30.06,139.5,66.35,200.53c19.19,31.13,41.39,60.84,69.27,84.77
		c26.33,23.08,56.85,41.61,90.1,52.82c28.83,9.92,59.85,14.81,90.27,10.8c41.69-4.39,81.41-21.37,115.45-45.5
		c41.02-28.88,72.75-69.14,97.57-112.34c30.4-54.05,49.45-114.01,58.97-175.16c10.76-68.01,7.43-137.84-7.05-205.04
		c-14.28-64.25-39.76-126.71-79.07-179.83c-34.68-48.18-83.33-87.42-140.1-106.07C1008.65-567.63,982.48-572.24,956.45-570.5
		 M786.82,246.82c-17.57,14.08-38.03,24.26-59.33,31.33c-17.69,5.7-35.25,11.95-53.46,15.78c-14.75,3.44-28.33,10.66-43.34,13.21
		c-15.31,3.01-28.64,11.77-43.94,14.85c-8.43,3.41-17.24,5.68-26.05,7.92c-22.73,7.46-44.58,17.33-66.83,26.09
		c-11.39,4.89-20.93,12.91-30.95,20.02c-8.57,5.14-11.82,15.26-19.39,21.52c-18.11,21.39-29.82,47.17-43.89,71.21
		c-9.67,16-15.63,33.83-23.42,50.74c-5.36,9.06-7.99,19.39-13.15,28.55c-5.91,13.36-11.52,26.87-17.92,40.02
		c-5.22,10.27-8.13,21.75-15.07,31.11c-1.97,2.58-3.15,5.64-4.28,8.69c-4.68,16.15-12.32,31.22-18.02,47
		c-2.53,6.9-5.04,13.84-8.38,20.41c-8.73,24.01-22.45,46.09-29.3,70.84c-2.71,6.94-7.72,12.75-10.04,19.88
		c-3.36,11.89-10.8,22.11-13.95,34.08c-3.58,12.55-11.15,23.44-15.23,35.82c-3.87,11.18-9.66,21.54-14.06,32.49
		c-2.89,16.62-13.71,30.48-16.95,47c-0.86,3.23-2.73,6.04-4.25,8.98c-3.22,6.99-4.87,14.65-8.73,21.35
		c-6.93,12.64-10.27,26.75-14.98,40.29c-3.44,9.53-5.06,19.6-8.58,29.12c-2.56,7-3.46,14.45-4.97,21.7
		c-3.9,7.89-6.08,16.5-7.62,25.14c-4.16,14.15-12.05,26.97-15.47,41.39c-6.78,26.27-17.28,51.42-22.98,77.98
		c-3.86,10.8-5.4,22.43-11.32,32.44c-3.67,13.13-7.33,26.29-10.81,39.49c-9.13,27.49-16.69,55.53-21.85,84.05
		c-3.44,20.4-5.54,41.15-3.66,61.84c3.21,39.12,12.7,77.68,26.89,114.24c6.95,17.69,15.32,35.02,26.94,50.16
		c5.64,6.3,11.34,13.38,19.53,16.43c14.69,5.51,30.64,4.31,45.95,2.94c29.88-2.75,59.13-9.94,87.92-18.17
		c32.51-10.31,64.99-21.49,95.02-37.9c15.62-8.47,29.76-19.32,43.7-30.27c55.55-45.55,106.16-96.79,162.09-141.91
		c23.82-19.43,49.86-35.93,76.09-51.89c37.11-22.41,75.47-42.87,115.6-59.34c21.26-8.35,43.42-16.61,66.63-15.5
		c29.3-0.45,57.29,10.52,86.56,10.53c20.21,0.26,40.06-4.39,59.49-9.48c38.43-10.67,75.88-24.48,113.08-38.78
		c60.37-23.11,119.32-49.83,176.87-79.24c9.4-4.41,9.25-16.44,5.23-24.54c-9.12,2.36-16.74,8.2-25.58,11.24
		c-18.75,6.73-37.65,13.08-56.07,20.63c-9.28,1.71-18.48,4.57-26.44,9.74c-9.53,5.51-20.19,10.66-31.48,9.3
		c-6.59-1.55-7.48-12.26-1.37-14.98c5.02-2.38,10.63-3.1,15.72-5.32c7.1-2.03,12.45-7.61,19.66-9.41
		c17.6-5.69,35.05-11.83,52.25-18.62c10.67-3.23,21.43-6.49,31.34-11.71c10.27-5.8,22.25-7.62,32.38-13.71
		c6.96-4.44,14.94-6.87,22.49-10.1c-12.73-5.1-24.58-12.61-33.79-22.85c-2.49-1.36-3.77-5.98-7.09-5.12
		c-9.8,1.47-19.62,2.77-29.31,4.84c-7.94,2.03-15.67,5.06-23.91,5.68c-15.98,1.62-31.13,7.64-47.18,8.82
		c-10.87,0.72-21.22,6.52-32.19,4.5c-6.87-1.62-7.46-13.21-0.69-15.3c10.64-2.78,21.45-5.07,32.35-6.56
		c15.06-1.4,29.47-6.21,44.26-9.09c15.43-5.12,31.65-6.71,47.68-8.87c-8.74-16.36-13.42-34.8-13.62-53.34
		c-17.92,0.64-35.73,2.9-53.66,3.03c-15.71,0.25-31.32,2.25-47.01,2.84c-4.29-0.48-9.3,0.72-12.97-2.07
		c-4.85-3.94-3.24-13.49,3.32-14.51c37.39-3.55,75.09-2.86,112.38-7.76c3.96-17.5,12.56-33.6,23.57-47.66
		c-21.02,1.89-42.13,2.96-63.22,2.36c-32.86,0.01-65.78-0.36-98.6-2.19c-11.78-1.52-23.7-1.15-35.52-2.1
		c-11.84-0.69-23.51-2.99-35.36-3.63c-9.68-0.54-19.3-1.84-28.59-4.64c-6.25-1.83-6.32-11.91-0.75-14.67
		c3.35-2.03,7.43-0.8,11.02-0.26c12.62,2.51,25.55,2.79,38.28,4.62c20.61,2.72,41.44,2.47,62.12,4.42
		c10.38-9.96,20.9-21.3,23.21-36.09c0.96-11.04-2.45-21.9-7.92-31.36c-12.57,5.3-24.93,11.14-37.81,15.68
		c-26.43,10.2-54.26,16.17-82.15,20.72c-17.73,2.89-35.81,4.02-53.18,8.79c-11.61,4.28-22.01,11.2-32.59,17.51
		c-36.63,22.72-72.68,46.41-108.24,70.78c-11.05,7.72-22.82,15.09-30.46,26.54c-26.94,38.76-44.57,83.23-72.79,121.18
		c-8.48,11.92-21.67,19.36-34.78,25.17c-32.04,14.09-65.22,25.33-98.28,36.73c-94.31,31.09-189.54,59.27-284.38,88.69
		c-45.55,14.27-91.29,28.08-135.91,45.1c-13.43,5.03-26.69,11.7-36.1,22.85c-12.66,13.47-17.98,31.96-19.2,50.02
		c-2.02,8.09-14.83,6.56-15.95-1.41c-0.82-28.4,14.04-56.31,36.92-72.82c12.4-9.31,27.32-13.92,41.6-19.43
		c47.83-17.2,96.45-32.06,145-47.06c96.51-29.79,193.45-58.29,289.01-91.06c27.42-9.99,55.37-19.02,81.33-32.54
		c14.27-7.05,22.69-21.17,30.83-34.17c21.03-33.71,37.12-70.37,60.13-102.87c8.94-12.85,22.79-20.72,35.16-29.8
		c33.74-23.58,68.36-45.91,103.26-67.74c11.76-7.08,23.2-14.84,35.9-20.17c9.1-3.43,18.68-5.35,28.27-6.78
		c23.68-3.62,47.61-6.03,70.89-11.93c21.29-5.15,42.06-12.31,62.18-20.95c6.92-3.01,13.55-6.71,20.74-9.08
		c5.75-2.31,9.92,3.13,13.84,6.4c-20.4-49.3-37.3-99.98-52.94-150.97c-3.14-11.97-7.65-23.67-8.91-36.04
		c-0.73-17,8.93-31.75,12.85-47.78c4.95-16.32,3.63-33.62,6.67-50.23c0.77-5.13,6.16-7.05,10.44-8.59
		c14.32-3.99,29.86-3.15,43.66,2.37c-2.52-15.29-2.86-31.3,1.52-46.26c3.62-6.78,6.71-14.16,12.16-19.73
		c9.33-7.81,22.2-9.27,33.92-8.17c10.93,0.94,20.2,7.58,30.7,10.26c7.1,2,12.17,8.53,19.74,9.14c19.78,3.51,39.01,9.34,58.24,14.96
		c7.28,2.89,14.15,6.81,21.61,9.3c5.46,2.06,11.4,3.27,16.3,6.65c5.3,3.54,11.56,5.07,17.22,7.94c4.26,2.57,8.36,5.48,11.97,8.94
		c7.1,7.11,8.53,17.78,9.88,27.3c7.64,1.09,15.36,2.04,22.91,3.8c6.42,1.52,13.37,2.19,18.9,6.17c8.4,5.18,15.11,13.1,18.63,22.34
		c5.34,12.11,0.61,25.41,0.39,38.08c8.89,6.96,14.56,16.92,20.03,26.59c6.92,11.88,10.2,25.33,14.68,38.23
		c7.43,22.98,10.23,47.06,12.93,70.96c1.12,18.48,2.68,37.36-1.86,55.53c-0.88,14.65-6.89,28.16-12.61,41.44
		c-3.57,9.14-11.29,15.71-15.86,24.29c-1.57,2.58,0.45,5.42,1.28,7.92c32.42,71.99,72.35,140.55,118.25,204.77
		c32.23,44.21,67.67,86.02,105.19,125.82c36.01,38.02,73.8,74.41,113.96,108.05c4.38,2.47,5.25,7.56,5.98,12.06
		c-3.3,1.46-6.05,5.04-9.89,4.88c-4.26-1.19-7.57-4.42-10.97-7.06c-74.12-63.75-141.84-134.95-201.81-212.16
		c-53.61-70.98-99.32-147.97-135.82-229.09c-4.86,2.64-8.88,6.72-14,8.86c-6.59,2.19-9.56-4.67-12.87-8.69
		c7.39-9.05,18.21-14.5,24.9-24.19c10.42-12.39,19.23-26.32,24.06-41.87c2.37-7.05,2.73-14.5,4.27-21.72
		c3.09-12.44,1.65-25.35,1.05-37.99c-0.79-17.09-3.54-34-6.09-50.88c-2.47-15.89-9.71-30.5-12.88-46.2
		c-2.33-8.64-7.86-15.95-12.28-23.59c-3.39-5.57-7.38-12.67-14.7-13.23c-21.17-0.86-42.28,1.59-63.32,3.55
		c-10.09,0.94-21.77,5.01-25.68,15.28c-4.42,12.48-10.73,24.13-15.53,36.47c-3.7,9.76-11.13,19.08-8.04,30.19
		c0.82,6.49,6.86,10.49,12.62,12.34c6.97,2.68,13.65,6.25,20.99,7.89c11.36,1.9,21.87,7.28,33.51,7.9
		c10.99,1.46,22.13-5.71,26.15-15.91c3.16-7.69,5.21-15.86,9.28-23.16c-3.82,0.25-8.07-0.52-11.26,2.03
		c-7.49,5.75-15.79,10.97-21.11,18.99c-2.18,3.54-6.66,5.46-10.66,3.46c-6.12-2.41-5.49-10.82-2.19-15.38
		c4.73-6.22,10.92-11.13,16.86-16.14c7.9-5.91,17.27-12.63,27.79-10.1c9.42,0,16.25,6.55,22.61,12.52
		c4.92,5.42,8.55,14.58,2.78,20.81c-4.47,1.69-9.34,0.32-13.08-2.36c-3.88,10.73-5.99,23.37-15.51,30.76
		c-5.84,5.78-13.56,9.26-21.36,11.49c-11.12,0.69-22.36-0.93-32.87-4.61c-6.95-2.47-14.37-3.2-21.26-5.79
		c-9.8-3.52-19.51-7.38-28.66-12.38c-8.3-3.9-13.36-12.63-15.01-21.39c-6.73-1.06-13.93-0.62-20.32-3.27
		c-7.57-4.83-15.96-9.28-21.36-16.7c-6.37-9.32-9.31-21.13-6.63-32.24c-6.05-0.63-12.27-0.13-18.11-1.89
		c-7.41-2.73-14.12-7.76-17.94-14.78c-7.48,3.83-15.96,4.65-24.24,4.53c4.06,5.35,7.53,11.3,8.78,18.01
		c-4.09,1.96-8.14,4.21-12.8,4.39c-9.45-10.94-18.44-23.17-21.43-37.59c-3.46-11.54-0.34-23.44,0.92-35.05
		c1.8-15.09,4.12-31.27-2.24-45.62c-10.28-15.88-31.64-20.69-49.18-16.09c-0.97,14.99-1.78,30.14-5.5,44.76
		c-2.64,12.16-8.35,23.36-11.54,35.37c-2.61,10.28,1.05,20.66,3.75,30.5c12.36,42.51,26.45,84.53,41.99,125.99
		c7.8,20.37,15.47,40.89,25.79,60.15c6.88,14.15,22.1,20.42,34.79,28.21c18.7,9.79,37.3,19.8,55.72,30.12
		c8.68,1.39,17.85,0.59,26.37-1.65c8.97-4.05,17.47-9.29,27.09-11.79c14.35-4.74,29.81-4.61,44.62-2.3
		c16.73,2.56,32.97,9.01,46.35,19.49c27.84,19.98,42.09,55.14,41.2,88.81c6.47-6.18,13.72-14.14,23.48-13.47
		c6.79,1,8.48,11.35,2.66,14.76c-9.36,5.97-18.96,12.69-24.38,22.7c-3.86,6.9-9.07,12.82-14.12,18.83
		c-7.9,12.95-17.05,25.58-29.91,34.05c-12.26,7.96-25.29,16.12-40.1,17.93c12.42,41.48,25.86,82.66,38.73,124.02
		c27.4,86.4,54.87,172.86,87.26,257.56c11.29,28.03,22.29,56.36,37.45,82.59c9.35,17.23,24.06,30.6,39.16,42.73
		c29.37,22.84,63.78,38.81,99.63,48.44c32.18,8.53,66.97,13.28,99.4,3.38c17.24-6.12,29.54-20.92,39.38-35.68
		c23.09-36.97,35.54-79.45,43.99-121.89c3.98-18.99,4.06-38.59,2.15-57.82c-1.58-14.69-2.92-29.51-7.05-43.74
		c-2.52-12.26-4.09-24.74-8.07-36.65c-1.98-9.93-5.91-19.38-7.03-29.48c-1.35-10.89-5.2-21.22-7.54-31.89
		c-3.57-17.06-9.42-33.52-15.34-49.85c-3.66-20.04-12.89-38.5-17.05-58.41c-2.53-8.72-6.65-16.96-7.96-26
		c-1.27-7.87-4.7-15.15-6.17-22.96c-4.34-11.74-9.81-23.11-13.27-35.16c-0.96-10.37-6.48-19.53-7.7-29.81
		c-1.5-9.74-5.43-18.82-7.38-28.43c-2.35-11.55-6.97-22.43-10.1-33.75c-3.15-12.28-9.93-23.13-13.92-35.09
		c-2.29-7.15-6.7-13.42-8.43-20.74c-1.71-7.64-4.72-14.91-8.07-21.94c-3.79-8.15-5.68-17-8.53-25.47
		c-9.11-19.05-15.35-39.33-24.69-58.29c-3.2-11.05-7.58-21.72-12.88-31.92c-2.72-6.65-4-13.87-8.08-19.92
		c-6.79-10.93-8.47-23.91-13.78-35.47c-5.05-10.39-8.98-21.28-14.31-31.53c-7.95-21.27-16.15-42.48-24.52-63.61
		c-3.4-8.24-4.83-17.19-9.05-25.07c-8.44-10.79-11.14-24.59-17.38-36.56c-7.35-13.3-11.17-28.18-18.34-41.54
		c-3.11-6.22-4.74-13.05-8-19.2c-8.59-16.62-13.41-34.93-22.68-51.22c-13.97-24.27-25.14-50.34-42.48-72.51
		c-3.55-4.73-8.43-8.41-11.21-13.71c-1.93-3.57-4.4-6.89-7.8-9.15c-9.94-6.68-18.49-15.5-29.53-20.42
		c-7.5-3.8-15.38-6.7-23.03-10.14c-15.91-6.46-31.42-13.96-47.85-19.08c-11.55-3.05-22.69-7.37-34.17-10.66
		c-9.7-2.28-17.63-8.99-27.4-10.93c-14.44-3.28-28.58-7.78-42.26-13.38c-11.32-3.46-23.05-5.43-34.13-9.66
		c-31.3-9.77-63.64-20.55-88.48-42.9c-5.26-7.16-11.23-13.83-15.97-21.35c-39.21,31.1-87.37,51.95-137.58,55.24
		c-33.38,1.66-67.54-1.43-99-13.31c-29.22-10.12-55.88-26.51-80-45.69C801.16,231.25,793.86,239.07,786.82,246.82 M1196.84,466.54
		c-5.37,0.64-12.78-0.32-15.66,5.6c-12.05,16.11-10.75,38.1-4.66,56.26c5.07,13,10.91,26.04,12.14,40.12
		c1.4,16.67-4.45,33.05-2.98,49.65c-0.21,11.67,15.01,17.71,23.87,11.37c4.56-4.44-0.64-10.7-1.04-15.7
		c-3.13-17.26-4.42-34.83-7.93-52.04c-0.99-11.01-1.87-22.01-3.34-32.96c0.53-13.67,3.34-28.21,13.32-38.3
		c4.68-7.16,12.64-10.49,19.44-15.14C1218.9,472.5,1208.63,465.9,1196.84,466.54 M1248.85,486.79c-7.69,2.25-14.84,6.12-21.26,10.86
		c-9.3,7.39-13.11,19.81-12.35,31.4c1.41,20.15,3.41,40.3,7.08,60.2c2.02,15.75,3.9,31.92,10.94,46.38
		c2.98,5.82,10.36,6.39,16.05,7.18c3.39,0.09,8.31,1.33,9.74-2.69c5.5-14.24,10.02-28.87,13.47-43.73
		c5.93-12.12,8.68-25.65,15.71-37.23c5.63-8.9,16.52-11.52,26.14-13.57c19.5-1.39,39.08-1.59,58.64-1.67
		c-1.28-5.95-1.1-13.3-7.18-16.7c-7.14-6.85-17.04-8.81-25.51-13.36c-7.23-3.51-15.56-4.35-22.33-8.84
		c-11.21-7.27-25.01-8.3-37.39-12.5C1270.28,489.66,1259.78,484.75,1248.85,486.79 M1321.02,562.24c-6.74,0.59-15.38,1.07-19.2,7.55
		c-4.56,7.8-7.04,16.53-10.33,24.89c-4.84,10.12-4.58,21.7-8.89,32.01c-4.14,14.6-11.87,28.63-11.15,44.2
		c0.97,4.94,3.45,9.48,5.92,13.85c6.68,8.51,17.77,12.26,28.38,12.05c10.06-18.15,16.86-37.8,25.16-56.76
		c2.72-6.94,7.4-13.24,13.46-17.6c8.66-4.48,17.98-8.29,27.79-9.21c20.51-1.9,41.07-3.56,61.69-3.36c1.77-8.8,3.28-18.09,1.2-26.94
		c-3.42-6.99-8.39-14.08-16.38-16.23c-11.24-3.59-23.02-5.12-34.72-6.19C1362.95,560.59,1341.99,561.75,1321.02,562.24
		 M1155.09,836.87c2.17,9.86,2.78,20.32-0.18,30.11c-2.21,10.59-9.03,19.24-14.93,28.02c31.1-0.32,62.22,1.7,93.28-0.3
		c-20.33-11.16-41.77-20.61-60.42-34.55C1164.47,854.52,1159.99,845.3,1155.09,836.87 M1319.39,895.37
		c8.18,6.51,17.95,12.14,21.65,22.6c5.73,9.05,3.62,19.97,2.34,29.96c10.73,3.37,22.6,6.53,29.46,16.21
		c4.48,7.46,8.58,15.91,8.24,24.86c1.06,16.91-10.47,33.88-27.04,38.21c1.71,5.07,3.55,10.26,2.86,15.75
		c-0.31,7.9-4.58,14.82-7.08,22.16c7.44-1.05,14.9-2.15,22.17-4.16c21.76-7.44,41.2-22.91,51-43.99c1.41-5.55-2.16-11.04-2.61-16.51
		c-1.18-5.99-5.33-10.67-7.87-16.06c-1.87-3.91-5.05-6.89-7.67-10.25c-3.45-3.97-1.32-11.26,3.83-12.52
		c4.61-0.9,10.42,0.33,12.98,4.68c3.41,5.43,6.14,11.33,10.06,16.47c1.29-29.34-12.83-59.61-37.63-75.87
		C1372.48,892.21,1344.47,888.56,1319.39,895.37 M1292.32,910.33c-14.59,11.1-24.69,27.49-30.57,44.7
		c19.68-0.11,39.54-1.29,58.77-5.75c4.02-1.07,4.98-6.11,6.36-9.35c3.71-9.15-1.93-19.11-9.39-24.38
		C1310.28,910.63,1300.94,906.48,1292.32,910.33 M1338.43,965.43c-9.62,0.17-19.15,1.53-28.57,3.31
		c-16.71,3.03-33.76,3.27-50.68,3.64c-1.18,18.7,3.91,37.42,13.61,53.36c24.52-4.87,48.94-10.24,73.38-15.48
		c9.99-1.5,18.12-11.13,17.71-21.26C1364.41,975.77,1351.27,964.6,1338.43,965.43 M1285.48,1040.75
		c7.11,6.43,14.71,12.56,23.74,16.1c6.39,2.34,12.93,6.98,19.99,5.4c7.38-6.25,12.88-16.53,10.01-26.4c-0.54-1.82-1.2-4.37-3.59-4.1
		C1318.49,1031.88,1302.49,1039.38,1285.48,1040.75L1285.48,1040.75z"/>
</g>
</svg>
