<?xml version="1.0" encoding="iso-8859-1"?>
<!-- Generator: Adobe Illustrator 28.5.0, SVG Export Plug-In . SVG Version: 9.03 Build 54727)  -->
<svg version="1.1" id="Layer_1" xmlns="http://www.w3.org/2000/svg" xmlns:xlink="http://www.w3.org/1999/xlink" x="0px" y="0px"
	 viewBox="0 0 1920 1080" style="enable-background:new 0 0 1920 1080;" xml:space="preserve">
<g>
	<path style="fill:#FFFFFF;" d="M-250-520h2419v2120H-250V-520 M38.33-460.62c-4.19,2.53-10.03,4.63-11.29,9.96
		c-1.68,6.94-3.34,13.9-4.84,20.89c-2.88,12.17,5.49,23.12,6.33,35.08c2.97,21.39,13.06,40.99,17.02,62.09
		c2.69,12.92,8.49,24.96,10.8,37.98c1.2,5,3.62,9.66,4.65,14.71c0.57,4.82,0.09,9.9,2.45,14.33c3.91,8.34,6.53,17.24,6.93,26.47
		c5.26,12.4,9.16,25.36,10.66,38.78c3.95,14.84,4.3,30.31,7.67,45.24c1.62,7.56-1.67,14.82-3.38,22.06
		c-7.54-4.7-12.78-11.99-18.16-18.85c-3.57-6.51-5.61-13.71-9.1-20.25c-5.01-9-8.75-18.94-9.69-29.25c-0.89-5.45-6.1-9.05-7.13-14.5
		c-0.99-5.71-2.52-11.33-4.91-16.63c-4.59-10.06-14.72-16.54-18.26-27.16c-1.74-6.83-5.47-13.15-10.43-18.14
		c0.6-1.62,1.45-3.2,1.6-4.94C7.67-291.38,3.24-299,0.2-307.12c-2.07-5.23-6.2-9.23-9.36-13.79c-6.28-8.7-5.43-20.91-13.18-28.72
		c-5.5-6.45-11.26-12.71-17.66-18.29c-3.92-2.79-8.61-4.21-12.85-6.42c-8.94-5.16-19.7-2.82-29.35-2.06
		c-3.65,0.63-8.57,1.06-9.78,5.29c-1.8,5.14-4.78,9.86-6.15,15.11c1.22,7.7,2.8,15.39,4.27,23.05c3.58,8.37,6.42,17.03,8.79,25.83
		c1.02,10.71,7.21,20.07,8.36,30.77c1.02,6.68,4.44,12.68,5.77,19.29c4.24,18.63,9.86,36.9,14.59,55.4
		c4.67,12.6,8.26,25.64,14.02,37.82c3.05,6.59,3.28,14.42,7.95,20.25c3,3.49,5.49,7.53,6.69,12.01c2.16,9.78,8.68,17.9,10.94,27.64
		c1.32,8.26,2.1,16.62,2.24,24.98c-3.08-1.69-6.59-2.85-9.08-5.43c-3.35-3.6-3.93-9-7.67-12.33c-3.95-3.94-7.46-8.57-8.79-14.07
		c-3.33-11.17-13.4-18.63-17.05-29.62c-2.28-9.57-9.61-16.42-15.56-23.78c-4.99-7.29-9.46-14.92-14.24-22.34
		c-5.1-10.35-11.36-20.06-18.24-29.31c-3.86-5.22-4.59-12.09-8.97-17c-5.52-7.16-10.64-14.65-16.5-21.53
		c-8.24-7.27-17.22-15.4-28.82-15.88c-10.11-1.22-20.89,2.65-27.27,10.68c-1.78,1.87-1.32,4.57-1.52,6.92
		c-0.11,3.26-1.32,6.38-1.34,9.66c-0.33,5.09,3.77,9.02,3.48,14.06c-0.04,8.41,4.25,15.79,6.76,23.6
		c6.48,11.82,12.54,23.93,16.9,36.72c2.25,6.58,7.56,11.66,9.3,18.44c2.94,9.78,8.06,18.83,14.51,26.71
		c2.99,4.18,4.99,8.98,8.14,13.06c7.33,8.56,6.76,21.16,14.18,29.7c1.64,2.25,4.11,4.1,4.62,7c3.53,14.58,14.07,25.93,19.85,39.55
		c2.42,5.87,6.65,10.94,8.03,17.24c1.49,6.48,5.26,12.04,7.73,18.13c2.14,10.33,7.81,19.43,11.32,29.29
		c3.87,11.46,7.61,23.04,13.2,33.79c2.15,5.09,2.39,10.78,4.44,15.92c3.11,7.57,7.95,14.44,9.98,22.44
		c2.21,6.83,5.57,13.27,6.91,20.38c0.84,7.59,5.8,13.57,8.67,20.41c7.48,15.68,14.92,31.52,25.28,45.55
		c7.96,13.67,20.35,23.72,31.58,34.51c5.38,3.64,9.9,8.4,15.53,11.73c5.35,4.12,12.43,5.73,17.04,10.8
		c2.49,7.22,3.33,15.04,4.21,22.63c-0.73,9.74,3.11,18.98,3.78,28.62c0.63,7.69,2.33,15.41,1.22,23.15
		c-2.13,4.26-6.62,6.61-10.09,9.6c-12.16,9-23.14,19.44-34.64,29.23c-5.58,4.08-11.06,8.31-16.4,12.69
		c-8.91,7.41-19.1,13.42-26.5,22.52c-14.8,14.22-28.32,29.67-42.16,44.77c-5.16,4.53-11.47,7.94-15.14,13.95
		c-5.4,8.73-13.06,15.77-18.36,24.54c-16.79,18.56-26.96,42.16-33.7,66.03c-1.84,11.81-2.55,23.92-0.39,35.76
		c1.22,7.05,1.98,14.54,6.28,20.54c6.82,9.29,14.18,18.52,23.91,24.96c3.04,1.92,5.42,4.61,7.93,7.15c4.6,4.97,11.35,7.01,17.5,9.36
		c13.08,2.83,26.24,5.6,38.64,10.81c13.8,6.02,28.85,8.03,43.21,12.25c11.94,0.87,23.97,0.92,35.88,2.41
		c8.9,1.87,17.97,2.61,26.95,3.94c-1.47,10.29-2.1,20.77-0.56,31.09c-0.99,7.02-3.19,14.04-1.72,21.21
		c1.45,7.73-2.28,15.32-0.95,23.07c0.8,4.72-1.87,9.39-0.26,14.06c1.22,3.69,0.35,7.49-0.28,11.23c-1.47,8.63,0.79,17.3-0.21,25.96
		c-0.84,9.88-0.95,19.81-0.81,29.72c-0.87,7.29,1.04,14.66-0.67,21.89c-1.73,7.62,0.58,15.24,1.45,22.84
		c0.95,6.96-0.78,13.96,0,20.94c0.65,13.05,2.71,26.02,3.34,39.09c1.8,11.93-2.58,24.47,1.67,36.12c2.68,6.34,3.88,13.27,3.66,20.15
		c-0.06,8.14,2.74,15.83,4.53,23.65c0.28,9.42,0.63,19.16,4.53,27.93c-15.74,12.05-31.98,23.42-48.53,34.3
		c-13.75,7.42-26.22,16.88-38.87,25.99c-7.97,4.67-14.61,11.39-23.27,14.9c-8.44,3.63-14.09,11.21-21.61,16.21
		c-6.05,3.95-11.56,8.63-17.5,12.73c-9.43,7.56-20.5,13.14-28.4,22.52c-5.07,3.74-7.14,10.73-13.2,13.14
		c-0.95,2.73-1.92,5.46-2.81,8.22c-2.56,0.65-4.99,1.82-6.64,3.96c-4.23,5.35-10.09,9.21-13.99,14.84
		c-8.5,14.47-18.35,28.27-23.57,44.41c-2.88,10.96-8.15,21.2-10.69,32.26c-0.47,7.89-1.61,15.91-0.37,23.8
		c0.58,6.53,3.56,12.49,4.69,18.91c1.5,7.78,5.86,14.48,10.02,21.06c7.64,8.23,15.84,15.95,23.87,23.8
		c6.55,3.77,11.64,9.27,16.31,15.15c-13.75-1.36-27.41-4.34-39.97-10.21c-5.22-2.98-11.66,0.31-14.24,5.27
		c-0.11,4.63-0.16,10.55,4.85,12.82c8.25,3.6,17.04,5.69,25.84,7.49c11.1,3.58,22.34,6.7,33.61,9.7c6.38,0.89,11.75,4.61,17.63,6.93
		c6,2.38,12.58,6.19,19.08,2.9c4.42-0.49,6.54-4.45,8.75-7.68c-1.6-1.43-3.22-2.8-4.82-4.19c3.53-6.98,2.57-15.49-2.36-21.6
		c-6.52-7.58-9.41-17.47-11.56-27.04c-1.75-6.56-5.48-12.41-6.74-19.11c-1.45-7.1-5.31-13.34-8.41-19.79
		c-2.47-4.7-4.08-10.75-9.15-13.21c-4.53-0.19-8.72,2.19-13.09,2.97c0.54,10.84,8.16,19.04,11.89,28.75
		c3.58,8.51,5.88,17.49,8.62,26.31c-6.06-1.79-11.53-5.06-15.5-10.02c-5.25-6.92-13.99-9.9-19.08-16.91
		c-3.22-4.18-5.32-9.08-7.37-13.89c-4.14-8.62-3.79-18.62-7.66-27.32c-2.19-5.25-4.97-10.47-5.03-16.3
		c0.96-6.96,2.83-13.75,5.07-20.37c3.8-10.09,5.55-20.99,10.56-30.58c8.05-7.8,14.52-17.95,15.84-29.25
		c3.81-1.91,8.01-3.66,10.27-7.5c2.88-4.8,6.78-9.46,6.7-15.36c1.64,1.38,3.25,2.79,4.91,4.17c3.45-5.23,7.95-9.58,11.51-14.7
		c2.03-3.22,5.81-4.33,8.93-6.14c6.14-3.22,10.69-8.63,16.38-12.48c8.06-5.21,15.69-11.02,23.24-16.91
		c6.35-6.51,14.74-10.45,21.35-16.66c4.11-4.2,10.44-5.16,14.22-9.77c3.11-3.79,8.52-3.69,12.04-6.85
		c6.12-4.96,12.5-9.68,19.29-13.66c7.66-3.69,15.51-7.05,22.77-11.49c2.26-2.08,3.28-5.09,4.75-7.71
		c8.13-0.56,14.61-5.78,21.96-8.68c2.09,10.34,4.69,20.54,7.68,30.64c1.37,13.6,7.67,25.97,11.2,39.02
		c0.29,9.28,5.33,17.28,7.68,26.04c1.19,7.35,4.15,14.2,6.49,21.24c2.84,7.06,8.97,12.25,11.58,19.43
		c1.84,7.26,4.05,14.57,7.49,21.24c8.24,10.25,16.33,20.65,22.92,32.08c5.09,9.5,13.62,16.81,23.14,21.68
		c6.54,3.39,11.24,9.3,16.69,14.12c2.05-1.1,4.06-2.25,6.06-3.42c5.09,3.31,9.99,7.44,15.96,8.98c9.65,0.38,17.46,7.13,26.88,8.53
		c5.41,0.39,10.96-1.1,16.31,0.1c3.75,1.39,7.63,2.67,11.68,2.75c25.71,0.23,52,3.79,77.12-3.43c6.9-2.54,11.87-9.09,19.29-10.52
		c10.82-2.11,21.83-4.21,32.91-3.59c15.97-2.2,31.88-5.02,47.7-8.16c3.49-1.22,6.16-4.02,9.24-5.99
		c12.06,2.69,24.45-1.42,36.08-4.43c9.84-3.24,20.29-5.13,29.33-10.37c14.06-6.05,28.53-11.09,43.28-15.13
		c7.42-1.89,13.96-6.09,21.38-7.97c10.28-3.84,20.9-6.78,31.54-9.34c7.54-5.99,16.52-9.75,24.46-15.14c4.8-1.31,8.98-3.95,13.3-6.31
		c19.52-4.92,35.78-17.35,52.35-28.19c7.62-4.85,14.24-11.81,23.18-14.23c6.1-2.99,10.76-8.27,16.53-11.81
		c5.38-3.26,10.56-6.83,15.5-10.73c9.91-8.84,20.58-16.79,31.18-24.74c8.02-8.04,18.49-13.42,25.43-22.54
		c3.97-4.94,7.84-10.1,13.11-13.76c6.82-4.38,11.46-12.18,20.09-13.35c4.9,12.44,3.81,26.02,5.82,39.01
		c0.69,4.69,2.53,9.2,2.78,13.97c-0.75,8.14,0.06,16.33-1.08,24.46c0.94,12.18,3.96,24.21,4.11,36.49c1.09,13.21,4.26,26.18,5,39.44
		c1.16,12,3.78,23.89,3.27,36.01c1.51,18.98,2.79,38.08,6.13,56.85c-1.41,8.75,4.33,16.72,3.17,25.46
		c1.64,14.29,7.76,28.36,5.36,42.95c-0.3,5.5,1.51,10.82,1.99,16.29c0.9,7.1,0.47,14.39,2.25,21.37
		c3.65,16.78,3.96,34.06,6.31,51.03c4.24,17.91,4.28,36.33,5.69,54.58c0,7.65,3.3,14.84,4.21,22.4c0.02,6.82,0.14,13.65,0.69,20.48
		c3.16-2.29,5.59-5.53,8.95-7.55c2.12-0.4,6.36-1.21,8.49-1.62c-0.68-6.43-0.02-13.03-2.45-19.12c-1.83-4.88,0.46-9.93,0.42-14.86
		c-3.78-15.86-5.16-32.14-7.39-48.27c0.18-9.03-4.35-17.46-3.65-26.51c0.5-13.23-3.53-26.08-2.99-39.28
		c-0.02-11.75-4.76-22.74-5.39-34.4c-0.85-6.1-2.63-12.19-1.65-18.4c1.43-13.01,0.63-26.16-0.57-39.15
		c-1.64-8.19-5.78-15.85-6.06-24.3c-0.57-13.42-4.09-26.54-3.99-40c-2.55-17.33-5.84-34.67-5.97-52.28
		c-0.3-16.17-6.69-31.55-6.44-47.74c-0.47-16.27-4.03-32.3-4.55-48.59c-1.13-9.26,2.04-18.58-0.27-27.75
		c-1.53-8.2,0.93-16.6-1.48-24.7c0.07-11.51-5.15-22.3-4.47-33.86c-0.28-5.64,1.12-11.18,1.01-16.77
		c-1.37-4.09-2.41-8.99-6.08-11.64c-4.1-3.25-8.97,0.71-13.22,1.88c1.58,10.5,0.02,21.13,0.93,31.66c0.81,6.22,4.09,14.21-1.7,18.92
		c-10.05,9.09-21.21,16.92-32.13,24.92c-4.96,4.37-8.59,10.05-13.84,14.15c-6.11,4.93-9.9,12.46-17.03,16.13
		c-13.01,9.12-25.17,19.27-37.29,29.5c-12.23,12.15-28.7,18.49-42.59,28.35c-5.09,3.42-8.44,9.19-14.43,11.23
		c-4.48,1.59-7.61,5.4-11.85,7.44c-11.76,5.65-21.36,15.28-34.07,19.05c-12.06,3.9-23.65,9.05-34.54,15.54
		c-10.77,6.23-23.06,8.88-33.96,14.78c-10.1,4.6-20.96,7.14-31.72,9.63c-14.36,4.2-27.42,11.86-41.8,16.01
		c-8.83,2.23-17.09,6.84-26.25,7.68c-9.85,0.32-18.63,5.44-28.28,6.86c-31,5.23-62.01,10.81-92.52,18.46
		c-6.6,2.8-13.87,2.65-20.74,4.38c-12.11,3.47-24.83,3.58-37.3,4.61c-9.98,1.1-19.95-0.51-29.93-0.66
		c-5.35-0.58-10.84,0.69-16.04-1.02c-5.49-1.92-11.29-2.24-17.03-2.66c-4.83-0.17-8.58-3.6-12.61-5.83
		c-4.45-2.93-9.48-4.72-14.42-6.62c-3.41-0.93-4.33-4.69-5.69-7.47c-15.72-5.38-29.84-15.84-39.47-29.4
		c-4.11-5.79-9.7-10.36-13.4-16.43c-1.73-2.95-1.5-6.48-2.77-9.57c-1.59-2.78-4.56-4.62-5.55-7.75c-1.83-5.55-4.58-10.7-6.84-16.04
		c-3.81-13.75-11.9-25.82-15.91-39.5c-1.18-5.18-3.12-10.21-5.32-15c-1.65-3.47-4.34-6.61-4.51-10.6
		c-0.17-13.75-8.58-25.55-9.54-39.18c-0.81-13.37-6.98-26.22-4.89-39.74c10.22-3.34,18.11-10.91,27.36-16.06
		c12.71-7.88,24.06-17.81,37.28-24.86c8.24-5.25,16.8-9.94,25.32-14.71c11.57-7.11,20.29-17.95,32.3-24.46
		c5.94-2.89,8.91-9.3,14.36-12.82c5.82-3.79,12.13-6.88,16.94-12.03c10.84-10.93,24.4-18.77,34.92-30
		c9.03-12.49,16.67-26.07,22.84-40.17c4.15-16.01,5.49-32.74,11.79-48.18c1.48-11.5,0.52-23.45-2.85-34.58
		c0.17-12.76-4.76-25.32-12.21-35.55c-5.17-7.13-12.82-11.91-18.12-18.92c-5.99-7.28-11.89-15.31-20.99-18.89
		c-6.6-2.69-10.87-8.68-16.88-12.26c-13.32-9.26-29.06-13.92-43.24-21.55c-7.92-4.09-17.04-4.11-25.36-6.89
		c-9.46-3.28-19.62-3.4-29.46-4.63c-11.76-1.73-23.67-1.92-35.53-1.94c-9.78-2.31-19.97-0.25-29.72-2.74
		c-1.34-0.44-3.09-1.13-2.79-2.84c0.48-9.39,0.82-18.8,2.06-28.12c0.65-6.39-0.4-12.74-1.07-19.07c-0.8-4.83,3.96-8.52,3.03-13.39
		c-0.74-5.77,1.93-11.42,0.61-17.13c-1.18-6.25,3.15-12.33,1.3-18.53c-4.34-11.88,0.52-24.19,1.33-36.22
		c-0.54-16.24,0.3-32.46,0.87-48.69c-1.71-22.13-0.41-44.35-1.66-66.5c-1.04-8.95-3.23-17.77-3.59-26.8
		c0.3-5.04,1.89-10.04,0.68-15.09c-1.59-4.78-0.02-9.49,0.54-14.22c0.19-9.56-4.13-19.01-2.01-28.56
		c2.58-5.84,10.02-7.19,13.64-12.3c4.02-5.83,10.81-8.5,16.02-13.02c4.98-3.95,11.33-5.74,16.04-10.09
		c3.33-3.13,7.56-4.87,11.58-6.89c0-2.39-0.05-4.77-0.14-7.15c2.4,0.33,5,1.55,7.36,0.67c14-9.78,25.91-22.38,35.25-36.65
		c7.51-4.83,11.32-13.19,17.44-19.43c4.45-4.28,7.38-10.01,12.53-13.54c8.76-6.13,12.59-16.63,19.28-24.62
		c2.87-4.02,1.91-9.75,5.63-13.28c5.15-5.8,10.99-11.26,12.84-19.19c2.94-14.82,2.06-30.03,3.34-45.05
		c0.83-5.27-1.76-10.09-3.22-14.97c-2.8-9.25-8.17-17.36-13.66-25.2c-5.86-10.01-14.94-18.36-25.84-22.49
		c-6.29-3.36-12.65-8.75-20.29-6.7c0.64-0.57,1.3-1.13,1.95-1.68c-9.81-2.68-18.06-10.13-28.67-9.83
		c-19.27-2.98-38.71-4.42-58.16-5.72c-2.98,4.74-5.71,9.66-7.31,15.05c5.85,2.3,11.78,5.55,18.32,4.41
		c7.46-0.84,14.9-0.24,22.24,1.31c13.19,2.9,27.24,2.69,39.58,8.76c5.64,3.53,10.22,9.17,16.9,10.92
		c7.36,1.97,14.72,4.57,20.96,9.07c4.4,4.42,7.38,10.02,11.12,14.98c3.52,4.83,3.5,11.06,5.42,16.55c1.17,4.27,3.71,8.43,2.95,13.02
		c-1.38,11.75,0.64,23.95-3.1,35.37c-5.16,13.56-12.76,25.91-20.85,37.87c-5.96,6.51-9.45,14.92-15.96,20.98
		c-7.45,6.97-12.54,16-20.15,22.83c-7.04,6.74-11.09,16.22-19.24,21.77c-6.34,8.43-15.76,13.43-23.33,20.56
		c-17.12,13.2-36.12,24.06-51.73,39.13c-7-16.02-5.16-33.86-9.17-50.55c-1.29-6.1-2.4-12.31-1.5-18.56
		c0.21-3.53-3.34-5.63-5.57-7.79c-7-4.68-15.09-7.42-22.19-11.95c-7.78-5.19-15.85-9.92-23.33-15.58
		c-9.37-5.07-12.12-16.31-19.93-23.05c-6.32-4.81-8.8-12.64-12.83-19.2c-4.4-10.18-12.12-18.75-14.47-29.81
		c-6.87-16.18-12.67-32.77-18.07-49.49c-1.22-7.97-5.38-15.07-7.32-22.86c-3.58-12.07-10.8-22.52-15.53-34.1
		c-1.4-4.91-0.96-10.35-3.71-14.83c-4-6.7-5.38-15.15-11.59-20.35c-3.32-2.87-2.48-7.81-4.66-11.34c-2.74-4.49-5.17-9.19-5.72-14.52
		c-1.16-6.53-5.75-11.55-9-17.1c-2.15-4.39-3.65-9.1-6.23-13.27c-2.08-3.6-5.21-6.65-6.12-10.84c-2.4-10.83-9.45-19.67-14.88-29.1
		c-5.5-10.75-12.22-20.81-17.71-31.56c-6.67-8.84-8.79-20.01-14.74-29.28c-3.27-4.95-3.84-11.27-7.86-15.75
		c0.26-2.6,1-5.27,0.41-7.86c-1.34-4.14-4.2-7.51-6.57-11.08c-5.82-8.15-6.79-18.4-10.41-27.51c-2.22-5.42-1.79-11.66,0.18-17.03
		c2.9-3.3,6.82-8.43,11.82-6.28c7.66,2.1,11.07,9.68,17.01,14.11c8.33,6.25,12.65,16.09,18.49,24.41
		c7.95,14.9,17.04,29.19,26.59,43.12c1.69,3.69,2.49,7.91,5.41,10.94c6.05,6.81,11.6,14.04,16.45,21.76
		c7.57,10.34,11.41,22.85,18.29,33.57c10.16,10.74,15.21,25.06,24.6,36.37c3.7,4.94,8.87,9.59,15.13,10.67
		c4.55-0.98,8.65-3.78,12.43-6.47c4.28-4.91,5.61-11.73,6.63-18.02c-0.31-7.69-4.01-14.74-5.44-22.24
		c-2.47-13.51-8.03-26.41-15.99-37.58c-4.56-6.26-4.99-14.48-9.49-20.77c-2.53-3.29-2.79-7.57-4.01-11.38
		c-4.15-8.8-4.19-18.99-8.66-27.68c-5.74-11.16-6.85-23.82-9.6-35.87c-1.66-4.64-4.63-8.83-5.2-13.84
		c-0.93-12.82-7.94-24.13-9.2-36.89c-0.61-7.62-6.29-13.07-9.51-19.55c-0.36-4.06,1.32-8.16,0.36-12.19
		c-1.61-1.96-4.11-2.84-6.24-4.1c1.05-3.63,2.8-7.39,1.77-11.24c-1.46-6.33-1.11-12.98-0.29-19.37c1.24-5.57,8-6.82,12.82-6.9
		c14.09,2.53,26.98,11.86,32.97,25c7.18,9.61,8.37,22.36,16.73,31.21c5.19,5.83,8.49,13.14,10.37,20.66
		c2.04,7.23,5.28,14.05,7.66,21.18c2.26,7.55,9.1,12.84,10.49,20.77c3.62,11.58,13.55,20.24,16.25,32.22
		c1.55,5.73,4.8,10.85,6.01,16.71c1.65,5.32,2.22,11,4.84,16.01c2.01,3.77,3.39,7.82,4.05,12.06c1.36,6.91,7.48,11.66,8.8,18.66
		c4.39,12.5,14.17,21.85,20.71,33.13c6.81,0.02,14.36,1.79,20.24-2.66c6.27-3.07,8.93-9.99,9.66-16.53
		c1.69-23.64-4.17-46.82-7.93-69.97c-3.79-10.73-6.16-21.97-6.71-33.36c-0.08-7.61-6-13.44-7.23-20.8
		c-1.83-9.49-4.44-18.79-6.71-28.17c-1.66-5.57-5.69-10.29-6.24-16.19c-0.4-7.43-3.65-14.22-6.09-21.13
		c-3.73-9.36-5.44-19.37-9-28.77c-1.38-12.3-6.34-23.8-9.57-35.66c-2.44-11.28-5.58-22.73-4.48-34.38
		c0.51-4.8-1.52-10.08,0.86-14.59c3.39-6.57,11.14-10.97,18.64-8.72c8.45,2.54,16.52,7.87,19.42,16.66
		c3.21,7.26,10.25,12.24,12.26,20.05c2.77,6.17,5.35,12.43,8.12,18.61c3.29,6.29,7.09,12.49,8.44,19.56
		c2.97,10.17,7.23,19.93,9.83,30.23c1.16,4.41,4.6,7.69,6.28,11.84c1.04,5.94-0.36,12.17,1.55,18c2.31,7.07,3.49,14.45,5.79,21.52
		c4.17,10.97,4.48,22.93,8.69,33.91c4.38,12.61,5.65,26.08,10.62,38.54c2.03,5.23,4.04,10.48,4.99,16.04
		c1.34,6.44,6.53,11.28,7.82,17.73c1.14,5.87,3.92,11.24,5.14,17.09c1.48,8.77,5.24,16.94,9.73,24.52
		c5.13,5.53,14.85,6.4,20.81,1.62c8.68-4.21,13.73-13.33,15.29-22.53c0.24-7.68,1.36-15.5,0.3-23.14
		c-1.47-4.73-0.19-9.64,0.53-14.38c-2.06-1.32-5.06-1.99-5.86-4.6c-0.26-6.46,2.72-12.55,2.64-18.95
		c-1.48-10.72-3.8-21.38-3.87-32.26c-0.28-6.42-2.88-12.45-3.92-18.74c-0.5-9.5,1.16-19.19-1.25-28.52
		c-0.62-2.52-0.08-5.1,0.44-7.58c1.98-7.58-0.65-15.36-1.25-22.91c-2.17-5.54,0.04-11.4,0.65-17.01
		c2.21-14.99-4.09-29.95-1.26-44.91c0.83-3.8-0.71-7.53-0.55-11.32c0.98-4.77,2.82-9.33,4.59-13.85c1.2-4.09,6.07-5.77,9.94-5.17
		c8.33,1.73,16.13,5.81,22.29,11.69c4.32,4.31,10.3,8.52,10.64,15.18c0.49,6.53,5.41,11.58,6.44,17.96
		c4.87,24.06,9.68,48.19,12.08,72.66c0.96,9.73,0.79,19.63,3.22,29.18c2.88,11.66,3.32,23.76,6.71,35.32
		c1.92,6.17-0.04,12.66,1.25,18.95c-0.14,15.34,4.96,29.99,6.88,45.1c3.33,11.78,5.34,24.3,12.78,34.41
		c1.96,10.65,9.23,19.23,11.69,29.73c5.03,12.37,13.52,22.94,18.37,35.4c3.78,6.66,0.4,14.24,0.51,21.32
		c4.11,1.96,8.57,2.93,13.11,3.22c6.05-11.64,11.68-23.51,18.14-34.91c0.77-10.21,10.2-16.46,15.62-24.27
		c5.73-6.88,6.22-16.89,13.08-22.92c5.54-5.95,9.58-13.08,14.77-19.32c2.13-2.57,3.66-5.58,4.43-8.83c0.84-5.15,7.07-5.93,9.64-9.9
		c9.06-13.19,21.53-23.55,30.3-36.97c5.8-1.82,12.49-1.59,17.94,1.22c6.98,5.55,10.8,13.88,16.13,20.84
		c5.46,7.07,4.88,18.36-1.1,24.94c-14.53,18.76-31.23,36.28-41.28,58.02c-3.04,5.82-7.54,10.73-10.56,16.57
		c-4.93,7.44-8.02,15.87-11.87,23.88c-4.2,8.21-5.83,17.44-10.43,25.48c-3.2,5.75-2.24,12.75-5.36,18.53
		c-5.78,12.11-7.48,25.49-8.62,38.68c-5.83,12.85-7.58,27.06-12.53,40.24c-6.55,18.78-11.1,38.17-16.53,57.28
		c-2.16,6.17-1.8,13.22-5.36,18.87c-5.58,9.12-10.19,18.79-14.64,28.5c-4.7,7.51-8.48,15.53-12.67,23.33
		c-4.72,9.24-14.44,14.19-20.52,22.3c-3.26,3.31-2.6,7.99-2.05,12.09c1.9,11.4-1.21,22.91,0.44,34.34
		c1.34,17.07,0.07,34.25,1.91,51.29c1.03,8.94-2.58,18.16,0.93,26.82c2.06,10.27,2.12,20.86,2.87,31.29
		c2.74,10.17,2.44,20.78,3.24,31.21c-0.09,9.12-0.37,18.32,1.35,27.33c0.32,6.1-0.53,12.28,0.56,18.36
		c1.22,5.43-1.56,10.73-0.89,16.19c1.28,10.49,2.03,21.04,2.23,31.61c2.07,14.92,2.74,30,5.19,44.88c0.97,5.46,3.14,10.9,2.41,16.52
		c-0.55,6.01,1.23,11.94,1.7,17.91c1.73,11.1,1.91,22.42,4.43,33.41c1.61,7.45,2.31,15.11,2.04,22.74
		c-0.62,8.32,3.04,16.14,3.81,24.34c1.7,19.36,10.78,37.35,11.33,56.88c1.77,8.84,3.36,17.86,7.13,26.13
		c3.22,5.89-0.87,12.81,2.44,18.78c2.67,6.69,2.87,14.1,6.03,20.63c3.56,7.52,6.06,15.46,8.84,23.29
		c5.38,13.1,10.23,26.46,14.01,40.11c1.12,14.06,10.08,25.84,11.81,39.75c0.79,6.36,3.55,12.15,6.21,17.91
		c2.36,4.38-0.12,9.3,0.56,13.94c1.94,12.8,7.1,25.08,7.16,38.16c0.74,6.06-1,11.97-1.32,17.99c-0.27,7.19-0.62,14.39,0.3,21.56
		c1.23,8.94-4.61,17.36-2.73,26.3c2.52,16.47-4.37,32.21-5.24,48.52c-0.13,8.5-6.06,16.01-5.07,24.57
		c-0.21,5.92,3.61,12.15,9.25,14.02c4.27,0.24,4.37-4.79,5.78-7.62c6.67-12.2,9.6-26.09,11.16-39.78
		c1.01-10.75,5.1-21.21,3.17-32.13c-0.94-10.05,0.94-20.09,2.95-29.89c0.84-6.3-0.46-12.57-0.11-18.87
		c-0.72-8.63,1.01-17.21-0.02-25.8c-0.62-5.38-1.45-10.76-1.11-16.18c4.54-2.97,8.64-6.54,12.52-10.34
		c5.76-5.74,13.15-9.43,19.13-14.93c4.85-4.2,11.22-6.56,14.86-12.11c11.08-14.58,26.02-25.36,39.64-37.37
		c2.77-2.45,6.39-3.55,9.43-5.59c8.11-5.78,16.31-11.49,23.63-18.28c2.38-2.71,3.37-6.48,6.35-8.68
		c9.64-7.43,19.49-14.65,29.61-21.36c6.85-10.13,18.15-15.8,26.55-24.46c6.7-6.78,15.28-11.18,22.25-17.64
		c4.77-3.65,10.02-6.65,14.71-10.42c4.68-3.75,7.43-9.23,11.32-13.7c7.73-8.91,15.53-17.88,24.69-25.37
		c4.99-4.02,7.81-10.05,12.77-14.08c9.19-7.08,17.06-15.68,24.94-24.13c18.41-19.26,38.29-37.24,54.45-58.51
		c4.98-6.38,12.21-10.5,17.16-16.9c4.64-6.04,10.94-10.72,14.73-17.41c2.4-4.07,5.15-8.02,8.96-10.89
		c14.22-10.66,27.43-22.59,41.09-33.94c9.7-9.71,22.18-15.68,34.35-21.61c20.83-10.16,41.21-21.56,63.26-28.86
		c9.14-3.47,18.18-7.15,27.21-10.92c7.8-3.39,14.78-8.61,23.12-10.75c18.36-4.81,34.84-14.63,53-20
		c14.33-4.23,27.95-10.42,41.75-16.11c20.46-8.07,40.29-18.47,56.94-33.04c6.39-4.71,10.39-11.76,14.99-18.06
		c3.56-4.92,6.12-10.43,8.15-16.12c29.62,23.03,63.83,40.5,100.46,49.08c29.94,7.23,61.25,7.33,91.66,3.22
		c43.44-6.11,83.91-26.04,118.54-52.48c3.89,9.67,10.45,17.99,16.89,26.1c10.05,8.77,20.52,17.3,32.41,23.52
		c15.59,9.04,32.7,14.96,49.22,22.03c14.41,6.38,30.07,9.47,44.26,16.43c12.44,6.06,25.84,9.59,38.73,14.46
		c17.95,10.34,37.75,16.86,57.11,24.02c11.36,5.62,23.07,10.56,34.3,16.48c17.15,9.11,36.14,15.81,49.93,30.09
		c7.79,6.35,15.15,13.29,19.58,22.47c9.26,10.62,16.23,22.99,22.21,35.71c6.84,11.72,11.25,24.6,17.4,36.67
		c3.68,7.72,7.45,15.43,10.42,23.47c5.35,13.82,8.91,28.31,14.96,41.87c2.62,5.87,3.72,12.27,6.19,18.21
		c6.34,14.19,9.93,29.42,16.11,43.69c4.26,10.08,6.83,20.79,11.13,30.86c1.37,3.64,4.67,6.22,5.77,9.98
		c3.62,15.21,7.78,30.32,13.1,45.04c2.96,9.93,5.79,19.92,9.41,29.64c4.72,18.08,13.05,34.96,18.36,52.88
		c3.58,9.38,4.24,19.78,9.2,28.66c4.63,7.99,5.46,17.4,9.12,25.8c6.18,14.61,8.66,30.42,15.22,44.9
		c4.8,14.91,9.87,29.73,15.14,44.49c3.05,17.75,10.53,34.24,14.6,51.71c4.2,10.72,6.76,22.01,11.26,32.63
		c8.68,24.79,13.31,50.72,18.6,76.38c0.54,9.17,3.26,17.87,5.31,26.76c1.59,13.77,5.81,27.06,10.81,39.96
		c3.84,12.39,5.62,25.31,7.42,38.13c2.97,12.39,4.12,25.08,6.4,37.6c1.23,7.39,3.43,14.79,2.86,22.37
		c6.55-0.05,13.12-0.04,19.72,0.02c-3-24.54-7.51-48.84-11.89-73.14c-2.51-14.61-8.39-28.3-11.73-42.68
		c-4.05-13.89-6.76-28.13-9.32-42.34c-2.28-20.69-8.09-40.82-13.4-60.88c-3.26-10.12-6.39-20.31-10.91-29.94
		c-6.01-12.82-7.97-26.98-11.78-40.49c-3.74-10.55-5.55-21.65-9.92-31.98c-4.26-10.79-4.85-22.73-10.54-32.96
		c-1.88-4.64-2.99-9.52-5.24-13.99c-5.38-10.67-7.49-22.56-10.49-34.02c-3.93-13.17-12.26-24.92-13.43-38.84
		c-5.92-14.14-9.08-29.24-14.67-43.48c-3.47-11.4-6.85-22.82-11.22-33.91c-3.84-13.62-8.86-26.87-12.51-40.54
		c-4.67-12.87-9.62-25.73-11.5-39.38c-3.94-8.78-8-17.53-11.88-26.33c-5.6-10.84-6.82-23.23-11.42-34.45
		c-5.75-14.09-8-29.39-14.99-43c-7.27-15.03-9.41-31.95-17.22-46.72c-4.76-9.34-8.41-19.17-12.26-28.89
		c-4.89-13.05-12.08-25.01-18.35-37.4c-5.35-12.19-13.63-22.74-19.71-34.52c-3.37-7.13-11.42-9.86-16.29-15.69
		c-9.29-10.33-20.94-18-32.49-25.52c-12.13-7.66-26.97-9.81-38.51-18.45c-6.24-3.74-13.13-6.12-19.5-9.58
		c-10.45-5.8-22.39-7.99-33.36-12.51c-15-5.45-28.46-14.44-43.74-19.16c-13.64-3.86-26.57-9.7-39.37-15.67
		c-15.69-5-31.45-9.88-46.44-16.77c-21.87-8.72-44.02-19.06-60.61-36.28c-6.8-7.05-10.92-15.99-15.38-24.55
		c9.01-8.23,17.46-17.05,26.05-25.72c34.37-36.85,60.78-80.67,79.74-127.25c38.67-94.45,48.06-199.41,34.24-300.1
		c-11.61-83.89-41.91-166.51-94.51-233.56c-33.89-42.16-76.4-79.1-127.47-98.53c-44.63-17.91-94.57-20.06-141.33-9.99
		c-29.94,7.09-58.47,19.9-83.9,37.19c-23.56,15.56-43.99,35.29-62.88,56.15c-35.81,40.57-62.27,88.72-80.59,139.48
		c-22.81,63.41-33.52,131.06-32.58,198.4c0.5,67.78,11.21,135.97,35.58,199.4c14.82,39.47,34.94,77.01,60.47,110.61
		c14.2,19.53,31.59,36.33,48.8,53.15c-2.54,7.59-4.37,15.68-9.48,22.07c-11.27,15.83-28.42,25.77-45.32,34.56
		c-20.93,8.89-41.7,18.37-63.7,24.4c-9.66,2.76-18,8.63-27.51,11.77c-8.6,3.8-17.82,5.84-26.53,9.3
		c-8.48,3.69-16.61,8.14-25.06,11.89c-13.37,6.24-28.07,8.99-41.22,15.75c-7.67,4.06-16.13,6.69-23.09,11.96
		c-7.09,5.54-16.2,6.8-24.1,10.73c-18.09,6.5-30.21,22.33-46.86,31.27c-6.38,3.01-10.52,8.81-15.42,13.62
		c-5.08,4.93-9.92,10.08-14.91,15.11c-8.49,8.29-13.47,19.65-22.96,27.01c-10.29,8.12-18.35,18.63-25.69,29.38
		c-4.04,6.34-10.88,9.92-15.87,15.38c-8.21,8.69-15.39,18.43-24.89,25.8c-14.73,14.25-30.01,28.06-43.36,43.64
		c-9.74,8.95-17.41,19.92-27.91,28.08c-10.41,8.19-20.33,16.96-29.63,26.38c-5.07,6.33-13.26,8.51-19.1,13.9
		c-7.1,6.21-14.05,12.58-21.42,18.48c-10.11,7.54-20.39,14.86-29.74,23.36c-9.27,7.74-16.1,18.26-26.93,24.1
		c-10.49,8.5-22.55,15.17-31.11,25.86c-11.77,13.44-25.74,24.76-40.6,34.59c-3.11,2.43-5.21,5.88-8.23,8.4
		c-3.3,2.2-6.87,3.93-10.26,5.98c-5.74-17.63-7.89-36.2-13.96-53.73c-2.59-6.99-3.68-14.45-7.03-21.14
		c-3.42-5.87-3.49-12.77-6.14-18.9c-4.06-9.01-2.7-19.47-7.38-28.29c-7.82-17.21-11.14-36.06-18.97-53.24
		c-2.48-6.34-2.42-13.31-4.48-19.75c-3.17-10.45-2.66-21.65-6.22-31.99c-3.88-20.06-8.88-40-10.25-60.45
		c0.1-19.61-5.79-38.58-7.26-58.05c-1.18-11.65-1.41-23.48-4.06-34.93c-2.46-13.14-1.14-26.55-2.47-39.8
		c-0.05-13.65-1.94-27.21-3.77-40.71c-2.24-9.14-1.09-18.62-1.96-27.9c-1.23-9.49,0.97-19.02-0.26-28.49
		c-1.07-7.36-1.19-14.81-2.2-22.17c-1.35-12.45,0.95-25.07-1.23-37.45c-1.96-12.42,0.05-25.06-2.07-37.47
		c-1.13-7.15,0.5-14.33,0.97-21.45c1.34-6.65-1.17-13.08-1.5-19.66c-0.59-11.61-2.13-23.68,2.07-34.85
		c2.04-4.55,4.91-8.76,6.12-13.66c1.26-4.04,1.15-8.4,2.76-12.33c3.02-2.71,6.86-4.53,10.8-5.5c3.44-7.85,7.06-15.63,10.44-23.5
		c11.9-16.34,19.85-36.04,18.82-56.58c2.99-1.33,6.24-3.09,6.3-6.89c1.55-9.6,4.24-18.92,7.18-28.17
		c1.31-7.51,6.36-13.84,6.88-21.55c-0.11-8.06,5.51-14.67,6.93-22.45c3.68-10.69,0.57-22.74,5.77-32.98
		c5.75-11.15,7.49-23.74,13.12-34.89c1.56-9.36,7.8-16.89,9.73-26.13c3.03-6.62,9.66-10.79,12.92-17.29
		c1.6-3.12,3.03-6.32,4.74-9.39c9.72-15.75,18.76-32.03,30.66-46.31c4.61-5.93,10.82-10.59,14.69-17.1
		c2.09-4.67,2.56-10.18,6.69-13.7c-1.65-4.31-4.17-8.17-6.2-12.28c-2.14-3.68-0.05-8.15-1.78-11.95c-2.11-5-6.76-8.27-9.59-12.79
		c-2.72-4.43-5.77-8.68-9.24-12.55c-2.59-2.72-6.54-2.78-9.94-3.68c-4.93-1.34-9.37-4.55-14.62-4.58
		c-6.75,0.06-13.48,2.61-18.35,7.33c-7.3,7.15-12.56,16-19.38,23.58c-10.53,15.6-23.04,29.7-33.75,45.16
		c-4.77,7.56-9.39,15.21-14.58,22.49c-4.68,6.49-7.58,14.12-12.67,20.33c-3.91,4.51-4.31,10.76-7.1,15.88
		c-1.6,3.39-4.44,5.93-7.31,8.24c-2.41-12.68-13.59-21.16-16.44-33.61c-1.69-6.23-6.63-11.08-7.77-17.49
		c-1.79-7.96-7.59-14.22-9.69-22.08c-5.61-14.23-8.97-29.13-13.03-43.83c-3.38-10.17-2.39-21.02-3.84-31.47
		c-3.18-9.28-2.87-19.61-8.49-28.03c0.96-2.56,2.39-5.19,1.96-8.02c-0.51-3.41-2.26-6.57-2.29-10.07
		c-0.32-8.44-1.97-16.74-3.36-25.05c-0.68-6.95-0.78-13.96-1.92-20.86c-0.9-2.93-3.29-5.04-5.09-7.42l5.01-0.41
		c-2.11-10.45-6.06-20.45-8.15-30.88c-0.15-8.44-1.7-16.79-4.01-24.88c-2.89-7.03-7.62-13.19-10.02-20.45
		c-0.79-4.75-3.93-8.28-7.42-11.26c0.48-1.08,0.97-2.16,1.46-3.24c-5.81-2.41-11.19-5.68-16.39-9.16
		c-7.24-2.18-14.94-5.69-22.6-3.38c-8.72-0.45-15.65,6.15-19.75,13.12c-2.3,6.16-3.14,12.79-3.38,19.33
		c0.84,12.2,1.05,24.51,3.31,36.57c0.3,6.77-0.59,13.56-0.57,20.34c0.92,16.24,0.41,32.51,1.54,48.77
		c-1.01,11.56-0.26,23.32,2.82,34.54c1.6,5.93-0.74,12.15,1.52,18.02c1.66,7.4,2.8,14.94,2.38,22.55
		c1.92,16.34,6.7,32.86,3.29,49.33c-0.88,7.47-2,15.65-7.3,21.45c-1.06,0.28-2.13,0.31-3.2,0.11c-5.54-4.92-2.51-14.03-9.01-18.36
		c0.15-3.08-0.23-6.18-1.4-9.05c-3.73-9.65-6.73-19.6-11.35-28.88c-3.89-8.97-5.34-18.95-10.38-27.44
		c-1.04-2.64-3.39-5.02-3.36-8.02c1.5-14.63-5-28.64-10.63-41.71c-0.7-3.45,0.47-7.01-0.24-10.48c-2.58-11.02-5.88-21.87-7.94-33
		c-1.42-6.87-4.96-13-7.47-19.48c-2.36-5.71-4.13-11.66-6.95-17.17c-5-9.83-6.28-21.15-11.75-30.78
		c-4.39-10.22-8.66-20.69-15.31-29.7c-2.39-2.96-5.76-5.24-7.07-8.97c-2.41-6.59-6.38-13.33-13.07-16.25
		C61.99-461.54,49.6-463.85,38.33-460.62 M1328.45-443.5c41.43-2.49,82.58,9.81,118.87,29.18c39.01,21.51,72.66,52.29,98.52,88.49
		c24.09,32.6,43.02,68.87,57.17,106.82c19.53,51.15,30.08,105.5,33.69,160.04c3.75,52.55-1.07,105.57-12.75,156.89
		c-18.69,82.55-56.36,162.87-117.68,222.35c-47.23,44.82-111.13,74.78-177.1,72.44c-54.87-3.29-107.18-27.69-148.38-63.49
		c-28.06-23.69-50.43-53.24-69.73-84.27c-22.97-37.96-39.96-79.38-51.83-122.08c-16.11-60.05-22.98-122.75-19.03-184.84
		c4.42-61.72,18.28-123.03,43.01-179.85c21.08-48.68,50.55-94.19,89.05-130.92C1214.77-412.3,1269.91-440.04,1328.45-443.5
		 M71.29,346.01c3.15-1.72,6.16-3.67,9.26-5.47c2.08,5.87,1.63,12.03,1.43,18.11c1.58,13.73,4.31,27.45,3.02,41.34
		c1.99,13.57,2.59,27.25,3.48,40.92c2.14,11.71-2.28,23.65,0.44,35.29c1.15,5.57-2.26,10.84-2.09,16.41
		c0.67,10.35-0.52,20.7,0.31,31.07c-0.86,15.41-1.95,30.82-1.54,46.29c-0.54,8.94-0.94,17.9,0.67,26.79
		c-1.76,1.79-3.49,3.61-5.21,5.44c2.29,17.3,0.13,34.78-2.14,51.96c-12.65,0.91-25.27-1.61-37.93-1.14
		c-10.84,0.24-21.6-2.09-31.74-5.74c-19.69-0.75-35.56-14.38-54.57-17.88c-17.81-2.71-33.33-13.52-44.98-26.86
		c-3.31-5.64-7.04-11.06-10.35-16.67c-2.05-6.94-2.76-14.29-2.52-21.51c-0.05-6.07-1.25-12.18-0.07-18.21
		c1.07-3.99,2.83-7.78,3.6-11.84c1-6.09,5.15-11.14,6-17.26c0.85-8.41,6.68-15.02,10.59-22.19c9.9-11.7,19.68-23.56,30.13-34.78
		c5.48-5.27,8.68-12.57,15.07-16.93c7.48-5.18,11.18-13.94,18.02-19.74c10.67-5.73,16.61-16.97,25.17-25.09
		c7.91-7.83,18-13.2,25.05-21.95c6.34-8.08,16.76-10.94,24.21-17.71C60.2,354.49,64.66,348.69,71.29,346.01 M99.16,673.93
		c10.87-0.4,21.75-0.57,32.62-0.92c17.34,2.04,34.73,3.96,52.01,6.51c13.68,4.08,27.56,7.95,40.46,14.17
		c10.52,4.84,21.96,8.43,30.8,16.28c11.36,10.56,28.55,14.51,36.62,28.58c5.55,6.45,13.14,11.34,17.05,19.15
		c1.52,5.26,3.69,10.35,4.93,15.7c0.33,10.95,7.58,20.29,7.86,31.27c-0.79,11.62-3.37,23.06-6.81,34.17
		c-3.99,19.99-9.2,41.04-23.45,56.41c-6.17,7.16-12.34,14.72-20.82,19.25c-4.85,2.59-8.3,6.97-12.58,10.31
		c-27.48,22.22-54.01,46.27-85.76,62.42c-13.38,6.74-22.96,19.17-36.83,25.04c-8.22,3.68-15.42,9.15-22.93,14.02
		c-1.7,1.82-3.51-0.75-3.66-2.44c-0.78-5.06-1.01-10.22-2.42-15.15c-2.88-10.33-2.6-21.25-5.45-31.57
		c-1.34-4.93-1.95-10.06-1.84-15.13c0.22-8.87-1.36-17.64-2.7-26.36c-2.77-7.98-0.35-16.42-1.78-24.56
		c-1.82-11.5-0.58-23.18-1.17-34.74c-0.54-6.5-1.04-12.98-1.59-19.46c0.15-15.77,3.06-31.45,1.69-47.24
		c-0.94-8.77,0.67-17.53,0.05-26.31c-0.35-8.45,1.34-16.89,0.29-25.32c-1.05-5.74,1.92-11.24,1.06-16.93
		c-1.16-8.88-2.45-18.28,1-26.8c2.76-5.54,0.55-11.45,0.83-17.23C97.48,689.3,95.7,681.26,99.16,673.93L99.16,673.93z"/>
	<path d="M38.33-460.62c11.27-3.23,23.66-0.92,34.07,4.14c6.69,2.92,10.66,9.66,13.07,16.25c1.31,3.73,4.68,6.01,7.07,8.97
		c6.65,9.01,10.92,19.48,15.31,29.7c5.47,9.63,6.75,20.95,11.75,30.78c2.82,5.51,4.59,11.46,6.95,17.17
		c2.51,6.48,6.05,12.61,7.47,19.48c2.06,11.13,5.36,21.98,7.94,33c0.71,3.47-0.46,7.03,0.24,10.48
		c5.63,13.07,12.13,27.08,10.63,41.71c-0.03,3,2.32,5.38,3.36,8.02c5.04,8.49,6.49,18.47,10.38,27.44
		c4.62,9.28,7.62,19.23,11.35,28.88c1.17,2.87,1.55,5.97,1.4,9.05c6.5,4.33,3.47,13.44,9.01,18.36c1.07,0.2,2.14,0.17,3.2-0.11
		c5.3-5.8,6.42-13.98,7.3-21.45c3.41-16.47-1.37-32.99-3.29-49.33c0.42-7.61-0.72-15.15-2.38-22.55
		c-2.26-5.87,0.08-12.09-1.52-18.02c-3.08-11.22-3.83-22.98-2.82-34.54c-1.13-16.26-0.62-32.53-1.54-48.77
		c-0.02-6.78,0.87-13.57,0.57-20.34c-2.26-12.06-2.47-24.37-3.31-36.57c0.24-6.54,1.08-13.17,3.38-19.33
		c4.1-6.97,11.03-13.57,19.75-13.12c7.66-2.31,15.36,1.2,22.6,3.38c5.2,3.48,10.58,6.75,16.39,9.16c-0.49,1.08-0.98,2.16-1.46,3.24
		c3.49,2.98,6.63,6.51,7.42,11.26c2.4,7.26,7.13,13.42,10.02,20.45c2.31,8.09,3.86,16.44,4.01,24.88
		c2.09,10.43,6.04,20.43,8.15,30.88l-5.01,0.41c1.8,2.38,4.19,4.49,5.09,7.42c1.14,6.9,1.24,13.91,1.92,20.86
		c1.39,8.31,3.04,16.61,3.36,25.05c0.03,3.5,1.78,6.66,2.29,10.07c0.43,2.83-1,5.46-1.96,8.02c5.62,8.42,5.31,18.75,8.49,28.03
		c1.45,10.45,0.46,21.3,3.84,31.47c4.06,14.7,7.42,29.6,13.03,43.83c2.1,7.86,7.9,14.12,9.69,22.08c1.14,6.41,6.08,11.26,7.77,17.49
		c2.85,12.45,14.03,20.93,16.44,33.61c2.87-2.31,5.71-4.85,7.31-8.24c2.79-5.12,3.19-11.37,7.1-15.88
		c5.09-6.21,7.99-13.84,12.67-20.33c5.19-7.28,9.81-14.93,14.58-22.49c10.71-15.46,23.22-29.56,33.75-45.16
		c6.82-7.58,12.08-16.43,19.38-23.58c4.87-4.72,11.6-7.27,18.35-7.33c5.25,0.03,9.69,3.24,14.62,4.58c3.4,0.9,7.35,0.96,9.94,3.68
		c3.47,3.87,6.52,8.12,9.24,12.55c2.83,4.52,7.48,7.79,9.59,12.79c1.73,3.8-0.36,8.27,1.78,11.95c2.03,4.11,4.55,7.97,6.2,12.28
		c-4.13,3.52-4.6,9.03-6.69,13.7c-3.87,6.51-10.08,11.17-14.69,17.1c-11.9,14.28-20.94,30.56-30.66,46.31
		c-1.71,3.07-3.14,6.27-4.74,9.39c-3.26,6.5-9.89,10.67-12.92,17.29c-1.93,9.24-8.17,16.77-9.73,26.13
		c-5.63,11.15-7.37,23.74-13.12,34.89c-5.2,10.24-2.09,22.29-5.77,32.98c-1.42,7.78-7.04,14.39-6.93,22.45
		c-0.52,7.71-5.57,14.04-6.88,21.55c-2.94,9.25-5.63,18.57-7.18,28.17c-0.06,3.8-3.31,5.56-6.3,6.89
		c1.03,20.54-6.92,40.24-18.82,56.58c-3.38,7.87-7,15.65-10.44,23.5c-3.94,0.97-7.78,2.79-10.8,5.5c-1.61,3.93-1.5,8.29-2.76,12.33
		c-1.21,4.9-4.08,9.11-6.12,13.66c-4.2,11.17-2.66,23.24-2.07,34.85c0.33,6.58,2.84,13.01,1.5,19.66c-0.47,7.12-2.1,14.3-0.97,21.45
		c2.12,12.41,0.11,25.05,2.07,37.47c2.18,12.38-0.12,25,1.23,37.45c1.01,7.36,1.13,14.81,2.2,22.17c1.23,9.47-0.97,19,0.26,28.49
		c0.87,9.28-0.28,18.76,1.96,27.9c1.83,13.5,3.72,27.06,3.77,40.71c1.33,13.25,0.01,26.66,2.47,39.8
		c2.65,11.45,2.88,23.28,4.06,34.93c1.47,19.47,7.36,38.44,7.26,58.05c1.37,20.45,6.37,40.39,10.25,60.45
		c3.56,10.34,3.05,21.54,6.22,31.99c2.06,6.44,2,13.41,4.48,19.75c7.83,17.18,11.15,36.03,18.97,53.24
		c4.68,8.82,3.32,19.28,7.38,28.29c2.65,6.13,2.72,13.03,6.14,18.9c3.35,6.69,4.44,14.15,7.03,21.14
		c6.07,17.53,8.22,36.1,13.96,53.73c3.39-2.05,6.96-3.78,10.26-5.98c3.02-2.52,5.12-5.97,8.23-8.4
		c14.86-9.83,28.83-21.15,40.6-34.59c8.56-10.69,20.62-17.36,31.11-25.86c10.83-5.84,17.66-16.36,26.93-24.1
		c9.35-8.5,19.63-15.82,29.74-23.36c7.37-5.9,14.32-12.27,21.42-18.48c5.84-5.39,14.03-7.57,19.1-13.9
		c9.3-9.42,19.22-18.19,29.63-26.38c10.5-8.16,18.17-19.13,27.91-28.08c13.35-15.58,28.63-29.39,43.36-43.64
		c9.5-7.37,16.68-17.11,24.89-25.8c4.99-5.46,11.83-9.04,15.87-15.38c7.34-10.75,15.4-21.26,25.69-29.38
		c9.49-7.36,14.47-18.72,22.96-27.01c4.99-5.03,9.83-10.18,14.91-15.11c4.9-4.81,9.04-10.61,15.42-13.62
		c16.65-8.94,28.77-24.77,46.86-31.27c7.9-3.93,17.01-5.19,24.1-10.73c6.96-5.27,15.42-7.9,23.09-11.96
		c13.15-6.76,27.85-9.51,41.22-15.75c8.45-3.75,16.58-8.2,25.06-11.89c8.71-3.46,17.93-5.5,26.53-9.3
		c9.51-3.14,17.85-9.01,27.51-11.77c22-6.03,42.77-15.51,63.7-24.4c16.9-8.79,34.05-18.73,45.32-34.56
		c5.11-6.39,6.94-14.48,9.48-22.07c-17.21-16.82-34.6-33.62-48.8-53.15c-25.53-33.6-45.65-71.14-60.47-110.61
		c-24.37-63.43-35.08-131.62-35.58-199.4c-0.94-67.34,9.77-134.99,32.58-198.4c18.32-50.76,44.78-98.91,80.59-139.48
		c18.89-20.86,39.32-40.59,62.88-56.15c25.43-17.29,53.96-30.1,83.9-37.19c46.76-10.07,96.7-7.92,141.33,9.99
		c51.07,19.43,93.58,56.37,127.47,98.53c52.6,67.05,82.9,149.67,94.51,233.56c13.82,100.69,4.43,205.65-34.24,300.1
		c-18.96,46.58-45.37,90.4-79.74,127.25c-8.59,8.67-17.04,17.49-26.05,25.72c4.46,8.56,8.58,17.5,15.38,24.55
		c16.59,17.22,38.74,27.56,60.61,36.28c14.99,6.89,30.75,11.77,46.44,16.77c12.8,5.97,25.73,11.81,39.37,15.67
		c15.28,4.72,28.74,13.71,43.74,19.16c10.97,4.52,22.91,6.71,33.36,12.51c6.37,3.46,13.26,5.84,19.5,9.58
		c11.54,8.64,26.38,10.79,38.51,18.45c11.55,7.52,23.2,15.19,32.49,25.52c4.87,5.83,12.92,8.56,16.29,15.69
		c6.08,11.78,14.36,22.33,19.71,34.52c6.27,12.39,13.46,24.35,18.35,37.4c3.85,9.72,7.5,19.55,12.26,28.89
		c7.81,14.77,9.95,31.69,17.22,46.72c6.99,13.61,9.24,28.91,14.99,43c4.6,11.22,5.82,23.61,11.42,34.45
		c3.88,8.8,7.94,17.55,11.88,26.33c1.88,13.65,6.83,26.51,11.5,39.38c3.65,13.67,8.67,26.92,12.51,40.54
		c4.37,11.09,7.75,22.51,11.22,33.91c5.59,14.24,8.75,29.34,14.67,43.48c1.17,13.92,9.5,25.67,13.43,38.84
		c3,11.46,5.11,23.35,10.49,34.02c2.25,4.47,3.36,9.35,5.24,13.99c5.69,10.23,6.28,22.17,10.54,32.96
		c4.37,10.33,6.18,21.43,9.92,31.98c3.81,13.51,5.77,27.67,11.78,40.49c4.52,9.63,7.65,19.82,10.91,29.94
		c5.31,20.06,11.12,40.19,13.4,60.88c2.56,14.21,5.27,28.45,9.32,42.34c3.34,14.38,9.22,28.07,11.73,42.68
		c4.38,24.3,8.89,48.6,11.89,73.14c-6.6-0.06-13.17-0.07-19.72-0.02c0.57-7.58-1.63-14.98-2.86-22.37
		c-2.28-12.52-3.43-25.21-6.4-37.6c-1.8-12.82-3.58-25.74-7.42-38.13c-5-12.9-9.22-26.19-10.81-39.96
		c-2.05-8.89-4.77-17.59-5.31-26.76c-5.29-25.66-9.92-51.59-18.6-76.38c-4.5-10.62-7.06-21.91-11.26-32.63
		c-4.07-17.47-11.55-33.96-14.6-51.71c-5.27-14.76-10.34-29.58-15.14-44.49c-6.56-14.48-9.04-30.29-15.22-44.9
		c-3.66-8.4-4.49-17.81-9.12-25.8c-4.96-8.88-5.62-19.28-9.2-28.66c-5.31-17.92-13.64-34.8-18.36-52.88
		c-3.62-9.72-6.45-19.71-9.41-29.64c-5.32-14.72-9.48-29.83-13.1-45.04c-1.1-3.76-4.4-6.34-5.77-9.98
		c-4.3-10.07-6.87-20.78-11.13-30.86c-6.18-14.27-9.77-29.5-16.11-43.69c-2.47-5.94-3.57-12.34-6.19-18.21
		c-6.05-13.56-9.61-28.05-14.96-41.87c-2.97-8.04-6.74-15.75-10.42-23.47c-6.15-12.07-10.56-24.95-17.4-36.67
		c-5.98-12.72-12.95-25.09-22.21-35.71c-4.43-9.18-11.79-16.12-19.58-22.47c-13.79-14.28-32.78-20.98-49.93-30.09
		c-11.23-5.92-22.94-10.86-34.3-16.48c-19.36-7.16-39.16-13.68-57.11-24.02c-12.89-4.87-26.29-8.4-38.73-14.46
		c-14.19-6.96-29.85-10.05-44.26-16.43c-16.52-7.07-33.63-12.99-49.22-22.03c-11.89-6.22-22.36-14.75-32.41-23.52
		c-6.44-8.11-13-16.43-16.89-26.1c-34.63,26.44-75.1,46.37-118.54,52.48c-30.41,4.11-61.72,4.01-91.66-3.22
		c-36.63-8.58-70.84-26.05-100.46-49.08c-2.03,5.69-4.59,11.2-8.15,16.12c-4.6,6.3-8.6,13.35-14.99,18.06
		c-16.65,14.57-36.48,24.97-56.94,33.04c-13.8,5.69-27.42,11.88-41.75,16.11c-18.16,5.37-34.64,15.19-53,20
		c-8.34,2.14-15.32,7.36-23.12,10.75c-9.03,3.77-18.07,7.45-27.21,10.92c-22.05,7.3-42.43,18.7-63.26,28.86
		c-12.17,5.93-24.65,11.9-34.35,21.61c-13.66,11.35-26.87,23.28-41.09,33.94c-3.81,2.87-6.56,6.82-8.96,10.89
		c-3.79,6.69-10.09,11.37-14.73,17.41c-4.95,6.4-12.18,10.52-17.16,16.9c-16.16,21.27-36.04,39.25-54.45,58.51
		c-7.88,8.45-15.75,17.05-24.94,24.13c-4.96,4.03-7.78,10.06-12.77,14.08c-9.16,7.49-16.96,16.46-24.69,25.37
		c-3.89,4.47-6.64,9.95-11.32,13.7c-4.69,3.77-9.94,6.77-14.71,10.42c-6.97,6.46-15.55,10.86-22.25,17.64
		c-8.4,8.66-19.7,14.33-26.55,24.46c-10.12,6.71-19.97,13.93-29.61,21.36c-2.98,2.2-3.97,5.97-6.35,8.68
		c-7.32,6.79-15.52,12.5-23.63,18.28c-3.04,2.04-6.66,3.14-9.43,5.59c-13.62,12.01-28.56,22.79-39.64,37.37
		c-3.64,5.55-10.01,7.91-14.86,12.11c-5.98,5.5-13.37,9.19-19.13,14.93c-3.88,3.8-7.98,7.37-12.52,10.34
		c-0.34,5.42,0.49,10.8,1.11,16.18c1.03,8.59-0.7,17.17,0.02,25.8c-0.35,6.3,0.95,12.57,0.11,18.87c-2.01,9.8-3.89,19.84-2.95,29.89
		c1.93,10.92-2.16,21.38-3.17,32.13c-1.56,13.69-4.49,27.58-11.16,39.78c-1.41,2.83-1.51,7.86-5.78,7.62
		c-5.64-1.87-9.46-8.1-9.25-14.02c-0.99-8.56,4.94-16.07,5.07-24.57c0.87-16.31,7.76-32.05,5.24-48.52
		c-1.88-8.94,3.96-17.36,2.73-26.3c-0.92-7.17-0.57-14.37-0.3-21.56c0.32-6.02,2.06-11.93,1.32-17.99
		c-0.06-13.08-5.22-25.36-7.16-38.16c-0.68-4.64,1.8-9.56-0.56-13.94c-2.66-5.76-5.42-11.55-6.21-17.91
		c-1.73-13.91-10.69-25.69-11.81-39.75c-3.78-13.65-8.63-27.01-14.01-40.11c-2.78-7.83-5.28-15.77-8.84-23.29
		c-3.16-6.53-3.36-13.94-6.03-20.63c-3.31-5.97,0.78-12.89-2.44-18.78c-3.77-8.27-5.36-17.29-7.13-26.13
		c-0.55-19.53-9.63-37.52-11.33-56.88c-0.77-8.2-4.43-16.02-3.81-24.34c0.27-7.63-0.43-15.29-2.04-22.74
		c-2.52-10.99-2.7-22.31-4.43-33.41c-0.47-5.97-2.25-11.9-1.7-17.91c0.73-5.62-1.44-11.06-2.41-16.52
		c-2.45-14.88-3.12-29.96-5.19-44.88c-0.2-10.57-0.95-21.12-2.23-31.61c-0.67-5.46,2.11-10.76,0.89-16.19
		c-1.09-6.08-0.24-12.26-0.56-18.36c-1.72-9.01-1.44-18.21-1.35-27.33c-0.8-10.43-0.5-21.04-3.24-31.21
		c-0.75-10.43-0.81-21.02-2.87-31.29c-3.51-8.66,0.1-17.88-0.93-26.82c-1.84-17.04-0.57-34.22-1.91-51.29
		c-1.65-11.43,1.46-22.94-0.44-34.34c-0.55-4.1-1.21-8.78,2.05-12.09c6.08-8.11,15.8-13.06,20.52-22.3
		c4.19-7.8,7.97-15.82,12.67-23.33c4.45-9.71,9.06-19.38,14.64-28.5c3.56-5.65,3.2-12.7,5.36-18.87
		c5.43-19.11,9.98-38.5,16.53-57.28c4.95-13.18,6.7-27.39,12.53-40.24c1.14-13.19,2.84-26.57,8.62-38.68
		c3.12-5.78,2.16-12.78,5.36-18.53c4.6-8.04,6.23-17.27,10.43-25.48c3.85-8.01,6.94-16.44,11.87-23.88
		c3.02-5.84,7.52-10.75,10.56-16.57c10.05-21.74,26.75-39.26,41.28-58.02c5.98-6.58,6.56-17.87,1.1-24.94
		c-5.33-6.96-9.15-15.29-16.13-20.84c-5.45-2.81-12.14-3.04-17.94-1.22c-8.77,13.42-21.24,23.78-30.3,36.97
		c-2.57,3.97-8.8,4.75-9.64,9.9c-0.77,3.25-2.3,6.26-4.43,8.83c-5.19,6.24-9.23,13.37-14.77,19.32
		c-6.86,6.03-7.35,16.04-13.08,22.92c-5.42,7.81-14.85,14.06-15.62,24.27c-6.46,11.4-12.09,23.27-18.14,34.91
		c-4.54-0.29-9-1.26-13.11-3.22c-0.11-7.08,3.27-14.66-0.51-21.32c-4.85-12.46-13.34-23.03-18.37-35.4
		c-2.46-10.5-9.73-19.08-11.69-29.73c-7.44-10.11-9.45-22.63-12.78-34.41c-1.92-15.11-7.02-29.76-6.88-45.1
		c-1.29-6.29,0.67-12.78-1.25-18.95c-3.39-11.56-3.83-23.66-6.71-35.32c-2.43-9.55-2.26-19.45-3.22-29.18
		c-2.4-24.47-7.21-48.6-12.08-72.66c-1.03-6.38-5.95-11.43-6.44-17.96c-0.34-6.66-6.32-10.87-10.64-15.18
		c-6.16-5.88-13.96-9.96-22.29-11.69c-3.87-0.6-8.74,1.08-9.94,5.17c-1.77,4.52-3.61,9.08-4.59,13.85
		c-0.16,3.79,1.38,7.52,0.55,11.32c-2.83,14.96,3.47,29.92,1.26,44.91c-0.61,5.61-2.82,11.47-0.65,17.01
		c0.6,7.55,3.23,15.33,1.25,22.91c-0.52,2.48-1.06,5.06-0.44,7.58c2.41,9.33,0.75,19.02,1.25,28.52c1.04,6.29,3.64,12.32,3.92,18.74
		c0.07,10.88,2.39,21.54,3.87,32.26c0.08,6.4-2.9,12.49-2.64,18.95c0.8,2.61,3.8,3.28,5.86,4.6c-0.72,4.74-2,9.65-0.53,14.38
		c1.06,7.64-0.06,15.46-0.3,23.14c-1.56,9.2-6.61,18.32-15.29,22.53c-5.96,4.78-15.68,3.91-20.81-1.62
		c-4.49-7.58-8.25-15.75-9.73-24.52c-1.22-5.85-4-11.22-5.14-17.09c-1.29-6.45-6.48-11.29-7.82-17.73
		c-0.95-5.56-2.96-10.81-4.99-16.04c-4.97-12.46-6.24-25.93-10.62-38.54c-4.21-10.98-4.52-22.94-8.69-33.91
		c-2.3-7.07-3.48-14.45-5.79-21.52c-1.91-5.83-0.51-12.06-1.55-18c-1.68-4.15-5.12-7.43-6.28-11.84c-2.6-10.3-6.86-20.06-9.83-30.23
		c-1.35-7.07-5.15-13.27-8.44-19.56c-2.77-6.18-5.35-12.44-8.12-18.61c-2.01-7.81-9.05-12.79-12.26-20.05
		c-2.9-8.79-10.97-14.12-19.42-16.66c-7.5-2.25-15.25,2.15-18.64,8.72c-2.38,4.51-0.35,9.79-0.86,14.59
		c-1.1,11.65,2.04,23.1,4.48,34.38c3.23,11.86,8.19,23.36,9.57,35.66c3.56,9.4,5.27,19.41,9,28.77c2.44,6.91,5.69,13.7,6.09,21.13
		c0.55,5.9,4.58,10.62,6.24,16.19c2.27,9.38,4.88,18.68,6.71,28.17c1.23,7.36,7.15,13.19,7.23,20.8
		c0.55,11.39,2.92,22.63,6.71,33.36c3.76,23.15,9.62,46.33,7.93,69.97c-0.73,6.54-3.39,13.46-9.66,16.53
		c-5.88,4.45-13.43,2.68-20.24,2.66c-6.54-11.28-16.32-20.63-20.71-33.13c-1.32-7-7.44-11.75-8.8-18.66
		c-0.66-4.24-2.04-8.29-4.05-12.06c-2.62-5.01-3.19-10.69-4.84-16.01c-1.21-5.86-4.46-10.98-6.01-16.71
		c-2.7-11.98-12.63-20.64-16.25-32.22c-1.39-7.93-8.23-13.22-10.49-20.77c-2.38-7.13-5.62-13.95-7.66-21.18
		c-1.88-7.52-5.18-14.83-10.37-20.66c-8.36-8.85-9.55-21.6-16.73-31.21c-5.99-13.14-18.88-22.47-32.97-25
		c-4.82,0.08-11.58,1.33-12.82,6.9c-0.82,6.39-1.17,13.04,0.29,19.37c1.03,3.85-0.72,7.61-1.77,11.24c2.13,1.26,4.63,2.14,6.24,4.1
		c0.96,4.03-0.72,8.13-0.36,12.19c3.22,6.48,8.9,11.93,9.51,19.55c1.26,12.76,8.27,24.07,9.2,36.89c0.57,5.01,3.54,9.2,5.2,13.84
		c2.75,12.05,3.86,24.71,9.6,35.87c4.47,8.69,4.51,18.88,8.66,27.68c1.22,3.81,1.48,8.09,4.01,11.38c4.5,6.29,4.93,14.51,9.49,20.77
		c7.96,11.17,13.52,24.07,15.99,37.58c1.43,7.5,5.13,14.55,5.44,22.24C2.04-76.4,0.71-69.58-3.57-64.67
		c-3.78,2.69-7.88,5.49-12.43,6.47c-6.26-1.08-11.43-5.73-15.13-10.67c-9.39-11.31-14.44-25.63-24.6-36.37
		c-6.88-10.72-10.72-23.23-18.29-33.57c-4.85-7.72-10.4-14.95-16.45-21.76c-2.92-3.03-3.72-7.25-5.41-10.94
		c-9.55-13.93-18.64-28.22-26.59-43.12c-5.84-8.32-10.16-18.16-18.49-24.41c-5.94-4.43-9.35-12.01-17.01-14.11
		c-5-2.15-8.92,2.98-11.82,6.28c-1.97,5.37-2.4,11.61-0.18,17.03c3.62,9.11,4.59,19.36,10.41,27.51c2.37,3.57,5.23,6.94,6.57,11.08
		c0.59,2.59-0.15,5.26-0.41,7.86c4.02,4.48,4.59,10.8,7.86,15.75c5.95,9.27,8.07,20.44,14.74,29.28
		c5.49,10.75,12.21,20.81,17.71,31.56c5.43,9.43,12.48,18.27,14.88,29.1c0.91,4.19,4.04,7.24,6.12,10.84
		c2.58,4.17,4.08,8.88,6.23,13.27c3.25,5.55,7.84,10.57,9,17.1c0.55,5.33,2.98,10.03,5.72,14.52c2.18,3.53,1.34,8.47,4.66,11.34
		c6.21,5.2,7.59,13.65,11.59,20.35c2.75,4.48,2.31,9.92,3.71,14.83c4.73,11.58,11.95,22.03,15.53,34.1
		c1.94,7.79,6.1,14.89,7.32,22.86c5.4,16.72,11.2,33.31,18.07,49.49c2.35,11.06,10.07,19.63,14.47,29.81
		c4.03,6.56,6.51,14.39,12.83,19.2c7.81,6.74,10.56,17.98,19.93,23.05c7.48,5.66,15.55,10.39,23.33,15.58
		c7.1,4.53,15.19,7.27,22.19,11.95c2.23,2.16,5.78,4.26,5.57,7.79c-0.9,6.25,0.21,12.46,1.5,18.56c4.01,16.69,2.17,34.53,9.17,50.55
		c15.61-15.07,34.61-25.93,51.73-39.13c7.57-7.13,16.99-12.13,23.33-20.56c8.15-5.55,12.2-15.03,19.24-21.77
		c7.61-6.83,12.7-15.86,20.15-22.83c6.51-6.06,10-14.47,15.96-20.98c8.09-11.96,15.69-24.31,20.85-37.87
		c3.74-11.42,1.72-23.62,3.1-35.37c0.76-4.59-1.78-8.75-2.95-13.02c-1.92-5.49-1.9-11.72-5.42-16.55
		c-3.74-4.96-6.72-10.56-11.12-14.98c-6.24-4.5-13.6-7.1-20.96-9.07c-6.68-1.75-11.26-7.39-16.9-10.92
		c-12.34-6.07-26.39-5.86-39.58-8.76c-7.34-1.55-14.78-2.15-22.24-1.31c-6.54,1.14-12.47-2.11-18.32-4.41
		c1.6-5.39,4.33-10.31,7.31-15.05c19.45,1.3,38.89,2.74,58.16,5.72c10.61-0.3,18.86,7.15,28.67,9.83c-0.65,0.55-1.31,1.11-1.95,1.68
		c7.64-2.05,14,3.34,20.29,6.7c10.9,4.13,19.98,12.48,25.84,22.49c5.49,7.84,10.86,15.95,13.66,25.2c1.46,4.88,4.05,9.7,3.22,14.97
		c-1.28,15.02-0.4,30.23-3.34,45.05c-1.85,7.93-7.69,13.39-12.84,19.19c-3.72,3.53-2.76,9.26-5.63,13.28
		c-6.69,7.99-10.52,18.49-19.28,24.62c-5.15,3.53-8.08,9.26-12.53,13.54c-6.12,6.24-9.93,14.6-17.44,19.43
		c-9.34,14.27-21.25,26.87-35.25,36.65c-2.36,0.88-4.96-0.34-7.36-0.67c0.09,2.38,0.14,4.76,0.14,7.15
		c-4.02,2.02-8.25,3.76-11.58,6.89c-4.71,4.35-11.06,6.14-16.04,10.09c-5.21,4.52-12,7.19-16.02,13.02
		c-3.62,5.11-11.06,6.46-13.64,12.3c-2.12,9.55,2.2,19,2.01,28.56c-0.56,4.73-2.13,9.44-0.54,14.22c1.21,5.05-0.38,10.05-0.68,15.09
		c0.36,9.03,2.55,17.85,3.59,26.8c1.25,22.15-0.05,44.37,1.66,66.5c-0.57,16.23-1.41,32.45-0.87,48.69
		c-0.81,12.03-5.67,24.34-1.33,36.22c1.85,6.2-2.48,12.28-1.3,18.53c1.32,5.71-1.35,11.36-0.61,17.13
		c0.93,4.87-3.83,8.56-3.03,13.39c0.67,6.33,1.72,12.68,1.07,19.07c-1.24,9.32-1.58,18.73-2.06,28.12c-0.3,1.71,1.45,2.4,2.79,2.84
		c9.75,2.49,19.94,0.43,29.72,2.74c11.86,0.02,23.77,0.21,35.53,1.94c9.84,1.23,20,1.35,29.46,4.63c8.32,2.78,17.44,2.8,25.36,6.89
		c14.18,7.63,29.92,12.29,43.24,21.55c6.01,3.58,10.28,9.57,16.88,12.26c9.1,3.58,15,11.61,20.99,18.89
		c5.3,7.01,12.95,11.79,18.12,18.92c7.45,10.23,12.38,22.79,12.21,35.55c3.37,11.13,4.33,23.08,2.85,34.58
		c-6.3,15.44-7.64,32.17-11.79,48.18c-6.17,14.1-13.81,27.68-22.84,40.17c-10.52,11.23-24.08,19.07-34.92,30
		c-4.81,5.15-11.12,8.24-16.94,12.03c-5.45,3.52-8.42,9.93-14.36,12.82c-12.01,6.51-20.73,17.35-32.3,24.46
		c-8.52,4.77-17.08,9.46-25.32,14.71c-13.22,7.05-24.57,16.98-37.28,24.86c-9.25,5.15-17.14,12.72-27.36,16.06
		c-2.09,13.52,4.08,26.37,4.89,39.74c0.96,13.63,9.37,25.43,9.54,39.18c0.17,3.99,2.86,7.13,4.51,10.6c2.2,4.79,4.14,9.82,5.32,15
		c4.01,13.68,12.1,25.75,15.91,39.5c2.26,5.34,5.01,10.49,6.84,16.04c0.99,3.13,3.96,4.97,5.55,7.75c1.27,3.09,1.04,6.62,2.77,9.57
		c3.7,6.07,9.29,10.64,13.4,16.43c9.63,13.56,23.75,24.02,39.47,29.4c1.36,2.78,2.28,6.54,5.69,7.47c4.94,1.9,9.97,3.69,14.42,6.62
		c4.03,2.23,7.78,5.66,12.61,5.83c5.74,0.42,11.54,0.74,17.03,2.66c5.2,1.71,10.69,0.44,16.04,1.02c9.98,0.15,19.95,1.76,29.93,0.66
		c12.47-1.03,25.19-1.14,37.3-4.61c6.87-1.73,14.14-1.58,20.74-4.38c30.51-7.65,61.52-13.23,92.52-18.46
		c9.65-1.42,18.43-6.54,28.28-6.86c9.16-0.84,17.42-5.45,26.25-7.68c14.38-4.15,27.44-11.81,41.8-16.01
		c10.76-2.49,21.62-5.03,31.72-9.63c10.9-5.9,23.19-8.55,33.96-14.78c10.89-6.49,22.48-11.64,34.54-15.54
		c12.71-3.77,22.31-13.4,34.07-19.05c4.24-2.04,7.37-5.85,11.85-7.44c5.99-2.04,9.34-7.81,14.43-11.23
		c13.89-9.86,30.36-16.2,42.59-28.35c12.12-10.23,24.28-20.38,37.29-29.5c7.13-3.67,10.92-11.2,17.03-16.13
		c5.25-4.1,8.88-9.78,13.84-14.15c10.92-8,22.08-15.83,32.13-24.92c5.79-4.71,2.51-12.7,1.7-18.92
		c-0.91-10.53,0.65-21.16-0.93-31.66c4.25-1.17,9.12-5.13,13.22-1.88c3.67,2.65,4.71,7.55,6.08,11.64
		c0.11,5.59-1.29,11.13-1.01,16.77c-0.68,11.56,4.54,22.35,4.47,33.86c2.41,8.1-0.05,16.5,1.48,24.7
		c2.31,9.17-0.86,18.49,0.27,27.75c0.52,16.29,4.08,32.32,4.55,48.59c-0.25,16.19,6.14,31.57,6.44,47.74
		c0.13,17.61,3.42,34.95,5.97,52.28c-0.1,13.46,3.42,26.58,3.99,40c0.28,8.45,4.42,16.11,6.06,24.3c1.2,12.99,2,26.14,0.57,39.15
		c-0.98,6.21,0.8,12.3,1.65,18.4c0.63,11.66,5.37,22.65,5.39,34.4c-0.54,13.2,3.49,26.05,2.99,39.28
		c-0.7,9.05,3.83,17.48,3.65,26.51c2.23,16.13,3.61,32.41,7.39,48.27c0.04,4.93-2.25,9.98-0.42,14.86
		c2.43,6.09,1.77,12.69,2.45,19.12c-2.13,0.41-6.37,1.22-8.49,1.62c-3.36,2.02-5.79,5.26-8.95,7.55
		c-0.55-6.83-0.67-13.66-0.69-20.48c-0.91-7.56-4.21-14.75-4.21-22.4c-1.41-18.25-1.45-36.67-5.69-54.58
		c-2.35-16.97-2.66-34.25-6.31-51.03c-1.78-6.98-1.35-14.27-2.25-21.37c-0.48-5.47-2.29-10.79-1.99-16.29
		c2.4-14.59-3.72-28.66-5.36-42.95c1.16-8.74-4.58-16.71-3.17-25.46c-3.34-18.77-4.62-37.87-6.13-56.85
		c0.51-12.12-2.11-24.01-3.27-36.01c-0.74-13.26-3.91-26.23-5-39.44c-0.15-12.28-3.17-24.31-4.11-36.49
		c1.14-8.13,0.33-16.32,1.08-24.46c-0.25-4.77-2.09-9.28-2.78-13.97c-2.01-12.99-0.92-26.57-5.82-39.01
		c-8.63,1.17-13.27,8.97-20.09,13.35c-5.27,3.66-9.14,8.82-13.11,13.76c-6.94,9.12-17.41,14.5-25.43,22.54
		c-10.6,7.95-21.27,15.9-31.18,24.74c-4.94,3.9-10.12,7.47-15.5,10.73c-5.77,3.54-10.43,8.82-16.53,11.81
		c-8.94,2.42-15.56,9.38-23.18,14.23c-16.57,10.84-32.83,23.27-52.35,28.19c-4.32,2.36-8.5,5-13.3,6.31
		c-7.94,5.39-16.92,9.15-24.46,15.14c-10.64,2.56-21.26,5.5-31.54,9.34c-7.42,1.88-13.96,6.08-21.38,7.97
		c-14.75,4.04-29.22,9.08-43.28,15.13c-9.04,5.24-19.49,7.13-29.33,10.37c-11.63,3.01-24.02,7.12-36.08,4.43
		c-3.08,1.97-5.75,4.77-9.24,5.99c-15.82,3.14-31.73,5.96-47.7,8.16c-11.08-0.62-22.09,1.48-32.91,3.59
		c-7.42,1.43-12.39,7.98-19.29,10.52c-25.12,7.22-51.41,3.66-77.12,3.43c-4.05-0.08-7.93-1.36-11.68-2.75
		c-5.35-1.2-10.9,0.29-16.31-0.1c-9.42-1.4-17.23-8.15-26.88-8.53c-5.97-1.54-10.87-5.67-15.96-8.98c-2,1.17-4.01,2.32-6.06,3.42
		c-5.45-4.82-10.15-10.73-16.69-14.12c-9.52-4.87-18.05-12.18-23.14-21.68c-6.59-11.43-14.68-21.83-22.92-32.08
		c-3.44-6.67-5.65-13.98-7.49-21.24c-2.61-7.18-8.74-12.37-11.58-19.43c-2.34-7.04-5.3-13.89-6.49-21.24
		c-2.35-8.76-7.39-16.76-7.68-26.04c-3.53-13.05-9.83-25.42-11.2-39.02c-2.99-10.1-5.59-20.3-7.68-30.64
		c-7.35,2.9-13.83,8.12-21.96,8.68c-1.47,2.62-2.49,5.63-4.75,7.71c-7.26,4.44-15.11,7.8-22.77,11.49
		c-6.79,3.98-13.17,8.7-19.29,13.66c-3.52,3.16-8.93,3.06-12.04,6.85c-3.78,4.61-10.11,5.57-14.22,9.77
		c-6.61,6.21-15,10.15-21.35,16.66c-7.55,5.89-15.18,11.7-23.24,16.91c-5.69,3.85-10.24,9.26-16.38,12.48
		c-3.12,1.81-6.9,2.92-8.93,6.14c-3.56,5.12-8.06,9.47-11.51,14.7c-1.66-1.38-3.27-2.79-4.91-4.17c0.08,5.9-3.82,10.56-6.7,15.36
		c-2.26,3.84-6.46,5.59-10.27,7.5c-1.32,11.3-7.79,21.45-15.84,29.25c-5.01,9.59-6.76,20.49-10.56,30.58
		c-2.24,6.62-4.11,13.41-5.07,20.37c0.06,5.83,2.84,11.05,5.03,16.3c3.87,8.7,3.52,18.7,7.66,27.32c2.05,4.81,4.15,9.71,7.37,13.89
		c5.09,7.01,13.83,9.99,19.08,16.91c3.97,4.96,9.44,8.23,15.5,10.02c-2.74-8.82-5.04-17.8-8.62-26.31
		c-3.73-9.71-11.35-17.91-11.89-28.75c4.37-0.78,8.56-3.16,13.09-2.97c5.07,2.46,6.68,8.51,9.15,13.21
		c3.1,6.45,6.96,12.69,8.41,19.79c1.26,6.7,4.99,12.55,6.74,19.11c2.15,9.57,5.04,19.46,11.56,27.04c4.93,6.11,5.89,14.62,2.36,21.6
		c1.6,1.39,3.22,2.76,4.82,4.19c-2.21,3.23-4.33,7.19-8.75,7.68c-6.5,3.29-13.08-0.52-19.08-2.9c-5.88-2.32-11.25-6.04-17.63-6.93
		c-11.27-3-22.51-6.12-33.61-9.7c-8.8-1.8-17.59-3.89-25.84-7.49c-5.01-2.27-4.96-8.19-4.85-12.82c2.58-4.96,9.02-8.25,14.24-5.27
		c12.56,5.87,26.22,8.85,39.97,10.21c-4.67-5.88-9.76-11.38-16.31-15.15c-8.03-7.85-16.23-15.57-23.87-23.8
		c-4.16-6.58-8.52-13.28-10.02-21.06c-1.13-6.42-4.11-12.38-4.69-18.91c-1.24-7.89-0.1-15.91,0.37-23.8
		c2.54-11.06,7.81-21.3,10.69-32.26c5.22-16.14,15.07-29.94,23.57-44.41c3.9-5.63,9.76-9.49,13.99-14.84
		c1.65-2.14,4.08-3.31,6.64-3.96c0.89-2.76,1.86-5.49,2.81-8.22c6.06-2.41,8.13-9.4,13.2-13.14c7.9-9.38,18.97-14.96,28.4-22.52
		c5.94-4.1,11.45-8.78,17.5-12.73c7.52-5,13.17-12.58,21.61-16.21c8.66-3.51,15.3-10.23,23.27-14.9
		c12.65-9.11,25.12-18.57,38.87-25.99c16.55-10.88,32.79-22.25,48.53-34.3c-3.9-8.77-4.25-18.51-4.53-27.93
		c-1.79-7.82-4.59-15.51-4.53-23.65c0.22-6.88-0.98-13.81-3.66-20.15c-4.25-11.65,0.13-24.19-1.67-36.12
		c-0.63-13.07-2.69-26.04-3.34-39.09c-0.78-6.98,0.95-13.98,0-20.94c-0.87-7.6-3.18-15.22-1.45-22.84c1.71-7.23-0.2-14.6,0.67-21.89
		c-0.14-9.91-0.03-19.84,0.81-29.72c1-8.66-1.26-17.33,0.21-25.96c0.63-3.74,1.5-7.54,0.28-11.23c-1.61-4.67,1.06-9.34,0.26-14.06
		c-1.33-7.75,2.4-15.34,0.95-23.07c-1.47-7.17,0.73-14.19,1.72-21.21c-1.54-10.32-0.91-20.8,0.56-31.09
		c-8.98-1.33-18.05-2.07-26.95-3.94c-11.91-1.49-23.94-1.54-35.88-2.41c-14.36-4.22-29.41-6.23-43.21-12.25
		c-12.4-5.21-25.56-7.98-38.64-10.81c-6.15-2.35-12.9-4.39-17.5-9.36c-2.51-2.54-4.89-5.23-7.93-7.15
		c-9.73-6.44-17.09-15.67-23.91-24.96c-4.3-6-5.06-13.49-6.28-20.54c-2.16-11.84-1.45-23.95,0.39-35.76
		c6.74-23.87,16.91-47.47,33.7-66.03c5.3-8.77,12.96-15.81,18.36-24.54c3.67-6.01,9.98-9.42,15.14-13.95
		c13.84-15.1,27.36-30.55,42.16-44.77c7.4-9.1,17.59-15.11,26.5-22.52c5.34-4.38,10.82-8.61,16.4-12.69
		c11.5-9.79,22.48-20.23,34.64-29.23c3.47-2.99,7.96-5.34,10.09-9.6c1.11-7.74-0.59-15.46-1.22-23.15
		c-0.67-9.64-4.51-18.88-3.78-28.62c-0.88-7.59-1.72-15.41-4.21-22.63c-4.61-5.07-11.69-6.68-17.04-10.8
		c-5.63-3.33-10.15-8.09-15.53-11.73C24.09,212.72,11.7,202.67,3.74,189c-10.36-14.03-17.8-29.87-25.28-45.55
		c-2.87-6.84-7.83-12.82-8.67-20.41c-1.34-7.11-4.7-13.55-6.91-20.38c-2.03-8-6.87-14.87-9.98-22.44
		c-2.05-5.14-2.29-10.83-4.44-15.92c-5.59-10.75-9.33-22.33-13.2-33.79c-3.51-9.86-9.18-18.96-11.32-29.29
		c-2.47-6.09-6.24-11.65-7.73-18.13c-1.38-6.3-5.61-11.37-8.03-17.24c-5.78-13.62-16.32-24.97-19.85-39.55
		c-0.51-2.9-2.98-4.75-4.62-7c-7.42-8.54-6.85-21.14-14.18-29.7c-3.15-4.08-5.15-8.88-8.14-13.06
		c-6.45-7.88-11.57-16.93-14.51-26.71c-1.74-6.78-7.05-11.86-9.3-18.44c-4.36-12.79-10.42-24.9-16.9-36.72
		c-2.51-7.81-6.8-15.19-6.76-23.6c0.29-5.04-3.81-8.97-3.48-14.06c0.02-3.28,1.23-6.4,1.34-9.66c0.2-2.35-0.26-5.05,1.52-6.92
		c6.38-8.03,17.16-11.9,27.27-10.68c11.6,0.48,20.58,8.61,28.82,15.88c5.86,6.88,10.98,14.37,16.5,21.53
		c4.38,4.91,5.11,11.78,8.97,17c6.88,9.25,13.14,18.96,18.24,29.31c4.78,7.42,9.25,15.05,14.24,22.34
		c5.95,7.36,13.28,14.21,15.56,23.78c3.65,10.99,13.72,18.45,17.05,29.62c1.33,5.5,4.84,10.13,8.79,14.07
		c3.74,3.33,4.32,8.73,7.67,12.33c2.49,2.58,6,3.74,9.08,5.43c-0.14-8.36-0.92-16.72-2.24-24.98c-2.26-9.74-8.78-17.86-10.94-27.64
		c-1.2-4.48-3.69-8.52-6.69-12.01c-4.67-5.83-4.9-13.66-7.95-20.25c-5.76-12.18-9.35-25.22-14.02-37.82
		c-4.73-18.5-10.35-36.77-14.59-55.4c-1.33-6.61-4.75-12.61-5.77-19.29c-1.15-10.7-7.34-20.06-8.36-30.77
		c-2.37-8.8-5.21-17.46-8.79-25.83c-1.47-7.66-3.05-15.35-4.27-23.05c1.37-5.25,4.35-9.97,6.15-15.11c1.21-4.23,6.13-4.66,9.78-5.29
		c9.65-0.76,20.41-3.1,29.35,2.06c4.24,2.21,8.93,3.63,12.85,6.42c6.4,5.58,12.16,11.84,17.66,18.29
		c7.75,7.81,6.9,20.02,13.18,28.72c3.16,4.56,7.29,8.56,9.36,13.79c3.04,8.12,7.47,15.74,9.05,24.37c-0.15,1.74-1,3.32-1.6,4.94
		c4.96,4.99,8.69,11.31,10.43,18.14c3.54,10.62,13.67,17.1,18.26,27.16c2.39,5.3,3.92,10.92,4.91,16.63
		c1.03,5.45,6.24,9.05,7.13,14.5c0.94,10.31,4.68,20.25,9.69,29.25c3.49,6.54,5.53,13.74,9.1,20.25
		c5.38,6.86,10.62,14.15,18.16,18.85c1.71-7.24,5-14.5,3.38-22.06c-3.37-14.93-3.72-30.4-7.67-45.24
		c-1.5-13.42-5.4-26.38-10.66-38.78c-0.4-9.23-3.02-18.13-6.93-26.47c-2.36-4.43-1.88-9.51-2.45-14.33
		c-1.03-5.05-3.45-9.71-4.65-14.71c-2.31-13.02-8.11-25.06-10.8-37.98c-3.96-21.1-14.05-40.7-17.02-62.09
		c-0.84-11.96-9.21-22.91-6.33-35.08c1.5-6.99,3.16-13.95,4.84-20.89C28.3-455.99,34.14-458.09,38.33-460.62 M1328.45-443.5
		c-58.54,3.46-113.68,31.2-156.19,70.76c-38.5,36.73-67.97,82.24-89.05,130.92c-24.73,56.82-38.59,118.13-43.01,179.85
		c-3.95,62.09,2.92,124.79,19.03,184.84c11.87,42.7,28.86,84.12,51.83,122.08c19.3,31.03,41.67,60.58,69.73,84.27
		c41.2,35.8,93.51,60.2,148.38,63.49c65.97,2.34,129.87-27.62,177.1-72.44c61.32-59.48,98.99-139.8,117.68-222.35
		c11.68-51.32,16.5-104.34,12.75-156.89c-3.61-54.54-14.16-108.89-33.69-160.04c-14.15-37.95-33.08-74.22-57.17-106.82
		c-25.86-36.2-59.51-66.98-98.52-88.49C1411.03-433.69,1369.88-445.99,1328.45-443.5 M71.29,346.01
		c-6.63,2.68-11.09,8.48-16.69,12.65c-7.45,6.77-17.87,9.63-24.21,17.71c-7.05,8.75-17.14,14.12-25.05,21.95
		c-8.56,8.12-14.5,19.36-25.17,25.09c-6.84,5.8-10.54,14.56-18.02,19.74c-6.39,4.36-9.59,11.66-15.07,16.93
		c-10.45,11.22-20.23,23.08-30.13,34.78c-3.91,7.17-9.74,13.78-10.59,22.19c-0.85,6.12-5,11.17-6,17.26
		c-0.77,4.06-2.53,7.85-3.6,11.84c-1.18,6.03,0.02,12.14,0.07,18.21c-0.24,7.22,0.47,14.57,2.52,21.51
		c3.31,5.61,7.04,11.03,10.35,16.67c11.65,13.34,27.17,24.15,44.98,26.86c19.01,3.5,34.88,17.13,54.57,17.88
		c10.14,3.65,20.9,5.98,31.74,5.74c12.66-0.47,25.28,2.05,37.93,1.14c2.27-17.18,4.43-34.66,2.14-51.96
		c1.72-1.83,3.45-3.65,5.21-5.44c-1.61-8.89-1.21-17.85-0.67-26.79c-0.41-15.47,0.68-30.88,1.54-46.29
		c-0.83-10.37,0.36-20.72-0.31-31.07c-0.17-5.57,3.24-10.84,2.09-16.41c-2.72-11.64,1.7-23.58-0.44-35.29
		c-0.89-13.67-1.49-27.35-3.48-40.92c1.29-13.89-1.44-27.61-3.02-41.34c0.2-6.08,0.65-12.24-1.43-18.11
		C77.45,342.34,74.44,344.29,71.29,346.01 M99.16,673.93c-3.46,7.33-1.68,15.37-2.52,23.12c-0.28,5.78,1.93,11.69-0.83,17.23
		c-3.45,8.52-2.16,17.92-1,26.8c0.86,5.69-2.11,11.19-1.06,16.93c1.05,8.43-0.64,16.87-0.29,25.32c0.62,8.78-0.99,17.54-0.05,26.31
		c1.37,15.79-1.54,31.47-1.69,47.24c0.55,6.48,1.05,12.96,1.59,19.46c0.59,11.56-0.65,23.24,1.17,34.74
		c1.43,8.14-0.99,16.58,1.78,24.56c1.34,8.72,2.92,17.49,2.7,26.36c-0.11,5.07,0.5,10.2,1.84,15.13
		c2.85,10.32,2.57,21.24,5.45,31.57c1.41,4.93,1.64,10.09,2.42,15.15c0.15,1.69,1.96,4.26,3.66,2.44
		c7.51-4.87,14.71-10.34,22.93-14.02c13.87-5.87,23.45-18.3,36.83-25.04c31.75-16.15,58.28-40.2,85.76-62.42
		c4.28-3.34,7.73-7.72,12.58-10.31c8.48-4.53,14.65-12.09,20.82-19.25c14.25-15.37,19.46-36.42,23.45-56.41
		c3.44-11.11,6.02-22.55,6.81-34.17c-0.28-10.98-7.53-20.32-7.86-31.27c-1.24-5.35-3.41-10.44-4.93-15.7
		c-3.91-7.81-11.5-12.7-17.05-19.15c-8.07-14.07-25.26-18.02-36.62-28.58c-8.84-7.85-20.28-11.44-30.8-16.28
		c-12.9-6.22-26.78-10.09-40.46-14.17c-17.28-2.55-34.67-4.47-52.01-6.51C120.91,673.36,110.03,673.53,99.16,673.93L99.16,673.93z"
		/>
</g>
</svg>
