<?xml version="1.0" encoding="iso-8859-1"?>
<!-- Generator: Adobe Illustrator 28.5.0, SVG Export Plug-In . SVG Version: 9.03 Build 54727)  -->
<svg version="1.1" id="Layer_1" xmlns="http://www.w3.org/2000/svg" xmlns:xlink="http://www.w3.org/1999/xlink" x="0px" y="0px"
	 viewBox="0 0 1920 1080" style="enable-background:new 0 0 1920 1080;" xml:space="preserve">
<g>
	<path style="fill:#FFFFFF;" d="M-930-606h3780v2292H-930V-606 M1807.78-557.23c-36.84,14.23-70.07,37.21-97.57,65.44
		c-33.03,32.31-59.29,71.19-79.12,112.83c-39.38,82.91-55.1,176.12-50.51,267.51c2.1,48.9,9.93,97.66,24.38,144.46
		c21.41,68.67,56.89,134.13,109.45,183.94c-5.19,3.41-6.79,9.65-9.93,14.65c-6.45,11.16-16.62,19.6-27.21,26.65
		c-12.01,7.6-24.68,14.15-38.02,19.06c-15.89,7.22-32.4,12.91-49.08,17.93c-12.36,5.28-24.29,11.61-37.25,15.43
		c-14.03,3.35-26.31,11.04-39.38,16.76c-11.85,5.54-24.8,8.09-36.63,13.62c-11.29,5.43-22.88,10.25-33.12,17.55
		c-10.82,4.27-22.25,7.63-31.97,14.21c-10.11,7.08-20.66,13.74-28.89,23.09c-4.58,5.78-12.22,8.42-16.03,14.87
		c-7.84,14.78-18.05,28.23-24.54,43.74c-9.56,16.37-16.03,34.21-23.29,51.64c-4.95,10.24-10.08,20.51-12.48,31.73
		c-3.69,15.64-12.62,29.35-16.63,44.87c-3.19,12.91-8.83,25.05-12.1,37.94c-2.72,13.3-10.15,24.94-15.09,37.45
		c-3.84,6.06-3.99,13.42-6.1,20.13c-1.75,9.43-5.93,18.11-8.8,27.21c-3.19,12.82-8.09,25.12-11.56,37.86
		c-9.81,24.82-15.83,50.91-25.57,75.73c-1.43,4.96-1.16,10.36-3.47,15.06c-5.12,12.64-11.56,24.9-13.61,38.56
		c-2.16,12.05-8.68,22.52-12.08,34.15c-1.66,4.4-4.59,8.43-5.08,13.23c-2.23,15.49-10.68,29.23-13.12,44.63
		c-4.25,11.51-6.61,23.56-9.47,35.45c-2.82,10.74-9.39,20.02-12.02,30.82c-6.88,21.26-12.28,42.97-16.33,64.95
		c-3.94,26.74-10.17,53.14-18.72,78.79c-3.52,11.22-3.83,23.18-7.94,34.25c-2.39,7.49-1.71,15.7-5.13,22.93
		c-3.21,7.21-2.94,15.38-6.01,22.65c-5.15,13.58-4.5,28.55-9.26,42.23c-2.62,7.42-2.19,15.48-3.9,23.13
		c-1.35,4.65-5.15,8.6-4.77,13.71c0.27,6.16-1.63,12.11-3.08,18.04c-3.74,21.02-6.71,42.17-9.98,63.28
		c-2.72,8.15-1.42,16.75-2.81,25.1c-1.24,6.98,0.78,13.97,1.03,20.96c0.97,14.59,3.32,29.06,6.11,43.42
		c0.68,9.75,5.25,18.64,9.2,27.44c5.16,9.89,8.62,20.62,14.78,30c4.68,9.51,11.87,17.67,15.52,27.7
		c4.64,10.09,8.47,20.7,14.89,29.87c5,6.78,7.57,15.4,14.17,20.95c6.47,6.33,13.62,12.37,22.68,14.56c7.12,1.1,14.34,1.6,21.43,3.1
		c6.69,1.48,13.22-1.42,19.81-2.24c12.51-1.8,25.7-2.8,37.01-8.99c9.93-4.52,20.26-8.37,30.98-10.57
		c17.99-5.91,35.82-12.61,52.84-20.99c7.77-4.79,15.77-9.19,24.16-12.79c14.34-8.1,28.59-16.42,42.26-25.61
		c10.23-6.6,17.84-16.16,26.87-24.13c16.62-19.06,31.95-40.26,39.13-64.79c3.34-10.15,10.53-18.53,13.22-28.91
		c2.24-8.81,8.55-15.7,12.05-23.94c5.1-11.51,9.19-23.49,15.4-34.46c3.4-5.76,6.1-11.86,9.29-17.72
		c4.34-8.06,5.86-17.38,10.98-25.05c8.82-14.45,12.56-31.32,21.28-45.81c6.12-10.72,10.51-22.37,17.45-32.63
		c6.2-8.8,9.56-19.18,16.07-27.8c4.58-7.96,12.33-13.35,16.87-21.31c6.93-10.16,15.93-18.65,23.81-28.03
		c8.98-8.06,18.57-15.43,27.76-23.26c4.43-3.97,10.36-5.44,15.24-8.74c9.74-6.96,21.43-10.18,31.73-16.15
		c10.81-4.11,19.09-12.42,28.98-18.15c5.36-3.09,9.87-7.38,14.4-11.56c7.59-5.71,15.24-11.35,22.22-17.83
		c6.13-5.87,13.5-10.36,19.09-16.83c3.04-3.28,5.31-7.49,9.43-9.59c8.37-4.72,16.34-10.13,23.62-16.42
		c9.14-6.81,16.38-15.79,25.95-22.09c10.87-9.4,22.43-17.92,34.79-25.29c12.88-8.39,25.05-17.87,38.36-25.62
		c18.41-11.04,34.92-25.08,54.24-34.61c8.2-3.74,14.53-10.45,22.64-14.38c20.23-11,40.47-21.98,61.36-31.64
		c10.69-6.64,21.09-13.74,31.9-20.22c10.14-6.19,18.82-14.44,26.37-23.57c6.09-6.64,10.21-15.07,17.86-20.18
		c6.26-7.51,11.04-17.47,9.17-27.5c-1.6-7.38-3.25-15.6-9.63-20.37c-2.64-2.92-7.11-1.48-10.32-1.51
		c-4.29,0.56-7.89-3.25-12.03-3.13c-3.48,0.84-6.78,2.53-9.96,4.01c-6.66,3.92-14.97,3.09-21.53,7.3c-6.29,4.1-13.51,6-20.4,8.72
		c-11.09,5.86-23.33,9.22-33.88,16.13c-5.27,3.63-11.61,5.22-16.9,8.8c-9.61,6.08-20.8,8.77-30.61,14.43
		c-7.17,3.51-14.75,6.75-22.81,7.24c-3.65,0.2-7.15,3.43-10.77,1.39c-4.73-1.6-5.88-7.41-6.24-11.7c1.38-6.3,3.77-12.65,8.37-17.32
		c9.24-9.32,18.56-18.68,29.23-26.39c7.6-8.22,17.06-14.46,24.4-22.95c11.96-14.49,27.86-24.76,41.54-37.44
		c7.54-5.54,13.45-13.01,21.55-17.82c6.91-5.24,12.63-11.84,19.43-17.23c5.71-4.96,10.34-11.03,16.22-15.82
		c3.7-3.86,7.8-7.45,12.82-9.5c0.5-3.29,0.51-6.71,0.83-9.99c0.47-0.07,1.4-0.2,1.87-0.27c0.76,1.31,1.53,2.62,2.38,3.96
		c1.05-4.8,1.77-9.74,4.33-14.04c4.05-6.92,5.22-14.98,8.79-22.11c1.62-3.86,4.24-7.79,3.43-12.18
		c-0.98-9.51-6.53-17.71-12.55-24.78c-5.03-5.67-12.82-9.34-20.45-7.45c-8.99,1.95-17.66,5.34-25.4,10.34
		c-14.75,8.03-28.34,18.06-40.45,29.69c-10.49,10.32-22.91,18.33-33.63,28.36c-9.93,8.76-19.91,17.45-30.26,25.69
		c-6.59,4.78-10.29,12.29-15.92,17.97c-10.56,6.18-19.28,14.75-28.25,22.92c-7.93,7.84-13.06,18.97-23.81,23.49
		c-4.72,2.73-8.72,6.52-13.22,9.54c-4.08,3.04-9.4,3.46-14.14,4.67c-2.49-6.62-0.39-13.88,3.02-19.76
		c5.38-9.15,10.3-18.56,15.39-27.87c6.39-9.53,13.39-18.64,19.76-28.18c12.16-15.49,15.79-36.06,28.71-51.07
		c7.71-13.39,16.88-25.98,23.11-40.19c4.14-9.06,10.03-17.1,14.9-25.75c4.28-8.89,10.23-16.86,14.23-25.89
		c8.85-19.77,22.96-37.76,25.49-59.85c1.58-9.51,2.91-19.24,2.17-28.87c-2.64-7.24-7.89-13.37-12.8-19.15
		c-20.34-6.24-43.36,1.67-57.37,17.3c-10.52,10.12-18.28,22.48-26.55,34.38c-6.89,12.09-16.87,22-24.42,33.64
		c-6.16,9.1-13.23,17.56-19.13,26.82c-4.4,9.17-10.55,17.29-16.72,25.31c-5.38,6.64-8.71,14.6-13.38,21.71
		c-5.83,9.14-13.16,17.25-18.23,26.87c-11.15,16.76-22.16,33.62-33.42,50.29c-5.63,9.81-12.29,18.99-19.42,27.76
		c-2.45,2.43-6.02,3.13-9.11,4.37c0.87-5.78,3.44-11.05,5.58-16.42c1.47-10.37,3.92-20.71,8.57-30.13c1.13-1.3,2.82-1.88,4.34-2.64
		c-0.19-3.73-1.06-7.71,0.79-11.18c5.4-13.31,7.81-27.66,14.08-40.65c5.94-11.71,7.97-24.84,13.54-36.71
		c4.16-8.22,4.9-17.87,10.46-25.42c3.6-5.41,5.69-11.6,8.42-17.45c7.88-16.92,14.47-34.42,22.75-51.16
		c3.08-9.44,2.21-19.68,3.55-29.43c0.1-17.14-2.26-36.63-16.27-48.42c-6.13-5.37-14.51-3.2-21.68-1.91
		c-2.88,0.66-6.53,0.99-7.75,4.16c-3.79,7.86-10.13,14-15.21,20.97c-7.52,11.31-14.06,23.28-19.57,35.7
		c-7.09,12.38-10.3,26.57-17.98,38.65c-2.4,4.78-3.01,10.4-6.56,14.59c-5.93,7.29-7.83,16.77-12.11,24.95
		c-5.62,10.16-8.78,21.43-13.97,31.8c-4.44,8.58-7.39,17.83-11.89,26.38c-4.02,6.94-4.71,15.2-8.76,22.15
		c-6.44,11.3-9.67,24.03-15.59,35.58c-8.76,16-14,33.83-25.14,48.5c-4.04,7.75-10.63,14.01-12.78,22.72
		c-4.9,6.49-7.51,14.24-11.04,21.5c-2.67,8.97-9.3,16.33-17.55,20.56c-5.7-0.14-14.19,0.59-17.07-5.64
		c-5.6-10.96-9.84-22.78-10.27-35.2c0.33-8.12-2.28-15.93-2.52-24c-1.1-21.36-3.69-43.36-13.07-62.85
		c-2.15-5.67-2.37-11.84-4.77-17.39c-5.41-12.44-13.08-23.81-21.73-34.2c-7.59-6.96-16.74-13.36-27.47-13.28
		c-11.6-2.05-21.67,4.62-30.36,11.25c-7.32,6-15.85,10.89-20.88,19.18c-1.17,1.91-0.15,4.2,0.41,6.16
		c8.07,20.61,12.56,42.4,15.68,64.27c3.43,15.82,4.31,32.03,4.84,48.18c0.25,9.02-1.64,18.07-0.03,27.06
		c1.08,5.51-1.82,10.73-2.39,16.12c-1.21,5.21-1.45,10.61-2.86,15.79c-1.48,4.94,0.36,10.34-1.74,15.16
		c-1.48,3.72-1.19,7.75-1.29,11.7c0.2,7.35-2.81,14.21-4.3,21.31c-2.81,8.91-4.43,18.12-5.65,27.37c-1.12,8.01-4.04,15.79-3.56,24
		c0.5,5.02-2.75,9.08-4.18,13.65c-3.27,8.24-4.6,17.03-6.07,25.73c-1.75,14.23-6.43,27.98-7.04,42.36
		c-0.73,16.7-5.03,33.27-3.25,50.07c-0.28,15.9,3.53,31.42,4.91,47.2c0.32,3.64-2.75,5.99-5.11,8.21
		c-4.76,3.82-7.36,9.5-10.63,14.51c-9.54,14.65-19.1,29.29-29.49,43.35c-9.53,14.5-23.48,25.25-35.72,37.32
		c-15.2,13.18-29.4,27.61-45.96,39.14c-6.98,6.86-16.31,10.76-23.02,17.94c-2.97,3.27-7.1,5.06-11.13,6.64
		c-10.98,3.05-18.53,12.24-27.81,18.23c-3.76,2.26-6.83,6.11-11.41,6.66c-8.53,1.69-14.85,8.62-22.92,11.38
		c-10.59,1.77-19.74,7.7-29.34,12.1c-9.61,3.71-17.59,10.43-25.49,16.83c-6.05,5.02-13.34,8.47-18.69,14.32
		c-4.83,4.59-8.62,10.07-12.52,15.43c-7.75,10.99-15.23,22.46-18.97,35.53c-3.04,7.02-1.65,14.86-2,22.31
		c2.66-1.11,5.5-2.09,7.73-4.01c5.75-4.67,6.04-12.87,8.93-19.25c3.46-11.06,11.57-19.66,17.52-29.34c2.19-3.54,5.59-5.97,9.07-8.11
		c7.17-5.42,15.27-9.69,21.39-16.41c4.16-4.79,10.68-6.13,16.19-8.74c13.43-5.17,26.6-11.06,39.29-17.86
		c19.96-11.42,40.24-22.45,58.81-36.07c6.03-6.3,14.61-9.14,20.73-15.31c6.82-6.24,14.15-11.9,21.33-17.71
		c7.52-6.31,13.32-15.5,23.34-18.11c2.02-0.7,3.09-2.68,4.34-4.27c2.97-4.24,6.56-8.05,10.66-11.22
		c10.94-7.99,18.23-19.76,28.5-28.52c14.62-18.04,24.55-39.52,40.26-56.74c3.89-3.87,9.69-4.71,13.87-8.1
		c5.41-6.57,9.02-14.64,10.63-22.97c-6-31.99-8.91-64.99-3.85-97.32c1.38-10.21,2.88-20.41,4.42-30.59
		c0.91-6.99-1.66-14.29,0.9-21.05c5.31-14.19,9.36-28.86,12.3-43.72c1.49-7.78,5.72-14.83,6.15-22.84
		c0.77-5.76,1.05-11.59,2.97-17.1c2.45-7.29,2.34-15.13,2.03-22.72c0.25-5.94,2.66-11.51,4-17.23c5.28-21.31,5.58-43.43,5.07-65.26
		c-0.55-17.84-4.18-35.35-5.19-53.13c-1.05-13.53-6.56-26.09-8.47-39.45c-1.51-7.47-7.9-15.4-4.46-23.21
		c4.83-5.9,11.93-10.42,19.68-10.97c7.43,0.16,14.82,3.09,20.28,8.16c9.17,7.34,14.26,18.26,19.07,28.68
		c6.71,17.16,12.46,34.75,16.19,52.82c1.83,9.2,0.65,18.69,2.29,27.94c2.09,11.75,0.71,23.87,4.39,35.38
		c1.33,10.7,6.23,20.34,10.31,30.16c9.25,11.64,26.88,13.98,39.57,6.63c9.9-6.43,18.96-14.51,25.09-24.71
		c4.85-8.79,9.61-17.65,13.34-26.99c5.84-10.47,10.53-21.59,17.23-31.57c16.79-27.38,26.36-58.25,38.26-87.88
		c2.95-6.92,9.82-11.75,10.7-19.63c2.03-9.82,7.78-18.14,11.38-27.36c3.77-10.55,9.65-20.19,13.09-30.87
		c10.53-21.84,22.99-42.83,31.21-65.73c3.43-9.83,8.05-19.25,14-27.81c5.35-9.39,11.66-19.01,21.52-24.11
		c8.35,5.87,11.33,16.38,12.78,25.98c1.74,10.21-0.95,20.44-2.73,30.48c-2,15.54-10.36,29.09-15.79,43.53
		c-2.43,5.28-2.75,11.28-5.51,16.42c-2.44,3.94-4.81,7.93-7.25,11.86c-2.43,8.25-7.45,15.36-10.49,23.36
		c-4.79,12.51-7.87,25.73-14.26,37.59c-5.38,12.58-8.71,25.93-14.24,38.46c-2.54,11.02-9.59,20.36-11.82,31.49
		c-3.41,16.4-13.62,31.64-11.33,48.9c3.09,8.04,14.07,10.96,21.58,7.43c15.42-5.35,24.11-20.19,33.88-32.14
		c6.3-9.98,13.63-19.47,18.03-30.52c2.59-5.27,6.6-9.69,9.98-14.47c7.93-10.25,14.41-21.48,21.82-32.1
		c5.95-10.28,15.48-18.27,19.5-29.69c2.77-7.59,8.42-13.49,12.6-20.25c9.7-16.34,22.38-30.61,32.23-46.83
		c4.63-6.67,9.31-13.31,13.99-19.95c6.24-9.6,14.48-17.66,21.08-27c7.43-6.83,14.3-15.21,24.09-18.75
		c5.94,0.47,14.05-1.26,18.22,4.19c2.07,3.13,4.46,6.52,4.45,10.44c-0.87,16.05-7.55,30.87-13.66,45.49
		c-4.98,10.91-8.99,22.57-16.83,31.85c-4.63,6-6.29,13.57-9.77,20.2c-4.33,9.14-10.08,17.51-14.38,26.67
		c-16.5,29.64-35.35,57.94-51.23,87.93c-13.58,20.58-29.03,40.19-39.27,62.77c-4.37,8.37-7.34,19.69-1.61,28.08
		c4.32,7.52,14.21,7.09,21.71,6.95c7.93,0.07,16.21-2.38,21.72-8.36c3.8-4.35,9.12-6.85,13.52-10.48
		c12.17-13.82,25.56-26.54,39.85-38.16c17.14-13.69,33.24-28.76,47.71-45.23c8.57-6.87,16.4-14.59,25.879-20.28
		c8.07-7.99,18.2-13.57,25.57-22.32c6.29-8.1,17.11-9.8,24.63-16.38c5.53-5.32,13.21-6.22,20.11-8.77
		c5.64-2.18,10.71,3.58,13.52,7.84c1.64,2.93,5.29,6.03,4.18,9.83c-6.17,15.56-11.76,31.97-23.53,44.38
		c-17.76,16.61-34.71,34.15-53.83,49.22c-4.08,3.93-7.6,8.42-12.16,11.81c-14.33,11.97-28.17,24.52-42.29,36.73
		c-3.48,3.6-7.47,6.64-11.64,9.38c-6.15,4.11-10.38,10.28-15.34,15.62c-4.52,5.24-11.2,8.04-15.43,13.57
		c-3.42,4.42-9.14,5.98-13.02,9.81c-2.81,4.35-5.14,9.02-7.34,13.71c-4.31,9.71-0.77,20.2-2.25,30.32
		c6.48,4.45,13.56,8.18,21.29,9.92c8.98,3.28,18.91,0.63,26.89-4.07c9.11-4.76,18.79-8.34,28.54-11.57c7-2.56,13.07-7.06,19.9-10.05
		c9.16-4.28,16.52-12.19,26.65-14.39c9.66-1.55,18.27-6.37,26.63-11.19c11.08-5.04,22.53-9.37,34.53-11.73
		c6-1.54,12.36-2.15,18.49-0.69c4.72,2.96,4.6,9.33,3.64,14.17c-3.05,5.96-7.64,11.04-10.37,17.19c-1.45,2.44-1.99,5.7-4.58,7.24
		c-5.93,2.92-9.9,8.32-14.38,12.93c-5.93,7.35-14.67,11.41-22.31,16.6c-10.52,7.1-22.6,11.27-33.53,17.61
		c-18.72,12.85-40.22,20.69-59.48,32.59c-12.18,8.35-26.04,14.02-37.57,23.34c-6.38,5.32-14.56,7.72-20.92,13.04
		c-9.35,7.23-20.33,12-29.65,19.26c-4.04,2.96-7.79,6.29-11.84,9.22c-9.65,7.27-21.07,11.9-30.19,19.89
		c-4.54,4.45-11.19,5.74-15.52,10.45c-9.79,9.95-21.24,18.06-30.98,28.04c-8.81,7.94-18.43,14.9-27.84,22.1
		c-10.85,8.39-19.99,18.87-31.63,26.24c-2.81,1.87-5.74,3.59-8.13,6.01c-7.35,7.53-16.26,13.22-24.66,19.47
		c-7.33,6.14-17.05,8.11-25.32,12.58c-10.77,5.3-21.33,10.98-31.08,18c-16.04,7.6-29.05,20.02-42.01,31.88
		c-10.12,7.54-17.33,18.06-25.22,27.74c-3.6,5.96-7.48,11.75-11.98,17.09c-6.03,6.67-8.7,15.56-14.56,22.34
		c-1.63,2.17-3.5,4.31-4.54,6.85c0.06,1.48,1.22,2.71,1.8,4.11c-5.04,4.51-10.53,8.97-12.84,15.58
		c-5.74,12.07-12.21,23.79-18.16,35.75c-3.69,10.01-7.82,19.84-12.67,29.36c-5.19,10.39-8.23,21.79-14.41,31.7
		c-4.15,6.45-6.79,13.68-10.28,20.48c-5.13,9.98-7.5,21.17-13.28,30.85c-9.98,17.71-16.02,37.17-24.67,55.47
		c-5.17,5.81-7.71,13.24-11.92,19.68c-2.91,7.58-5.78,15.73-11.87,21.44c-7.27,7.48-11.46,17.96-20.58,23.51
		c-4.9,3.66-8.95,8.5-14.62,11.08c-16.93,7.97-30.42,21.43-47.06,29.88c-4.25,1.94-9.07,2.64-12.92,5.4
		c-3.18,2.27-6.04,5.07-9.69,6.6c-16.19,5.47-32.72,9.95-48.65,16.17c-9.94,3.54-18.81,9.88-29.47,11.29
		c-14.69,1.74-29.65,6.71-44.4,2.99c-7.41-3.03-14.94-5.89-23.07-5.83c-5.44-9.97-11.2-19.79-18.03-28.86
		c-5.12-6.12-8.16-13.39-11.78-20.35c-6.86-9.67-9.51-21.52-15.41-31.7c-4.08-6.01-8.24-12.07-10.87-18.87
		c-4.94-11.97-10.57-23.98-11.46-37.09c-3.99-12.19-7.27-24.72-7.41-37.63c-2.85-18.57,0.63-37.28,2.68-55.74
		c1.93-16.24,5.91-32.17,6.78-48.53c0.65-16.02,7.51-30.72,10.76-46.21c3.05-21.54,12.12-41.54,16.6-62.76
		c2.82-11.87,3.66-24.07,6.05-36.01c2.81-11.02,2.92-22.51,6.14-33.42c2.27-14.51,9.49-27.6,12.04-42.05
		c1.17-12.97,6.55-25.04,7.35-38.06c6.03-28.62,10.92-57.76,21.86-85.04c2.17-6.7,3.72-13.63,6.53-20.1
		c3.18-6.43,3.36-13.74,5.84-20.39c3.71-11.36,8.12-22.58,10.14-34.4c0.77-3.76,2.25-7.31,3.59-10.89
		c5.47-13.39,8.63-27.57,14.12-40.95c3.91-8.79,5.97-18.18,8.63-27.37c2.28-8.02,6.57-15.32,8.38-23.48
		c0.9-5.14,2.96-9.92,5.42-14.46c5.22-10.09,5.67-21.72,9.99-32.14c5.02-16.04,12.61-31.21,16.71-47.53
		c4.25-11.69,7.2-23.8,11.43-35.49c4.24-11.88,7.25-24.14,10.62-36.27c1.1-6.12,5.8-10.53,7.62-16.35
		c7.07-21.89,16.11-43.05,23.2-64.93c4.51-9.04,6.2-19.11,10.44-28.25c5.22-12.64,8.53-25.95,13.57-38.65
		c5.41-14.44,13.2-27.82,18.93-42.12c3.47-8.59,8.62-16.36,12.38-24.81c4.48-9.03,9.58-17.94,16.37-25.46
		c4.6-5.51,6.73-12.81,12.54-17.38c9.58-7.8,18.01-17.17,29.12-22.9c21.73-11.17,43.59-22.09,65.81-32.22
		c13.96-4.74,27.66-10.19,41.24-15.94c7.06-3.1,13.39-7.83,20.89-9.96c11.73-3.34,23.09-7.8,34.19-12.85
		c10.9-5.17,22.66-8.11,33.99-12.19c31.74-13,65.43-24.71,90.33-49.39c6.59-8.36,12.96-17.08,17.24-26.88
		c41.43,36.72,94.12,62.18,149.79,65.96c34.47,1.89,69.75-1.54,102.14-14.09c32.74-11.66,61.93-31.3,88.22-53.75
		c4.3,10.14,10.76,19.18,17.62,27.76c15.73,14.79,34.39,26.27,54.3,34.57c16.72,6.72,33.05,14.49,50.38,19.6
		c16.93,5.03,32.32,14.15,49.4,18.81c10.73,2.37,19.38,9.4,29.52,13.21c11.96,4.93,23.99,9.75,36.27,13.85
		c20.73,9.2,40.92,19.59,61.23,29.68c8.59,4.35,16.86,9.52,23.7,16.38c6.29,6.04,14.13,10.77,18.16,18.8
		c2.32,4.78,5.81,8.79,9.26,12.78c9.29,13.04,15.79,27.77,23.1,41.96c6.41,16.19,15.25,31.31,21.27,47.67
		c5.05,13.37,8.55,27.34,14.41,40.43c2.62,5.86,3.7,12.26,6.17,18.2c6.36,14.18,9.93,29.42,16.12,43.69
		c4.28,10.07,6.82,20.79,11.12,30.87c1.34,3.66,4.71,6.19,5.79,9.96c5.6,24.62,14.13,48.41,21.71,72.45
		c6.64,24.03,18.1,46.53,23.56,70.95c1.17,5.16,3.23,10.08,5.76,14.73c3.5,6.58,4.3,14.1,7.02,21c3.66,9.47,7.31,19,9.5,28.95
		c3.11,10.43,7.93,20.28,10.79,30.82c3.61,14.01,10.72,26.97,13.19,41.3c2.86,13.97,9.11,26.93,12.01,40.89
		c4.96,15.06,9.97,30.1,15.41,45.01c3.71,15.13,8.44,30.07,10.7,45.54c2.5,10.7,4.88,21.43,5.93,32.4
		c1.39,5.45,3.16,10.81,4.01,16.42c1.49,13,5.56,25.53,10.29,37.69c2.59,7.31,3.62,15.04,5.31,22.6c1.31,13.99,5.21,27.6,6.76,41.56
		c1.08,11.6,5.34,22.88,4.86,34.62c6.52,0.06,13.09,0.06,19.7,0c-2.7-21.18-6.13-42.24-10.19-63.19
		c-1.92-14.14-5.83-27.92-10.42-41.39c-5.1-17.6-9.27-35.47-12.33-53.53c-2.26-20.69-8.1-40.82-13.39-60.88
		c-3.33-10.36-6.56-20.79-11.21-30.63c-7.01-15.43-8.46-32.6-14.27-48.44c-1.75-9.28-5.28-18.02-8.34-26.9
		c-3.36-8.97-3.75-18.85-8.43-27.31c-2.55-5.47-3.71-11.44-6.46-16.81c-5.58-11.12-7.36-23.6-10.83-35.41
		c-3.09-7.83-6.25-15.62-9.68-23.29c-2.92-5.48-1.7-12.1-4.54-17.61c-5.46-12.22-7.55-25.6-12.72-37.9
		c-7.75-25.39-17.05-50.28-24.23-75.85c-4.56-12.73-9.62-25.38-11.36-38.89c-5.88-14.96-14.77-28.88-18.24-44.73
		c-4.4-15.3-10.37-30.07-14.39-45.48c-3.04-8.88-7.62-17.14-10.59-26.04c-3.97-10.66-5.95-22.02-11.17-32.19
		c-6.12-11.71-10.55-24.17-15.53-36.37c-4.69-11.48-11.18-22.03-16.66-33.1c-5.4-12.2-13.76-22.73-19.77-34.58
		c-3.11-6.08-9.87-8.7-14.42-13.43c-4.55-4.78-9.22-9.52-14.38-13.61c-10.49-7.11-20.38-15.49-32.54-19.68
		c-7.44-3.7-15.88-5.23-22.61-10.26c-6.83-5.07-15.08-7.5-22.46-11.56c-9.34-5.25-19.95-7.41-29.86-11.22
		c-12.44-4.22-23.88-10.75-35.8-16.15c-8.09-3.75-16.81-5.57-25.03-8.88c-10.41-2.93-19.32-9.41-29.65-12.45
		c-15.03-4.33-29.72-9.63-43.98-16.02c-23.78-9.68-48.76-21.23-64.57-42.37c-5.47-5.95-5.5-16.97-14.73-18.82
		c41.87-39.71,72.88-89.84,94.39-143.14c30.7-76.17,42.76-159.31,38.55-241.15c-2.85-65.25-15.99-130.35-41.47-190.6
		c-27.28-65.39-70.32-125.14-127.91-167.05c-32.29-22.98-69.74-39.09-109.03-44.94C1888.99-576.1,1846.35-572.57,1807.78-557.23
		 M-103.11-556.21c-41.26,13.65-78.44,38.39-108.68,69.42C-243.24-456.06-268.5-419.32-288-380c-37.82,77.01-55.17,163.41-54.07,249
		c0.42,78.48,15.16,157.51,47.92,229.08c24.77,54.42,60.6,104.3,107.07,142.25c-5.24,8.08-10.89,16.11-18.88,21.74
		c-10.79,9.73-24.29,15.45-36.69,22.75c-26.29,10.14-53.32,18.14-80.17,26.62c-19.03,9.1-40.51,11.66-59.27,21.36
		c-13.15,6.4-27.25,10.5-41.32,14.34c-9.86,1.66-17.87,8.18-27.33,11.05c-7.7,2.1-14.17,6.89-21.2,10.43
		c-2.78,1.11-5.77,1.55-8.48,2.85c-10.42,4.86-21.71,7.99-31.21,14.68c-9.39,4.7-16.99,11.9-24.69,18.86
		c-5.94,5.93-14.5,9.63-18.24,17.53c-4.46,8.5-11.48,15.27-16.49,23.42c-3.6,5.2-5.05,11.52-8.49,16.83
		c-8.94,13.87-16.19,28.72-22.66,43.87c-6.22,14.49-15.15,27.84-19.35,43.17c-6.68,18.57-16.97,35.74-21.88,54.98
		c-4.99,10.87-10.51,21.7-12.72,33.59c-0.96,6.22-4.29,11.65-6.98,17.24c-5.02,11.26-13.73,21.11-14.8,33.84
		c-2.44,9.63-5.71,19.14-10.68,27.79c-3.63,6.25-3.66,13.73-6.72,20.21c-2.3,6.11-5.64,11.93-6.78,18.43
		c-0.94,8.67-6.28,15.8-9.17,23.81c-4.97,11.79-8.45,24.12-12.36,36.29c-1.62,3.95-4.88,7.02-5.75,11.38
		c-1.91,7.05-6.11,13.35-7.12,20.67c-0.47,6.45-4.93,11.58-6.26,17.81c-1.71,7.9-8.28,13.65-9.64,21.7
		c-2.72,10.07-5.01,20.52-10.31,29.64c-3.35,5.87-4.24,12.74-7.59,18.62c-1.35,2.62-3.34,4.96-4.07,7.87
		c-2.82,12.81-8.25,24.83-13.14,36.94c-1.81,3.73-1.55,8.02-3.13,11.83c-4.28,9.99-6.56,20.67-10.22,30.9
		c-1.38,6.1-3.01,12.27-6.17,17.73c-6.44,10.95-10.27,23.16-14.34,35.12c-0.84,9.35-7.42,16.78-8.29,26.1
		c-1.47,7.76-3.27,15.49-5.77,23.02c-4.77,19.06-5.61,39.41-14.67,57.19c-4.72,16.55-11.22,32.7-13.79,49.8
		c-1.04,9.26-5.86,17.52-7.22,26.72c-3.27,14.54-3.54,29.75-9.08,43.74c-3.15,6.65-0.72,14.03,0.1,21c0.57,8.09,2.8,15.92,4.3,23.87
		c2.36,9.44,3.06,19.2,5.67,28.6c1.53,5.71,4.72,10.81,6.51,16.45c3.02,8.14,3.45,17.04,6.98,25.02
		c5.12,11.33,9.53,23.03,15.87,33.76c3.58,7.89,6.45,16.32,12.3,22.93c6.04,10.37,13.85,19.52,20.77,29.3
		c5.98,8.56,14.07,15.26,21.01,23c11.4,12.17,28.24,17.92,44.67,18.16c10.67-0.38,23.61,3.26,32.02-5.31c2.5,0.48,5,1.42,7.58,1.27
		c11.21-3.93,21.05-10.76,30.67-17.58c5.6-4.04,12.42-5.92,17.91-10.11c6.25-4.64,12.59-9.25,19.69-12.48
		c15.05-7.49,27.72-18.62,40.44-29.4c12.1-12.24,24.04-24.66,37.01-35.98c5.66-5.72,10.64-12.03,15.82-18.15
		c6.77-8.84,15.33-16.09,22.05-24.97c9.45-10.78,15.87-23.68,22.74-36.14c3.49-9.62,11.02-17.01,14.99-26.38
		c1.36-2.8,2.94-5.47,4.64-8.06c3.72-5.69,4.94-12.65,9.13-18.06c6.13-7.7,9.13-17.24,14.25-25.55c2.8-6.68,8.25-11.97,10.24-18.99
		c3.9-10.97,8.35-21.78,14.11-31.91c9.08-12.64,13.17-28.01,22.11-40.74c5.39-6.64,6.39-15.38,9-23.21
		c1.75-5.58,5.77-10.19,6.97-15.96c0.63-4.38,2.39-8.44,4.45-12.29c7.29-13.02,13.05-26.87,17.78-40.99
		c1.27-6.91,5.57-12.6,8.76-18.69c6.36-11.39,13.08-22.59,18.59-34.42c3.12-5.96,7.43-11.25,10.21-17.39
		c2.71-6.89,6.51-13.29,10.84-19.26c6.18-10.47,12.4-20.94,19.02-31.13c7.85-8.84,15.98-17.48,22.99-27.04
		c12.6-13.7,19.78-32.94,37.03-41.92c6.41-3.77,12.3-8.31,18.35-12.62c3.84-2.6,8.75-2.3,13.14-3.18
		c8.47-1.14,17.16-1.49,25.56,0.39c4.57,0.61,9.52,2,12.55,5.76c0.91,7.9-1.8,15.86-1.3,23.83c-6.64,2.7-14.19,3.69-20.02,8.09
		c-9.62,9.88-15.14,22.71-22.69,34.1c-3.68,7.48-10.06,13.58-12.46,21.64c1.14,10,4.85,19.64,9.1,28.76
		c2.16,4.95,6.1,9.13,7.22,14.53c0.25,5.14-1.07,10.28-1.48,15.4c5.18,6.48,10.93,12.59,17.55,17.64c4.9,3.99,11.48,4.58,17.56,5
		c9.12-1.36,17.16-6.63,26.27-8.17c2.85,12.12,2.87,24.74,1.6,37.09c-1.21,8.89,1.44,18.44,7.77,24.92
		c4.55,6.74,12.19,9.8,18.88,13.87c-0.19,5.73,0.69,11.51-0.18,17.22c-0.53,3.06,1.28,5.8,2.16,8.62
		c2.16,7.21,3.74,14.66,6.87,21.55c3.48,7.76,11.67,11.02,17.99,15.99c7.78,6.46,18.15,7.59,27.87,8.27
		c24.68,4.28,50.25-0.85,74.54,6.37c14.44,7.01,30.87,7,46.5,8.73c9.6-0.77,19.29-0.61,28.7-3.22c14.95-3.8,30.89-6.43,46.12-2.6
		c12.88,6.49,22.08,18.03,34.32,25.43c9.68,6.83,18.53,14.77,26.64,23.38c7.97,6.03,15.57,12.56,23.86,18.17
		c3.97,2.52,6.25,6.99,10.31,9.39c10.28,4.06,18.26,11.87,27.05,18.29c12.57,9.62,22.69,21.94,34.85,32.02
		c7.78,5.07,14.31,11.81,19.79,19.29c5.04,7.22,12.45,12.29,17.88,19.19c6.93,8.45,16.63,13.92,24.03,21.91
		c7.88,8.7,19.25,13.15,27.17,21.82c12.41,12.92,28.37,21.52,42.12,32.81c10.67,6.05,19.51,14.65,29.75,21.35
		c13.65,9.21,25.91,20.53,40.48,28.36c12.33,5.61,24.33,12.62,37.86,14.94c14.58,3.86,29.77,4.18,44.74,5.18
		c8.63,0.06,17.31,1.85,25.91,0.42c13.42-2.72,27.32,0.13,40.61-3.58c10.69-2.54,21.73-2.13,32.61-3.12
		c11.02-0.95,20.34-7.93,31.21-9.44c5.73-0.54,12.11-0.72,16.6-4.87c7.19-6.11,17.98-6.4,24.17-13.83
		c8.79-8.11,11.42-20.29,18.01-29.92c3.03-6.77,4.67-14.08,6.31-21.27c2.43-11.08,1.48-22.56,3.64-33.67
		c2.4-15.82-1.63-31.47-1.96-47.25c-0.14-16.75-1.17-33.62-5.17-49.92c-1.98-8.11-1.28-16.54-3.22-24.63
		c-7.38-30.92-10.36-62.67-17.4-93.66c-7.61-24.99-14.96-50.13-19.08-75.98c-2.25-20.69-8.09-40.82-13.39-60.88
		c-3.27-10.11-6.37-20.32-10.91-29.94c-6.37-13.5-8.09-28.5-12.45-42.64c-1.89-4.98-3.1-10.18-4.2-15.37
		c-3.83-11.57-8.51-22.9-10.79-34.93c-0.82-5.56-4.36-10.2-5.93-15.51c-1.6-5.97-4.4-11.47-6.84-17.09
		c-3.66-9.5-5.46-19.58-8.19-29.34c-3.43-9.37-7.67-18.44-11.35-27.69c-0.7-6.61-2.18-13.08-5.22-19.02
		c-11.34-37.04-24.5-73.51-35.53-110.67c-4.47-11.99-8.93-24.08-10.66-36.84c-6-15.18-14.98-29.34-18.45-45.46
		c-3.49-12.98-8.93-25.31-12.28-38.31c-2.68-11.38-8.8-21.47-12.49-32.48c-3.9-10.41-5.81-21.52-10.84-31.49
		c-6.1-11.71-10.63-24.11-15.54-36.33c-5.44-13.47-13.36-25.71-19.4-38.89c-5.31-10.12-12.15-19.35-17.35-29.53
		c-2.99-5.87-9.41-8.51-13.92-12.94c-15.77-17.11-35.83-30.18-57.7-38c-7.94-1.85-13.69-7.97-21.01-11.09
		c-10.6-4.38-20.31-10.82-31.54-13.63c-14.73-4.35-28.7-10.7-42.35-17.65c-14.7-7.56-31.45-10.07-46-18
		c-12.79-6.8-27.29-9.12-40.59-14.62c-27.27-11.43-56.51-21.43-77.28-43.54c-3.57-4.66-8.33-9.08-9.97-14.83
		c13.82-14.05,28.83-27.28,41.33-42.7c57.65-68.63,89.66-155.78,102.24-243.74c10.55-80.09,6.13-162.46-14.91-240.55
		c-17.82-64.25-47.5-125.91-91.42-176.46c-25.63-28.75-54.96-54.86-89.33-72.71c-32.92-17.22-69.7-27.89-107.01-28.01
		C-48.72-568.46-76.82-565.39-103.11-556.21 M907.13-168.01c-0.6,21.65,0.14,43.33-0.14,64.99c-20.68,0.26-41.35-0.39-61.99,0.14
		c-3.67-0.54-8.06,0.81-9.44,4.49c-2.28,4.72,1.05,11.22,6.43,11.26c21.65,0.59,43.32-0.15,64.99,0.14
		c0.25,20.66-0.4,41.33,0.14,61.99c-0.57,3.61,0.82,8.07,4.49,9.44c4.7,2.25,11.23-1.05,11.26-6.43
		c0.59-21.66-0.16-43.33,0.14-64.99c20.66-0.26,41.33,0.39,61.99-0.14c3.58,0.52,8.08-0.8,9.44-4.49
		c2.23-4.73-1.05-11.22-6.43-11.26c-21.67-0.6-43.34,0.15-64.99-0.14c-0.27-20.67,0.38-41.34-0.14-61.99
		c0.48-3.63-0.79-8.07-4.49-9.44C913.64-176.7,907.17-173.39,907.13-168.01 M1884.45-557.5c31.58-2.07,63.16,5.02,92.38,16.68
		c42.02,16.98,78.89,45.39,108.34,79.64c59.33,70.58,92.57,160.34,103.95,251.14c11.63,85.65,1.83,173.88-26.85,255.34
		c-19.52,54.62-48.32,106.39-88.05,148.92c-25.63,27.4-56.73,49.76-91.04,64.96c-38.38,16.67-81.58,24.31-123.04,16.59
		c-66.72-11.95-125.86-53-166.55-106.38c-44.73-57.51-72.78-126.71-87.18-197.78c-10.18-52.74-14.3-106.91-9.14-160.47
		c7.05-76.04,28.77-151.29,67.53-217.36c22.89-37.66,50.75-73.19,86.36-99.64C1789.5-535.14,1836.03-554.59,1884.45-557.5
		 M-37.55-552.5c26.6-1.77,53.34,3.06,78.48,11.57c33.55,11.2,64.36,29.82,90.89,53.1c28.42,24.4,50.97,54.78,70.38,86.61
		c35.6,60.6,56.88,129.06,65.25,198.68c9.27,70.58,3.93,142.83-14.42,211.56c-20.4,76.57-57.75,150.31-115.82,205.19
		C97.5,250.36,47.42,276.74-6.45,282.46c-35.89,4.71-72.34-2.88-105.51-16.53c-39.44-16.29-74.15-42.8-102.53-74.47
		c-44.44-51.09-74.64-113.36-92.49-178.39c-22.53-84.05-26.6-173.38-8.63-258.68c16.29-80.23,50.09-158.44,105.5-219.51
		C-165.78-513.71-103.95-548.46-37.55-552.5 M91.25,268.26c11.52-6.43,22.3-14.08,33.36-21.25c5.57,8.07,10.83,16.67,18.79,22.67
		c23.54,20.64,53.61,30.86,82.04,42.73c11.73,4.4,24.02,7.33,35.38,12.72c10.59,4.77,21.39,9.17,32.59,12.34
		c10.84,2.97,19.7,10.4,30.4,13.79c14.71,6.7,30.61,10.47,44.9,18.1c12.35,5.34,24.22,11.7,36.29,17.64
		c7.86,4.03,16.03,7.54,23.42,12.44c8.25,4.89,14.54,12.31,22.07,18.17c7.48,5.26,9.77,14.57,15.97,20.93
		c7.58,8.99,12.77,19.64,17.86,30.17c7.69,12.91,12.46,27.24,19.41,40.53c7.01,14.14,12.34,29.02,16.95,44.11
		c3.28,10.48,8.42,20.29,11.08,30.98c2.62,7.59,6.36,14.74,8.5,22.52c4.6,15.47,11.7,30.05,16.37,45.5
		c1.92,6.72,4.67,13.21,8.54,19.05c4.72,12.95,7.05,26.66,11.82,39.63c4.54,12.4,7.69,25.26,12.18,37.68
		c4.1,16.32,11.67,31.49,16.71,47.53c4.44,10.86,4.88,23.01,10.62,33.39c4.47,7.47,4.73,16.49,8.52,24.26
		c4.55,9.64,6.48,20.17,9.71,30.27c7.76,19.19,13.06,39.22,20.56,58.51c2.61,14.79,8.35,28.74,12.56,43.1
		c1.04,9.24,5.94,17.3,8.15,26.23c2.54,10.41,7.64,19.95,10.11,30.39c3.23,13.39,7.41,26.58,9.45,40.23
		c2.51,11.76,5.37,23.45,6.64,35.44c4.73,14.41,5.12,29.83,10.71,44.03c6.15,15.63,9.11,32.33,11.35,48.91
		c2.89,12.13,4.09,24.56,6.21,36.83c2.02,11.42,5.79,22.48,6.99,34.07c3.46,20.92,4.6,42.13,7.6,63.12
		c0.87,6.41-0.1,12.91,0.86,19.32c2.62,11.11-0.31,22.46,1.74,33.66c-0.39,13.01,2.21,27.17-3.51,39.41
		c-2.97,7.1-0.09,16.66-6.39,22.25c-6.01,5-10.44,11.65-16.9,16.17c-4.28,3.04-8.09,7.14-13.32,8.49
		c-9.08,2.25-18.04,4.97-26.68,8.54c-11.38,4.66-23.68,6.36-35.84,7.41c-6.14,0.04-11.75,2.87-17.82,3.2
		c-33.69,2.22-68.02,2.81-100.99-5.43c-9.32-2.45-19.05-4.08-27.55-8.81c-6.29-4.53-13.13-8.17-19.54-12.48
		c-23.22-20.01-49.29-36.3-73.07-55.61c-9.91-5.77-19.75-12.26-26.88-21.39c-5.55-5.11-12.41-8.76-17.1-14.83
		c-8.34-9.12-19.43-15.11-28.08-23.89c-5.43-4.92-9.99-10.69-15.64-15.35c-9.03-7.61-14.41-18.83-24.25-25.53
		c-8.89-5-13.87-14.36-21.75-20.54c-14.83-13.85-33.27-23.05-48.24-36.74c-9.11-8.35-20.32-14.11-28.58-23.42
		c-6.95-6.46-13.87-13.02-21.8-18.27c-9.67-8.75-20.05-17.27-32.44-21.8c-5.73-2.4-10.54-6.49-15.95-9.38
		c-6.41-0.83-13.11,0.08-19.19-2.5c-3.32,2.33-6.95,4.42-11.17,4.49c-12.15,2.67-24.59,2.92-36.94,3.64
		c-8.7,0.97-17.4-0.49-26.08-0.83c-8.06-0.59-14.78-5.86-22.61-7.41c-22.38-4.52-45.34-4.87-68.03-3.02
		c-12.62-0.24-26.39-3.73-34.71-13.93c-4.93-5.74-3.92-13.83-6.54-20.55c-1.11-4.02-4.17-8.4-1.71-12.51
		c2.72-2.31,6.44-1.66,9.75-1.49c14.59,1.1,29.24,1.49,43.83,2.73c4.85-0.79,6.51-7.23,5.95-11.35c-4.68-4.81-12.03-5.27-18.06-7.29
		c-16.48-5.03-33.9-4.66-50.48-9.23c-6.35-0.87-12.96-3.89-16.3-9.57c-0.86-4.89-0.42-9.8-1.13-14.67
		c-0.61-6.95-3.17-14.67,0.93-21.06c6.99,0.6,14.06-2.1,20.92,0.22c3.02,0.67,6.05,1.7,9.2,1.3c7.94-0.76,15.91,0.72,23.28,3.71
		c2.94,0.98,7.52,2.41,9.02-1.44c5.02-6.59,3.35-14.71,1.93-22.13c-6.51,1.54-13.19,3.53-19.92,2.06
		c-7.56-1.59-15.24-1.49-22.88-1.88c-11.73-1.97-24.16-4.29-33.54-12.14c-5.95-4.35-6.36-12.47-7.3-19.21
		c-0.07-10.66-1.09-22.3,4.46-31.88c1.73-3.44,3.34-6.94,5.07-10.38c15.37,3.63,31.19,3.03,46.78,4.95
		c4.38,0.64,8.37,3.11,12.81,3.4c4.24-1.17,9.98-2.82,10.9-7.81c-0.89-4.35,1.03-11.48-4.24-13.53c-9.74-3.36-20.32-1.87-30.31-3.85
		c-8.54-2.14-17.36-0.64-25.98-2c-5.13-1.09-7.55-6.57-9.23-10.93c-1.34-0.32-4.01-0.96-5.35-1.28c-2.43-8.12-5.11-16.14-8.05-24.07
		c-2.99-7.93,1.44-15.7,2.59-23.51c15.52-0.88,29.36-9.71,44.98-9.57c9.73,0.33,19.14-4.54,28.87-2.08c6.58,1.09,13-1.56,19.57-1.26
		c9.59,0.78,19.09-2.38,28.68-0.86c15.54,2.11,32.66,2.14,45.9,11.69c6.71,3.9,12.42,9.48,19.78,12.26
		c12.4,4.58,20.04,16.29,31.5,22.51c8.85,4.6,15.34,12.41,20.31,20.9c5.58,7.55,13.84,12.77,18.88,20.8
		c4.55,6.61,12.13,10.01,18.33,14.78c5.72,5.24,11.41,10.62,16.41,16.59c6.42,7.6,14.82,13.13,21.98,19.97
		c4.48,4.84,8.3,10.3,13.09,14.88c7.49,6.5,13.57,14.5,21.5,20.56c12.27,11.04,24.02,22.7,34.52,35.46
		c12.5,10.6,25.73,20.31,38.63,30.41c10.46,9.32,20.9,19.1,33.62,25.3c10.99,5.65,20.37,14.03,31.48,19.47
		c13.61,5.16,26.36,12.44,40.29,16.81c11.69,4.02,23.68,7.92,34.04,14.89c7.83,4.28,16.96,5.23,25.12,8.79
		c13.03,5.66,26.48,10.31,40.2,14.02c12.16,3.77,23.58,10.15,36.29,11.99c18.01,4.43,35.74,9.97,53.93,13.7
		c6.89,1.43,14.06,2.98,19.91,7.18c2.99,2.24,6.82,2.54,10.3,3.62c16.63,4.67,32.34,12.01,47.92,19.38
		c12.31,7.57,24.25,15.94,34.24,26.5c5.76,8.6,19.5,2.06,20.31-7.09c0.48-4.26-1.56-8.73-5.11-11.14
		c-8.35-5.95-16.82-11.7-24.51-18.48c-5.46-5.37-13.06-7.37-19.2-11.72c-8.89-5.71-18.76-9.81-29.06-12.14
		c-12.43-3.55-24.75-7.53-36.86-12.05c-5.53-1.95-9.9-6.56-15.74-7.53c-11.61-0.26-22.94-3.18-34.25-5.48
		c-7.87-2.08-16.29-2.48-23.64-6.23c-10.31-4.79-20.97-9.03-32.2-11.06c-12.83-3.38-24.52-10.22-37.56-12.89
		c-10.15-1.36-18.53-7.66-27.56-11.93c-10.45-6.34-22.1-10.31-33.92-13.18c-12.66-4.33-23.64-12.27-36.17-16.88
		c-4.28-2.14-7.39-6.06-11.86-7.9c-11.05-4.95-21.55-11.2-30.37-19.54c-7.89-5.19-13.14-14.05-22.57-16.82
		c-7.73-3.39-13.14-9.92-19.28-15.39c-3.76-3.8-8.92-5.58-12.86-9.09c-10.08-8.31-15.47-21.2-26.54-28.41
		c-9.68-5.72-16.74-14.67-24.67-22.44c-8.38-11.12-17.49-22.11-29.41-29.62c-12.27-8.61-21.45-20.76-33.86-29.16
		c-5.77-3.92-8.69-10.59-13.39-15.55c-7.99-6.81-15.14-14.72-20.28-23.9c-2.47-3.36-6.89-4.29-9.97-6.93
		c-11.13-10.69-22.95-20.91-36.54-28.38c-10.56-5.78-18.9-15.08-30.15-19.7c-4.33-1.4-8.69-2.59-12.89-4.31
		c5.66-10.78,16.1-19.23,18.03-31.74c0.9-4.78,3.48-8.95,4.96-13.51c1.04-6.71-0.87-13.54-0.23-20.24
		c2.37-6.78,7.48-12.25,10.14-18.9c2.42-7.71,5.74-15.26,6.42-23.4c-0.24-7.08-1.87-14.01-2.28-21.03
		c-0.16-3.08,2.54-5.36,4.74-7.02c7.7-7.33,18.11-10.46,27.94-13.85c12.1-3.67,23.72-10.58,31.13-21.03
		c6.11-8.82,11.18-18.32,15.23-28.26c2.94-5.96,2.65-12.92,5.71-18.84c-1.62-1.03-3.22-2.08-4.82-3.11
		c0.62-1.83,1.24-3.66,1.85-5.48c-0.33-0.56-1-1.68-1.33-2.24c-6.08-1.38-12.24-2.34-18.31-3.64c-7.99-1.84-13.49-8.52-20.52-12.27
		c-5.87-2.97-7.22-10.03-11.59-14.47c-4.67-4.45-0.96-11.27-1.67-16.63c-2.17-11.73-11.06-20.22-16.87-30.15
		c-11.4-2.21-22.9-4.1-34.5-4.67c-6.06-0.46-12.04-4.45-18.06-2.25c-4.43,1.44-8.75-2.26-13.25-0.99
		c-8.14,1.91-16.58,0.44-24.74,2.14c-11.96,1.99-24.16,1.89-36.21,2.87c-8.13,1.66-16.38,2.49-24.51,4
		c-6.35,3.12-12.36,7-19.08,9.39c-9.26,3.35-15.73,11.32-24.51,15.53c-6.21,3.11-11.83,7.34-18.27,9.98
		c-7.26,3.23-12.65,9.23-19.4,13.26c-12.26,7.65-24.08,15.97-36.17,23.88c-4.51,3.41-7.12,8.79-11.8,12.03
		c-5.36,3.64-11.3,6.31-17.13,9.09c-3.54,1.67-4.97,5.54-7.6,8.18c-1.77,0.85-3.74,1.09-5.62,1.54c-3.8,5.43-9.2,9.41-13.71,14.2
		c-4.42,5.02-11.48,5.83-17.04,9.03c-8.2,4.26-15.51,10.01-23.81,14.11c-7,3.56-12.77,9.32-20.38,11.66
		c-4.42,1.47-8.51,3.96-11.15,7.89c-7.29,10.01-18.68,15.51-28.6,22.4c-7.81,8.5-16.4,16.25-25.15,23.78
		c-8.26,7.02-13.24,16.82-19.63,25.37c-8.17,7.83-16.47,15.83-21.64,26.08c-4.87,10.41-14.01,18-18.78,28.49
		c-4.25,9.01-10.83,16.58-15.59,25.31c-3.37,5.42-6.42,11.5-11.77,15.3c-5.08,3.31-6.58,9.81-11.37,13.43
		c-6.77,4.72-9.91,12.79-15.8,18.39c-6.09,6.24-13.16,11.54-18.35,18.64c-3.16,4.17-5.57,8.97-9.5,12.53
		c-11.2,10.8-20.66,23.49-33.44,32.57c-10.74,11.88-22.28,23.06-33.92,34.07c-9.9,8.48-16.36,20.18-26.61,28.34
		c-8.48,6.48-14.86,15.26-23.53,21.52c-14.33,10.35-22.79,26.51-36.15,37.87c-5.88,5.12-10.25,11.7-16.36,16.59
		c-4.72,3.95-9.05,8.3-13.19,12.85c-5.52,5.8-12.52,10.16-17.32,16.66c-6.1,8.54-15.32,13.98-22.24,21.76
		c-4.34,4.62-7.82,10.06-12.96,13.89c-5.67,3.58-9.07,9.78-15.04,12.94c-4.07,2.55-8.5,4.8-11.63,8.55
		c-3.86,4.25-5.82,9.77-8.23,14.91c-1.48,3.66-5.35,5.6-7.12,9.1c-2.01,6.71-7.72,11.15-10.39,17.51
		c-3.66,6.88-12.05,10.47-14.37,18.07c3.52,4.18,7.45,8.06,10.61,12.57c3.59-2.41,7.32-5,9.62-8.74c1.22-4.39,1.45-9.16,4.2-12.99
		c6.51-9.74,12.01-20.34,20.82-28.26c6.72-8.12,16.23-13.01,23.73-20.26c5.23-4.41,10.81-8.46,15.41-13.55
		c2.75-3.35,4.64-7.33,7.75-10.38c5.59-6.03,13.55-8.95,19.7-14.23c8.08-10.19,17.5-19.18,26.26-28.76
		c9.2-9.15,19.41-17.33,27.46-27.59c12.16-15.71,28.2-27.75,41.11-42.8c7.51-9.62,18.94-15,26.85-24.22
		c6.8-6.99,10.74-16.52,18.79-22.3c5.39-3.99,9.81-8.98,13.42-14.59c10.43-9.53,23.57-16.59,30.68-29.31
		c12.38-11.22,23.87-23.44,34.75-36.12c14.11-17.91,33.83-31.53,43.75-52.56c8.8-10.6,17.97-20.99,24.57-33.22
		c4.65-7.17,6.79-15.81,12.71-22.14c10.39-13.89,22.64-26.29,32.37-40.67c3.4-4.97,5.16-11.07,9.8-15.12
		c7.44-5.01,16.59-8.55,21.53-16.48c3.64-6.27,10.46-9.58,14.92-15.15c4.55-6.54,12.59-8.67,18.44-13.68
		c8.95-8.5,19.62-15.2,31.1-19.74c4.32-1.83,8.54-3.95,12.15-6.97c7.87-6.73,17.3-11.23,25.54-17.47
		c5.68-4.47,13.15-6.31,18.13-11.71c1.63-1.68,2.87-3.74,4.73-5.18c13.21-7.37,23.67-18.56,36.13-26.99
		c3.61-2.38,8.07-3.66,10.77-7.26c5.93-7.77,15.72-10.57,23.8-15.41c7.02-5.31,14.57-9.85,21.61-15.12
		c17.84-10.38,35.06-22.54,55.31-27.88c12.99-2.92,25.63-8.41,39.24-7.18c31.07-4.6,63.34-4.82,93.88,3.2
		c4.05,2.88,6.8,7.39,7.51,12.33c3.52,12.73,0.38,26.87-6.49,37.92c-2.26,4.62-7.3,3.11-11.4,3.26c-9.92-0.28-19.3,4.56-29.24,3.69
		c-5.17-0.87-10.4-1.33-15.61-0.7c-6.61,1.21-15.43-1.98-19.97,4.47c-1.1,4.59-2.93,10.99,1.37,14.63
		c3.38,3.55,8.82,1.97,13.08,2.17c7.21-0.64,14.46-0.25,21.68-0.87c10.34-2.17,20.76,0.9,31.19,0.05
		c5.08,0.37,12.51-0.11,15.12,5.51c1.68,6.06,1.77,12.45,2.42,18.7c0.83,6.75-4.29,12.23-6.13,18.41
		c-2.05,7.12-6.92,13.33-13.77,16.36c-7.46,2.3-13.64-5.26-20.96-3.25c-14.12,3.59-28.84-1.02-42.9,2.3
		c-4.68,0.82-7.98,4.41-10.9,7.88c2.99,4.53,6.22,9.15,10.98,11.99c2.73,2,6.39,0.04,9.36,0.49c11.28-0.35,22.58-0.52,33.84-1.31
		c6.23,1.32,9.61,7.71,12.65,12.79c3.68,10.12,1.76,21.97-4.13,30.89c-1.94,3.43-4.05,7.97-8.56,8.34
		c-8.46,0.7-16.98,0.31-25.45,0.36c-12.44-1.95-24.7,1.82-36.83,4c-5.43,1.69-8.8,7.54-7.71,13.09c-0.11,2.08,1.96,3.13,3.76,3.35
		c7.78,1.18,15.56-0.4,23.35-0.79c8.52-0.96,17.12-0.6,25.68-0.56c6.15,0.28,11.12,3.95,15.46,7.94c-1.86,8.1-2.68,16.68-7.3,23.83
		c-3.22,7.07-8.34,12.91-13.46,18.67c-2.31,1.71-4.02,4.83-7.02,5.48c-13.89,1.21-27.83-0.16-41.73,0.02
		c-14.71-1.19-29.37,1.86-43.43,5.88c-8.81,1.69-17.83,0.89-26.65,2.14c-7.59,1.87-15.31,3.05-23.03,4.1
		c-5.42,0.3-11.43,2.13-16.43-0.94c-9.4-5.6-20.18-7.94-31.03-7.88c-16.33-2.32-32.35,4.3-45.91,12.79
		c-5.12,2.97-10.87,4.88-15.58,8.54c-10.53,8.79-20.12,18.75-28.1,29.94c-2.89,3.57-5.72,7.21-7.64,11.43
		c-5.56,11.72-15.47,20.37-23.62,30.19c-5.42,6.03-7.11,14.43-12.6,20.41c-8.81,10.32-13.11,23.37-20.43,34.63
		c-3.33,5.73-7.37,11.06-10.34,17.01c-3.84,11.21-11.81,20.34-16.54,31.14c-4.18,8.32-7.39,17.04-9.84,26.04
		c-6.46,16.02-16.4,30.47-21.91,46.91c-2.82,6.34-4.34,13.22-7.76,19.3c-4.94,9.08-5.99,19.78-11.79,28.44
		c-9.46,12.04-13.7,27.09-22.02,39.82c-3.35,5.18-5.48,10.95-7.38,16.8c-5.38,15.06-13.9,28.68-21.26,42.8
		c-9.48,13.73-15.77,29.27-24.37,43.52c-6.49,8.32-11.47,17.69-15.78,27.29c-3.73,8.39-10.36,14.99-15.21,22.7
		c-5.46,8.65-11.9,16.64-18.96,24.03c-14.65,18.22-31.49,34.51-48.43,50.57c-6.48,5.5-13.27,10.68-19.24,16.78
		c-4.33,3.83-8.37,8.8-14.31,10.1c-5.31,1.07-8.84,5.56-13.25,8.31c-16.67,10.68-33.14,21.81-51.28,29.91
		c-9.16,3.8-18.18,8.64-28.17,9.68c-14.46-0.36-27.42-7.15-40.51-12.47c-10.55-10.32-22.42-19.72-30.05-32.57
		c-3.13-5.96-8.16-10.62-11.35-16.51c-4.2-9.12-10.66-16.95-15.42-25.76c-7.46-11.48-8.18-25.82-15.75-37.23
		c-2.36-4.84-2.43-10.4-4.64-15.27c-3.47-7.92-4.97-16.46-7.18-24.75c-1.74-7.05-3.78-14.13-3.88-21.43
		c0.01-5.97-2.17-11.62-3.18-17.41c-0.19-9.35,1.26-18.7,1.25-28.04c2.06-11.33,5.64-22.43,6.55-33.93
		c0.65-5.76,1.6-11.46,3.78-16.83c3.65-9.19,4.06-19.23,6.99-28.61c1.7-5.52,1.54-11.49,4-16.78c2.31-4.95,3.79-10.2,5.78-15.26
		c2.56-5.98,5.77-11.78,6.54-18.35c1.76-6.27,1.51-13.02,4.07-19.06c2.88-5.58,1.96-12.17,3.69-18.07
		c3.32-11.11,6.13-22.37,8.54-33.7c5.23-14.12,7.4-29.24,13.89-42.89c5.36-11.4,8.25-23.76,13.82-35.08
		c3.69-16.63,12.21-31.71,15.96-48.34c1.83-7.22,5.04-13.95,7.98-20.75c4.35-11.87,7.73-24.15,13.51-35.43
		c6.05-13.15,8.28-27.74,15.8-40.24c4.37-8.39,4.04-18.63,9.66-26.45c5.72-7.93,6.45-18.09,10.36-26.86
		c8.03-24.37,19.78-47.26,27.89-71.58c4.36-16.36,11.62-31.72,17.52-47.54c2.05-5.99,2.5-12.34,3.44-18.54
		c2.4-1.57,5.08-3.14,6.07-6c3.72-9.33,8.48-18.22,11.47-27.83c7.45-15.16,11.2-31.8,19.36-46.64c5.45-9.13,6.23-20.07,11.34-29.33
		c3.17-7.51,7.15-14.67,9.75-22.42c6.06-20.93,19.34-38.75,27.13-58.99c5.04-10.34,12.46-19.36,17.01-29.96
		c3.57-8.73,10.52-15.33,16.48-22.41c4.96-6.04,8.05-13.63,14.54-18.36c7.44-5.55,14.19-12.04,22.1-16.94
		c12.23-7.32,25.96-11.65,38.26-18.8c12.06-4.81,24.13-9.59,35.95-14.97c13.57-4.27,26.81-9.58,40.59-13.21
		c8.3-1.76,14.72-7.83,22.66-10.52c13.84-4.79,28.27-7.77,41.81-13.44c9.7-4.83,20.42-6.96,30.65-10.33
		c16.06-5.98,33.19-9.02,48.41-17.22c13.96-4.76,27.19-11.61,39.26-20.09c4.14-3.25,8.12-6.75,12.73-9.34
		c9.03-4.87,12.13-15.17,18.54-22.56c30.93,21.31,65.67,37.98,102.94,44.24c25.6,4.21,51.86,4.91,77.62,1.55
		C36.6,292.83,65.12,282.59,91.25,268.26 M71.5,640.18c6.52,0.52,11.78,4.91,17.36,7.94c3.32,1.72,5.43,4.92,8.3,7.19
		c4.41,1.65,8.9,3.1,13.29,4.87c-3.3,8.7-6.15,17.84-12.12,25.16c-5.98,4.78-12.11,9.88-19.45,12.43
		c-1.12-7.38,1.91-14.37,2.41-21.63C81.11,663.36,71.22,653,71.5,640.18 M1467.86,825.49c0.91-0.6,1.85-1.19,2.85-1.72
		c0.44,1.38,0.94,2.79,1.43,4.22C1470.69,827.15,1469.25,826.3,1467.86,825.49 M-187.94,956.03c3.22-7.63,9.79-13.68,17.38-16.83
		c4.42,7.31,8.47,14.85,13.47,21.81c-1.61,4.99-2.96,10.06-3.51,15.31c-1.43,7.39-6.03,13.97-5.91,21.71
		c-0.27,5.02-1.22,9.99-1.66,15.01c-0.02,7.38,0.97,14.77,2.12,22.08c-4.28,2.26-8.63,4.49-13.4,5.57
		c-2.08-2.35-4.12-4.62-6.17-6.93c0.26-2.74,1.54-5.72,0.12-8.31c-6.77-12.45-15.37-24.17-19.53-37.84
		c0.65-4.26,3.15-8.11,4.26-12.29C-198.57,967.58-190.75,963.45-187.94,956.03L-187.94,956.03z"/>
	<path d="M1807.78-557.23c38.57-15.34,81.21-18.87,122.19-13.68c39.29,5.85,76.74,21.96,109.03,44.94
		c57.59,41.91,100.63,101.66,127.91,167.05c25.48,60.25,38.62,125.35,41.47,190.6c4.21,81.84-7.85,164.98-38.55,241.15
		c-21.51,53.3-52.52,103.43-94.39,143.14c9.23,1.85,9.26,12.87,14.73,18.82c15.81,21.14,40.79,32.69,64.57,42.37
		c14.26,6.39,28.95,11.69,43.98,16.02c10.33,3.04,19.24,9.52,29.65,12.45c8.22,3.31,16.94,5.13,25.03,8.88
		c11.92,5.4,23.36,11.93,35.8,16.15c9.91,3.81,20.52,5.97,29.86,11.22c7.38,4.06,15.63,6.49,22.46,11.56
		c6.73,5.03,15.17,6.56,22.61,10.26c12.16,4.19,22.05,12.57,32.54,19.68c5.16,4.09,9.83,8.83,14.38,13.61
		c4.55,4.73,11.31,7.35,14.42,13.43c6.01,11.85,14.37,22.38,19.77,34.58c5.48,11.07,11.97,21.62,16.66,33.1
		c4.98,12.2,9.41,24.66,15.53,36.37c5.22,10.17,7.2,21.53,11.17,32.19c2.97,8.9,7.55,17.16,10.59,26.04
		c4.02,15.41,9.99,30.18,14.39,45.48c3.47,15.85,12.36,29.77,18.24,44.73c1.74,13.51,6.8,26.16,11.36,38.89
		c7.18,25.57,16.48,50.46,24.23,75.85c5.17,12.3,7.26,25.68,12.72,37.9c2.84,5.51,1.62,12.13,4.54,17.61
		c3.43,7.67,6.59,15.46,9.68,23.29c3.47,11.81,5.25,24.29,10.83,35.41c2.75,5.37,3.91,11.34,6.46,16.81
		c4.68,8.46,5.07,18.34,8.43,27.31c3.06,8.88,6.59,17.62,8.34,26.9c5.81,15.84,7.26,33.01,14.27,48.44
		c4.65,9.84,7.88,20.27,11.21,30.63c5.29,20.06,11.13,40.19,13.39,60.88c3.06,18.06,7.23,35.93,12.33,53.53
		c4.59,13.47,8.5,27.25,10.42,41.39c4.06,20.95,7.49,42.01,10.19,63.19c-6.61,0.06-13.18,0.06-19.7,0
		c0.48-11.74-3.78-23.02-4.86-34.62c-1.55-13.96-5.45-27.57-6.76-41.56c-1.69-7.56-2.72-15.29-5.31-22.6
		c-4.73-12.16-8.8-24.69-10.29-37.69c-0.85-5.61-2.62-10.97-4.01-16.42c-1.05-10.97-3.43-21.7-5.93-32.4
		c-2.26-15.47-6.99-30.41-10.7-45.54c-5.44-14.91-10.45-29.95-15.41-45.01c-2.9-13.96-9.15-26.92-12.01-40.89
		c-2.47-14.33-9.58-27.29-13.19-41.3c-2.86-10.54-7.68-20.39-10.79-30.82c-2.19-9.95-5.84-19.48-9.5-28.95
		c-2.72-6.9-3.52-14.42-7.02-21c-2.53-4.65-4.59-9.57-5.76-14.73c-5.46-24.42-16.92-46.92-23.56-70.95
		c-7.58-24.04-16.11-47.83-21.71-72.45c-1.08-3.77-4.45-6.3-5.79-9.96c-4.3-10.08-6.84-20.8-11.12-30.87
		c-6.19-14.27-9.76-29.51-16.12-43.69c-2.47-5.94-3.55-12.34-6.17-18.2c-5.86-13.09-9.36-27.06-14.41-40.43
		c-6.02-16.36-14.86-31.48-21.27-47.67c-7.31-14.19-13.81-28.92-23.1-41.96c-3.45-3.99-6.94-8-9.26-12.78
		c-4.03-8.03-11.87-12.76-18.16-18.8c-6.84-6.86-15.11-12.03-23.7-16.38c-20.31-10.09-40.5-20.48-61.23-29.68
		c-12.28-4.1-24.31-8.92-36.27-13.85c-10.14-3.81-18.79-10.84-29.52-13.21c-17.08-4.66-32.47-13.78-49.4-18.81
		c-17.33-5.11-33.66-12.88-50.38-19.6c-19.91-8.3-38.57-19.78-54.3-34.57c-6.86-8.58-13.32-17.62-17.62-27.76
		c-26.29,22.45-55.48,42.09-88.22,53.75c-32.39,12.55-67.67,15.98-102.14,14.09c-55.67-3.78-108.36-29.24-149.79-65.96
		c-4.28,9.8-10.65,18.52-17.24,26.88c-24.9,24.68-58.59,36.39-90.33,49.39c-11.33,4.08-23.09,7.02-33.99,12.19
		c-11.1,5.05-22.46,9.51-34.19,12.85c-7.5,2.13-13.83,6.86-20.89,9.96c-13.58,5.75-27.28,11.2-41.24,15.94
		c-22.22,10.13-44.08,21.05-65.81,32.22c-11.11,5.73-19.54,15.1-29.12,22.9c-5.81,4.57-7.94,11.87-12.54,17.38
		c-6.79,7.52-11.89,16.43-16.37,25.46c-3.76,8.45-8.91,16.22-12.38,24.81c-5.73,14.3-13.52,27.68-18.93,42.12
		c-5.04,12.7-8.35,26.01-13.57,38.65c-4.24,9.14-5.93,19.21-10.44,28.25c-7.09,21.88-16.13,43.04-23.2,64.93
		c-1.82,5.82-6.52,10.23-7.62,16.35c-3.37,12.13-6.38,24.39-10.62,36.27c-4.23,11.69-7.18,23.8-11.43,35.49
		c-4.1,16.32-11.69,31.49-16.71,47.53c-4.32,10.42-4.77,22.05-9.99,32.14c-2.46,4.54-4.52,9.32-5.42,14.46
		c-1.81,8.16-6.1,15.46-8.38,23.48c-2.66,9.19-4.72,18.58-8.63,27.37c-5.49,13.38-8.65,27.56-14.12,40.95
		c-1.34,3.58-2.82,7.13-3.59,10.89c-2.02,11.82-6.43,23.04-10.14,34.4c-2.48,6.65-2.66,13.96-5.84,20.39
		c-2.81,6.47-4.36,13.4-6.53,20.1c-10.94,27.28-15.83,56.42-21.86,85.04c-0.8,13.02-6.18,25.09-7.35,38.06
		c-2.55,14.45-9.77,27.54-12.04,42.05c-3.22,10.91-3.33,22.4-6.14,33.42c-2.39,11.94-3.23,24.14-6.05,36.01
		c-4.48,21.22-13.55,41.22-16.6,62.76c-3.25,15.49-10.11,30.19-10.76,46.21c-0.87,16.36-4.85,32.29-6.78,48.53
		c-2.05,18.46-5.53,37.17-2.68,55.74c0.14,12.91,3.42,25.44,7.41,37.63c0.89,13.11,6.52,25.12,11.46,37.09
		c2.63,6.8,6.79,12.86,10.87,18.87c5.9,10.18,8.55,22.03,15.41,31.7c3.62,6.96,6.66,14.23,11.78,20.35
		c6.83,9.07,12.59,18.89,18.03,28.86c8.13-0.06,15.66,2.8,23.07,5.83c14.75,3.72,29.71-1.25,44.4-2.99
		c10.66-1.41,19.53-7.75,29.47-11.29c15.93-6.22,32.46-10.7,48.65-16.17c3.65-1.53,6.51-4.33,9.69-6.6
		c3.85-2.76,8.67-3.46,12.92-5.4c16.64-8.45,30.13-21.91,47.06-29.88c5.67-2.58,9.72-7.42,14.62-11.08
		c9.12-5.55,13.31-16.03,20.58-23.51c6.09-5.71,8.96-13.86,11.87-21.44c4.21-6.44,6.75-13.87,11.92-19.68
		c8.65-18.3,14.69-37.76,24.67-55.47c5.78-9.68,8.15-20.87,13.28-30.85c3.49-6.8,6.13-14.03,10.28-20.48
		c6.18-9.91,9.22-21.31,14.41-31.7c4.85-9.52,8.98-19.35,12.67-29.36c5.95-11.96,12.42-23.68,18.16-35.75
		c2.31-6.61,7.8-11.07,12.84-15.58c-0.58-1.4-1.74-2.63-1.8-4.11c1.04-2.54,2.91-4.68,4.54-6.85c5.86-6.78,8.53-15.67,14.56-22.34
		c4.5-5.34,8.38-11.13,11.98-17.09c7.89-9.68,15.1-20.2,25.22-27.74c12.96-11.86,25.97-24.28,42.01-31.88
		c9.75-7.02,20.31-12.7,31.08-18c8.27-4.47,17.99-6.44,25.32-12.58c8.4-6.25,17.31-11.94,24.66-19.47c2.39-2.42,5.32-4.14,8.13-6.01
		c11.64-7.37,20.78-17.85,31.63-26.24c9.41-7.2,19.03-14.16,27.84-22.1c9.74-9.98,21.19-18.09,30.98-28.04
		c4.33-4.71,10.98-6,15.52-10.45c9.12-7.99,20.54-12.62,30.19-19.89c4.05-2.93,7.8-6.26,11.84-9.22
		c9.32-7.26,20.3-12.03,29.65-19.26c6.36-5.32,14.54-7.72,20.92-13.04c11.53-9.32,25.39-14.99,37.57-23.34
		c19.26-11.9,40.76-19.74,59.48-32.59c10.93-6.34,23.01-10.51,33.53-17.61c7.64-5.19,16.38-9.25,22.31-16.6
		c4.48-4.61,8.45-10.01,14.38-12.93c2.59-1.54,3.13-4.8,4.58-7.24c2.73-6.15,7.32-11.23,10.37-17.19
		c0.96-4.84,1.08-11.21-3.64-14.17c-6.13-1.46-12.49-0.85-18.49,0.69c-12,2.36-23.45,6.69-34.53,11.73
		c-8.36,4.82-16.97,9.64-26.63,11.19c-10.13,2.2-17.49,10.11-26.65,14.39c-6.83,2.99-12.9,7.49-19.9,10.05
		c-9.75,3.23-19.43,6.81-28.54,11.57c-7.98,4.7-17.91,7.35-26.89,4.07c-7.73-1.74-14.81-5.47-21.29-9.92
		c1.48-10.12-2.06-20.61,2.25-30.32c2.2-4.69,4.53-9.36,7.34-13.71c3.88-3.83,9.6-5.39,13.02-9.81c4.23-5.53,10.91-8.33,15.43-13.57
		c4.96-5.34,9.19-11.51,15.34-15.62c4.17-2.74,8.16-5.78,11.64-9.38c14.12-12.21,27.96-24.76,42.29-36.73
		c4.56-3.39,8.08-7.88,12.16-11.81c19.12-15.07,36.07-32.61,53.83-49.22c11.77-12.41,17.36-28.82,23.53-44.38
		c1.11-3.8-2.54-6.9-4.18-9.83c-2.81-4.26-7.88-10.02-13.52-7.84c-6.9,2.55-14.58,3.45-20.11,8.77
		c-7.52,6.58-18.34,8.28-24.63,16.38c-7.37,8.75-17.5,14.33-25.57,22.32c-9.479,5.69-17.31,13.41-25.879,20.28
		c-14.47,16.47-30.57,31.54-47.71,45.23c-14.29,11.62-27.68,24.34-39.85,38.16c-4.4,3.63-9.72,6.13-13.52,10.48
		c-5.51,5.98-13.79,8.43-21.72,8.36c-7.5,0.14-17.39,0.57-21.71-6.95c-5.73-8.39-2.76-19.71,1.61-28.08
		c10.24-22.58,25.69-42.19,39.27-62.77c15.88-29.99,34.73-58.29,51.23-87.93c4.3-9.16,10.05-17.53,14.38-26.67
		c3.48-6.63,5.14-14.2,9.77-20.2c7.84-9.28,11.85-20.94,16.83-31.85c6.11-14.62,12.79-29.44,13.66-45.49
		c0.01-3.92-2.38-7.31-4.45-10.44c-4.17-5.45-12.28-3.72-18.22-4.19c-9.79,3.54-16.66,11.92-24.09,18.75
		c-6.6,9.34-14.84,17.4-21.08,27c-4.68,6.64-9.36,13.28-13.99,19.95c-9.85,16.22-22.53,30.49-32.23,46.83
		c-4.18,6.76-9.83,12.66-12.6,20.25c-4.02,11.42-13.55,19.41-19.5,29.69c-7.41,10.62-13.89,21.85-21.82,32.1
		c-3.38,4.78-7.39,9.2-9.98,14.47c-4.4,11.05-11.73,20.54-18.03,30.52c-9.77,11.95-18.46,26.79-33.88,32.14
		c-7.51,3.53-18.49,0.61-21.58-7.43c-2.29-17.26,7.92-32.5,11.33-48.9c2.23-11.13,9.28-20.47,11.82-31.49
		c5.53-12.53,8.86-25.88,14.24-38.46c6.39-11.86,9.47-25.08,14.26-37.59c3.04-8,8.06-15.11,10.49-23.36
		c2.44-3.93,4.81-7.92,7.25-11.86c2.76-5.14,3.08-11.14,5.51-16.42c5.43-14.44,13.79-27.99,15.79-43.53
		c1.78-10.04,4.47-20.27,2.73-30.48c-1.45-9.6-4.43-20.11-12.78-25.98c-9.86,5.1-16.17,14.72-21.52,24.11
		c-5.95,8.56-10.57,17.98-14,27.81c-8.22,22.9-20.68,43.89-31.21,65.73c-3.44,10.68-9.32,20.32-13.09,30.87
		c-3.6,9.22-9.35,17.54-11.38,27.36c-0.88,7.88-7.75,12.71-10.7,19.63c-11.9,29.63-21.47,60.5-38.26,87.88
		c-6.7,9.98-11.39,21.1-17.23,31.57c-3.73,9.34-8.49,18.2-13.34,26.99c-6.13,10.2-15.19,18.28-25.09,24.71
		c-12.69,7.35-30.32,5.01-39.57-6.63c-4.08-9.82-8.98-19.46-10.31-30.16c-3.68-11.51-2.3-23.63-4.39-35.38
		c-1.64-9.25-0.46-18.74-2.29-27.94c-3.73-18.07-9.48-35.66-16.19-52.82c-4.81-10.42-9.9-21.34-19.07-28.68
		c-5.46-5.07-12.85-8-20.28-8.16c-7.75,0.55-14.85,5.07-19.68,10.97c-3.44,7.81,2.95,15.74,4.46,23.21
		c1.91,13.36,7.42,25.92,8.47,39.45c1.01,17.78,4.64,35.29,5.19,53.13c0.51,21.83,0.21,43.95-5.07,65.26
		c-1.34,5.72-3.75,11.29-4,17.23c0.31,7.59,0.42,15.43-2.03,22.72c-1.92,5.51-2.2,11.34-2.97,17.1c-0.43,8.01-4.66,15.06-6.15,22.84
		c-2.94,14.86-6.99,29.53-12.3,43.72c-2.56,6.76,0.01,14.06-0.9,21.05c-1.54,10.18-3.04,20.38-4.42,30.59
		c-5.06,32.33-2.15,65.33,3.85,97.32c-1.61,8.33-5.22,16.4-10.63,22.97c-4.18,3.39-9.98,4.23-13.87,8.1
		c-15.71,17.22-25.64,38.7-40.26,56.74c-10.27,8.76-17.56,20.53-28.5,28.52c-4.1,3.17-7.69,6.98-10.66,11.22
		c-1.25,1.59-2.32,3.57-4.34,4.27c-10.02,2.61-15.82,11.8-23.34,18.11c-7.18,5.81-14.51,11.47-21.33,17.71
		c-6.12,6.17-14.7,9.01-20.73,15.31c-18.57,13.62-38.85,24.65-58.81,36.07c-12.69,6.8-25.86,12.69-39.29,17.86
		c-5.51,2.61-12.03,3.95-16.19,8.74c-6.12,6.72-14.22,10.99-21.39,16.41c-3.48,2.14-6.88,4.57-9.07,8.11
		c-5.95,9.68-14.06,18.28-17.52,29.34c-2.89,6.38-3.18,14.58-8.93,19.25c-2.23,1.92-5.07,2.9-7.73,4.01
		c0.35-7.45-1.04-15.29,2-22.31c3.74-13.07,11.22-24.54,18.97-35.53c3.9-5.36,7.69-10.84,12.52-15.43
		c5.35-5.85,12.64-9.3,18.69-14.32c7.9-6.4,15.88-13.12,25.49-16.83c9.6-4.4,18.75-10.33,29.34-12.1
		c8.07-2.76,14.39-9.69,22.92-11.38c4.58-0.55,7.65-4.4,11.41-6.66c9.28-5.99,16.83-15.18,27.81-18.23
		c4.03-1.58,8.16-3.37,11.13-6.64c6.71-7.18,16.04-11.08,23.02-17.94c16.56-11.53,30.76-25.96,45.96-39.14
		c12.24-12.07,26.19-22.82,35.72-37.32c10.39-14.06,19.95-28.7,29.49-43.35c3.27-5.01,5.87-10.69,10.63-14.51
		c2.36-2.22,5.43-4.57,5.11-8.21c-1.38-15.78-5.19-31.3-4.91-47.2c-1.78-16.8,2.52-33.37,3.25-50.07
		c0.61-14.38,5.29-28.13,7.04-42.36c1.47-8.7,2.8-17.49,6.07-25.73c1.43-4.57,4.68-8.63,4.18-13.65c-0.48-8.21,2.44-15.99,3.56-24
		c1.22-9.25,2.84-18.46,5.65-27.37c1.49-7.1,4.5-13.96,4.3-21.31c0.1-3.95-0.19-7.98,1.29-11.7c2.1-4.82,0.26-10.22,1.74-15.16
		c1.41-5.18,1.65-10.58,2.86-15.79c0.57-5.39,3.47-10.61,2.39-16.12c-1.61-8.99,0.28-18.04,0.03-27.06
		c-0.53-16.15-1.41-32.36-4.84-48.18c-3.12-21.87-7.61-43.66-15.68-64.27c-0.56-1.96-1.58-4.25-0.41-6.16
		c5.03-8.29,13.56-13.18,20.88-19.18c8.69-6.63,18.76-13.3,30.36-11.25c10.73-0.08,19.88,6.32,27.47,13.28
		c8.65,10.39,16.32,21.76,21.73,34.2c2.4,5.55,2.62,11.72,4.77,17.39c9.38,19.49,11.97,41.49,13.07,62.85
		c0.24,8.07,2.85,15.88,2.52,24c0.43,12.42,4.67,24.24,10.27,35.2c2.88,6.23,11.37,5.5,17.07,5.64
		c8.25-4.23,14.88-11.59,17.55-20.56c3.53-7.26,6.14-15.01,11.04-21.5c2.15-8.71,8.74-14.97,12.78-22.72
		c11.14-14.67,16.38-32.5,25.14-48.5c5.92-11.55,9.15-24.28,15.59-35.58c4.05-6.95,4.74-15.21,8.76-22.15
		c4.5-8.55,7.45-17.8,11.89-26.38c5.19-10.37,8.35-21.64,13.97-31.8c4.28-8.18,6.18-17.66,12.11-24.95
		c3.55-4.19,4.16-9.81,6.56-14.59c7.68-12.08,10.89-26.27,17.98-38.65c5.51-12.42,12.05-24.39,19.57-35.7
		c5.08-6.97,11.42-13.11,15.21-20.97c1.22-3.17,4.87-3.5,7.75-4.16c7.17-1.29,15.55-3.46,21.68,1.91
		c14.01,11.79,16.37,31.28,16.27,48.42c-1.34,9.75-0.47,19.99-3.55,29.43c-8.28,16.74-14.87,34.24-22.75,51.16
		c-2.73,5.85-4.82,12.04-8.42,17.45c-5.56,7.55-6.3,17.2-10.46,25.42c-5.57,11.87-7.6,25-13.54,36.71
		c-6.27,12.99-8.68,27.34-14.08,40.65c-1.85,3.47-0.98,7.45-0.79,11.18c-1.52,0.76-3.21,1.34-4.34,2.64
		c-4.65,9.42-7.1,19.76-8.57,30.13c-2.14,5.37-4.71,10.64-5.58,16.42c3.09-1.24,6.66-1.94,9.11-4.37
		c7.13-8.77,13.79-17.95,19.42-27.76c11.26-16.67,22.27-33.53,33.42-50.29c5.07-9.62,12.4-17.73,18.23-26.87
		c4.67-7.11,8-15.07,13.38-21.71c6.17-8.02,12.32-16.14,16.72-25.31c5.9-9.26,12.97-17.72,19.13-26.82
		c7.55-11.64,17.53-21.55,24.42-33.64c8.27-11.9,16.03-24.26,26.55-34.38c14.01-15.63,37.03-23.54,57.37-17.3
		c4.91,5.78,10.16,11.91,12.8,19.15c0.74,9.63-0.59,19.36-2.17,28.87c-2.53,22.09-16.64,40.08-25.49,59.85
		c-4,9.03-9.95,17-14.23,25.89c-4.87,8.65-10.76,16.69-14.9,25.75c-6.23,14.21-15.4,26.8-23.11,40.19
		c-12.92,15.01-16.55,35.58-28.71,51.07c-6.37,9.54-13.37,18.65-19.76,28.18c-5.09,9.31-10.01,18.72-15.39,27.87
		c-3.41,5.88-5.51,13.14-3.02,19.76c4.74-1.21,10.06-1.63,14.14-4.67c4.5-3.02,8.5-6.81,13.22-9.54
		c10.75-4.52,15.88-15.65,23.81-23.49c8.97-8.17,17.69-16.74,28.25-22.92c5.63-5.68,9.33-13.19,15.92-17.97
		c10.35-8.24,20.33-16.93,30.26-25.69c10.72-10.03,23.14-18.04,33.63-28.36c12.11-11.63,25.7-21.66,40.45-29.69
		c7.74-5,16.41-8.39,25.4-10.34c7.63-1.89,15.42,1.78,20.45,7.45c6.02,7.07,11.57,15.27,12.55,24.78c0.81,4.39-1.81,8.32-3.43,12.18
		c-3.57,7.13-4.74,15.19-8.79,22.11c-2.56,4.3-3.28,9.24-4.33,14.04c-0.85-1.34-1.62-2.65-2.38-3.96c-0.47,0.07-1.4,0.2-1.87,0.27
		c-0.32,3.28-0.33,6.7-0.83,9.99c-5.02,2.05-9.12,5.64-12.82,9.5c-5.88,4.79-10.51,10.86-16.22,15.82
		c-6.8,5.39-12.52,11.99-19.43,17.23c-8.1,4.81-14.01,12.28-21.55,17.82c-13.68,12.68-29.58,22.95-41.54,37.44
		c-7.34,8.49-16.8,14.73-24.4,22.95c-10.67,7.71-19.99,17.07-29.23,26.39c-4.6,4.67-6.99,11.02-8.37,17.32
		c0.36,4.29,1.51,10.1,6.24,11.7c3.62,2.04,7.12-1.19,10.77-1.39c8.06-0.49,15.64-3.73,22.81-7.24c9.81-5.66,21-8.35,30.61-14.43
		c5.29-3.58,11.63-5.17,16.9-8.8c10.55-6.91,22.79-10.27,33.88-16.13c6.89-2.72,14.11-4.62,20.4-8.72
		c6.56-4.21,14.87-3.38,21.53-7.3c3.18-1.48,6.48-3.17,9.96-4.01c4.14-0.12,7.74,3.69,12.03,3.13c3.21,0.03,7.68-1.41,10.32,1.51
		c6.38,4.77,8.03,12.99,9.63,20.37c1.87,10.03-2.91,19.99-9.17,27.5c-7.65,5.11-11.77,13.54-17.86,20.18
		c-7.55,9.13-16.23,17.38-26.37,23.57c-10.81,6.48-21.21,13.58-31.9,20.22c-20.89,9.66-41.13,20.64-61.36,31.64
		c-8.11,3.93-14.44,10.64-22.64,14.38c-19.32,9.53-35.83,23.57-54.24,34.61c-13.31,7.75-25.48,17.23-38.36,25.62
		c-12.36,7.37-23.92,15.89-34.79,25.29c-9.57,6.3-16.81,15.28-25.95,22.09c-7.28,6.29-15.25,11.7-23.62,16.42
		c-4.12,2.1-6.39,6.31-9.43,9.59c-5.59,6.47-12.96,10.96-19.09,16.83c-6.98,6.48-14.63,12.12-22.22,17.83
		c-4.53,4.18-9.04,8.47-14.4,11.56c-9.89,5.73-18.17,14.04-28.98,18.15c-10.3,5.97-21.99,9.19-31.73,16.15
		c-4.88,3.3-10.81,4.77-15.24,8.74c-9.19,7.83-18.78,15.2-27.76,23.26c-7.88,9.38-16.88,17.87-23.81,28.03
		c-4.54,7.96-12.29,13.35-16.87,21.31c-6.51,8.62-9.87,19-16.07,27.8c-6.94,10.26-11.33,21.91-17.45,32.63
		c-8.72,14.49-12.46,31.36-21.28,45.81c-5.12,7.67-6.64,16.99-10.98,25.05c-3.19,5.86-5.89,11.96-9.29,17.72
		c-6.21,10.97-10.3,22.95-15.4,34.46c-3.5,8.24-9.81,15.13-12.05,23.94c-2.69,10.38-9.88,18.76-13.22,28.91
		c-7.18,24.53-22.51,45.73-39.13,64.79c-9.03,7.97-16.64,17.53-26.87,24.13c-13.67,9.19-27.92,17.51-42.26,25.61
		c-8.39,3.6-16.39,8-24.16,12.79c-17.02,8.38-34.85,15.08-52.84,20.99c-10.72,2.2-21.05,6.05-30.98,10.57
		c-11.31,6.19-24.5,7.19-37.01,8.99c-6.59,0.82-13.12,3.72-19.81,2.24c-7.09-1.5-14.31-2-21.43-3.1
		c-9.06-2.19-16.21-8.23-22.68-14.56c-6.6-5.55-9.17-14.17-14.17-20.95c-6.42-9.17-10.25-19.78-14.89-29.87
		c-3.65-10.03-10.84-18.19-15.52-27.7c-6.16-9.38-9.62-20.11-14.78-30c-3.95-8.8-8.52-17.69-9.2-27.44
		c-2.79-14.36-5.14-28.83-6.11-43.42c-0.25-6.99-2.27-13.98-1.03-20.96c1.39-8.35,0.09-16.95,2.81-25.1
		c3.27-21.11,6.24-42.26,9.98-63.28c1.45-5.93,3.35-11.88,3.08-18.04c-0.38-5.11,3.42-9.06,4.77-13.71
		c1.71-7.65,1.28-15.71,3.9-23.13c4.76-13.68,4.11-28.65,9.26-42.23c3.07-7.27,2.8-15.44,6.01-22.65
		c3.42-7.23,2.74-15.44,5.13-22.93c4.11-11.07,4.42-23.03,7.94-34.25c8.55-25.65,14.78-52.05,18.72-78.79
		c4.05-21.98,9.45-43.69,16.33-64.95c2.63-10.8,9.2-20.08,12.02-30.82c2.86-11.89,5.22-23.94,9.47-35.45
		c2.44-15.4,10.89-29.14,13.12-44.63c0.49-4.8,3.42-8.83,5.08-13.23c3.4-11.63,9.92-22.1,12.08-34.15
		c2.05-13.66,8.49-25.92,13.61-38.56c2.31-4.7,2.04-10.1,3.47-15.06c9.74-24.82,15.76-50.91,25.57-75.73
		c3.47-12.74,8.37-25.04,11.56-37.86c2.87-9.1,7.05-17.78,8.8-27.21c2.11-6.71,2.26-14.07,6.1-20.13
		c4.94-12.51,12.37-24.15,15.09-37.45c3.27-12.89,8.91-25.03,12.1-37.94c4.01-15.52,12.94-29.23,16.63-44.87
		c2.4-11.22,7.53-21.49,12.48-31.73c7.26-17.43,13.73-35.27,23.29-51.64c6.49-15.51,16.7-28.96,24.54-43.74
		c3.81-6.45,11.45-9.09,16.03-14.87c8.23-9.35,18.78-16.01,28.89-23.09c9.72-6.58,21.15-9.94,31.97-14.21
		c10.24-7.3,21.83-12.12,33.12-17.55c11.83-5.53,24.78-8.08,36.63-13.62c13.07-5.72,25.35-13.41,39.38-16.76
		c12.96-3.82,24.89-10.15,37.25-15.43c16.68-5.02,33.19-10.71,49.08-17.93c13.34-4.91,26.01-11.46,38.02-19.06
		c10.59-7.05,20.76-15.49,27.21-26.65c3.14-5,4.74-11.24,9.93-14.65c-52.56-49.81-88.04-115.27-109.45-183.94
		c-14.45-46.8-22.28-95.56-24.38-144.46c-4.59-91.39,11.13-184.6,50.51-267.51c19.83-41.64,46.09-80.52,79.12-112.83
		C1737.71-520.02,1770.94-543,1807.78-557.23 M1884.45-557.5c-48.42,2.91-94.95,22.36-133.29,51.64
		c-35.61,26.45-63.47,61.98-86.36,99.64c-38.76,66.07-60.48,141.32-67.53,217.36c-5.16,53.56-1.04,107.73,9.14,160.47
		c14.4,71.07,42.45,140.27,87.18,197.78c40.69,53.38,99.83,94.43,166.55,106.38c41.46,7.72,84.66,0.08,123.04-16.59
		c34.31-15.2,65.41-37.56,91.04-64.96c39.73-42.53,68.53-94.3,88.05-148.92c28.68-81.46,38.48-169.69,26.85-255.34
		c-11.38-90.8-44.62-180.56-103.95-251.14c-29.45-34.25-66.32-62.66-108.34-79.64C1947.61-552.48,1916.03-559.57,1884.45-557.5
		 M1467.86,825.49c1.39,0.81,2.83,1.66,4.28,2.5c-0.49-1.43-0.99-2.84-1.43-4.22C1469.71,824.3,1468.77,824.89,1467.86,825.49
		 M-103.11-556.21c26.29-9.18,54.39-12.25,82.12-11.84c37.31,0.12,74.09,10.79,107.01,28.01c34.37,17.85,63.7,43.96,89.33,72.71
		c43.92,50.55,73.6,112.21,91.42,176.46c21.04,78.09,25.46,160.46,14.91,240.55c-12.58,87.96-44.59,175.11-102.24,243.74
		c-12.5,15.42-27.51,28.65-41.33,42.7c1.64,5.75,6.4,10.17,9.97,14.83c20.77,22.11,50.01,32.11,77.28,43.54
		c13.3,5.5,27.8,7.82,40.59,14.62c14.55,7.93,31.3,10.44,46,18c13.65,6.95,27.62,13.3,42.35,17.65
		c11.23,2.81,20.94,9.25,31.54,13.63c7.32,3.12,13.07,9.24,21.01,11.09c21.87,7.82,41.93,20.89,57.7,38
		c4.51,4.43,10.93,7.07,13.92,12.94c5.2,10.18,12.04,19.41,17.35,29.53c6.04,13.18,13.96,25.42,19.4,38.89
		c4.91,12.22,9.44,24.62,15.54,36.33c5.03,9.97,6.94,21.08,10.84,31.49c3.69,11.01,9.81,21.1,12.49,32.48
		c3.35,13,8.79,25.33,12.28,38.31c3.47,16.12,12.45,30.28,18.45,45.46c1.73,12.76,6.19,24.85,10.66,36.84
		c11.03,37.16,24.19,73.63,35.53,110.67c3.04,5.94,4.52,12.41,5.22,19.02c3.68,9.25,7.92,18.32,11.35,27.69
		c2.73,9.76,4.53,19.84,8.19,29.34c2.44,5.62,5.24,11.12,6.84,17.09c1.57,5.31,5.11,9.95,5.93,15.51
		c2.28,12.03,6.96,23.36,10.79,34.93c1.1,5.19,2.31,10.39,4.2,15.37c4.36,14.14,6.08,29.14,12.45,42.64
		c4.54,9.62,7.64,19.83,10.91,29.94c5.3,20.06,11.14,40.19,13.39,60.88c4.12,25.85,11.47,50.99,19.08,75.98
		c7.04,30.99,10.02,62.74,17.4,93.66c1.94,8.09,1.24,16.52,3.22,24.63c4,16.3,5.03,33.17,5.17,49.92
		c0.33,15.78,4.36,31.43,1.96,47.25c-2.16,11.11-1.21,22.59-3.64,33.67c-1.64,7.19-3.28,14.5-6.31,21.27
		c-6.59,9.63-9.22,21.81-18.01,29.92c-6.19,7.43-16.98,7.72-24.17,13.83c-4.49,4.15-10.87,4.33-16.6,4.87
		c-10.87,1.51-20.19,8.49-31.21,9.44c-10.88,0.99-21.92,0.58-32.61,3.12c-13.29,3.71-27.19,0.86-40.61,3.58
		c-8.6,1.43-17.28-0.36-25.91-0.42c-14.97-1-30.16-1.32-44.74-5.18c-13.53-2.32-25.53-9.33-37.86-14.94
		c-14.57-7.83-26.83-19.15-40.48-28.36c-10.24-6.7-19.08-15.3-29.75-21.35c-13.75-11.29-29.71-19.89-42.12-32.81
		c-7.92-8.67-19.29-13.12-27.17-21.82c-7.4-7.99-17.1-13.46-24.03-21.91c-5.43-6.9-12.84-11.97-17.88-19.19
		c-5.48-7.48-12.01-14.22-19.79-19.29c-12.16-10.08-22.28-22.4-34.85-32.02c-8.79-6.42-16.77-14.23-27.05-18.29
		c-4.06-2.4-6.34-6.87-10.31-9.39c-8.29-5.61-15.89-12.14-23.86-18.17c-8.11-8.61-16.96-16.55-26.64-23.38
		c-12.24-7.4-21.44-18.94-34.32-25.43c-15.23-3.83-31.17-1.2-46.12,2.6c-9.41,2.61-19.1,2.45-28.7,3.22
		c-15.63-1.73-32.06-1.72-46.5-8.73c-24.29-7.22-49.86-2.09-74.54-6.37c-9.72-0.68-20.09-1.81-27.87-8.27
		c-6.32-4.97-14.51-8.23-17.99-15.99c-3.13-6.89-4.71-14.34-6.87-21.55c-0.88-2.82-2.69-5.56-2.16-8.62
		c0.87-5.71-0.01-11.49,0.18-17.22c-6.69-4.07-14.33-7.13-18.88-13.87c-6.33-6.48-8.98-16.03-7.77-24.92
		c1.27-12.35,1.25-24.97-1.6-37.09c-9.11,1.54-17.15,6.81-26.27,8.17c-6.08-0.42-12.66-1.01-17.56-5
		c-6.62-5.05-12.37-11.16-17.55-17.64c0.41-5.12,1.73-10.26,1.48-15.4c-1.12-5.4-5.06-9.58-7.22-14.53
		c-4.25-9.12-7.96-18.76-9.1-28.76c2.4-8.06,8.78-14.16,12.46-21.64c7.55-11.39,13.07-24.22,22.69-34.1
		c5.83-4.4,13.38-5.39,20.02-8.09c-0.5-7.97,2.21-15.93,1.3-23.83c-3.03-3.76-7.98-5.15-12.55-5.76c-8.4-1.88-17.09-1.53-25.56-0.39
		c-4.39,0.88-9.3,0.58-13.14,3.18c-6.05,4.31-11.94,8.85-18.35,12.62c-17.25,8.98-24.43,28.22-37.03,41.92
		c-7.01,9.56-15.14,18.2-22.99,27.04c-6.62,10.19-12.84,20.66-19.02,31.13c-4.33,5.97-8.13,12.37-10.84,19.26
		c-2.78,6.14-7.09,11.43-10.21,17.39c-5.51,11.83-12.23,23.03-18.59,34.42c-3.19,6.09-7.49,11.78-8.76,18.69
		c-4.73,14.12-10.49,27.97-17.78,40.99c-2.06,3.85-3.82,7.91-4.45,12.29c-1.2,5.77-5.22,10.38-6.97,15.96
		c-2.61,7.83-3.61,16.57-9,23.21c-8.94,12.73-13.03,28.1-22.11,40.74c-5.76,10.13-10.21,20.94-14.11,31.91
		c-1.99,7.02-7.44,12.31-10.24,18.99c-5.12,8.31-8.12,17.85-14.25,25.55c-4.19,5.41-5.41,12.37-9.13,18.06
		c-1.7,2.59-3.28,5.26-4.64,8.06c-3.97,9.37-11.5,16.76-14.99,26.38c-6.87,12.46-13.29,25.36-22.74,36.14
		c-6.72,8.88-15.28,16.13-22.05,24.97c-5.18,6.12-10.16,12.43-15.82,18.15c-12.97,11.32-24.91,23.74-37.01,35.98
		c-12.72,10.78-25.39,21.91-40.44,29.4c-7.1,3.23-13.44,7.84-19.69,12.48c-5.49,4.19-12.31,6.07-17.91,10.11
		c-9.62,6.82-19.46,13.65-30.67,17.58c-2.58,0.15-5.08-0.79-7.58-1.27c-8.41,8.57-21.35,4.93-32.02,5.31
		c-16.43-0.24-33.27-5.99-44.67-18.16c-6.94-7.74-15.03-14.44-21.01-23c-6.92-9.78-14.73-18.93-20.77-29.3
		c-5.85-6.61-8.72-15.04-12.3-22.93c-6.34-10.73-10.75-22.43-15.87-33.76c-3.53-7.98-3.96-16.88-6.98-25.02
		c-1.79-5.64-4.98-10.74-6.51-16.45c-2.61-9.4-3.31-19.16-5.67-28.6c-1.5-7.95-3.73-15.78-4.3-23.87c-0.82-6.97-3.25-14.35-0.1-21
		c5.54-13.99,5.81-29.2,9.08-43.74c1.36-9.2,6.18-17.46,7.22-26.72c2.57-17.1,9.07-33.25,13.79-49.8
		c9.06-17.78,9.9-38.13,14.67-57.19c2.5-7.53,4.3-15.26,5.77-23.02c0.87-9.32,7.45-16.75,8.29-26.1
		c4.07-11.96,7.9-24.17,14.34-35.12c3.16-5.46,4.79-11.63,6.17-17.73c3.66-10.23,5.94-20.91,10.22-30.9
		c1.58-3.81,1.32-8.1,3.13-11.83c4.89-12.11,10.32-24.13,13.14-36.94c0.73-2.91,2.72-5.25,4.07-7.87
		c3.35-5.88,4.24-12.75,7.59-18.62c5.3-9.12,7.59-19.57,10.31-29.64c1.36-8.05,7.93-13.8,9.64-21.7c1.33-6.23,5.79-11.36,6.26-17.81
		c1.01-7.32,5.21-13.62,7.12-20.67c0.87-4.36,4.13-7.43,5.75-11.38c3.91-12.17,7.39-24.5,12.36-36.29
		c2.89-8.01,8.23-15.14,9.17-23.81c1.14-6.5,4.48-12.32,6.78-18.43c3.06-6.48,3.09-13.96,6.72-20.21
		c4.97-8.65,8.24-18.16,10.68-27.79c1.07-12.73,9.78-22.58,14.8-33.84c2.69-5.59,6.02-11.02,6.98-17.24
		c2.21-11.89,7.73-22.72,12.72-33.59c4.91-19.24,15.2-36.41,21.88-54.98c4.2-15.33,13.13-28.68,19.35-43.17
		c6.47-15.15,13.72-30,22.66-43.87c3.44-5.31,4.89-11.63,8.49-16.83c5.01-8.15,12.03-14.92,16.49-23.42
		c3.74-7.9,12.3-11.6,18.24-17.53c7.7-6.96,15.3-14.16,24.69-18.86c9.5-6.69,20.79-9.82,31.21-14.68c2.71-1.3,5.7-1.74,8.48-2.85
		c7.03-3.54,13.5-8.33,21.2-10.43c9.46-2.87,17.47-9.39,27.33-11.05c14.07-3.84,28.17-7.94,41.32-14.34
		c18.76-9.7,40.24-12.26,59.27-21.36c26.85-8.48,53.88-16.48,80.17-26.62c12.4-7.3,25.9-13.02,36.69-22.75
		c7.99-5.63,13.64-13.66,18.88-21.74c-46.47-37.95-82.3-87.83-107.07-142.25c-32.76-71.57-47.5-150.6-47.92-229.08
		c-1.1-85.59,16.25-171.99,54.07-249c19.5-39.32,44.76-76.06,76.21-106.79C-181.55-517.82-144.37-542.56-103.11-556.21
		 M-37.55-552.5c-66.4,4.04-128.23,38.79-172.56,87.38c-55.41,61.07-89.21,139.28-105.5,219.51c-17.97,85.3-13.9,174.63,8.63,258.68
		c17.85,65.03,48.05,127.3,92.49,178.39c28.38,31.67,63.09,58.18,102.53,74.47c33.17,13.65,69.62,21.24,105.51,16.53
		c53.87-5.72,103.95-32.1,143.66-68.25c58.07-54.88,95.42-128.62,115.82-205.19c18.35-68.73,23.69-140.98,14.42-211.56
		c-8.37-69.62-29.65-138.08-65.25-198.68c-19.41-31.83-41.96-62.21-70.38-86.61c-26.53-23.28-57.34-41.9-90.89-53.1
		C15.79-549.44-10.95-554.27-37.55-552.5 M91.25,268.26c-26.13,14.33-54.65,24.57-84.2,28.78c-25.76,3.36-52.02,2.66-77.62-1.55
		c-37.27-6.26-72.01-22.93-102.94-44.24c-6.41,7.39-9.51,17.69-18.54,22.56c-4.61,2.59-8.59,6.09-12.73,9.34
		c-12.07,8.48-25.3,15.33-39.26,20.09c-15.22,8.2-32.35,11.24-48.41,17.22c-10.23,3.37-20.95,5.5-30.65,10.33
		c-13.54,5.67-27.97,8.65-41.81,13.44c-7.94,2.69-14.36,8.76-22.66,10.52c-13.78,3.63-27.02,8.94-40.59,13.21
		c-11.82,5.38-23.89,10.16-35.95,14.97c-12.3,7.15-26.03,11.48-38.26,18.8c-7.91,4.9-14.66,11.39-22.1,16.94
		c-6.49,4.73-9.58,12.32-14.54,18.36c-5.96,7.08-12.91,13.68-16.48,22.41c-4.55,10.6-11.97,19.62-17.01,29.96
		c-7.79,20.24-21.07,38.06-27.13,58.99c-2.6,7.75-6.58,14.91-9.75,22.42c-5.11,9.26-5.89,20.2-11.34,29.33
		c-8.16,14.84-11.91,31.48-19.36,46.64c-2.99,9.61-7.75,18.5-11.47,27.83c-0.99,2.86-3.67,4.43-6.07,6
		c-0.94,6.2-1.39,12.55-3.44,18.54c-5.9,15.82-13.16,31.18-17.52,47.54c-8.11,24.32-19.86,47.21-27.89,71.58
		c-3.91,8.77-4.64,18.93-10.36,26.86c-5.62,7.82-5.29,18.06-9.66,26.45c-7.52,12.5-9.75,27.09-15.8,40.24
		c-5.78,11.28-9.16,23.56-13.51,35.43c-2.94,6.8-6.15,13.53-7.98,20.75c-3.75,16.63-12.27,31.71-15.96,48.34
		c-5.57,11.32-8.46,23.68-13.82,35.08c-6.49,13.65-8.66,28.77-13.89,42.89c-2.41,11.33-5.22,22.59-8.54,33.7
		c-1.73,5.9-0.81,12.49-3.69,18.07c-2.56,6.04-2.31,12.79-4.07,19.06c-0.77,6.57-3.98,12.37-6.54,18.35
		c-1.99,5.06-3.47,10.31-5.78,15.26c-2.46,5.29-2.3,11.26-4,16.78c-2.93,9.38-3.34,19.42-6.99,28.61
		c-2.18,5.37-3.13,11.07-3.78,16.83c-0.91,11.5-4.49,22.6-6.55,33.93c0.01,9.34-1.44,18.69-1.25,28.04
		c1.01,5.79,3.19,11.44,3.18,17.41c0.1,7.3,2.14,14.38,3.88,21.43c2.21,8.29,3.71,16.83,7.18,24.75c2.21,4.87,2.28,10.43,4.64,15.27
		c7.57,11.41,8.29,25.75,15.75,37.23c4.76,8.81,11.22,16.64,15.42,25.76c3.19,5.89,8.22,10.55,11.35,16.51
		c7.63,12.85,19.5,22.25,30.05,32.57c13.09,5.32,26.05,12.11,40.51,12.47c9.99-1.04,19.01-5.88,28.17-9.68
		c18.14-8.1,34.61-19.23,51.28-29.91c4.41-2.75,7.94-7.24,13.25-8.31c5.94-1.3,9.98-6.27,14.31-10.1
		c5.97-6.1,12.76-11.28,19.24-16.78c16.94-16.06,33.78-32.35,48.43-50.57c7.06-7.39,13.5-15.38,18.96-24.03
		c4.85-7.71,11.48-14.31,15.21-22.7c4.31-9.6,9.29-18.97,15.78-27.29c8.6-14.25,14.89-29.79,24.37-43.52
		c7.36-14.12,15.88-27.74,21.26-42.8c1.9-5.85,4.03-11.62,7.38-16.8c8.32-12.73,12.56-27.78,22.02-39.82
		c5.8-8.66,6.85-19.36,11.79-28.44c3.42-6.08,4.94-12.96,7.76-19.3c5.51-16.44,15.45-30.89,21.91-46.91
		c2.45-9,5.66-17.72,9.84-26.04c4.73-10.8,12.7-19.93,16.54-31.14c2.97-5.95,7.01-11.28,10.34-17.01
		c7.32-11.26,11.62-24.31,20.43-34.63c5.49-5.98,7.18-14.38,12.6-20.41c8.15-9.82,18.06-18.47,23.62-30.19
		c1.92-4.22,4.75-7.86,7.64-11.43c7.98-11.19,17.57-21.15,28.1-29.94c4.71-3.66,10.46-5.57,15.58-8.54
		c13.56-8.49,29.58-15.11,45.91-12.79c10.85-0.06,21.63,2.28,31.03,7.88c5,3.07,11.01,1.24,16.43,0.94
		c7.72-1.05,15.44-2.23,23.03-4.1c8.82-1.25,17.84-0.45,26.65-2.14c14.06-4.02,28.72-7.07,43.43-5.88
		c13.9-0.18,27.84,1.19,41.73-0.02c3-0.65,4.71-3.77,7.02-5.48c5.12-5.76,10.24-11.6,13.46-18.67c4.62-7.15,5.44-15.73,7.3-23.83
		c-4.34-3.99-9.31-7.66-15.46-7.94c-8.56-0.04-17.16-0.4-25.68,0.56c-7.79,0.39-15.57,1.97-23.35,0.79
		c-1.8-0.22-3.87-1.27-3.76-3.35c-1.09-5.55,2.28-11.4,7.71-13.09c12.13-2.18,24.39-5.95,36.83-4c8.47-0.05,16.99,0.34,25.45-0.36
		c4.51-0.37,6.62-4.91,8.56-8.34c5.89-8.92,7.81-20.77,4.13-30.89c-3.04-5.08-6.42-11.47-12.65-12.79
		c-11.26,0.79-22.56,0.96-33.84,1.31c-2.97-0.45-6.63,1.51-9.36-0.49c-4.76-2.84-7.99-7.46-10.98-11.99
		c2.92-3.47,6.22-7.06,10.9-7.88c14.06-3.32,28.78,1.29,42.9-2.3c7.32-2.01,13.5,5.55,20.96,3.25c6.85-3.03,11.72-9.24,13.77-16.36
		c1.84-6.18,6.96-11.66,6.13-18.41c-0.65-6.25-0.74-12.64-2.42-18.7c-2.61-5.62-10.04-5.14-15.12-5.51
		c-10.43,0.85-20.85-2.22-31.19-0.05c-7.22,0.62-14.47,0.23-21.68,0.87c-4.26-0.2-9.7,1.38-13.08-2.17
		c-4.3-3.64-2.47-10.04-1.37-14.63c4.54-6.45,13.36-3.26,19.97-4.47c5.21-0.63,10.44-0.17,15.61,0.7
		c9.94,0.87,19.32-3.97,29.24-3.69c4.1-0.15,9.14,1.36,11.4-3.26c6.87-11.05,10.01-25.19,6.49-37.92
		c-0.71-4.94-3.46-9.45-7.51-12.33c-30.54-8.02-62.81-7.8-93.88-3.2c-13.61-1.23-26.25,4.26-39.24,7.18
		c-20.25,5.34-37.47,17.5-55.31,27.88c-7.04,5.27-14.59,9.81-21.61,15.12c-8.08,4.84-17.87,7.64-23.8,15.41
		c-2.7,3.6-7.16,4.88-10.77,7.26c-12.46,8.43-22.92,19.62-36.13,26.99c-1.86,1.44-3.1,3.5-4.73,5.18
		c-4.98,5.4-12.45,7.24-18.13,11.71c-8.24,6.24-17.67,10.74-25.54,17.47c-3.61,3.02-7.83,5.14-12.15,6.97
		c-11.48,4.54-22.15,11.24-31.1,19.74c-5.85,5.01-13.89,7.14-18.44,13.68c-4.46,5.57-11.28,8.88-14.92,15.15
		c-4.94,7.93-14.09,11.47-21.53,16.48c-4.64,4.05-6.4,10.15-9.8,15.12c-9.73,14.38-21.98,26.78-32.37,40.67
		c-5.92,6.33-8.06,14.97-12.71,22.14c-6.6,12.23-15.77,22.62-24.57,33.22c-9.92,21.03-29.64,34.65-43.75,52.56
		c-10.88,12.68-22.37,24.9-34.75,36.12c-7.11,12.72-20.25,19.78-30.68,29.31c-3.61,5.61-8.03,10.6-13.42,14.59
		c-8.05,5.78-11.99,15.31-18.79,22.3c-7.91,9.22-19.34,14.6-26.85,24.22c-12.91,15.05-28.95,27.09-41.11,42.8
		c-8.05,10.26-18.26,18.44-27.46,27.59c-8.76,9.58-18.18,18.57-26.26,28.76c-6.15,5.28-14.11,8.2-19.7,14.23
		c-3.11,3.05-5,7.03-7.75,10.38c-4.6,5.09-10.18,9.14-15.41,13.55c-7.5,7.25-17.01,12.14-23.73,20.26
		c-8.81,7.92-14.31,18.52-20.82,28.26c-2.75,3.83-2.98,8.6-4.2,12.99c-2.3,3.74-6.03,6.33-9.62,8.74
		c-3.16-4.51-7.09-8.39-10.61-12.57c2.32-7.6,10.71-11.19,14.37-18.07c2.67-6.36,8.38-10.8,10.39-17.51c1.77-3.5,5.64-5.44,7.12-9.1
		c2.41-5.14,4.37-10.66,8.23-14.91c3.13-3.75,7.56-6,11.63-8.55c5.97-3.16,9.37-9.36,15.04-12.94c5.14-3.83,8.62-9.27,12.96-13.89
		c6.92-7.78,16.14-13.22,22.24-21.76c4.8-6.5,11.8-10.86,17.32-16.66c4.14-4.55,8.47-8.9,13.19-12.85
		c6.11-4.89,10.48-11.47,16.36-16.59c13.36-11.36,21.82-27.52,36.15-37.87c8.67-6.26,15.05-15.04,23.53-21.52
		c10.25-8.16,16.71-19.86,26.61-28.34c11.64-11.01,23.18-22.19,33.92-34.07c12.78-9.08,22.24-21.77,33.44-32.57
		c3.93-3.56,6.34-8.36,9.5-12.53c5.19-7.1,12.26-12.4,18.35-18.64c5.89-5.6,9.03-13.67,15.8-18.39c4.79-3.62,6.29-10.12,11.37-13.43
		c5.35-3.8,8.4-9.88,11.77-15.3c4.76-8.73,11.34-16.3,15.59-25.31c4.77-10.49,13.91-18.08,18.78-28.49
		c5.17-10.25,13.47-18.25,21.64-26.08c6.39-8.55,11.37-18.35,19.63-25.37c8.75-7.53,17.34-15.28,25.15-23.78
		c9.92-6.89,21.31-12.39,28.6-22.4c2.64-3.93,6.73-6.42,11.15-7.89c7.61-2.34,13.38-8.1,20.38-11.66c8.3-4.1,15.61-9.85,23.81-14.11
		c5.56-3.2,12.62-4.01,17.04-9.03c4.51-4.79,9.91-8.77,13.71-14.2c1.88-0.45,3.85-0.69,5.62-1.54c2.63-2.64,4.06-6.51,7.6-8.18
		c5.83-2.78,11.77-5.45,17.13-9.09c4.68-3.24,7.29-8.62,11.8-12.03c12.09-7.91,23.91-16.23,36.17-23.88
		c6.75-4.03,12.14-10.03,19.4-13.26c6.44-2.64,12.06-6.87,18.27-9.98c8.78-4.21,15.25-12.18,24.51-15.53
		c6.72-2.39,12.73-6.27,19.08-9.39c8.13-1.51,16.38-2.34,24.51-4c12.05-0.98,24.25-0.88,36.21-2.87c8.16-1.7,16.6-0.23,24.74-2.14
		c4.5-1.27,8.82,2.43,13.25,0.99c6.02-2.2,12,1.79,18.06,2.25c11.6,0.57,23.1,2.46,34.5,4.67c5.81,9.93,14.7,18.42,16.87,30.15
		c0.71,5.36-3,12.18,1.67,16.63c4.37,4.44,5.72,11.5,11.59,14.47c7.03,3.75,12.53,10.43,20.52,12.27c6.07,1.3,12.23,2.26,18.31,3.64
		c0.33,0.56,1,1.68,1.33,2.24c-0.61,1.82-1.23,3.65-1.85,5.48c1.6,1.03,3.2,2.08,4.82,3.11c-3.06,5.92-2.77,12.88-5.71,18.84
		c-4.05,9.94-9.12,19.44-15.23,28.26c-7.41,10.45-19.03,17.36-31.13,21.03c-9.83,3.39-20.24,6.52-27.94,13.85
		c-2.2,1.66-4.9,3.94-4.74,7.02c0.41,7.02,2.04,13.95,2.28,21.03c-0.68,8.14-4,15.69-6.42,23.4c-2.66,6.65-7.77,12.12-10.14,18.9
		c-0.64,6.7,1.27,13.53,0.23,20.24c-1.48,4.56-4.06,8.73-4.96,13.51c-1.93,12.51-12.37,20.96-18.03,31.74
		c4.2,1.72,8.56,2.91,12.89,4.31c11.25,4.62,19.59,13.92,30.15,19.7c13.59,7.47,25.41,17.69,36.54,28.38
		c3.08,2.64,7.5,3.57,9.97,6.93c5.14,9.18,12.29,17.09,20.28,23.9c4.7,4.96,7.62,11.63,13.39,15.55
		c12.41,8.4,21.59,20.55,33.86,29.16c11.92,7.51,21.03,18.5,29.41,29.62c7.93,7.77,14.99,16.72,24.67,22.44
		c11.07,7.21,16.46,20.1,26.54,28.41c3.94,3.51,9.1,5.29,12.86,9.09c6.14,5.47,11.55,12,19.28,15.39
		c9.43,2.77,14.68,11.63,22.57,16.82c8.82,8.34,19.32,14.59,30.37,19.54c4.47,1.84,7.58,5.76,11.86,7.9
		c12.53,4.61,23.51,12.55,36.17,16.88c11.82,2.87,23.47,6.84,33.92,13.18c9.03,4.27,17.41,10.57,27.56,11.93
		c13.04,2.67,24.73,9.51,37.56,12.89c11.23,2.03,21.89,6.27,32.2,11.06c7.35,3.75,15.77,4.15,23.64,6.23
		c11.31,2.3,22.64,5.22,34.25,5.48c5.84,0.97,10.21,5.58,15.74,7.53c12.11,4.52,24.43,8.5,36.86,12.05
		c10.3,2.33,20.17,6.43,29.06,12.14c6.14,4.35,13.74,6.35,19.2,11.72c7.69,6.78,16.16,12.53,24.51,18.48
		c3.55,2.41,5.59,6.88,5.11,11.14c-0.81,9.15-14.55,15.69-20.31,7.09c-9.99-10.56-21.93-18.93-34.24-26.5
		c-15.58-7.37-31.29-14.71-47.92-19.38c-3.48-1.08-7.31-1.38-10.3-3.62c-5.85-4.2-13.02-5.75-19.91-7.18
		c-18.19-3.73-35.92-9.27-53.93-13.7c-12.71-1.84-24.13-8.22-36.29-11.99c-13.72-3.71-27.17-8.36-40.2-14.02
		c-8.16-3.56-17.29-4.51-25.12-8.79c-10.36-6.97-22.35-10.87-34.04-14.89c-13.93-4.37-26.68-11.65-40.29-16.81
		c-11.11-5.44-20.49-13.82-31.48-19.47c-12.72-6.2-23.16-15.98-33.62-25.3c-12.9-10.1-26.13-19.81-38.63-30.41
		c-10.5-12.76-22.25-24.42-34.52-35.46c-7.93-6.06-14.01-14.06-21.5-20.56c-4.79-4.58-8.61-10.04-13.09-14.88
		c-7.16-6.84-15.56-12.37-21.98-19.97c-5-5.97-10.69-11.35-16.41-16.59c-6.2-4.77-13.78-8.17-18.33-14.78
		c-5.04-8.03-13.3-13.25-18.88-20.8c-4.97-8.49-11.46-16.3-20.31-20.9c-11.46-6.22-19.1-17.93-31.5-22.51
		c-7.36-2.78-13.07-8.36-19.78-12.26c-13.24-9.55-30.36-9.58-45.9-11.69c-9.59-1.52-19.09,1.64-28.68,0.86
		c-6.57-0.3-12.99,2.35-19.57,1.26c-9.73-2.46-19.14,2.41-28.87,2.08c-15.62-0.14-29.46,8.69-44.98,9.57
		c-1.15,7.81-5.58,15.58-2.59,23.51c2.94,7.93,5.62,15.95,8.05,24.07c1.34,0.32,4.01,0.96,5.35,1.28c1.68,4.36,4.1,9.84,9.23,10.93
		c8.62,1.36,17.44-0.14,25.98,2c9.99,1.98,20.57,0.49,30.31,3.85c5.27,2.05,3.35,9.18,4.24,13.53c-0.92,4.99-6.66,6.64-10.9,7.81
		c-4.44-0.29-8.43-2.76-12.81-3.4c-15.59-1.92-31.41-1.32-46.78-4.95c-1.73,3.44-3.34,6.94-5.07,10.38
		c-5.55,9.58-4.53,21.22-4.46,31.88c0.94,6.74,1.35,14.86,7.3,19.21c9.38,7.85,21.81,10.17,33.54,12.14
		c7.64,0.39,15.32,0.29,22.88,1.88c6.73,1.47,13.41-0.52,19.92-2.06c1.42,7.42,3.09,15.54-1.93,22.13c-1.5,3.85-6.08,2.42-9.02,1.44
		c-7.37-2.99-15.34-4.47-23.28-3.71c-3.15,0.4-6.18-0.63-9.2-1.3c-6.86-2.32-13.93,0.38-20.92-0.22c-4.1,6.39-1.54,14.11-0.93,21.06
		c0.71,4.87,0.27,9.78,1.13,14.67c3.34,5.68,9.95,8.7,16.3,9.57c16.58,4.57,34,4.2,50.48,9.23c6.03,2.02,13.38,2.48,18.06,7.29
		c0.56,4.12-1.1,10.56-5.95,11.35c-14.59-1.24-29.24-1.63-43.83-2.73c-3.31-0.17-7.03-0.82-9.75,1.49
		c-2.46,4.11,0.6,8.49,1.71,12.51c2.62,6.72,1.61,14.81,6.54,20.55c8.32,10.2,22.09,13.69,34.71,13.93
		c22.69-1.85,45.65-1.5,68.03,3.02c7.83,1.55,14.55,6.82,22.61,7.41c8.68,0.34,17.38,1.8,26.08,0.83
		c12.35-0.72,24.79-0.97,36.94-3.64c4.22-0.07,7.85-2.16,11.17-4.49c6.08,2.58,12.78,1.67,19.19,2.5
		c5.41,2.89,10.22,6.98,15.95,9.38c12.39,4.53,22.77,13.05,32.44,21.8c7.93,5.25,14.85,11.81,21.8,18.27
		c8.26,9.31,19.47,15.07,28.58,23.42c14.97,13.69,33.41,22.89,48.24,36.74c7.88,6.18,12.86,15.54,21.75,20.54
		c9.84,6.7,15.22,17.92,24.25,25.53c5.65,4.66,10.21,10.43,15.64,15.35c8.65,8.78,19.74,14.77,28.08,23.89
		c4.69,6.07,11.55,9.72,17.1,14.83c7.13,9.13,16.97,15.62,26.88,21.39c23.78,19.31,49.85,35.6,73.07,55.61
		c6.41,4.31,13.25,7.95,19.54,12.48c8.5,4.73,18.23,6.36,27.55,8.81c32.97,8.24,67.3,7.65,100.99,5.43
		c6.07-0.33,11.68-3.16,17.82-3.2c12.16-1.05,24.46-2.75,35.84-7.41c8.64-3.57,17.6-6.29,26.68-8.54c5.23-1.35,9.04-5.45,13.32-8.49
		c6.46-4.52,10.89-11.17,16.9-16.17c6.3-5.59,3.42-15.15,6.39-22.25c5.72-12.24,3.12-26.4,3.51-39.41
		c-2.05-11.2,0.88-22.55-1.74-33.66c-0.96-6.41,0.01-12.91-0.86-19.32c-3-20.99-4.14-42.2-7.6-63.12
		c-1.2-11.59-4.97-22.65-6.99-34.07c-2.12-12.27-3.32-24.7-6.21-36.83c-2.24-16.58-5.2-33.28-11.35-48.91
		c-5.59-14.2-5.98-29.62-10.71-44.03c-1.27-11.99-4.13-23.68-6.64-35.44c-2.04-13.65-6.22-26.84-9.45-40.23
		c-2.47-10.44-7.57-19.98-10.11-30.39c-2.21-8.93-7.11-16.99-8.15-26.23c-4.21-14.36-9.95-28.31-12.56-43.1
		c-7.5-19.29-12.8-39.32-20.56-58.51c-3.23-10.1-5.16-20.63-9.71-30.27c-3.79-7.77-4.05-16.79-8.52-24.26
		c-5.74-10.38-6.18-22.53-10.62-33.39c-5.04-16.04-12.61-31.21-16.71-47.53c-4.49-12.42-7.64-25.28-12.18-37.68
		c-4.77-12.97-7.1-26.68-11.82-39.63c-3.87-5.84-6.62-12.33-8.54-19.05c-4.67-15.45-11.77-30.03-16.37-45.5
		c-2.14-7.78-5.88-14.93-8.5-22.52c-2.66-10.69-7.8-20.5-11.08-30.98c-4.61-15.09-9.94-29.97-16.95-44.11
		c-6.95-13.29-11.72-27.62-19.41-40.53c-5.09-10.53-10.28-21.18-17.86-30.17c-6.2-6.36-8.49-15.67-15.97-20.93
		c-7.53-5.86-13.82-13.28-22.07-18.17c-7.39-4.9-15.56-8.41-23.42-12.44c-12.07-5.94-23.94-12.3-36.29-17.64
		c-14.29-7.63-30.19-11.4-44.9-18.1c-10.7-3.39-19.56-10.82-30.4-13.79c-11.2-3.17-22-7.57-32.59-12.34
		c-11.36-5.39-23.65-8.32-35.38-12.72c-28.43-11.87-58.5-22.09-82.04-42.73c-7.96-6-13.22-14.6-18.79-22.67
		C113.55,254.18,102.77,261.83,91.25,268.26 M71.5,640.18c-0.28,12.82,9.61,23.18,9.79,35.96c-0.5,7.26-3.53,14.25-2.41,21.63
		c7.34-2.55,13.47-7.65,19.45-12.43c5.97-7.32,8.82-16.46,12.12-25.16c-4.39-1.77-8.88-3.22-13.29-4.87
		c-2.87-2.27-4.98-5.47-8.3-7.19C83.28,645.09,78.02,640.7,71.5,640.18 M-187.94,956.03c-2.81,7.42-10.63,11.55-12.83,19.29
		c-1.11,4.18-3.61,8.03-4.26,12.29c4.16,13.67,12.76,25.39,19.53,37.84c1.42,2.59,0.14,5.57-0.12,8.31
		c2.05,2.31,4.09,4.58,6.17,6.93c4.77-1.08,9.12-3.31,13.4-5.57c-1.15-7.31-2.14-14.7-2.12-22.08c0.44-5.02,1.39-9.99,1.66-15.01
		c-0.12-7.74,4.48-14.32,5.91-21.71c0.55-5.25,1.9-10.32,3.51-15.31c-5-6.96-9.05-14.5-13.47-21.81
		C-178.15,942.35-184.72,948.4-187.94,956.03 M907.13-168.01c0.04-5.38,6.51-8.69,11.26-6.43c3.7,1.37,4.97,5.81,4.49,9.44
		c0.52,20.65-0.13,41.32,0.14,61.99c21.65,0.29,43.32-0.46,64.99,0.14c5.38,0.04,8.66,6.53,6.43,11.26
		c-1.36,3.69-5.86,5.01-9.44,4.49c-20.66,0.53-41.33-0.12-61.99,0.14c-0.3,21.66,0.45,43.33-0.14,64.99
		c-0.03,5.38-6.56,8.68-11.26,6.43c-3.67-1.37-5.06-5.83-4.49-9.44c-0.54-20.66,0.11-41.33-0.14-61.99
		c-21.67-0.29-43.34,0.45-64.99-0.14c-5.38-0.04-8.71-6.54-6.43-11.26c1.38-3.68,5.77-5.03,9.44-4.49
		c20.64-0.53,41.31,0.12,61.99-0.14C907.27-124.68,906.53-146.36,907.13-168.01L907.13-168.01z"/>
</g>
</svg>
