<?xml version="1.0" encoding="iso-8859-1"?>
<!-- Generator: Adobe Illustrator 28.5.0, SVG Export Plug-In . SVG Version: 9.03 Build 54727)  -->
<svg version="1.1" id="Layer_1" xmlns="http://www.w3.org/2000/svg" xmlns:xlink="http://www.w3.org/1999/xlink" x="0px" y="0px"
	 viewBox="0 0 1920 1080" style="enable-background:new 0 0 1920 1080;" xml:space="preserve">
<g>
	<path style="fill:#FFFFFF;" d="M-8-574h1935v2228H-8V-574 M1302.71-524.33c-42.8,14.13-82.42,37.89-115.09,68.91
		c-15.04,11.23-26.69,26.12-38.56,40.47c-19.26,23.58-34.87,50.21-45.19,78.88c-4.16,11.58-6.93,23.6-10.85,35.26
		c-11.91,41.65-10.66,85.73-5.45,128.34c3.47,34.57,12.22,68.27,17.23,102.61c2.42,14.81,4.28,29.88,2.35,44.89
		c-4,32.32-16.51,62.76-29.98,92.15c-1.66,4.05-1.55,9.6,2.13,12.49c15.43,11.89,29.73,25.76,38.72,43.31
		c6.37,11.13,8.62,23.9,11.48,36.24c4.31,26.19,4.16,52.87,8.08,79.11c2.11,16.77,6.24,34.37,17.66,47.42
		c9.04,9.94,20.63,17.88,33.74,21.31c9.77,2.67,19.73,5.78,29.99,5.18c12.11-0.27,24.42,0.87,36.36-1.83
		c17.82-2.24,35.08-7.56,51.48-14.76c-0.54,7.5-0.36,15.03-0.97,22.54c-3.97,16.34-3.38,33.48-8.12,49.68
		c-4.94,13.72-8.65,27.85-13.89,41.47c-2.38,10.81-6.87,21.16-13.55,30.02c-11.34,11.68-24.39,21.52-36.73,32.06
		c-6.9,9.72-14.52,18.88-22.04,28.12c-12.61,13.55-20.46,30.61-31.91,45.04c-6.09,7.42-8.53,16.98-14.69,24.36
		c-5.61,6.67-7.41,15.52-12.41,22.59c-9.65,13.01-16.73,27.7-23.98,42.13c-8.36,14.28-15.36,29.28-22.69,44.1
		c-14.92,24.84-25.7,51.87-40.15,76.95c-1.95,3.23-3.59,6.65-4.81,10.22c-5.28,16.54-13.46,31.95-21.76,47.12
		c-7.14,13.61-10.14,29.19-19.11,41.86c-14.37,25.74-24.57,53.46-36.63,80.3c-6.35,14.09-10.59,29.19-18.81,42.39
		c-12.03,24.09-23.67,48.39-35.26,72.7c-5.17,15.53-10.28,31.1-15.82,46.52c-2.45,6.63-7.98,11.55-10.26,18.28
		c-3.96,9.16-7.45,18.64-13.24,26.85c-4.34,6.16-8.74,12.97-15.88,16.09c-6.49,2.84-12.04,7.35-18.15,10.87
		c-6.99,3.83-15.42,1.76-22.97,2.07c-40.64-3.3-81.17-8.41-121.29-15.66c-28.79-1.4-57.02-7.54-85.7-10.04
		c-14.42-0.86-28.86-1.68-43.15-3.88c-13.64-0.13-27.44,0.19-40.78,3.25c-7.24-2.43-11.18-10.17-17.81-13.81
		c-12.66-6.87-23.01-17.05-34.43-25.66c-14.62-11.3-27.19-25.02-38.3-39.72c-4.81-6.16-8.1-14.04-15.39-17.71
		c-7.07-4.05-11.44-11.24-18.19-15.67c-7.06-5.48-16.17-6.88-23.8-11.29c-4.11-2.27-8.57-3.81-13.12-4.93
		c-11.71-2.95-22.33-9.07-34.19-11.55c-16.98-3.86-33.77-9.7-48.01-19.97c-12.87-6.3-23.84-15.61-35.81-23.34
		c-10.71-7.14-19.58-16.89-31.13-22.78c-7.36-3.84-14.45-8.41-22.48-10.75c-5.5-1.57-11.41-3.4-16.99-1.04
		c-8.23,2.61-13.64,10.2-17.25,17.61c-1.1,7.39-2.65,15.11-0.88,22.56c1.93,13.64,11.26,24.46,18.25,35.8
		c6.44,11.3,17.45,18.58,26.7,27.34c4.52,3.84,9.77,6.78,13.87,11.14c8.95,9.46,18.53,18.66,29.89,25.18
		c4.58,2.35,9.68-1.23,13.29-3.79c3.86-4.58-1.46-10.56-2.69-14.98c-5.49-5.88-13.97-6.86-20.03-11.85
		c-6.01-4.98-11.97-10.02-17.62-15.4c-8.69-8.25-19.27-14.86-25.78-25.16c-4.45-7.03-9.66-13.66-12.9-21.36
		c-2.88-5.9-2.65-12.83-1.7-19.15c1.28-2.96,2.2-7.34,5.83-8.03c8.03-1.28,15.78,2.42,21.7,7.54c8.24,7.07,17.77,12.34,26.76,18.37
		c11.56,8.1,21.91,18.34,35.2,23.68c6.03,2.19,10.55,6.92,16.16,9.88c12.69,6.84,26.14,12.44,40.21,15.73
		c12.27,3.35,24.81,6.56,35.99,12.82c12.23,6.09,27.56,7.32,36.65,18.58c4.55,4.81,10.07,8.57,14.82,13.19
		c7.85,8.05,14.05,17.45,20.4,26.68c5.04,8.02,14.26,11.61,20.95,17.96c16.9,16.74,36.06,31.12,56.03,43.99
		c17.64,13.17,32.91,29.15,49.86,43.15c7.93,6.13,13.17,14.82,19.59,22.37c8.81,10.34,13.77,25.31,7.93,38.36
		c-2.93,6.92-14.96,6.43-17.63-0.61c-11.68-17.9-30.82-29.11-50.34-36.61c-6.87-3.39-14.56-0.99-21.72-2.42
		c-5.79-1.68-6.65-8.28-9.21-12.78c-7.05-12.9-17.03-24.53-29.72-32.12c-7.3-3.59-15.05-6.45-23.02-8.03
		c-7.12-0.36-14.22,0.28-21.29,0.9c-3.39-4.73-4.01-10.73-7.05-15.62c-2.82-4.39-4.06-9.53-5.74-14.38
		c-3.37-13.61-15.96-21.75-26.97-28.87c-7.17-5.16-16.33-4.07-24.56-5.82c1.58-5.91,5.47-11.41,4.2-17.82
		c-0.93-20.37-14.55-39.21-33.53-46.56c-8.94-4.97-19.67-3.83-29-0.7c-9.49,4.01-17.22,11.36-23.37,19.49
		c-3.77,5.59-6.8,12.11-6.33,19.05c2.47,12.05,8.03,23.5,16.01,32.87c11.17,10.07,26.28,13.22,40.64,15.52
		c4.46,0.59,4.18,6.14,3.3,9.38c-1.84,9.1,1.31,18.08,2.35,27.07c0.49,3.48,3.67,5.51,5.96,7.84c6.95,6.09,13.57,13.19,22.35,16.67
		c11.28,4.94,23.82,5.45,35.96,5.42c4.15-0.05,5.57,4.68,6.75,7.77c3.11,6.63,4.37,14.29,8.75,20.28
		c10.5,9.88,23.54,16.65,36.71,22.26c10.11,4.1,20.34-0.62,30.23-2.95c1.14,6.34,2.02,12.78,3.73,19.04
		c2.41,7.7,7.74,14.05,10.7,21.54c-10.44,0.56-21.64-0.76-30.45-6.86c-6.36-4.07-14.18-4.28-21.09-7
		c-7.78-2.2-13.83-8.09-21.64-10.16c-9.05-2.46-17.61-6.28-26.32-9.67c-12.25-3.68-24.9-6.06-37.63-7.26
		c-23.06-0.27-45.85,3.76-68.69,6.37c-11.2,1.16-21.95,4.7-32.88,7.22c-10.53,2.47-21,5.28-31.26,8.73
		c-8.14,3.22-12.17,11.69-16.23,18.93c-6.63-0.78-10.11-6.69-14.52-10.87c-5.61-5.83-12.71-9.86-18.51-15.44
		c-7.5-6.17-13.16-14.32-21.21-19.83c-12.11-9.1-23.21-19.41-34.6-29.37c-5.79-4.9-9.93-11.49-16.33-15.71
		c-9.43-6.83-17.03-16.09-27.4-21.57c-13.35-5.81-27.92-11.19-42.63-7.58c-5.71,0.45-9.04,6.01-11.48,10.57
		c-3.06,5.42-1.82,12.03-1.84,18.01c-0.09,8.76,4.92,16.26,9.74,23.14c9.98,13.82,18.61,28.56,28.76,42.26
		c13.1,18.02,28.18,34.46,43.22,50.86c5.18,5.86,12.04,9.88,17.27,15.7c4.66,5.01,9.58,9.77,14.72,14.3
		c15.2,17.82,28.57,37.21,45.1,53.89c17.13,18,35.74,35.13,57.5,47.39c12.78,5.16,23.8,14.86,37.94,16.36
		c17.95,4.69,36.49,6.1,54.97,7.06c32.46,2.04,64.94,3.83,97.47,3.84c19.61,0.55,39.32,0.78,58.76,3.7
		c25.87,3.01,51.97,4.45,77.54,9.6c10.17,2.06,19.31,7.19,28.94,10.89c17.75,6.54,35.96,11.73,53.7,18.28
		c11.17,4.8,23,7.81,34.06,12.86c11.36,4.11,23.87,5.22,34.26,11.83c10.48,6.15,22.41,8.72,33.87,12.35
		c18.57,6.8,36.23,15.89,55.32,21.33c12.17,2.91,22.91,9.63,34.82,13.33c11.44,3.55,21.37,10.98,33.12,13.67
		c10.57,1.56,19.68,7.89,30.42,8.91c19.06,3.07,37.87,7.31,56.5,12.39c20.02,3.59,39.38,10.19,59.46,13.51
		c26.99,3.81,54.3,2.47,81.47,2.55c13.22,0.23,26.36-3.45,37.69-10.22c8.75-4.17,16.97-9.38,24.21-15.85
		c7.86-8.09,13.1-18.17,19.9-27.07c10.58-14.9,24.79-26.74,35.13-41.84c4.47-6.85,10.56-12.61,13.95-20.14
		c2.98-6.61,8.18-11.81,12.23-17.73c4.54-6.22,7.93-13.21,12.75-19.22c7.53-7.9,13.82-16.85,20.71-25.28
		c9.04-10.83,15.53-23.52,25.29-33.76c13.84-14.55,22.1-33.04,33.78-49.17c6.09-9.08,10.57-19.12,16.63-28.22
		c5.64-10.74,13.44-20.09,19.68-30.45c4.58-7.95,11.24-14.54,15.25-22.82c4.19-9.81,11.69-17.84,15.13-28.01
		c9.56-19.02,23.91-35.25,33.31-54.36c4.64-12.33,11-23.89,15.95-36.07c1.73-5.94,1.49-13.8-4.33-17.37
		c-10.35,8.08-11.96,21.55-18.79,31.99c-6.07,12.47-10.51,25.94-19.04,37.05c-6.27,8.33-10.79,17.76-16.42,26.5
		c-4.82,9.07-11.73,16.89-15.64,26.46c-3.77,7.65-9.04,14.44-13.1,21.94c-8.84,16.69-22.24,30.49-30.41,47.6
		c-8.01,17.19-21.19,31.18-30.43,47.64c-4.97,8.68-12.23,15.68-18.46,23.43c-13.41,16.75-25.51,34.48-38.51,51.53
		c-13.46,16.11-25,33.68-37.43,50.57c-4.47,5.54-8.99,11.04-13,16.95c-8.25,12.48-19.38,22.65-28.81,34.19
		c-3.56,4.52-5.86,9.95-9.74,14.24c-10.54,10.14-22.5,18.83-35.53,25.48c-6.04,2.81-13,1.83-19.28,3.78
		c-6.14,1.71-12.1,4.96-18.66,4.15c-16.7-0.66-33.38-1.61-50.04-2.84c-18.28-0.38-35.68-6.58-53.26-10.84
		c-12.95-5.1-27.12-4.54-40.32-8.59c-24.98-6.64-51.46-9-74.65-21.12c-8.37-2.74-16.57-5.87-24.38-9.93
		c-13.56-6.73-28.56-9.53-42.45-15.39c-29.1-10.57-57.66-22.52-86.65-33.41c-11.25-3.51-22.82-6.23-33.5-11.37
		c-14.48-6.67-29.96-10.61-44.79-16.36c-11.68-3.96-23.04-8.82-34.92-12.17c-6.68-1.61-12.26-5.71-18.42-8.5
		c-8.89-4.19-18.97-4.25-28.39-6.55c-22.03-5.01-44.97-2.84-66.94-7.98c-41.75-1.62-83.49-3.95-125.3-4.33
		c-18.51-2.36-37.37-1.26-55.69-5.15c-7.03-1.55-13.4-5.34-20.45-6.64c-12.66,0.64-24.28-5.56-34.96-11.61
		c-6.38-3.96-13.44-6.88-19.04-11.99c-8.8-7.89-18.85-14.35-26.78-23.19c-12.36-13.99-25.66-27.14-37.13-41.91
		c-7.61-7.86-14.01-16.7-20.62-25.39c-11.1-11.57-23.17-22.15-34.86-33.09c-10.63-11.73-21.9-22.92-31.5-35.53
		c-11.21-15.94-20.5-33.13-32.04-48.84c-2.81-6.84-4.35-15.51,0.44-21.84c5.44-2.8,11.74,0.31,16.94,2.18
		c12.71,4.23,19.34,16.99,30.49,23.76c12.16,12.55,25.65,23.67,39.1,34.81c6.31,4.59,12.8,9.03,17.73,15.21
		c8.26,10.23,20.78,15.81,29.27,25.82c10.5,12.16,22.66,22.81,35.31,32.66c16.34,9.26,34.68,15.24,53.29,17.76
		c21.12,1.16,42.83,2.36,63.39-3.65c4.51-1.97,10.2-5.97,8.91-11.52c-4.19-4.06-9.66-8.39-15.85-5.28
		c-19.17,7.25-39.98,4.11-59.81,2.39c-9.99-1.14-18.92-6.05-28.3-9.24c-5.24-1.81-9.89-4.88-14.24-8.24
		c3.02-5.37,5.59-11.08,9.6-15.8c6.41-5.38,15.36-5.43,22.52-9.46c10.22-5.18,21.96-5.47,32.94-8.03
		c16.16-3.88,32.85-4.29,49.33-5.72c15.46-1.59,31.08-0.04,46.28,2.89c8.12,2.37,15.3,7.29,23.56,9.33
		c9.48,1.98,18.36,5.84,27.1,9.9c12.18,5.73,25.69,7.56,37.96,13.08c9.99,4.16,20.67,6.15,31.09,8.94
		c26.05,9.39,54.44,6.99,81.06,13.89c13.5,3.4,27.5,3.83,41.35,3.85c17.81,1.68,35.79,4.22,53.65,1.53
		c21.44,0.35,42.92,0.48,64.28-1.84c18.2,0.51,36.4-1.49,54.59-0.07c18.65,2.01,37.47,1.33,56.13,3.32
		c26.35,1.51,52.52,5.44,78.96,5.45c25.1,0.89,50.85,3.16,75.33-3.87c5.7-1.42,10.44-5.51,13.33-10.54
		c7.88-13.58,12.21-28.84,19.39-42.77c6.1-14.49,14.45-27.89,20.38-42.47c3.29-9.57,6.78-19.07,9.53-28.8
		c3.29-10.84,8.72-20.87,12.18-31.64c4.05-14.81,12.84-27.69,17.98-42.07c6.65-20.7,19.2-39,25.11-59.99
		c3.4-11.85,9.11-22.87,12.38-34.76c2.75-9.3,6.79-18.13,11.01-26.82c3.3-6.12,3.94-13.31,7.65-19.24c4.83-7.94,4.1-17.81,8.02-26.1
		c2.94-6.27,6.48-12.23,8.96-18.7c3.06-8.42,9.6-15.05,12.08-23.74c2.31-10.68,9.45-19.36,12.61-29.72
		c4.57-15.08,10.09-29.84,15.48-44.63c3.58-10.09,10.98-18.25,14.65-28.32c3.84-8.15,4.87-17.47,9.96-25.03
		c9.74-15.6,20.52-30.6,28.91-47c4.23-8.71,10.79-15.96,16.06-24.02c13.03-20.35,26.98-40.12,41.58-59.37
		c3.68-4.95,5.29-11.11,9.13-15.94c11.74-13.31,23.48-26.62,34.47-40.54c6.79-8.23,15.5-14.48,23.2-21.77
		c4.11-3.41,5.59-8.89,9.66-12.35c6.78-7.42,16.73-13.57,19.03-23.99c-2.22-5.02-8.96-4.48-12.92-1.91
		c-9.14,6.03-15.57,15.17-23.98,22.06c-8.61,7.76-15.03,17.64-24.18,24.84c-11.16,8.98-17.71,22.15-28.07,31.93
		c-11.42,14.22-20.64,30.05-30.92,45.09c-7.3,8.12-14.92,16.15-19.93,25.97c-3.3,6.48-7.2,12.6-11.85,18.21
		c-9.87,12.25-17.87,25.87-24.76,39.99c-7.5,18.96-23.5,33.45-28.77,53.45c-1.74,5.69-4.84,10.91-8.97,15.2
		c-3.28,0.97-5.37-2.68-4.3-5.49c4.48-20.42-0.09-41.29,1.24-61.91c0.38-6.53,1.11-12.97,1.31-19.48
		c0.65-21.06,6.78-41.41,8.7-62.33c0.89-10.19,4.69-19.97,4.65-30.26c0-7.6,6-13.66,5.83-21.34c1.7-14.76,6.8-28.85,8.55-43.6
		c3.49-16,9.45-31.34,12.59-47.4c3.69-9.98,10.6-18.42,14.25-28.42c4.93-15.21,12.82-29.24,17.99-44.35
		c12.51-23.69,20.16-49.47,28.7-74.76c1.76-7.18,3.6-14.34,6.03-21.33c2.15-5.86,0.35-12.25,1.77-18.25
		c3.47-16.54,2.67-33.56,1.62-50.26c6.79-4.52,14.1-8.29,20.24-13.76c12.91-10.64,26-21.49,36.11-34.93
		c3.08-5.38-1.76-10.66-6.35-12.73c-3.07-1.13-6.06,1.32-8.22,3.16c-7.22,7.09-13.46,15.21-21.57,21.37
		c-18.01,14.08-36.58,28.27-58.5,35.63c-17.24,5.41-35.23,8.95-53.37,8.67c-16.37,0.45-33.43-1.13-48.08-9
		c-9.56-4.26-16.57-12.79-21.03-22.03c-8.19-21.05-8.47-44.03-10.62-66.22c-0.63-18.49-4.21-36.63-7.44-54.77
		c-5.61-29.28-25.56-53.49-48.03-72.01c13.68-33.06,28.41-66.86,30.06-103.09c-0.64-44.21-14.2-86.84-19.44-130.52
		c-4.85-36.75-6.97-74.3-0.84-111.03c3.69-23.92,12.06-46.75,20.78-69.21c5.09-11.18,10.89-22.06,17.31-32.54
		c17.27-29.32,41.33-53.98,67.13-75.89c11.99-10.67,24.99-20.23,39.05-28.02c12.8-7.05,25.39-14.67,39.14-19.8
		c13.85-5.37,27.56-11.23,41.93-15.09c43.22-11.3,88.55-16.86,133.07-10.91c22.32,2.46,44.62,6.09,66.11,12.75
		c10.07,2.73,19.52,7.2,29.3,10.79c38.84,15.51,74.54,38.48,105.64,66.37c9.15,7.14,16.18,16.52,24.93,24.13
		c15.26,18.22,30.92,36.38,42.96,56.98c6.51,11.91,13.97,23.31,19.23,35.88c9.83,21.17,15.74,43.91,20.42,66.7
		c8.74,35.05,10.32,71.45,10.49,107.42c0.19,58.27-10.06,116.61-31.05,171.01c-4.64,14.72-11.01,28.78-17.06,42.96
		c-14.49,34.5-32.71,67.39-45.33,102.68c-12.67,29.73-18.82,61.79-23.3,93.66c-0.71,18.39-1.26,37.06,2.25,55.24
		c4.17,22,11.22,43.31,19.43,64.11c1.9,9.76,5.43,19.05,9.66,28.03c6.03,18.33,11.83,36.75,17.9,55.07
		c5.37,11.88,8.95,24.47,14.36,36.33c2.88,6.16,3.25,13.27,6.88,19.13c7.02,10.39,7.05,23.52,12.25,34.69
		c3.29,7.26,4.73,15.23,8.89,22.12c5.81,14.87,13.22,29.19,17.13,44.77c0.98,5.07,3.51,9.64,5.12,14.52
		c2.92,9.19,6.47,18.16,9.73,27.23c1.78,5.98,5.57,11.61,5.12,18.06c0.72,0.73,1.44,1.45,2.21,2.23c-1.11-0.25-2.19-0.48-3.25-0.7
		c3.38,4.35,5.7,9.38,5.55,15.03c0.52,9.33,5.27,17.69,5.85,27.02c3.31,4.27,3.26,9.81,4.55,14.82c2.05,9.85,4.09,19.69,6.01,29.57
		c-0.49-0.05-1.47-0.16-1.97-0.21c4.05,9.37,6.16,19.37,8.01,29.36c-0.47-0.13-1.41-0.39-1.89-0.52c4.05,6.88,3.25,15.17,5.01,22.74
		c2.9,10.75,2.26,21.94,4.17,32.84c1.17,9.74,2.82,19.43,3.76,29.19c-0.26,5.09,1.84,9.87,2.03,14.92
		c0.47,9.98,1.95,19.89,2.31,29.89c0.17,7.82,2.81,15.47,1.65,23.32c-0.98,5.5,2.42,10.44,2.25,15.89c0.16,5.9-0.8,11.8-0.21,17.7
		c0.18,12.12,1.98,24.15,1.93,36.3c-0.76-0.69-1.5-1.36-2.21-2.01c1.4,7.11,2.12,14.49,5.02,21.22c3.62,5.01,13.98,2.14,13.75-4.32
		c-0.02-7.21,0.13-14.41,0.54-21.59c0.4-11.62-3.82-22.88-2.72-34.5c0.46-8.66,0.87-17.48-1.01-26c-1.5-6.58,1.51-13.7-2.01-19.89
		c0.3,0.29,0.92,0.88,1.22,1.18c-4-8.11-0.69-17.28-2.24-25.85c-1.71-8.69-2.25-17.54-3.65-26.28c-2.13-16.3-1.95-32.93-5.82-48.93
		c-0.82-8.08-2-16.11-3.75-24.02c-1.42-8.24-1.12-16.74-3.55-24.79c-2.77-9.27-4.95-18.74-5.92-28.37
		c-0.92-5.73-1.02-11.64-3.16-17.1c-2.08-5.07-1.79-10.67-3.46-15.84c-3.43-11.51-6.69-23.09-8.48-34.98
		c-5.23-17.92-10.95-35.71-17.44-53.21c-6.15-13.82-8.3-29.11-15.49-42.52c-4.28-7.65-5.3-16.61-9.62-24.22
		c-3.47-6.36-4.85-13.57-7.97-20.08c-3.29-6.78-3.74-14.47-6.51-21.43c-2.53-7.16-6.35-13.79-8.97-20.9
		c-1.48-4.82-2.4-9.91-5.17-14.22c-4.83-11.68-8.61-23.78-13.91-35.27c-4.42-17.03-11.39-33.28-15.66-50.37
		c-2.59-12.38-9.49-23.31-11.91-35.77c-5.44-15.29-11.33-30.51-14.37-46.52c-7.12-28.13-5.4-57.72-0.01-85.99
		c4.13-24.94,11.04-49.43,21.29-72.56c4.12-12,10.13-23.18,15.27-34.75c7.78-18.61,17.13-36.5,24.79-55.17
		c12.23-26.29,22.09-53.63,30.7-81.29c6.45-24,13.43-48.02,16.17-72.81c7.26-59.47,5.49-120.11-5.59-179
		c-4.91-18.77-8.77-37.91-16.03-55.97c-6.71-16.97-13.68-33.95-23.79-49.23c-31.69-53.47-76.61-98.97-129.57-131.44
		c-21.65-14.06-45.17-25.09-69.51-33.56c-16.55-6.74-34.02-10.7-51.41-14.55C1435.32-554.08,1365.69-547.14,1302.71-524.33
		 M1247.32,482.18c0.98-1.49,3.51,0.16,2.36,1.64C1248.66,485.28,1246.14,483.63,1247.32,482.18 M1234.66,496.72
		c3.91-4.68,8.82-8.33,13.63-12.03c0.02,7.06-1.07,14.47-5.13,20.42c-5.65,8.55-8.14,18.65-11.62,28.19
		c-4.03,12.3-3.96,25.69-9.68,37.47c-4.06,16.56-6.16,33.59-9.74,50.26c-4.3,13.61-7.59,27.65-8.23,41.95
		c-1.49,24.78-8.19,48.88-9.43,73.7c-3.14,21.75,2.14,43.65-0.99,65.38c0.29,10.39-3.63,20.51-2.42,30.89
		c1.12,4.56,3.98,8.49,6.95,12.06c3.27,3.59,1.1,9.03-0.02,13.03c-3.11,7.78-4.71,16.28-9.32,23.4c-4.5,7.04-5.7,15.46-9.24,22.93
		c-6.1,13.12-11.61,26.55-18.8,39.13c-3.89,6.95-4.64,15.05-7.87,22.27c-3.68,7.74-4.3,16.62-9.08,23.92
		c-9.6,15.99-13.12,34.58-20.57,51.53c-5.11,11.5-7.32,24.17-13.68,35.16c-8.33,17.39-14.32,35.83-22.65,53.22
		c-12.22,27.27-22.95,55.17-32.98,83.31c-6.07,10.89-8.21,23.46-14.77,34.08c-3.3,5.84-5.69,12.13-9.31,17.8
		c-8.04,11.76-8.54,27.15-17.6,38.34c-7.42,8.22-20.09,5.76-29.93,6.43c-31.89-0.46-63.95,0.51-95.62-3.93
		c-19.79-2.11-39.64-4.88-59.57-3.81c-11.08,0.6-21.77-3.27-32.84-2.58c-18.7,1.2-37.51-0.24-56.16,1.82
		c-9.7,0.98-19.5-0.26-29.17,1.27c-18.15,0.69-36.4,2.89-54.51,0.49c-13.81-0.63-27.57-1.59-41.24-3.7
		c-9.51-0.68-19.06-2.26-27.81-6.17c0.92-3,1.42-5.98,3.13-8.6c7.31-5.94,17.36-5.46,25.6-9.44c9.55-6.21,12.77-18.19,13.86-28.87
		c-0.38-10.52-5.24-20.27-11.04-28.8c-5.22-7.69-9.54-16.21-16.82-22.23c-11.07-12.1-24-22.19-35.88-33.42
		c2.01-1.17,4.01-2.49,6.33-2.94c9.99-1.99,20.37-1.91,30.33,0.27c13.61,0.97,27.33,0.43,40.85,2.7c19.34,3.17,38.98,4.01,58.31,7.3
		c9.69,1.1,19.56,1.53,28.97,4.38c7.73,2.58,15.98,2.43,23.91,4.13c24.09,5.1,48.87,4.98,73.2,8.43
		c14.54,2.35,29.02-1.44,43.07-4.83c7.92-2.85,16.42-5.45,22.75-11.21c7.19-10.01,12.42-21.28,19.39-31.44
		c10.46-17.12,15.17-36.95,24.61-54.58c7.32-14.03,9.2-30.19,16.8-44.1c7.42-14.65,14.73-29.31,21.52-44.26
		c4.29-12.69,10.33-24.69,16.99-36.27c4.42-8.4,6.82-17.64,10.42-26.38c2.66-7.93,6.92-15.2,9.24-23.25
		c1.95-5.73,4.17-11.39,7.04-16.73c5.73-10.1,9.9-21.01,15.79-31.03c3.75-7.29,9.13-13.79,11.25-21.84
		c4.62-14.34,11.72-27.73,19.12-40.8c2.92-7.16,3.74-15.36,8.52-21.7c10.91-13.99,14.87-31.81,24.21-46.73
		c6.05-9.76,7.98-21.59,15.11-30.75c6.84-10.05,10.26-21.93,17.31-31.85c5.26-7.48,8.19-16.25,13.15-23.91
		c4.2-6.03,6.1-13.21,9.21-19.78c10.38-16.43,20.64-32.96,29.97-50.02c8.75-14.19,16.32-29.17,26.42-42.48
		c2.17-3.11,3.41-6.71,5.15-10.04C1217.98,511.75,1227.48,505.1,1234.66,496.72 M1053.23,1042.1c-15.07,7.14-24.67,22-39.06,30.14
		c-11.45,7.12-23.06,14.02-34.07,21.82c-2.91,2.07-5.46,4.64-7.49,7.59c-2.62,3.69-0.88,9.77,3.52,11.24
		c2.95,1.31,6.35,0.96,9.1-0.67c8.87-5.2,17.15-11.73,27.04-14.89c0.55,2.11,1.43,4.23,1.33,6.48
		c-3.31,13.45-13.58,23.33-22.53,33.25c-13.41,15.48-30.33,27.34-47.13,38.84c-14.65,9.23-29.49,18.24-44.99,25.97
		c-17.16,8.71-35.89,13.54-53.87,20.18c-18.25,5.9-37.13,9.65-55.97,13.1c-17.79,1.91-35.55,4.16-53.24,6.79
		c-4.95,0.87-7.81,6.27-7.8,10.94c2.19,5.13,8.92,6.47,13.92,5.96c29.98-1.2,59.28-8.45,88.56-14.43
		c20.01-4.12,38.86-12.17,58.09-18.8c21.18-6.95,40.14-19.12,58.42-31.6c10.51-9.65,24.49-14.24,34.65-24.29
		c13.74-13.54,30.41-24.68,40.01-41.89c6.4-11.75,14.27-22.91,18.14-35.85c1.53-4.25,2.12-8.84,4.43-12.74
		c0.88-2.16,4.19-1.5,4.85,0.54c1.63,4.04,1.21,8.57,2.58,12.71c3.31,10.68,5.22,21.75,6.05,32.91c-0.2,4.04,1.97,8.82,6.34,9.52
		c6.02,1.1,10.89-2.74,15.52-5.81c-1.17-12.8-5.26-25.01-8.1-37.46c-1.54-12.74-0.23-25.77-2.81-38.37
		C1066.27,1047.51,1060.66,1038.26,1053.23,1042.1 M317.42,1051.38c5.27-0.85,11.24-1.04,15.58,2.64c7.16,5.15,15.32,11,18.41,19.64
		c3.04,7.16-4.05,12-6.97,17.61c-2.45,3.6-2.56,9.3-7.1,11.13c-12.41,2.55-26.96-1.6-34.21-12.48c-3.03-5.2-6.87-12.04-3.06-17.87
		C304.69,1064.47,308.83,1055.13,317.42,1051.38 M369.42,1121.4c8.53-1.29,17.36,1.64,23.63,7.54c8.31,5.11,10.32,15.26,11.7,24.15
		c1.69,7.03-3.58,13.1-9.06,16.61c-6.43,2.78-13.78,0.33-19.58-2.87c-6.29-3.7-12.95-7.93-16.01-14.88
		c-3.06-5.79-1.27-12.68,0.13-18.65C361.41,1128.38,364.4,1123.07,369.42,1121.4 M448.41,1182.34c11.93-0.83,24.07,5.92,30.37,15.93
		c2.72,8.06-4,15.3-7.54,21.98c-1.67,3.12-5.31,2.92-8.14,1.68c-9.87-3.25-18.74-8.9-27.15-14.88c-5.4-3.62-4.52-11.35-4.83-16.94
		C433.1,1182.93,442.47,1182.59,448.41,1182.34 M518.39,1236.34c6.61-1.02,13.49-0.07,19.54,2.76
		c12.48,5.52,24.65,13.36,31.61,25.45c3.53,3.76,5.22,10.96,0.14,14.14c-8.19,5.08-17.58,1.27-26.34,0.95
		c-7.27,0.09-13.65-4.46-18.86-9.12c-5.6-5.59-12.29-10.48-15.83-17.7C508.56,1246,511.02,1238.41,518.39,1236.34L518.39,1236.34z"
		/>
	<path d="M1302.71-524.33c62.98-22.81,132.61-29.75,198.16-14.57c17.39,3.85,34.86,7.81,51.41,14.55
		c24.34,8.47,47.86,19.5,69.51,33.56c52.96,32.47,97.88,77.97,129.57,131.44c10.11,15.28,17.08,32.26,23.79,49.23
		c7.26,18.06,11.12,37.2,16.03,55.97c11.08,58.89,12.85,119.53,5.59,179c-2.74,24.79-9.72,48.81-16.17,72.81
		c-8.61,27.66-18.47,55-30.7,81.29c-7.66,18.67-17.01,36.56-24.79,55.17c-5.14,11.57-11.15,22.75-15.27,34.75
		c-10.25,23.13-17.16,47.62-21.29,72.56c-5.39,28.27-7.11,57.86,0.01,85.99c3.04,16.01,8.93,31.23,14.37,46.52
		c2.42,12.46,9.32,23.39,11.91,35.77c4.27,17.09,11.24,33.34,15.66,50.37c5.3,11.49,9.08,23.59,13.91,35.27
		c2.77,4.31,3.69,9.4,5.17,14.22c2.62,7.11,6.44,13.74,8.97,20.9c2.77,6.96,3.22,14.65,6.51,21.43c3.12,6.51,4.5,13.72,7.97,20.08
		c4.32,7.61,5.34,16.57,9.62,24.22c7.19,13.41,9.34,28.7,15.49,42.52c6.49,17.5,12.21,35.29,17.44,53.21
		c1.79,11.89,5.05,23.47,8.48,34.98c1.67,5.17,1.38,10.77,3.46,15.84c2.14,5.46,2.24,11.37,3.16,17.1
		c0.97,9.63,3.15,19.1,5.92,28.37c2.43,8.05,2.13,16.55,3.55,24.79c1.75,7.91,2.93,15.94,3.75,24.02c3.87,16,3.69,32.63,5.82,48.93
		c1.4,8.74,1.94,17.59,3.65,26.28c1.55,8.57-1.76,17.74,2.24,25.85c-0.3-0.3-0.92-0.89-1.22-1.18c3.52,6.19,0.51,13.31,2.01,19.89
		c1.88,8.52,1.47,17.34,1.01,26c-1.1,11.62,3.12,22.88,2.72,34.5c-0.41,7.18-0.56,14.38-0.54,21.59c0.23,6.46-10.13,9.33-13.75,4.32
		c-2.9-6.73-3.62-14.11-5.02-21.22c0.71,0.65,1.45,1.32,2.21,2.01c0.05-12.15-1.75-24.18-1.93-36.3c-0.59-5.9,0.37-11.8,0.21-17.7
		c0.17-5.45-3.23-10.39-2.25-15.89c1.16-7.85-1.48-15.5-1.65-23.32c-0.36-10-1.84-19.91-2.31-29.89c-0.19-5.05-2.29-9.83-2.03-14.92
		c-0.94-9.76-2.59-19.45-3.76-29.19c-1.91-10.9-1.27-22.09-4.17-32.84c-1.76-7.57-0.96-15.86-5.01-22.74
		c0.48,0.13,1.42,0.39,1.89,0.52c-1.85-9.99-3.96-19.99-8.01-29.36c0.5,0.05,1.48,0.16,1.97,0.21c-1.92-9.88-3.96-19.72-6.01-29.57
		c-1.29-5.01-1.24-10.55-4.55-14.82c-0.58-9.33-5.33-17.69-5.85-27.02c0.15-5.65-2.17-10.68-5.55-15.03
		c1.06,0.22,2.14,0.45,3.25,0.7c-0.77-0.78-1.49-1.5-2.21-2.23c0.45-6.45-3.34-12.08-5.12-18.06c-3.26-9.07-6.81-18.04-9.73-27.23
		c-1.61-4.88-4.14-9.45-5.12-14.52c-3.91-15.58-11.32-29.9-17.13-44.77c-4.16-6.89-5.6-14.86-8.89-22.12
		c-5.2-11.17-5.23-24.3-12.25-34.69c-3.63-5.86-4-12.97-6.88-19.13c-5.41-11.86-8.99-24.45-14.36-36.33
		c-6.07-18.32-11.87-36.74-17.9-55.07c-4.23-8.98-7.76-18.27-9.66-28.03c-8.21-20.8-15.26-42.11-19.43-64.11
		c-3.51-18.18-2.96-36.85-2.25-55.24c4.48-31.87,10.63-63.93,23.3-93.66c12.62-35.29,30.84-68.18,45.33-102.68
		c6.05-14.18,12.42-28.24,17.06-42.96c20.99-54.4,31.24-112.74,31.05-171.01c-0.17-35.97-1.75-72.37-10.49-107.42
		c-4.68-22.79-10.59-45.53-20.42-66.7c-5.26-12.57-12.72-23.97-19.23-35.88c-12.04-20.6-27.7-38.76-42.96-56.98
		c-8.75-7.61-15.78-16.99-24.93-24.13c-31.1-27.89-66.8-50.86-105.64-66.37c-9.78-3.59-19.23-8.06-29.3-10.79
		c-21.49-6.66-43.79-10.29-66.11-12.75c-44.52-5.95-89.85-0.39-133.07,10.91c-14.37,3.86-28.08,9.72-41.93,15.09
		c-13.75,5.13-26.34,12.75-39.14,19.8c-14.06,7.79-27.06,17.35-39.05,28.02c-25.8,21.91-49.86,46.57-67.13,75.89
		c-6.42,10.48-12.22,21.36-17.31,32.54c-8.72,22.46-17.09,45.29-20.78,69.21c-6.13,36.73-4.01,74.28,0.84,111.03
		c5.24,43.68,18.8,86.31,19.44,130.52c-1.65,36.23-16.38,70.03-30.06,103.09c22.47,18.52,42.42,42.73,48.03,72.01
		c3.23,18.14,6.81,36.28,7.44,54.77c2.15,22.19,2.43,45.17,10.62,66.22c4.46,9.24,11.47,17.77,21.03,22.03
		c14.65,7.87,31.71,9.45,48.08,9c18.14,0.28,36.13-3.26,53.37-8.67c21.92-7.36,40.49-21.55,58.5-35.63
		c8.11-6.16,14.35-14.28,21.57-21.37c2.16-1.84,5.15-4.29,8.22-3.16c4.59,2.07,9.43,7.35,6.35,12.73
		c-10.11,13.44-23.2,24.29-36.11,34.93c-6.14,5.47-13.45,9.24-20.24,13.76c1.05,16.7,1.85,33.72-1.62,50.26
		c-1.42,6,0.38,12.39-1.77,18.25c-2.43,6.99-4.27,14.15-6.03,21.33c-8.54,25.29-16.19,51.07-28.7,74.76
		c-5.17,15.11-13.06,29.14-17.99,44.35c-3.65,10-10.56,18.44-14.25,28.42c-3.14,16.06-9.1,31.4-12.59,47.4
		c-1.75,14.75-6.85,28.84-8.55,43.6c0.17,7.68-5.83,13.74-5.83,21.34c0.04,10.29-3.76,20.07-4.65,30.26
		c-1.92,20.92-8.05,41.27-8.7,62.33c-0.2,6.51-0.93,12.95-1.31,19.48c-1.33,20.62,3.24,41.49-1.24,61.91
		c-1.07,2.81,1.02,6.46,4.3,5.49c4.13-4.29,7.23-9.51,8.97-15.2c5.27-20,21.27-34.49,28.77-53.45
		c6.89-14.12,14.89-27.74,24.76-39.99c4.65-5.61,8.55-11.73,11.85-18.21c5.01-9.82,12.63-17.85,19.93-25.97
		c10.28-15.04,19.5-30.87,30.92-45.09c10.36-9.78,16.91-22.95,28.07-31.93c9.15-7.2,15.57-17.08,24.18-24.84
		c8.41-6.89,14.84-16.03,23.98-22.06c3.96-2.57,10.7-3.11,12.92,1.91c-2.3,10.42-12.25,16.57-19.03,23.99
		c-4.07,3.46-5.55,8.94-9.66,12.35c-7.7,7.29-16.41,13.54-23.2,21.77c-10.99,13.92-22.73,27.23-34.47,40.54
		c-3.84,4.83-5.45,10.99-9.13,15.94c-14.6,19.25-28.55,39.02-41.58,59.37c-5.27,8.06-11.83,15.31-16.06,24.02
		c-8.39,16.4-19.17,31.4-28.91,47c-5.09,7.56-6.12,16.88-9.96,25.03c-3.67,10.07-11.07,18.23-14.65,28.32
		c-5.39,14.79-10.91,29.55-15.48,44.63c-3.16,10.36-10.3,19.04-12.61,29.72c-2.48,8.69-9.02,15.32-12.08,23.74
		c-2.48,6.47-6.02,12.43-8.96,18.7c-3.92,8.29-3.19,18.16-8.02,26.1c-3.71,5.93-4.35,13.12-7.65,19.24
		c-4.22,8.69-8.26,17.52-11.01,26.82c-3.27,11.89-8.98,22.91-12.38,34.76c-5.91,20.99-18.46,39.29-25.11,59.99
		c-5.14,14.38-13.93,27.26-17.98,42.07c-3.46,10.77-8.89,20.8-12.18,31.64c-2.75,9.73-6.24,19.23-9.53,28.8
		c-5.93,14.58-14.28,27.98-20.38,42.47c-7.18,13.93-11.51,29.19-19.39,42.77c-2.89,5.03-7.63,9.12-13.33,10.54
		c-24.48,7.03-50.23,4.76-75.33,3.87c-26.44-0.01-52.61-3.94-78.96-5.45c-18.66-1.99-37.48-1.31-56.13-3.32
		c-18.19-1.42-36.39,0.58-54.59,0.07c-21.36,2.32-42.84,2.19-64.28,1.84c-17.86,2.69-35.84,0.15-53.65-1.53
		c-13.85-0.02-27.85-0.45-41.35-3.85c-26.62-6.9-55.01-4.5-81.06-13.89c-10.42-2.79-21.1-4.78-31.09-8.94
		c-12.27-5.52-25.78-7.35-37.96-13.08c-8.74-4.06-17.62-7.92-27.1-9.9c-8.26-2.04-15.44-6.96-23.56-9.33
		c-15.2-2.93-30.82-4.48-46.28-2.89c-16.48,1.43-33.17,1.84-49.33,5.72c-10.98,2.56-22.72,2.85-32.94,8.03
		c-7.16,4.03-16.11,4.08-22.52,9.46c-4.01,4.72-6.58,10.43-9.6,15.8c4.35,3.36,9,6.43,14.24,8.24c9.38,3.19,18.31,8.1,28.3,9.24
		c19.83,1.72,40.64,4.86,59.81-2.39c6.19-3.11,11.66,1.22,15.85,5.28c1.29,5.55-4.4,9.55-8.91,11.52
		c-20.56,6.01-42.27,4.81-63.39,3.65c-18.61-2.52-36.95-8.5-53.29-17.76c-12.65-9.85-24.81-20.5-35.31-32.66
		c-8.49-10.01-21.01-15.59-29.27-25.82c-4.93-6.18-11.42-10.62-17.73-15.21c-13.45-11.14-26.94-22.26-39.1-34.81
		c-11.15-6.77-17.78-19.53-30.49-23.76c-5.2-1.87-11.5-4.98-16.94-2.18c-4.79,6.33-3.25,15-0.44,21.84
		c11.54,15.71,20.83,32.9,32.04,48.84c9.6,12.61,20.87,23.8,31.5,35.53c11.69,10.94,23.76,21.52,34.86,33.09
		c6.61,8.69,13.01,17.53,20.62,25.39c11.47,14.77,24.77,27.92,37.13,41.91c7.93,8.84,17.98,15.3,26.78,23.19
		c5.6,5.11,12.66,8.03,19.04,11.99c10.68,6.05,22.3,12.25,34.96,11.61c7.05,1.3,13.42,5.09,20.45,6.64
		c18.32,3.89,37.18,2.79,55.69,5.15c41.81,0.38,83.55,2.71,125.3,4.33c21.97,5.14,44.91,2.97,66.94,7.98
		c9.42,2.3,19.5,2.36,28.39,6.55c6.16,2.79,11.74,6.89,18.42,8.5c11.88,3.35,23.24,8.21,34.92,12.17
		c14.83,5.75,30.31,9.69,44.79,16.36c10.68,5.14,22.25,7.86,33.5,11.37c28.99,10.89,57.55,22.84,86.65,33.41
		c13.89,5.86,28.89,8.66,42.45,15.39c7.81,4.06,16.01,7.19,24.38,9.93c23.19,12.12,49.67,14.48,74.65,21.12
		c13.2,4.05,27.37,3.49,40.32,8.59c17.58,4.26,34.98,10.46,53.26,10.84c16.66,1.23,33.34,2.18,50.04,2.84
		c6.56,0.81,12.52-2.44,18.66-4.15c6.28-1.95,13.24-0.97,19.28-3.78c13.03-6.65,24.99-15.34,35.53-25.48
		c3.88-4.29,6.18-9.72,9.74-14.24c9.43-11.54,20.56-21.71,28.81-34.19c4.01-5.91,8.53-11.41,13-16.95
		c12.43-16.89,23.97-34.46,37.43-50.57c13-17.05,25.1-34.78,38.51-51.53c6.23-7.75,13.49-14.75,18.46-23.43
		c9.24-16.46,22.42-30.45,30.43-47.64c8.17-17.11,21.57-30.91,30.41-47.6c4.06-7.5,9.33-14.29,13.1-21.94
		c3.91-9.57,10.82-17.39,15.64-26.46c5.63-8.74,10.15-18.17,16.42-26.5c8.53-11.11,12.97-24.58,19.04-37.05
		c6.83-10.44,8.44-23.91,18.79-31.99c5.82,3.57,6.06,11.43,4.33,17.37c-4.95,12.18-11.31,23.74-15.95,36.07
		c-9.4,19.11-23.75,35.34-33.31,54.36c-3.44,10.17-10.94,18.2-15.13,28.01c-4.01,8.28-10.67,14.87-15.25,22.82
		c-6.24,10.36-14.04,19.71-19.68,30.45c-6.06,9.1-10.54,19.14-16.63,28.22c-11.68,16.13-19.94,34.62-33.78,49.17
		c-9.76,10.24-16.25,22.93-25.29,33.76c-6.89,8.43-13.18,17.38-20.71,25.28c-4.82,6.01-8.21,13-12.75,19.22
		c-4.05,5.92-9.25,11.12-12.23,17.73c-3.39,7.53-9.48,13.29-13.95,20.14c-10.34,15.1-24.55,26.94-35.13,41.84
		c-6.8,8.9-12.04,18.98-19.9,27.07c-7.24,6.47-15.46,11.68-24.21,15.85c-11.33,6.77-24.47,10.45-37.69,10.22
		c-27.17-0.08-54.48,1.26-81.47-2.55c-20.08-3.32-39.44-9.92-59.46-13.51c-18.63-5.08-37.44-9.32-56.5-12.39
		c-10.74-1.02-19.85-7.35-30.42-8.91c-11.75-2.69-21.68-10.12-33.12-13.67c-11.91-3.7-22.65-10.42-34.82-13.33
		c-19.09-5.44-36.75-14.53-55.32-21.33c-11.46-3.63-23.39-6.2-33.87-12.35c-10.39-6.61-22.9-7.72-34.26-11.83
		c-11.06-5.05-22.89-8.06-34.06-12.86c-17.74-6.55-35.95-11.74-53.7-18.28c-9.63-3.7-18.77-8.83-28.94-10.89
		c-25.57-5.15-51.67-6.59-77.54-9.6c-19.44-2.92-39.15-3.15-58.76-3.7c-32.53-0.01-65.01-1.8-97.47-3.84
		c-18.48-0.96-37.02-2.37-54.97-7.06c-14.14-1.5-25.16-11.2-37.94-16.36c-21.76-12.26-40.37-29.39-57.5-47.39
		c-16.53-16.68-29.9-36.07-45.1-53.89c-5.14-4.53-10.06-9.29-14.72-14.3c-5.23-5.82-12.09-9.84-17.27-15.7
		c-15.04-16.4-30.12-32.84-43.22-50.86c-10.15-13.7-18.78-28.44-28.76-42.26c-4.82-6.88-9.83-14.38-9.74-23.14
		c0.02-5.98-1.22-12.59,1.84-18.01c2.44-4.56,5.77-10.12,11.48-10.57c14.71-3.61,29.28,1.77,42.63,7.58
		c10.37,5.48,17.97,14.74,27.4,21.57c6.4,4.22,10.54,10.81,16.33,15.71c11.39,9.96,22.49,20.27,34.6,29.37
		c8.05,5.51,13.71,13.66,21.21,19.83c5.8,5.58,12.9,9.61,18.51,15.44c4.41,4.18,7.89,10.09,14.52,10.87
		c4.06-7.24,8.09-15.71,16.23-18.93c10.26-3.45,20.73-6.26,31.26-8.73c10.93-2.52,21.68-6.06,32.88-7.22
		c22.84-2.61,45.63-6.64,68.69-6.37c12.73,1.2,25.38,3.58,37.63,7.26c8.71,3.39,17.27,7.21,26.32,9.67
		c7.81,2.07,13.86,7.96,21.64,10.16c6.91,2.72,14.73,2.93,21.09,7c8.81,6.1,20.01,7.42,30.45,6.86c-2.96-7.49-8.29-13.84-10.7-21.54
		c-1.71-6.26-2.59-12.7-3.73-19.04c-9.89,2.33-20.12,7.05-30.23,2.95c-13.17-5.61-26.21-12.38-36.71-22.26
		c-4.38-5.99-5.64-13.65-8.75-20.28c-1.18-3.09-2.6-7.82-6.75-7.77c-12.14,0.03-24.68-0.48-35.96-5.42
		c-8.78-3.48-15.4-10.58-22.35-16.67c-2.29-2.33-5.47-4.36-5.96-7.84c-1.04-8.99-4.19-17.97-2.35-27.07
		c0.88-3.24,1.16-8.79-3.3-9.38c-14.36-2.3-29.47-5.45-40.64-15.52c-7.98-9.37-13.54-20.82-16.01-32.87
		c-0.47-6.94,2.56-13.46,6.33-19.05c6.15-8.13,13.88-15.48,23.37-19.49c9.33-3.13,20.06-4.27,29,0.7
		c18.98,7.35,32.6,26.19,33.53,46.56c1.27,6.41-2.62,11.91-4.2,17.82c8.23,1.75,17.39,0.66,24.56,5.82
		c11.01,7.12,23.6,15.26,26.97,28.87c1.68,4.85,2.92,9.99,5.74,14.38c3.04,4.89,3.66,10.89,7.05,15.62
		c7.07-0.62,14.17-1.26,21.29-0.9c7.97,1.58,15.72,4.44,23.02,8.03c12.69,7.59,22.67,19.22,29.72,32.12
		c2.56,4.5,3.42,11.1,9.21,12.78c7.16,1.43,14.85-0.97,21.72,2.42c19.52,7.5,38.66,18.71,50.34,36.61
		c2.67,7.04,14.7,7.53,17.63,0.61c5.84-13.05,0.88-28.02-7.93-38.36c-6.42-7.55-11.66-16.24-19.59-22.37
		c-16.95-14-32.22-29.98-49.86-43.15c-19.97-12.87-39.13-27.25-56.03-43.99c-6.69-6.35-15.91-9.94-20.95-17.96
		c-6.35-9.23-12.55-18.63-20.4-26.68c-4.75-4.62-10.27-8.38-14.82-13.19c-9.09-11.26-24.42-12.49-36.65-18.58
		c-11.18-6.26-23.72-9.47-35.99-12.82c-14.07-3.29-27.52-8.89-40.21-15.73c-5.61-2.96-10.13-7.69-16.16-9.88
		c-13.29-5.34-23.64-15.58-35.2-23.68c-8.99-6.03-18.52-11.3-26.76-18.37c-5.92-5.12-13.67-8.82-21.7-7.54
		c-3.63,0.69-4.55,5.07-5.83,8.03c-0.95,6.32-1.18,13.25,1.7,19.15c3.24,7.7,8.45,14.33,12.9,21.36
		c6.51,10.3,17.09,16.91,25.78,25.16c5.65,5.38,11.61,10.42,17.62,15.4c6.06,4.99,14.54,5.97,20.03,11.85
		c1.23,4.42,6.55,10.4,2.69,14.98c-3.61,2.56-8.71,6.14-13.29,3.79c-11.36-6.52-20.94-15.72-29.89-25.18
		c-4.1-4.36-9.35-7.3-13.87-11.14c-9.25-8.76-20.26-16.04-26.7-27.34c-6.99-11.34-16.32-22.16-18.25-35.8
		c-1.77-7.45-0.22-15.17,0.88-22.56c3.61-7.41,9.02-15,17.25-17.61c5.58-2.36,11.49-0.53,16.99,1.04
		c8.03,2.34,15.12,6.91,22.48,10.75c11.55,5.89,20.42,15.64,31.13,22.78c11.97,7.73,22.94,17.04,35.81,23.34
		c14.24,10.27,31.03,16.11,48.01,19.97c11.86,2.48,22.48,8.6,34.19,11.55c4.55,1.12,9.01,2.66,13.12,4.93
		c7.63,4.41,16.74,5.81,23.8,11.29c6.75,4.43,11.12,11.62,18.19,15.67c7.29,3.67,10.58,11.55,15.39,17.71
		c11.11,14.7,23.68,28.42,38.3,39.72c11.42,8.61,21.77,18.79,34.43,25.66c6.63,3.64,10.57,11.38,17.81,13.81
		c13.34-3.06,27.14-3.38,40.78-3.25c14.29,2.2,28.73,3.02,43.15,3.88c28.68,2.5,56.91,8.64,85.7,10.04
		c40.12,7.25,80.65,12.36,121.29,15.66c7.55-0.31,15.98,1.76,22.97-2.07c6.11-3.52,11.66-8.03,18.15-10.87
		c7.14-3.12,11.54-9.93,15.88-16.09c5.79-8.21,9.28-17.69,13.24-26.85c2.28-6.73,7.81-11.65,10.26-18.28
		c5.54-15.42,10.65-30.99,15.82-46.52c11.59-24.31,23.23-48.61,35.26-72.7c8.22-13.2,12.46-28.3,18.81-42.39
		c12.06-26.84,22.26-54.56,36.63-80.3c8.97-12.67,11.97-28.25,19.11-41.86c8.3-15.17,16.48-30.58,21.76-47.12
		c1.22-3.57,2.86-6.99,4.81-10.22c14.45-25.08,25.23-52.11,40.15-76.95c7.33-14.82,14.33-29.82,22.69-44.1
		c7.25-14.43,14.33-29.12,23.98-42.13c5-7.07,6.8-15.92,12.41-22.59c6.16-7.38,8.6-16.94,14.69-24.36
		c11.45-14.43,19.3-31.49,31.91-45.04c7.52-9.24,15.14-18.4,22.04-28.12c12.34-10.54,25.39-20.38,36.73-32.06
		c6.68-8.86,11.17-19.21,13.55-30.02c5.24-13.62,8.95-27.75,13.89-41.47c4.74-16.2,4.15-33.34,8.12-49.68
		c0.61-7.51,0.43-15.04,0.97-22.54c-16.4,7.2-33.66,12.52-51.48,14.76c-11.94,2.7-24.25,1.56-36.36,1.83
		c-10.26,0.6-20.22-2.51-29.99-5.18c-13.11-3.43-24.7-11.37-33.74-21.31c-11.42-13.05-15.55-30.65-17.66-47.42
		c-3.92-26.24-3.77-52.92-8.08-79.11c-2.86-12.34-5.11-25.11-11.48-36.24c-8.99-17.55-23.29-31.42-38.72-43.31
		c-3.68-2.89-3.79-8.44-2.13-12.49c13.47-29.39,25.98-59.83,29.98-92.15c1.93-15.01,0.07-30.08-2.35-44.89
		c-5.01-34.34-13.76-68.04-17.23-102.61c-5.21-42.61-6.46-86.69,5.45-128.34c3.92-11.66,6.69-23.68,10.85-35.26
		c10.32-28.67,25.93-55.3,45.19-78.88c11.87-14.35,23.52-29.24,38.56-40.47C1220.29-486.44,1259.91-510.2,1302.71-524.33
		 M1247.32,482.18c-1.18,1.45,1.34,3.1,2.36,1.64C1250.83,482.34,1248.3,480.69,1247.32,482.18 M1234.66,496.72
		c-7.18,8.38-16.68,15.03-21.61,25.16c-1.74,3.33-2.98,6.93-5.15,10.04c-10.1,13.31-17.67,28.29-26.42,42.48
		c-9.33,17.06-19.59,33.59-29.97,50.02c-3.11,6.57-5.01,13.75-9.21,19.78c-4.96,7.66-7.89,16.43-13.15,23.91
		c-7.05,9.92-10.47,21.8-17.31,31.85c-7.13,9.16-9.06,20.99-15.11,30.75c-9.34,14.92-13.3,32.74-24.21,46.73
		c-4.78,6.34-5.6,14.54-8.52,21.7c-7.4,13.07-14.5,26.46-19.12,40.8c-2.12,8.05-7.5,14.55-11.25,21.84
		c-5.89,10.02-10.06,20.93-15.79,31.03c-2.87,5.34-5.09,11-7.04,16.73c-2.32,8.05-6.58,15.32-9.24,23.25
		c-3.6,8.74-6,17.98-10.42,26.38c-6.66,11.58-12.7,23.58-16.99,36.27c-6.79,14.95-14.1,29.61-21.52,44.26
		c-7.6,13.91-9.48,30.07-16.8,44.1c-9.44,17.63-14.15,37.46-24.61,54.58c-6.97,10.16-12.2,21.43-19.39,31.44
		c-6.33,5.76-14.83,8.36-22.75,11.21c-14.05,3.39-28.53,7.18-43.07,4.83c-24.33-3.45-49.11-3.33-73.2-8.43
		c-7.93-1.7-16.18-1.55-23.91-4.13c-9.41-2.85-19.28-3.28-28.97-4.38c-19.33-3.29-38.97-4.13-58.31-7.3
		c-13.52-2.27-27.24-1.73-40.85-2.7c-9.96-2.18-20.34-2.26-30.33-0.27c-2.32,0.45-4.32,1.77-6.33,2.94
		c11.88,11.23,24.81,21.32,35.88,33.42c7.28,6.02,11.6,14.54,16.82,22.23c5.8,8.53,10.66,18.28,11.04,28.8
		c-1.09,10.68-4.31,22.66-13.86,28.87c-8.24,3.98-18.29,3.5-25.6,9.44c-1.71,2.62-2.21,5.6-3.13,8.6c8.75,3.91,18.3,5.49,27.81,6.17
		c13.67,2.11,27.43,3.07,41.24,3.7c18.11,2.4,36.36,0.2,54.51-0.49c9.67-1.53,19.47-0.29,29.17-1.27
		c18.65-2.06,37.46-0.62,56.16-1.82c11.07-0.69,21.76,3.18,32.84,2.58c19.93-1.07,39.78,1.7,59.57,3.81
		c31.67,4.44,63.73,3.47,95.62,3.93c9.84-0.67,22.51,1.79,29.93-6.43c9.06-11.19,9.56-26.58,17.6-38.34
		c3.62-5.67,6.01-11.96,9.31-17.8c6.56-10.62,8.7-23.19,14.77-34.08c10.03-28.14,20.76-56.04,32.98-83.31
		c8.33-17.39,14.32-35.83,22.65-53.22c6.36-10.99,8.57-23.66,13.68-35.16c7.45-16.95,10.97-35.54,20.57-51.53
		c4.78-7.3,5.4-16.18,9.08-23.92c3.23-7.22,3.98-15.32,7.87-22.27c7.19-12.58,12.7-26.01,18.8-39.13
		c3.54-7.47,4.74-15.89,9.24-22.93c4.61-7.12,6.21-15.62,9.32-23.4c1.12-4,3.29-9.44,0.02-13.03c-2.97-3.57-5.83-7.5-6.95-12.06
		c-1.21-10.38,2.71-20.5,2.42-30.89c3.13-21.73-2.15-43.63,0.99-65.38c1.24-24.82,7.94-48.92,9.43-73.7
		c0.64-14.3,3.93-28.34,8.23-41.95c3.58-16.67,5.68-33.7,9.74-50.26c5.72-11.78,5.65-25.17,9.68-37.47
		c3.48-9.54,5.97-19.64,11.62-28.19c4.06-5.95,5.15-13.36,5.13-20.42C1243.48,488.39,1238.57,492.04,1234.66,496.72 M317.42,1051.38
		c-8.59,3.75-12.73,13.09-17.35,20.67c-3.81,5.83,0.03,12.67,3.06,17.87c7.25,10.88,21.8,15.03,34.21,12.48
		c4.54-1.83,4.65-7.53,7.1-11.13c2.92-5.61,10.01-10.45,6.97-17.61c-3.09-8.64-11.25-14.49-18.41-19.64
		C328.66,1050.34,322.69,1050.53,317.42,1051.38 M369.42,1121.4c-5.02,1.67-8.01,6.98-9.19,11.9c-1.4,5.97-3.19,12.86-0.13,18.65
		c3.06,6.95,9.72,11.18,16.01,14.88c5.8,3.2,13.15,5.65,19.58,2.87c5.48-3.51,10.75-9.58,9.06-16.61
		c-1.38-8.89-3.39-19.04-11.7-24.15C386.78,1123.04,377.95,1120.11,369.42,1121.4 M448.41,1182.34c-5.94,0.25-15.31,0.59-17.29,7.77
		c0.31,5.59-0.57,13.32,4.83,16.94c8.41,5.98,17.28,11.63,27.15,14.88c2.83,1.24,6.47,1.44,8.14-1.68
		c3.54-6.68,10.26-13.92,7.54-21.98C472.48,1188.26,460.34,1181.51,448.41,1182.34 M518.39,1236.34c-7.37,2.07-9.83,9.66-9.74,16.48
		c3.54,7.22,10.23,12.11,15.83,17.7c5.21,4.66,11.59,9.21,18.86,9.12c8.76,0.32,18.15,4.13,26.34-0.95
		c5.08-3.18,3.39-10.38-0.14-14.14c-6.96-12.09-19.13-19.93-31.61-25.45C531.88,1236.27,525,1235.32,518.39,1236.34 M1053.23,1042.1
		c7.43-3.84,13.04,5.41,15.49,11.18c2.58,12.6,1.27,25.63,2.81,38.37c2.84,12.45,6.93,24.66,8.1,37.46
		c-4.63,3.07-9.5,6.91-15.52,5.81c-4.37-0.7-6.54-5.48-6.34-9.52c-0.83-11.16-2.74-22.23-6.05-32.91
		c-1.37-4.14-0.95-8.67-2.58-12.71c-0.66-2.04-3.97-2.7-4.85-0.54c-2.31,3.9-2.9,8.49-4.43,12.74
		c-3.87,12.94-11.74,24.1-18.14,35.85c-9.6,17.21-26.27,28.35-40.01,41.89c-10.16,10.05-24.14,14.64-34.65,24.29
		c-18.28,12.48-37.24,24.65-58.42,31.6c-19.23,6.63-38.08,14.68-58.09,18.8c-29.28,5.98-58.58,13.23-88.56,14.43
		c-5,0.51-11.73-0.83-13.92-5.96c-0.01-4.67,2.85-10.07,7.8-10.94c17.69-2.63,35.45-4.88,53.24-6.79
		c18.84-3.45,37.72-7.2,55.97-13.1c17.98-6.64,36.71-11.47,53.87-20.18c15.5-7.73,30.34-16.74,44.99-25.97
		c16.8-11.5,33.72-23.36,47.13-38.84c8.95-9.92,19.22-19.8,22.53-33.25c0.1-2.25-0.78-4.37-1.33-6.48
		c-9.89,3.16-18.17,9.69-27.04,14.89c-2.75,1.63-6.15,1.98-9.1,0.67c-4.4-1.47-6.14-7.55-3.52-11.24c2.03-2.95,4.58-5.52,7.49-7.59
		c11.01-7.8,22.62-14.7,34.07-21.82C1028.56,1064.1,1038.16,1049.24,1053.23,1042.1L1053.23,1042.1z"/>
</g>
</svg>
