<?xml version="1.0" encoding="iso-8859-1"?>
<!-- Generator: Adobe Illustrator 28.5.0, SVG Export Plug-In . SVG Version: 9.03 Build 54727)  -->
<svg version="1.1" id="Layer_1" xmlns="http://www.w3.org/2000/svg" xmlns:xlink="http://www.w3.org/1999/xlink" x="0px" y="0px"
	 viewBox="0 0 1920 1080" style="enable-background:new 0 0 1920 1080;" xml:space="preserve">
<g>
	<path style="fill:#FFFFFF;" d="M8-634h1903v2349H8V-634 M880.89-586.21c-41.26,13.66-78.44,38.39-108.68,69.42
		c-53.98,52.87-89.26,122.26-109.58,194.46c-24.23,86.85-26.6,179.11-10.97,267.7c14.31,77.87,45.12,153.81,95.55,215.43
		c12.2,15.24,26.8,28.3,40.32,42.34c-4.03,5.36-8.38,10.5-13.19,15.18c-13.23,11.41-29.64,17.92-45.7,24.23
		c-7.72,2.17-15.51,4.03-23.09,6.67c-14.82,5.1-30.34,7.36-45.62,10.56c-6.53,1.12-12.14,4.97-18.59,6.36
		c-7.1,1.51-14.06,3.67-21.28,4.54c-18.97,4.16-36.36,13.76-55.64,16.77c-13.78,2.02-26.53,7.75-39.82,11.55
		c-5.5,1.98-10.2,5.76-15.82,7.47c-8.95,2.3-18.11,4.2-26.68,7.73c-13.19,6.63-26.42,13.5-37.68,23.2
		c-5.53,4.93-13.55,6.88-17.55,13.48c-4.66,6.91-10.05,13.27-15.14,19.86c-5.84,7.33-9.78,15.96-15.69,23.25
		c-8.58,10.9-13.95,23.82-21.09,35.61c-5.56,11.53-13.86,21.56-18.4,33.62c-4.04,11.13-9.99,21.37-15.66,31.72
		c-7.07,11.58-10.81,24.72-17.17,36.66c-5.82,10.36-7.94,22.51-14.96,32.23c-5.1,7.14-7.8,15.73-13.3,22.6
		c-2.37,3.34-2.49,7.63-4.03,11.34c-3.18,7.3-5.95,14.78-9.64,21.86c-5.94,11.37-9.75,23.7-15.97,34.95
		c-5.07,14.76-13.81,27.9-18.98,42.63c-1.41,3.95-3.93,7.35-5.82,11.07c-2.19,8.43-6.93,15.85-10.12,23.91
		c-4.94,6.59-4.63,15.45-9.3,22.18c-3.27,5.55-6.01,11.4-9.25,16.98c-4.79,8.46-6.97,18.04-10.96,26.87
		c-2.83,7.54-8.44,13.64-11.1,21.28c-2.13,5.37-6.72,9.58-7.89,15.37c-4.03,14.45-12.88,26.94-17.19,41.3
		c-6.03,11.47-9.54,23.95-13.98,36.07c-2.4,5.93-6.19,11.14-9.29,16.71c-8.43,13.93-12.65,29.77-19.3,44.52
		c-3.82,12.21-8.91,24.09-11.43,36.67c-5.04,15.09-9.07,30.6-15.71,45.11c-3.86,11.98-10.3,22.94-13.99,34.99
		c-2.87,7.68-3.3,16.07-6.87,23.52c-5.86,16.78-9.87,34.14-14.38,51.31c-1.5,16.46-3.49,32.88-4.49,49.39
		c-0.73,6.05,1.22,12.19-0.17,18.2c-1.81,7.33,0.49,14.87,2.15,22.06c2.33,11.21,2.76,22.82,6.95,33.61
		c3.06,7.56,4.73,15.55,6.98,23.38c3.23,8.44,4.51,17.45,7.31,26.04c1.6,9.37,4.12,18.74,7.8,27.47
		c7.19,6.79,15.86,12.25,21.36,20.74c2.96-1.13,6.25-1.66,8.86,0.93c8.78,5.07,18.81,6.97,28.31,10.2
		c6.77,2.24,13.9-0.71,20.73-0.99c12.32-0.6,24.77,0.32,36.98-1.89c13.69-1.3,27.12-4.64,40.89-5.01c9.69-2.37,19.33-5.08,28.85-8.1
		c7.79-1.77,15.13-5.16,21.75-9.6c11.5-6.22,22.8-12.82,33.61-20.2c9.06-4.36,17.71-9.57,27.06-13.31c5.49-2.43,9.86-6.69,15-9.71
		c6.05-3.99,12.84-6.89,18.17-11.89c4.71-3.95,8.57-8.92,13.94-12.05c4.4-3.31,10.18-4.88,13.76-9.24
		c6.77-8.2,16.09-13.92,21.98-22.91c2.38-4.01,7.14-4.89,10.65-7.48c7.15-4.35,12.14-11.21,18.33-16.69
		c9.99-8.8,18.46-19.29,29.39-26.99c5.17-3.65,9.32-8.42,13.76-12.85c5.01-5.01,11.13-8.82,15.6-14.38
		c5.02-6.84,12.9-10.41,19.37-15.6c6.68-5.81,14.71-9.77,21.18-15.84c9.77-6.78,17.3-16.06,26.09-23.94
		c3.01-2.97,5.35-6.79,9.25-8.67c3.9-1.95,7.8-4.05,10.9-7.18c7.93-8.09,18.16-13.26,27.59-19.32
		c14.76-7.79,28.78-16.86,43.53-24.68c10.82-6.93,23.2-11.45,32.86-20.11c8.27,8.6,19.66,12.98,30.53,17.32
		c13.84,4.66,27.7,9.34,41.35,14.54c12.1,2.6,24.27,4.92,36.18,8.4c-10.61,1.84-20.19,7.09-30.68,9.32
		c-5.7,0.13-9.86,4.66-14.42,7.4c-3.68,2.35-5.5,6.51-8.6,9.46c-2.54,2.46-4.47,5.67-4.58,9.3c-0.34,7.21,0.32,14.53,2.06,21.56
		c1.12,5.14,4.4,9.5,5.18,14.78c1.33,4.9,1.67,9.99,2.24,15.03c-5.55,5.11-13.01,10.24-14.04,18.34
		c-1.17,8.36-5.08,16.58-3.91,25.17c2.09,12.75,1.43,26.13,6.93,38.15c4.82,9.37,12.71,17.5,23.24,20.07
		c1.34,12.86-0.85,25.91,2.13,38.64c2.16,10.99,9.2,20.24,16.4,28.52c3.4,3.88,8.66,4.82,13.26,6.69c6.35,2.2,12.47,4.98,18.87,7.06
		c5.89,1.04,11.98,1.51,17.98,1.16c0.93,1.35,1.88,2.67,2.85,4.05c-5.16,5.69-12.31,8.95-17.73,14.33
		c-11.14,8.33-23.54,14.83-34.69,23.1c-7.29,2.12-14.36,5.34-21.96,6.27c-13.44,2.04-26.7,5.09-40.19,6.77
		c-9.07,1.19-17.67,4.45-26.15,7.74c-6.75,2.33-11.58,8.15-15.11,14.14c-2.9,5.16-6.35,10.34-7.14,16.34
		c-0.1,4.43,0.36,8.91,1.34,13.27c0.86,5.98,5.45,10.2,9.5,14.24c5.07,4.25,9.72,10.69,17.1,10.58c9.06,2.12,18.1,4.42,27.27,6.07
		c10.88,0.37,21.54-2.75,32.4-2.87c7.8-0.37,14.41-5.51,22.11-6.47c11.53-0.72,21.72-7.07,33.16-8.48c4.2,0.17,5.31-4.51,8.33-6.39
		c7.31-3.19,15.12-5.22,22.04-9.28c10.37-4.69,18.63-13.34,29.66-16.61c16.4-7.42,32.37-16.08,49.87-20.74
		c3.66-0.54,7.41,0.03,11.1,0.28c12.94,1.59,26.06-0.13,38.95,2.01c4.2,0.63,8.2-1.31,12.39-1.21c9.1,0.1,18.08,1.65,27.07,2.89
		c9,1.16,17.86-1.88,26.72-2.91c10.14-1.48,19.51-5.96,29.67-7.43c16.97-5.08,33.87-10.8,49.56-19.13
		c9.97-3.85,18.95-9.67,28.05-15.18c4.23-2.61,7.04-6.83,10.45-10.34c3.68,2.51,7.45,5.1,11.72,6.57
		c11.54,3.97,22.29,9.91,33.81,13.99c9.75,3.15,18.66,8.34,28.24,11.94c13.72,5.64,27.32,11.87,39.54,20.38
		c4.01,2.69,8.92,3.55,12.96,6.2c15.59,12.7,31.16,26.03,49.64,34.39c9.59,7,21.69,10.1,29.98,18.91
		c9.6,6.64,18.95,13.63,28.22,20.74c13.62,7.65,25.63,17.72,38.23,26.89c7.95,6.22,15.91,14.72,26.58,15.67
		c6.01,9.53,17.01,14.17,25.22,21.53c7.28,7.14,18.51,7.95,25.91,15.1c8.86,8.68,21.32,11.03,31.62,17.36
		c6.13,3.44,13.13,4.8,19.6,7.51c4.95,2.03,9.72,4.61,15.06,5.61c5.71,1.23,10.4,4.86,15.57,7.39
		c14.55,5.93,28.43,13.87,44.09,16.66c11.54,2.03,23.1,5.14,34.9,5.04c11.67-1.52,23.32,0.98,35.03,0.27
		c9.97,0.53,19.89-0.31,29.76-1.68c10.35-2.38,21.22,1.7,31.28-2.63c11.13-4.66,23.06-8.54,31.84-17.26
		c1.27,1.01,2.56,2.05,3.87,3.1c2.27-4.02,4.36-8.18,7.48-11.61c5.23-6.88,14.12-12.19,13.6-21.98c1.95-7.9,1.12-16.11,2.82-24.03
		c2.29-13.35,4.31-26.75,6.68-40.08c3.61-13.17,3.09-26.91,4.09-40.39c0.83-9.7-2.06-19.25-1.61-28.92c0.2-4.55-1.2-8.93-2.12-13.31
		c-1.36-5.15-0.94-10.6-2.69-15.65c-2.83-9.09-2.7-18.69-2.71-28.09c0.46-7.06-3.85-13.14-4.06-20.09
		c-1.47-13.8-4.8-27.26-7.63-40.8c-1.89-8.63-2.36-17.61-5.65-25.87c-4.28-18.12-6.52-36.7-11.8-54.59
		c-4.43-12.71-6.74-26.03-10.85-38.83c-6.29-29.25-10.87-59.17-22.34-86.97c-4.05-15.51-10.16-30.42-13.06-46.2
		c-0.81-3.89-3.58-6.84-5.66-10.06c-2.45-3.7-2.84-8.24-4.04-12.38c-3.07-10.16-4.92-20.61-7.16-30.95
		c-2.1-7.87-4.65-15.63-6.09-23.65c-1.01-7.32-5.38-13.52-6.94-20.67c-1.6-8.09-5.17-15.62-7.9-23.32
		c-4.96-10.31-10.82-20.36-13.82-31.48c-3.26-10.41-5.93-21.01-10.16-31.08c-1.59-9.71-7.14-18.01-10.16-27.23
		c-2.26-6.07-3.87-12.3-5.88-18.41c-4.3-7.91-6.96-16.55-11.3-24.42c-5.58-10.19-7.72-21.74-11.6-32.59
		c-4.19-9.84-9.18-19.35-13.34-29.17c-1.54-9.82-6.46-18.59-9.74-27.86c-2.12-4.76-1.49-10.41-4.96-14.61
		c-4.48-7-6.12-15.24-9.21-22.85c-1.92-6.59-5.49-12.5-7.98-18.85c-3.44-12.43-9.27-24.02-13.13-36.31
		c-3.18-9.82-8.57-18.74-11.27-28.72c-2.39-4.82-1.39-10.74-4.62-15.14c-4.61-7.15-7.77-15.11-11.43-22.74
		c-2.9-4.84-5.43-9.91-6.66-15.45c-4.02-13.67-10.95-26.26-14.83-39.96c-2.8-8.18-6.96-15.77-10.6-23.58
		c-7.57-12.81-9.64-28.04-17.18-40.84c-9.39-15.84-15-33.55-24.77-49.18c-6.38-9.5-10.96-20.07-17.33-29.57
		c-5.19-6.92-9.88-14.2-14.45-21.53c-3.21-5.51-9.44-7.98-14.2-11.85c-6.97-6.09-13.43-13.03-21.74-17.31
		c-6.97-3.76-13.18-8.89-20.4-12.16c-6.32-1.89-12.35-4.42-18.6-6.44c-10.75-1.86-18.11-11.08-28.91-12.83
		c-13.54-6.59-28.29-9.84-42.67-14.04c-10.72-3.95-21.14-8.71-31.73-13.02c-12.11-4.28-25.05-5.93-36.78-11.36
		c-16.59-8.46-35.91-9.07-52.69-17.03c-9.67-3.85-19.66-6.78-29.49-10.16c-15.7-7.72-32.27-15.09-44.09-28.49
		c-6.13-6.57-9.16-15.39-15.9-21.43c15.63-15.83,31.82-31.21,45.27-49.01c51.04-65.38,80.28-145.66,92.83-227.08
		c10.12-69.44,8.16-140.62-5.2-209.48c-15.95-78.89-48.94-155.69-102.58-216.4c-21.62-23.58-45.39-45.56-72.94-62.07
		c-33.55-20.31-71.81-33.52-111.1-35.71C941.97-599.09,910.34-596.49,880.89-586.21 M946.45-582.5c29.01-1.89,58.1,3.93,85.22,13.96
		c33.22,12.1,63.42,31.63,89.46,55.42c24.95,22.52,45.07,49.78,62.81,78.17c36.87,61.23,58.79,130.85,67.4,201.62
		c8.61,65.36,4.98,132.22-10.36,196.32c-10.56,46.17-27.59,90.91-50.75,132.24c-30.19,52.88-71.8,100.97-126.23,129.75
		c-46.09,24.89-101.09,36.2-152.59,23.58c-65.76-14.96-122.86-57.88-161.83-112.15c-50.82-68.99-78.85-152.85-88.6-237.45
		c-9.87-80.08-0.79-162.11,24.39-238.66c11.75-34.48,26.71-67.99,45.99-98.94c22.06-34.8,48.51-67.55,81.8-92.22
		C851.5-560.13,898.03-579.59,946.45-582.5 M985.68,267.68c47.37-5.4,91.93-26.5,129.07-55.92c8.13,17.06,21.56,31.27,37.73,40.95
		c23.37,14.65,50.11,22.36,75.93,31.41c14.08,3.65,28.09,7.56,41.61,12.98c12.58,5.46,26.63,6.52,38.9,12.82
		c8.02,4.52,17.1,6.39,25.61,9.73c7.46,3.29,15.58,4.67,23.2,7.55c22.91,8.07,44.72,18.81,67.16,28.06
		c10.19,4.86,18.99,12.07,27.82,19.01c3.87,3.07,8.27,5.84,10.92,10.17c5.18,8.88,12.76,15.93,18.43,24.48
		c9.15,14.22,17.4,29.04,24.82,44.25c5.65,11.8,12.89,22.81,17.96,34.91c4.95,11.03,8.05,22.85,13.56,33.66
		c3.99,7.63,6.08,16.06,10.06,23.7c6.05,12.36,10,25.61,16.05,37.97c4.74,9.9,8.42,20.24,12.72,30.35c2.3,5.61,7.01,9.88,8.25,16.01
		c4.41,14.28,9.29,28.42,15.3,42.13c3.09,9.67,6.92,19.07,10.67,28.5c2.32,8.81,6.66,16.84,10.01,25.26
		c6.54,13.98,11.84,28.5,16.5,43.21c2.5,8.65,8.89,15.55,10.65,24.48c3.22,10.42,9.14,19.8,12.16,30.33
		c2.67,11.26,9,21.13,12.85,31.96c3.26,7.85,5.58,16.06,9.05,23.84c5.76,11.53,8.16,24.32,12.76,36.31
		c5.66,13.76,10.15,27.96,15.96,41.67c2.96,10.7,8.83,20.25,11.95,30.9c4.2,13.77,9.06,27.37,11.93,41.5
		c3.85,11.3,5.71,23.1,8.38,34.71c4.57,9.59,4.68,20.45,8.52,30.27c2.1,5.6,3.82,11.39,6.34,16.85c3.88,7.91,5.35,16.72,8.64,24.9
		c6.4,15.85,8.28,32.96,12.9,49.34c4.49,17.15,8.79,34.4,14.44,51.22c1.74,8.16,1.54,16.9,4.72,24.76
		c4.32,9.86,4.73,20.84,7.87,31.09c3.77,12.14,6.18,24.65,9.64,36.88c1.17,14.09,4.58,27.82,8.6,41.33
		c5.37,29.92,8.89,60.09,13.53,90.13c1.42,9.85,0.03,19.85,1.75,29.69c1.51,10.54-0.64,21.11-1.26,31.64
		c-0.52,7.96-3.11,15.59-3.89,23.52c-1.42,13.77-0.62,27.84-4.8,41.22c-1.71,9.67-4.56,20.16-13.33,25.9
		c-10.35,6.07-20.85,12.02-31.98,16.53c-20.44,4.76-41.6,3.65-62.35,5.88c-8.24,0.99-16.24-1.06-24.4-1.38
		c-23.72-1.26-47.68-5.36-69.28-15.57c-3.94-1.5-8.17-2.26-11.81-4.46c-5.59-3.39-11.95-5-17.96-7.36
		c-12.11-5.59-24.82-9.81-36.66-15.97c-13.31-7.06-27.89-12.42-39.29-22.52c-14.52-12.69-31.78-21.46-47.34-32.7
		c-10.15-5.2-18.42-13.28-28.46-18.63c-8.22-5.24-14.43-13.02-22.42-18.54c-9.35-6.92-20.07-11.68-29.11-19.02
		c-9.86-8.18-21.95-12.92-31.99-20.8c-13.45-7.04-25.72-16.02-37.93-24.95c-11.13-6.39-22.12-13.05-32.69-20.31
		c-12.13-6.6-24.86-12.01-37.61-17.27c-6.01-1.76-11.97-3.74-17.5-6.71c-10.18-5.59-22.02-7.7-31.64-14.39
		c-6-3.7-12.14-7.2-18.28-10.61c-10-2.59-19.85,1.62-28.66,6.03c-1.68,11.38-12.08,17.73-20.98,23.4
		c-7.07,3.73-14.62,6.48-21.71,10.19c-16.29,5.31-32.67,10.35-49.08,15.24c-6.81,1.97-14.07,1.21-20.93,0.01
		c-7.45,4.27-16.23,0-24.18,0.07c-12.46-0.87-25.01,0.98-37.45,0.15c-8.67-2.73-17.94-2.92-26.8-0.91
		c-5.31,1.27-10.87-0.62-16.11,1.09c-3.27,1.06-6.71,1.42-10.13,1.16c-4.09,5.87-11.63,5.6-17.49,8.22
		c-6.68,5.3-15.5,5.95-22.7,10.27c-17.33,9.83-34.77,19.52-52.89,27.85c-12.41,4.85-24.25,11.49-37.45,13.99
		c-9.51,2.26-19.11,4.24-28.76,5.8c-11.3,0.29-22.81,1.44-34-0.68c-8.02-3.7-20.43-5.05-22.3-15.49
		c-3.31-9.55,3.94-18.41,11.17-23.65c7.56-3.92,16.64-3,24.28-6.72c5.81-2.66,12.4-2.69,18.42-4.74
		c14.97-4.97,31.4-4.22,45.81-11.14c8.04-5.03,17-8.56,24.52-14.41c11.2-8.48,23.54-15.56,33.55-25.53
		c5.7-5.55,12.93-9.06,19.89-12.76c9.18-2.87,18.92-3.61,28.03-6.79c3.89-1.34,5.4-7.78,1.5-9.88c-16.34-1.56-32.73-3.54-49.19-3.4
		c-9.73,0.03-19.45-1.19-28.94-3.18c-9.51-3.97-20.46-5.38-28.48-12.32c-5.58-11.32-8-24.18-7.01-36.79
		c-0.01-3.42,0.23-9.36,4.73-10c9.91-1.19,19.78-2.52,29.76-2.91c14.53-2.69,29.69-0.74,43.93-5.13c5.34-0.59,11.65-2.31,13.74-7.87
		c1.22-3.32-3.09-4.8-4.97-6.49c-3.4-3.13-7.83,0.81-11.49,0.78c-4.69,1.82-9.42,0.67-14.13,0.03c-9.72,0.29-19.94,0.05-28.78,4.8
		c-4.85-4.79-11.74-2.81-17.73-2.51c-10.28,0.26-21.06,1.29-30.73-3.05c-4.04-1.56-8.82-3.52-10.2-8.07
		c-4.97-10.97-4.66-23.06-6.94-34.63c-0.6-4.38,2.36-8.24,3.47-12.25c2.9-8.61,12.44-12.87,20.73-14.4
		c13.21-2.67,25.59-8.57,39.11-9.89c7.14-0.8,13.97-3.87,21.28-2.91c5.6-0.36,12.14,0.33,16.03-4.72c2.64-2.53,7.26-6.77,3.81-10.49
		c-5.21-6.7-15.14-2.81-22.37-4.97c-4.25,2.07-8.73,3.6-13.08,5.4c-7.16,1.75-14.56,1.87-21.79,3.14
		c-8.79,1.85-17.04,5.43-25.36,8.71c-5.94-6.78-4.88-15.83-7.4-23.82c-1.24-4.18-4.45-7.77-4.64-12.19
		c1.45-5.13,3.6-10.39,7.27-14.33c8.67-5.91,18.43-10.72,28.9-12.3c11.66-0.22,22.83-3.81,34.3-5.51
		c12.68-1.83,25.02-5.74,37.86-6.5c14.73-1.09,29.33-3.25,43.99-4.93c16.87-2.51,33.92,0.89,50.09,5.6
		c7.64,2.74,16.11,2.47,23.41,6.33c16.23,7.9,34.91,8.62,50.87,17.13c13.02,5.2,25.18,12.42,38.58,16.68
		c8.47,2.89,16.57,6.93,25.43,8.65c13.76,3.39,24.68,13.36,38.38,16.9c11.06,5.21,20.09,13.67,30.78,19.47
		c10.17,3.56,19.58,8.82,28.71,14.48c23.67,12.56,48.31,23.28,72.31,35.08c10.03,0.55,18.19,6.97,27.22,10.65
		c10.62,6.15,22.68,8.61,34.22,12.42c24.55,6.71,49.51,11.7,74.2,17.9c13.88,3.72,27.98,6.52,42.23,8.45
		c7.22,0.76,13.81,4.31,21.04,5.14c7.99,0.96,15.85,2.93,23.91,3.44c9.52-0.11,18.57,3.37,27.98,4.25
		c10.31,3.19,21.05,4.3,31.8,4.66c10.28-0.19,19.81,4.45,30.03,4.94c10.38,0.43,20.18,4.62,30.61,4.56
		c6.02,0.13,11.28,3.47,16.97,5.09c12.86,4.23,26.57,4.42,39.52,8.31c10.57,1.36,20.07,6.27,29.65,10.6
		c9.47,3.54,16.98,10.55,25.87,15.16c8.64,3.51,14.71,11.36,17.97,19.89c1.99,5.87,7.42,9.49,11.03,14.29
		c3.2-1.15,7.28-1.55,9.49-4.53c2.36-3.17,3.04-7.86,1.1-11.35c-4.12-8.49-6.51-18.69-14.92-24.13
		c-9.51-5.65-16.88-14.17-26.46-19.68c-6.9-4.68-14.99-6.97-22.54-10.28c-6.27-2.79-13.24-3.56-19.29-6.82
		c-4.72-2.5-10.27-0.32-15.28-1.1c-4.44-0.86-8.56-2.85-13.08-3.15c-9.31-0.54-17.86-4.77-26.81-6.91
		c-7.41-2.84-15.48-2.28-23.1-4.13c-14.2-3.49-29.06-2.55-43.26-5.9c-15.04-3.83-30.77-3.14-45.92-6.37
		c-14.01-3.45-28.49-4.64-42.33-8.83c-11.47-3.5-23.35-5.11-34.96-7.91c-7.58-3.51-16.05-4.73-24.33-4.01
		c-27.88-7.09-56.34-12.18-83.59-21.69c-5.85-1.69-10.96-5.1-16.28-7.89c-4.74-2.52-10.14-3.23-15.05-5.25
		c-15.1-7.17-30.86-12.8-46.02-19.82c-5.21-2.8-11.3-3.33-16.32-6.48c-8.76-5.47-18.39-9.28-27.06-14.88
		c-13.66-7.7-27.81-14.58-40.83-23.35c-4.93-3.13-8.86-8.01-14.72-9.46c-19.14-6.11-36.63-16.24-55.36-23.34
		c-8.4-1.74-16.05-5.64-23.08-10.43c7.54,0.73,14.75,3.48,22.38,3.54c8.05,0.32,16.12,0.09,24.19,0.03
		c3.92-0.02,7.97,0.33,11.76-0.92c8.4-3.72,17.27-6.17,25.83-9.47c7.62-1.26,11.69-8.66,16.13-14.19c2.85-4.57,7.71-8.93,6.39-14.95
		c1.46-9.8-2.61-19.17-8.96-26.33c-5.22-7.77-13.72-12.53-22.79-14.19c-13.03-4-26.7-2.31-40-4.23
		c-13.84,0.21-27.77-0.75-41.31-3.68c-5.1-0.72-9.17-4.23-13.93-5.86c-9.04-3.68-17.23-9.03-25.94-13.35
		c-7.08-4.71-15.17-8.01-21.22-14.14c8.82-4.33,19.33-3.76,27.64-9.3c7.38-4.88,16.99-6.32,23.18-12.9
		c4.91-6.4,7.69-14.13,11.63-21.1c5.46-16.17,0.11-32.97-0.58-49.36c12.27-4.09,19.77-16.28,22.31-28.4
		c2.58-9.21-0.3-18.74,0.76-28.08c0.33-5.58-0.57-11.12-2.74-16.24c-2.52-5.93-3.34-12.46-6.22-18.22
		c-3.72-4.34-8.85-7.04-13.01-10.85c-2.34-2.03-1.05-5.9-1.18-8.36c0.37-4.85,0.21-9.83,1.9-14.45c3.53-10.59,4.2-22.48,0-32.97
		c-6.1-8.88-15.21-15.05-25.15-18.84c-13.57-0.15-26-8.11-39.74-5.94c-7.68,1.9-15.53-0.67-23.29-0.14
		c-10.47,0.49-20.92-0.57-31.33-1.2c-10.51,1.32-21.06,0.19-31.6,0.02c-5.07-0.18-10.08,1.36-15.13,0.56
		c-4.57-0.76-9.13,0.44-13.66,0.72c-8.56,0.17-17.39-2.14-25.61,1.26c-11.23,3.95-22.49,7.84-33.5,12.4
		c-9.02,3.11-18.41,5.39-26.81,10.06c-10.5,6.01-20.79,12.55-32.16,16.86c-6.12,2.08-11.25,6.19-16.94,9.15
		c-13.03,6.42-23.81,16.98-37.86,21.39c-17.63,8.3-33.23,20.26-50.58,29.09c-3.7,1.87-7.99,3.05-10.69,6.4
		c-10.13,11.53-24.03,18.63-35.79,28.24c-9.16,5.75-16.99,13.3-26.33,18.79c-5.1,3.33-9.48,7.97-15.37,9.92
		c-4.98,1.91-9.22,5.26-13.89,7.78c-10.51,6.38-21.55,11.82-32.01,18.29c-4.4,2.74-9.04,5.07-13.85,7.03
		c-7.42,3.08-12.68,9.72-20.16,12.69c-20.5,9.41-41.57,17.49-62.84,24.92c-6.31,1.85-12.67,3.67-18.29,7.21
		c-4.94-1.16-9.54,1.26-14.19,2.5c-5.12,1.29-9.12,5.19-14.31,6.3c-13.01,2.66-24.97,8.6-37.45,12.95
		c-8.22,3.12-16.89,4.87-25.1,8.03c-17.27,7.13-36.28,8.32-53.72,14.94c-11.79,4.17-24.5,4.94-36.34,9
		c-5.88,1.99-11.69,4.3-17.87,5.19c-12.95,2.32-23.41,11.65-36.46,13.47c-3.87,0.99-7.32,3.08-11.08,4.46
		c-3.7,1.08-7.67,0.59-11.41,1.5c-12.74,6.22-25.8,11.91-37.8,19.54c-6.2,4.74-12.18,9.81-17.41,15.62
		c-3.93,4.24-8.51,8.06-11.19,13.29c-2.51,6.36-7.05,11.6-9.64,17.95c-1.33,3.44-4.01,6.91-3.08,10.8
		c0.67,5.92,8.07,10.96,13.56,7.62c8.3-6.47,7.73-18.07,13.96-25.87c4.38-7.58,12.15-12.06,18.81-17.34
		c10.38-8.72,21.98-15.99,34.25-21.73c10.48-3.63,20.74-8.05,31.56-10.59c9.75-2.12,18.55-7.03,27.37-11.46
		c5.36-1.69,11.17-1.62,16.39-3.9c10.26-4.69,21.78-5.17,32.07-9.77c11.1-4.33,23.26-4.74,34.55-8.4
		c11.34-4.11,22.76-8.1,34.46-11.01c11.11-1.41,21.54-5.6,32.28-8.45c13.22-6.48,27.96-8.67,41.56-14.15
		c11.26-4.07,22.44-8.36,33.79-12.15c11.83-6.04,25.24-7.78,36.92-14.1c17.58-6.03,34.91-13.33,50.46-23.64
		c7.14-4.11,13.41-10.22,21.73-11.88c5.55-1.01,9.23-5.76,14.11-8.17c7.99-4.21,14.99-9.98,22.86-14.38
		c12.01-8.33,25.26-14.93,36.4-24.47c6.09-4.57,12.32-9,19.05-12.59c12.06-6.78,21.09-17.57,32.16-25.64
		c10.68-3.59,18.55-12.07,28.49-17.07c6.72-4.56,14.75-6.38,21.8-10.29c8.97-5.07,18.64-8.84,27.1-14.81
		c13.24-7.46,25.39-17.33,40.04-22.01c10.64-3.68,20.7-8.79,30.48-14.32c5.06-2.99,10.86-4.21,16.37-6.05
		c12.05-4.88,24.15-10,37.1-11.93c20.97-2.83,42.21,0.3,63.23-1.91c8.83-0.15,17.51,1.66,26.29,2.24
		c15.02,0.36,29.99,1.86,45.01,1.97c9.26,0.12,18.14,3.26,26.36,7.34c4.39,2.13,6.98,6.56,9.28,10.67c2.26,3.64,0.63,8.04-0.3,11.88
		c-2.92,9.24-1.44,19.3-4.87,28.43c-10.11-1.68-20.03-4.85-30.32-5.16c-6.47-0.73-13.03,1-19.43-0.55
		c-4.35-1.34-8.87-2.03-13.13-3.65c-5.78,1.63-11.91,1.71-17.58,3.77c-2.76,1.27-4.44,4.22-5.16,7.06c1.87,4.1,5.91,6.89,9.73,9.13
		c9.09,3,18.44-2.09,27.66,0.26c11.15,0.37,22.27,1.47,33.2,3.75c11.01,2.06,24.16,1.12,33.05,9.12c3.92,5.54,7.96,11.77,7.7,18.87
		c0.01,11.6,0.32,23.47-3.25,34.65c-1.56,3.95-5.89,5.71-9.32,7.61c-10.18,6.24-22.48,5.45-33.88,6.76c-4.51-1-8.86,0.23-12.07,3.4
		c-11.53-2.23-23.43-1.76-34.9,0.6c-6.1,1.21-12.6,1.84-18.2-1.26c-2.55,2.65-5.13,5.26-7.77,7.83c2.78,3.55,6.17,7.32,11.02,7.59
		c6.85,0.16,13.6,1.4,20.49,1.18c6.27-1.05,12.57-1.56,18.93-0.96c10.54,1.25,20.8-2.29,31.31-0.94c4.28,0.54,10.88-1.59,12.81,3.72
		c3.23,9.39,2.41,19.52,1.93,29.29c-0.39,4.4-0.46,9.03-2.41,13.09c-3.65,4.9-9.6,7.22-14.82,9.99c-4.62,1.78-8.56,4.99-13.27,6.56
		c-14.7,4.05-29.68,7.05-44.84,8.71c-11.5,2.77-23.39,4.46-34.42,8.85c1.73,2.91,2.83,7.65,6.94,7.84
		c8.63,0.91,17.24,2.12,25.91,2.46c2.73,0.63,4.98,2.54,7.66,3.41c12.24,4.2,22,12.99,33.29,19.04
		c21.62,12.11,44.4,24.95,69.89,25.23c13.19-0.6,26.05,2.78,39.06,4.27c8.67,2.63,18.03,1.02,26.66,3.93
		c6.95,4.82,15.26,12.08,13.12,21.68c0.75,9.06-9.31,11.76-15.17,16.03c-8.74,5.68-19.7,4.22-29.49,6.21
		c-13.29,1.45-26.66-0.31-39.91-1.35c-10-0.51-19.33-4.45-28.85-7.17c-21.35-5.9-41.93-14.18-62.26-22.88
		c-4.96-1.97-10.3-2.66-15.35-4.2c-6.35-2.3-12.32-6.2-19.36-5.87c-3.4-0.26-6.33-2.11-9.37-3.44c-12.79-2.5-25.79,0.25-38.68,0.36
		c-3.61,0.1-7.11,1.12-10.44,2.45c-6.47,2.63-13.65,1.76-20.4,2.92c-9.16,1.72-18.71,1-27.63,4.03c-5.92,2-12.53,3.83-18.47,0.83
		c-0.09,0.97-0.17,1.97-0.24,2.98c-8.73-1.52-17.61,1.76-26.27-0.75c-16.99-3.49-34.41-5.4-50.86-11.11
		c-7.2-2.34-14.98-3.45-21.37-7.75c-3.25-2.21-6.68-4.15-9.81-6.52c-3.79-2.66-5.07-7.38-7.96-10.74
		c-8.05-3.98-17.21-6.32-26.21-4.6c-10.36,6.23-19.08,14.88-29.4,21.19c-5.94,3.46-12.46,5.88-18.05,9.94
		c-5.86,4.26-12.66,6.86-19.15,9.96c-9.58,6.14-19.6,11.55-29.12,17.79c-7.01,4.11-12.26,10.47-18.93,15.07
		c-6.82,6.26-14.89,10.98-21.49,17.5c-9.56,8.16-18.48,17.18-29.05,24.08c-7.83,6.86-16.23,13.02-24.32,19.58
		c-5.27,4.64-9.81,10.07-15.18,14.61c-10.41,6.3-19.73,14.43-27.13,24.11c-6.03,8.34-15.3,13.27-22.32,20.61
		c-6.71,7.12-15.48,11.73-22.43,18.58c-5.92,5.83-12.64,10.72-19.27,15.71c-11.76,10.23-20.51,24.22-34.86,31.22
		c-10.76,6.44-20.56,14.4-31.65,20.31c-6.11,3.48-12.69,6.19-18.32,10.49c-6.21,3.48-13.16,5.74-18.66,10.44
		c-8.11,4.78-16.42,9.28-24.75,13.66c-11.32,3.62-22.08,9.01-33.73,11.57c-11.56,2.07-23.01,4.86-34.71,5.99
		c-10.5-0.86-21.02,0.24-31.51,0.66c-14.68,2.46-29.82,3.63-44.56,1.13c-10.24-1.69-18.83-7.72-28.27-11.57
		c-6.48-1.91-11.06-7.54-13.35-13.66c-2.64-7.44-6.12-15.11-4.93-23.19c0.96-8.52-6.13-14.79-7.3-22.84
		c-1.89-10.58-7.2-20.27-8.09-31.05c-2.78-10.22-5.17-20.71-5.05-31.35c0.79-8.22-1.77-16.29-1.24-24.51
		c0.28-14.57-0.13-29.27,3.03-43.59c7.59-20.18,11.23-41.67,18.69-61.91c2.32-11.39,5.6-22.56,9.74-33.42
		c6.11-12.7,12.92-25.31,15.82-39.22c5.99-15.27,9.31-31.38,15.16-46.69c3.42-12.37,8.03-24.32,12.58-36.3
		c3.08-9.07,7.08-17.81,11.79-26.14c3.73-6.64,4.82-14.51,9.33-20.72c3.7-5.38,4.63-12.02,7.37-17.84
		c2.76-7.07,6.84-13.54,9.46-20.66c3.71-7.91,4.88-16.79,9.65-24.23c7.17-12.63,11.49-26.61,18.65-39.24
		c6.26-11.79,9.99-24.74,16.58-36.36c4.97-8.38,7.15-18.14,12.8-26.15c4.68-6.79,7.02-14.73,9.9-22.35
		c6.6-15.3,14.63-29.94,22.01-44.87c4.16-11.47,10.48-22,14.44-33.55c6.94-15.02,14.31-29.89,19.44-45.66
		c0.57-4.98,5.02-7.51,7.35-11.46c5.02-8.34,8.17-17.63,12.81-26.16c8.94-15.8,15.1-32.98,24.47-48.55
		c4.65-12.8,12.59-24,17.66-36.6c8.66-21.98,22.89-41.05,34.25-61.61c3.99-6.64,8.91-12.68,12.68-19.45
		c6.9-12.64,18.86-21.31,26.65-33.3c5.26-7.12,13.81-10.14,20.54-15.5c11.63-9.53,26.5-13.24,40.17-18.78
		c20.72-7.34,41.22-15.64,62.82-20.06c10.73-3.84,22.22-5.09,32.67-9.75c12.98-6.24,27.52-7.02,41.1-11.32
		c4.64-1.27,9.19-2.84,13.77-4.33c13.25-4.06,27.27-5.03,40.38-9.65c14.18-3.53,28.09-8.03,42-12.48
		c15.43-5.78,29.88-13.88,43.42-23.21c6.3-5.74,11.78-12.35,17.13-18.98c30.01,23.31,64.6,41.12,101.75,49.61
		C929.86,269.23,958.02,270.57,985.68,267.68 M987.66,568.67c-1.66,9.63,5.77,16.88,10.6,24.24c-35.77-3.74-72.94-2.28-106.86,10.61
		c-15.06,6.16-30.24,14.76-38.58,29.29c-6.45,10.42-3.99,23.62,1.72,33.74c8.38,11.83,22.38,17.42,32.46,27.47
		c4.23,4.23,9.89,6.6,14.1,10.87c4.33,4.3,8.94,8.38,12.61,13.3c2.68,3.64,5.7,8.01,10.7,8.32c6.28,2.07,12.55-4.64,9.81-10.76
		c-2.55-5.39-6.98-9.6-10.47-14.36c33.06,5.97,67.36,4.49,99.89-3.8c12.21-3.14,23.76-8.32,34.89-14.16
		c9.77-5.6,17.53-14.33,22.61-24.32c2.27-5.05,1.55-10.85,1.17-16.18c-0.42-9.6-7.44-17.01-14.06-23.2
		c-7.96-7.57-18.61-10.85-28.01-16.1c-5.51-3.32-9.73-8.38-15.33-11.54c-9.52-5.68-17.28-14.03-22.02-24.07
		C1000.47,561.31,989.36,561.75,987.66,568.67 M949.58,608.57c17.55-1.19,35.36-0.78,52.68,2.58c-5.98,5.45-14.29,8.4-18.61,15.54
		c-2.83,4.26-1.33,11.34,4.02,12.68c5.63,1.63,9.87-2.78,13.99-5.72c8.89-6.92,17.6-16.54,30.06-14.87
		c11.7,4.74,24.3,10.02,31.77,20.78c2.28,4.65,3.73,10.84,0.48,15.42c-6.56,11.55-19.6,16.77-31.18,21.78
		c-25,9.64-52.25,11.64-78.8,11.14c-12.95-0.79-26.06-2.03-38.42-6.19c11.69-3.1,22.81-7.96,33.31-13.95
		c4.95-3.45,3.41-12.66-2.54-14.13c-9.16-3.53-15.74,5.07-23.49,8.04c-13.74,4.18-28.04,8.16-42.53,5.97
		c-4.54-2.55-8.22-6.47-11.43-10.48c-3.34-5.63-4.27-13.72,0.46-18.84c5.79-7.09,13.64-12.13,21.8-16.1
		C909.37,613.51,929.64,610.44,949.58,608.57L949.58,608.57z"/>
	<path d="M880.89-586.21c29.45-10.28,61.08-12.88,92.08-11.58c39.29,2.19,77.55,15.4,111.1,35.71
		c27.55,16.51,51.32,38.49,72.94,62.07c53.64,60.71,86.63,137.51,102.58,216.4c13.36,68.86,15.32,140.04,5.2,209.48
		c-12.55,81.42-41.79,161.7-92.83,227.08c-13.45,17.8-29.64,33.18-45.27,49.01c6.74,6.04,9.77,14.86,15.9,21.43
		c11.82,13.4,28.39,20.77,44.09,28.49c9.83,3.38,19.82,6.31,29.49,10.16c16.78,7.96,36.1,8.57,52.69,17.03
		c11.73,5.43,24.67,7.08,36.78,11.36c10.59,4.31,21.01,9.07,31.73,13.02c14.38,4.2,29.13,7.45,42.67,14.04
		c10.8,1.75,18.16,10.97,28.91,12.83c6.25,2.02,12.28,4.55,18.6,6.44c7.22,3.27,13.43,8.4,20.4,12.16
		c8.31,4.28,14.77,11.22,21.74,17.31c4.76,3.87,10.99,6.34,14.2,11.85c4.57,7.33,9.26,14.61,14.45,21.53
		c6.37,9.5,10.95,20.07,17.33,29.57c9.77,15.63,15.38,33.34,24.77,49.18c7.54,12.8,9.61,28.03,17.18,40.84
		c3.64,7.81,7.8,15.4,10.6,23.58c3.88,13.7,10.81,26.29,14.83,39.96c1.23,5.54,3.76,10.61,6.66,15.45
		c3.66,7.63,6.82,15.59,11.43,22.74c3.23,4.4,2.23,10.32,4.62,15.14c2.7,9.98,8.09,18.9,11.27,28.72
		c3.86,12.29,9.69,23.88,13.13,36.31c2.49,6.35,6.06,12.26,7.98,18.85c3.09,7.61,4.73,15.85,9.21,22.85
		c3.47,4.2,2.84,9.85,4.96,14.61c3.28,9.27,8.2,18.04,9.74,27.86c4.16,9.82,9.15,19.33,13.34,29.17c3.88,10.85,6.02,22.4,11.6,32.59
		c4.34,7.87,7,16.51,11.3,24.42c2.01,6.11,3.62,12.34,5.88,18.41c3.02,9.22,8.57,17.52,10.16,27.23
		c4.23,10.07,6.9,20.67,10.16,31.08c3,11.12,8.86,21.17,13.82,31.48c2.73,7.7,6.3,15.23,7.9,23.32c1.56,7.15,5.93,13.35,6.94,20.67
		c1.44,8.02,3.99,15.78,6.09,23.65c2.24,10.34,4.09,20.79,7.16,30.95c1.2,4.14,1.59,8.68,4.04,12.38c2.08,3.22,4.85,6.17,5.66,10.06
		c2.9,15.78,9.01,30.69,13.06,46.2c11.47,27.8,16.05,57.72,22.34,86.97c4.11,12.8,6.42,26.12,10.85,38.83
		c5.28,17.89,7.52,36.47,11.8,54.59c3.29,8.26,3.76,17.24,5.65,25.87c2.83,13.54,6.16,27,7.63,40.8c0.21,6.95,4.52,13.03,4.06,20.09
		c0.01,9.4-0.12,19,2.71,28.09c1.75,5.05,1.33,10.5,2.69,15.65c0.92,4.38,2.32,8.76,2.12,13.31c-0.45,9.67,2.44,19.22,1.61,28.92
		c-1,13.48-0.48,27.22-4.09,40.39c-2.37,13.33-4.39,26.73-6.68,40.08c-1.7,7.92-0.87,16.13-2.82,24.03
		c0.52,9.79-8.37,15.1-13.6,21.98c-3.12,3.43-5.21,7.59-7.48,11.61c-1.31-1.05-2.6-2.09-3.87-3.1c-8.78,8.72-20.71,12.6-31.84,17.26
		c-10.06,4.33-20.93,0.25-31.28,2.63c-9.87,1.37-19.79,2.21-29.76,1.68c-11.71,0.71-23.36-1.79-35.03-0.27
		c-11.8,0.1-23.36-3.01-34.9-5.04c-15.66-2.79-29.54-10.73-44.09-16.66c-5.17-2.53-9.86-6.16-15.57-7.39
		c-5.34-1-10.11-3.58-15.06-5.61c-6.47-2.71-13.47-4.07-19.6-7.51c-10.3-6.33-22.76-8.68-31.62-17.36
		c-7.4-7.15-18.63-7.96-25.91-15.1c-8.21-7.36-19.21-12-25.22-21.53c-10.67-0.95-18.63-9.45-26.58-15.67
		c-12.6-9.17-24.61-19.24-38.23-26.89c-9.27-7.11-18.62-14.1-28.22-20.74c-8.29-8.81-20.39-11.91-29.98-18.91
		c-18.48-8.36-34.05-21.69-49.64-34.39c-4.04-2.65-8.95-3.51-12.96-6.2c-12.22-8.51-25.82-14.74-39.54-20.38
		c-9.58-3.6-18.49-8.79-28.24-11.94c-11.52-4.08-22.27-10.02-33.81-13.99c-4.27-1.47-8.04-4.06-11.72-6.57
		c-3.41,3.51-6.22,7.73-10.45,10.34c-9.1,5.51-18.08,11.33-28.05,15.18c-15.69,8.33-32.59,14.05-49.56,19.13
		c-10.16,1.47-19.53,5.95-29.67,7.43c-8.86,1.03-17.72,4.07-26.72,2.91c-8.99-1.24-17.97-2.79-27.07-2.89
		c-4.19-0.1-8.19,1.84-12.39,1.21c-12.89-2.14-26.01-0.42-38.95-2.01c-3.69-0.25-7.44-0.82-11.1-0.28
		c-17.5,4.66-33.47,13.32-49.87,20.74c-11.03,3.27-19.29,11.92-29.66,16.61c-6.92,4.06-14.73,6.09-22.04,9.28
		c-3.02,1.88-4.13,6.56-8.33,6.39c-11.44,1.41-21.63,7.76-33.16,8.48c-7.7,0.96-14.31,6.1-22.11,6.47
		c-10.86,0.12-21.52,3.24-32.4,2.87c-9.17-1.65-18.21-3.95-27.27-6.07c-7.38,0.11-12.03-6.33-17.1-10.58
		c-4.05-4.04-8.64-8.26-9.5-14.24c-0.98-4.36-1.44-8.84-1.34-13.27c0.79-6,4.24-11.18,7.14-16.34c3.53-5.99,8.36-11.81,15.11-14.14
		c8.48-3.29,17.08-6.55,26.15-7.74c13.49-1.68,26.75-4.73,40.19-6.77c7.6-0.93,14.67-4.15,21.96-6.27
		c11.15-8.27,23.55-14.77,34.69-23.1c5.42-5.38,12.57-8.64,17.73-14.33c-0.97-1.38-1.92-2.7-2.85-4.05
		c-6,0.35-12.09-0.12-17.98-1.16c-6.4-2.08-12.52-4.86-18.87-7.06c-4.6-1.87-9.86-2.81-13.26-6.69c-7.2-8.28-14.24-17.53-16.4-28.52
		c-2.98-12.73-0.79-25.78-2.13-38.64c-10.53-2.57-18.42-10.7-23.24-20.07c-5.5-12.02-4.84-25.4-6.93-38.15
		c-1.17-8.59,2.74-16.81,3.91-25.17c1.03-8.1,8.49-13.23,14.04-18.34c-0.57-5.04-0.91-10.13-2.24-15.03
		c-0.78-5.28-4.06-9.64-5.18-14.78c-1.74-7.03-2.4-14.35-2.06-21.56c0.11-3.63,2.04-6.84,4.58-9.3c3.1-2.95,4.92-7.11,8.6-9.46
		c4.56-2.74,8.72-7.27,14.42-7.4c10.49-2.23,20.07-7.48,30.68-9.32c-11.91-3.48-24.08-5.8-36.18-8.4
		c-13.65-5.2-27.51-9.88-41.35-14.54c-10.87-4.34-22.26-8.72-30.53-17.32c-9.66,8.66-22.04,13.18-32.86,20.11
		c-14.75,7.82-28.77,16.89-43.53,24.68c-9.43,6.06-19.66,11.23-27.59,19.32c-3.1,3.13-7,5.23-10.9,7.18
		c-3.9,1.88-6.24,5.7-9.25,8.67c-8.79,7.88-16.32,17.16-26.09,23.94c-6.47,6.07-14.5,10.03-21.18,15.84
		c-6.47,5.19-14.35,8.76-19.37,15.6c-4.47,5.56-10.59,9.37-15.6,14.38c-4.44,4.43-8.59,9.2-13.76,12.85
		c-10.93,7.7-19.4,18.19-29.39,26.99c-6.19,5.48-11.18,12.34-18.33,16.69c-3.51,2.59-8.27,3.47-10.65,7.48
		c-5.89,8.99-15.21,14.71-21.98,22.91c-3.58,4.36-9.36,5.93-13.76,9.24c-5.37,3.13-9.23,8.1-13.94,12.05
		c-5.33,5-12.12,7.9-18.17,11.89c-5.14,3.02-9.51,7.28-15,9.71c-9.35,3.74-18,8.95-27.06,13.31c-10.81,7.38-22.11,13.98-33.61,20.2
		c-6.62,4.44-13.96,7.83-21.75,9.6c-9.52,3.02-19.16,5.73-28.85,8.1c-13.77,0.37-27.2,3.71-40.89,5.01
		c-12.21,2.21-24.66,1.29-36.98,1.89c-6.83,0.28-13.96,3.23-20.73,0.99c-9.5-3.23-19.53-5.13-28.31-10.2
		c-2.61-2.59-5.9-2.06-8.86-0.93c-5.5-8.49-14.17-13.95-21.36-20.74c-3.68-8.73-6.2-18.1-7.8-27.47c-2.8-8.59-4.08-17.6-7.31-26.04
		c-2.25-7.83-3.92-15.82-6.98-23.38c-4.19-10.79-4.62-22.4-6.95-33.61c-1.66-7.19-3.96-14.73-2.15-22.06
		c1.39-6.01-0.56-12.15,0.17-18.2c1-16.51,2.99-32.93,4.49-49.39c4.51-17.17,8.52-34.53,14.38-51.31c3.57-7.45,4-15.84,6.87-23.52
		c3.69-12.05,10.13-23.01,13.99-34.99c6.64-14.51,10.67-30.02,15.71-45.11c2.52-12.58,7.61-24.46,11.43-36.67
		c6.65-14.75,10.87-30.59,19.3-44.52c3.1-5.57,6.89-10.78,9.29-16.71c4.44-12.12,7.95-24.6,13.98-36.07
		c4.31-14.36,13.16-26.85,17.19-41.3c1.17-5.79,5.76-10,7.89-15.37c2.66-7.64,8.27-13.74,11.1-21.28
		c3.99-8.83,6.17-18.41,10.96-26.87c3.24-5.58,5.98-11.43,9.25-16.98c4.67-6.73,4.36-15.59,9.3-22.18
		c3.19-8.06,7.93-15.48,10.12-23.91c1.89-3.72,4.41-7.12,5.82-11.07c5.17-14.73,13.91-27.87,18.98-42.63
		c6.22-11.25,10.03-23.58,15.97-34.95c3.69-7.08,6.46-14.56,9.64-21.86c1.54-3.71,1.66-8,4.03-11.34c5.5-6.87,8.2-15.46,13.3-22.6
		c7.02-9.72,9.14-21.87,14.96-32.23c6.36-11.94,10.1-25.08,17.17-36.66c5.67-10.35,11.62-20.59,15.66-31.72
		c4.54-12.06,12.84-22.09,18.4-33.62c7.14-11.79,12.51-24.71,21.09-35.61c5.91-7.29,9.85-15.92,15.69-23.25
		c5.09-6.59,10.48-12.95,15.14-19.86c4-6.6,12.02-8.55,17.55-13.48c11.26-9.7,24.49-16.57,37.68-23.2
		c8.57-3.53,17.73-5.43,26.68-7.73c5.62-1.71,10.32-5.49,15.82-7.47c13.29-3.8,26.04-9.53,39.82-11.55
		c19.28-3.01,36.67-12.61,55.64-16.77c7.22-0.87,14.18-3.03,21.28-4.54c6.45-1.39,12.06-5.24,18.59-6.36
		c15.28-3.2,30.8-5.46,45.62-10.56c7.58-2.64,15.37-4.5,23.09-6.67c16.06-6.31,32.47-12.82,45.7-24.23
		c4.81-4.68,9.16-9.82,13.19-15.18c-13.52-14.04-28.12-27.1-40.32-42.34c-50.43-61.62-81.24-137.56-95.55-215.43
		c-15.63-88.59-13.26-180.85,10.97-267.7c20.32-72.2,55.6-141.59,109.58-194.46C802.45-547.82,839.63-572.55,880.89-586.21
		 M946.45-582.5c-48.42,2.91-94.95,22.37-133.29,51.64c-33.29,24.67-59.74,57.42-81.8,92.22c-19.28,30.95-34.24,64.46-45.99,98.94
		c-25.18,76.55-34.26,158.58-24.39,238.66c9.75,84.6,37.78,168.46,88.6,237.45c38.97,54.27,96.07,97.19,161.83,112.15
		c51.5,12.62,106.5,1.31,152.59-23.58c54.43-28.78,96.04-76.87,126.23-129.75c23.16-41.33,40.19-86.07,50.75-132.24
		c15.34-64.1,18.97-130.96,10.36-196.32c-8.61-70.77-30.53-140.39-67.4-201.62c-17.74-28.39-37.86-55.65-62.81-78.17
		c-26.04-23.79-56.24-43.32-89.46-55.42C1004.55-578.57,975.46-584.39,946.45-582.5 M985.68,267.68
		c-27.66,2.89-55.82,1.55-83.02-4.29c-37.15-8.49-71.74-26.3-101.75-49.61c-5.35,6.63-10.83,13.24-17.13,18.98
		c-13.54,9.33-27.99,17.43-43.42,23.21c-13.91,4.45-27.82,8.95-42,12.48c-13.11,4.62-27.13,5.59-40.38,9.65
		c-4.58,1.49-9.13,3.06-13.77,4.33c-13.58,4.3-28.12,5.08-41.1,11.32c-10.45,4.66-21.94,5.91-32.67,9.75
		c-21.6,4.42-42.1,12.72-62.82,20.06c-13.67,5.54-28.54,9.25-40.17,18.78c-6.73,5.36-15.28,8.38-20.54,15.5
		c-7.79,11.99-19.75,20.66-26.65,33.3c-3.77,6.77-8.69,12.81-12.68,19.45c-11.36,20.56-25.59,39.63-34.25,61.61
		c-5.07,12.6-13.01,23.8-17.66,36.6c-9.37,15.57-15.53,32.75-24.47,48.55c-4.64,8.53-7.79,17.82-12.81,26.16
		c-2.33,3.95-6.78,6.48-7.35,11.46c-5.13,15.77-12.5,30.64-19.44,45.66c-3.96,11.55-10.28,22.08-14.44,33.55
		c-7.38,14.93-15.41,29.57-22.01,44.87c-2.88,7.62-5.22,15.56-9.9,22.35c-5.65,8.01-7.83,17.77-12.8,26.15
		c-6.59,11.62-10.32,24.57-16.58,36.36c-7.16,12.63-11.48,26.61-18.65,39.24c-4.77,7.44-5.94,16.32-9.65,24.23
		c-2.62,7.12-6.7,13.59-9.46,20.66c-2.74,5.82-3.67,12.46-7.37,17.84c-4.51,6.21-5.6,14.08-9.33,20.72
		c-4.71,8.33-8.71,17.07-11.79,26.14c-4.55,11.98-9.16,23.93-12.58,36.3c-5.85,15.31-9.17,31.42-15.16,46.69
		c-2.9,13.91-9.71,26.52-15.82,39.22c-4.14,10.86-7.42,22.03-9.74,33.42c-7.46,20.24-11.1,41.73-18.69,61.91
		c-3.16,14.32-2.75,29.02-3.03,43.59c-0.53,8.22,2.03,16.29,1.24,24.51c-0.12,10.64,2.27,21.13,5.05,31.35
		c0.89,10.78,6.2,20.47,8.09,31.05c1.17,8.05,8.26,14.32,7.3,22.84c-1.19,8.08,2.29,15.75,4.93,23.19
		c2.29,6.12,6.87,11.75,13.35,13.66c9.44,3.85,18.03,9.88,28.27,11.57c14.74,2.5,29.88,1.33,44.56-1.13
		c10.49-0.42,21.01-1.52,31.51-0.66c11.7-1.13,23.15-3.92,34.71-5.99c11.65-2.56,22.41-7.95,33.73-11.57
		c8.33-4.38,16.64-8.88,24.75-13.66c5.5-4.7,12.45-6.96,18.66-10.44c5.63-4.3,12.21-7.01,18.32-10.49
		c11.09-5.91,20.89-13.87,31.65-20.31c14.35-7,23.1-20.99,34.86-31.22c6.63-4.99,13.35-9.88,19.27-15.71
		c6.95-6.85,15.72-11.46,22.43-18.58c7.02-7.34,16.29-12.27,22.32-20.61c7.4-9.68,16.72-17.81,27.13-24.11
		c5.37-4.54,9.91-9.97,15.18-14.61c8.09-6.56,16.49-12.72,24.32-19.58c10.57-6.9,19.49-15.92,29.05-24.08
		c6.6-6.52,14.67-11.24,21.49-17.5c6.67-4.6,11.92-10.96,18.93-15.07c9.52-6.24,19.54-11.65,29.12-17.79
		c6.49-3.1,13.29-5.7,19.15-9.96c5.59-4.06,12.11-6.48,18.05-9.94c10.32-6.31,19.04-14.96,29.4-21.19c9-1.72,18.16,0.62,26.21,4.6
		c2.89,3.36,4.17,8.08,7.96,10.74c3.13,2.37,6.56,4.31,9.81,6.52c6.39,4.3,14.17,5.41,21.37,7.75c16.45,5.71,33.87,7.62,50.86,11.11
		c8.66,2.51,17.54-0.77,26.27,0.75c0.07-1.01,0.15-2.01,0.24-2.98c5.94,3,12.55,1.17,18.47-0.83c8.92-3.03,18.47-2.31,27.63-4.03
		c6.75-1.16,13.93-0.29,20.4-2.92c3.33-1.33,6.83-2.35,10.44-2.45c12.89-0.11,25.89-2.86,38.68-0.36c3.04,1.33,5.97,3.18,9.37,3.44
		c7.04-0.33,13.01,3.57,19.36,5.87c5.05,1.54,10.39,2.23,15.35,4.2c20.33,8.7,40.91,16.98,62.26,22.88
		c9.52,2.72,18.85,6.66,28.85,7.17c13.25,1.04,26.62,2.8,39.91,1.35c9.79-1.99,20.75-0.53,29.49-6.21
		c5.86-4.27,15.92-6.97,15.17-16.03c2.14-9.6-6.17-16.86-13.12-21.68c-8.63-2.91-17.99-1.3-26.66-3.93
		c-13.01-1.49-25.87-4.87-39.06-4.27c-25.49-0.28-48.27-13.12-69.89-25.23c-11.29-6.05-21.05-14.84-33.29-19.04
		c-2.68-0.87-4.93-2.78-7.66-3.41c-8.67-0.34-17.28-1.55-25.91-2.46c-4.11-0.19-5.21-4.93-6.94-7.84
		c11.03-4.39,22.92-6.08,34.42-8.85c15.16-1.66,30.14-4.66,44.84-8.71c4.71-1.57,8.65-4.78,13.27-6.56
		c5.22-2.77,11.17-5.09,14.82-9.99c1.95-4.06,2.02-8.69,2.41-13.09c0.48-9.77,1.3-19.9-1.93-29.29c-1.93-5.31-8.53-3.18-12.81-3.72
		c-10.51-1.35-20.77,2.19-31.31,0.94c-6.36-0.6-12.66-0.09-18.93,0.96c-6.89,0.22-13.64-1.02-20.49-1.18
		c-4.85-0.27-8.24-4.04-11.02-7.59c2.64-2.57,5.22-5.18,7.77-7.83c5.6,3.1,12.1,2.47,18.2,1.26c11.47-2.36,23.37-2.83,34.9-0.6
		c3.21-3.17,7.56-4.4,12.07-3.4c11.4-1.31,23.7-0.52,33.88-6.76c3.43-1.9,7.76-3.66,9.32-7.61c3.57-11.18,3.26-23.05,3.25-34.65
		c0.26-7.1-3.78-13.33-7.7-18.87c-8.89-8-22.04-7.06-33.05-9.12c-10.93-2.28-22.05-3.38-33.2-3.75c-9.22-2.35-18.57,2.74-27.66-0.26
		c-3.82-2.24-7.86-5.03-9.73-9.13c0.72-2.84,2.4-5.79,5.16-7.06c5.67-2.06,11.8-2.14,17.58-3.77c4.26,1.62,8.78,2.31,13.13,3.65
		c6.4,1.55,12.96-0.18,19.43,0.55c10.29,0.31,20.21,3.48,30.32,5.16c3.43-9.13,1.95-19.19,4.87-28.43c0.93-3.84,2.56-8.24,0.3-11.88
		c-2.3-4.11-4.89-8.54-9.28-10.67c-8.22-4.08-17.1-7.22-26.36-7.34c-15.02-0.11-29.99-1.61-45.01-1.97
		c-8.78-0.58-17.46-2.39-26.29-2.24c-21.02,2.21-42.26-0.92-63.23,1.91c-12.95,1.93-25.05,7.05-37.1,11.93
		c-5.51,1.84-11.31,3.06-16.37,6.05c-9.78,5.53-19.84,10.64-30.48,14.32c-14.65,4.68-26.8,14.55-40.04,22.01
		c-8.46,5.97-18.13,9.74-27.1,14.81c-7.05,3.91-15.08,5.73-21.8,10.29c-9.94,5-17.81,13.48-28.49,17.07
		c-11.07,8.07-20.1,18.86-32.16,25.64c-6.73,3.59-12.96,8.02-19.05,12.59c-11.14,9.54-24.39,16.14-36.4,24.47
		c-7.87,4.4-14.87,10.17-22.86,14.38c-4.88,2.41-8.56,7.16-14.11,8.17c-8.32,1.66-14.59,7.77-21.73,11.88
		c-15.55,10.31-32.88,17.61-50.46,23.64c-11.68,6.32-25.09,8.06-36.92,14.1c-11.35,3.79-22.53,8.08-33.79,12.15
		c-13.6,5.48-28.34,7.67-41.56,14.15c-10.74,2.85-21.17,7.04-32.28,8.45c-11.7,2.91-23.12,6.9-34.46,11.01
		c-11.29,3.66-23.45,4.07-34.55,8.4c-10.29,4.6-21.81,5.08-32.07,9.77c-5.22,2.28-11.03,2.21-16.39,3.9
		c-8.82,4.43-17.62,9.34-27.37,11.46c-10.82,2.54-21.08,6.96-31.56,10.59c-12.27,5.74-23.87,13.01-34.25,21.73
		c-6.66,5.28-14.43,9.76-18.81,17.34c-6.23,7.8-5.66,19.4-13.96,25.87c-5.49,3.34-12.89-1.7-13.56-7.62
		c-0.93-3.89,1.75-7.36,3.08-10.8c2.59-6.35,7.13-11.59,9.64-17.95c2.68-5.23,7.26-9.05,11.19-13.29
		c5.23-5.81,11.21-10.88,17.41-15.62c12-7.63,25.06-13.32,37.8-19.54c3.74-0.91,7.71-0.42,11.41-1.5c3.76-1.38,7.21-3.47,11.08-4.46
		c13.05-1.82,23.51-11.15,36.46-13.47c6.18-0.89,11.99-3.2,17.87-5.19c11.84-4.06,24.55-4.83,36.34-9
		c17.44-6.62,36.45-7.81,53.72-14.94c8.21-3.16,16.88-4.91,25.1-8.03c12.48-4.35,24.44-10.29,37.45-12.95
		c5.19-1.11,9.19-5.01,14.31-6.3c4.65-1.24,9.25-3.66,14.19-2.5c5.62-3.54,11.98-5.36,18.29-7.21
		c21.27-7.43,42.34-15.51,62.84-24.92c7.48-2.97,12.74-9.61,20.16-12.69c4.81-1.96,9.45-4.29,13.85-7.03
		c10.46-6.47,21.5-11.91,32.01-18.29c4.67-2.52,8.91-5.87,13.89-7.78c5.89-1.95,10.27-6.59,15.37-9.92
		c9.34-5.49,17.17-13.04,26.33-18.79c11.76-9.61,25.66-16.71,35.79-28.24c2.7-3.35,6.99-4.53,10.69-6.4
		c17.35-8.83,32.95-20.79,50.58-29.09c14.05-4.41,24.83-14.97,37.86-21.39c5.69-2.96,10.82-7.07,16.94-9.15
		c11.37-4.31,21.66-10.85,32.16-16.86c8.4-4.67,17.79-6.95,26.81-10.06c11.01-4.56,22.27-8.45,33.5-12.4
		c8.22-3.4,17.05-1.09,25.61-1.26c4.53-0.28,9.09-1.48,13.66-0.72c5.05,0.8,10.06-0.74,15.13-0.56c10.54,0.17,21.09,1.3,31.6-0.02
		c10.41,0.63,20.86,1.69,31.33,1.2c7.76-0.53,15.61,2.04,23.29,0.14c13.74-2.17,26.17,5.79,39.74,5.94
		c9.94,3.79,19.05,9.96,25.15,18.84c4.2,10.49,3.53,22.38,0,32.97c-1.69,4.62-1.53,9.6-1.9,14.45c0.13,2.46-1.16,6.33,1.18,8.36
		c4.16,3.81,9.29,6.51,13.01,10.85c2.88,5.76,3.7,12.29,6.22,18.22c2.17,5.12,3.07,10.66,2.74,16.24
		c-1.06,9.34,1.82,18.87-0.76,28.08c-2.54,12.12-10.04,24.31-22.31,28.4c0.69,16.39,6.04,33.19,0.58,49.36
		c-3.94,6.97-6.72,14.7-11.63,21.1c-6.19,6.58-15.8,8.02-23.18,12.9c-8.31,5.54-18.82,4.97-27.64,9.3
		c6.05,6.13,14.14,9.43,21.22,14.14c8.71,4.32,16.9,9.67,25.94,13.35c4.76,1.63,8.83,5.14,13.93,5.86
		c13.54,2.93,27.47,3.89,41.31,3.68c13.3,1.92,26.97,0.23,40,4.23c9.07,1.66,17.57,6.42,22.79,14.19
		c6.35,7.16,10.42,16.53,8.96,26.33c1.32,6.02-3.54,10.38-6.39,14.95c-4.44,5.53-8.51,12.93-16.13,14.19
		c-8.56,3.3-17.43,5.75-25.83,9.47c-3.79,1.25-7.84,0.9-11.76,0.92c-8.07,0.06-16.14,0.29-24.19-0.03
		c-7.63-0.06-14.84-2.81-22.38-3.54c7.03,4.79,14.68,8.69,23.08,10.43c18.73,7.1,36.22,17.23,55.36,23.34
		c5.86,1.45,9.79,6.33,14.72,9.46c13.02,8.77,27.17,15.65,40.83,23.35c8.67,5.6,18.3,9.41,27.06,14.88
		c5.02,3.15,11.11,3.68,16.32,6.48c15.16,7.02,30.92,12.65,46.02,19.82c4.91,2.02,10.31,2.73,15.05,5.25
		c5.32,2.79,10.43,6.2,16.28,7.89c27.25,9.51,55.71,14.6,83.59,21.69c8.28-0.72,16.75,0.5,24.33,4.01
		c11.61,2.8,23.49,4.41,34.96,7.91c13.84,4.19,28.32,5.38,42.33,8.83c15.15,3.23,30.88,2.54,45.92,6.37
		c14.2,3.35,29.06,2.41,43.26,5.9c7.62,1.85,15.69,1.29,23.1,4.13c8.95,2.14,17.5,6.37,26.81,6.91c4.52,0.3,8.64,2.29,13.08,3.15
		c5.01,0.78,10.56-1.4,15.28,1.1c6.05,3.26,13.02,4.03,19.29,6.82c7.55,3.31,15.64,5.6,22.54,10.28
		c9.58,5.51,16.95,14.03,26.46,19.68c8.41,5.44,10.8,15.64,14.92,24.13c1.94,3.49,1.26,8.18-1.1,11.35
		c-2.21,2.98-6.29,3.38-9.49,4.53c-3.61-4.8-9.04-8.42-11.03-14.29c-3.26-8.53-9.33-16.38-17.97-19.89
		c-8.89-4.61-16.4-11.62-25.87-15.16c-9.58-4.33-19.08-9.24-29.65-10.6c-12.95-3.89-26.66-4.08-39.52-8.31
		c-5.69-1.62-10.95-4.96-16.97-5.09c-10.43,0.06-20.23-4.13-30.61-4.56c-10.22-0.49-19.75-5.13-30.03-4.94
		c-10.75-0.36-21.49-1.47-31.8-4.66c-9.41-0.88-18.46-4.36-27.98-4.25c-8.06-0.51-15.92-2.48-23.91-3.44
		c-7.23-0.83-13.82-4.38-21.04-5.14c-14.25-1.93-28.35-4.73-42.23-8.45c-24.69-6.2-49.65-11.19-74.2-17.9
		c-11.54-3.81-23.6-6.27-34.22-12.42c-9.03-3.68-17.19-10.1-27.22-10.65c-24-11.8-48.64-22.52-72.31-35.08
		c-9.13-5.66-18.54-10.92-28.71-14.48c-10.69-5.8-19.72-14.26-30.78-19.47c-13.7-3.54-24.62-13.51-38.38-16.9
		c-8.86-1.72-16.96-5.76-25.43-8.65c-13.4-4.26-25.56-11.48-38.58-16.68c-15.96-8.51-34.64-9.23-50.87-17.13
		c-7.3-3.86-15.77-3.59-23.41-6.33c-16.17-4.71-33.22-8.11-50.09-5.6c-14.66,1.68-29.26,3.84-43.99,4.93
		c-12.84,0.76-25.18,4.67-37.86,6.5c-11.47,1.7-22.64,5.29-34.3,5.51c-10.47,1.58-20.23,6.39-28.9,12.3
		c-3.67,3.94-5.82,9.2-7.27,14.33c0.19,4.42,3.4,8.01,4.64,12.19c2.52,7.99,1.46,17.04,7.4,23.82c8.32-3.28,16.57-6.86,25.36-8.71
		c7.23-1.27,14.63-1.39,21.79-3.14c4.35-1.8,8.83-3.33,13.08-5.4c7.23,2.16,17.16-1.73,22.37,4.97c3.45,3.72-1.17,7.96-3.81,10.49
		c-3.89,5.05-10.43,4.36-16.03,4.72c-7.31-0.96-14.14,2.11-21.28,2.91c-13.52,1.32-25.9,7.22-39.11,9.89
		c-8.29,1.53-17.83,5.79-20.73,14.4c-1.11,4.01-4.07,7.87-3.47,12.25c2.28,11.57,1.97,23.66,6.94,34.63
		c1.38,4.55,6.16,6.51,10.2,8.07c9.67,4.34,20.45,3.31,30.73,3.05c5.99-0.3,12.88-2.28,17.73,2.51c8.84-4.75,19.06-4.51,28.78-4.8
		c4.71,0.64,9.44,1.79,14.13-0.03c3.66,0.03,8.09-3.91,11.49-0.78c1.88,1.69,6.19,3.17,4.97,6.49c-2.09,5.56-8.4,7.28-13.74,7.87
		c-14.24,4.39-29.4,2.44-43.93,5.13c-9.98,0.39-19.85,1.72-29.76,2.91c-4.5,0.64-4.74,6.58-4.73,10
		c-0.99,12.61,1.43,25.47,7.01,36.79c8.02,6.94,18.97,8.35,28.48,12.32c9.49,1.99,19.21,3.21,28.94,3.18
		c16.46-0.14,32.85,1.84,49.19,3.4c3.9,2.1,2.39,8.54-1.5,9.88c-9.11,3.18-18.85,3.92-28.03,6.79c-6.96,3.7-14.19,7.21-19.89,12.76
		c-10.01,9.97-22.35,17.05-33.55,25.53c-7.52,5.85-16.48,9.38-24.52,14.41c-14.41,6.92-30.84,6.17-45.81,11.14
		c-6.02,2.05-12.61,2.08-18.42,4.74c-7.64,3.72-16.72,2.8-24.28,6.72c-7.23,5.24-14.48,14.1-11.17,23.65
		c1.87,10.44,14.28,11.79,22.3,15.49c11.19,2.12,22.7,0.97,34,0.68c9.65-1.56,19.25-3.54,28.76-5.8c13.2-2.5,25.04-9.14,37.45-13.99
		c18.12-8.33,35.56-18.02,52.89-27.85c7.2-4.32,16.02-4.97,22.7-10.27c5.86-2.62,13.4-2.35,17.49-8.22
		c3.42,0.26,6.86-0.1,10.13-1.16c5.24-1.71,10.8,0.18,16.11-1.09c8.86-2.01,18.13-1.82,26.8,0.91c12.44,0.83,24.99-1.02,37.45-0.15
		c7.95-0.07,16.73,4.2,24.18-0.07c6.86,1.2,14.12,1.96,20.93-0.01c16.41-4.89,32.79-9.93,49.08-15.24
		c7.09-3.71,14.64-6.46,21.71-10.19c8.9-5.67,19.3-12.02,20.98-23.4c8.81-4.41,18.66-8.62,28.66-6.03
		c6.14,3.41,12.28,6.91,18.28,10.61c9.62,6.69,21.46,8.8,31.64,14.39c5.53,2.97,11.49,4.95,17.5,6.71
		c12.75,5.26,25.48,10.67,37.61,17.27c10.57,7.26,21.56,13.92,32.69,20.31c12.21,8.93,24.48,17.91,37.93,24.95
		c10.04,7.88,22.13,12.62,31.99,20.8c9.04,7.34,19.76,12.1,29.11,19.02c7.99,5.52,14.2,13.3,22.42,18.54
		c10.04,5.35,18.31,13.43,28.46,18.63c15.56,11.24,32.82,20.01,47.34,32.7c11.4,10.1,25.98,15.46,39.29,22.52
		c11.84,6.16,24.55,10.38,36.66,15.97c6.01,2.36,12.37,3.97,17.96,7.36c3.64,2.2,7.87,2.96,11.81,4.46
		c21.6,10.21,45.56,14.31,69.28,15.57c8.16,0.32,16.16,2.37,24.4,1.38c20.75-2.23,41.91-1.12,62.35-5.88
		c11.13-4.51,21.63-10.46,31.98-16.53c8.77-5.74,11.62-16.23,13.33-25.9c4.18-13.38,3.38-27.45,4.8-41.22
		c0.78-7.93,3.37-15.56,3.89-23.52c0.62-10.53,2.77-21.1,1.26-31.64c-1.72-9.84-0.33-19.84-1.75-29.69
		c-4.64-30.04-8.16-60.21-13.53-90.13c-4.02-13.51-7.43-27.24-8.6-41.33c-3.46-12.23-5.87-24.74-9.64-36.88
		c-3.14-10.25-3.55-21.23-7.87-31.09c-3.18-7.86-2.98-16.6-4.72-24.76c-5.65-16.82-9.95-34.07-14.44-51.22
		c-4.62-16.38-6.5-33.49-12.9-49.34c-3.29-8.18-4.76-16.99-8.64-24.9c-2.52-5.46-4.24-11.25-6.34-16.85
		c-3.84-9.82-3.95-20.68-8.52-30.27c-2.67-11.61-4.53-23.41-8.38-34.71c-2.87-14.13-7.73-27.73-11.93-41.5
		c-3.12-10.65-8.99-20.2-11.95-30.9c-5.81-13.71-10.3-27.91-15.96-41.67c-4.6-11.99-7-24.78-12.76-36.31
		c-3.47-7.78-5.79-15.99-9.05-23.84c-3.85-10.83-10.18-20.7-12.85-31.96c-3.02-10.53-8.94-19.91-12.16-30.33
		c-1.76-8.93-8.15-15.83-10.65-24.48c-4.66-14.71-9.96-29.23-16.5-43.21c-3.35-8.42-7.69-16.45-10.01-25.26
		c-3.75-9.43-7.58-18.83-10.67-28.5c-6.01-13.71-10.89-27.85-15.3-42.13c-1.24-6.13-5.95-10.4-8.25-16.01
		c-4.3-10.11-7.98-20.45-12.72-30.35c-6.05-12.36-10-25.61-16.05-37.97c-3.98-7.64-6.07-16.07-10.06-23.7
		c-5.51-10.81-8.61-22.63-13.56-33.66c-5.07-12.1-12.31-23.11-17.96-34.91c-7.42-15.21-15.67-30.03-24.82-44.25
		c-5.67-8.55-13.25-15.6-18.43-24.48c-2.65-4.33-7.05-7.1-10.92-10.17c-8.83-6.94-17.63-14.15-27.82-19.01
		c-22.44-9.25-44.25-19.99-67.16-28.06c-7.62-2.88-15.74-4.26-23.2-7.55c-8.51-3.34-17.59-5.21-25.61-9.73
		c-12.27-6.3-26.32-7.36-38.9-12.82c-13.52-5.42-27.53-9.33-41.61-12.98c-25.82-9.05-52.56-16.76-75.93-31.41
		c-16.17-9.68-29.6-23.89-37.73-40.95C1077.61,241.18,1033.05,262.28,985.68,267.68 M987.66,568.67c1.7-6.92,12.81-7.36,15.23-0.65
		c4.74,10.04,12.5,18.39,22.02,24.07c5.6,3.16,9.82,8.22,15.33,11.54c9.4,5.25,20.05,8.53,28.01,16.1
		c6.62,6.19,13.64,13.6,14.06,23.2c0.38,5.33,1.1,11.13-1.17,16.18c-5.08,9.99-12.84,18.72-22.61,24.32
		c-11.13,5.84-22.68,11.02-34.89,14.16c-32.53,8.29-66.83,9.77-99.89,3.8c3.49,4.76,7.92,8.97,10.47,14.36
		c2.74,6.12-3.53,12.83-9.81,10.76c-5-0.31-8.02-4.68-10.7-8.32c-3.67-4.92-8.28-9-12.61-13.3c-4.21-4.27-9.87-6.64-14.1-10.87
		c-10.08-10.05-24.08-15.64-32.46-27.47c-5.71-10.12-8.17-23.32-1.72-33.74c8.34-14.53,23.52-23.13,38.58-29.29
		c33.92-12.89,71.09-14.35,106.86-10.61C993.43,585.55,986,578.3,987.66,568.67 M949.58,608.57c-19.94,1.87-40.21,4.94-58.43,13.65
		c-8.16,3.97-16.01,9.01-21.8,16.1c-4.73,5.12-3.8,13.21-0.46,18.84c3.21,4.01,6.89,7.93,11.43,10.48
		c14.49,2.19,28.79-1.79,42.53-5.97c7.75-2.97,14.33-11.57,23.49-8.04c5.95,1.47,7.49,10.68,2.54,14.13
		c-10.5,5.99-21.62,10.85-33.31,13.95c12.36,4.16,25.47,5.4,38.42,6.19c26.55,0.5,53.8-1.5,78.8-11.14
		c11.58-5.01,24.62-10.23,31.18-21.78c3.25-4.58,1.8-10.77-0.48-15.42c-7.47-10.76-20.07-16.04-31.77-20.78
		c-12.46-1.67-21.17,7.95-30.06,14.87c-4.12,2.94-8.36,7.35-13.99,5.72c-5.35-1.34-6.85-8.42-4.02-12.68
		c4.32-7.14,12.63-10.09,18.61-15.54C984.94,607.79,967.13,607.38,949.58,608.57L949.58,608.57z"/>
</g>
</svg>
