<?xml version="1.0" encoding="UTF-8"?>
<svg version="1.1" xmlns="http://www.w3.org/2000/svg" width="1024" height="1024">
<path d="M0 0 C337.92 0 675.84 0 1024 0 C1024 337.92 1024 675.84 1024 1024 C686.08 1024 348.16 1024 0 1024 C0 686.08 0 348.16 0 0 Z " fill="#FCFDFE" transform="translate(0,0)"/>
<path d="M0 0 C4.29117502 2.23887392 5.78037232 5.01815346 7.38037109 9.51416016 C8.64488057 14.58714498 8.43376325 19.73955996 8.375 24.9375 C8.36847412 26.21858643 8.36194824 27.49967285 8.35522461 28.81958008 C8.19161501 44.46945379 6.8271294 60.0625847 5.55645752 75.65306091 C4.85757734 84.42575604 4.41620747 93.21002068 4 102 C4.29116699 100.99324219 4.58233398 99.98648438 4.88232422 98.94921875 C26.27080832 25.23268491 26.27080832 25.23268491 37.984375 16.08984375 C40 15 40 15 43.6875 14.75 C47.94691891 16.35732789 49.55671837 17.07594162 52 21 C56.6275647 52.73187226 38.93968785 91.48285071 29 121 C29.33 121.33 29.66 121.66 30 122 C30.6084375 120.9790625 31.216875 119.958125 31.84375 118.90625 C65.25812971 63.30232891 65.25812971 63.30232891 78.6875 58.75 C83.80872266 59.13650737 86.49267747 61.34194521 89.875 65.0625 C93.03104859 73.30329353 90.70036205 81.95064492 88 90 C87.44892578 91.72089844 87.44892578 91.72089844 86.88671875 93.4765625 C78.53347394 118.26538089 62.80811956 141.61560374 48 163 C48.52078125 162.60039062 49.0415625 162.20078125 49.578125 161.7890625 C92.46332046 130.10935359 92.46332046 130.10935359 112 132 C114.8100346 133.79363911 116.50940468 135.01880935 118 138 C118.37400849 142.4881019 118.48895954 145.00170761 116.5 149.0625 C111.29023354 155.1839756 104.77459867 160.65853184 98 165 C97.34 165 96.68 165 96 165 C95.67 166.65 95.34 168.3 95 170 C97.62695998 169.25640576 100.25139713 168.50527961 102.875 167.75 C103.60203125 167.54503906 104.3290625 167.34007812 105.078125 167.12890625 C110.88315508 165.44850281 116.41610458 163.30132871 122 161 C123.48367485 160.4109937 124.96804298 159.82373053 126.453125 159.23828125 C140.92883914 153.45225898 155.1311511 147.08665254 169.33886719 140.67700195 C170.15214981 140.31049026 170.96543243 139.94397858 171.80335999 139.56636047 C173.34572386 138.87080529 174.88745265 138.1738396 176.42845154 137.4752655 C181.91324221 135.00003011 185.91481009 133.47541466 192 134 C195.63702094 135.97664181 196.74133633 137.30569226 198.1875 141.1875 C197.74150782 150.25600764 189.58010907 156.86212744 183.65625 163.1640625 C181.57403967 165.38712824 179.54879631 167.62989106 177.5625 169.9375 C169.87392422 178.78211462 161.82972009 187.25181488 153.484375 195.4765625 C150.60383141 198.40239766 147.94159465 201.46245543 145.33984375 204.63671875 C144.67662109 205.31154297 144.67662109 205.31154297 144 206 C143.34 206 142.68 206 142 206 C142 206.66 142 207.32 142 208 C139.54010146 210.54671849 136.71033992 212.72532523 134 215 C133.09378906 215.79277344 132.18757812 216.58554687 131.25390625 217.40234375 C119.81866369 227.25821682 106.9376446 234.18815025 93.80517578 241.50146484 C67.28219173 255.621997 67.28219173 255.621997 43.5234375 273.75 C42 275 42 275 40 275 C39.98786972 276.35611389 39.98786972 276.35611389 39.97549438 277.73962402 C39.89701616 286.32898184 39.8095731 294.91819411 39.71247292 303.50736237 C39.66287773 307.92138125 39.61654996 312.33538034 39.578125 316.74951172 C39.54080067 321.02255949 39.49432506 325.29542494 39.44193649 329.5683136 C39.42363926 331.18505094 39.40844419 332.80182697 39.39665604 334.41862488 C39.170901 364.35766777 33.45797759 390.54195036 14 414 C13.28070312 414.87140625 12.56140625 415.7428125 11.8203125 416.640625 C-3.72112771 434.67090795 -25.28627337 446.30837365 -49 449 C-59.89072152 449.61182 -71.00224856 449.77945622 -81.79296875 448.109375 C-85.86871963 447.70944402 -87.96383506 448.12075902 -91.3359375 450.46484375 C-92.70476241 451.59573488 -94.05072768 452.75474931 -95.375 453.9375 C-96.8533699 455.15518248 -98.33516359 456.36871982 -99.8203125 457.578125 C-100.53477539 458.17044922 -101.24923828 458.76277344 -101.98535156 459.37304688 C-121.75321915 475.33682167 -148.32965577 484.34741269 -173 489 C-174.12664062 489.226875 -175.25328125 489.45375 -176.4140625 489.6875 C-196.79841852 493.12467479 -218.79194747 492.08460636 -239 488 C-239.82081055 487.83902832 -240.64162109 487.67805664 -241.48730469 487.51220703 C-267.05636119 482.32363241 -289.75661738 470.26199712 -310 454 C-310.95132813 453.25234375 -311.90265625 452.5046875 -312.8828125 451.734375 C-320.25094457 445.74187884 -327.01425536 439.1915507 -333.75 432.5 C-334.62519287 431.63407227 -335.50038574 430.76814453 -336.40209961 429.87597656 C-342.35727493 423.89208668 -347.75017387 417.60647959 -353 411 C-354.01382885 409.75764666 -355.02921056 408.51655715 -356.046875 407.27734375 C-369.50579748 390.7155137 -381.20141264 373.40668301 -392 355 C-392.46535156 354.21657227 -392.93070312 353.43314453 -393.41015625 352.62597656 C-413.16914604 319.2273856 -430.59802968 278.9567368 -421.96484375 239.5703125 C-416.65936681 219.93789987 -404.02168778 204.63396073 -386.4921875 194.55859375 C-376.25205514 189.18172174 -367.16241366 187.525821 -355.625 187.6875 C-354.48289062 187.68427734 -353.34078125 187.68105469 -352.1640625 187.67773438 C-318.06221286 187.89087094 -293.06746511 208.62972955 -267.96484375 229.38232422 C-265.27470004 231.59714681 -262.56344453 233.78541495 -259.85302734 235.9753418 C-253.69923163 240.95035946 -247.60624662 245.98744968 -241.58129883 251.11767578 C-237.3728995 254.6983173 -233.10218356 258.19633099 -228.81640625 261.68359375 C-225.66214618 264.27787422 -222.54803805 266.91614017 -219.4375 269.5625 C-214.83459483 273.47530636 -210.17557512 277.30078795 -205.44140625 281.0546875 C-202.87875662 283.09660672 -200.34400617 285.16961644 -197.8125 287.25 C-195.8754438 288.83387625 -193.93790834 290.41716648 -192 292 C-191.44715332 292.45391113 -190.89430664 292.90782227 -190.32470703 293.37548828 C-159.37406812 319.31223468 -159.37406812 319.31223468 -121 326 C-106.68792543 323.29930344 -96.09632258 313.88631907 -86 304 C-85.27200195 303.28714844 -84.54400391 302.57429688 -83.79394531 301.83984375 C-81.37628489 299.46285796 -78.96716301 297.07763187 -76.5625 294.6875 C-75.40802368 293.54027466 -75.40802368 293.54027466 -74.23022461 292.36987305 C-72.77641612 290.91160063 -71.33398839 289.44186791 -69.90478516 287.95947266 C-68.76198347 286.78386047 -67.59170284 285.63286331 -66.37255859 284.53662109 C-63.18908203 281.42541928 -62.64749081 278.77329499 -62.40625 274.515625 C-62.41153802 272.42685625 -62.44356722 270.33801298 -62.5 268.25 C-62.49613281 266.69925781 -62.49613281 266.69925781 -62.4921875 265.1171875 C-62.72609701 246.54477256 -73.00994754 232.80536346 -83.02099609 217.93798828 C-88.29385073 210.10015918 -93.31828001 202.20234025 -98 194 C-98.42055664 193.27490234 -98.84111328 192.54980469 -99.27441406 191.80273438 C-104.92020946 182.03725363 -110.07197527 172.107968 -114.6875 161.8125 C-115.1218335 160.86890625 -115.55616699 159.9253125 -116.00366211 158.953125 C-118.45599274 153.32032636 -120.09972261 148.18202928 -119 142 C-117.20606332 139.12970131 -116.01736724 137.50868362 -113 136 C-105.16672456 135.32471763 -100.53126616 137.04989833 -94.5078125 142.08203125 C-87.32418134 148.85963108 -81.68822782 156.59313831 -76.04296875 164.66796875 C-75.02879395 166.1120832 -74.01447041 167.5560932 -73 169 C-72.46713379 169.76908691 -71.93426758 170.53817383 -71.38525391 171.33056641 C-70.60093994 172.42957275 -70.60093994 172.42957275 -69.80078125 173.55078125 C-69.10142456 174.54525269 -69.10142456 174.54525269 -68.38793945 175.55981445 C-67.70090942 176.2727063 -67.70090942 176.2727063 -67 177 C-66.01 177 -65.02 177 -64 177 C-61.95961822 172.67165874 -61.40274907 168.39525788 -60.9375 163.6875 C-60.8139917 162.49326416 -60.8139917 162.49326416 -60.68798828 161.27490234 C-59.91089871 153.52708853 -59.29253738 145.78293893 -59 138 C-58.97131836 137.2771582 -58.94263672 136.55431641 -58.91308594 135.80957031 C-58.43296847 121.67953087 -59.94065123 107.90899955 -61.56347656 93.88867188 C-62.26628319 87.62787551 -62.88852478 81.36005334 -63.48690796 75.08850098 C-63.61843891 73.71904231 -63.75232859 72.34980768 -63.88882446 70.98083496 C-66.25641404 47.22914685 -66.25641404 47.22914685 -63.1875 42.375 C-60.39878047 39.34724737 -58.82118779 38.09296466 -54.6875 37.625 C-50.4018346 38.06083038 -47.86851789 38.83473888 -45 42 C-36.14528092 55.42560898 -34.35602309 72.67935831 -31.8125 88.25 C-31.4233929 90.59816839 -31.03245459 92.94601887 -30.64006042 95.29364014 C-30.39959083 96.7356853 -30.16127281 98.17809153 -29.92549133 99.62091064 C-29.40300182 102.78487357 -28.84945089 105.9058887 -28 109 C-27.04980309 99.20460614 -26.61451075 89.40023285 -26.18487549 79.57202148 C-23.29133219 14.32370243 -23.29133219 14.32370243 -11.75 1.5 C-7.79711013 -0.65612175 -4.40384061 -0.76867036 0 0 Z " fill="#24DBC2" transform="translate(670,323)"/>
<path d="M0 0 C5.33655525 5.02680495 9.26299121 10.29379485 12.54296875 16.84375 C13.14625 18.00197266 13.14625 18.00197266 13.76171875 19.18359375 C16.88956494 26.25476031 16.95101856 33.20414974 17.1940918 40.80102539 C17.93223563 62.23376207 24.19136653 82.14994295 40.04296875 97.21875 C40.71328125 97.80398438 41.38359375 98.38921875 42.07421875 98.9921875 C43.54296875 100.84375 43.54296875 100.84375 43.890625 103.41015625 C43.35390909 107.16716763 41.41352847 108.46179619 38.54296875 110.84375 C36.25395518 112.300395 33.94496354 113.5721057 31.54296875 114.84375 C31.61153076 115.52800049 31.68009277 116.21225098 31.75073242 116.91723633 C32.47849925 124.7793333 32.79139487 132.60404084 32.83813477 140.49926758 C32.84973747 141.85939874 32.87031795 143.21948154 32.8996582 144.5793457 C33.1101237 154.40302853 32.51300298 161.70605865 26.41796875 169.59375 C18.7535208 175.59201361 9.37871807 178.8900525 0.04174805 181.27075195 C-11.63643917 184.25341831 -20.97417696 187.98239397 -27.64453125 198.53125 C-34.55401057 210.86173038 -37.39395526 224.31238672 -38.0390625 238.30859375 C-38.10172302 239.54603333 -38.10172302 239.54603333 -38.16564941 240.80847168 C-38.2669193 242.82002684 -38.36256333 244.83186393 -38.45703125 246.84375 C-39.03173157 246.83930878 -39.60643188 246.83486755 -40.19854736 246.83029175 C-46.23422738 246.78570046 -52.26985984 246.75573657 -58.30566406 246.73388672 C-60.55177718 246.7238911 -62.7978775 246.71029012 -65.04394531 246.69287109 C-68.29104797 246.66833743 -71.53797711 246.6572022 -74.78515625 246.6484375 C-75.77316223 246.63811493 -76.76116821 246.62779236 -77.77911377 246.61715698 C-84.84254233 246.61604561 -91.5274973 247.49632471 -98.45703125 248.84375 C-96.84219986 243.21657179 -95.05924361 237.70834622 -93.01953125 232.21875 C-88.73758486 220.25525131 -84.5893617 207.7155266 -86.45703125 194.84375 C-87.8861095 192.02141997 -89.22352759 190.07725366 -91.45703125 187.84375 C-104.90724 187.84375 -117.17197813 200.4182816 -127.234375 208.22216797 C-146.25447158 222.89904965 -165.03206507 229.5513037 -189.0546875 227.63671875 C-202.36919498 225.37200813 -214.33372342 216.53215703 -222.55078125 206.21484375 C-230.47827356 194.6763115 -233.25509854 181.97383115 -230.76953125 168.21875 C-227.39692273 155.33305953 -219.45264599 145.9476038 -208.11328125 139.21875 C-199.18736194 134.59827412 -189.26921208 134.93074196 -179.625 137.11328125 C-176.75215978 138.08124723 -174.14216361 139.44564256 -171.45703125 140.84375 C-173.4560109 131.21230259 -176.31424944 122.32641774 -180.01953125 113.21875 C-183.43062284 104.80417379 -186.11428871 96.85930705 -187.45703125 87.84375 C-187.63621094 86.78285156 -187.81539062 85.72195313 -188 84.62890625 C-190.76689675 61.71332548 -186.36890714 43.33429998 -172.14453125 25.03125 C-167.46711915 19.55956037 -162.18872963 15.16850429 -156.45703125 10.84375 C-155.60496094 10.17730469 -154.75289063 9.51085937 -153.875 8.82421875 C-111.9808228 -23.02038071 -42.7574745 -37.52325266 0 0 Z " fill="#29DBC3" transform="translate(411.45703125,249.15625)"/>
<path d="M0 0 C4.29117502 2.23887392 5.78037232 5.01815346 7.38037109 9.51416016 C8.64488057 14.58714498 8.43376325 19.73955996 8.375 24.9375 C8.36847412 26.21858643 8.36194824 27.49967285 8.35522461 28.81958008 C8.19161501 44.46945379 6.8271294 60.0625847 5.55645752 75.65306091 C4.85757734 84.42575604 4.41620747 93.21002068 4 102 C4.29116699 100.99324219 4.58233398 99.98648438 4.88232422 98.94921875 C26.27080832 25.23268491 26.27080832 25.23268491 37.984375 16.08984375 C40 15 40 15 43.6875 14.75 C47.94691891 16.35732789 49.55671837 17.07594162 52 21 C56.6275647 52.73187226 38.93968785 91.48285071 29 121 C29.33 121.33 29.66 121.66 30 122 C30.6084375 120.9790625 31.216875 119.958125 31.84375 118.90625 C65.25812971 63.30232891 65.25812971 63.30232891 78.6875 58.75 C83.80872266 59.13650737 86.49267747 61.34194521 89.875 65.0625 C93.03104859 73.30329353 90.70036205 81.95064492 88 90 C87.63261719 91.14726562 87.26523437 92.29453125 86.88671875 93.4765625 C79.9457544 114.07434319 67.4465758 132.68183331 56 151 C55.57138672 151.69496582 55.14277344 152.38993164 54.70117188 153.10595703 C53.64828924 154.80865175 52.57518643 156.49880071 51.5 158.1875 C50.9534375 159.04730469 50.406875 159.90710938 49.84375 160.79296875 C47.56341272 163.52260977 45.0024148 165.11901695 42 167 C39.21207056 169.46375159 37.29374683 171.38453044 35.6875 174.75 C33.24547464 179.45315995 29.82791969 183.34275189 26 187 C25.34 187 24.68 187 24 187 C23.773125 187.556875 23.54625 188.11375 23.3125 188.6875 C21.63832737 191.63723273 19.42167689 193.6373884 17 196 C16.443125 196.763125 15.88625 197.52625 15.3125 198.3125 C14.879375 198.869375 14.44625 199.42625 14 200 C13.34 200 12.68 200 12 200 C11.75636719 200.57234375 11.51273438 201.1446875 11.26171875 201.734375 C9.77482702 204.40433538 8.01916092 206.13829007 5.8125 208.25 C2.24380987 211.73304157 -1.0758191 215.31881213 -4.3203125 219.1015625 C-6.5228722 221.59096719 -8.88352636 223.8945103 -11.25390625 226.22265625 C-13.06477643 228.06593574 -14.75321354 229.97822799 -16.4375 231.9375 C-18.85617779 234.74576347 -21.35899683 237.39970593 -24 240 C-26.5792506 242.53972186 -29.02217389 245.12451314 -31.375 247.875 C-35.01026823 252.11614627 -38.96493736 255.99901742 -42.9609375 259.8984375 C-45.04126091 261.83096046 -45.04126091 261.83096046 -46 264 C-46.66 264 -47.32 264 -48 264 C-48.21527344 264.54140625 -48.43054688 265.0828125 -48.65234375 265.640625 C-50.47286795 268.82786158 -52.95758862 271.20846034 -55.5625 273.75 C-56.06974609 274.25660156 -56.57699219 274.76320313 -57.09960938 275.28515625 C-60.85951188 279 -60.85951188 279 -62 279 C-62.01458252 278.35562988 -62.02916504 277.71125977 -62.04418945 277.04736328 C-62.11955474 274.07269801 -62.2159163 271.09904905 -62.3125 268.125 C-62.33505859 267.11179687 -62.35761719 266.09859375 -62.38085938 265.0546875 C-63.0366547 246.45394739 -72.94214524 232.90605643 -83.02099609 217.93798828 C-88.29385073 210.10015918 -93.31828001 202.20234025 -98 194 C-98.42055664 193.27490234 -98.84111328 192.54980469 -99.27441406 191.80273438 C-104.92020946 182.03725363 -110.07197527 172.107968 -114.6875 161.8125 C-115.1218335 160.86890625 -115.55616699 159.9253125 -116.00366211 158.953125 C-118.45599274 153.32032636 -120.09972261 148.18202928 -119 142 C-117.20606332 139.12970131 -116.01736724 137.50868362 -113 136 C-105.16672456 135.32471763 -100.53126616 137.04989833 -94.5078125 142.08203125 C-87.32418134 148.85963108 -81.68822782 156.59313831 -76.04296875 164.66796875 C-75.02879395 166.1120832 -74.01447041 167.5560932 -73 169 C-72.46713379 169.76908691 -71.93426758 170.53817383 -71.38525391 171.33056641 C-70.60093994 172.42957275 -70.60093994 172.42957275 -69.80078125 173.55078125 C-69.33454346 174.21376221 -68.86830566 174.87674316 -68.38793945 175.55981445 C-67.92991943 176.03507568 -67.47189941 176.51033691 -67 177 C-66.01 177 -65.02 177 -64 177 C-61.95961822 172.67165874 -61.40274907 168.39525788 -60.9375 163.6875 C-60.85516113 162.89134277 -60.77282227 162.09518555 -60.68798828 161.27490234 C-59.91089871 153.52708853 -59.29253738 145.78293893 -59 138 C-58.97131836 137.2771582 -58.94263672 136.55431641 -58.91308594 135.80957031 C-58.43296847 121.67953087 -59.94065123 107.90899955 -61.56347656 93.88867188 C-62.26628319 87.62787551 -62.88852478 81.36005334 -63.48690796 75.08850098 C-63.61843891 73.71904231 -63.75232859 72.34980768 -63.88882446 70.98083496 C-66.25641404 47.22914685 -66.25641404 47.22914685 -63.1875 42.375 C-60.39878047 39.34724737 -58.82118779 38.09296466 -54.6875 37.625 C-50.4018346 38.06083038 -47.86851789 38.83473888 -45 42 C-36.14528092 55.42560898 -34.35602309 72.67935831 -31.8125 88.25 C-31.4233929 90.59816839 -31.03245459 92.94601887 -30.64006042 95.29364014 C-30.39959083 96.7356853 -30.16127281 98.17809153 -29.92549133 99.62091064 C-29.40300182 102.78487357 -28.84945089 105.9058887 -28 109 C-27.04980309 99.20460614 -26.61451075 89.40023285 -26.18487549 79.57202148 C-23.29133219 14.32370243 -23.29133219 14.32370243 -11.75 1.5 C-7.79711013 -0.65612175 -4.40384061 -0.76867036 0 0 Z " fill="#5862DC" transform="translate(670,323)"/>
<path d="M0 0 C9.43762703 8.88983773 15.38094717 19.31248885 16.16796875 32.34375 C15.96953468 39.45430418 13.53497133 42.98814094 8.54296875 47.84375 C7.88683594 48.51148438 7.23070312 49.17921875 6.5546875 49.8671875 C-1.26334846 57.33806379 -10.22979919 63.5364205 -18.91064453 69.94824219 C-21.35819411 71.7701765 -23.78415316 73.6169111 -26.203125 75.4765625 C-26.9338623 76.03561279 -27.66459961 76.59466309 -28.41748047 77.1706543 C-29.78904013 78.22154617 -31.15675442 79.27748151 -32.52001953 80.33911133 C-37.12111205 83.84375 -37.12111205 83.84375 -40.45703125 83.84375 C-40.78703125 84.83375 -41.11703125 85.82375 -41.45703125 86.84375 C-43.10749016 87.79593783 -44.76237376 88.7459315 -46.47265625 89.5859375 C-49.20442917 91.31749435 -51.21450011 93.51741724 -53.45703125 95.84375 C-54.82021484 97.18953125 -54.82021484 97.18953125 -56.2109375 98.5625 C-57.13777344 99.4803125 -58.06460938 100.398125 -59.01953125 101.34375 C-60.41365234 102.72046875 -60.41365234 102.72046875 -61.8359375 104.125 C-64.46747221 106.76632583 -64.46747221 106.76632583 -66.609375 109.5625 C-68.45703125 111.84375 -68.45703125 111.84375 -71.45703125 113.84375 C-72.40178996 115.57037798 -73.34551278 117.29761098 -74.27734375 119.03125 C-76.17741217 121.95056042 -78.72065153 123.71545467 -81.45703125 125.84375 C-81.78703125 126.50375 -82.11703125 127.16375 -82.45703125 127.84375 C-83.11703125 127.84375 -83.77703125 127.84375 -84.45703125 127.84375 C-84.52148438 128.39546875 -84.5859375 128.9471875 -84.65234375 129.515625 C-85.80083761 132.83845188 -87.84893052 134.63224145 -90.33203125 137.09375 C-91.21632813 137.98578125 -92.100625 138.8778125 -93.01171875 139.796875 C-95.45703125 141.84375 -95.45703125 141.84375 -98.45703125 141.84375 C-98.45703125 142.50375 -98.45703125 143.16375 -98.45703125 143.84375 C-100.5390625 145.24609375 -100.5390625 145.24609375 -103.26953125 146.78125 C-106.43695282 148.56835222 -108.95384555 150.2164997 -111.45703125 152.84375 C-121.63627587 158.90282418 -135.21826506 159.5992256 -146.68359375 157.15625 C-152.9039516 155.05359382 -158.29935414 151.877318 -163.45703125 147.84375 C-164.18148437 147.30363281 -164.9059375 146.76351562 -165.65234375 146.20703125 C-170.73343369 141.88529239 -172.39686365 137.84622787 -173.80761719 131.39111328 C-175.23016223 125.0753192 -177.57122089 119.26379524 -180.01953125 113.28125 C-183.42670792 104.85145454 -186.11263807 96.87038989 -187.45703125 87.84375 C-187.63621094 86.78285156 -187.81539062 85.72195313 -188 84.62890625 C-190.76689675 61.71332548 -186.36890714 43.33429998 -172.14453125 25.03125 C-167.46711915 19.55956037 -162.18872963 15.16850429 -156.45703125 10.84375 C-155.60496094 10.17730469 -154.75289063 9.51085937 -153.875 8.82421875 C-111.9808228 -23.02038071 -42.7574745 -37.52325266 0 0 Z " fill="#2E4AC3" transform="translate(411.45703125,249.15625)"/>
<path d="M0 0 C0.33 0 0.66 0 1 0 C1.0467001 9.11128535 1.08205799 18.2225284 1.10362434 27.33390808 C1.11398419 31.56639893 1.12799749 35.79880685 1.15087891 40.03125 C1.17288976 44.12912795 1.18462695 48.22692703 1.18975449 52.32485962 C1.19340032 53.87465656 1.20051647 55.42445005 1.21146011 56.97421265 C1.41244492 86.6646382 -4.763665 112.8091571 -24 136 C-24.71929688 136.87140625 -25.43859375 137.7428125 -26.1796875 138.640625 C-41.73284837 156.68450558 -63.28001212 168.28311854 -87 171 C-110.77211027 172.43150664 -110.77211027 172.43150664 -122 169 C-120.48705075 165.29703581 -118.3194126 163.2799836 -115.3125 160.6875 C-108.24439824 154.45987453 -102.13972168 148.07852095 -96.234375 140.7265625 C-94.32798749 138.40023648 -92.36205382 136.19845303 -90.3125 134 C-66.9571152 107.77641005 -48.84859688 75.65757037 -30.16796875 46.0234375 C-14.37947566 20.98166953 -14.37947566 20.98166953 -6.1875 8.6875 C-5.67767578 7.92236084 -5.16785156 7.15722168 -4.64257812 6.36889648 C-1.13536864 1.13536864 -1.13536864 1.13536864 0 0 Z " fill="#1226AA" transform="translate(708,601)"/>
<path d="M0 0 C4.29117502 2.23887392 5.78037232 5.01815346 7.38037109 9.51416016 C8.64485923 14.58705939 8.43411015 19.73963137 8.375 24.9375 C8.36774902 26.21858643 8.36049805 27.49967285 8.35302734 28.81958008 C8.08597866 53.26002974 5.66920658 77.72187006 3 102 C2.67 102 2.34 102 2 102 C2.72191297 81.96251305 2.72191297 81.96251305 3.51171875 72.64453125 C4.64863661 59.21437372 5.23112398 45.86602555 5.29855347 32.39083862 C5.30778456 30.60152059 5.32181309 28.8122203 5.34085083 27.02297974 C5.36470501 24.49813195 5.36727546 21.97415912 5.36328125 19.44921875 C5.3724054 18.69927643 5.38152954 17.94933411 5.39093018 17.17666626 C5.34693524 12.08500969 4.42303507 8.50743508 2 4 C-1.57470457 1.61686362 -2.78553535 1.35162082 -7 2 C-8.99569429 3.43024757 -10.72534446 4.97601082 -12.484375 6.6875 C-14 8 -14 8 -16 8 C-13.06599249 0.53161724 -7.447685 -1.29995956 0 0 Z " fill="#6B99CC" transform="translate(670,323)"/>
<path d="M0 0 C-2.55090451 1.70060301 -4.42684621 2.59752566 -7.25 3.625 C-17.74228439 7.74203106 -27.896949 13.36268173 -37 20 C-37.99386719 20.71671875 -38.98773438 21.4334375 -40.01171875 22.171875 C-51.75403265 30.81327527 -61.81844491 40.15411976 -69 53 C-69.7265625 51.3359375 -69.7265625 51.3359375 -70 49 C-68.5234375 46.4140625 -68.5234375 46.4140625 -66.375 43.625 C-65.25158203 42.16320312 -65.25158203 42.16320312 -64.10546875 40.671875 C-63.41066406 39.79015625 -62.71585938 38.9084375 -62 38 C-61.236875 36.96875 -60.47375 35.9375 -59.6875 34.875 C-55.52330821 30.4202832 -50.80540937 26.73966785 -46 23 C-45.14277344 22.32710938 -44.28554688 21.65421875 -43.40234375 20.9609375 C-33.15456294 13.20168265 -21.89592374 7.12351143 -10.1875 1.875 C-9.51178955 1.56747803 -8.8360791 1.25995605 -8.13989258 0.94311523 C-3.36580173 -1.12193391 -3.36580173 -1.12193391 0 0 Z " fill="#5133CC" transform="translate(301,237)"/>
<path d="M0 0 C3.48517246 2.24600003 5.49306798 4.1549582 7 8 C7.1953125 10.796875 7.1953125 10.796875 7.125 13.75 C7.10695313 14.73484375 7.08890625 15.7196875 7.0703125 16.734375 C7.04710937 17.48203125 7.02390625 18.2296875 7 19 C6.67 19 6.34 19 6 19 C5.95101562 18.32453125 5.90203125 17.6490625 5.8515625 16.953125 C5.77679687 16.06109375 5.70203125 15.1690625 5.625 14.25 C5.52058594 12.92742187 5.52058594 12.92742187 5.4140625 11.578125 C4.99616748 8.97613712 4.39354867 7.22566767 3 5 C2.34 4.67 1.68 4.34 1 4 C1 3.34 1 2.68 1 2 C-2.67352047 0.95042272 -4.40501757 0.70250878 -7.875 2.4375 C-8.94263851 3.25897316 -9.98225693 4.11746434 -11 5 C-11.59554687 5.51433594 -12.19109375 6.02867187 -12.8046875 6.55859375 C-19.23776044 12.56537873 -24.08301395 19.75891976 -29 27 C-29.45262207 27.66644531 -29.90524414 28.33289063 -30.37158203 29.01953125 C-34.37488869 34.93611022 -38.3591965 40.85085223 -42 47 C-45.71830986 52.85915493 -45.71830986 52.85915493 -48 54 C-46.70041781 50.5212427 -45.18126034 47.46969728 -43.19921875 44.33203125 C-42.64049072 43.44717041 -42.0817627 42.56230957 -41.50610352 41.65063477 C-40.90596436 40.71405029 -40.3058252 39.77746582 -39.6875 38.8125 C-39.06738037 37.84304443 -38.44726074 36.87358887 -37.80834961 35.87475586 C-33.69770738 29.50422461 -29.47446508 23.2282816 -25.0625 17.0625 C-24.55614014 16.34876221 -24.04978027 15.63502441 -23.52807617 14.8996582 C-10.61860392 -2.84426891 -10.61860392 -2.84426891 0 0 Z " fill="#5AB1C8" transform="translate(754,383)"/>
<path d="M0 0 C0.33 0 0.66 0 1 0 C1.79725902 7.36040917 2.12886183 14.59760355 2 22 C2.66 22 3.32 22 4 22 C4.02505615 22.58378418 4.0501123 23.16756836 4.07592773 23.76904297 C4.19356199 26.47116313 4.31551273 29.17307299 4.4375 31.875 C4.47681641 32.7928125 4.51613281 33.710625 4.55664062 34.65625 C4.80411125 40.06253139 5.19478696 45.42179426 5.79492188 50.80078125 C6.08230995 53.88267619 6.0672377 56.90706559 6 60 C6.66 60 7.32 60 8 60 C7.93941406 60.64960693 7.87882813 61.29921387 7.81640625 61.96850586 C7.54003838 64.95779638 7.2699825 67.94762628 7 70.9375 C6.90460937 71.95908203 6.80921875 72.98066406 6.7109375 74.03320312 C6.17253448 80.05177969 5.89918888 85.95763352 6 92 C5.01 92.495 5.01 92.495 4 93 C4.01571045 91.99549805 4.0314209 90.99099609 4.04760742 89.95605469 C4.33509119 69.75963855 3.970907 50.11660512 1.36352539 30.05493164 C0.41927503 22.11980422 -0.14321499 14.17828428 -0.0625 6.1875 C-0.05347656 5.00542969 -0.04445313 3.82335937 -0.03515625 2.60546875 C-0.02355469 1.74566406 -0.01195312 0.88585937 0 0 Z " fill="#7145DE" transform="translate(607,386)"/>
<path d="M0 0 C7.8721646 -0.56229747 12.42291437 1.01161968 18.4921875 6.08203125 C26.36184379 13.50688088 32.3854728 22.15126529 38.56982422 30.984375 C41.24769309 34.75844216 44.10081657 38.39447006 47 42 C44 42 44 42 42.38671875 40.56640625 C38.75869757 36.28784334 35.51044885 31.92375232 32.45703125 27.21875 C27.91251477 20.29841392 22.65553173 14.03653597 17 8 C15.88625 6.7934375 15.88625 6.7934375 14.75 5.5625 C10.20305745 2.97900991 5.13892103 2.62289952 0 2 C0 1.34 0 0.68 0 0 Z " fill="#7040D9" transform="translate(557,459)"/>
<path d="M0 0 C1.5 1.375 1.5 1.375 3 3 C3 3.66 3 4.32 3 5 C3.66 5 4.32 5 5 5 C10.42643815 19.25691498 10.42643815 19.25691498 11 27 C11.20625 27.680625 11.4125 28.36125 11.625 29.0625 C12.21781173 32.12536062 11.52654563 34.95773634 11 38 C13.87981123 36.82674357 15.37938667 35.62061333 17.625 33.375 C18.40875 32.59125 19.1925 31.8075 20 31 C20.66 31 21.32 31 22 31 C20.41379873 34.87939509 17.90079013 37.33361087 14.9375 40.25 C14.03902344 41.14203125 13.14054688 42.0340625 12.21484375 42.953125 C10 45 10 45 9 45 C8.98541748 44.35562988 8.97083496 43.71125977 8.95581055 43.04736328 C8.88044526 40.07269801 8.7840837 37.09904905 8.6875 34.125 C8.66494141 33.11179687 8.64238281 32.09859375 8.61914062 31.0546875 C8.30493274 22.14260921 6.57615915 14.38712924 2.3125 6.5 C0 2.18879056 0 2.18879056 0 0 Z " fill="#7146D3" transform="translate(599,557)"/>
<path d="M0 0 C3.49539391 3.14045324 5.51186423 6.41416194 7.6875 10.5625 C8.28949219 11.69816406 8.89148438 12.83382812 9.51171875 14.00390625 C11 17 11 17 12 20 C12.66 20 13.32 20 14 20 C14.2475 20.70125 14.495 21.4025 14.75 22.125 C15.96475048 25.15078961 15.96475048 25.15078961 18.125 28.1875 C20 31 20 31 20 33 C20.66 33 21.32 33 22 33 C22.31453125 33.58007812 22.6290625 34.16015625 22.953125 34.7578125 C26.81222141 42.96397585 26.81222141 42.96397585 33 49 C33 49.66 33 50.32 33 51 C32.01 51 31.02 51 30 51 C28.42529297 49.12670898 28.42529297 49.12670898 26.7421875 46.49609375 C26.12077881 45.53477539 25.49937012 44.57345703 24.85913086 43.58300781 C24.20436768 42.54499023 23.54960449 41.50697266 22.875 40.4375 C22.20283447 39.38788086 21.53066895 38.33826172 20.83813477 37.25683594 C0 4.57959249 0 4.57959249 0 0 Z " fill="#753BDB" transform="translate(566,504)"/>
<path d="M0 0 C1.03125 0.268125 2.0625 0.53625 3.125 0.8125 C3.125 1.1425 3.125 1.4725 3.125 1.8125 C1.3925 1.750625 1.3925 1.750625 -0.375 1.6875 C-4.59971005 2.22970132 -6.22479499 3.85014771 -8.85546875 7.12890625 C-13.08008033 12.66317698 -15.44996087 18.32781989 -17.6875 24.875 C-18.05552734 25.89916016 -18.42355469 26.92332031 -18.80273438 27.97851562 C-20.91541643 33.8932695 -22.90755264 39.84809333 -24.875 45.8125 C-25.535 45.8125 -26.195 45.8125 -26.875 45.8125 C-25.20823465 38.3988666 -22.70517324 31.29811441 -20.0625 24.1875 C-19.74345703 23.30553955 -19.42441406 22.4235791 -19.09570312 21.51489258 C-15.94974957 13.20247043 -10.37934408 -0.50222633 0 0 Z " fill="#5FABC9" transform="translate(713.875,338.1875)"/>
<path d="M0 0 C-3.71824852 1.07257169 -6.17686904 0.66169574 -10 0 C-22.22983217 -0.81532214 -30.9830364 3.91951087 -40.078125 11.80078125 C-43.66433235 15.19863738 -46.08083375 18.37142257 -48 23 C-48.66 23 -49.32 23 -50 23 C-46.80905966 14.18618906 -40.70505464 8.08205732 -33 3 C-31.7625 2.13375 -31.7625 2.13375 -30.5 1.25 C-20.75048655 -3.62475673 -10.23513065 -2.68462443 0 0 Z " fill="#5ECDCC" transform="translate(234,387)"/>
<path d="M0 0 C0 3 0 3 -1.2421875 4.4296875 C-2.32522405 5.38835622 -3.40855446 6.34669307 -4.4921875 7.3046875 C-6.1452814 8.95398245 -6.1452814 8.95398245 -6.8515625 11.33203125 C-8.37113328 14.86219058 -10.7835403 17.18378124 -13.5 19.8125 C-14.24830078 20.56563477 -14.24830078 20.56563477 -15.01171875 21.33398438 C-18.73259991 25 -18.73259991 25 -21 25 C-21.268125 25.598125 -21.53625 26.19625 -21.8125 26.8125 C-22.98493467 28.97224808 -24.19369282 30.35790256 -26 32 C-26.66 31.67 -27.32 31.34 -28 31 C-24.48839116 26.81261764 -20.86610885 22.86610885 -17 19 C-12.92352094 14.53575177 -12.92352094 14.53575177 -9.625 9.5 C-7.10397904 5.62150622 -3.54816203 2.92449459 0 0 Z " fill="#35C0C9" transform="translate(716,486)"/>
<path d="M0 0 C-2.55090451 1.70060301 -4.42684621 2.59752566 -7.25 3.625 C-15.10471047 6.69306606 -22.7278207 10.75226202 -29.90869141 15.17578125 C-31.56485726 16.18747217 -33.2798301 17.10143483 -35 18 C-35.99 17.67 -36.98 17.34 -38 17 C-28.27964501 10.91960773 -18.52313382 5.57692929 -8 1 C-7.09507812 0.58621094 -6.19015625 0.17242187 -5.2578125 -0.25390625 C-3 -1 -3 -1 0 0 Z " fill="#5B3ECD" transform="translate(301,237)"/>
<path d="M0 0 C0.33 0.99 0.66 1.98 1 3 C0.01 3.33 -0.98 3.66 -2 4 C-2.67163712 5.33083651 -3.33691996 6.66487938 -4 8 C-5.79632956 10.14007163 -7.60471345 12.20289463 -9.5 14.25 C-9.99886719 14.80429687 -10.49773438 15.35859375 -11.01171875 15.9296875 C-12.2968354 17.3285008 -13.64433768 18.66944254 -15 20 C-15.66 20 -16.32 20 -17 20 C-17 20.66 -17 21.32 -17 22 C-17.66 22 -18.32 22 -19 22 C-19.0825 22.5775 -19.165 23.155 -19.25 23.75 C-20.20531013 26.6159304 -21.78469173 27.9990764 -24 30 C-24.99 29.67 -25.98 29.34 -27 29 C-25.88200014 27.66079162 -24.75538103 26.32877444 -23.625 25 C-22.68527344 23.88625 -22.68527344 23.88625 -21.7265625 22.75 C-20.87191406 21.88375 -20.87191406 21.88375 -20 21 C-19.34 21 -18.68 21 -18 21 C-17.77957031 20.45085938 -17.55914063 19.90171875 -17.33203125 19.3359375 C-15.58525086 16.27266866 -13.21044865 14.04124539 -10.6875 11.625 C-6.88669488 7.91331977 -3.27941565 4.18408204 0 0 Z " fill="#3EC5D0" transform="translate(674,532)"/>
<path d="M0 0 C0.99 0.66 1.98 1.32 3 2 C2.67 2.66 2.34 3.32 2 4 C-1.3 3.34 -4.6 2.68 -8 2 C-8.309375 2.804375 -8.61875 3.60875 -8.9375 4.4375 C-10 7 -10 7 -11 8 C-11.15714654 9.63256758 -11.25085414 11.27135338 -11.31640625 12.91015625 C-11.35830078 13.89951172 -11.40019531 14.88886719 -11.44335938 15.90820312 C-11.50233398 17.46958008 -11.50233398 17.46958008 -11.5625 19.0625 C-11.60568359 20.10728516 -11.64886719 21.15207031 -11.69335938 22.22851562 C-11.79981225 24.81886884 -11.9018276 27.40932186 -12 30 C-12.33 30 -12.66 30 -13 30 C-15.52726617 9.60135164 -15.52726617 9.60135164 -12.1875 4.375 C-8.22545434 0.07335043 -5.72727466 -0.40909105 0 0 Z " fill="#7E5FDB" transform="translate(619,361)"/>
<path d="M0 0 C0.33 0 0.66 0 1 0 C1.05868218 3.9791034 1.0938239 7.95809353 1.125 11.9375 C1.15013672 13.61295898 1.15013672 13.61295898 1.17578125 15.32226562 C1.2141262 21.86008021 0.72223174 27.69649569 -1 34 C-1.33986667 35.66534667 -1.67702486 37.33129513 -2 39 C-2.33 39 -2.66 39 -3 39 C-2.50972927 25.91751255 -1.63378131 12.99094071 0 0 Z " fill="#838BD7" transform="translate(648,347)"/>
<path d="M0 0 C0.66 0.33 1.32 0.66 2 1 C-4.1009299 7.92617646 -10.41304475 14.536808 -17 21 C-17.33 20.01 -17.66 19.02 -18 18 C-12.06 12.06 -6.12 6.12 0 0 Z " fill="#4C55D1" transform="translate(641,565)"/>
<path d="M0 0 C0.66 0.33 1.32 0.66 2 1 C1.67 4.3 1.34 7.6 1 11 C5.02635231 9.25034698 5.02635231 9.25034698 7.625 6.375 C8.40875 5.59125 9.1925 4.8075 10 4 C10.66 4 11.32 4 12 4 C10.41332422 7.90285767 7.86649519 10.33520982 4.875 13.25 C3.96492187 14.14203125 3.05484375 15.0340625 2.1171875 15.953125 C1.41851563 16.62859375 0.71984375 17.3040625 0 18 C-1.60670684 14.78658631 -0.82510855 11.37041032 -0.5625 7.875 C-0.51029297 7.12089844 -0.45808594 6.36679687 -0.40429688 5.58984375 C-0.27454996 3.7262063 -0.13792512 1.86305004 0 0 Z " fill="#573AD8" transform="translate(609,584)"/>
<path d="M0 0 C0 0.66 0 1.32 0 2 C-1.08539062 2.47050781 -2.17078125 2.94101562 -3.2890625 3.42578125 C-4.73441212 4.05460219 -6.17972254 4.68351323 -7.625 5.3125 C-8.33785156 5.62123047 -9.05070313 5.92996094 -9.78515625 6.24804688 C-14.64684659 8.3666734 -19.46107919 10.53819711 -24.0625 13.1875 C-26.46780997 14.19617837 -28.41816848 14.14343508 -31 14 C-28.53259981 11.53259981 -26.1614667 10.59820837 -22.96875 9.1796875 C-21.76605469 8.64472656 -20.56335938 8.10976563 -19.32421875 7.55859375 C-18.69692871 7.28257324 -18.06963867 7.00655273 -17.42333984 6.72216797 C-15.50463694 5.87704242 -13.59005441 5.02307305 -11.67578125 4.16796875 C-2.26000681 0 -2.26000681 0 0 0 Z " fill="#52ACC6" transform="translate(845,462)"/>
<path d="M0 0 C0.33 0 0.66 0 1 0 C1.16993231 5.013003 1.12322112 8.39968757 -1 13 C-1.28875 14.0725 -1.5775 15.145 -1.875 16.25 C-3.20967471 20.69891571 -5.03744559 24.79860925 -7 29 C-8.66456069 25.67087861 -6.80558183 22.3890876 -5.75 19 C-5.51837158 18.23631104 -5.28674316 17.47262207 -5.0480957 16.68579102 C-4.58468995 15.15957248 -4.11834426 13.63424322 -3.64892578 12.10986328 C-2.81252555 9.39046117 -1.99963498 6.6642334 -1.1875 3.9375 C-0.79217515 2.62484676 -0.39658386 1.31227342 0 0 Z " fill="#668CCD" transform="translate(682,398)"/>
<path d="M0 0 C0.99 0.33 1.98 0.66 3 1 C1.37982158 2.33918806 -0.24629343 3.6711969 -1.875 5 C-2.77992188 5.7425 -3.68484375 6.485 -4.6171875 7.25 C-7 9 -7 9 -9 9 C-9.33 10.65 -9.66 12.3 -10 14 C-7.36 13.67 -4.72 13.34 -2 13 C-2.33 13.66 -2.66 14.32 -3 15 C-5.64 15 -8.28 15 -11 15 C-11.33 13.35 -11.66 11.7 -12 10 C-11.34 10 -10.68 10 -10 10 C-10 9.34 -10 8.68 -10 8 C-9.34 8 -8.68 8 -8 8 C-8 7.34 -8 6.68 -8 6 C-6.35546875 4.45703125 -6.35546875 4.45703125 -4.1875 2.8125 C-3.47980469 2.26207031 -2.77210938 1.71164062 -2.04296875 1.14453125 C-1.36878906 0.76683594 -0.69460938 0.38914062 0 0 Z " fill="#3BC6BF" transform="translate(775,479)"/>
<path d="M0 0 C0.99 0.33 1.98 0.66 3 1 C2.01 2.485 2.01 2.485 1 4 C0.67096252 7.61941232 1.05044681 10.17508012 2.0625 13.6875 C3 17 3 17 2 20 C-1.3220808 14.29017363 -3.13084408 9.66672034 -2 3 C-1.34 2.01 -0.68 1.02 0 0 Z " fill="#773AE5" transform="translate(553,462)"/>
<path d="M0 0 C0 3.65803648 -0.72350988 4.1770985 -3.125 6.8125 C-4.07439453 7.85857422 -4.07439453 7.85857422 -5.04296875 8.92578125 C-7.64014564 11.67847771 -10.2910642 14.3571358 -13 17 C-13.99 16.67 -14.98 16.34 -16 16 C-10.72 10.72 -5.44 5.44 0 0 Z " fill="#48DDC4" transform="translate(592,619)"/>
<path d="M0 0 C0.33 0 0.66 0 1 0 C1.85298376 3.67387495 2.10789471 7.0447393 2.0625 10.8125 C2.05347656 11.78832031 2.04445313 12.76414062 2.03515625 13.76953125 C2.02355469 14.50558594 2.01195312 15.24164063 2 16 C1.01 16.33 0.02 16.66 -1 17 C-1.02684679 14.35409986 -1.04676357 11.70846904 -1.0625 9.0625 C-1.07087891 8.30775391 -1.07925781 7.55300781 -1.08789062 6.77539062 C-1.09652441 4.85005687 -1.05224333 2.92464419 -1 1 C-0.67 0.67 -0.34 0.34 0 0 Z " fill="#7C75E0" transform="translate(645,394)"/>
<path d="M0 0 C0.66 0.33 1.32 0.66 2 1 C0.27538679 2.92093521 -1.45442609 4.836722 -3.1875 6.75 C-3.67025391 7.28882813 -4.15300781 7.82765625 -4.65039062 8.3828125 C-7.56162205 11.58712091 -10.52706501 14.3841879 -14 17 C-13.52794881 12.75153925 -11.11122478 10.73180712 -8 8 C-7.34 8 -6.68 8 -6 8 C-5.7525 7.4225 -5.505 6.845 -5.25 6.25 C-3.83316683 3.6997003 -2.12372463 1.98214299 0 0 Z " fill="#4B56D2" transform="translate(657,548)"/>
<path d="M0 0 C0.33 0 0.66 0 1 0 C1.69139512 7.10051817 2.09837535 12.52058256 -2.5 18.3125 C-3.63704672 19.56911711 -4.79400921 20.80939174 -6 22 C-6.33 21.34 -6.66 20.68 -7 20 C-5 17 -3 14 -1 11 C-0.54227937 8.26127045 -0.54227937 8.26127045 -0.375 5.3125 C-0.30023438 4.31863281 -0.22546875 3.32476562 -0.1484375 2.30078125 C-0.09945313 1.54152344 -0.05046875 0.78226562 0 0 Z " fill="#1B75AE" transform="translate(426,275)"/>
<path d="M0 0 C0 0.33 0 0.66 0 1 C-1.175625 0.979375 -2.35125 0.95875 -3.5625 0.9375 C-6.70746611 1.28507201 -7.80601805 1.80783096 -10.08984375 4.0703125 C-11.82175104 6.32993796 -13.45461397 8.60948098 -15 11 C-15.33 10.01 -15.66 9.02 -16 8 C-14.63671875 5.9921875 -14.63671875 5.9921875 -12.6875 3.875 C-12.05199219 3.17117188 -11.41648437 2.46734375 -10.76171875 1.7421875 C-7.20989581 -1.77025825 -4.72446925 -0.78741154 0 0 Z " fill="#48BCC5" transform="translate(717,339)"/>
<path d="M0 0 C6.30399313 -0.45028522 10.71378634 0.38797371 16 4 C16.33 4.66 16.66 5.32 17 6 C14.51420887 5.40341013 12.07776847 4.72674621 9.625 4 C6.4134614 3.11405832 3.2924667 2.4818244 0 2 C0 1.34 0 0.68 0 0 Z " fill="#7A48DD" transform="translate(557,459)"/>
<path d="M0 0 C0 3 0 3 -1.6796875 5.04296875 C-2.76636719 6.10451172 -2.76636719 6.10451172 -3.875 7.1875 C-4.95394531 8.26064453 -4.95394531 8.26064453 -6.0546875 9.35546875 C-8 11 -8 11 -10 11 C-8.55218207 7.55571735 -6.72305391 5.63869038 -3.875 3.25 C-3.15054688 2.63640625 -2.42609375 2.0228125 -1.6796875 1.390625 C-0.84824219 0.70226562 -0.84824219 0.70226562 0 0 Z " fill="#3C85C9" transform="translate(716,486)"/>
<path d="M0 0 C0.33 0 0.66 0 1 0 C1 6.6 1 13.2 1 20 C0.34 19.67 -0.32 19.34 -1 19 C-2.27536232 13.55072464 -2.27536232 13.55072464 -1 11 C-0.7724985 9.12943209 -0.59037189 7.25314042 -0.4375 5.375 C-0.35371094 4.37210937 -0.26992188 3.36921875 -0.18359375 2.3359375 C-0.12300781 1.56507813 -0.06242187 0.79421875 0 0 Z " fill="#68CDD0" transform="translate(427,277)"/>
<path d="M0 0 C-0.33 0.99 -0.66 1.98 -1 3 C-2.890625 3.9140625 -2.890625 3.9140625 -5.25 4.625 C-6.46236328 4.99431641 -6.46236328 4.99431641 -7.69921875 5.37109375 C-10.11799485 6.03225326 -12.52364616 6.60058809 -15 7 C-12.64739097 3.47108645 -11.41796084 3.15801024 -7.5 1.8125 C-6.5203125 1.46832031 -5.540625 1.12414062 -4.53125 0.76953125 C-2 0 -2 0 0 0 Z " fill="#49BBC4" transform="translate(802,481)"/>
<path d="M0 0 C0.66 0.33 1.32 0.66 2 1 C-1.3 4.3 -4.6 7.6 -8 11 C-8.66 10.67 -9.32 10.34 -10 10 C-8.90033225 8.70450101 -7.79508199 7.41373929 -6.6875 6.125 C-6.07261719 5.40570313 -5.45773437 4.68640625 -4.82421875 3.9453125 C-3 2 -3 2 0 0 Z " fill="#DAFBF6" transform="translate(394,436)"/>
<path d="M0 0 C0.33 0.99 0.66 1.98 1 3 C-0.25 4.875 -0.25 4.875 -2 7 C-3.01187895 8.65948148 -4.0126546 10.32580562 -5 12 C-5.99 13.485 -5.99 13.485 -7 15 C-7.66 14.67 -8.32 14.34 -9 14 C-6.03 9.38 -3.06 4.76 0 0 Z " fill="#0B37A6" transform="translate(685,636)"/>
<path d="M0 0 C0.99 0.33 1.98 0.66 3 1 C-0.33333333 4.33333333 -3.66666667 7.66666667 -7 11 C-6.68232368 5.59950264 -3.80003673 3.47662935 0 0 Z " fill="#4AAFC4" transform="translate(740,387)"/>
<path d="M0 0 C0.66 0.33 1.32 0.66 2 1 C0.54601271 2.81598825 -0.91332325 4.62769519 -2.375 6.4375 C-3.59316406 7.95150391 -3.59316406 7.95150391 -4.8359375 9.49609375 C-7 12 -7 12 -9 13 C-7.47987323 7.59510481 -3.72614782 4.01507372 0 0 Z " fill="#407BCB" transform="translate(704,497)"/>
<path d="M0 0 C0.99 0.33 1.98 0.66 3 1 C2.34 1.66 1.68 2.32 1 3 C3.31 3.66 5.62 4.32 8 5 C8 5.33 8 5.66 8 6 C6.741875 6.020625 5.48375 6.04125 4.1875 6.0625 C3.47980469 6.07410156 2.77210938 6.08570313 2.04296875 6.09765625 C0 6 0 6 -3 5 C-1.125 1.125 -1.125 1.125 0 0 Z " fill="#2842A3" transform="translate(589,765)"/>
<path d="M0 0 C0.99 0 1.98 0 3 0 C1.66666667 3.33333333 0.33333333 6.66666667 -1 10 C-1.66 10 -2.32 10 -3 10 C-2.01 6.7 -1.02 3.4 0 0 Z " fill="#563ECE" transform="translate(228,292)"/>
<path d="M0 0 C1.32 0.33 2.64 0.66 4 1 C3.50628906 1.40992188 3.01257813 1.81984375 2.50390625 2.2421875 C1.86324219 2.78101563 1.22257813 3.31984375 0.5625 3.875 C-0.07558594 4.40867187 -0.71367188 4.94234375 -1.37109375 5.4921875 C-3.10805004 6.9222757 -3.10805004 6.9222757 -4 9 C-4.99 8.67 -5.98 8.34 -7 8 C-6.34 8 -5.68 8 -5 8 C-4.34 6.35 -3.68 4.7 -3 3 C-2.01 3 -1.02 3 0 3 C0 2.01 0 1.02 0 0 Z " fill="#43B4CA" transform="translate(590,761)"/>
<path d="M0 0 C1.2065625 0.0309375 1.2065625 0.0309375 2.4375 0.0625 C-2.5356874 4.14761822 -6.18755604 4.18509508 -12.5625 4.0625 C-12.5625 3.7325 -12.5625 3.4025 -12.5625 3.0625 C-11.60537109 2.86333984 -11.60537109 2.86333984 -10.62890625 2.66015625 C-9.80261719 2.48355469 -8.97632813 2.30695313 -8.125 2.125 C-7.30128906 1.95097656 -6.47757813 1.77695312 -5.62890625 1.59765625 C-2.92413664 0.89717716 -2.95121226 0.07198079 0 0 Z " fill="#52D7C7" transform="translate(254.5625,471.9375)"/>
<path d="M0 0 C0.99 0.66 1.98 1.32 3 2 C1.8141763 5.37503669 0.72426311 7.64722731 -2 10 C-1.54177532 6.53058454 -1.10868317 3.32604951 0 0 Z " fill="#CFE0F3" transform="translate(700,438)"/>
<path d="M0 0 C0.33 0.99 0.66 1.98 1 3 C-0.65 4.65 -2.3 6.3 -4 8 C-4.99 7.67 -5.98 7.34 -7 7 C-4.69 4.69 -2.38 2.38 0 0 Z " fill="#3CDCC0" transform="translate(600,611)"/>
<path d="M0 0 C0.33 0.99 0.66 1.98 1 3 C-0.98 4.98 -2.96 6.96 -5 9 C-5.66 8.67 -6.32 8.34 -7 8 C-4.69 5.36 -2.38 2.72 0 0 Z " fill="#40C2D1" transform="translate(646,562)"/>
<path d="M0 0 C0.33 0.66 0.66 1.32 1 2 C-1.17508418 6.69360269 -1.17508418 6.69360269 -4.1875 7.8125 C-4.785625 7.874375 -5.38375 7.93625 -6 8 C-5.67 7.01 -5.34 6.02 -5 5 C-4.34 5 -3.68 5 -3 5 C-2.5359375 4.0409375 -2.5359375 4.0409375 -2.0625 3.0625 C-1 1 -1 1 0 0 Z " fill="#39C3CA" transform="translate(687,518)"/>
<path d="M0 0 C-1.49097658 3.7952131 -3.75700849 5.61042731 -7 8 C-6.44414399 4.1090079 -4.34122117 0 0 0 Z " fill="#4829CB" transform="translate(246,270)"/>
<path d="M0 0 C0.33 0.99 0.66 1.98 1 3 C-1.97 5.475 -1.97 5.475 -5 8 C-4.45773019 4.20411134 -2.79872437 2.52788007 0 0 Z " fill="#5245D4" transform="translate(628,578)"/>
<path d="M0 0 C0.66 0.33 1.32 0.66 2 1 C1.43628586 4.26954202 0.50037734 5.82575883 -2 8 C-1.125 1.125 -1.125 1.125 0 0 Z " fill="#6E3EE6" transform="translate(609,494)"/>
<path d="M0 0 C0.33 0.66 0.66 1.32 1 2 C-0.65 3.98 -2.3 5.96 -4 8 C-4.66 7.67 -5.32 7.34 -6 7 C-4.02 4.69 -2.04 2.38 0 0 Z " fill="#51DAC3" transform="translate(607,603)"/>
<path d="M0 0 C-1.39332574 3.36720387 -2.9789286 4.9859524 -6 7 C-5.37162381 3.35541809 -4.14650034 0 0 0 Z " fill="#494DD4" transform="translate(621,588)"/>
<path d="M0 0 C0.33 0.99 0.66 1.98 1 3 C-2.26760563 8.63380282 -2.26760563 8.63380282 -5 10 C-3.66511872 6.40608886 -2.03977277 3.24509304 0 0 Z " fill="#6499C9" transform="translate(711,427)"/>
</svg>
