<?xml version="1.0" encoding="iso-8859-1"?>
<!-- Generator: Adobe Illustrator 28.5.0, SVG Export Plug-In . SVG Version: 9.03 Build 54727)  -->
<svg version="1.1" id="Layer_1" xmlns="http://www.w3.org/2000/svg" xmlns:xlink="http://www.w3.org/1999/xlink" x="0px" y="0px"
	 viewBox="0 0 1920 1080" style="enable-background:new 0 0 1920 1080;" xml:space="preserve">
<g>
	<path style="fill:#FFFFFF;" d="M61-419h1797v1918H61V-419 M1017.67-391.37c-47.13,5.17-91.59,26.21-128.29,55.76
		c-55,44.75-95.31,105.7-120.3,171.71c-33.25,86.29-42.51,180.81-32.41,272.43c0.63,5.55,1.18,11.13,1.24,16.73
		c-7.87,6.64-16.78,12.38-22.73,20.97c-8.21,10.8-16.97,21.2-24.51,32.51c-7.71,8.57-12.31,19.34-19.53,28.31
		c-5.86,8.84-15.55,13.8-22.88,21.22c-25.47,24.9-49.2,51.5-73.11,77.88c-27.28,30.78-54.65,61.53-80.28,93.7
		c-15.19,21.95-21.36,48.41-28.33,73.78c-9.77,34.83-17.88,70.93-36.71,102.26c-22.28,39.01-45.94,77.2-69.41,115.51
		c-71.89,116.73-144.69,232.94-213.56,351.5c-17.57,31.19-35.69,62.22-49.75,95.2c-8.16,18.77-8.25,39.81-8.12,59.91
		c0.75,37.89,6.1,75.64,14.49,112.57c7.91,30.72,17.59,61.76,35.96,88.02c9.26,12.43,21.08,24.04,36.19,28.81
		c14.13,4.23,29.39,2.52,43.39-1.38c29.93-8.5,56.48-25.55,81.57-43.45c41.2-30.17,78.91-65.28,110.87-105.15
		c18.28-21.91,28.72-48.79,38.82-75.13c15.7-42.24,28.67-85.43,41.26-128.68C506.95,1019.66,521.52,965.47,535,911
		c23.05-87.01,36.94-176.03,53.71-264.37c4.76-24.29,8.27-48.88,15.07-72.72c4.12-14.53,10.82-28.13,17.43-41.64
		c8.7-1.47,17.24-3.67,25.94-5.11c15.57-2.87,29.95-9.71,45.03-14.18c9.83-4.08,19.54-8.55,30.08-10.55
		c21.32-6.99,44.27-2.71,65.91-7.95c17.99-2.77,35.08-9.48,51.82-16.35c8.57-3.17,14.45-10.66,22.59-14.61
		c9.9-5.02,18.97-11.46,27.79-18.16c5.75-5.59,12.77-9.52,19.65-13.53c35.46,23.5,76.66,39.13,119.29,41.86
		c33.38,1.66,67.53-1.44,99-13.3c20.5-7.05,39.68-17.5,57.76-29.39c6.68,5.44,11.24,12.78,16.46,19.53
		c15.85,15.01,34.79,26.51,54.92,34.86c16.5,6.63,32.63,14.29,49.73,19.33c16.94,5.03,32.34,14.15,49.42,18.82
		c10.72,2.37,19.38,9.38,29.51,13.2c11.96,4.93,23.99,9.74,36.27,13.85c19.36,8.6,38.26,18.22,57.22,27.68
		c9.78,4.74,19.42,10.16,27.17,17.9c6.66,6.36,14.94,11.42,19.08,19.96c3.14,6.59,9.1,11.19,12.54,17.6
		c6.46,9.6,10.9,20.33,16.49,30.43c4.85,9.39,8.34,19.4,13.24,28.78c7.45,14.73,13.35,30.17,18.1,45.97
		c3.59,11.76,9.37,22.72,12.36,34.68c6.85,15.66,11.08,32.32,17.8,48.06c4.04,9.6,6.4,19.83,10.54,29.4
		c1.39,3.63,4.68,6.2,5.78,9.96c2.95,12.19,6.12,24.36,10.07,36.29c4.58,12.38,7.48,25.31,12.18,37.66
		c6.59,23.98,18.14,46.4,23.37,70.82c1.69,7.86,6.87,14.37,8.78,22.16c3.51,14.47,10.58,27.8,13.53,42.45
		c6.77,17.34,11.99,35.19,18.32,52.69c5,11.65,5.96,24.5,10.5,36.32c4.45,10.75,5.97,22.4,10.39,33.16
		c2.56,7.06,4.16,14.46,7.18,21.37c5.19,12.55,7.8,25.92,11.28,39c2.92,9.96,3.64,20.38,6.47,30.36c2.65,9.31,2.17,19.25,5.36,28.43
		c3.3,13.2,4.23,26.94,9.55,39.65c7.9,18.3,8.57,38.49,12.81,57.72c1.48,7.88,2.21,15.87,3.68,23.76c1.21,8.33,3.93,16.58,3.36,25.1
		c6.55,0.02,13.12,0.02,19.71,0.01c-3.02-24.52-7.51-48.81-11.9-73.11c-2.5-14.61-8.39-28.3-11.73-42.68
		c-4.21-14.71-7.19-29.77-9.71-44.85c-0.72-10.42-3.93-20.45-5.78-30.67c-4.97-20.3-10.25-40.71-19.06-59.73
		c-3.72-7.96-5.21-16.64-7.63-25.02c-1.65-10.58-6.19-20.39-8.13-30.89c-4.36-12.65-9.02-25.22-11.6-38.39
		c-4.08-8.14-6.28-17.01-10.18-25.22c-5.16-10.71-6.78-22.66-10.17-33.94c-3.32-8.74-7.09-17.3-10.75-25.87
		c-1.31-4.28-1.1-8.86-2.69-13.05c-3.44-7.94-5.98-16.21-8.29-24.51c-10.05-31.08-20.84-61.95-30.14-93.28
		c-4.59-12.13-8.92-24.42-10.81-37.32c-5.13-12.09-11.33-23.78-15.89-36.1c-3.85-16.29-10.5-31.72-14.89-47.84
		c-2.47-10.38-7.92-19.65-11.5-29.64c-4.5-11.54-6.52-23.97-12.27-35.02c-5.16-9.93-9.12-20.41-13.21-30.8
		c-4.88-13.06-12.09-25.01-18.36-37.4c-5.46-12.43-13.92-23.17-20.08-35.21c-2.29-4.54-6.83-7.23-10.68-10.22
		c-4.21-3.09-7.34-7.34-11.24-10.77c-5.81-6.05-13.16-10.21-19.84-15.15c-10.6-7.89-23.26-12.17-35.45-16.89
		c-5.43-2.54-9.86-6.74-15.42-8.99c-10.59-4.41-20.32-10.82-31.54-13.64c-14.73-4.35-28.7-10.7-42.35-17.66
		c-14.71-7.54-31.44-10.08-46-17.98c-12.79-6.82-27.29-9.13-40.59-14.64c-24.34-10.21-49.94-19.12-70.17-36.67
		c-7.83-7.24-15.95-15.46-18.71-26.11c58.12-45.38,99.66-109.37,125.06-178.09c24.85-66.43,35.92-137.78,34.49-208.61
		c-1.02-66.38-11.85-133.06-35.82-195.14c-25.29-67.17-66.4-129.31-122.88-174.22c-29.82-23.8-64.78-41.37-101.99-50.04
		C1074.01-393.95,1045.51-394.37,1017.67-391.37 M1000.06-372.03c27.28-6.12,55.82-8.06,83.36-2.45
		c66.34,12.34,125.01,53.42,165.42,106.65c43.45,56.04,71.06,123.17,85.73,192.22c12.13,59.62,16.1,121.18,8.43,181.65
		c-6.37,52.54-19.72,104.42-41.15,152.88c-21.26,48.54-50.98,93.83-89.65,130.28c-39.7,36.16-89.78,62.54-143.65,68.26
		c-35.11,4.62-70.79-2.59-103.38-15.64c-12.7-5.39-25.41-11.05-36.81-18.88c9.47-2.84,21.14-2.41,28.2-10.39
		c4.06-4.95,7.46-11,7.45-17.58c1.11-19.99-9.4-40.86-26.8-51.11c-12.77-5.39-26.55-7.97-40.27-9.46
		c-18.81-2.53-36.14,5.98-53.78,10.86c-16.22-21.69-30.05-45.09-42.26-69.24c-3.69-4.82,1.14-10.21,4.9-13.12
		c13-6.94,26.35-13.39,40.52-17.6c12.03-5.9,23.72-13.16,37.14-15.56c9.46-1.06,18.96-2.3,28.5-2.43c9.3,1.05,18.53,3.46,27.97,2.53
		c10.78-2.9,22.4-7.36,28.75-17.16c5.5-9.11,9.54-19.82,8.17-30.61c-4.3-15.3-12.32-31.98-27.87-38.52
		c-1.23-3.48-1.02-8.62-4.68-10.76c-29.46-12.2-58.44-25.84-89.01-35.2C841.59,93.85,828.57,86.36,814,87
		c-13.97,2.86-25.47,11.88-35.95,21.05c-6.98,6.08-13.14,16.37-23.92,14.45c-4.2-33.88-7.22-68.02-5.78-102.18
		c3.61-85.76,25.67-171.53,69.09-245.93c19.24-31.96,42.17-62,70.11-86.88C919.83-340.58,958.26-362.13,1000.06-372.03
		 M975.44,211.36c-2.68,1.2-4.86,3.78-5.12,6.78c-0.49,9.28,1.66,18.91-0.97,28.04c-1.33,6.44-5.52,12.38-4.72,19.15
		c1.6,6.33,11.31,7.37,14.71,2.02c9.71-14.55,9.77-33.28,7.14-49.93C985.76,212.48,979.96,209.91,975.44,211.36 M1005.4,213.44
		c-2.65,0.47-5.2,2.4-5.46,5.24c-0.81,9.61,0.62,19.39-1.49,28.9c-1.42,6.88-5.75,12.64-7.59,19.4c-1.41,4.64-4.94,11.39,0.45,14.71
		c4.87,1.23,11.41,0.43,13.79-4.6c3.16-6.25,6.21-12.57,8.92-19.02c3.28-11.79,3.58-24.32,2.34-36.42
		C1015.74,216.48,1010.99,211.71,1005.4,213.44 M979.39,319.42c-4.64,0.81-5.96,5.89-7.36,9.67c-2.35,7.74-5.79,15.14-7.84,22.96
		c-2.23,5.56-0.28,11.39,2.46,16.32c2.22,4.29,9.2,1.57,10.03-2.49c5.04-11.76,9.11-23.94,12.63-36.24
		C991.7,323.58,985.36,317.55,979.39,319.42 M998.39,347.39c-4.48,1.17-6.54,5.81-8.77,9.37c-4.89,8.64-9.96,17.58-11.33,27.58
		c-0.48,2.02,0.76,3.89,2.17,5.23c3.85,2.29,8.35-0.38,11.63-2.44c3.32-1.61,4.22-5.4,5.73-8.43c3.07-7.26,8.26-13.56,10.65-21.12
		C1010.53,351.51,1004.39,345.58,998.39,347.39 M809.56,106.46c5.59-3.3,12.59-2.55,18.5-0.53c20.05,7.29,40.67,13.01,60.21,21.67
		c15.04,5.44,29.16,13,44,18.93c-0.76,5.21-0.77,10.76-3.09,15.62c-1.79,3.93-5.13,6.8-8.09,9.84c-2.4-2.9-4.61-6.26-8.16-7.86
		c-12.82-5.26-26.05-9.6-39.77-11.71c-23.59-6.56-47.92-10.8-70.69-20.02c-6-3.5-12.82-4.53-19.64-4.94
		C790.05,118.54,799.79,112.23,809.56,106.46 M752.66,139.58c18.33,0.05,35.42,7.97,53,12.13c20.7,7.12,42.2,11.3,63.27,17.14
		c12.2,2.77,24.51,5.35,36.12,10.15c0.3,5.41,1.88,11.19-0.71,16.28c-2.04,3.71-3.34,8.54-7.41,10.61
		c-13.03,6.01-28.01,7.1-41.98,4.26c-13.06-3.38-26.61-3.84-39.83-6.3c-13.75-1.69-27.51-5.34-41.44-4.14
		c-6.11,2.7-9.27,9.11-12.97,14.31c-14.27-0.03-28.46-1.91-42.72-2.01c-8.93-0.06-17.77-1.71-26.42-3.77
		c4.25-6.58,7.75-13.72,13.22-19.42c9.39-13.13,18.84-26.32,29.72-38.27C740.03,146.1,744.7,139.25,752.66,139.58 M946.5,164.34
		c8.77,6.2,15.26,17.04,12.97,28.04c-1.98,6.74-5.71,13.67-12.34,16.8c-9.32,6-21.19,3.39-31.39,1.54
		c3.17-6.86,6.18-13.81,7.9-21.19C934.43,184.94,943.16,175.65,946.5,164.34 M805.4,219.59c12.96,1.98,25.76,5.03,38.89,5.89
		c-9.1,4.2-17.93,8.97-27.19,12.79c-2.35,1-4.93,0.99-7.43,0.94C809.12,232.5,808.71,225.6,805.4,219.59 M679.54,228.5
		c10.06-0.99,20.2-0.55,30.3-0.18c27.16,1.31,54.34,2.6,81.37,5.57c0.05,6.89,2.28,14.85-2.82,20.52
		c-8.51,9.86-19.64,19.4-33.41,19.49c-18.34,1.64-36.73,3.53-54.7,7.65c-11.22,2.4-21.96,9-27.23,19.47
		c-6.8,12.79-14.09,25.42-18.86,39.16c-4.67,10.78-9.74,21.41-14.9,31.97c-4,11.56-9.86,22.37-16.73,32.45
		c-2.98,4.32-7.82,7.65-8.9,13.06c-0.39,4.34,0.96,8.56,2.18,12.67c4.25-1.21,9.5-1.18,12.35-5.07
		c9.27-11.6,18.14-23.88,23.23-37.95c2.52-7.41,7.33-13.77,9.77-21.22c3.09-8.28,7.71-15.9,10.5-24.31
		c3.18-9.24,9.17-17.15,12.91-26.15c3.24-7.54,8.68-14.74,17.07-16.83c21.61-4.54,43.62-6.91,65.62-8.65
		c-8.5,16.94-11.6,36.02-11.96,54.8c1.11,9.33,2.79,19.89,10.59,26.16c8.69,7.22,20.89,7.26,31.69,7.27
		c12.65,0.15,24.39-5.08,36.32-8.58c9.76-3.35,18.35-9.37,28.14-12.66c10.13-3.96,21.03-5.8,31.88-5.99
		c11.24,1.4,22.35,4.18,33.06,7.84c7.33,2.01,11.35,8.78,15.25,14.74c2.35,4.77,5.1,9.74,4.86,15.28
		c0.96,6.09-2.38,15.2-10.14,13.83c-22.5,2.08-41.33,15.99-58.36,29.7c-8.08,5.71-16.09,11.56-24.93,16.08
		c-7.05,3.71-12.52,9.79-19.6,13.44c-16.14,7.8-33.59,12.48-51.13,15.88c-17.74,3.76-36.06,1.7-53.81,5.26
		c-22.51,4.23-43.45,13.89-65.11,20.98c-6.02,1.94-11.61,5.24-18.02,5.86c-11.23,1.81-22.26,4.93-33.69,5.3
		c-6.54,0.73-13.28-0.23-19.69,1.34c-6.08,1.51-7.25,10.61-2.62,14.31c3.53,2.03,7.82,1.72,11.77,2.36
		c-9.26,19.12-16.46,39.3-20.2,60.26c-17.1,87.75-31.46,176.04-50.56,263.4c-16.91,70.36-35.4,140.34-55.15,209.95
		c-12.55,43.27-25.61,86.43-41.15,128.74c-6.11,16.43-12.78,32.68-20.82,48.27c-9.26,16.42-21.75,30.69-34.22,44.73
		c-20.84,23.49-44.16,44.68-68.44,64.56c-17.79,14.22-36.38,27.56-56.26,38.73c-16.64,9.53-34.45,17.88-53.65,20.43
		c-8.07,0.65-16.68,0.94-24.18-2.59c-15.21-6.29-24.58-20.9-32.43-34.57c-9.03-16.84-15.56-34.91-20.64-53.29
		c-10.7-37.4-15.9-76.21-17.83-115.01c-0.33-18.6-1.24-37.75,3.96-55.82c6.89-19.33,17.05-37.25,26.58-55.35
		c37.68-69.07,78.8-136.17,119.66-203.37c29.71-48.56,59.51-97.07,89.51-145.44c36.02-59.12,73.51-117.4,106.97-178.03
		c15.12-32.23,23.24-67.11,32.65-101.29c6.48-22.1,12.05-45.69,27.45-63.62c27.48-33.72,56.43-66.2,85.44-98.58
		c20.48-22.49,41.02-44.94,62.77-66.22C666.47,234.53,671.97,228.78,679.54,228.5 M780.89,301.96c1.77-4.77,4.67-8.97,7.6-13.07
		c11.26,22.98,25.11,44.64,40.53,65.05c-15.29,4.57-31.31,9.8-47.42,6.5c-4.74-1.04-7.89-5.58-7.95-10.36
		C770.33,333.74,775.15,317.16,780.89,301.96L780.89,301.96z"/>
	<path d="M1017.67-391.37c27.84-3,56.34-2.58,83.67,3.97c37.21,8.67,72.17,26.24,101.99,50.04
		c56.48,44.91,97.59,107.05,122.88,174.22c23.97,62.08,34.8,128.76,35.82,195.14c1.43,70.83-9.64,142.18-34.49,208.61
		c-25.4,68.72-66.94,132.71-125.06,178.09c2.76,10.65,10.88,18.87,18.71,26.11c20.23,17.55,45.83,26.46,70.17,36.67
		c13.3,5.51,27.8,7.82,40.59,14.64c14.56,7.9,31.29,10.44,46,17.98c13.65,6.96,27.62,13.31,42.35,17.66
		c11.22,2.82,20.95,9.23,31.54,13.64c5.56,2.25,9.99,6.45,15.42,8.99c12.19,4.72,24.85,9,35.45,16.89
		c6.68,4.94,14.03,9.1,19.84,15.15c3.9,3.43,7.03,7.68,11.24,10.77c3.85,2.99,8.39,5.68,10.68,10.22
		c6.16,12.04,14.62,22.78,20.08,35.21c6.27,12.39,13.48,24.34,18.36,37.4c4.09,10.39,8.05,20.87,13.21,30.8
		c5.75,11.05,7.77,23.48,12.27,35.02c3.58,9.99,9.03,19.26,11.5,29.64c4.39,16.12,11.04,31.55,14.89,47.84
		c4.56,12.32,10.76,24.01,15.89,36.1c1.89,12.9,6.22,25.19,10.81,37.32c9.3,31.33,20.09,62.2,30.14,93.28
		c2.31,8.3,4.85,16.57,8.29,24.51c1.59,4.19,1.38,8.77,2.69,13.05c3.66,8.57,7.43,17.13,10.75,25.87
		c3.39,11.28,5.01,23.23,10.17,33.94c3.9,8.21,6.1,17.08,10.18,25.22c2.58,13.17,7.24,25.74,11.6,38.39
		c1.94,10.5,6.48,20.31,8.13,30.89c2.42,8.38,3.91,17.06,7.63,25.02c8.81,19.02,14.09,39.43,19.06,59.73
		c1.85,10.22,5.06,20.25,5.78,30.67c2.52,15.08,5.5,30.14,9.71,44.85c3.34,14.38,9.23,28.07,11.73,42.68
		c4.39,24.3,8.88,48.59,11.9,73.11c-6.59,0.01-13.16,0.01-19.71-0.01c0.57-8.52-2.15-16.77-3.36-25.1
		c-1.47-7.89-2.2-15.88-3.68-23.76c-4.24-19.23-4.91-39.42-12.81-57.72c-5.32-12.71-6.25-26.45-9.55-39.65
		c-3.19-9.18-2.71-19.12-5.36-28.43c-2.83-9.98-3.55-20.4-6.47-30.36c-3.48-13.08-6.09-26.45-11.28-39
		c-3.02-6.91-4.62-14.31-7.18-21.37c-4.42-10.76-5.94-22.41-10.39-33.16c-4.54-11.82-5.5-24.67-10.5-36.32
		c-6.33-17.5-11.55-35.35-18.32-52.69c-2.95-14.65-10.02-27.98-13.53-42.45c-1.91-7.79-7.09-14.3-8.78-22.16
		c-5.23-24.42-16.78-46.84-23.37-70.82c-4.7-12.35-7.6-25.28-12.18-37.66c-3.95-11.93-7.12-24.1-10.07-36.29
		c-1.1-3.76-4.39-6.33-5.78-9.96c-4.14-9.57-6.5-19.8-10.54-29.4c-6.72-15.74-10.95-32.4-17.8-48.06
		c-2.99-11.96-8.77-22.92-12.36-34.68c-4.75-15.8-10.65-31.24-18.1-45.97c-4.9-9.38-8.39-19.39-13.24-28.78
		c-5.59-10.1-10.03-20.83-16.49-30.43c-3.44-6.41-9.4-11.01-12.54-17.6c-4.14-8.54-12.42-13.6-19.08-19.96
		c-7.75-7.74-17.39-13.16-27.17-17.9c-18.96-9.46-37.86-19.08-57.22-27.68c-12.28-4.11-24.31-8.92-36.27-13.85
		c-10.13-3.82-18.79-10.83-29.51-13.2c-17.08-4.67-32.48-13.79-49.42-18.82c-17.1-5.04-33.23-12.7-49.73-19.33
		c-20.13-8.35-39.07-19.85-54.92-34.86c-5.22-6.75-9.78-14.09-16.46-19.53c-18.08,11.89-37.26,22.34-57.76,29.39
		c-31.47,11.86-65.62,14.96-99,13.3c-42.63-2.73-83.83-18.36-119.29-41.86c-6.88,4.01-13.9,7.94-19.65,13.53
		c-8.82,6.7-17.89,13.14-27.79,18.16c-8.14,3.95-14.02,11.44-22.59,14.61c-16.74,6.87-33.83,13.58-51.82,16.35
		c-21.64,5.24-44.59,0.96-65.91,7.95c-10.54,2-20.25,6.47-30.08,10.55c-15.08,4.47-29.46,11.31-45.03,14.18
		c-8.7,1.44-17.24,3.64-25.94,5.11c-6.61,13.51-13.31,27.11-17.43,41.64c-6.8,23.84-10.31,48.43-15.07,72.72
		C571.94,734.97,558.05,823.99,535,911c-13.48,54.47-28.05,108.66-43.46,162.62c-12.59,43.25-25.56,86.44-41.26,128.68
		c-10.1,26.34-20.54,53.22-38.82,75.13c-31.96,39.87-69.67,74.98-110.87,105.15c-25.09,17.9-51.64,34.95-81.57,43.45
		c-14,3.9-29.26,5.61-43.39,1.38c-15.11-4.77-26.93-16.38-36.19-28.81c-18.37-26.26-28.05-57.3-35.96-88.02
		c-8.39-36.93-13.74-74.68-14.49-112.57c-0.13-20.1-0.04-41.14,8.12-59.91c14.06-32.98,32.18-64.01,49.75-95.2
		c68.87-118.56,141.67-234.77,213.56-351.5c23.47-38.31,47.13-76.5,69.41-115.51c18.83-31.33,26.94-67.43,36.71-102.26
		c6.97-25.37,13.14-51.83,28.33-73.78c25.63-32.17,53-62.92,80.28-93.7c23.91-26.38,47.64-52.98,73.11-77.88
		c7.33-7.42,17.02-12.38,22.88-21.22c7.22-8.97,11.82-19.74,19.53-28.31c7.54-11.31,16.3-21.71,24.51-32.51
		c5.95-8.59,14.86-14.33,22.73-20.97c-0.06-5.6-0.61-11.18-1.24-16.73c-10.1-91.62-0.84-186.14,32.41-272.43
		c24.99-66.01,65.3-126.96,120.3-171.71C926.08-365.16,970.54-386.2,1017.67-391.37 M1000.06-372.03
		c-41.8,9.9-80.23,31.45-112.51,59.54c-27.94,24.88-50.87,54.92-70.11,86.88c-43.42,74.4-65.48,160.17-69.09,245.93
		c-1.44,34.16,1.58,68.3,5.78,102.18c10.78,1.92,16.94-8.37,23.92-14.45C788.53,98.88,800.03,89.86,814,87
		c14.57-0.64,27.59,6.85,41.29,10.59c30.57,9.36,59.55,23,89.01,35.2c3.66,2.14,3.45,7.28,4.68,10.76
		c15.55,6.54,23.57,23.22,27.87,38.52c1.37,10.79-2.67,21.5-8.17,30.61c-6.35,9.8-17.97,14.26-28.75,17.16
		c-9.44,0.93-18.67-1.48-27.97-2.53c-9.54,0.13-19.04,1.37-28.5,2.43c-13.42,2.4-25.11,9.66-37.14,15.56
		c-14.17,4.21-27.52,10.66-40.52,17.6c-3.76,2.91-8.59,8.3-4.9,13.12c12.21,24.15,26.04,47.55,42.26,69.24
		c17.64-4.88,34.97-13.39,53.78-10.86c13.72,1.49,27.5,4.07,40.27,9.46c17.4,10.25,27.91,31.12,26.8,51.11
		c0.01,6.58-3.39,12.63-7.45,17.58c-7.06,7.98-18.73,7.55-28.2,10.39c11.4,7.83,24.11,13.49,36.81,18.88
		c32.59,13.05,68.27,20.26,103.38,15.64c53.87-5.72,103.95-32.1,143.65-68.26c38.67-36.45,68.39-81.74,89.65-130.28
		c21.43-48.46,34.78-100.34,41.15-152.88c7.67-60.47,3.7-122.03-8.43-181.65c-14.67-69.05-42.28-136.18-85.73-192.22
		c-40.41-53.23-99.08-94.31-165.42-106.65C1055.88-380.09,1027.34-378.15,1000.06-372.03 M809.56,106.46
		c-9.77,5.77-19.51,12.08-26.73,21c6.82,0.41,13.64,1.44,19.64,4.94c22.77,9.22,47.1,13.46,70.69,20.02
		c13.72,2.11,26.95,6.45,39.77,11.71c3.55,1.6,5.76,4.96,8.16,7.86c2.96-3.04,6.3-5.91,8.09-9.84c2.32-4.86,2.33-10.41,3.09-15.62
		c-14.84-5.93-28.96-13.49-44-18.93c-19.54-8.66-40.16-14.38-60.21-21.67C822.15,103.91,815.15,103.16,809.56,106.46 M752.66,139.58
		c-7.96-0.33-12.63,6.52-18.15,10.97c-10.88,11.95-20.33,25.14-29.72,38.27c-5.47,5.7-8.97,12.84-13.22,19.42
		c8.65,2.06,17.49,3.71,26.42,3.77c14.26,0.1,28.45,1.98,42.72,2.01c3.7-5.2,6.86-11.61,12.97-14.31
		c13.93-1.2,27.69,2.45,41.44,4.14c13.22,2.46,26.77,2.92,39.83,6.3c13.97,2.84,28.95,1.75,41.98-4.26
		c4.07-2.07,5.37-6.9,7.41-10.61c2.59-5.09,1.01-10.87,0.71-16.28c-11.61-4.8-23.92-7.38-36.12-10.15
		c-21.07-5.84-42.57-10.02-63.27-17.14C788.08,147.55,770.99,139.63,752.66,139.58 M946.5,164.34
		c-3.34,11.31-12.07,20.6-22.86,25.19c-1.72,7.38-4.73,14.33-7.9,21.19c10.2,1.85,22.07,4.46,31.39-1.54
		c6.63-3.13,10.36-10.06,12.34-16.8C961.76,181.38,955.27,170.54,946.5,164.34 M805.4,219.59c3.31,6.01,3.72,12.91,4.27,19.62
		c2.5,0.05,5.08,0.06,7.43-0.94c9.26-3.82,18.09-8.59,27.19-12.79C831.16,224.62,818.36,221.57,805.4,219.59 M679.54,228.5
		c-7.57,0.28-13.07,6.03-18.29,10.74c-21.75,21.28-42.29,43.73-62.77,66.22c-29.01,32.38-57.96,64.86-85.44,98.58
		c-15.4,17.93-20.97,41.52-27.45,63.62c-9.41,34.18-17.53,69.06-32.65,101.29c-33.46,60.63-70.95,118.91-106.97,178.03
		c-30,48.37-59.8,96.88-89.51,145.44c-40.86,67.2-81.98,134.3-119.66,203.37c-9.53,18.1-19.69,36.02-26.58,55.35
		c-5.2,18.07-4.29,37.22-3.96,55.82c1.93,38.8,7.13,77.61,17.83,115.01c5.08,18.38,11.61,36.45,20.64,53.29
		c7.85,13.67,17.22,28.28,32.43,34.57c7.5,3.53,16.11,3.24,24.18,2.59c19.2-2.55,37.01-10.9,53.65-20.43
		c19.88-11.17,38.47-24.51,56.26-38.73c24.28-19.88,47.6-41.07,68.44-64.56c12.47-14.04,24.96-28.31,34.22-44.73
		c8.04-15.59,14.71-31.84,20.82-48.27c15.54-42.31,28.6-85.47,41.15-128.74c19.75-69.61,38.24-139.59,55.15-209.95
		c19.1-87.36,33.46-175.65,50.56-263.4c3.74-20.96,10.94-41.14,20.2-60.26c-3.95-0.64-8.24-0.33-11.77-2.36
		c-4.63-3.7-3.46-12.8,2.62-14.31c6.41-1.57,13.15-0.61,19.69-1.34c11.43-0.37,22.46-3.49,33.69-5.3c6.41-0.62,12-3.92,18.02-5.86
		c21.66-7.09,42.6-16.75,65.11-20.98c17.75-3.56,36.07-1.5,53.81-5.26c17.54-3.4,34.99-8.08,51.13-15.88
		c7.08-3.65,12.55-9.73,19.6-13.44c8.84-4.52,16.85-10.37,24.93-16.08c17.03-13.71,35.86-27.62,58.36-29.7
		c7.76,1.37,11.1-7.74,10.14-13.83c0.24-5.54-2.51-10.51-4.86-15.28c-3.9-5.96-7.92-12.73-15.25-14.74
		c-10.71-3.66-21.82-6.44-33.06-7.84c-10.85,0.19-21.75,2.03-31.88,5.99c-9.79,3.29-18.38,9.31-28.14,12.66
		c-11.93,3.5-23.67,8.73-36.32,8.58c-10.8-0.01-23-0.05-31.69-7.27c-7.8-6.27-9.48-16.83-10.59-26.16
		c0.36-18.78,3.46-37.86,11.96-54.8c-22,1.74-44.01,4.11-65.62,8.65c-8.39,2.09-13.83,9.29-17.07,16.83
		c-3.74,9-9.73,16.91-12.91,26.15c-2.79,8.41-7.41,16.03-10.5,24.31c-2.44,7.45-7.25,13.81-9.77,21.22
		c-5.09,14.07-13.96,26.35-23.23,37.95c-2.85,3.89-8.1,3.86-12.35,5.07c-1.22-4.11-2.57-8.33-2.18-12.67
		c1.08-5.41,5.92-8.74,8.9-13.06c6.87-10.08,12.73-20.89,16.73-32.45c5.16-10.56,10.23-21.19,14.9-31.97
		c4.77-13.74,12.06-26.37,18.86-39.16c5.27-10.47,16.01-17.07,27.23-19.47c17.97-4.12,36.36-6.01,54.7-7.65
		c13.77-0.09,24.9-9.63,33.41-19.49c5.1-5.67,2.87-13.63,2.82-20.52c-27.03-2.97-54.21-4.26-81.37-5.57
		C699.74,227.95,689.6,227.51,679.54,228.5 M780.89,301.96c-5.74,15.2-10.56,31.78-7.24,48.12c0.06,4.78,3.21,9.32,7.95,10.36
		c16.11,3.3,32.13-1.93,47.42-6.5c-15.42-20.41-29.27-42.07-40.53-65.05C785.56,292.99,782.66,297.19,780.89,301.96 M975.44,211.36
		c4.52-1.45,10.32,1.12,11.04,6.06c2.63,16.65,2.57,35.38-7.14,49.93c-3.4,5.35-13.11,4.31-14.71-2.02
		c-0.8-6.77,3.39-12.71,4.72-19.15c2.63-9.13,0.48-18.76,0.97-28.04C970.58,215.14,972.76,212.56,975.44,211.36 M1005.4,213.44
		c5.59-1.73,10.34,3.04,10.96,8.21c1.24,12.1,0.94,24.63-2.34,36.42c-2.71,6.45-5.76,12.77-8.92,19.02
		c-2.38,5.03-8.92,5.83-13.79,4.6c-5.39-3.32-1.86-10.07-0.45-14.71c1.84-6.76,6.17-12.52,7.59-19.4c2.11-9.51,0.68-19.29,1.49-28.9
		C1000.2,215.84,1002.75,213.91,1005.4,213.44 M979.39,319.42c5.97-1.87,12.31,4.16,9.92,10.22c-3.52,12.3-7.59,24.48-12.63,36.24
		c-0.83,4.06-7.81,6.78-10.03,2.49c-2.74-4.93-4.69-10.76-2.46-16.32c2.05-7.82,5.49-15.22,7.84-22.96
		C973.43,325.31,974.75,320.23,979.39,319.42 M998.39,347.39c6-1.81,12.14,4.12,10.08,10.19c-2.39,7.56-7.58,13.86-10.65,21.12
		c-1.51,3.03-2.41,6.82-5.73,8.43c-3.28,2.06-7.78,4.73-11.63,2.44c-1.41-1.34-2.65-3.21-2.17-5.23c1.37-10,6.44-18.94,11.33-27.58
		C991.85,353.2,993.91,348.56,998.39,347.39L998.39,347.39z"/>
</g>
</svg>
