<?xml version="1.0" encoding="iso-8859-1"?>
<!-- Generator: Adobe Illustrator 28.5.0, SVG Export Plug-In . SVG Version: 9.03 Build 54727)  -->
<svg version="1.1" id="Layer_1" xmlns="http://www.w3.org/2000/svg" xmlns:xlink="http://www.w3.org/1999/xlink" x="0px" y="0px"
	 viewBox="0 0 1920 1080" style="enable-background:new 0 0 1920 1080;" xml:space="preserve">
<g>
	<path style="fill:#FFFFFF;" d="M81-456h1758v1992H81V-456 M887.99-381.02c-30.17,14.27-57.53,34.33-80.78,58.23
		c-37.39,36.58-66.05,81.48-86.63,129.42c-31.26,72.69-45.2,152.4-43.61,231.37c1.03,71.78,13.8,143.92,41.87,210.2
		c2.53,4.66-2.4,8.4-4.88,11.79c-10.63,11.56-17.94,25.77-29.18,36.78c-5.64,6.41-10.23,13.66-16.13,19.87
		c-6.58,8.74-14.42,16.5-20.22,25.84c-7.05,10.71-16.98,19.11-24.29,29.61c-5.13,8.34-11.02,16.21-17.47,23.58
		c-6.38,7.16-11.23,15.49-16.73,23.31c-2.83,4.04-7.36,6.67-9.48,11.24c-4.41,9.88-10.88,18.66-15.88,28.22
		c-4.18,10.95-6.63,22.5-10.74,33.48c-0.93,2.59-3.54,3.89-5.73,5.23c-7.89,4.34-14.65,10.58-23.09,13.94
		c-5.65,1.81-9.28,6.67-14.15,9.73c-7.02,4.96-15.6,6.9-22.99,11.17c-9.63,6.68-20.18,12.07-28.94,19.97
		c-5.4,5.02-13.33,7.02-17.43,13.46c-6.13,9.96-15.03,17.92-20.74,28.17c-4.72,8.76-11.2,16.39-16.38,24.87
		c-5.84,9.06-10.1,18.99-15.56,28.28c-6.01,12.93-15.94,23.97-19.55,37.99c-6.75,16.34-17.01,31.03-23.03,47.72
		c-4.06,11.36-10.78,21.56-14.54,33.05c-1.49,5.88-4.71,11.06-8.03,16.06c-4.41,7.53-7.93,15.61-13.05,22.72
		c-2.9,8.45-5.44,17.11-9.12,25.29c-6.94,12.84-11.53,26.74-18.04,39.78c-2.7,6.58-4.82,13.45-8.51,19.61
		c-5.88,10.59-8.59,22.68-15.23,32.88c-1.17,1.84-2.5,3.98-2.95,6.22c-0.95,6.52-5.43,11.72-7.03,18.07
		c-2.97,5.85-5.95,11.76-6.86,18.35c-6.45,13.36-15.65,25.56-19.69,40.04c-1.64,4.03-3.81,7.84-5.84,11.69
		c-5.23,9.51-8.35,20.03-13.67,29.51c-3.03,5.41-5.8,10.95-8.4,16.6c-3.79,7.74-5.84,16.23-10.2,23.72
		c-8.97,19.5-21.9,37.19-28.48,57.77c-1.64,4.11-4.33,7.7-6,11.82c-9.69,23.53-19.37,47.08-28.07,71
		c-4.28,11.34-4.55,23.6-5.91,35.52c-0.45,16.88-1.6,33.94,1.69,50.64c0.6,16.9,2.02,33.78,4.35,50.54
		c2.53,14.34,6.86,28.3,8.9,42.74c0.63,5.18,4.09,9.46,4.83,14.63c0.86,5.26,1.37,10.78,4.82,15.15c3.93,5.6,4.32,12.69,6.52,19.01
		c6.69,13.25,13.75,26.54,23.73,37.68c7.19,7.57,18.52,8.46,27.78,12.19c21.15,2.88,42.81-4.12,59.99-16.4
		c8.94-4.76,14.78-13.32,22.62-19.49c5.92-4.72,9.89-11.47,16.23-15.68c7.67-4.51,13.6-11.19,20.7-16.42
		c9.85-8.46,21.16-15.36,29.44-25.52c4.82-5.96,12.01-9.23,17.28-14.71c3.64-3.72,7.37-7.38,11.6-10.43
		c6.66-4.57,11.91-10.73,17.89-16.08c7.79-7.03,13.27-16.05,19.74-24.2c5.19-8.02,13.27-13.56,18.5-21.54
		c6.81-8.89,13.71-17.73,20.08-26.94c8.26-12.39,13.88-26.26,21.42-39.05c8.99-24.99,20.04-49.22,27.8-74.64
		c4.86-16.62,10.89-32.86,15.55-49.53c6.36-17.14,8.09-35.69,15.52-52.47c5.45-11.6,4.94-24.96,10.87-36.41
		c5.34-11.34,6.55-24.16,12.4-35.27c6.85-13.57,9.16-28.72,14.07-42.97c2.81-9.04,7.54-17.45,9.17-26.85
		c1.9-10.25,4.31-20.4,7.72-30.25c3.3-9.41,3.44-19.65,7.12-28.94c6.75-15.63,12.61-31.78,15.31-48.66
		c7.52-3.67,16.01-5.91,22.26-11.74c5.4-4.27,11.47-7.73,16.19-12.82c9.16-8.14,19.24-15.44,26.5-25.48
		c4.01-6.37,10.47-10.22,16.06-14.96c7.13-6.05,8.26-16,13.93-23.11c9.9-12.13,7.96-30.44,19.37-41.58
		c4.88-5.24,8.58-11.41,13.21-16.85c5.81-5.3,12.42-9.98,19.81-12.81c8.72-2.81,16.81-7.57,23.53-13.8
		c5.24-4.76,13.35-7.09,14.86-14.9c2.41-13.45,9.64-25.85,9.09-39.82c0.41-5.49-1.86-12.28,2.56-16.76
		c14.56-14.88,23.99-33.7,34.81-51.25c3.44-5.35,4.66-11.59,5.39-17.79c5.88-2.55,11.61-5.42,17.18-8.58
		c6.32-3.71,13.37-7.19,17.09-13.83c3.3-6.28,8.28-12.54,6.79-20.15c-0.64-9.32-1.16-19.82-8.01-26.89
		c-7.93-5.65-17.12-9.24-26.16-12.7c-4.03-1.59-8.63-1.5-12.39-3.69c-3.24-4.93-4.35-11.2-8.6-15.47c-4.88-4.75-9.5-9.77-14.67-14.2
		c1.75-2.31,3.54-4.6,5.36-6.86c6.22,6.25,12.94,11.99,19.68,17.67c10.97,6.18,20.47,14.72,32.15,19.71
		c72.01,41.14,165.88,39.07,236.9-3.3c9.69-4.41,17.73-11.49,26.23-17.74c6.81-4.4,12.61-10.08,18.92-15.12
		c5.91,12.53,13.93,24.73,25.34,32.91c22.83,19.64,51.85,29.27,79.16,40.79c12.13,4.62,24.9,7.62,36.65,13.26
		c10.83,5.07,22.13,9.03,33.54,12.6c7.75,2.12,14.2,7.09,21.53,10.2c9,3.78,18.07,7.45,27.21,10.91
		c22.31,7.4,42.91,18.96,63.99,29.23c11.7,5.73,23.74,11.44,33.04,20.81c6.67,6.35,14.91,11.44,19.08,19.96
		c3.02,6.36,8.7,10.83,12.12,16.92c7.45,11.35,12.91,23.82,19.24,35.8c5.21,12.52,11.22,24.67,16.96,36.96
		c7.83,16.96,11.81,35.38,19.33,52.47c2.8,6.3,3.9,13.2,6.73,19.5c6.06,13.8,9.56,28.56,15.57,42.4
		c4.28,10.07,6.81,20.8,11.13,30.86c1.39,3.63,4.66,6.22,5.76,9.98c6.65,29.17,17.49,57.14,25.72,85.86
		c7.41,19.58,15.36,39.09,20.1,59.55c1.17,4.44,3.07,8.65,5.23,12.71c3.7,7.08,4.53,15.17,7.61,22.51
		c6.63,15.71,9.48,32.66,16.5,48.25c4.37,14.6,9.75,28.87,14.61,43.31c2.97,17.49,10.44,33.7,14.39,50.93
		c3.8,9.49,6.06,19.53,9.87,29.03c5.34,12.79,8.05,26.41,11.58,39.76c2.91,9.96,3.66,20.37,6.47,30.36
		c2.66,9.31,2.17,19.25,5.36,28.42c3.26,13.22,4.28,26.94,9.55,39.67c7.89,18.29,8.57,38.48,12.81,57.71
		c1.47,7.88,2.22,15.87,3.68,23.76c1.21,8.33,3.95,16.59,3.35,25.11c6.55-0.02,13.12-0.01,19.72,0.01
		c-3.02-24.53-7.51-48.82-11.9-73.12c-2.51-14.61-8.39-28.3-11.73-42.68c-4.22-14.71-7.19-29.77-9.71-44.85
		c-0.71-10.42-3.94-20.45-5.77-30.67c-4.89-19.79-9.97-39.72-18.45-58.33c-5.8-12.63-7.71-26.53-11.49-39.79
		c-3.71-10.56-5.54-21.66-9.91-31.99c-4.26-10.79-4.86-22.73-10.53-32.97c-2.02-5.43-3.61-10.99-6.24-16.16
		c-6.43-13.17-7-28.31-13.19-41.55c-2.47-6.14-5.11-12.21-7.71-18.27c-1.34-4.27-1.12-8.86-2.7-13.05
		c-5.99-13.57-8.64-28.28-14.22-41.98c-4.55-16.73-11.31-32.72-15.95-49.41c-4.28-11.42-6.72-23.42-11.26-34.74
		c-3.84-9.28-5.98-19.16-7.81-28.98c-6.08-14.99-14.84-29.04-18.3-44.98c-4.64-15.53-10.45-30.65-14.7-46.29
		c-5.19-12.58-10.99-24.97-14.45-38.18c-3.13-13.98-11.44-25.9-16.05-39.32c-5.4-13.73-11.04-27.4-18.55-40.14
		c-7.33-15.62-16.79-30.03-25.31-44.98c-3.78-5.22-10.06-7.78-14.25-12.59c-7.24-7.95-15.62-14.71-24.68-20.46
		c-10.98-8.55-24.28-13.16-37.11-18.12c-5.44-2.52-9.88-6.71-15.44-8.96c-10.57-4.44-20.31-10.81-31.53-13.65
		c-14.73-4.36-28.7-10.69-42.34-17.66c-14.72-7.53-31.44-10.09-46.01-17.98c-12.8-6.8-27.29-9.14-40.59-14.64
		c-21.77-9.12-44.36-17.16-63.51-31.3c-11.99-8.78-22.44-20.39-27.34-34.62c-0.93-1.72,0.72-3.1,1.71-4.3
		c37.24-35.9,65.93-80.09,86.63-127.33c25.34-57.4,39.46-119.47,43.95-181.96c4.46-72.93-2.12-147.01-23.76-216.98
		c-21.39-68.58-56.8-133.99-109.27-183.76c-47-46.77-111.62-78.34-178.77-77.31C956.81-404.54,920.59-396.76,887.99-381.02
		 M944.06-383.03c27.28-6.12,55.83-8.05,83.37-2.45c67.52,12.57,127.04,54.87,167.56,109.48c35.59,46.57,60.11,100.85,75.78,157.13
		c18.86,70.55,25.24,144.79,15.83,217.34c-8.17,63.9-26.7,126.83-57.45,183.59c-25.14,45.85-58.15,88.52-101.15,118.9
		c-33.36,23.64-72.16,40.44-112.95,45.21c-56.22,7.45-113.12-12.29-158.79-44.46c-26.57-18.65-49.94-41.76-69.18-67.88
		c7.5-13.35,12.84-27.82,20.8-40.91c10.11-13.16,15.49-29.1,23.72-43.36c10.76-14.68,17.31-31.76,25.09-48.06
		c4.92-8.36,6.43-18.21,11.19-26.65c4.95-8.48,10.26-17.58,9.07-27.85c-0.47-9.02-2.1-19.39-9.45-25.5
		c-5.33-4.6-8.5-11.83-15.21-14.68c-4.79-0.48-10.67-1.61-14.75,1.72c-6.83,5.4-10.66,13.48-15.63,20.41
		c-2.8,3.85-6.9,6.4-10.25,9.7c-8.49,8.18-17.3,16.15-24.29,25.71c-10.96,14.69-21.82,29.45-32.85,44.1
		c-6.38,10.32-15.01,18.91-22.2,28.62c-27.88-68.69-40.77-143.07-40.29-217.09c1.82-79.34,19.55-158.79,54.96-229.99
		c20.33-40.45,46.77-78.12,79.81-109.2C859.99-349.45,900.19-372.62,944.06-383.03 M829.91,48.15c-10.96,3.55-22.2,11.15-33.98,7.1
		c-6.18-1.19-15.82-2.25-19.1,4.67c-2.54,4.5,2.4,8.24,4.47,11.79c3.41,3.94,4.53,9.11,6.45,13.8c3.25,4.55,8.75,7.07,11.61,11.96
		c3.21,5.83,5.18,12.46,9.66,17.52c3.37,3.95,8.55,5.43,13.14,7.47c1.92-4.31,4.22-8.67,4.56-13.46
		c-2.49-5.41-7.37-9.26-10.41-14.32c-1.79-4.69,2.27-9.21,6.84-8.77c11.8,1.32,22.7,6.39,34.04,9.58
		c6.94,1.48,13.74,3.52,20.41,5.94c11.45,3.73,20.38,12.26,30.45,18.49c7.1,5.11,15.8,10.83,16.85,20.3
		c-6.93-0.9-13.69-2.61-20.5-4.04c-3.79-2-7.73,0.41-9.54,3.69c-5.16,3.98-3.09,13.47,3,15.25c5.99,2.26,12.71,2.01,18.47,4.96
		c2.6-0.88,5.2-2.45,8.04-2.12c9.33,1.84,18.71,3.47,28.21,4.17c2.3-2.83,4.99-5.39,6.93-8.48c0.92-6.7,0.59-13.46,1.4-20.16
		c0.9-6.65,5.33-12.6,4.55-19.48c-0.59-6.13,0.01-12.54-1.9-18.45c-1.16-3.51-4.47-6.96-8.43-6.44c-3.88,0.67-6.91,4.05-7.45,7.91
		c-1.6,10.04-1.67,20.43-5.1,30.1c-4.61-5.07-7.67-11.36-12.45-16.25c-10.42-9.04-23.81-13.19-36.1-18.95
		c-3.86-1.58-7.6-4.34-11.98-3.82c-6.96,0.89-13.38-2.51-19.89-4.31c-6.37-1.54-12.85-2.77-18.85-5.49
		c0.84-5.3,1.01-10.75,2.15-15.98c3.94-3.89,9.69-5.33,13.57-9.32c2.28-2.54,2.79-6.17,4.18-9.14c-3.37-1.55-6.44-4.03-10.19-4.52
		C845.14,41.8,837.92,46.05,829.91,48.15 M960.02,240.02c-7.22,3.6-13.47,8.85-20.56,12.68c-8.38,5.92-19.16,6.84-27.18,13.52
		c2.6,4.42,4.99,9.8,9.82,12.14c10.64-0.03,19.54-6.63,28.11-12.08c3.81-2.15,8.1-4.62,12.65-3.73c12.05,3.05,24.34,5.84,36.82,6.11
		c8.07,0.36,14.93-3.84,22.31-6.12c14.3,1.77,21.87,17.97,36.52,19.03c2.83-5.92,9.71-11.86,5.77-18.82
		c-3.39-6.85-11.14-7.43-17.43-9.85c-7.35-2.47-13.44-7.66-20.91-9.8c-9.73-0.67-17.58,6.41-26.97,7.46
		c-7.18-0.87-14.73-1.59-21-5.49C972.39,242.24,966.67,237.16,960.02,240.02 M977.7,282.65c-3.81,1.16-8.98,1.25-10.49,5.6
		c-1.42,4.66-0.49,9.73,0.32,14.43c11.21-2.76,22.53-5.3,34.2-4.64c8.18,2.17,14.89,9.06,23.61,9.38
		c5.46,0.88,11.07-5.39,7.72-10.58c-2.57-4.93-6.08-9.72-10.67-12.9c-7.93-2.17-16.37-1.23-24.44-0.58
		C991.26,282.66,984.38,280.92,977.7,282.65 M841.04,133.03c1.98-2.63,4.07-5.16,6.2-7.66c2.71,6.37,11.69,8.92,11.32,16.58
		c0.27,9.53-1.78,19.16-5.9,27.77c-3.01,6.22-5.39,12.8-9.36,18.5c-6.41,9.28-7.62,20.96-13.91,30.32
		c-10.05,15.09-16.51,32.22-26.76,47.19c-7.18,9.42-12.89,19.93-17.03,31.03c-8.57,20.09-20.27,38.62-31.44,57.33
		c-3.36,6.59-5.87,13.65-10.71,19.41c-4.35,5.74-5.78,13.15-10,18.91c-13.18,5.52-28.27,0.96-41.71,5.38
		c-7.18,3.1-4.56,16.99,4.28,14.92c20.65,0.5,41.2-2.76,61.72-4.49c14.88,1.03,30.11,1.62,44.28,6.76
		c5.13,1.83,8.61,6.22,11.51,10.6c0.76-0.83,1.54-1.64,2.33-2.43c4.65,7.68,11.04,15.11,10.74,24.64
		c-3.52,11.35-8.78,22.12-12.85,33.3c-14.93,1.4-29.96,0.3-44.88,1.83c-7.27,0.84-14.62,0.5-21.9,1.14
		c-7.51-0.94-16.13,6.29-13.28,14.21c1.48,3.6,6.11,3.55,9.32,3.57c24.72,1.74,49.66-7.86,74.07-0.8c4.49,2.96,9.07,6.24,12.2,10.67
		c2.79,7.39-0.41,14.82-4.53,20.92c-11.18,16.54-18.79,36.74-36.66,47.49c-7.56,6.95-18.19,7.38-27.78,9.05
		c-9.62,1.08-19.47,3.23-27.72,8.5c-2.14,1.39-2,4.44-0.62,6.33c2.1,3.07,5.3,6.45,9.37,6.28c12.25-0.87,23.5-6.68,35.72-7.77
		c5.42,0.06,11.65,2.66,12.84,8.6c-0.3,6.73-3.65,12.68-5.74,18.94c-1.74,4.54-3.24,9.67-7.4,12.64
		c-6.94,5.23-13.93,11.08-22.67,12.96c-7.53,1.46-13,7.17-19.14,11.27c-6.54,4.99-14.67,8.63-18.81,16.16
		c-4.84,7.75-11.44,14.43-14.95,22.96c-7.95,20.99-18.19,41.8-34.5,57.57c-5.81,7.87-14.04,13.37-20.55,20.58
		c-8.85,8.05-18.19,15.92-29.27,20.72c-5.09,2.69-10.88,4.07-15.66,7.28c-7.1,9.19-8.67,21.06-12.43,31.75
		c-8.7,25.53-15.44,51.63-22.62,77.6c-0.06,11.61-6.83,21.21-9.52,32.14c-3.01,10.75-6.64,21.33-8.93,32.28
		c-0.72,3.75-2.21,7.32-4.05,10.66c-7.03,13.54-9.95,28.7-16.19,42.57c-2.95,9.15-6.85,18.1-7.89,27.75
		c-0.59,4.74-2.26,9.25-4.25,13.57c-2.65,5.5-3.79,11.54-5.34,17.41c-2.94,12.91-8.72,25.04-11.11,38.1
		c-6.92,25.09-14.85,49.9-24.47,74.11c-4.29,15.46-11.41,29.86-17.69,44.56c-3.51,8.17-7.4,16.23-12.44,23.6
		c-3.99,5.45-6.52,11.81-10.9,17c-5.5,8.69-12.39,16.36-18.6,24.53c-5.08,5.88-11.07,10.95-15.53,17.37
		c-7.43,9.17-13.54,19.91-23.53,26.63c-7,6.28-14.17,12.41-20.69,19.21c-3.94,4.16-8.88,7.12-13.33,10.69
		c-3.34,2.64-5.91,6.08-8.92,9.08c-13.25,10.71-25.9,22.19-39.42,32.57c-4.56,3.39-9.78,6.04-13.66,10.27
		c-8.52,10.77-19.08,19.66-29.28,28.77c-3.41,3.24-6.15,7.82-11.06,8.92c-12.48,3.06-25.94,8.2-38.57,3.03
		c-6.12-2.65-13.39-3.9-17.76-9.37c-3.96-4.7-8.73-8.78-11.93-14.07c-4.25-7.03-5.97-15.39-11.21-21.84
		c-3.69-4.39-4-10.37-5.51-15.64c-1.66-6.8-5.08-13.06-5.89-20.09c-4.68-17.31-10.62-34.58-10.47-52.73
		c-1.46-18.82-1.33-37.81-4.27-56.48c0.64-11.74,2.38-23.44,1.54-35.21c-0.34-8.77,4.08-16.6,6.8-24.67
		c6.02-21.13,13.35-42.17,25.25-60.78c4.42-9.69,8.67-19.58,15.19-28.08c5.02-6.14,7.69-13.85,13.28-19.58
		c2.93-4.55,8.49-6,11.89-10.03c4.78-5.88,10.71-10.63,15.68-16.3c6.27-8.95,13.54-17.27,22.35-23.8
		c8.8-6.67,14.02-16.56,21.16-24.77c9.67-11.93,20.5-22.84,31.56-33.46c6.61-8.43,15.02-15.61,19.64-25.44
		c7.21-13.76,17.01-26.01,27.77-37.14c15.45-19.91,28.86-41.42,46.11-59.9c5.28-5.37,11.04-10.35,15.38-16.57
		c3.81-5.44,7.73-10.88,12.71-15.34c7.78-6.7,13.38-15.42,19.43-23.62c9.6-12.08,18.56-24.65,28.63-36.34
		c8.16-9.16,11.99-21.1,16.63-32.21c3.99-9.5,5.29-19.88,9.66-29.25c5.6-16.55,14.14-31.87,20.22-48.23
		c6.83-13.41,8.08-28.57,12.81-42.68c3.8-16.12,9.4-31.71,13.81-47.65c3.14-10.26,7.12-20.33,8.88-30.96
		c1.85-12.22,6.32-23.8,9.67-35.64c3.59-11.44,5.2-23.4,8.96-34.78c6.05-16.24,11.37-32.77,18.49-48.57
		c11.98-18.99,23.34-38.64,38.48-55.36c5.88-6.95,9.5-15.59,16.11-21.93c5.94-5.81,10.4-12.89,16-18.99
		c19.68-28.21,43.34-53.3,64.5-80.36c6.53-10.82,14.94-20.4,23.76-29.41c6.69-7.75,12.31-16.38,18.64-24.42
		c6.34-7.43,11.03-16.07,17.32-23.56c9.33-14.05,19.07-28,31.74-39.3C822.49,151.83,833.12,143.69,841.04,133.03 M757.18,389.32
		c4.12-14.67,13.61-27.02,20.25-40.57c10.29,13.32,22,25.43,33.93,37.28c-5.4,4.33-10.33,11.83-18.06,10.58
		c-6.14-0.96-11.91-3.83-18.16-4.27C769.06,391.96,762.9,391.56,757.18,389.32 M844.68,452.86c9.51,0.27,18.77,4.09,25.24,11.09
		c2.2,6.16,3.33,14.74-2.44,19.51c-6.67,6.32-13.13,15.95-23.47,15.57c-4.77-0.62-7.49-5.35-10.7-8.36
		c-2.42-2.35-2.51-5.94-1.47-8.94C835.2,471.72,840.95,462.72,844.68,452.86 M532.41,526.55c5.24-2.46,10.63-4.6,15.66-7.47
		c-4.31,14.9-8.8,29.76-13.62,44.52c-4.44,12.1-7.38,24.7-9.66,37.38c-1.96,9.82-6.7,18.78-9.4,28.38
		c-4.57,15.11-7.24,30.69-11.22,45.94c-6.04,16.77-13.43,33.02-20.65,49.3c-8.93,19.59-13.71,40.75-22.63,60.35
		c-3.57,7.65-9.97,13.32-14.97,19.98c-9.47,12.23-18.79,24.57-28.11,36.92c-6.92,9.31-16.23,16.53-22.83,26.1
		c-4.45,7.05-10.38,12.97-16.79,18.24c-6.79,5.36-10.72,13.26-16.23,19.78c-7.26,8.58-12.68,18.51-19.87,27.15
		c-5.07,5.96-9.02,12.83-14.62,18.34c-4.98,5.08-9.8,10.4-13.41,16.57c-10.21,16.91-22.71,32.4-36.57,46.45
		c-5.58,5.83-9.38,13.18-15.79,18.25c-7.65,6.52-12.15,15.72-19.03,22.94c-9.44,8.89-18.46,18.21-27.63,27.38
		c-5.03,5.91-8.95,13.06-16.47,16.31c2.79-8.73,7.56-16.67,10.45-25.36c2.26-6.84,6.47-12.77,9.64-19.17
		c4.31-8.41,7.38-17.37,11.29-25.94c2.59-5.76,6.99-10.33,10.24-15.66c3.89-6.55,3.44-14.54,6.4-21.44
		c2.42-7.17,7.57-13.03,9.82-20.26c2.11-8.7,8.36-15.44,11.6-23.63c5.14-15.59,12.8-30.18,19.82-44.97
		c2.88-6.47,7.07-12.32,9.02-19.2c11.13-25.49,22.69-50.83,32.16-76.99c6.76-6.86,9.86-16.12,13.97-24.62
		c3.76-8.77,8.97-16.84,12.71-25.61c5-11.65,10.94-22.85,16.34-34.3c2.12-5.11,4.47-10.12,7.22-14.92
		c6.9-13.01,11.82-26.99,18.9-39.91c6.81-13.59,15.95-25.85,22.92-39.35c3.72-7.36,9.11-13.69,13.22-20.81
		c5.54-9.44,12.57-17.93,20.31-25.63c5.41-5.87,9.16-13.58,16.51-17.39c7.51-4.45,13.89-10.58,21.76-14.45
		c8.86-5.38,18.57-9.15,27.48-14.41C524.65,532.79,527.81,528.63,532.41,526.55L532.41,526.55z"/>
	<path d="M887.99-381.02c32.6-15.74,68.82-23.52,105.01-23.06c67.15-1.03,131.77,30.54,178.77,77.31
		c52.47,49.77,87.88,115.18,109.27,183.76c21.64,69.97,28.22,144.05,23.76,216.98c-4.49,62.49-18.61,124.56-43.95,181.96
		c-20.7,47.24-49.39,91.43-86.63,127.33c-0.99,1.2-2.64,2.58-1.71,4.3c4.9,14.23,15.35,25.84,27.34,34.62
		c19.15,14.14,41.74,22.18,63.51,31.3c13.3,5.5,27.79,7.84,40.59,14.64c14.57,7.89,31.29,10.45,46.01,17.98
		c13.64,6.97,27.61,13.3,42.34,17.66c11.22,2.84,20.96,9.21,31.53,13.65c5.56,2.25,10,6.44,15.44,8.96
		c12.83,4.96,26.13,9.57,37.11,18.12c9.06,5.75,17.44,12.51,24.68,20.46c4.19,4.81,10.47,7.37,14.25,12.59
		c8.52,14.95,17.98,29.36,25.31,44.98c7.51,12.74,13.15,26.41,18.55,40.14c4.61,13.42,12.92,25.34,16.05,39.32
		c3.46,13.21,9.26,25.6,14.45,38.18c4.25,15.64,10.06,30.76,14.7,46.29c3.46,15.94,12.22,29.99,18.3,44.98
		c1.83,9.82,3.97,19.7,7.81,28.98c4.54,11.32,6.98,23.32,11.26,34.74c4.64,16.69,11.4,32.68,15.95,49.41
		c5.58,13.7,8.23,28.41,14.22,41.98c1.58,4.19,1.36,8.78,2.7,13.05c2.6,6.06,5.24,12.13,7.71,18.27
		c6.19,13.24,6.76,28.38,13.19,41.55c2.63,5.17,4.22,10.73,6.24,16.16c5.67,10.24,6.27,22.18,10.53,32.97
		c4.37,10.33,6.2,21.43,9.91,31.99c3.78,13.26,5.69,27.16,11.49,39.79c8.48,18.61,13.56,38.54,18.45,58.33
		c1.83,10.22,5.06,20.25,5.77,30.67c2.52,15.08,5.49,30.14,9.71,44.85c3.34,14.38,9.22,28.07,11.73,42.68
		c4.39,24.3,8.88,48.59,11.9,73.12c-6.6-0.02-13.17-0.03-19.72-0.01c0.6-8.52-2.14-16.78-3.35-25.11
		c-1.46-7.89-2.21-15.88-3.68-23.76c-4.24-19.23-4.92-39.42-12.81-57.71c-5.27-12.73-6.29-26.45-9.55-39.67
		c-3.19-9.17-2.7-19.11-5.36-28.42c-2.81-9.99-3.56-20.4-6.47-30.36c-3.53-13.35-6.24-26.97-11.58-39.76
		c-3.81-9.5-6.07-19.54-9.87-29.03c-3.95-17.23-11.42-33.44-14.39-50.93c-4.86-14.44-10.24-28.71-14.61-43.31
		c-7.02-15.59-9.87-32.54-16.5-48.25c-3.08-7.34-3.91-15.43-7.61-22.51c-2.16-4.06-4.06-8.27-5.23-12.71
		c-4.74-20.46-12.69-39.97-20.1-59.55c-8.23-28.72-19.07-56.69-25.72-85.86c-1.1-3.76-4.37-6.35-5.76-9.98
		c-4.32-10.06-6.85-20.79-11.13-30.86c-6.01-13.84-9.51-28.6-15.57-42.4c-2.83-6.3-3.93-13.2-6.73-19.5
		c-7.52-17.09-11.5-35.51-19.33-52.47c-5.74-12.29-11.75-24.44-16.96-36.96c-6.33-11.98-11.79-24.45-19.24-35.8
		c-3.42-6.09-9.1-10.56-12.12-16.92c-4.17-8.52-12.41-13.61-19.08-19.96c-9.3-9.37-21.34-15.08-33.04-20.81
		c-21.08-10.27-41.68-21.83-63.99-29.23c-9.14-3.46-18.21-7.13-27.21-10.91c-7.33-3.11-13.78-8.08-21.53-10.2
		c-11.41-3.57-22.71-7.53-33.54-12.6c-11.75-5.64-24.52-8.64-36.65-13.26c-27.31-11.52-56.33-21.15-79.16-40.79
		c-11.41-8.18-19.43-20.38-25.34-32.91c-6.31,5.04-12.11,10.72-18.92,15.12c-8.5,6.25-16.54,13.33-26.23,17.74
		c-71.02,42.37-164.89,44.44-236.9,3.3c-11.68-4.99-21.18-13.53-32.15-19.71c-6.74-5.68-13.46-11.42-19.68-17.67
		c-1.82,2.26-3.61,4.55-5.36,6.86c5.17,4.43,9.79,9.45,14.67,14.2c4.25,4.27,5.36,10.54,8.6,15.47c3.76,2.19,8.36,2.1,12.39,3.69
		c9.04,3.46,18.23,7.05,26.16,12.7c6.85,7.07,7.37,17.57,8.01,26.89c1.49,7.61-3.49,13.87-6.79,20.15
		c-3.72,6.64-10.77,10.12-17.09,13.83c-5.57,3.16-11.3,6.03-17.18,8.58c-0.73,6.2-1.95,12.44-5.39,17.79
		c-10.82,17.55-20.25,36.37-34.81,51.25c-4.42,4.48-2.15,11.27-2.56,16.76c0.55,13.97-6.68,26.37-9.09,39.82
		c-1.51,7.81-9.62,10.14-14.86,14.9c-6.72,6.23-14.81,10.99-23.53,13.8c-7.39,2.83-14,7.51-19.81,12.81
		c-4.63,5.44-8.33,11.61-13.21,16.85c-11.41,11.14-9.47,29.45-19.37,41.58c-5.67,7.11-6.8,17.06-13.93,23.11
		c-5.59,4.74-12.05,8.59-16.06,14.96c-7.26,10.04-17.34,17.34-26.5,25.48c-4.72,5.09-10.79,8.55-16.19,12.82
		c-6.25,5.83-14.74,8.07-22.26,11.74c-2.7,16.88-8.56,33.03-15.31,48.66c-3.68,9.29-3.82,19.53-7.12,28.94
		c-3.41,9.85-5.82,20-7.72,30.25c-1.63,9.4-6.36,17.81-9.17,26.85c-4.91,14.25-7.22,29.4-14.07,42.97
		c-5.85,11.11-7.06,23.93-12.4,35.27c-5.93,11.45-5.42,24.81-10.87,36.41c-7.43,16.78-9.16,35.33-15.52,52.47
		c-4.66,16.67-10.69,32.91-15.55,49.53c-7.76,25.42-18.81,49.65-27.8,74.64c-7.54,12.79-13.16,26.66-21.42,39.05
		c-6.37,9.21-13.27,18.05-20.08,26.94c-5.23,7.98-13.31,13.52-18.5,21.54c-6.47,8.15-11.95,17.17-19.74,24.2
		c-5.98,5.35-11.23,11.51-17.89,16.08c-4.23,3.05-7.96,6.71-11.6,10.43c-5.27,5.48-12.46,8.75-17.28,14.71
		c-8.28,10.16-19.59,17.06-29.44,25.52c-7.1,5.23-13.03,11.91-20.7,16.42c-6.34,4.21-10.31,10.96-16.23,15.68
		c-7.84,6.17-13.68,14.73-22.62,19.49c-17.18,12.28-38.84,19.28-59.99,16.4c-9.26-3.73-20.59-4.62-27.78-12.19
		c-9.98-11.14-17.04-24.43-23.73-37.68c-2.2-6.32-2.59-13.41-6.52-19.01c-3.45-4.37-3.96-9.89-4.82-15.15
		c-0.74-5.17-4.2-9.45-4.83-14.63c-2.04-14.44-6.37-28.4-8.9-42.74c-2.33-16.76-3.75-33.64-4.35-50.54
		c-3.29-16.7-2.14-33.76-1.69-50.64c1.36-11.92,1.63-24.18,5.91-35.52c8.7-23.92,18.38-47.47,28.07-71c1.67-4.12,4.36-7.71,6-11.82
		c6.58-20.58,19.51-38.27,28.48-57.77c4.36-7.49,6.41-15.98,10.2-23.72c2.6-5.65,5.37-11.19,8.4-16.6c5.32-9.48,8.44-20,13.67-29.51
		c2.03-3.85,4.2-7.66,5.84-11.69c4.04-14.48,13.24-26.68,19.69-40.04c0.91-6.59,3.89-12.5,6.86-18.35
		c1.6-6.35,6.08-11.55,7.03-18.07c0.45-2.24,1.78-4.38,2.95-6.22c6.64-10.2,9.35-22.29,15.23-32.88c3.69-6.16,5.81-13.03,8.51-19.61
		c6.51-13.04,11.1-26.94,18.04-39.78c3.68-8.18,6.22-16.84,9.12-25.29c5.12-7.11,8.64-15.19,13.05-22.72
		c3.32-5,6.54-10.18,8.03-16.06c3.76-11.49,10.48-21.69,14.54-33.05c6.02-16.69,16.28-31.38,23.03-47.72
		c3.61-14.02,13.54-25.06,19.55-37.99c5.46-9.29,9.72-19.22,15.56-28.28c5.18-8.48,11.66-16.11,16.38-24.87
		c5.71-10.25,14.61-18.21,20.74-28.17c4.1-6.44,12.03-8.44,17.43-13.46c8.76-7.9,19.31-13.29,28.94-19.97
		c7.39-4.27,15.97-6.21,22.99-11.17c4.87-3.06,8.5-7.92,14.15-9.73c8.44-3.36,15.2-9.6,23.09-13.94c2.19-1.34,4.8-2.64,5.73-5.23
		c4.11-10.98,6.56-22.53,10.74-33.48c5-9.56,11.47-18.34,15.88-28.22c2.12-4.57,6.65-7.2,9.48-11.24
		c5.5-7.82,10.35-16.15,16.73-23.31c6.45-7.37,12.34-15.24,17.47-23.58c7.31-10.5,17.24-18.9,24.29-29.61
		c5.8-9.34,13.64-17.1,20.22-25.84c5.9-6.21,10.49-13.46,16.13-19.87c11.24-11.01,18.55-25.22,29.18-36.78
		c2.48-3.39,7.41-7.13,4.88-11.79C690.77,181.92,678,109.78,676.97,38c-1.59-78.97,12.35-158.68,43.61-231.37
		c20.58-47.94,49.24-92.84,86.63-129.42C830.46-346.69,857.82-366.75,887.99-381.02 M944.06-383.03
		c-43.87,10.41-84.07,33.58-117.26,63.83c-33.04,31.08-59.48,68.75-79.81,109.2c-35.41,71.2-53.14,150.65-54.96,229.99
		c-0.48,74.02,12.41,148.4,40.29,217.09c7.19-9.71,15.82-18.3,22.2-28.62c11.03-14.65,21.89-29.41,32.85-44.1
		c6.99-9.56,15.8-17.53,24.29-25.71c3.35-3.3,7.45-5.85,10.25-9.7c4.97-6.93,8.8-15.01,15.63-20.41c4.08-3.33,9.96-2.2,14.75-1.72
		c6.71,2.85,9.88,10.08,15.21,14.68c7.35,6.11,8.98,16.48,9.45,25.5c1.19,10.27-4.12,19.37-9.07,27.85
		c-4.76,8.44-6.27,18.29-11.19,26.65c-7.78,16.3-14.33,33.38-25.09,48.06c-8.23,14.26-13.61,30.2-23.72,43.36
		c-7.96,13.09-13.3,27.56-20.8,40.91c19.24,26.12,42.61,49.23,69.18,67.88c45.67,32.17,102.57,51.91,158.79,44.46
		c40.79-4.77,79.59-21.57,112.95-45.21c43-30.38,76.01-73.05,101.15-118.9c30.75-56.76,49.28-119.69,57.45-183.59
		c9.41-72.55,3.03-146.79-15.83-217.34c-15.67-56.28-40.19-110.56-75.78-157.13c-40.52-54.61-100.04-96.91-167.56-109.48
		C999.89-391.08,971.34-389.15,944.06-383.03 M841.04,133.03c-7.92,10.66-18.55,18.8-27.24,28.78
		c-12.67,11.3-22.41,25.25-31.74,39.3c-6.29,7.49-10.98,16.13-17.32,23.56c-6.33,8.04-11.95,16.67-18.64,24.42
		c-8.82,9.01-17.23,18.59-23.76,29.41c-21.16,27.06-44.82,52.15-64.5,80.36c-5.6,6.1-10.06,13.18-16,18.99
		c-6.61,6.34-10.23,14.98-16.11,21.93c-15.14,16.72-26.5,36.37-38.48,55.36c-7.12,15.8-12.44,32.33-18.49,48.57
		c-3.76,11.38-5.37,23.34-8.96,34.78c-3.35,11.84-7.82,23.42-9.67,35.64c-1.76,10.63-5.74,20.7-8.88,30.96
		c-4.41,15.94-10.01,31.53-13.81,47.65c-4.73,14.11-5.98,29.27-12.81,42.68c-6.08,16.36-14.62,31.68-20.22,48.23
		c-4.37,9.37-5.67,19.75-9.66,29.25c-4.64,11.11-8.47,23.05-16.63,32.21c-10.07,11.69-19.03,24.26-28.63,36.34
		c-6.05,8.2-11.65,16.92-19.43,23.62c-4.98,4.46-8.9,9.9-12.71,15.34c-4.34,6.22-10.1,11.2-15.38,16.57
		c-17.25,18.48-30.66,39.99-46.11,59.9c-10.76,11.13-20.56,23.38-27.77,37.14c-4.62,9.83-13.03,17.01-19.64,25.44
		c-11.06,10.62-21.89,21.53-31.56,33.46c-7.14,8.21-12.36,18.1-21.16,24.77c-8.81,6.53-16.08,14.85-22.35,23.8
		c-4.97,5.67-10.9,10.42-15.68,16.3c-3.4,4.03-8.96,5.48-11.89,10.03c-5.59,5.73-8.26,13.44-13.28,19.58
		c-6.52,8.5-10.77,18.39-15.19,28.08c-11.9,18.61-19.23,39.65-25.25,60.78c-2.72,8.07-7.14,15.9-6.8,24.67
		c0.84,11.77-0.9,23.47-1.54,35.21c2.94,18.67,2.81,37.66,4.27,56.48c-0.15,18.15,5.79,35.42,10.47,52.73
		c0.81,7.03,4.23,13.29,5.89,20.09c1.51,5.27,1.82,11.25,5.51,15.64c5.24,6.45,6.96,14.81,11.21,21.84
		c3.2,5.29,7.97,9.37,11.93,14.07c4.37,5.47,11.64,6.72,17.76,9.37c12.63,5.17,26.09,0.03,38.57-3.03c4.91-1.1,7.65-5.68,11.06-8.92
		c10.2-9.11,20.76-18,29.28-28.77c3.88-4.23,9.1-6.88,13.66-10.27c13.52-10.38,26.17-21.86,39.42-32.57c3.01-3,5.58-6.44,8.92-9.08
		c4.45-3.57,9.39-6.53,13.33-10.69c6.52-6.8,13.69-12.93,20.69-19.21c9.99-6.72,16.1-17.46,23.53-26.63
		c4.46-6.42,10.45-11.49,15.53-17.37c6.21-8.17,13.1-15.84,18.6-24.53c4.38-5.19,6.91-11.55,10.9-17
		c5.04-7.37,8.93-15.43,12.44-23.6c6.28-14.7,13.4-29.1,17.69-44.56c9.62-24.21,17.55-49.02,24.47-74.11
		c2.39-13.06,8.17-25.19,11.11-38.1c1.55-5.87,2.69-11.91,5.34-17.41c1.99-4.32,3.66-8.83,4.25-13.57
		c1.04-9.65,4.94-18.6,7.89-27.75c6.24-13.87,9.16-29.03,16.19-42.57c1.84-3.34,3.33-6.91,4.05-10.66
		c2.29-10.95,5.92-21.53,8.93-32.28c2.69-10.93,9.46-20.53,9.52-32.14c7.18-25.97,13.92-52.07,22.62-77.6
		c3.76-10.69,5.33-22.56,12.43-31.75c4.78-3.21,10.57-4.59,15.66-7.28c11.08-4.8,20.42-12.67,29.27-20.72
		c6.51-7.21,14.74-12.71,20.55-20.58c16.31-15.77,26.55-36.58,34.5-57.57c3.51-8.53,10.11-15.21,14.95-22.96
		c4.14-7.53,12.27-11.17,18.81-16.16c6.14-4.1,11.61-9.81,19.14-11.27c8.74-1.88,15.73-7.73,22.67-12.96
		c4.16-2.97,5.66-8.1,7.4-12.64c2.09-6.26,5.44-12.21,5.74-18.94c-1.19-5.94-7.42-8.54-12.84-8.6c-12.22,1.09-23.47,6.9-35.72,7.77
		c-4.07,0.17-7.27-3.21-9.37-6.28c-1.38-1.89-1.52-4.94,0.62-6.33c8.25-5.27,18.1-7.42,27.72-8.5c9.59-1.67,20.22-2.1,27.78-9.05
		c17.87-10.75,25.48-30.95,36.66-47.49c4.12-6.1,7.32-13.53,4.53-20.92c-3.13-4.43-7.71-7.71-12.2-10.67
		c-24.41-7.06-49.35,2.54-74.07,0.8c-3.21-0.02-7.84,0.03-9.32-3.57c-2.85-7.92,5.77-15.15,13.28-14.21
		c7.28-0.64,14.63-0.3,21.9-1.14c14.92-1.53,29.95-0.43,44.88-1.83c4.07-11.18,9.33-21.95,12.85-33.3
		c0.3-9.53-6.09-16.96-10.74-24.64c-0.79,0.79-1.57,1.6-2.33,2.43c-2.9-4.38-6.38-8.77-11.51-10.6c-14.17-5.14-29.4-5.73-44.28-6.76
		c-20.52,1.73-41.07,4.99-61.72,4.49c-8.84,2.07-11.46-11.82-4.28-14.92c13.44-4.42,28.53,0.14,41.71-5.38
		c4.22-5.76,5.65-13.17,10-18.91c4.84-5.76,7.35-12.82,10.71-19.41c11.17-18.71,22.87-37.24,31.44-57.33
		c4.14-11.1,9.85-21.61,17.03-31.03c10.25-14.97,16.71-32.1,26.76-47.19c6.29-9.36,7.5-21.04,13.91-30.32
		c3.97-5.7,6.35-12.28,9.36-18.5c4.12-8.61,6.17-18.24,5.9-27.77c0.37-7.66-8.61-10.21-11.32-16.58
		C845.11,127.87,843.02,130.4,841.04,133.03 M757.18,389.32c5.72,2.24,11.88,2.64,17.96,3.02c6.25,0.44,12.02,3.31,18.16,4.27
		c7.73,1.25,12.66-6.25,18.06-10.58c-11.93-11.85-23.64-23.96-33.93-37.28C770.79,362.3,761.3,374.65,757.18,389.32 M844.68,452.86
		c-3.73,9.86-9.48,18.86-12.84,28.87c-1.04,3-0.95,6.59,1.47,8.94c3.21,3.01,5.93,7.74,10.7,8.36c10.34,0.38,16.8-9.25,23.47-15.57
		c5.77-4.77,4.64-13.35,2.44-19.51C863.45,456.95,854.19,453.13,844.68,452.86 M532.41,526.55c-4.6,2.08-7.76,6.24-12.06,8.79
		c-8.91,5.26-18.62,9.03-27.48,14.41c-7.87,3.87-14.25,10-21.76,14.45c-7.35,3.81-11.1,11.52-16.51,17.39
		c-7.74,7.7-14.77,16.19-20.31,25.63c-4.11,7.12-9.5,13.45-13.22,20.81c-6.97,13.5-16.11,25.76-22.92,39.35
		c-7.08,12.92-12,26.9-18.9,39.91c-2.75,4.8-5.1,9.81-7.22,14.92c-5.4,11.45-11.34,22.65-16.34,34.3
		c-3.74,8.77-8.95,16.84-12.71,25.61c-4.11,8.5-7.21,17.76-13.97,24.62c-9.47,26.16-21.03,51.5-32.16,76.99
		c-1.95,6.88-6.14,12.73-9.02,19.2c-7.02,14.79-14.68,29.38-19.82,44.97c-3.24,8.19-9.49,14.93-11.6,23.63
		c-2.25,7.23-7.4,13.09-9.82,20.26c-2.96,6.9-2.51,14.89-6.4,21.44c-3.25,5.33-7.65,9.9-10.24,15.66
		c-3.91,8.57-6.98,17.53-11.29,25.94c-3.17,6.4-7.38,12.33-9.64,19.17c-2.89,8.69-7.66,16.63-10.45,25.36
		c7.52-3.25,11.44-10.4,16.47-16.31c9.17-9.17,18.19-18.49,27.63-27.38c6.88-7.22,11.38-16.42,19.03-22.94
		c6.41-5.07,10.21-12.42,15.79-18.25c13.86-14.05,26.36-29.54,36.57-46.45c3.61-6.17,8.43-11.49,13.41-16.57
		c5.6-5.51,9.55-12.38,14.62-18.34c7.19-8.64,12.61-18.57,19.87-27.15c5.51-6.52,9.44-14.42,16.23-19.78
		c6.41-5.27,12.34-11.19,16.79-18.24c6.6-9.57,15.91-16.79,22.83-26.1c9.32-12.35,18.64-24.69,28.11-36.92
		c5-6.66,11.4-12.33,14.97-19.98c8.92-19.6,13.7-40.76,22.63-60.35c7.22-16.28,14.61-32.53,20.65-49.3
		c3.98-15.25,6.65-30.83,11.22-45.94c2.7-9.6,7.44-18.56,9.4-28.38c2.28-12.68,5.22-25.28,9.66-37.38
		c4.82-14.76,9.31-29.62,13.62-44.52C543.04,521.95,537.65,524.09,532.41,526.55 M829.91,48.15c8.01-2.1,15.23-6.35,23.11-8.8
		c3.75,0.49,6.82,2.97,10.19,4.52c-1.39,2.97-1.9,6.6-4.18,9.14c-3.88,3.99-9.63,5.43-13.57,9.32c-1.14,5.23-1.31,10.68-2.15,15.98
		c6,2.72,12.48,3.95,18.85,5.49c6.51,1.8,12.93,5.2,19.89,4.31c4.38-0.52,8.12,2.24,11.98,3.82c12.29,5.76,25.68,9.91,36.1,18.95
		c4.78,4.89,7.84,11.18,12.45,16.25c3.43-9.67,3.5-20.06,5.1-30.1c0.54-3.86,3.57-7.24,7.45-7.91c3.96-0.52,7.27,2.93,8.43,6.44
		c1.91,5.91,1.31,12.32,1.9,18.45c0.78,6.88-3.65,12.83-4.55,19.48c-0.81,6.7-0.48,13.46-1.4,20.16c-1.94,3.09-4.63,5.65-6.93,8.48
		c-9.5-0.7-18.88-2.33-28.21-4.17c-2.84-0.33-5.44,1.24-8.04,2.12c-5.76-2.95-12.48-2.7-18.47-4.96c-6.09-1.78-8.16-11.27-3-15.25
		c1.81-3.28,5.75-5.69,9.54-3.69c6.81,1.43,13.57,3.14,20.5,4.04c-1.05-9.47-9.75-15.19-16.85-20.3
		c-10.07-6.23-19-14.76-30.45-18.49c-6.67-2.42-13.47-4.46-20.41-5.94c-11.34-3.19-22.24-8.26-34.04-9.58
		c-4.57-0.44-8.63,4.08-6.84,8.77c3.04,5.06,7.92,8.91,10.41,14.32c-0.34,4.79-2.64,9.15-4.56,13.46
		c-4.59-2.04-9.77-3.52-13.14-7.47c-4.48-5.06-6.45-11.69-9.66-17.52c-2.86-4.89-8.36-7.41-11.61-11.96
		c-1.92-4.69-3.04-9.86-6.45-13.8c-2.07-3.55-7.01-7.29-4.47-11.79c3.28-6.92,12.92-5.86,19.1-4.67
		C807.71,59.3,818.95,51.7,829.91,48.15 M960.02,240.02c6.65-2.86,12.37,2.22,17.95,5.05c6.27,3.9,13.82,4.62,21,5.49
		c9.39-1.05,17.24-8.13,26.97-7.46c7.47,2.14,13.56,7.33,20.91,9.8c6.29,2.42,14.04,3,17.43,9.85c3.94,6.96-2.94,12.9-5.77,18.82
		c-14.65-1.06-22.22-17.26-36.52-19.03c-7.38,2.28-14.24,6.48-22.31,6.12c-12.48-0.27-24.77-3.06-36.82-6.11
		c-4.55-0.89-8.84,1.58-12.65,3.73c-8.57,5.45-17.47,12.05-28.11,12.08c-4.83-2.34-7.22-7.72-9.82-12.14
		c8.02-6.68,18.8-7.6,27.18-13.52C946.55,248.87,952.8,243.62,960.02,240.02 M977.7,282.65c6.68-1.73,13.56,0.01,20.25,0.71
		c8.07-0.65,16.51-1.59,24.44,0.58c4.59,3.18,8.1,7.97,10.67,12.9c3.35,5.19-2.26,11.46-7.72,10.58
		c-8.72-0.32-15.43-7.21-23.61-9.38c-11.67-0.66-22.99,1.88-34.2,4.64c-0.81-4.7-1.74-9.77-0.32-14.43
		C968.72,283.9,973.89,283.81,977.7,282.65L977.7,282.65z"/>
</g>
</svg>
