<?xml version="1.0" encoding="iso-8859-1"?>
<!-- Generator: Adobe Illustrator 28.5.0, SVG Export Plug-In . SVG Version: 9.03 Build 54727)  -->
<svg version="1.1" id="Layer_1" xmlns="http://www.w3.org/2000/svg" xmlns:xlink="http://www.w3.org/1999/xlink" x="0px" y="0px"
	 viewBox="0 0 1920 1080" style="enable-background:new 0 0 1920 1080;" xml:space="preserve">
<g>
	<path style="fill:#FFFFFF;" d="M-880-550h3680v2181H-880V-550 M1748.98-499.04c-39.63,18.84-73.18,48.4-101.42,81.62
		c-30.53,36.18-53.91,77.99-70.93,122.07c-35.94,92.51-44.26,194.44-30.69,292.37c11.72,83.81,42.13,166.33,94.82,233.23
		c12.25,14.81,24.64,29.99,40.3,41.38c-2.82,4.33-4.89,9.17-8.41,13.02c-11.18,13.75-27.47,22.07-43.58,28.63
		c-10.89,5.95-23.65,6.64-35.08,11.2c-15.88,6.37-33.28,7.02-49.49,12.19c-13.43,6.14-28.11,8.55-42.45,11.5
		c-16.52,5.29-32.49,12.67-49.77,15.31c-11.93,1.86-22.92,6.95-34.41,10.36c-6.13,1.5-11.02,5.79-17.01,7.62
		c-9.37,1.97-18.3,5.54-27.5,8.09c-12.94,7.07-26.58,13.27-37.69,23.17c-4.98,4.85-12.45,6.51-16.48,12.42
		c-6.34,8.94-13.64,17.17-19.95,26.12c-7.49,12.39-16.5,23.79-23.42,36.53c-6.97,12.67-13.55,25.55-21.21,37.83
		c-4.7,7.38-8.26,15.36-11.25,23.56c-4.65,13.28-14.09,24.18-18.76,37.47c-5.41,15.07-14,28.76-18.89,44.05
		c-2.04,5.9-6.61,10.41-9.05,16.11c-3.24,6.45-7.16,12.51-10.74,18.74c-4.29,16.47-13.3,31.11-19.44,46.87
		c-3.76,9.5-9.01,18.35-12.16,28.11c-5.62,10.69-10.78,21.61-14.94,32.97c-2.3,6.06-7.41,10.75-8.16,17.45
		c-3.38,7.72-6.5,15.65-11.01,22.81c-1.67,3.9-1.43,8.39-3.45,12.18c-5.12,8.02-8.87,16.81-13.77,24.96
		c-5.13,11.14-7.58,23.5-14.21,33.95c-4.63,7.66-8.3,15.84-12.61,23.67c-2.6,9.36-6.91,18.09-10.9,26.91
		c-2.3,4.9-5.62,9.36-6.53,14.84c-1.89,7.62-6.47,14.2-8.79,21.66c-1.27,4.49-3.09,8.81-4.5,13.26c-2.62,8.6-7.93,16.02-12.27,23.8
		c-7.05,13.11-10.98,27.54-17.3,40.97c-3.4,9.31-5.5,19.06-9.41,28.21c-1.91,10.31-5.44,20.21-8.79,30.13
		c-4.02,15.59-10.82,30.24-17.25,44.96c-3.38,8.25-6.89,16.63-8.04,25.54c-0.85,6-4.15,11.22-5.71,17.02
		c-2.88,10.42-6.21,20.73-8.55,31.31c-3.72,13.31-4.29,27.21-5.9,40.88c-0.32,2.96-1.77,5.88-1.11,8.9
		c0.93,2.87,2.68,5.46,4.23,8.12c-6.31,5.8-3.19,14.55-2.54,21.92c1.75,5.34-1.49,10.8,0.33,16.1c1.18,3.62,2.16,7.31,2.91,11.05
		c1.31,6.6,6.54,11.23,10.66,16.18c3.65,4.21,6.55,9.72,12.2,11.55c10.98,3.53,20.93,10.09,32.5,11.75
		c10.99,2.61,22.23,4.37,33.06,7.61c11.36,6.11,24.51,6.81,36.84,9.86c8.22,0.77,16.5,0.98,24.65,2.58
		c10.05,1.84,20.32,0.24,30.41,1.68c6.37,0.24,13.06,2.48,19.37,0.36c10.81-2.91,19.04-10.8,28.37-16.52
		c10.63-7.43,22.65-12.95,32.2-21.84c6.57-6.07,14.82-9.78,21.94-15.09c6.79-5.81,12.44-12.97,19.83-18.08
		c9.78-6.11,20.09-11.61,28.74-19.33c8.41-7.77,18.62-13.22,27.26-20.71c4.71-4.28,10.64-6.71,16.12-9.79
		c10.95-5.23,21.17-12.29,33.12-15.12c6.92-1.5,13.63-3.81,20.38-5.91c8.56-2.82,14.05,6.62,21.11,9.76
		c16.38,6.45,32.87,12.77,49.86,17.5c7.35,2.04,15.32,1.13,22.32,4.47c3.32,1.38,6.53,3.22,10.12,3.93
		c6.81,1.72,13.76-0.49,20.64-0.57c5.33-0.19,10.74,1.89,15.99,0.05c9.01-1.67,17.87-4.66,27.03-5.34
		c8.15,1.3,16.23,3.28,24.57,3.37c9.38,0.12,17.03,5.91,24.71,10.54c7.04,6.67,15.89,10.97,24.83,14.52
		c6.25,2.78,13.15,6.66,20.25,4.7c6.45-2.17,12.95-4.33,19.69-5.46c8.24-1.22,15.71-5.28,22.93-9.19c3.42-2.15,6.95-5.58,11.37-4.37
		c19.35,5.07,39.59,3.44,59.36,4.31c7.23,0.72,14.47-1.02,20.5-5.13c8.32,7.24,18.75,11.27,27.93,17.25
		c-1.69,3.55-3.98,7.17-3.74,11.25c1.43,7.96,2.69,16.46,7.82,23.09c3.67,5.58,11.18,6.24,16.82,8.89
		c-4.33,7.99-12.04,13.35-17.44,20.55c-8.49,10.8-18.04,20.74-26.03,31.92c-5.83,7.34-6.75,17-9.12,25.76
		c-1.63,6.3,1.9,12.24,5.21,17.31c2.26,3.31,3.87,7.41,7.09,10.02c6.53,2.73,14.6-0.31,20.63,3.75c-1.39,7.28-8.71,12.49-7.78,20.42
		c-0.82,5.63,2.32,10.56,4.1,15.67c1.2,8.11,9.33,11.61,14.82,16.38c6.57,1.74,14,1.85,20.3-1.1c8.86-4.02,18.11-7.27,27.78-8.67
		c5.63,8.59,14.49,15.39,24.95,16.47c18.03,0.24,34.56-8.29,49.35-17.78c7.16-5.15,15.3-8.92,21.58-15.26
		c6.55-6.32,15.82-8.48,22.73-14.29c3.88-3.67,8.34-6.57,13-9.15c15.04-12.2,30.04-24.46,45.08-36.68
		c6.47-4.05,10.9-10.46,17.09-14.86c4.74-2.68,10.42-3.03,15.07-5.93c8.61-4.76,17.4-9.29,26.66-12.69
		c-0.5,12.76-2.12,25.42-3.67,38.1c-2.16,11.72-1.23,24.04,2.78,35.3c2.35,5.26,7.5,8.62,9.95,13.88c2.73,6.4,9.74,8.95,15.83,11.12
		c5.41,1.32,10.57,4.09,16.19,4.64c8.59-2.27,16.27-7.32,23.61-12.16c5.25-7.36,5.08-17.11,7.47-25.51
		c1.33-5.19-0.27-10.2-1.18-15.23c-0.24-15.16,8.81-28.04,12.52-42.3c4.61-17.35,15.66-31.84,23.44-47.77
		c4.7-8.76,10.1-17.16,16.57-24.72c9.82,2.15,14.48,12,22.78,16.68c9.52,5.22,17.36,12.98,26.77,18.41
		c9.63,5.73,16.97,14.47,26.26,20.69c9.65,6.55,18.96,13.57,28.56,20.22c7.18,4.43,14.75,8.42,21,14.21
		c10.88,9.56,25.43,13.16,36.47,22.5c9.06,7.14,18.68,13.5,28.62,19.36c13.77,7.38,24.04,19.89,38.32,26.5
		c9.73,3.94,17.84,10.67,26.04,17.08c10.55,6.48,20.57,13.79,31.59,19.51c9.52,5,17.65,12.77,28.24,15.65
		c10.68,2.63,19.23,10.13,30.18,12.12c8,4.89,16.39,9.26,25.76,11.04c10.99,3.47,22.29,0.12,33.38-0.91
		c13.67-2.5,20.6-16.1,31.17-23.66c8.459-5.51,12.3-15.5,20.4-21.47c11.65-8.76,17.34-22.63,26.51-33.58
		c6.74-7.67,10.14-17.52,16.53-25.45c4.96-6.95,13.53-10.53,18.17-17.69c2.29-6.78,4.14-13.73,5.92-20.65
		c0.2-8.91-1.06-17.8-0.54-26.7c0.39-5.59,2.31-11.09,1.95-16.71c-0.9-6.32-2.95-12.38-4.76-18.46c-2.17-10.86-4.35-21.68-6.8-32.46
		c-1.54-6.02-1.38-12.44-3.87-18.17c-4.49-9.72-4.87-20.55-8.58-30.48c-4.03-15.86-6.98-31.97-10.98-47.81
		c-2.86-14.04-8.16-27.42-10.86-41.47c-5.98-23.29-17.98-44.56-23.16-68.09c-4.85-11.85-5.32-24.88-10.3-36.65
		c-2.41-6.54-2.8-13.64-5.64-20.02c-6.3-13.6-9.5-28.43-16.33-41.8c-2.75-4.9-5.57-9.74-8.11-14.72
		c-5.11-11.86-7.69-24.65-12.86-36.47c-2.9-5.25-3.13-11.46-6-16.69c-4.32-9.48-9.29-18.81-11.68-28.99
		c-0.81-4.84-4.06-8.82-5.87-13.23c-6.16-13.49-14.07-26.3-17.64-40.83c-1.64-7.47-6.36-13.53-9.37-20.39
		c-2.58-6.73-8.07-12.24-8.29-19.79c-0.52-6.74-6.2-11.37-7.45-17.9c-4.02-7.71-5.17-16.48-9.65-23.94
		c-5.29-10.46-8.14-21.98-13.82-32.24c-3.54-6.09-4.67-13.14-7.66-19.44c-5.53-11.75-9.38-24.19-15.2-35.8
		c-4.34-8.29-6.26-17.56-8.97-26.41c-5.87-9.22-10.71-19.05-16.09-28.56c-3.101-5.28-4.46-11.31-6.75-16.92
		c-2.91-8.18-6.55-16.04-10.1-23.94c-3.31-8.3-5.76-17-10.23-24.78c-5.14-9.4-10.05-18.97-13.85-28.99
		c-2.08-7.42-5.46-14.38-9.52-20.88c-8.19-13.56-14.36-28.16-21.98-42c-12.4-20.6-25.45-40.82-40.1-59.9
		c-3.87-4-9.46-5.67-13.41-9.55c-5.98-5.54-12.34-10.82-19.6-14.6c-8.7-4.82-16.81-11.22-26.68-13.45
		c-9.07-3.74-19.48-4.28-27.51-10.3c-6.17-4.99-14.48-5.39-21.53-8.57c-15.07-7.01-32.28-7.33-47.37-14.25
		c-8.98-3.34-17.67-7.4-26.81-10.23c-10.46-2.18-20.95-4.51-30.94-8.32c-9.82-5.31-21-6.72-31.71-9.25
		c-14.33-3.08-27.85-8.86-41.87-12.93c-7.99-1.53-15-5.7-22.4-8.8c-15.72-6.99-30.74-16.96-40.5-31.41
		c-1.36-2.04-2.58-5.08-0.4-7.02c6.97-7.68,14.85-14.49,21.95-22.07c39-41.8,67.59-92.49,86.99-146.08
		c31.5-86.5,39.3-180.6,28.23-271.68c-5.29-43.29-15.25-86.13-30.95-126.86c-25.51-68.11-67.28-131.1-124.8-176.26
		c-34.11-26.79-74.87-45.5-117.83-52.13C1842.81-527.33,1792.56-520.78,1748.98-499.04 M-63.97-520.04
		c-32.55,3.83-63.8,15.65-92.02,32.08c-31.82,18.66-59.11,44.1-82.9,72.09c-30.47,36.24-53.8,78.1-70.75,122.22
		c-34.46,89.02-43.29,186.78-31.8,281.19c9.9,81.32,37.04,161.64,84.89,228.65c-4.28,6.36-10.04,11.46-15.79,16.44
		c-10.28,8.74-18.03,19.96-27.89,29.14c-17.24,16.08-34.22,32.43-51.26,48.73c-5.34,5.02-9.47,11.21-15.35,15.68
		c-20.77,19.55-45.72,33.95-66.48,53.5c-9.81,8.99-15.39,21.35-20.68,33.29c-3.05,8.1-13.25,9.24-19.64,13.54
		c-5.22,3.8-10.1,8.17-16.06,10.84c-8.52,3.93-15.12,10.74-21.95,16.98c-5.05,4.25-12.03,6.66-15.26,12.75
		c-4.38,7.71-9.94,14.66-15.13,21.84c-6.87,11.2-13.14,22.76-20.16,33.87c-7.85,14.68-13.72,30.36-22.28,44.67
		c-5.16,8.26-7.5,17.74-11.14,26.69c-4.3,12.56-12.25,23.54-16.27,36.23c-4.8,15.59-12.88,29.94-17.13,45.75
		c-5.27,12.12-11.84,23.68-17.72,35.52c-3.67,13.67-8.89,26.88-14.71,39.78c-2.51,8.48-5.46,16.86-9.37,24.83
		c-3.24,6.24-4,13.43-7.39,19.63c-6.16,11.78-8.16,25.38-15.17,36.76c-1.94,3.99-2.21,8.63-4.4,12.56
		c-2.81,5.46-3.48,11.83-6.97,16.96c-3.34,5.07-2.01,11.73-5.2,16.85c-3.91,6.72-6.19,14.23-9.99,21.02
		c-3.82,6.68-4.49,14.55-7.38,21.62c-2.7,9.41-8.66,17.42-11.58,26.75c-1.9,5.11-5.75,9.41-6.7,14.89
		c-2.94,13.17-9.8,24.99-14.26,37.61c-1.5,8.4-6.02,15.82-8.04,24.07c-0.87,5.46-3.48,10.41-4.76,15.77
		c-2.82,10.22-9.32,18.88-12.88,28.83c-5.27,11.25-7.87,23.46-12.86,34.81c-4.84,10.37-3.7,22.32-8.72,32.61
		c-5.48,12.23-8.63,25.27-11.94,38.19c-4.32,11.19-6.25,23.22-11.89,33.9c-3.91,10.88-7.13,22.02-10.83,32.99
		c-6.71,24.87-10.87,50.4-12.99,76.06c-3.73,54-0.09,108.92,14.26,161.26c5.03,16.46,10.4,33.02,19.03,48.01
		c6.16,10.73,12.94,21.56,23.21,28.86c9.46,7.35,21.65,9.57,33.27,10.67c41.26,0.57,81.04-15.45,114.99-37.97
		c40.24-25.9,72.98-62.07,99.13-101.86c25.7-39.01,40.77-83.87,50.88-129.17c21.72-96.02,23.6-194.89,35.67-292.26
		c3.77-28.71,8.01-57.66,17.95-84.99c5.32-15.35,11.76-30.33,19.49-44.63c24.2-45.57,56.53-86.57,93.62-122.33
		c13.84-14.59,29.81-26.85,44.5-40.52c7-5.03,14.21-10.14,22.2-13.49c19.77-3.21,40.45-4.37,58.62-13.62
		c8.86-5.1,20.11-5.8,27.19-13.85c4.88-6.57,7.65-14.47,9.37-22.39c0.92-10.5,0.39-21.13,2.58-31.48
		c15.79-12.35,29.68-28.2,35.4-47.78c4.45-14.95,7.55-31.44,1.96-46.55c-3.09-4.73,0.36-9.39,1.23-14.07
		c1.76-11.19,9.36-20.3,11.64-31.36c2.44-12.79,8.81-27.95-0.73-39.32c-8.9-9.08-20.78-14.85-32.98-18.08
		c-13.32-3.78-25.85-9.71-38.39-15.47c-16.59-5.74-33.25-11.28-49.28-18.48c-4.79-2.41-12.73-2.83-14.4-8.95
		c-2.37-7.22,5.1-12.4,10.68-14.79c10.36-2.94,21.4-4.36,30.58-10.46c10.52-4.64,20.43-10.54,29.58-17.51
		c10.25-6.51,17.1-16.99,23.19-27.23c28.74,17.58,60.87,29.91,94.28,34.71c29.12,3.73,58.91,2.54,87.64-3.48
		c30.42-6.8,59.16-20.02,85.04-37.27c4.98,7.61,9.82,15.38,15.8,22.27c9.85,8.3,19.81,16.66,31.3,22.66
		c15.78,9.22,33.12,15.23,49.87,22.38c13.71,6.15,28.63,9.08,42.22,15.54c9.9,4.49,20.03,8.56,30.48,11.63
		c11.72,2.8,21.12,10.81,32.51,14.49c14.71,6.71,30.61,10.46,44.9,18.1c15.26,6.68,29.91,14.65,44.9,21.92
		c10.23,4.91,20.2,10.7,28.24,18.85c6.13,5.85,13.75,10.48,17.62,18.32c3.27,7.13,9.73,12.02,13.32,18.94
		c6.33,9.38,10.57,19.92,16.09,29.77c4.86,9.38,8.34,19.41,13.24,28.78c7.82,15.4,13.81,31.63,18.82,48.15
		c3.16,10.24,8.33,19.75,10.89,30.2c2.49,7.64,6.3,14.77,8.46,22.54c5.62,18.21,13.7,35.51,19.19,53.77
		c1.29,4.75,4.79,8.33,7.02,12.58c6.7,29.74,17.77,58.23,26.16,87.48c5.43,13.72,10.6,27.57,15.14,41.63
		c3.45,9.16,4.08,19.31,8.97,27.95c4.66,7.98,5.43,17.41,9.12,25.81c3.85,9.34,6.69,19.06,9.22,28.84
		c7.54,18.7,12.66,38.23,20.03,57.01c2.95,9.08,4.09,18.67,7.36,27.71c3.29,9.01,6.13,18.19,8.35,27.54
		c4.12,10.2,6.41,21.05,10.73,31.2c5.72,14.64,8.56,30.18,12.64,45.32c2.26,15.06,6.89,29.66,8.15,44.89
		c4.86,14.76,5.07,30.6,11.03,45.09c4.37,10.17,6.66,21,8.62,31.86c1.42,14.48,5.46,28.55,6.92,43.04
		c1.21,10.84,5.15,21.44,4.56,32.45c6.55-0.08,13.13-0.09,19.73-0.01c-2.99-24.54-7.52-48.84-11.89-73.15
		c-2.5-14.6-8.4-28.29-11.73-42.68c-4.06-13.88-6.74-28.12-9.33-42.33c-2.25-20.69-8.1-40.81-13.39-60.88
		c-3.26-10.11-6.37-20.32-10.91-29.94c-7.27-15.61-8.66-33.07-14.58-49.13c-2.3-12.74-8.29-24.37-11.24-36.94
		c-1.51-4.37-1.5-9.17-3.65-13.3c-3.85-6.81-5.11-14.61-8.67-21.51c-6.72-13.35-7.21-28.79-13.52-42.27
		c-2.54-6.54-5.56-12.91-8.11-19.42c-0.5-11.22-6.77-20.84-9.2-31.59c-2.73-10.76-7.23-20.89-10.17-31.58
		c-3.4-12.88-9.25-24.93-12.39-37.89c-5.04-14.4-8.57-29.27-14.36-43.4c-3.93-9.19-3.05-19.85-8.16-28.51
		c-5-12.51-12.34-24.19-15.13-37.5c-3.54-13.51-9.2-26.33-12.71-39.84c-2.48-10.61-8.03-20.09-11.69-30.28
		c-4.54-11.53-6.5-23.98-12.29-35.01c-4.7-8.99-8.28-18.47-12.08-27.85c-4.78-13.45-11.92-25.83-18.5-38.44
		c-5.83-13.32-14.76-24.91-21.43-37.78c-3.08-5.48-9.23-7.99-13.55-12.29c-5.77-5.93-11.47-12.08-18.44-16.62
		c-7.65-5-14.66-11.16-23.19-14.67c-6.73-2.87-13.37-5.92-20.31-8.22c-6.09-2.33-10.72-7.2-16.77-9.57
		c-5.15-2.29-10.23-4.68-15.23-7.24c-8.91-4.87-19.01-6.82-28.41-10.5c-12.88-4.36-24.67-11.23-37.06-16.71
		c-13.62-5.45-28.23-8.56-41.1-15.8c-9.21-4.69-19.35-6.89-29.05-10.21c-10.22-3.32-20-7.75-29.88-11.9
		c-16.57-6.38-32.63-14.59-46.7-25.51c-9.19-7.84-18.75-16.96-22.03-29c47.67-36.83,84.77-86.34,110.53-140.56
		c28.77-60.47,44.81-126.62,49.77-193.28c5.03-79.26-2.88-160.11-29.16-235.35c-21.67-62.39-55.59-121.42-103.74-167.12
		c-29.7-29.33-65.67-52.69-105.46-65.7C8.99-522.32-28.09-524.49-63.97-520.04 M899.13-151c-0.59,21.65,0.12,43.32-0.14,64.99
		c-20.67,0.24-41.34-0.4-61.99,0.13c-3.67-0.56-8.06,0.81-9.45,4.5c-2.26,4.71,1.07,11.23,6.45,11.25
		c21.64,0.58,43.32-0.13,64.99,0.14c0.23,20.66-0.41,41.33,0.13,61.99c-0.59,3.62,0.82,8.07,4.5,9.45
		c4.69,2.23,11.23-1.06,11.25-6.45c0.57-21.66-0.14-43.33,0.14-64.99c20.65-0.24,41.32,0.39,61.99-0.13
		c3.59,0.53,8.08-0.81,9.45-4.5c2.21-4.72-1.06-11.23-6.45-11.25c-21.66-0.59-43.33,0.13-64.99-0.14
		c-0.25-20.66,0.39-41.33-0.13-61.99c0.5-3.64-0.8-8.07-4.5-9.45C905.64-159.7,899.16-156.39,899.13-151 M1844.45-507.5
		c41.19-2.48,82.1,9.67,118.23,28.84c29.74,16.19,56.24,38.02,78.81,63.2c44.44,51.09,74.64,113.36,92.49,178.39
		c13.42,49.51,19.81,100.82,20.06,152.07c-0.96,70.76-14.68,141.61-42.14,206.92c-11.75,27.63-25.74,54.4-43.03,78.98
		c-21.96,32.01-48.65,61.19-80.85,83.11c-33.11,22.92-71.5,38.97-111.69,43.36c-44.71,5.86-89.97-6.57-129.35-27.37
		c-30.03-16.19-56.74-38.18-79.47-63.54c-50.42-58.02-82.53-130.22-99-204.88c-13.68-63.78-17.56-129.91-8.54-194.62
		c11.22-81.27,38.92-161.6,88.03-227.96c20.38-27.6,44.53-52.66,72.98-72.01C1757.28-488.28,1800.11-504.83,1844.45-507.5
		 M-52.55-505.46c32.53-4.27,65.68,1.57,96.22,12.92c39.89,14.54,75.37,39.69,104.59,70.28c44.58,47.8,75.41,107.12,94.78,169.25
		c24.11,79.58,31.3,164.57,18.75,246.88c-13.62,88.55-47.18,176.11-106.89,244.01C108.27,291.11,40.76,328.72-31,329.87
		c-49.49-0.08-97.54-18.99-137.65-47.24c-3.56-2.83-7.81-4.98-10.47-8.76c1.04-5.35,5.98-8.71,8.88-13.06
		c11.96-14.29,19.09-31.83,31-46.16c8.46-9.21,12.73-21.16,19.16-31.71c8.17-13.51,9.24-30.28,19.14-42.87
		c4.07-5.2,11.35-5.52,16.1-9.91c5.98-3.55,12.15-10.27,19.76-8.31c9.89,1.47,19.59,5,29.7,4.45c7.5-0.85,14.63-4.96,22.34-3.21
		c7.99,2.24,15.13,6.89,21.55,12.07c5.91-1.46,12.22-2.77,17.22-6.48c3.75-3.55,0.69-9.19-2.48-11.92
		c-5.79-6.69-15.38-6.8-22.99-10.13c-7.26-2.5-13.79-8.2-21.91-7.22c-6.47,1.46-11.74,6.31-18.36,7.28
		c-11.51,0.31-22.15-5.64-33.66-5.27c-7.88,1.68-11.86,9.68-18.49,13.51c-5.48,3.21-10.96,7.81-17.75,6.93
		c-5.9-1.75-10.9-5.83-17.1-6.76c-7.5-2.59-15.1,0.28-22.19,2.59c-9.88,3.17-17.57,10.35-25.76,16.37
		c-5.98,4.02-9.47,10.49-14.47,15.51c-5.63,5.99-12.67,10.72-17.35,17.58c-4.83,7.37-11.75,12.97-17.81,19.26
		c-6.23,6.53-15.28,10.24-19.67,18.48C-289.33,139.13-316.17,61.84-326-17.04c-12.46-91.31-0.91-185.71,32.49-271.56
		c13.08-33.01,29.36-64.89,50.08-93.8c23.6-33.84,52.9-64.1,88.06-85.99C-124.37-488.01-89.16-501.61-52.55-505.46 M-33.2,156.31
		c-10.91,2.27-22.07,5.59-31.06,12.43c-2.22,1.42-3.24,5.66-0.53,7.04c5.28,3.77,12.1,1.27,17.84,0.16
		c8.86-2.55,18.24-0.56,27.28-1.69c3.8-0.68,6.62-5.44,4.32-8.88C-19.31,159.69-26.47,156.69-33.2,156.31 M-163.41,148.58
		c7.28-7.25,16.78-13.55,27.43-13.41c4.7-0.71,8.25,2.56,12.17,4.42c-1.88,9.53-3.1,19.37-7.08,28.32
		c-8.49,23.46-25.15,42.61-36.98,64.29c-5.42,6.88-12,12.85-16.61,20.37c-10.29,17.26-25.78,30.77-35.36,48.52
		c-3.32,6.53-8.36,11.96-11.79,18.43c-9.75,16.99-23.62,30.9-35.66,46.2c-5.63,7.35-13.15,12.89-19.1,19.92
		c-2.85,3.08-3.81,9.11,0.33,11.45c5.19,2.66,11.19,0.02,16.73,0.48c17.7,1.33,32.78,11.83,49.73,16.03
		c7.05,2.08,14.46,2.93,21.31,5.67c8.88,3.83,17.14,8.98,26.16,12.51c9.66,2.88,18.72,7.35,27.82,11.61
		c4.34,2.76,8.64,6.27,10.92,11.01c2.17,13.26-6.19,24.94-10.25,36.94c-2.82,6.3-3.09,13.9-7.87,19.17
		c-2.36,2.52-5.89,0.28-8.61-0.35c-6.21-2.57-13.32-3.08-18.68-7.42c-4.85-3.1-8.9-7.35-14.15-9.78
		c-6.28-3.15-12.35-6.78-17.79-11.21c-3.16-2.38-6.53-5.4-10.9-4.41c-3.38,0.78-5.15,4.29-5.84,7.42c0.14,4.04,3.49,6.92,6.18,9.55
		c8.06,7.83,19.18,11.03,27.73,18.22c8.79,7.47,20.13,10.33,30.66,14.39c5.15,2.25,11.11,5.09,13.14,10.8
		c4.06,13.19-0.31,27-5.17,39.32c-4.05,10.65-13.59,17.37-22.83,23.18c-3.62,2.01-7.78,0.73-10.33-2.1
		c-9.21-7.99-15.57-19.74-27.93-23.41c-1.72,4.16-5.42,7.95-4.58,12.86c8.44,12.62,21.25,21.72,29.36,34.6
		c2.87,10.96,0.39,22.78-2.06,33.57c-4.81,7.66-14.24,10.3-22.11,13.71c-12.19,3.55-23.96,8.79-36.61,10.6
		c-8.58,1.48-17.27,2.47-25.97,2.51c-6.82-0.38-14.73-5.79-13.15-13.54c-0.82-7.51,3.86-15.65,11.01-18.27
		c8.4-4.03,18.02-4.93,25.98-9.98c3.02-3.18,4.12-8.15,0.95-11.57c-3.21-4.51-9.31-2.73-13.73-1.24c-9.37,3.44-19.3,5.9-27.72,11.43
		c-9.37,7.87-14.84,20.33-13.45,32.62c-0.22,9.86,6.9,17.37,13.84,23.39c-33.87,29.42-67.41,59.65-95.48,94.83
		c-27.81,34.82-52.8,72.55-68.71,114.38c-16.69,41.82-21.33,87.02-26.48,131.39c-6.39,63.62-10.33,127.52-19.28,190.86
		c-6.98,46.67-16.02,93.46-33.31,137.53c-16.3,42.39-43.35,79.84-74.71,112.37c-26.76,26.14-57.78,48.72-92.97,62
		c-19.27,7.45-39.95,11.8-60.67,11.07c-8.99-1.08-18.8-2.76-25.36-9.58c-14.56-14.47-22.47-33.9-29.17-52.93
		c-15.93-48.99-20.02-101.09-18.44-152.32c1.57-24.83,3.91-49.72,9.89-73.93c5.74-27.32,17.11-52.97,28.87-78.13
		c37.53-77.05,84.94-148.67,131.74-220.28c32.88-50.46,67.91-99.76,95.83-153.25c23.21-43.85,43.28-89.3,61.52-135.41
		c18.8-48.16,36.64-96.95,47.39-147.62c6.29-29.02,9.63-58.67,17.81-87.27c4.56-16.84,13.01-32.45,23.93-45.99
		c9.27-10.6,21.86-17.34,31.84-27.16c12.44-11.6,27.18-20.64,38.92-32.99c6.91-9.77,16.77-16.64,25.56-24.51
		c17.56-21.07,40.08-37.36,57.13-58.87c6.15-6.87,12.94-13.11,19.86-19.18c5.33-5.64,9.53-12.39,15.64-17.28
		c7.92-6.34,16.53-12.11,22.87-20.16c5.6-7.38,13.13-12.91,19.98-19.04C-180.8,165.88-172.23,157.09-163.41,148.58 M1681.12,300.13
		c4.41-5.1,8.8-10.23,13.03-15.49c30.78,25.7,67.39,44.67,106.51,53.76c37.23,7.74,76.41,8.24,113.36-1.37
		c35.44-9.21,68.61-26.46,97.19-49.29c5.93,6.74,11.03,14.22,17.67,20.34c9.06,6.88,18.4,13.68,28.95,18.16
		c8.01,3.42,15.42,8.26,24.03,10.21c10.15,2.85,19.91,6.93,30.13,9.59c17.1,5.74,35.22,8.09,51.95,15.06
		c9.69,3.57,19.9,5.59,29.9,8.18c8.67,2.11,16.129,7.56,24.819,9.69c12.47,3.43,24.7,7.68,37.291,10.73
		c20.33,7.54,40.57,15.35,60.51,23.9c8.44,3.26,16.91,7.05,23.75,13.12c7.73,6.21,17.61,10.34,22.36,19.62
		c2.77,4.77,7.06,8.28,10.87,12.18c8.33,10.31,14.8,21.95,22.01,33.05c6.17,10.84,11.65,22.05,18.26,32.65
		c12.37,19.64,18.95,42.08,29.61,62.59c4.22,12.39,11.58,23.34,16.08,35.64c4.86,13.11,12.4,24.98,17.33,38.07
		c1.95,4.31,3.35,8.91,5.94,12.93c2.2,3.5,5.78,6.15,6.31,10.61c5.64,18.01,13.88,35.04,20.41,52.72
		c2.53,6.27,5.21,12.47,7.99,18.64c2.89,10.42,8.73,19.56,12.88,29.45c3.24,7.09,6.3,14.28,9.45,21.43
		c3.17,7.1,4.27,14.95,8.04,21.83c2.01,4.72,5.75,8.52,7.29,13.47c2.8,11.36,10.02,20.85,13.62,31.91
		c5.29,16.3,13.64,31.32,19.63,47.35c4.06,10.16,10.14,19.48,12.56,30.27c3.5,12.07,9.73,23.08,13.82,34.94
		c1.18,4.61,2.55,9.3,4.92,13.5c3.78,6.97,5.74,14.74,9.16,21.88c7.8,14.83,12.57,30.99,17.69,46.9
		c3.35,13.68,8.86,26.79,11.48,40.67c1.41,7.32,4.52,14.12,6.16,21.41c2.27,10.7,6.97,20.63,10.79,30.84
		c7.04,13.92,10.2,29.41,13.41,44.58c3.92,10.91,5.92,22.36,8.93,33.54c2.56,8.68,3.03,18.12,7.41,26.19
		c2.88,12.36,4.97,24.92,8.73,37.08c3.18,15.25,9.31,29.68,12.86,44.85c2.68,13.01,6.42,25.96,6.55,39.36
		c0.21,13.29,3.05,27.98-3.4,40.33c-2.49,5.42-4.23,11.33-8.3,15.86c-7.97,9.88-14.87,20.55-21.49,31.35
		c-4.38,7.49-12.01,12.32-16.38,19.83c-4.12,5.2-7.35,11.17-12,15.89c-6.1,3.79-11.76,8.33-15.04,14.89
		c-2.94,5.72-8.6,8.95-13.61,12.57c-5.82,5.23-11.93,10.85-19.78,12.65c-7.57,0.52-15.1,0.53-22.64,1.06
		c-15.46-1.75-28.9-10.2-43.34-15.25c-5.61-2.48-10.26-6.54-15.82-9.05c-6.37-2.93-12.88-5.54-18.86-9.18
		c-9.93-5.95-20.91-10.39-29.38-18.48c-12.72-11.19-28.59-17.78-41.93-28.11c-4.84-3.25-9.29-8.25-15.62-7.9
		c-3.87-5.44-8.77-10-14.74-12.99c-11.1-8.51-23.25-15.49-35.28-22.53c-8.38-4.91-15.74-11.55-24.81-15.16
		c-4.56-1.73-8.01-5.23-11.89-7.98c-6.96-4.69-13.23-10.38-20.23-14.96c-6.91-5.1-14.74-8.96-21-14.9
		c-8.38-9.16-19.14-15.64-29.01-23.02c-13.16-9.96-26.5-19.7-39.77-29.49c1.08-3.49,1.68-7.57,4.72-9.99
		c5.53-4.93,10-10.93,14.01-17.13c4.32-8.29,5.16-17.87,8.39-26.56c3.06-7.97,1.95-16.71,2.67-25.02
		c2.37-18.43-9.01-34.58-12.37-52.12c13.95,4.56,26.64,12.66,41.09,15.8c8.75,2.69,17.38,5.73,26.01,8.85
		c5.84,2.13,11.01,6.11,17.27,7.1c16.02,1.35,28.6,13.36,44.56,15.18c6.77,0.48,12.25,5.05,18.83,6.14
		c16.28,0.9,31.21,8.29,47.12,11.25c11.28,3.54,22.77,6.53,34.479,8.4c7.36,1.91,14.02,6.3,21.811,6.8
		c9.09,1.33,17.97,3.72,26.92,5.86c13.03,2.23,26.25,3.89,39.12,7.2c8.38,2.11,17.37,1.24,25.61,4.18
		c10.13,3.23,20.5,5.64,30.57,9.08c4.83,1.81,10.42,1.5,14.72,4.71c8.34,5.67,18,9.53,25.27,16.71
		c11.86,8.99,16.27,24.9,29.01,33.07c6.46,3.74,7.43,11.86,12.02,17.17c3.42-0.75,6.39-2.64,9.7-3.89
		c-0.81-5.93-3.52-11.26-7.32-15.78c-4.84-5.88-8.06-13-13.88-18.03c-6.59-4.93-7.46-13.76-11.89-20.19
		c-10.71-10.7-24.18-17.87-37.68-24.42c-11.01-5.71-23.5-6.95-35.26-10.39c-18.26-5.29-37.42-5.28-55.88-9.5
		c-7.97-1.89-16.52-1.24-24-4.93c-6.15-2.96-13.2-2.45-19.65-4.32c-10.36-2.34-21.58-1.83-31.17-6.88
		c-7.96-4.53-17.41-4.81-26.03-7.24c-5.66-1.26-10.88-3.58-16.47-4.88c-11.81-1.52-22.49-7.59-34.43-8.47
		c-23.6-6.09-47.02-13.14-69.31-23.07c-20.21-9.27-41.43-16.06-61.44-25.77c-8.46-4.38-17.93-6.16-26.48-10.27
		c-6.67-2.8-12.91-6.75-20.11-7.98c-14.59-3.94-29.24-7.63-43.89-11.3c-11.27-1.6-17.75-12.23-25.03-19.73
		c-6.01-5.6-8.49-13.84-14.18-19.63c-4.15-2.73-8.1-5.72-11.49-9.34c1.15-4.02,3.18-8.46,1.22-12.55
		c-1.88-4.08-3.46-9.11-7.99-10.92c-9.51-3.43-19.89-2.11-29.68-3.58c-14.51-5.25-29.54-9.41-44.91-11.19
		c-16.6-1.25-33.1-3.46-49.61-5.44c-14.459-0.29-28.5-3.84-42.85-5.07c-18.48-2.79-36.86-6.5-55.59-7.26
		c-7.48-0.27-14.52-2.95-21.84-4.08c-12.69-1.37-25.29-3.42-37.87-5.49c-12.22-1.69-24.59-2.06-36.65-4.76
		c-6.73-1.64-13.56-3.19-20.51-3.04c-13.11,0.35-25.8-3.79-38.84-4.37c-7.11-0.91-14.41-0.26-21.3-2.66
		c-6.78-2.26-13.84,0.39-20.76-0.5c-7.44,0.36-14.92,0.35-22.34,0.86c-10.04,1.42-19.63,4.96-29.6,6.72
		c-6.54,1.02-12.59,3.85-19.01,5.32c-5.72,1.44-10.79,4.69-16.58,5.86c-14.35,3.23-28.64,6.75-42.9,10.33
		c-9.94,1.47-19.49,4.71-28.95,7.96c-6.59,2.91-13.65,4.6-20.8,5.27c-20.3,3.59-39.49,11.39-59.3,16.77
		c-10.68,1.18-21.25,3.23-31.91,4.51c-16.53,1.27-32.97,3.73-49.09,7.62c-12.17,2.95-24.63,4.33-36.99,6.11
		c-8.07-0.42-15.93-2.82-23.98-3.56c-9.54-0.43-18.86-2.65-28.38-3.17c-16.71-1.73-33.31-4.91-49.51-9.21
		c-6.2-4.94-14.35-3.72-21.59-5.47c-9.2-1.63-18.24-4.93-25.76-10.54c-2.24-1.69-4.75-3.26-7.6-3.43
		c-7.33-0.11-13.71-4.25-20.65-6.05c-6.75-2.22-13.78-3.66-20.17-6.83c-2.68-1.33-3.74-4.64-6.39-5.95
		c-2.94-0.37-5.93-0.03-8.85-0.51c-4.84-1.12-9.17-3.69-13.94-4.95c-14.82-3.05-30.82-4.46-44.88,2.32
		c-5.36,3.1-9.75,7.6-14.38,11.64c-4.61,4.01-2.46,12.95,3.75,13.88c11.49,1.72,16.39-12.36,27.51-12.05
		c5.23-1.02,10.68-1.54,15.98-0.42c5.86,1.54,11.55,4.14,17.74,4.2c7.05,0.68,13,4.98,19.7,6.97c7.42,2.22,13.64,7.07,21.03,9.34
		c12.36,3.81,23.37,10.98,35.93,14.3c9.56,3.93,19.94,5.11,29.59,8.81c8.52,1.61,17.12,3.12,24.73,7.56
		c-0.18-1.12-0.32-2.23-0.44-3.31c9.07,2.92,18.44,5.36,28.03,5.56c11.92,0.63,23.62,3.35,35.52,4.22
		c7.45,1.41,15.04,1.94,22.44,3.64c11.11,0.17,22.15-1.85,33.15-3.28c6.86-0.89,13.19-3.85,19.95-5.15
		c7.81-0.62,15.36-2.95,23.18-3.52c14.65-0.76,28.96-4.2,43.53-5.64c7.11-0.96,13.99-3.03,20.77-5.35
		c8.88-3.07,18.22-4.54,27.11-7.62c7.65-2.54,15.58-3.98,23.45-5.6c14.7-4.43,30-6.62,44.54-11.57c6.97-3.47,14.74-4.48,22.18-6.55
		c11.34-2.71,22.71-5.35,33.76-9.15c9.03-3.1,18.38-5.23,27.84-6.57c7.2-1.08,14.04-4.03,21.39-4.21c23.33-3.1,46.97-1.74,70.29,0.9
		c6.3,0.83,12.46,2.59,18.84,2.91c5.54,0.69,11.21,0.02,16.71,1.23c10.14,2.61,20.62,3.38,30.91,5.23
		c20.74,1.03,41.06,5.5,61.58,8.32c11.33,2.59,22.89,3.55,34.33,5.62c5.51,1.12,11.22-0.49,16.7,1.19
		c6.92,1.94,14.22,1.66,21.12,3.79c7.26,2.62,15.04,1.88,22.52,3.33c5.16,0.74,10.43,1.05,15.59,1.99c7,1.39,14.2,0.33,21.24,1.49
		c10.77,1.88,21.83,1.16,32.59,3.26c7.13,0.97,14.09,2.83,20.97,4.92c8.17,1.3,16.17,3.52,24.13,5.84
		c7.9,2.56,16.24,2.73,24.36,4.24c-3.71,6.9-4.53,16.22-12.08,20.23c-12.76,6.58-27.43,8.29-41.6,8.49
		c-7.3-1.41-14.59,0.22-21.64,2.08c-11.97,2.11-24.18,0.45-36.23,1.4c-9.19,0.79-18.41,0.66-27.56,1.57
		c-10.79-1.45-21.75-2.41-32.59-0.83c-11.17,1.17-22.27,3.79-33.56,3.15c-6.58-0.24-13.11,1.13-19.67,0.42
		c-7.39-0.2-14.81-1.03-22.18-0.23c-3.62,0.54-7.19,1.84-10.88,1.42c-9.99-0.87-20.21-1.76-29.98,1.07
		c-6.31-6.93-11.66-14.58-16.67-22.45c-3.48-4.73-6.39-10.81-12.14-13.15c-3.88,0.82-9.12,2.63-9.49,7.24
		c-0.7,3.59,2.63,6.22,4.12,9.18c4.38,8.21,10.87,15.01,15.36,23.15c3,4.41,7.2,8.08,9.46,13.02c2.37,5.49,7.85,8.91,9.64,14.74
		c2.6,7.64,8.22,13.8,10.39,21.61c1.68,5.34,3.79,10.59,4.79,16.13c1.01,5.05-1.25,9.93-3.04,14.55c0.92,0.6,1.89,1.23,2.88,1.88
		c-3.83,7.26-7.04,15.2-13.48,20.6c-3.76,2.28-8.54,1.85-12.65,2.72c-8.38,1.32-16.74,2.64-25.14,3.72
		c-7.23-9.48-12.45-20.21-18.78-30.24c-3.13-5.18-7.49-9.45-10.4-14.75c-3.43-4.94-5.86-10.59-9.98-14.97
		c-4.14-3.22-11.24-4.59-15.35-0.75c-2.66,4.42-0.32,9.85,2.56,13.55c5.41,7.63,9.14,16.42,16.04,22.97
		c5.61,5.36,8.75,12.52,12.78,19.02c4.1,8.8,10.18,17.75,7.24,28.02c-0.2,6.36-5.7,10.89-11.5,12.33
		c-8.42,0.75-16.85,0.06-25.26,0.62c-6.5,0.85-13.01-0.45-19.51-0.35c-11.8-0.24-22.81-5.24-33.23-10.28
		c-13.28-10.71-20.34-28.3-36.44-35.7c-2.95-1.07-5.17,2.1-5.98,4.53c-0.85,3.23-1.8,7.31,0.48,10.16
		c4.11,5.23,8.53,10.27,13.86,14.3c4.97,5.6,12.23,10.59,12.85,18.69c0.59,3.63-1.68,6.76-3.2,9.84c-10.81,0.56-21.09,5.42-32,4.25
		c-2.89-0.6-5.33-2.41-7.96-3.6c-5.37-2.88-12.12-3.76-15.88-9.02c-3.28-4.49-8.29-7.05-13.42-8.78
		c-9.62-3.56-18.3-9.71-28.57-11.33c-10.49,1.1-20.86-2.69-31.3-0.44c-11.21,2.06-22.61,3.55-34.02,3.05
		c-6.69-0.48-13.54,1.04-20.04-1.11c-8.79-2.56-18.27-2.32-26.58-6.37c-6.81-3.17-14.48-3.49-21.25-6.75
		c-11.36-3.72-21.93-9.5-31.39-16.75c-2.54-1.9-4.89-4.77-8.31-4.73c-8.88-0.2-17.68,1.35-26.47,2.32
		c-9.26,0.66-17.74,4.7-26.3,7.93c-7.58,3.68-13.94,9.45-21.32,13.51c-4.39,2.62-9.38,4.31-13.2,7.8c-2.85,2.45-5.45,5.41-9.11,6.66
		c-3.77,1.31-7.16,3.43-10.22,5.97c-15.3,10.24-29.03,22.66-44.87,32.13c-8.83,4.33-13.25,13.58-21.35,18.79
		c-4.63,4.49-10.97,6.74-15.18,11.7c-3.49,4.13-8.79,5.85-13.1,8.9c-9.74,6.34-19.28,13-29.41,18.7
		c-5.94,4.58-12.73,8.08-19.88,10.29c-13.02,0.84-26.01-0.68-39.03-0.57c-7.42,0.09-14.73-1.24-22.13-1.47
		c-9.43-1.14-18.28-5.07-27.63-6.7c-5.34-0.79-10.19-3.38-15.47-4.36c-5.79-1.36-12.07-0.4-17.55-2.97
		c-8.28-3.98-17.89-5.35-25.15-11.25c-4.49-3.46-10.73-4.06-14.53-8.48c-3.23-3.86-9.21-4.98-11.02-10.01
		c-3.49-9.49-4.59-19.53-5.72-29.49c-3-12.93,1.69-26.13-0.45-39.11c0.73-10.09,3.31-20,5.62-29.84c4.38-13.16,6.8-26.86,11.23-40
		c3.73-10.62,4.5-22.04,9.24-32.33c2.51-10.36,8.34-19.35,12.27-29.15c6.08-11.28,6.4-24.57,12.55-35.84
		c2.06-11.81,6.43-22.96,10.21-34.27c1.95-9.05,5.89-17.46,8.82-26.19c3.89-11.21,8.36-22.26,14.16-32.62
		c3.73-6.67,4.73-14.55,9.11-20.87c3.75-5.38,4.37-12.06,7.35-17.79c4.15-8.92,8.62-17.71,11.88-27.01
		c3.87-14.39,12.56-26.79,17.73-40.68c3.88-10.14,9.96-19.23,14.07-29.27c3.26-10.42,8.07-20.29,13.51-29.72
		c3.25-6.07,4.11-13.26,8.49-18.73c6.78-9.02,8.7-20.42,13.68-30.35c5.86-12.32,11.68-24.67,18.07-36.73
		c10.33-23.74,20.76-47.46,30.97-71.26c1.99-4.57,2.74-9.67,4.91-14.13c9.76-9.66,12.81-23.74,19.54-35.35
		c8.11-14.25,13.99-29.6,21.93-43.94c3.05-6.34,5.41-13,8.95-19.11c7.64-13.75,12.99-28.62,20.63-42.37
		c6.67-12.44,14.76-24.07,21.57-36.44c4.6-8.81,11.23-16.35,15.96-25.09c6.49-11.48,17.21-19.57,24.75-30.25
		c4.85-6.75,12.49-10.3,19-15.14c7.11-6.14,15.74-9.99,24.34-13.54c17.38-6.16,34.41-13.27,52.02-18.82
		c10.34-4.47,21.43-6.48,32.34-9.01c9.78-3.45,20.17-4.97,29.64-9.32c7.67-3.39,15.79-5.71,24.08-6.98
		c14.85-2.79,28.76-8.98,43.56-11.95c17.93-3.11,35.19-8.97,52.66-13.93c12.86-3.78,25.21-9.13,37.36-14.77
		C1662.41,314.61,1673.68,309.64,1681.12,300.13 M2204.69,980.51c-12.04,0.5-24.67-0.03-35.86,5.1
		c-14.05,5.23-26.82,16.89-28.83,32.38c-0.5,8.41,0.08,17.09,2.76,25.16c5.37,18.08,20.8,30.68,27.08,48.29
		c2.45,5.49,5.26,11.09,5.58,17.21c0.03,8.01,6.44,13.96,9.87,20.73c2.9-1.88,6.95-3.56,7.37-7.49c0.35-6.36,0.05-12.71,0.33-19.05
		c11.9,6.15,22.5,14.92,35.45,18.98c23.6,8.63,49.3,15.72,74.57,11.28c17.25-2.11,34.74-11.77,41.72-28.37
		c5.65-17.64,0.62-37.49-10.5-51.91c-10.55-13.08-18.36-28.05-26.43-42.7c-4.74-7.66-1.29-17.39-5.79-25.11
		c-2.73-6.29-13.95-4.64-14.84,2.1c-0.78,7.38,0.42,14.88,1.59,22.18c-9.14-5.3-18.13-10.94-27.84-15.12
		C2243.06,986.58,2224,982.05,2204.69,980.51 M-191.93,286.03c5.95,4.31,11.66,8.94,17.67,13.18c-2.89,7.09-8.56,12.42-13.35,18.19
		c-8.94,8.54-20.04,14.26-30.74,20.23c-3.21,1.85-6.78,3.01-10.52,2.84c1.89-4,4.69-7.45,7.49-10.83c5.5-6.5,8.26-14.79,13.57-21.43
		C-202.08,301.13-197.04,293.55-191.93,286.03 M-468.03,442.75c1.08,0.12,2.16,0.22,3.25,0.37c-8.43,39.64-13.52,80.01-24.98,118.98
		c-14.18,47.95-31.94,94.77-51.29,140.87c-23,53.24-47.65,106.08-79,155.01c-38.79,61.27-80.28,120.79-118.56,182.39
		c-15.08,23.62-29.11,47.89-43.6,71.87c2.29-10.36,7.32-19.84,10.19-30.03c2.52-10.11,7.15-19.47,11.37-28.93
		c2.4-5.48,2.76-11.73,6.13-16.76c4.19-6.67,4.58-14.78,8.03-21.77c5.24-12.05,9.7-24.42,13.15-37.09
		c7.53-14.77,11.44-31.07,19.13-45.76c6.2-12.54,8.81-26.47,15.18-38.93c4.25-8.38,6.03-17.84,11.25-25.74
		c3.46-5.42,4.88-11.78,6.49-17.91c5-14.69,11.68-28.7,17.99-42.85c4.47-8.38,6.06-17.88,10.41-26.31
		c7.83-20.92,15.83-41.79,23.54-62.76c5.45-10.17,10.15-20.71,14.34-31.46c3.95-10.45,9.86-20.06,13.52-30.62
		c4.38-13.04,11.64-24.87,15.81-37.99c6.89-13.62,12.12-27.99,18.04-42.05c6.16-14.89,15.12-28.39,22.01-42.93
		c3.73-8.03,9.03-15.16,13.27-22.9c4.8-8.51,9.68-17.21,16.81-24.02c2.57-2.49,4.61-5.46,6.49-8.48
		c5.03-9.23,14.58-14.21,22.44-20.67C-480.76,451.33-473.36,448.36-468.03,442.75 M2166.97,1005.98
		c11.44-8.09,25.96-8.64,39.49-8.18c26.64,2.09,52.33,12.05,74.54,26.72c-5.71,1.31-11.19,3.34-16.22,6.32
		c0.71,4.39,2.66,8.48,4.67,12.45c11.34-0.65,23.06-2.61,34.31,0.06c8.97,5.94,14.01,16.06,20.23,24.56
		c5.26,10.7,9.94,25.4,1.71,35.81c-6.29,7.53-16.05,11.53-25.63,12.52c-20.65,2.8-41.42-1.51-60.73-8.65
		c-18.02-5.9-33.87-16.8-48.67-28.4c8.34-0.56,16.83-0.38,25.21-0.53c7.21-2.13,6.48-14-0.71-15.9
		c-13.01-3.48-27.07,1.45-39.95-3.16c-5.97-0.99-8.92-6.5-11.76-11.14c-4.07-6.76-6.49-14.56-6.59-22.45
		C2155.55,1018.07,2159.98,1009.75,2166.97,1005.98 M2112.83,1133.8c5.16-3.05,9.14-9.31,15.84-8.45c5.71,1.45,9.3,6.67,13.41,10.48
		c3.1,4.26,5.38,9.04,9.5,12.57c4.99,4.76,8.87,11.48,16,13.37c7.91,3.37,15.86,7.02,24.45,8.31c6.39,1.29,12.29,4.26,17.97,7.42
		c8.87,2.94,14.39,10.59,21.7,15.86c6.28,8.27,12.47,17.19,14.42,27.64c7.35,27.28,4.18,60.58-16.57,81.54
		c-7.58,6.25-12.23,15.04-18.06,22.79c-4.84,7.96-12.51,13.82-16.71,22.22c-3.22,6.98-5.85,14.36-10.86,20.34
		c-5.22,6.73-6.71,15.3-10,22.98c-6.67,15.44-13.37,30.96-17.84,47.22c-1.92,8.99-0.81,18.29,0.42,27.31
		c0.84,5.11-3.18,9.32-6.24,12.81c-13.24,6.19-29.03-3.31-32.85-16.56c-2.629-10.29-6.02-21.06-2.31-31.54
		c4.42-11.96,4.24-24.76,8.07-36.82c0.99-4.19,2.67-8.19,3.22-12.46c0.05-3.12-1.47-5.98-2.37-8.88c-5.55-0.2-11.28-1.77-16.66-0.53
		c-7.11,3.98-11.84,11.12-19.15,14.81c-18.94,9.37-35.94,21.97-53.47,33.66c-7.43,7.77-18.24,11.42-24.3,20.6
		c-14.95,13.8-33.2,23.28-49.33,35.55c-8.8,4.93-15.82,12.29-24.32,17.61c-13.52,6.48-27.47,13.21-42.66,14.19
		c-4.14-1.12-8.95-4.71-7.8-9.62c2.5-6.47,5.78-13.15,11.69-17.19c13.78-11.11,26.68-23.25,39.39-35.54
		c4.871-6.11,10.07-11.97,15.92-17.19c10.07-10.56,18.5-22.98,30.8-31.2c4.12-3.71,10.02-6.18,12.54-11.44
		c0.89-3.85-2.64-7.12-4.89-9.7c-6.49,0.46-11.78,5.28-16.76,9.09c-11.81,13.88-27.03,24.36-38.25,38.76
		c-10.5,12.87-24.62,22-35.54,34.43c-8.32,6.99-17.03,13.59-24.73,21.28c-4.5,4.51-6.14,12-12.52,14.5
		c-10.72,4.73-22.4,6.49-33.58,9.74c-6.69,2.57-10.58-6.54-10.05-11.8c0.14-5.59-1.55-12.27,3.19-16.48
		c7.99-8.81,11.68-20.51,19.46-29.47c6.45-7.73,15.54-12.41,23.04-18.97c12.54-9.42,21.05-23.11,33.46-32.67
		c6.81-5.43,12.26-12.41,19.54-17.29c6.61-4.35,9.71-12.32,16.37-16.6c6.79-4.6,15-7.99,18.78-15.83
		c-3.57-2.92-6.74-7.57-12.08-6.56c-8.71,4.91-16.61,11.26-23.92,18.04c-8.91,10.14-18.92,19.39-30,27.12
		c-8.26,5.91-15.43,13.24-21.98,20.95c-7.08,8.6-16.22,15.16-24.6,22.36c-10.22,6.8-19.21,15.93-31.09,19.82
		c-4.39,0.85-10.12,3.99-14.06,0.19c-2.71-5.95-3.13-13.15-1.04-19.31c2.95-7.02,5.3-14.49,10.73-20.08
		c7.06-7.96,12.23-17.75,20.94-24.12c6.12-4.88,10.51-11.47,15.98-16.99c5.06-4.67,10.34-9.09,15.78-13.31
		c7.04-6.6,13.55-13.77,21.25-19.64c6.75-4.89,11.7-11.83,18.77-16.3c5.04-3.87,11.07-6.89,14.88-12.09
		c2.88-4.8-1.05-9.65-3.61-13.43c-11.26,2.24-18.85,11.56-26.95,18.86c-7.27,6.42-13.48,13.96-21.08,20.01
		c-5.32,4.42-10.1,10.5-17.43,11.29c-6.46,0.37-13.42,0.09-19.23-3.01c-5.14-5.75-4.2-13.96-1.48-20.51
		c1.02-2.27,3.69-2.74,5.74-3.72c7.77-3.09,14.52-8.25,20.47-14.04c5.03-5.4,5.41-13.32,10.16-18.83
		c8.18-8.16,15.97-16.72,24.76-24.26c8.69-9.64,18.83-17.88,26.98-28.01c7.43-6.56,14.23-13.76,21.15-20.85
		c4.67-5.1,11.64-7.5,15.91-13.02c3.94-5.39,9.39-9.33,14.17-13.91c10.68-9.65,19.88-20.93,31.37-29.69
		c3.08-2.49,6.16-5.89,10.53-5.31c16.74,1.02,33.5-0.52,50-3.23c11.27,1.51,21.8-4.62,33.04-3.61
		C2096.67,1139.81,2106.03,1139.42,2112.83,1133.8 M1941.71,1148.19c10.15-2.03,20.41,0.98,30.66,0.32
		c-4.52,4.43-9.61,8.26-13.85,12.96c-4.48,5.57-10.68,9.32-15.49,14.57c-5.34,5.71-11.45,10.57-17.41,15.6
		c-14.86,15.47-31.45,29.31-45.2,45.84c-7.43,9.71-17.67,16.69-25.76,25.77c-1.03-5.21-5.09-10.24-3.9-15.58
		c5.29-6.43,9.03-13.85,10.81-21.99c3.9-8.91,0.75-18.5-0.89-27.52c-0.84-3.73-2.54-7.15-3.84-10.7
		c-2.08-5.81-1.96-12.45-5.85-17.49c-3.56-4.78-5.32-10.52-6.56-16.26c6.74-3.65,14.53-1.74,21.79-2.97
		c7-0.34,14.03-0.38,21.03-1.04c9.82,0.47,19.68,0.47,29.51,0.73C1925.04,1149.32,1933.4,1149.14,1941.71,1148.19 M1802.43,1264.56
		c10.54-2.38,21.43-1.96,32.04-3.89c2.53,6.63,5.96,13.49,4.59,20.81c1.13,7.38-5.56,11.55-11.2,14.25
		c-4.84,2.22-10.1-0.74-14.84-1.45c-6.16-1.33-13.04-2.99-17.29-8.02c-4.04-5.29-0.85-12.2,0.98-17.61
		C1797.51,1266.16,1799.96,1264.85,1802.43,1264.56L1802.43,1264.56z"/>
	<path d="M1748.98-499.04c43.58-21.74,93.83-28.29,141.88-21.75c42.96,6.63,83.72,25.34,117.83,52.13
		c57.52,45.16,99.29,108.15,124.8,176.26c15.7,40.73,25.66,83.57,30.95,126.86c11.07,91.08,3.27,185.18-28.23,271.68
		c-19.4,53.59-47.99,104.28-86.99,146.08c-7.1,7.58-14.98,14.39-21.95,22.07c-2.18,1.94-0.96,4.98,0.4,7.02
		c9.76,14.45,24.78,24.42,40.5,31.41c7.4,3.1,14.41,7.27,22.4,8.8c14.02,4.07,27.54,9.85,41.87,12.93
		c10.71,2.53,21.89,3.94,31.71,9.25c9.99,3.81,20.48,6.14,30.94,8.32c9.14,2.83,17.83,6.89,26.81,10.23
		c15.09,6.92,32.3,7.24,47.37,14.25c7.05,3.18,15.36,3.58,21.53,8.57c8.03,6.02,18.44,6.56,27.51,10.3
		c9.87,2.23,17.98,8.63,26.68,13.45c7.26,3.78,13.62,9.06,19.6,14.6c3.95,3.88,9.54,5.55,13.41,9.55
		c14.65,19.08,27.7,39.3,40.1,59.9c7.62,13.84,13.79,28.44,21.98,42c4.06,6.5,7.44,13.46,9.52,20.88
		c3.8,10.02,8.71,19.59,13.85,28.99c4.47,7.78,6.92,16.48,10.23,24.78c3.55,7.9,7.19,15.76,10.1,23.94
		c2.29,5.61,3.649,11.64,6.75,16.92c5.38,9.51,10.22,19.34,16.09,28.56c2.71,8.85,4.63,18.12,8.97,26.41
		c5.82,11.61,9.67,24.05,15.2,35.8c2.99,6.3,4.12,13.35,7.66,19.44c5.68,10.26,8.53,21.78,13.82,32.24
		c4.48,7.46,5.63,16.23,9.65,23.94c1.25,6.53,6.93,11.16,7.45,17.9c0.22,7.55,5.71,13.06,8.29,19.79
		c3.01,6.86,7.73,12.92,9.37,20.39c3.57,14.53,11.48,27.34,17.64,40.83c1.81,4.41,5.06,8.39,5.87,13.23
		c2.39,10.18,7.36,19.51,11.68,28.99c2.87,5.23,3.1,11.44,6,16.69c5.17,11.82,7.75,24.61,12.86,36.47
		c2.54,4.98,5.36,9.82,8.11,14.72c6.83,13.37,10.03,28.2,16.33,41.8c2.84,6.38,3.23,13.48,5.64,20.02
		c4.98,11.77,5.45,24.8,10.3,36.65c5.18,23.53,17.18,44.8,23.16,68.09c2.7,14.05,8,27.43,10.86,41.47
		c4,15.84,6.95,31.95,10.98,47.81c3.71,9.93,4.09,20.76,8.58,30.48c2.49,5.73,2.33,12.15,3.87,18.17c2.45,10.78,4.63,21.6,6.8,32.46
		c1.81,6.08,3.86,12.14,4.76,18.46c0.36,5.62-1.561,11.12-1.95,16.71c-0.52,8.9,0.74,17.79,0.54,26.7
		c-1.78,6.92-3.63,13.87-5.92,20.65c-4.64,7.16-13.21,10.74-18.17,17.69c-6.39,7.93-9.79,17.78-16.53,25.45
		c-9.17,10.95-14.86,24.82-26.51,33.58c-8.1,5.97-11.94,15.96-20.4,21.47c-10.57,7.56-17.5,21.16-31.17,23.66
		c-11.09,1.03-22.39,4.38-33.38,0.91c-9.37-1.78-17.76-6.15-25.76-11.04c-10.95-1.99-19.5-9.49-30.18-12.12
		c-10.59-2.88-18.72-10.65-28.24-15.65c-11.02-5.72-21.04-13.03-31.59-19.51c-8.2-6.41-16.31-13.14-26.04-17.08
		c-14.28-6.61-24.55-19.12-38.32-26.5c-9.94-5.86-19.56-12.22-28.62-19.36c-11.04-9.34-25.59-12.94-36.47-22.5
		c-6.25-5.79-13.82-9.78-21-14.21c-9.6-6.65-18.91-13.67-28.56-20.22c-9.29-6.22-16.63-14.96-26.26-20.69
		c-9.41-5.43-17.25-13.19-26.77-18.41c-8.3-4.68-12.96-14.53-22.78-16.68c-6.47,7.56-11.87,15.96-16.57,24.72
		c-7.78,15.93-18.83,30.42-23.44,47.77c-3.71,14.26-12.76,27.14-12.52,42.3c0.91,5.03,2.51,10.04,1.18,15.23
		c-2.39,8.4-2.22,18.15-7.47,25.51c-7.34,4.84-15.02,9.89-23.61,12.16c-5.62-0.55-10.78-3.32-16.19-4.64
		c-6.09-2.17-13.1-4.72-15.83-11.12c-2.45-5.26-7.6-8.62-9.95-13.88c-4.01-11.26-4.94-23.58-2.78-35.3
		c1.55-12.68,3.17-25.34,3.67-38.1c-9.26,3.4-18.05,7.93-26.66,12.69c-4.65,2.9-10.33,3.25-15.07,5.93
		c-6.19,4.4-10.62,10.81-17.09,14.86c-15.04,12.22-30.04,24.48-45.08,36.68c-4.66,2.58-9.12,5.48-13,9.15
		c-6.91,5.81-16.18,7.97-22.73,14.29c-6.28,6.34-14.42,10.11-21.58,15.26c-14.79,9.49-31.32,18.02-49.35,17.78
		c-10.46-1.08-19.32-7.88-24.95-16.47c-9.67,1.4-18.92,4.65-27.78,8.67c-6.3,2.95-13.73,2.84-20.3,1.1
		c-5.49-4.77-13.62-8.27-14.82-16.38c-1.78-5.11-4.92-10.04-4.1-15.67c-0.93-7.93,6.39-13.14,7.78-20.42
		c-6.03-4.06-14.1-1.02-20.63-3.75c-3.22-2.61-4.83-6.71-7.09-10.02c-3.31-5.07-6.84-11.01-5.21-17.31
		c2.37-8.76,3.29-18.42,9.12-25.76c7.99-11.18,17.54-21.12,26.03-31.92c5.4-7.2,13.11-12.56,17.44-20.55
		c-5.64-2.65-13.15-3.31-16.82-8.89c-5.13-6.63-6.39-15.13-7.82-23.09c-0.24-4.08,2.05-7.7,3.74-11.25
		c-9.18-5.98-19.61-10.01-27.93-17.25c-6.03,4.11-13.27,5.85-20.5,5.13c-19.77-0.87-40.01,0.76-59.36-4.31
		c-4.42-1.21-7.95,2.22-11.37,4.37c-7.22,3.91-14.69,7.97-22.93,9.19c-6.74,1.13-13.24,3.29-19.69,5.46c-7.1,1.96-14-1.92-20.25-4.7
		c-8.94-3.55-17.79-7.85-24.83-14.52c-7.68-4.63-15.33-10.42-24.71-10.54c-8.34-0.09-16.42-2.07-24.57-3.37
		c-9.16,0.68-18.02,3.67-27.03,5.34c-5.25,1.84-10.66-0.24-15.99-0.05c-6.88,0.08-13.83,2.29-20.64,0.57
		c-3.59-0.71-6.8-2.55-10.12-3.93c-7-3.34-14.97-2.43-22.32-4.47c-16.99-4.73-33.48-11.05-49.86-17.5
		c-7.06-3.14-12.55-12.58-21.11-9.76c-6.75,2.1-13.46,4.41-20.38,5.91c-11.95,2.83-22.17,9.89-33.12,15.12
		c-5.48,3.08-11.41,5.51-16.12,9.79c-8.64,7.49-18.85,12.94-27.26,20.71c-8.65,7.72-18.96,13.22-28.74,19.33
		c-7.39,5.11-13.04,12.27-19.83,18.08c-7.12,5.31-15.37,9.02-21.94,15.09c-9.55,8.89-21.57,14.41-32.2,21.84
		c-9.33,5.72-17.56,13.61-28.37,16.52c-6.31,2.12-13-0.12-19.37-0.36c-10.09-1.44-20.36,0.16-30.41-1.68
		c-8.15-1.6-16.43-1.81-24.65-2.58c-12.33-3.05-25.48-3.75-36.84-9.86c-10.83-3.24-22.07-5-33.06-7.61
		c-11.57-1.66-21.52-8.22-32.5-11.75c-5.65-1.83-8.55-7.34-12.2-11.55c-4.12-4.95-9.35-9.58-10.66-16.18
		c-0.75-3.74-1.73-7.43-2.91-11.05c-1.82-5.3,1.42-10.76-0.33-16.1c-0.65-7.37-3.77-16.12,2.54-21.92c-1.55-2.66-3.3-5.25-4.23-8.12
		c-0.66-3.02,0.79-5.94,1.11-8.9c1.61-13.67,2.18-27.57,5.9-40.88c2.34-10.58,5.67-20.89,8.55-31.31c1.56-5.8,4.86-11.02,5.71-17.02
		c1.15-8.91,4.66-17.29,8.04-25.54c6.43-14.72,13.23-29.37,17.25-44.96c3.35-9.92,6.88-19.82,8.79-30.13
		c3.91-9.15,6.01-18.9,9.41-28.21c6.32-13.43,10.25-27.86,17.3-40.97c4.34-7.78,9.65-15.2,12.27-23.8c1.41-4.45,3.23-8.77,4.5-13.26
		c2.32-7.46,6.9-14.04,8.79-21.66c0.91-5.48,4.23-9.94,6.53-14.84c3.99-8.82,8.3-17.55,10.9-26.91c4.31-7.83,7.98-16.01,12.61-23.67
		c6.63-10.45,9.08-22.81,14.21-33.95c4.9-8.15,8.65-16.94,13.77-24.96c2.02-3.79,1.78-8.28,3.45-12.18
		c4.51-7.16,7.63-15.09,11.01-22.81c0.75-6.7,5.86-11.39,8.16-17.45c4.16-11.36,9.32-22.28,14.94-32.97
		c3.15-9.76,8.4-18.61,12.16-28.11c6.14-15.76,15.15-30.4,19.44-46.87c3.58-6.23,7.5-12.29,10.74-18.74
		c2.44-5.7,7.01-10.21,9.05-16.11c4.89-15.29,13.48-28.98,18.89-44.05c4.67-13.29,14.11-24.19,18.76-37.47
		c2.99-8.2,6.55-16.18,11.25-23.56c7.66-12.28,14.24-25.16,21.21-37.83c6.92-12.74,15.93-24.14,23.42-36.53
		c6.31-8.95,13.61-17.18,19.95-26.12c4.03-5.91,11.5-7.57,16.48-12.42c11.11-9.9,24.75-16.1,37.69-23.17
		c9.2-2.55,18.13-6.12,27.5-8.09c5.99-1.83,10.88-6.12,17.01-7.62c11.49-3.41,22.48-8.5,34.41-10.36
		c17.28-2.64,33.25-10.02,49.77-15.31c14.34-2.95,29.02-5.36,42.45-11.5c16.21-5.17,33.61-5.82,49.49-12.19
		c11.43-4.56,24.19-5.25,35.08-11.2c16.11-6.56,32.4-14.88,43.58-28.63c3.52-3.85,5.59-8.69,8.41-13.02
		c-15.66-11.39-28.05-26.57-40.3-41.38c-52.69-66.9-83.1-149.42-94.82-233.23c-13.57-97.93-5.25-199.86,30.69-292.37
		c17.02-44.08,40.4-85.89,70.93-122.07C1675.8-450.64,1709.35-480.2,1748.98-499.04 M1844.45-507.5
		c-44.34,2.67-87.17,19.22-123.47,44.49c-28.45,19.35-52.6,44.41-72.98,72.01c-49.11,66.36-76.81,146.69-88.03,227.96
		c-9.02,64.71-5.14,130.84,8.54,194.62c16.47,74.66,48.58,146.86,99,204.88c22.73,25.36,49.44,47.35,79.47,63.54
		c39.38,20.8,84.64,33.23,129.35,27.37c40.19-4.39,78.58-20.44,111.69-43.36c32.2-21.92,58.89-51.1,80.85-83.11
		c17.29-24.58,31.28-51.35,43.03-78.98c27.46-65.31,41.18-136.16,42.14-206.92c-0.25-51.25-6.64-102.56-20.06-152.07
		c-17.85-65.03-48.05-127.3-92.49-178.39c-22.57-25.18-49.07-47.01-78.81-63.2C1926.55-497.83,1885.64-509.98,1844.45-507.5
		 M1681.12,300.13c-7.44,9.51-18.71,14.48-28.6,20.92c-12.15,5.64-24.5,10.99-37.36,14.77c-17.47,4.96-34.73,10.82-52.66,13.93
		c-14.8,2.97-28.71,9.16-43.56,11.95c-8.29,1.27-16.41,3.59-24.08,6.98c-9.47,4.35-19.86,5.87-29.64,9.32
		c-10.91,2.53-22,4.54-32.34,9.01c-17.61,5.55-34.64,12.66-52.02,18.82c-8.6,3.55-17.23,7.4-24.34,13.54
		c-6.51,4.84-14.15,8.39-19,15.14c-7.54,10.68-18.26,18.77-24.75,30.25c-4.73,8.74-11.36,16.28-15.96,25.09
		c-6.81,12.37-14.9,24-21.57,36.44c-7.64,13.75-12.99,28.62-20.63,42.37c-3.54,6.11-5.9,12.77-8.95,19.11
		c-7.94,14.34-13.82,29.69-21.93,43.94c-6.73,11.61-9.78,25.69-19.54,35.35c-2.17,4.46-2.92,9.56-4.91,14.13
		c-10.21,23.8-20.64,47.52-30.97,71.26c-6.39,12.06-12.21,24.41-18.07,36.73c-4.98,9.93-6.9,21.33-13.68,30.35
		c-4.38,5.47-5.24,12.66-8.49,18.73c-5.44,9.43-10.25,19.3-13.51,29.72c-4.11,10.04-10.19,19.13-14.07,29.27
		c-5.17,13.89-13.86,26.29-17.73,40.68c-3.26,9.3-7.73,18.09-11.88,27.01c-2.98,5.73-3.6,12.41-7.35,17.79
		c-4.38,6.32-5.38,14.2-9.11,20.87c-5.8,10.36-10.27,21.41-14.16,32.62c-2.93,8.73-6.87,17.14-8.82,26.19
		c-3.78,11.31-8.15,22.46-10.21,34.27c-6.15,11.27-6.47,24.56-12.55,35.84c-3.93,9.8-9.76,18.79-12.27,29.15
		c-4.74,10.29-5.51,21.71-9.24,32.33c-4.43,13.14-6.85,26.84-11.23,40c-2.31,9.84-4.89,19.75-5.62,29.84
		c2.14,12.98-2.55,26.18,0.45,39.11c1.13,9.96,2.23,20,5.72,29.49c1.81,5.03,7.79,6.15,11.02,10.01c3.8,4.42,10.04,5.02,14.53,8.48
		c7.26,5.9,16.87,7.27,25.15,11.25c5.48,2.57,11.76,1.61,17.55,2.97c5.28,0.98,10.13,3.57,15.47,4.36c9.35,1.63,18.2,5.56,27.63,6.7
		c7.4,0.23,14.71,1.56,22.13,1.47c13.02-0.11,26.01,1.41,39.03,0.57c7.15-2.21,13.94-5.71,19.88-10.29
		c10.13-5.7,19.67-12.36,29.41-18.7c4.31-3.05,9.61-4.77,13.1-8.9c4.21-4.96,10.55-7.21,15.18-11.7
		c8.1-5.21,12.52-14.46,21.35-18.79c15.84-9.47,29.57-21.89,44.87-32.13c3.06-2.54,6.45-4.66,10.22-5.97
		c3.66-1.25,6.26-4.21,9.11-6.66c3.82-3.49,8.81-5.18,13.2-7.8c7.38-4.06,13.74-9.83,21.32-13.51c8.56-3.23,17.04-7.27,26.3-7.93
		c8.79-0.97,17.59-2.52,26.47-2.32c3.42-0.04,5.77,2.83,8.31,4.73c9.46,7.25,20.03,13.03,31.39,16.75
		c6.77,3.26,14.44,3.58,21.25,6.75c8.31,4.05,17.79,3.81,26.58,6.37c6.5,2.15,13.35,0.63,20.04,1.11
		c11.41,0.5,22.81-0.99,34.02-3.05c10.44-2.25,20.81,1.54,31.3,0.44c10.27,1.62,18.95,7.77,28.57,11.33
		c5.13,1.73,10.14,4.29,13.42,8.78c3.76,5.26,10.51,6.14,15.88,9.02c2.63,1.19,5.07,3,7.96,3.6c10.91,1.17,21.19-3.69,32-4.25
		c1.52-3.08,3.79-6.21,3.2-9.84c-0.62-8.1-7.88-13.09-12.85-18.69c-5.33-4.03-9.75-9.07-13.86-14.3c-2.28-2.85-1.33-6.93-0.48-10.16
		c0.81-2.43,3.03-5.6,5.98-4.53c16.1,7.4,23.16,24.99,36.44,35.7c10.42,5.04,21.43,10.04,33.23,10.28c6.5-0.1,13.01,1.2,19.51,0.35
		c8.41-0.56,16.84,0.13,25.26-0.62c5.8-1.44,11.3-5.97,11.5-12.33c2.94-10.27-3.14-19.22-7.24-28.02
		c-4.03-6.5-7.17-13.66-12.78-19.02c-6.9-6.55-10.63-15.34-16.04-22.97c-2.88-3.7-5.22-9.13-2.56-13.55
		c4.11-3.84,11.21-2.47,15.35,0.75c4.12,4.38,6.55,10.03,9.98,14.97c2.91,5.3,7.27,9.57,10.4,14.75
		c6.33,10.03,11.55,20.76,18.78,30.24c8.4-1.08,16.76-2.4,25.14-3.72c4.11-0.87,8.89-0.44,12.65-2.72
		c6.44-5.4,9.65-13.34,13.48-20.6c-0.99-0.65-1.96-1.28-2.88-1.88c1.79-4.62,4.05-9.5,3.04-14.55c-1-5.54-3.11-10.79-4.79-16.13
		c-2.17-7.81-7.79-13.97-10.39-21.61c-1.79-5.83-7.27-9.25-9.64-14.74c-2.26-4.94-6.46-8.61-9.46-13.02
		c-4.49-8.14-10.98-14.94-15.36-23.15c-1.49-2.96-4.82-5.59-4.12-9.18c0.37-4.61,5.61-6.42,9.49-7.24
		c5.75,2.34,8.66,8.42,12.14,13.15c5.01,7.87,10.36,15.52,16.67,22.45c9.77-2.83,19.99-1.94,29.98-1.07
		c3.69,0.42,7.26-0.88,10.88-1.42c7.37-0.8,14.79,0.03,22.18,0.23c6.56,0.71,13.09-0.66,19.67-0.42
		c11.29,0.64,22.39-1.98,33.56-3.15c10.84-1.58,21.8-0.62,32.59,0.83c9.15-0.91,18.37-0.78,27.56-1.57
		c12.05-0.95,24.26,0.71,36.23-1.4c7.05-1.86,14.34-3.49,21.64-2.08c14.17-0.2,28.84-1.91,41.6-8.49
		c7.55-4.01,8.37-13.33,12.08-20.23c-8.12-1.51-16.46-1.68-24.36-4.24c-7.96-2.32-15.96-4.54-24.13-5.84
		c-6.88-2.09-13.84-3.95-20.97-4.92c-10.76-2.1-21.82-1.38-32.59-3.26c-7.04-1.16-14.24-0.1-21.24-1.49
		c-5.16-0.94-10.43-1.25-15.59-1.99c-7.48-1.45-15.26-0.71-22.52-3.33c-6.9-2.13-14.2-1.85-21.12-3.79
		c-5.48-1.68-11.19-0.07-16.7-1.19c-11.44-2.07-23-3.03-34.33-5.62c-20.52-2.82-40.84-7.29-61.58-8.32
		c-10.29-1.85-20.77-2.62-30.91-5.23c-5.5-1.21-11.17-0.54-16.71-1.23c-6.38-0.32-12.54-2.08-18.84-2.91
		c-23.32-2.64-46.96-4-70.29-0.9c-7.35,0.18-14.19,3.13-21.39,4.21c-9.46,1.34-18.81,3.47-27.84,6.57
		c-11.05,3.8-22.42,6.44-33.76,9.15c-7.44,2.07-15.21,3.08-22.18,6.55c-14.54,4.95-29.84,7.14-44.54,11.57
		c-7.87,1.62-15.8,3.06-23.45,5.6c-8.89,3.08-18.23,4.55-27.11,7.62c-6.78,2.32-13.66,4.39-20.77,5.35
		c-14.57,1.44-28.88,4.88-43.53,5.64c-7.82,0.57-15.37,2.9-23.18,3.52c-6.76,1.3-13.09,4.26-19.95,5.15
		c-11,1.43-22.04,3.45-33.15,3.28c-7.4-1.7-14.99-2.23-22.44-3.64c-11.9-0.87-23.6-3.59-35.52-4.22c-9.59-0.2-18.96-2.64-28.03-5.56
		c0.12,1.08,0.26,2.19,0.44,3.31c-7.61-4.44-16.21-5.95-24.73-7.56c-9.65-3.7-20.03-4.88-29.59-8.81
		c-12.56-3.32-23.57-10.49-35.93-14.3c-7.39-2.27-13.61-7.12-21.03-9.34c-6.7-1.99-12.65-6.29-19.7-6.97
		c-6.19-0.06-11.88-2.66-17.74-4.2c-5.3-1.12-10.75-0.6-15.98,0.42c-11.12-0.31-16.02,13.77-27.51,12.05
		c-6.21-0.93-8.36-9.87-3.75-13.88c4.63-4.04,9.02-8.54,14.38-11.64c14.06-6.78,30.06-5.37,44.88-2.32
		c4.77,1.26,9.1,3.83,13.94,4.95c2.92,0.48,5.91,0.14,8.85,0.51c2.65,1.31,3.71,4.62,6.39,5.95c6.39,3.17,13.42,4.61,20.17,6.83
		c6.94,1.8,13.32,5.94,20.65,6.05c2.85,0.17,5.36,1.74,7.6,3.43c7.52,5.61,16.56,8.91,25.76,10.54c7.24,1.75,15.39,0.53,21.59,5.47
		c16.2,4.3,32.8,7.48,49.51,9.21c9.52,0.52,18.84,2.74,28.38,3.17c8.05,0.74,15.91,3.14,23.98,3.56
		c12.36-1.78,24.82-3.16,36.99-6.11c16.12-3.89,32.56-6.35,49.09-7.62c10.66-1.28,21.23-3.33,31.91-4.51
		c19.81-5.38,39-13.18,59.3-16.77c7.15-0.67,14.21-2.36,20.8-5.27c9.46-3.25,19.01-6.49,28.95-7.96c14.26-3.58,28.55-7.1,42.9-10.33
		c5.79-1.17,10.86-4.42,16.58-5.86c6.42-1.47,12.47-4.3,19.01-5.32c9.97-1.76,19.56-5.3,29.6-6.72c7.42-0.51,14.9-0.5,22.34-0.86
		c6.92,0.89,13.98-1.76,20.76,0.5c6.89,2.4,14.19,1.75,21.3,2.66c13.04,0.58,25.73,4.72,38.84,4.37c6.95-0.15,13.78,1.4,20.51,3.04
		c12.06,2.7,24.43,3.07,36.65,4.76c12.58,2.07,25.18,4.12,37.87,5.49c7.32,1.13,14.36,3.81,21.84,4.08
		c18.73,0.76,37.11,4.47,55.59,7.26c14.35,1.23,28.39,4.78,42.85,5.07c16.51,1.98,33.01,4.19,49.61,5.44
		c15.37,1.78,30.4,5.94,44.91,11.19c9.79,1.47,20.17,0.15,29.68,3.58c4.53,1.81,6.11,6.84,7.99,10.92
		c1.96,4.09-0.07,8.53-1.22,12.55c3.39,3.62,7.34,6.61,11.49,9.34c5.69,5.79,8.17,14.03,14.18,19.63
		c7.28,7.5,13.76,18.13,25.03,19.73c14.65,3.67,29.3,7.36,43.89,11.3c7.2,1.23,13.44,5.18,20.11,7.98
		c8.55,4.11,18.02,5.89,26.48,10.27c20.01,9.71,41.23,16.5,61.44,25.77c22.29,9.93,45.71,16.98,69.31,23.07
		c11.94,0.88,22.62,6.95,34.43,8.47c5.59,1.3,10.81,3.62,16.47,4.88c8.62,2.43,18.07,2.71,26.03,7.24
		c9.59,5.05,20.81,4.54,31.17,6.88c6.45,1.87,13.5,1.36,19.65,4.32c7.48,3.69,16.03,3.04,24,4.93c18.46,4.22,37.62,4.21,55.88,9.5
		c11.76,3.44,24.25,4.68,35.26,10.39c13.5,6.55,26.97,13.72,37.68,24.42c4.43,6.43,5.3,15.26,11.89,20.19
		c5.82,5.03,9.04,12.15,13.88,18.03c3.8,4.52,6.51,9.85,7.32,15.78c-3.31,1.25-6.28,3.14-9.7,3.89
		c-4.59-5.31-5.56-13.43-12.02-17.17c-12.74-8.17-17.15-24.08-29.01-33.07c-7.27-7.18-16.93-11.04-25.27-16.71
		c-4.3-3.21-9.89-2.9-14.72-4.71c-10.07-3.44-20.44-5.85-30.57-9.08c-8.24-2.94-17.23-2.07-25.61-4.18
		c-12.87-3.31-26.09-4.97-39.12-7.2c-8.95-2.14-17.83-4.53-26.92-5.86c-7.79-0.5-14.45-4.89-21.811-6.8
		c-11.71-1.87-23.2-4.86-34.479-8.4c-15.91-2.96-30.84-10.35-47.12-11.25c-6.58-1.09-12.06-5.66-18.83-6.14
		c-15.96-1.82-28.54-13.83-44.56-15.18c-6.26-0.99-11.43-4.97-17.27-7.1c-8.63-3.12-17.26-6.16-26.01-8.85
		c-14.45-3.14-27.14-11.24-41.09-15.8c3.36,17.54,14.74,33.69,12.37,52.12c-0.72,8.31,0.39,17.05-2.67,25.02
		c-3.23,8.69-4.07,18.27-8.39,26.56c-4.01,6.2-8.48,12.2-14.01,17.13c-3.04,2.42-3.64,6.5-4.72,9.99
		c13.27,9.79,26.61,19.53,39.77,29.49c9.87,7.38,20.63,13.86,29.01,23.02c6.26,5.94,14.09,9.8,21,14.9
		c7,4.58,13.27,10.27,20.23,14.96c3.88,2.75,7.33,6.25,11.89,7.98c9.069,3.61,16.43,10.25,24.81,15.16
		c12.03,7.04,24.18,14.02,35.28,22.53c5.97,2.99,10.87,7.55,14.74,12.99c6.33-0.35,10.78,4.65,15.62,7.9
		c13.34,10.33,29.21,16.92,41.93,28.11c8.47,8.09,19.45,12.53,29.38,18.48c5.98,3.64,12.49,6.25,18.86,9.18
		c5.56,2.51,10.21,6.57,15.82,9.05c14.44,5.05,27.88,13.5,43.34,15.25c7.54-0.53,15.07-0.54,22.64-1.06
		c7.85-1.8,13.96-7.42,19.78-12.65c5.01-3.62,10.67-6.85,13.61-12.57c3.28-6.56,8.94-11.1,15.04-14.89
		c4.65-4.72,7.88-10.69,12-15.89c4.37-7.51,12-12.34,16.38-19.83c6.62-10.8,13.52-21.47,21.49-31.35c4.07-4.53,5.81-10.44,8.3-15.86
		c6.45-12.35,3.61-27.04,3.4-40.33c-0.13-13.4-3.87-26.35-6.55-39.36c-3.55-15.17-9.68-29.6-12.86-44.85
		c-3.76-12.16-5.85-24.72-8.73-37.08c-4.38-8.07-4.85-17.51-7.41-26.19c-3.01-11.18-5.01-22.63-8.93-33.54
		c-3.21-15.17-6.37-30.66-13.41-44.58c-3.82-10.21-8.52-20.14-10.79-30.84c-1.64-7.29-4.75-14.09-6.16-21.41
		c-2.62-13.88-8.13-26.99-11.48-40.67c-5.12-15.91-9.89-32.07-17.69-46.9c-3.42-7.14-5.38-14.91-9.16-21.88
		c-2.37-4.2-3.74-8.89-4.92-13.5c-4.09-11.86-10.32-22.87-13.82-34.94c-2.42-10.79-8.5-20.11-12.56-30.27
		c-5.99-16.03-14.34-31.05-19.63-47.35c-3.6-11.06-10.82-20.55-13.62-31.91c-1.54-4.95-5.28-8.75-7.29-13.47
		c-3.77-6.88-4.87-14.73-8.04-21.83c-3.15-7.15-6.21-14.34-9.45-21.43c-4.15-9.89-9.99-19.03-12.88-29.45
		c-2.78-6.17-5.46-12.37-7.99-18.64c-6.53-17.68-14.77-34.71-20.41-52.72c-0.53-4.46-4.11-7.11-6.31-10.61
		c-2.59-4.02-3.99-8.62-5.94-12.93c-4.93-13.09-12.47-24.96-17.33-38.07c-4.5-12.3-11.86-23.25-16.08-35.64
		c-10.66-20.51-17.24-42.95-29.61-62.59c-6.61-10.6-12.09-21.81-18.26-32.65c-7.21-11.1-13.68-22.74-22.01-33.05
		c-3.81-3.9-8.1-7.41-10.87-12.18c-4.75-9.28-14.63-13.41-22.36-19.62c-6.84-6.07-15.31-9.86-23.75-13.12
		c-19.94-8.55-40.18-16.36-60.51-23.9c-12.59-3.05-24.82-7.3-37.291-10.73c-8.69-2.13-16.15-7.58-24.819-9.69
		c-10-2.59-20.21-4.61-29.9-8.18c-16.73-6.97-34.85-9.32-51.95-15.06c-10.22-2.66-19.979-6.74-30.13-9.59
		c-8.61-1.95-16.02-6.79-24.03-10.21c-10.55-4.48-19.89-11.28-28.95-18.16c-6.64-6.12-11.74-13.6-17.67-20.34
		c-28.58,22.83-61.75,40.08-97.19,49.29c-36.95,9.61-76.13,9.11-113.36,1.37c-39.12-9.09-75.73-28.06-106.51-53.76
		C1689.92,289.9,1685.53,295.03,1681.12,300.13 M2112.83,1133.8c-6.8,5.62-16.16,6.01-24.58,5.66c-11.24-1.01-21.77,5.12-33.04,3.61
		c-16.5,2.71-33.26,4.25-50,3.23c-4.37-0.58-7.45,2.82-10.53,5.31c-11.49,8.76-20.69,20.04-31.37,29.69
		c-4.78,4.58-10.23,8.52-14.17,13.91c-4.27,5.52-11.24,7.92-15.91,13.02c-6.92,7.09-13.72,14.29-21.15,20.85
		c-8.15,10.13-18.29,18.37-26.98,28.01c-8.79,7.54-16.58,16.1-24.76,24.26c-4.75,5.51-5.13,13.43-10.16,18.83
		c-5.95,5.79-12.7,10.95-20.47,14.04c-2.05,0.98-4.72,1.45-5.74,3.72c-2.72,6.55-3.66,14.76,1.48,20.51
		c5.81,3.1,12.77,3.38,19.23,3.01c7.33-0.79,12.11-6.87,17.43-11.29c7.6-6.05,13.81-13.59,21.08-20.01
		c8.1-7.3,15.69-16.62,26.95-18.86c2.56,3.78,6.49,8.63,3.61,13.43c-3.81,5.2-9.84,8.22-14.88,12.09
		c-7.07,4.47-12.02,11.41-18.77,16.3c-7.7,5.87-14.21,13.04-21.25,19.64c-5.44,4.22-10.72,8.64-15.78,13.31
		c-5.47,5.52-9.86,12.11-15.98,16.99c-8.71,6.37-13.88,16.16-20.94,24.12c-5.43,5.59-7.78,13.06-10.73,20.08
		c-2.09,6.16-1.67,13.36,1.04,19.31c3.94,3.8,9.67,0.66,14.06-0.19c11.88-3.89,20.87-13.02,31.09-19.82
		c8.38-7.2,17.52-13.76,24.6-22.36c6.55-7.71,13.72-15.04,21.98-20.95c11.08-7.73,21.09-16.98,30-27.12
		c7.31-6.78,15.21-13.13,23.92-18.04c5.34-1.01,8.51,3.64,12.08,6.56c-3.78,7.84-11.99,11.23-18.78,15.83
		c-6.66,4.28-9.76,12.25-16.37,16.6c-7.28,4.88-12.73,11.86-19.54,17.29c-12.41,9.56-20.92,23.25-33.46,32.67
		c-7.5,6.56-16.59,11.24-23.04,18.97c-7.78,8.96-11.47,20.66-19.46,29.47c-4.74,4.21-3.05,10.89-3.19,16.48
		c-0.53,5.26,3.36,14.37,10.05,11.8c11.18-3.25,22.86-5.01,33.58-9.74c6.38-2.5,8.02-9.99,12.52-14.5
		c7.7-7.69,16.41-14.29,24.73-21.28c10.92-12.43,25.04-21.56,35.54-34.43c11.22-14.4,26.44-24.88,38.25-38.76
		c4.98-3.81,10.27-8.63,16.76-9.09c2.25,2.58,5.78,5.85,4.89,9.7c-2.52,5.26-8.42,7.73-12.54,11.44
		c-12.3,8.22-20.73,20.64-30.8,31.2c-5.85,5.22-11.05,11.08-15.92,17.19c-12.71,12.29-25.61,24.43-39.39,35.54
		c-5.91,4.04-9.19,10.72-11.69,17.19c-1.15,4.91,3.66,8.5,7.8,9.62c15.19-0.98,29.14-7.71,42.66-14.19
		c8.5-5.32,15.52-12.68,24.32-17.61c16.13-12.27,34.38-21.75,49.33-35.55c6.06-9.18,16.87-12.83,24.3-20.6
		c17.53-11.69,34.53-24.29,53.47-33.66c7.31-3.69,12.04-10.83,19.15-14.81c5.38-1.24,11.11,0.33,16.66,0.53
		c0.9,2.9,2.42,5.76,2.37,8.88c-0.55,4.27-2.23,8.27-3.22,12.46c-3.83,12.06-3.65,24.86-8.07,36.82
		c-3.71,10.48-0.32,21.25,2.31,31.54c3.82,13.25,19.61,22.75,32.85,16.56c3.06-3.49,7.08-7.7,6.24-12.81
		c-1.23-9.02-2.34-18.32-0.42-27.31c4.47-16.26,11.17-31.78,17.84-47.22c3.29-7.68,4.78-16.25,10-22.98
		c5.01-5.98,7.64-13.36,10.86-20.34c4.2-8.4,11.87-14.26,16.71-22.22c5.83-7.75,10.479-16.54,18.06-22.79
		c20.75-20.96,23.92-54.26,16.57-81.54c-1.95-10.45-8.14-19.37-14.42-27.64c-7.31-5.27-12.83-12.92-21.7-15.86
		c-5.68-3.16-11.58-6.13-17.97-7.42c-8.59-1.29-16.54-4.94-24.45-8.31c-7.13-1.89-11.01-8.61-16-13.37
		c-4.12-3.53-6.4-8.31-9.5-12.57c-4.11-3.81-7.7-9.03-13.41-10.48C2121.97,1124.49,2117.99,1130.75,2112.83,1133.8 M1941.71,1148.19
		c-8.31,0.95-16.67,1.13-24.95,2.24c-9.83-0.26-19.69-0.26-29.51-0.73c-7,0.66-14.03,0.7-21.03,1.04
		c-7.26,1.23-15.05-0.68-21.79,2.97c1.24,5.74,3,11.48,6.56,16.26c3.89,5.04,3.77,11.68,5.85,17.49c1.3,3.55,3,6.97,3.84,10.7
		c1.64,9.02,4.79,18.61,0.89,27.52c-1.78,8.14-5.52,15.56-10.81,21.99c-1.19,5.34,2.87,10.37,3.9,15.58
		c8.09-9.08,18.33-16.06,25.76-25.77c13.75-16.53,30.34-30.37,45.2-45.84c5.96-5.03,12.07-9.89,17.41-15.6
		c4.81-5.25,11.01-9,15.49-14.57c4.24-4.7,9.33-8.53,13.85-12.96C1962.12,1149.17,1951.86,1146.16,1941.71,1148.19 M1802.43,1264.56
		c-2.47,0.29-4.92,1.6-5.72,4.09c-1.83,5.41-5.02,12.32-0.98,17.61c4.25,5.03,11.13,6.69,17.29,8.02c4.74,0.71,10,3.67,14.84,1.45
		c5.64-2.7,12.33-6.87,11.2-14.25c1.37-7.32-2.06-14.18-4.59-20.81C1823.86,1262.6,1812.97,1262.18,1802.43,1264.56 M-63.97-520.04
		c35.88-4.45,72.96-2.28,107.29,9.56c39.79,13.01,75.76,36.37,105.46,65.7c48.15,45.7,82.07,104.73,103.74,167.12
		c26.28,75.24,34.19,156.09,29.16,235.35c-4.96,66.66-21,132.81-49.77,193.28c-25.76,54.22-62.86,103.73-110.53,140.56
		c3.28,12.04,12.84,21.16,22.03,29c14.07,10.92,30.13,19.13,46.7,25.51c9.88,4.15,19.66,8.58,29.88,11.9
		c9.7,3.32,19.84,5.52,29.05,10.21c12.87,7.24,27.48,10.35,41.1,15.8c12.39,5.48,24.18,12.35,37.06,16.71
		c9.4,3.68,19.5,5.63,28.41,10.5c5,2.56,10.08,4.95,15.23,7.24c6.05,2.37,10.68,7.24,16.77,9.57c6.94,2.3,13.58,5.35,20.31,8.22
		c8.53,3.51,15.54,9.67,23.19,14.67c6.97,4.54,12.67,10.69,18.44,16.62c4.32,4.3,10.47,6.81,13.55,12.29
		c6.67,12.87,15.6,24.46,21.43,37.78c6.58,12.61,13.72,24.99,18.5,38.44c3.8,9.38,7.38,18.86,12.08,27.85
		c5.79,11.03,7.75,23.48,12.29,35.01c3.66,10.19,9.21,19.67,11.69,30.28c3.51,13.51,9.17,26.33,12.71,39.84
		c2.79,13.31,10.13,24.99,15.13,37.5c5.11,8.66,4.23,19.32,8.16,28.51c5.79,14.13,9.32,29,14.36,43.4
		c3.14,12.96,8.99,25.01,12.39,37.89c2.94,10.69,7.44,20.82,10.17,31.58c2.43,10.75,8.7,20.37,9.2,31.59
		c2.55,6.51,5.57,12.88,8.11,19.42c6.31,13.48,6.8,28.92,13.52,42.27c3.56,6.9,4.82,14.7,8.67,21.51c2.15,4.13,2.14,8.93,3.65,13.3
		c2.95,12.57,8.94,24.2,11.24,36.94c5.92,16.06,7.31,33.52,14.58,49.13c4.54,9.62,7.65,19.83,10.91,29.94
		c5.29,20.07,11.14,40.19,13.39,60.88c2.59,14.21,5.27,28.45,9.33,42.33c3.33,14.39,9.23,28.08,11.73,42.68
		c4.37,24.31,8.9,48.61,11.89,73.15c-6.6-0.08-13.18-0.07-19.73,0.01c0.59-11.01-3.35-21.61-4.56-32.45
		c-1.46-14.49-5.5-28.56-6.92-43.04c-1.96-10.86-4.25-21.69-8.62-31.86c-5.96-14.49-6.17-30.33-11.03-45.09
		c-1.26-15.23-5.89-29.83-8.15-44.89c-4.08-15.14-6.92-30.68-12.64-45.32c-4.32-10.15-6.61-21-10.73-31.2
		c-2.22-9.35-5.06-18.53-8.35-27.54c-3.27-9.04-4.41-18.63-7.36-27.71c-7.37-18.78-12.49-38.31-20.03-57.01
		c-2.53-9.78-5.37-19.5-9.22-28.84c-3.69-8.4-4.46-17.83-9.12-25.81c-4.89-8.64-5.52-18.79-8.97-27.95
		c-4.54-14.06-9.71-27.91-15.14-41.63c-8.39-29.25-19.46-57.74-26.16-87.48c-2.23-4.25-5.73-7.83-7.02-12.58
		c-5.49-18.26-13.57-35.56-19.19-53.77c-2.16-7.77-5.97-14.9-8.46-22.54c-2.56-10.45-7.73-19.96-10.89-30.2
		c-5.01-16.52-11-32.75-18.82-48.15c-4.9-9.37-8.38-19.4-13.24-28.78c-5.52-9.85-9.76-20.39-16.09-29.77
		c-3.59-6.92-10.05-11.81-13.32-18.94c-3.87-7.84-11.49-12.47-17.62-18.32c-8.04-8.15-18.01-13.94-28.24-18.85
		c-14.99-7.27-29.64-15.24-44.9-21.92c-14.29-7.64-30.19-11.39-44.9-18.1c-11.39-3.68-20.79-11.69-32.51-14.49
		c-10.45-3.07-20.58-7.14-30.48-11.63c-13.59-6.46-28.51-9.39-42.22-15.54c-16.75-7.15-34.09-13.16-49.87-22.38
		c-11.49-6-21.45-14.36-31.3-22.66c-5.98-6.89-10.82-14.66-15.8-22.27c-25.88,17.25-54.62,30.47-85.04,37.27
		c-28.73,6.02-58.52,7.21-87.64,3.48c-33.41-4.8-65.54-17.13-94.28-34.71c-6.09,10.24-12.94,20.72-23.19,27.23
		c-9.15,6.97-19.06,12.87-29.58,17.51c-9.18,6.1-20.22,7.52-30.58,10.46c-5.58,2.39-13.05,7.57-10.68,14.79
		c1.67,6.12,9.61,6.54,14.4,8.95c16.03,7.2,32.69,12.74,49.28,18.48c12.54,5.76,25.07,11.69,38.39,15.47
		c12.2,3.23,24.08,9,32.98,18.08c9.54,11.37,3.17,26.53,0.73,39.32c-2.28,11.06-9.88,20.17-11.64,31.36
		c-0.87,4.68-4.32,9.34-1.23,14.07c5.59,15.11,2.49,31.6-1.96,46.55c-5.72,19.58-19.61,35.43-35.4,47.78
		c-2.19,10.35-1.66,20.98-2.58,31.48c-1.72,7.92-4.49,15.82-9.37,22.39c-7.08,8.05-18.33,8.75-27.19,13.85
		c-18.17,9.25-38.85,10.41-58.62,13.62c-7.99,3.35-15.2,8.46-22.2,13.49c-14.69,13.67-30.66,25.93-44.5,40.52
		c-37.09,35.76-69.42,76.76-93.62,122.33c-7.73,14.3-14.17,29.28-19.49,44.63c-9.94,27.33-14.18,56.28-17.95,84.99
		c-12.07,97.37-13.95,196.24-35.67,292.26c-10.11,45.3-25.18,90.16-50.88,129.17c-26.15,39.79-58.89,75.96-99.13,101.86
		c-33.95,22.52-73.73,38.54-114.99,37.97c-11.62-1.1-23.81-3.32-33.27-10.67c-10.27-7.3-17.05-18.13-23.21-28.86
		c-8.63-14.99-14-31.55-19.03-48.01c-14.35-52.34-17.99-107.26-14.26-161.26c2.12-25.66,6.28-51.19,12.99-76.06
		c3.7-10.97,6.92-22.11,10.83-32.99c5.64-10.68,7.57-22.71,11.89-33.9c3.31-12.92,6.46-25.96,11.94-38.19
		c5.02-10.29,3.88-22.24,8.72-32.61c4.99-11.35,7.59-23.56,12.86-34.81c3.56-9.95,10.06-18.61,12.88-28.83
		c1.28-5.36,3.89-10.31,4.76-15.77c2.02-8.25,6.54-15.67,8.04-24.07c4.46-12.62,11.32-24.44,14.26-37.61
		c0.95-5.48,4.8-9.78,6.7-14.89c2.92-9.33,8.88-17.34,11.58-26.75c2.89-7.07,3.56-14.94,7.38-21.62c3.8-6.79,6.08-14.3,9.99-21.02
		c3.19-5.12,1.86-11.78,5.2-16.85c3.49-5.13,4.16-11.5,6.97-16.96c2.19-3.93,2.46-8.57,4.4-12.56c7.01-11.38,9.01-24.98,15.17-36.76
		c3.39-6.2,4.15-13.39,7.39-19.63c3.91-7.97,6.86-16.35,9.37-24.83c5.82-12.9,11.04-26.11,14.71-39.78
		c5.88-11.84,12.45-23.4,17.72-35.52c4.25-15.81,12.33-30.16,17.13-45.75c4.02-12.69,11.97-23.67,16.27-36.23
		c3.64-8.95,5.98-18.43,11.14-26.69c8.56-14.31,14.43-29.99,22.28-44.67c7.02-11.11,13.29-22.67,20.16-33.87
		c5.19-7.18,10.75-14.13,15.13-21.84c3.23-6.09,10.21-8.5,15.26-12.75c6.83-6.24,13.43-13.05,21.95-16.98
		c5.96-2.67,10.84-7.04,16.06-10.84c6.39-4.3,16.59-5.44,19.64-13.54c5.29-11.94,10.87-24.3,20.68-33.29
		c20.76-19.55,45.71-33.95,66.48-53.5c5.88-4.47,10.01-10.66,15.35-15.68c17.04-16.3,34.02-32.65,51.26-48.73
		c9.86-9.18,17.61-20.4,27.89-29.14c5.75-4.98,11.51-10.08,15.79-16.44c-47.85-67.01-74.99-147.33-84.89-228.65
		c-11.49-94.41-2.66-192.17,31.8-281.19c16.95-44.12,40.28-85.98,70.75-122.22c23.79-27.99,51.08-53.43,82.9-72.09
		C-127.77-504.39-96.52-516.21-63.97-520.04 M-52.55-505.46c-36.61,3.85-71.82,17.45-102.82,37.07
		c-35.16,21.89-64.46,52.15-88.06,85.99c-20.72,28.91-37,60.79-50.08,93.8c-33.4,85.85-44.95,180.25-32.49,271.56
		c9.83,78.88,36.67,156.17,81.74,221.93c4.39-8.24,13.44-11.95,19.67-18.48c6.06-6.29,12.98-11.89,17.81-19.26
		c4.68-6.86,11.72-11.59,17.35-17.58c5-5.02,8.49-11.49,14.47-15.51c8.19-6.02,15.88-13.2,25.76-16.37
		c7.09-2.31,14.69-5.18,22.19-2.59c6.2,0.93,11.2,5.01,17.1,6.76c6.79,0.88,12.27-3.72,17.75-6.93
		c6.63-3.83,10.61-11.83,18.49-13.51c11.51-0.37,22.15,5.58,33.66,5.27c6.62-0.97,11.89-5.82,18.36-7.28
		c8.12-0.98,14.65,4.72,21.91,7.22c7.61,3.33,17.2,3.44,22.99,10.13c3.17,2.73,6.23,8.37,2.48,11.92c-5,3.71-11.31,5.02-17.22,6.48
		c-6.42-5.18-13.56-9.83-21.55-12.07c-7.71-1.75-14.84,2.36-22.34,3.21c-10.11,0.55-19.81-2.98-29.7-4.45
		c-7.61-1.96-13.78,4.76-19.76,8.31c-4.75,4.39-12.03,4.71-16.1,9.91c-9.9,12.59-10.97,29.36-19.14,42.87
		c-6.43,10.55-10.7,22.5-19.16,31.71c-11.91,14.33-19.04,31.87-31,46.16c-2.9,4.35-7.84,7.71-8.88,13.06
		c2.66,3.78,6.91,5.93,10.47,8.76c40.11,28.25,88.16,47.16,137.65,47.24c71.76-1.15,139.27-38.76,185.9-91.99
		c59.71-67.9,93.27-155.46,106.89-244.01c12.55-82.31,5.36-167.3-18.75-246.88c-19.37-62.13-50.2-121.45-94.78-169.25
		c-29.22-30.59-64.7-55.74-104.59-70.28C13.13-503.89-20.02-509.73-52.55-505.46 M-163.41,148.58c-8.82,8.51-17.39,17.3-26.66,25.35
		c-6.85,6.13-14.38,11.66-19.98,19.04c-6.34,8.05-14.95,13.82-22.87,20.16c-6.11,4.89-10.31,11.64-15.64,17.28
		c-6.92,6.07-13.71,12.31-19.86,19.18c-17.05,21.51-39.57,37.8-57.13,58.87c-8.79,7.87-18.65,14.74-25.56,24.51
		c-11.74,12.35-26.48,21.39-38.92,32.99c-9.98,9.82-22.57,16.56-31.84,27.16c-10.92,13.54-19.37,29.15-23.93,45.99
		c-8.18,28.6-11.52,58.25-17.81,87.27C-474.36,577.05-492.2,625.84-511,674c-18.24,46.11-38.31,91.56-61.52,135.41
		c-27.92,53.49-62.95,102.79-95.83,153.25c-46.8,71.61-94.21,143.23-131.74,220.28c-11.76,25.16-23.13,50.81-28.87,78.13
		c-5.98,24.21-8.32,49.1-9.89,73.93c-1.58,51.23,2.51,103.33,18.44,152.32c6.7,19.03,14.61,38.46,29.17,52.93
		c6.56,6.82,16.37,8.5,25.36,9.58c20.72,0.73,41.4-3.62,60.67-11.07c35.19-13.28,66.21-35.86,92.97-62
		c31.36-32.53,58.41-69.98,74.71-112.37c17.29-44.07,26.33-90.86,33.31-137.53c8.95-63.34,12.89-127.24,19.28-190.86
		c5.15-44.37,9.79-89.57,26.48-131.39c15.91-41.83,40.9-79.56,68.71-114.38c28.07-35.18,61.61-65.41,95.48-94.83
		c-6.94-6.02-14.06-13.53-13.84-23.39c-1.39-12.29,4.08-24.75,13.45-32.62c8.42-5.53,18.35-7.99,27.72-11.43
		c4.42-1.49,10.52-3.27,13.73,1.24c3.17,3.42,2.07,8.39-0.95,11.57c-7.96,5.05-17.58,5.95-25.98,9.98
		c-7.15,2.62-11.83,10.76-11.01,18.27c-1.58,7.75,6.33,13.16,13.15,13.54c8.7-0.04,17.39-1.03,25.97-2.51
		c12.65-1.81,24.42-7.05,36.61-10.6c7.87-3.41,17.3-6.05,22.11-13.71c2.45-10.79,4.93-22.61,2.06-33.57
		c-8.11-12.88-20.92-21.98-29.36-34.6c-0.84-4.91,2.86-8.7,4.58-12.86c12.36,3.67,18.72,15.42,27.93,23.41
		c2.55,2.83,6.71,4.11,10.33,2.1c9.24-5.81,18.78-12.53,22.83-23.18c4.86-12.32,9.23-26.13,5.17-39.32
		c-2.03-5.71-7.99-8.55-13.14-10.8c-10.53-4.06-21.87-6.92-30.66-14.39c-8.55-7.19-19.67-10.39-27.73-18.22
		c-2.69-2.63-6.04-5.51-6.18-9.55c0.69-3.13,2.46-6.64,5.84-7.42c4.37-0.99,7.74,2.03,10.9,4.41c5.44,4.43,11.51,8.06,17.79,11.21
		c5.25,2.43,9.3,6.68,14.15,9.78c5.36,4.34,12.47,4.85,18.68,7.42c2.72,0.63,6.25,2.87,8.61,0.35c4.78-5.27,5.05-12.87,7.87-19.17
		c4.06-12,12.42-23.68,10.25-36.94c-2.28-4.74-6.58-8.25-10.92-11.01c-9.1-4.26-18.16-8.73-27.82-11.61
		c-9.02-3.53-17.28-8.68-26.16-12.51c-6.85-2.74-14.26-3.59-21.31-5.67c-16.95-4.2-32.03-14.7-49.73-16.03
		c-5.54-0.46-11.54,2.18-16.73-0.48c-4.14-2.34-3.18-8.37-0.33-11.45c5.95-7.03,13.47-12.57,19.1-19.92
		c12.04-15.3,25.91-29.21,35.66-46.2c3.43-6.47,8.47-11.9,11.79-18.43c9.58-17.75,25.07-31.26,35.36-48.52
		c4.61-7.52,11.19-13.49,16.61-20.37c11.83-21.68,28.49-40.83,36.98-64.29c3.98-8.95,5.2-18.79,7.08-28.32
		c-3.92-1.86-7.47-5.13-12.17-4.42C-146.63,135.03-156.13,141.33-163.41,148.58 M-191.93,286.03c-5.11,7.52-10.15,15.1-15.88,22.18
		c-5.31,6.64-8.07,14.93-13.57,21.43c-2.8,3.38-5.6,6.83-7.49,10.83c3.74,0.17,7.31-0.99,10.52-2.84
		c10.7-5.97,21.8-11.69,30.74-20.23c4.79-5.77,10.46-11.1,13.35-18.19C-180.27,294.97-185.98,290.34-191.93,286.03 M-468.03,442.75
		c-5.33,5.61-12.73,8.58-18.59,13.53c-7.86,6.46-17.41,11.44-22.44,20.67c-1.88,3.02-3.92,5.99-6.49,8.48
		c-7.13,6.81-12.01,15.51-16.81,24.02c-4.24,7.74-9.54,14.87-13.27,22.9c-6.89,14.54-15.85,28.04-22.01,42.93
		c-5.92,14.06-11.15,28.43-18.04,42.05c-4.17,13.12-11.43,24.95-15.81,37.99c-3.66,10.56-9.57,20.17-13.52,30.62
		c-4.19,10.75-8.89,21.29-14.34,31.46c-7.71,20.97-15.71,41.84-23.54,62.76c-4.35,8.43-5.94,17.93-10.41,26.31
		c-6.31,14.15-12.99,28.16-17.99,42.85c-1.61,6.13-3.03,12.49-6.49,17.91c-5.22,7.9-7,17.36-11.25,25.74
		c-6.37,12.46-8.98,26.39-15.18,38.93c-7.69,14.69-11.6,30.99-19.13,45.76c-3.45,12.67-7.91,25.04-13.15,37.09
		c-3.45,6.99-3.84,15.1-8.03,21.77c-3.37,5.03-3.73,11.28-6.13,16.76c-4.22,9.46-8.85,18.82-11.37,28.93
		c-2.87,10.19-7.9,19.67-10.19,30.03c14.49-23.98,28.52-48.25,43.6-71.87c38.28-61.6,79.77-121.12,118.56-182.39
		c31.35-48.93,56-101.77,79-155.01c19.35-46.1,37.11-92.92,51.29-140.87c11.46-38.97,16.55-79.34,24.98-118.98
		C-465.87,442.97-466.95,442.87-468.03,442.75 M899.13-151c0.03-5.39,6.51-8.7,11.25-6.45c3.7,1.38,5,5.81,4.5,9.45
		c0.52,20.66-0.12,41.33,0.13,61.99c21.66,0.27,43.33-0.45,64.99,0.14c5.39,0.02,8.66,6.53,6.45,11.25
		c-1.37,3.69-5.86,5.03-9.45,4.5c-20.67,0.52-41.34-0.11-61.99,0.13c-0.28,21.66,0.43,43.33-0.14,64.99
		c-0.02,5.39-6.56,8.68-11.25,6.45c-3.68-1.38-5.09-5.83-4.5-9.45c-0.54-20.66,0.1-41.33-0.13-61.99
		c-21.67-0.27-43.35,0.44-64.99-0.14c-5.38-0.02-8.71-6.54-6.45-11.25c1.39-3.69,5.78-5.06,9.45-4.5
		c20.65-0.53,41.32,0.11,61.99-0.13C899.25-107.68,898.54-129.35,899.13-151 M-33.2,156.31c6.73,0.38,13.89,3.38,17.85,9.06
		c2.3,3.44-0.52,8.2-4.32,8.88c-9.04,1.13-18.42-0.86-27.28,1.69c-5.74,1.11-12.56,3.61-17.84-0.16c-2.71-1.38-1.69-5.62,0.53-7.04
		C-55.27,161.9-44.11,158.58-33.2,156.31 M2204.69,980.51c19.31,1.54,38.37,6.07,56.23,13.66c9.71,4.18,18.7,9.82,27.84,15.12
		c-1.17-7.3-2.37-14.8-1.59-22.18c0.89-6.74,12.11-8.39,14.84-2.1c4.5,7.72,1.05,17.45,5.79,25.11
		c8.07,14.65,15.88,29.62,26.43,42.7c11.12,14.42,16.15,34.27,10.5,51.91c-6.98,16.6-24.47,26.26-41.72,28.37
		c-25.27,4.44-50.97-2.65-74.57-11.28c-12.95-4.06-23.55-12.83-35.45-18.98c-0.28,6.34,0.02,12.69-0.33,19.05
		c-0.42,3.93-4.47,5.61-7.37,7.49c-3.43-6.77-9.84-12.72-9.87-20.73c-0.32-6.12-3.13-11.72-5.58-17.21
		c-6.28-17.61-21.71-30.21-27.08-48.29c-2.68-8.07-3.26-16.75-2.76-25.16c2.01-15.49,14.78-27.15,28.83-32.38
		C2180.02,980.48,2192.65,981.01,2204.69,980.51 M2166.97,1005.98c-6.99,3.77-11.42,12.09-10.1,20.03
		c0.1,7.89,2.52,15.69,6.59,22.45c2.84,4.64,5.79,10.15,11.76,11.14c12.88,4.61,26.939-0.32,39.95,3.16
		c7.19,1.9,7.92,13.77,0.71,15.9c-8.38,0.15-16.87-0.03-25.21,0.53c14.8,11.6,30.65,22.5,48.67,28.4
		c19.31,7.14,40.08,11.45,60.73,8.65c9.58-0.99,19.34-4.99,25.63-12.52c8.23-10.41,3.55-25.11-1.71-35.81
		c-6.22-8.5-11.26-18.62-20.23-24.56c-11.25-2.67-22.97-0.71-34.31-0.06c-2.01-3.97-3.96-8.06-4.67-12.45
		c5.03-2.98,10.51-5.01,16.22-6.32c-22.21-14.67-47.9-24.63-74.54-26.72C2192.93,997.34,2178.41,997.89,2166.97,1005.98
		L2166.97,1005.98z"/>
</g>
</svg>
