<?xml version="1.0" encoding="iso-8859-1"?>
<!-- Generator: Adobe Illustrator 28.5.0, SVG Export Plug-In . SVG Version: 9.03 Build 54727)  -->
<svg version="1.1" id="Layer_1" xmlns="http://www.w3.org/2000/svg" xmlns:xlink="http://www.w3.org/1999/xlink" x="0px" y="0px"
	 viewBox="0 0 1920 1080" style="enable-background:new 0 0 1920 1080;" xml:space="preserve">
<g>
	<path style="fill:#FFFFFF;" d="M133-531h1654v2143H133V-531 M968.03-505.91c-46.4,3.93-90.64,23.37-127.45,51.46
		C782.37-409.48,740-346.3,714.08-277.9c-34.24,88.82-42.97,186.29-31.53,280.44c9.9,81.34,37.08,161.65,84.9,228.69
		c-6.6,9.71-16.62,16.18-24.46,24.75c-24.62,28.99-55.21,52.16-80.59,80.42c-22.04,21.69-49.13,37.24-71.71,58.29
		c-10.76,9.63-15.93,23.36-22.12,35.97c-5.07,6.45-14.23,7.41-20.41,12.45c-4.49,3.65-9.2,7.06-14.45,9.56
		c-8.49,3.98-14.94,10.97-21.88,17.08c-5,3.95-11.56,6.51-14.74,12.33c-4.41,7.7-9.93,14.66-15.12,21.83
		c-6.97,11.42-13.43,23.15-20.52,34.5c-5.33,10.5-10.28,21.19-15.22,31.88c-3.65,6.94-7.8,13.62-11.09,20.76
		c-2.64,5.6-3.99,11.71-6.49,17.39c-4.6,13.47-13.14,25.24-17.23,38.93c-3.55,12.19-10.04,23.25-13.68,35.41
		c-4.37,15.65-13.82,29.17-20.39,43.9c-1.95,7.87-5.09,15.34-7.71,23c-2.81,8.06-7.34,15.46-9.33,23.82
		c-2.04,6.57-4.85,12.89-7.75,19.12c-2.77,5.9-3.63,12.51-6.78,18.27c-5.96,11.61-8.16,24.85-14.78,36.16
		c-2.21,4.13-2.63,8.97-4.79,13.15c-2.66,5.52-3.63,11.75-6.95,16.96c-3.2,5.12-2.2,11.67-5.23,16.85
		c-3.78,6.78-6.25,14.2-9.97,21.03c-3.76,6.7-4.5,14.54-7.39,21.62c-2.77,9.38-8.55,17.46-11.61,26.74
		c-1.89,5.1-5.61,9.46-6.65,14.89c-2.99,12.86-9.41,24.54-14.03,36.82c-1.52,7.26-4.56,14.03-7.14,20.96
		c-3.56,12.27-6.7,24.86-13.06,36.07c-8.45,15.74-12.79,33.12-19.39,49.61c-4.07,9.73-3.21,20.74-7.92,30.26
		c-7.35,16.19-9.99,33.91-16.03,50.55c-2.18,11.29-8.57,21.07-11.34,32.16c-12.82,35.55-19.03,73.21-21.02,110.86
		c-2.32,50.79,1.83,102.27,15.73,151.31c7.17,23.86,16.51,47.82,33.04,66.87c10.63,12.4,26.93,17.53,42.74,18.19
		c28.48,0.24,56.6-7.54,82.14-19.83c38.07-18.54,71.93-45.48,99.22-77.78c25.95-30.04,47.73-64,61.8-101.22
		c18.45-47.8,27.69-98.56,34.79-149.12c7.87-58.97,11.74-118.37,17.67-177.54c3.8-34.39,7.26-69.02,16.22-102.53
		c6.2-21.76,14.57-42.94,25.28-62.87c24.21-45.57,56.53-86.57,93.62-122.33c13.85-14.57,29.79-26.87,44.5-40.51
		c7-5.04,14.2-10.17,22.2-13.49c19.77-3.23,40.44-4.38,58.62-13.63c9.07-5.15,20.64-5.9,27.63-14.4c5.73-8.74,9.73-19.11,9.38-29.69
		c0.37-7.81-0.3-15.91,2.85-23.26c3.54-4.06,7.65-7.58,11.36-11.47c15.2-13.19,23.97-32.56,26.98-52.21
		c1.82-9.23,2.06-18.96-0.82-28c-0.56-3.4-3.06-6.79-1.69-10.24c2.25-6.25,2.78-13.06,6.05-18.93c4.56-9.07,8.05-18.68,9.7-28.72
		c2.89-10,4.29-22.05-3.24-30.43c-9.15-8.89-20.99-14.55-33.24-17.77c-18.32-4.88-34.47-15.3-52.67-20.46
		c-14.8-4.6-28.81-11.28-43.27-16.74c-5.73-1.39-7.74-9.39-3.91-13.61c3.87-4.99,9.95-7.36,15.99-8.49
		c8.53-1.71,16.98-4.25,24.4-8.94c12.98-5.61,24.77-13.62,35.79-22.42c6.34-6.58,11.85-14,16.34-21.97
		c33.41,20.37,71.43,33.85,110.63,36.34c33.38,1.66,67.53-1.43,99-13.3c20.34-6.99,39.36-17.34,57.32-29.09
		c4.68,7.27,9.41,14.54,14.88,21.24c15.72,14.82,34.39,26.27,54.3,34.58c16.98,6.85,33.59,14.71,51.19,19.87
		c12.13,3.48,23.24,9.54,35.02,13.94c10.94,4.38,22.89,6.42,32.87,13.02c15.17,7.6,31.29,13.2,47.24,18.93
		c22,9.99,43.59,20.86,65.11,31.82c11.4,5.78,20.07,15.28,29.82,23.31c5.76,4.58,7.97,11.85,12.56,17.36
		c10.7,11.87,16.72,26.93,24.26,40.8c4.85,9.38,8.35,19.39,13.24,28.77c7.44,14.73,13.35,30.16,18.09,45.97
		c3.61,11.75,9.36,22.72,12.37,34.67c6.85,15.68,11.08,32.33,17.8,48.07c4.03,9.6,6.39,19.83,10.55,29.39
		c1.39,3.63,4.66,6.22,5.75,9.98c2.92,11.95,6.04,23.88,9.86,35.6c4.74,12.85,7.81,26.26,12.66,39.08
		c4.74,18.08,13.06,34.96,18.37,52.88c3.57,9.39,4.25,19.77,9.2,28.66c4.62,7.99,5.47,17.4,9.12,25.8
		c5.64,12.6,7.59,26.4,12.97,39.1c5.32,12.89,8.35,26.56,13.55,39.51c2.4,6.1,4.63,12.28,5.66,18.79
		c3.01,14.66,9.44,28.32,12.55,42.95c4.15,10.74,6.78,22.02,11.22,32.66c5.54,14.44,8.38,29.71,12.37,44.62
		c2.32,15.05,6.83,29.68,8.2,44.9c4.73,14.79,5.1,30.58,11.01,45.08c4.31,10.18,6.66,20.99,8.6,31.85
		c1.45,14.48,5.45,28.56,6.92,43.04c1.25,10.83,5.08,21.41,4.58,32.4c6.55,0.04,13.12,0.04,19.72,0.01
		c-3.02-24.52-7.52-48.81-11.9-73.1c-2.07-10.97-5.44-21.63-8.95-32.19c-5.22-18.44-9.67-37.11-12.59-56.05
		c-0.68-10.18-3.96-19.96-5.67-29.96c-4.9-19.79-9.96-39.72-18.45-58.33c-5.8-12.63-7.71-26.53-11.49-39.79
		c-3.71-10.56-5.54-21.66-9.91-31.99c-4.25-10.8-4.87-22.72-10.53-32.97c-2.02-5.43-3.62-10.99-6.24-16.16
		c-6.43-13.17-6.99-28.31-13.19-41.55c-2.46-6.14-5.12-12.21-7.71-18.27c-1.34-4.27-1.11-8.86-2.7-13.05
		c-5.92-13.34-8.49-27.82-13.98-41.3c-4.77-17.19-11.6-33.68-16.44-50.84c-4.18-11.18-6.55-22.92-11-33.99
		c-3.86-9.28-5.97-19.17-7.83-28.98c-6.06-14.99-14.84-29.04-18.29-44.98c-3.5-12.97-8.92-25.31-12.28-38.31
		c-2.49-10.62-8.03-20.1-11.69-30.28c-4.51-11.55-6.54-23.98-12.29-35.03c-4.69-8.98-8.29-18.46-12.07-27.84
		c-4.79-13.45-11.94-25.82-18.5-38.44c-5.76-13.08-14.47-24.51-21.08-37.13c-3.52-6.68-11.2-9.35-15.9-14.99
		c-9.28-10.34-20.94-18.01-32.49-25.52c-12.58-7.77-27.79-10.17-39.65-19.18c-12.53-5.5-24.25-12.97-37.6-16.45
		c-13.99-4.17-27.23-10.27-40.2-16.86c-14.9-7.74-31.88-10.31-46.67-18.3c-12.8-6.8-27.28-9.15-40.59-14.64
		c-23.71-9.93-48.54-18.64-68.57-35.28c-8.6-7.55-17.26-16.33-20.46-27.66c53.8-41.47,93.87-98.97,119.87-161.36
		c30-71.57,43.39-149.72,41.83-227.18c-1.02-66.38-11.85-133.06-35.82-195.14c-24.55-65.19-63.95-125.59-117.9-170.19
		c-31.13-25.96-68.13-45.18-107.72-54.23C1020.25-507.58,993.88-508.21,968.03-505.91 M971.45-490.46
		c32.53-4.27,65.68,1.58,96.23,12.92c39.88,14.55,75.36,39.69,104.58,70.28c44.58,47.81,75.41,107.12,94.78,169.25
		c23.22,76.73,30.82,158.51,19.99,238.05c-8.26,60.41-25.75,119.83-54.13,173.91c-17.73,33.67-39.86,65.21-66.6,92.35
		c-46.67,47.14-111.1,79.2-178.3,78.55c-49.2-1.49-96.61-20.97-136.11-49.71c-2.47-1.92-5.25-3.62-7-6.27
		c0.19-1.79,1.09-3.39,2.18-4.77c6.72-8.35,13.64-16.61,18.99-25.93c4.48-7.75,8.98-15.51,14.35-22.69
		c4.27-6.36,9.98-11.71,13.33-18.69c3.88-7.38,7.81-14.73,11.87-22.02c6.78-12.84,8.25-28.1,17.46-39.69
		c4.11-5.16,11.3-5.6,16.08-9.93c5.99-3.53,12.15-10.22,19.76-8.3c9.89,1.45,19.6,5.02,29.71,4.43c7.27-0.81,14.14-4.66,21.62-3.33
		c8.39,1.6,14.8,7.73,22.28,11.35c6.13,0.2,12.23-2.14,17.18-5.64c3.81-3.5,0.7-9.19-2.44-11.91c-5.81-6.67-15.39-6.79-22.99-10.14
		c-7.27-2.49-13.81-8.15-21.92-7.19c-6.46,1.47-11.75,6.29-18.36,7.26c-11.52,0.31-22.16-5.62-33.66-5.25
		c-7.86,1.7-11.89,9.63-18.48,13.5c-5.47,3.24-10.97,7.78-17.76,6.91c-5.89-1.75-10.91-5.77-17.1-6.74
		c-7.51-2.58-15.1,0.28-22.19,2.58c-9.86,3.21-17.6,10.31-25.76,16.39c-7.06,4.92-11.01,12.9-17.49,18.45
		c-6.4,5.65-12.67,11.52-17.33,18.74c-7.96,8.66-16.16,17.27-25.78,24.12c-3.56,2.49-6.47,5.77-8.72,9.48
		c-45.74-66.7-72.62-145.27-82.17-225.32c-11.73-90.25-0.04-183.36,32.94-268.14c13.08-33.01,29.35-64.9,50.08-93.8
		c23.6-33.84,52.91-64.09,88.06-86C899.63-473.01,934.84-486.61,971.45-490.46 M962.03,182.05c-3.18,1.43-3.87,5.26-5.18,8.04
		c5.85,2.93,12.42,3.3,18.66,1.19c9.36-2.79,19.25-1.01,28.82-2.05c3.82-0.65,6.59-5.43,4.32-8.86c-3.73-5.58-10.49-8.07-16.83-9.09
		C981.41,172.94,970.95,176.3,962.03,182.05 M877.25,152.18c7.46-3.08,16.45-2.82,22.97,2.39c-1.92,9.29-3.02,18.92-6.85,27.7
		c-7.7,21.26-21.83,39.24-33.56,58.31c-4.46,10.31-14.18,16.86-19.88,26.37c-10.38,17.51-26.03,31.21-35.78,49.15
		c-3.47,6.72-8.6,12.38-12.16,19.05c-5.14,8.03-10.38,16.05-16.62,23.28c-10.89,11.8-19.75,25.43-31.92,36.04
		c-3.91,4.06-10.53,9.03-7.54,15.58c3.67,5.26,10.89,2.54,16.28,2.53c18.41,0.12,34.06,11.41,51.45,15.82
		c8.27,2.48,17.09,3.27,24.91,7.13c10.26,4.97,20.18,10.79,31.22,13.94c10.14,4.65,21.8,7.59,28.95,16.79
		c2.78,2.78,2.39,6.96,2.15,10.61c-1.67,11.53-8.03,21.49-11.58,32.44c-2.13,5.43-2.64,11.79-6.8,16.2
		c-2.11,2.35-5.36,0.49-7.85-0.09c-7.61-2.93-16.16-3.88-22.34-9.74c-8.14-7.38-18.93-10.66-27.35-17.65
		c-3.75-2.67-7.44-6.68-12.59-5.69c-3.5,0.87-5.61,4.69-5.79,8.06c2.64,8.39,11.26,13.27,18.5,17.53
		c8.33,3.94,15.38,9.99,23.15,14.87c9.34,5.29,20.31,6.9,29.51,12.49c3.08,1.82,5.73,4.65,6.72,8.16
		c3.71,13.74-0.88,28.03-6.36,40.61c-4.12,9.49-12.91,15.32-21.21,20.79c-2.61,1.54-6.27,1.83-8.79,0.06
		c-10.44-8.07-16.91-21.1-30.15-25.32c-1.68,4.2-5.3,8.05-4.54,12.98c8.42,12.64,21.26,21.71,29.35,34.61
		c2.08,7.18,1.3,15,0.22,22.34c-1.35,5.21-0.53,12.27-5.98,15.48c-10.11,8.02-23.14,10.62-35.04,14.88
		c-13.27,4.83-27.4,6.72-41.43,7.59c-4.59,0.74-9.21-0.64-13.16-2.85c-9.14-7.9-4.43-24.92,6.51-28.86
		c8.39-4.04,18.01-4.94,25.96-10c3.04-3.17,4.12-8.15,0.96-11.56c-3-4.26-8.71-2.87-12.94-1.49c-9.04,3.14-18.34,5.8-26.73,10.5
		c-10.65,7.4-16.59,20.93-15.23,33.8c-0.23,9.87,6.93,17.34,13.82,23.4c-33.32,28.98-66.37,58.68-94.14,93.19
		c-28.37,35.25-53.85,73.54-70.03,116.01c-16.03,40.13-20.92,83.46-25.88,126.07c-10.59,99.37-13.33,200.53-40.77,297.27
		c-4.18,14.28-8.94,28.43-14.75,42.15c-12.96,31.74-32.07,60.74-54.33,86.71c-23.39,28.23-52.15,51.94-84.18,69.78
		c-25.2,13.18-52.91,23.09-81.63,23.31c-7.09,0.41-14.09-1.24-20.85-3.1c-11.99-4.52-18.93-16.24-25.39-26.56
		c-13.77-25.37-21.22-53.62-26.21-81.9c-8.53-50.56-9.07-102.51-1.35-153.21c3.3-18.67,7.33-37.3,13.72-55.18
		c14.47-39.43,34.41-76.52,54.93-113.06c22.55-39.01,46.54-77.18,71.11-114.95c33.14-51.45,68.15-101.7,99.99-153.97
		c30.07-51.01,55.07-104.85,77.33-159.67c20.49-51.2,39.96-103.07,52.04-156.98c7.03-30.87,10.3-62.56,19.13-93.03
		c4.48-16.32,12.75-31.4,23.22-44.63c9.32-10.87,22.12-17.76,32.31-27.69c14.03-13.35,31.66-22.98,43.52-38.55
		c7.55-9.14,18.34-14.9,25.71-24.21c9.41-10.91,20.39-20.28,30.58-30.43c13.19-11.19,22.56-26.01,35.8-37.15
		c7.84-5.85,12.74-14.54,19.88-21.1c7.39-6.27,15.67-11.59,22.17-18.86c9.15-12.17,22.07-20.59,32.72-31.3
		C855.01,169.97,863.66,157.58,877.25,152.18 M832.1,301.02c5.86,4.43,11.73,8.86,17.65,13.24c-7.13,14.32-19.84,25.21-33.83,32.62
		c-6.61,3.39-12.96,8.77-20.8,8.62c3.27-6.84,9.27-11.87,12.72-18.61C814.4,323.93,824.44,313.29,832.1,301.02 M523.7,481.73
		c11.43-8.72,22.76-17.77,35.36-24.74c-1.21,10.25-4.04,20.23-5.62,30.43c-6.07,34.41-12.36,68.9-22.94,102.27
		c-14.2,45.22-31.08,89.57-49.65,133.17c-22.9,52.68-47.58,104.86-78.83,153.18c-39.06,61.39-80.61,121.17-118.94,183.02
		c-14.27,22.41-27.52,45.46-41.28,68.18c2.16-9.62,6.59-18.52,9.54-27.88c2.58-10.38,7.02-20.13,11.44-29.82
		c2.85-6.03,3.4-12.96,7.01-18.64c3.84-6.57,4.43-14.34,7.74-21.14c5.04-11.86,9.62-23.94,12.89-36.42
		c7.59-15.31,11.88-32.01,19.7-47.21c5.73-11.62,8.2-24.49,13.91-36.1c3.17-6.52,5.65-13.36,8.14-20.15
		c2.66-5.88,6.71-11.12,8.34-17.44c5.31-21.14,16.08-40.31,24.24-60.38c2-8.16,6.11-15.52,8.89-23.39
		c4.14-12.52,9.63-24.53,13.85-37.02c3.1-7.92,5.26-16.25,9.42-23.7c5.21-9.59,9.1-19.81,13.26-29.88
		c4.14-10.09,9.73-19.56,13.16-29.95c2.38-6.88,5.56-13.44,8.72-19.98c3.59-7.59,5.65-15.83,9.79-23.18
		c8.09-16.93,13.4-35.14,22.69-51.5c8.27-14.21,14.71-29.43,23.72-43.21c6.18-10.27,11.4-21.43,20.2-29.82
		C514.28,494.79,516.96,486.51,523.7,481.73L523.7,481.73z"/>
	<path d="M968.03-505.91c25.85-2.3,52.22-1.67,77.56,4.35c39.59,9.05,76.59,28.27,107.72,54.23c53.95,44.6,93.35,105,117.9,170.19
		c23.97,62.08,34.8,128.76,35.82,195.14c1.56,77.46-11.83,155.61-41.83,227.18c-26,62.39-66.07,119.89-119.87,161.36
		c3.2,11.33,11.86,20.11,20.46,27.66c20.03,16.64,44.86,25.35,68.57,35.28c13.31,5.49,27.79,7.84,40.59,14.64
		c14.79,7.99,31.77,10.56,46.67,18.3c12.97,6.59,26.21,12.69,40.2,16.86c13.35,3.48,25.07,10.95,37.6,16.45
		c11.86,9.01,27.07,11.41,39.65,19.18c11.55,7.51,23.21,15.18,32.49,25.52c4.7,5.64,12.38,8.31,15.9,14.99
		c6.61,12.62,15.32,24.05,21.08,37.13c6.56,12.62,13.71,24.99,18.5,38.44c3.78,9.38,7.38,18.86,12.07,27.84
		c5.75,11.05,7.78,23.48,12.29,35.03c3.66,10.18,9.2,19.66,11.69,30.28c3.36,13,8.78,25.34,12.28,38.31
		c3.45,15.94,12.23,29.99,18.29,44.98c1.86,9.81,3.97,19.7,7.83,28.98c4.45,11.07,6.82,22.81,11,33.99
		c4.84,17.16,11.67,33.65,16.44,50.84c5.49,13.48,8.06,27.96,13.98,41.3c1.59,4.19,1.36,8.78,2.7,13.05
		c2.59,6.06,5.25,12.13,7.71,18.27c6.2,13.24,6.76,28.38,13.19,41.55c2.62,5.17,4.22,10.73,6.24,16.16
		c5.66,10.25,6.28,22.17,10.53,32.97c4.37,10.33,6.2,21.43,9.91,31.99c3.78,13.26,5.69,27.16,11.49,39.79
		c8.49,18.61,13.55,38.54,18.45,58.33c1.71,10,4.99,19.78,5.67,29.96c2.92,18.94,7.37,37.61,12.59,56.05
		c3.51,10.56,6.88,21.22,8.95,32.19c4.38,24.29,8.88,48.58,11.9,73.1c-6.6,0.03-13.17,0.03-19.72-0.01
		c0.5-10.99-3.33-21.57-4.58-32.4c-1.47-14.48-5.47-28.56-6.92-43.04c-1.94-10.86-4.29-21.67-8.6-31.85
		c-5.91-14.5-6.28-30.29-11.01-45.08c-1.37-15.22-5.88-29.85-8.2-44.9c-3.99-14.91-6.83-30.18-12.37-44.62
		c-4.44-10.64-7.07-21.92-11.22-32.66c-3.11-14.63-9.54-28.29-12.55-42.95c-1.03-6.51-3.26-12.69-5.66-18.79
		c-5.2-12.95-8.23-26.62-13.55-39.51c-5.38-12.7-7.33-26.5-12.97-39.1c-3.65-8.4-4.5-17.81-9.12-25.8
		c-4.95-8.89-5.63-19.27-9.2-28.66c-5.31-17.92-13.63-34.8-18.37-52.88c-4.85-12.82-7.92-26.23-12.66-39.08
		c-3.82-11.72-6.94-23.65-9.86-35.6c-1.09-3.76-4.36-6.35-5.75-9.98c-4.16-9.56-6.52-19.79-10.55-29.39
		c-6.72-15.74-10.95-32.39-17.8-48.07c-3.01-11.95-8.76-22.92-12.37-34.67c-4.74-15.81-10.65-31.24-18.09-45.97
		c-4.89-9.38-8.39-19.39-13.24-28.77c-7.54-13.87-13.56-28.93-24.26-40.8c-4.59-5.51-6.8-12.78-12.56-17.36
		c-9.75-8.03-18.42-17.53-29.82-23.31c-21.52-10.96-43.11-21.83-65.11-31.82c-15.95-5.73-32.07-11.33-47.24-18.93
		c-9.98-6.6-21.93-8.64-32.87-13.02c-11.78-4.4-22.89-10.46-35.02-13.94c-17.6-5.16-34.21-13.02-51.19-19.87
		c-19.91-8.31-38.58-19.76-54.3-34.58c-5.47-6.7-10.2-13.97-14.88-21.24c-17.96,11.75-36.98,22.1-57.32,29.09
		c-31.47,11.87-65.62,14.96-99,13.3c-39.2-2.49-77.22-15.97-110.63-36.34c-4.49,7.97-10,15.39-16.34,21.97
		c-11.02,8.8-22.81,16.81-35.79,22.42c-7.42,4.69-15.87,7.23-24.4,8.94c-6.04,1.13-12.12,3.5-15.99,8.49
		c-3.83,4.22-1.82,12.22,3.91,13.61c14.46,5.46,28.47,12.14,43.27,16.74c18.2,5.16,34.35,15.58,52.67,20.46
		c12.25,3.22,24.09,8.88,33.24,17.77c7.53,8.38,6.13,20.43,3.24,30.43c-1.65,10.04-5.14,19.65-9.7,28.72
		c-3.27,5.87-3.8,12.68-6.05,18.93c-1.37,3.45,1.13,6.84,1.69,10.24c2.88,9.04,2.64,18.77,0.82,28
		c-3.01,19.65-11.78,39.02-26.98,52.21c-3.71,3.89-7.82,7.41-11.36,11.47c-3.15,7.35-2.48,15.45-2.85,23.26
		c0.35,10.58-3.65,20.95-9.38,29.69c-6.99,8.5-18.56,9.25-27.63,14.4c-18.18,9.25-38.85,10.4-58.62,13.63
		c-8,3.32-15.2,8.45-22.2,13.49c-14.71,13.64-30.65,25.94-44.5,40.51c-37.09,35.76-69.41,76.76-93.62,122.33
		c-10.71,19.93-19.08,41.11-25.28,62.87c-8.96,33.51-12.42,68.14-16.22,102.53c-5.93,59.17-9.8,118.57-17.67,177.54
		c-7.1,50.56-16.34,101.32-34.79,149.12c-14.07,37.22-35.85,71.18-61.8,101.22c-27.29,32.3-61.15,59.24-99.22,77.78
		c-25.54,12.29-53.66,20.07-82.14,19.83c-15.81-0.66-32.11-5.79-42.74-18.19c-16.53-19.05-25.87-43.01-33.04-66.87
		c-13.9-49.04-18.05-100.52-15.73-151.31c1.99-37.65,8.2-75.31,21.02-110.86c2.77-11.09,9.16-20.87,11.34-32.16
		c6.04-16.64,8.68-34.36,16.03-50.55c4.71-9.52,3.85-20.53,7.92-30.26c6.6-16.49,10.94-33.87,19.39-49.61
		c6.36-11.21,9.5-23.8,13.06-36.07c2.58-6.93,5.62-13.7,7.14-20.96c4.62-12.28,11.04-23.96,14.03-36.82
		c1.04-5.43,4.76-9.79,6.65-14.89c3.06-9.28,8.84-17.36,11.61-26.74c2.89-7.08,3.63-14.92,7.39-21.62
		c3.72-6.83,6.19-14.25,9.97-21.03c3.03-5.18,2.03-11.73,5.23-16.85c3.32-5.21,4.29-11.44,6.95-16.96
		c2.16-4.18,2.58-9.02,4.79-13.15c6.62-11.31,8.82-24.55,14.78-36.16c3.15-5.76,4.01-12.37,6.78-18.27
		c2.9-6.23,5.71-12.55,7.75-19.12c1.99-8.36,6.52-15.76,9.33-23.82c2.62-7.66,5.76-15.13,7.71-23c6.57-14.73,16.02-28.25,20.39-43.9
		c3.64-12.16,10.13-23.22,13.68-35.41c4.09-13.69,12.63-25.46,17.23-38.93c2.5-5.68,3.85-11.79,6.49-17.39
		c3.29-7.14,7.44-13.82,11.09-20.76c4.94-10.69,9.89-21.38,15.22-31.88c7.09-11.35,13.55-23.08,20.52-34.5
		c5.19-7.17,10.71-14.13,15.12-21.83c3.18-5.82,9.74-8.38,14.74-12.33c6.94-6.11,13.39-13.1,21.88-17.08
		c5.25-2.5,9.96-5.91,14.45-9.56c6.18-5.04,15.34-6,20.41-12.45c6.19-12.61,11.36-26.34,22.12-35.97
		c22.58-21.05,49.67-36.6,71.71-58.29c25.38-28.26,55.97-51.43,80.59-80.42c7.84-8.57,17.86-15.04,24.46-24.75
		c-47.82-67.04-75-147.35-84.9-228.69c-11.44-94.15-2.71-191.62,31.53-280.44c25.92-68.4,68.29-131.58,126.5-176.55
		C877.39-482.54,921.63-501.98,968.03-505.91 M971.45-490.46c-36.61,3.85-71.82,17.45-102.82,37.06
		c-35.15,21.91-64.46,52.16-88.06,86c-20.73,28.9-37,60.79-50.08,93.8c-32.98,84.78-44.67,177.89-32.94,268.14
		c9.55,80.05,36.43,158.62,82.17,225.32c2.25-3.71,5.16-6.99,8.72-9.48c9.62-6.85,17.82-15.46,25.78-24.12
		c4.66-7.22,10.93-13.09,17.33-18.74c6.48-5.55,10.43-13.53,17.49-18.45c8.16-6.08,15.9-13.18,25.76-16.39
		c7.09-2.3,14.68-5.16,22.19-2.58c6.19,0.97,11.21,4.99,17.1,6.74c6.79,0.87,12.29-3.67,17.76-6.91c6.59-3.87,10.62-11.8,18.48-13.5
		c11.5-0.37,22.14,5.56,33.66,5.25c6.61-0.97,11.9-5.79,18.36-7.26c8.11-0.96,14.65,4.7,21.92,7.19c7.6,3.35,17.18,3.47,22.99,10.14
		c3.14,2.72,6.25,8.41,2.44,11.91c-4.95,3.5-11.05,5.84-17.18,5.64c-7.48-3.62-13.89-9.75-22.28-11.35
		c-7.48-1.33-14.35,2.52-21.62,3.33c-10.11,0.59-19.82-2.98-29.71-4.43c-7.61-1.92-13.77,4.77-19.76,8.3
		c-4.78,4.33-11.97,4.77-16.08,9.93c-9.21,11.59-10.68,26.85-17.46,39.69c-4.06,7.29-7.99,14.64-11.87,22.02
		c-3.35,6.98-9.06,12.33-13.33,18.69c-5.37,7.18-9.87,14.94-14.35,22.69c-5.35,9.32-12.27,17.58-18.99,25.93
		c-1.09,1.38-1.99,2.98-2.18,4.77c1.75,2.65,4.53,4.35,7,6.27c39.5,28.74,86.91,48.22,136.11,49.71
		c67.2,0.65,131.63-31.41,178.3-78.55c26.74-27.14,48.87-58.68,66.6-92.35c28.38-54.08,45.87-113.5,54.13-173.91
		c10.83-79.54,3.23-161.32-19.99-238.05c-19.37-62.13-50.2-121.44-94.78-169.25c-29.22-30.59-64.7-55.73-104.58-70.28
		C1037.13-488.88,1003.98-494.73,971.45-490.46 M877.25,152.18c-13.59,5.4-22.24,17.79-32.89,27.19
		c-10.65,10.71-23.57,19.13-32.72,31.3c-6.5,7.27-14.78,12.59-22.17,18.86c-7.14,6.56-12.04,15.25-19.88,21.1
		c-13.24,11.14-22.61,25.96-35.8,37.15c-10.19,10.15-21.17,19.52-30.58,30.43c-7.37,9.31-18.16,15.07-25.71,24.21
		c-11.86,15.57-29.49,25.2-43.52,38.55c-10.19,9.93-22.99,16.82-32.31,27.69c-10.47,13.23-18.74,28.31-23.22,44.63
		c-8.83,30.47-12.1,62.16-19.13,93.03c-12.08,53.91-31.55,105.78-52.04,156.98c-22.26,54.82-47.26,108.66-77.33,159.67
		c-31.84,52.27-66.85,102.52-99.99,153.97c-24.57,37.77-48.56,75.94-71.11,114.95c-20.52,36.54-40.46,73.63-54.93,113.06
		c-6.39,17.88-10.42,36.51-13.72,55.18c-7.72,50.7-7.18,102.65,1.35,153.21c4.99,28.28,12.44,56.53,26.21,81.9
		c6.46,10.32,13.4,22.04,25.39,26.56c6.76,1.86,13.76,3.51,20.85,3.1c28.72-0.22,56.43-10.13,81.63-23.31
		c32.03-17.84,60.79-41.55,84.18-69.78c22.26-25.97,41.37-54.97,54.33-86.71c5.81-13.72,10.57-27.87,14.75-42.15
		c27.44-96.74,30.18-197.9,40.77-297.27c4.96-42.61,9.85-85.94,25.88-126.07c16.18-42.47,41.66-80.76,70.03-116.01
		c27.77-34.51,60.82-64.21,94.14-93.19c-6.89-6.06-14.05-13.53-13.82-23.4c-1.36-12.87,4.58-26.4,15.23-33.8
		c8.39-4.7,17.69-7.36,26.73-10.5c4.23-1.38,9.94-2.77,12.94,1.49c3.16,3.41,2.08,8.39-0.96,11.56c-7.95,5.06-17.57,5.96-25.96,10
		c-10.94,3.94-15.65,20.96-6.51,28.86c3.95,2.21,8.57,3.59,13.16,2.85c14.03-0.87,28.16-2.76,41.43-7.59
		c11.9-4.26,24.93-6.86,35.04-14.88c5.45-3.21,4.63-10.27,5.98-15.48c1.08-7.34,1.86-15.16-0.22-22.34
		c-8.09-12.9-20.93-21.97-29.35-34.61c-0.76-4.93,2.86-8.78,4.54-12.98c13.24,4.22,19.71,17.25,30.15,25.32
		c2.52,1.77,6.18,1.48,8.79-0.06c8.3-5.47,17.09-11.3,21.21-20.79c5.48-12.58,10.07-26.87,6.36-40.61
		c-0.99-3.51-3.64-6.34-6.72-8.16c-9.2-5.59-20.17-7.2-29.51-12.49c-7.77-4.88-14.82-10.93-23.15-14.87
		c-7.24-4.26-15.86-9.14-18.5-17.53c0.18-3.37,2.29-7.19,5.79-8.06c5.15-0.99,8.84,3.02,12.59,5.69
		c8.42,6.99,19.21,10.27,27.35,17.65c6.18,5.86,14.73,6.81,22.34,9.74c2.49,0.58,5.74,2.44,7.85,0.09c4.16-4.41,4.67-10.77,6.8-16.2
		c3.55-10.95,9.91-20.91,11.58-32.44c0.24-3.65,0.63-7.83-2.15-10.61c-7.15-9.2-18.81-12.14-28.95-16.79
		c-11.04-3.15-20.96-8.97-31.22-13.94c-7.82-3.86-16.64-4.65-24.91-7.13c-17.39-4.41-33.04-15.7-51.45-15.82
		c-5.39,0.01-12.61,2.73-16.28-2.53c-2.99-6.55,3.63-11.52,7.54-15.58c12.17-10.61,21.03-24.24,31.92-36.04
		c6.24-7.23,11.48-15.25,16.62-23.28c3.56-6.67,8.69-12.33,12.16-19.05c9.75-17.94,25.4-31.64,35.78-49.15
		c5.7-9.51,15.42-16.06,19.88-26.37c11.73-19.07,25.86-37.05,33.56-58.31c3.83-8.78,4.93-18.41,6.85-27.7
		C893.7,149.36,884.71,149.1,877.25,152.18 M832.1,301.02c-7.66,12.27-17.7,22.91-24.26,35.87c-3.45,6.74-9.45,11.77-12.72,18.61
		c7.84,0.15,14.19-5.23,20.8-8.62c13.99-7.41,26.7-18.3,33.83-32.62C843.83,309.88,837.96,305.45,832.1,301.02 M523.7,481.73
		c-6.74,4.78-9.42,13.06-15.25,18.7c-8.8,8.39-14.02,19.55-20.2,29.82c-9.01,13.78-15.45,29-23.72,43.21
		c-9.29,16.36-14.6,34.57-22.69,51.5c-4.14,7.35-6.2,15.59-9.79,23.18c-3.16,6.54-6.34,13.1-8.72,19.98
		c-3.43,10.39-9.02,19.86-13.16,29.95c-4.16,10.07-8.05,20.29-13.26,29.88c-4.16,7.45-6.32,15.78-9.42,23.7
		c-4.22,12.49-9.71,24.5-13.85,37.02c-2.78,7.87-6.89,15.23-8.89,23.39c-8.16,20.07-18.93,39.24-24.24,60.38
		c-1.63,6.32-5.68,11.56-8.34,17.44c-2.49,6.79-4.97,13.63-8.14,20.15c-5.71,11.61-8.18,24.48-13.91,36.1
		c-7.82,15.2-12.11,31.9-19.7,47.21c-3.27,12.48-7.85,24.56-12.89,36.42c-3.31,6.8-3.9,14.57-7.74,21.14
		c-3.61,5.68-4.16,12.61-7.01,18.64c-4.42,9.69-8.86,19.44-11.44,29.82c-2.95,9.36-7.38,18.26-9.54,27.88
		c13.76-22.72,27.01-45.77,41.28-68.18c38.33-61.85,79.88-121.63,118.94-183.02c31.25-48.32,55.93-100.5,78.83-153.18
		c18.57-43.6,35.45-87.95,49.65-133.17c10.58-33.37,16.87-67.86,22.94-102.27c1.58-10.2,4.41-20.18,5.62-30.43
		C546.46,463.96,535.13,473.01,523.7,481.73 M962.03,182.05c8.92-5.75,19.38-9.11,29.79-10.77c6.34,1.02,13.1,3.51,16.83,9.09
		c2.27,3.43-0.5,8.21-4.32,8.86c-9.57,1.04-19.46-0.74-28.82,2.05c-6.24,2.11-12.81,1.74-18.66-1.19
		C958.16,187.31,958.85,183.48,962.03,182.05L962.03,182.05z"/>
</g>
</svg>
