<?xml version="1.0" encoding="iso-8859-1"?>
<!-- Generator: Adobe Illustrator 28.5.0, SVG Export Plug-In . SVG Version: 9.03 Build 54727)  -->
<svg version="1.1" id="Layer_1" xmlns="http://www.w3.org/2000/svg" xmlns:xlink="http://www.w3.org/1999/xlink" x="0px" y="0px"
	 viewBox="0 0 1920 1080" style="enable-background:new 0 0 1920 1080;" xml:space="preserve">
<g>
	<path style="fill:#FFFFFF;" d="M-945-604h3810v2289H-945V-604 M6.07-563.93c-41.62,13.91-79,39.15-109.36,70.64
		c-49.55,49.01-83.06,112.18-103.76,178.27c-28.6,92.41-31.95,191.74-14.52,286.63c14.72,76.32,45.18,150.75,94.82,211.14
		c11.64,14.59,25.36,27.27,38.54,40.43c-4.39,10.91-10.91,21.03-19.93,28.69c-20.34,18.17-46.47,27.24-71.22,37.61
		c-12.66,5.24-26.35,7.6-38.7,13.65c-8.87,4.88-18.47,8.25-28.02,11.53c-14.53,3.49-27.17,11.61-40.78,17.37
		c-12.79,5.7-26.71,8.4-39.18,14.87c-8.62,4.56-17.96,7.59-26.31,12.66c-6.87,3.53-13.73,7.1-20.85,10.09
		c-11.77,4.36-21.37,12.61-31.59,19.61c-8.75,7.54-16.75,15.93-24.49,24.48c-7.5,8.1-10.98,18.74-17.02,27.81
		c-23.3,41.6-47.49,82.7-70.92,124.23c-54.54,96.36-108.06,193.31-159.92,291.14C-729.19,955.38-779.93,1054.53-830,1154
		c-19.09,38.41-38.75,76.56-56.56,115.58c-7.71,11.89-13.05,25.07-17.48,38.48c-4.55,10.04-8.88,20.17-13.68,30.11
		c-4.26,9.46-5.23,19.86-6.92,29.99c-2.21,16.56-8.44,32.45-8.21,49.36c-1.4,10.77-0.19,21.64-1.21,32.43
		c-1.57,12.24,1.87,24.37,1.7,36.63c0.38,10.24,3.3,20.13,5.87,29.99c1.68,6.38,1.64,13.21,4.58,19.26
		c2.21,4.91,5.63,9.23,7.58,14.29c2.33,4.89,2.75,10.67,6.11,15.08c5.77,7.33,8.59,16.4,13.74,24.12
		c4.91,7.62,9.77,15.47,16.37,21.79c9.26,9.24,17.44,20.67,30.59,24.59c10.22,4.41,21.56,8.97,32.81,5.5
		c4.7-1.77,10.45-1.05,14.34-4.55c6.17-5.39,13.82-8.5,21.04-12.19c7.57-4.16,16.34-5.12,24.27-8.38
		c10.01-3.19,18.87-9.05,28.91-12.14c7.78-2.48,13.91-8.27,21.76-10.59c8.35-3.15,15.13-9.3,23.52-12.31
		c11.26-4.43,20.98-11.85,31.85-17.08c9.8-6.58,21.13-10.93,29.79-19.14c12.11-8.66,26.57-15,35.43-27.48
		c7.52,1.09,12.88-5.81,18.67-9.41c12.42-10.21,25.6-19.58,36.49-31.48c14.74-7.87,27.01-19.6,38.11-31.97
		c7.52-8.9,17.74-14.86,25.6-23.41c7.52-8.67,17.56-14.38,25.86-22.18c12.36-13.19,28.08-22.45,41.56-34.37
		c4.24-3.86,9.26-6.69,13.57-10.45c14.61-12.67,32.52-20.66,47.87-32.33c4.69-3.76,10.48-5.59,15.73-8.37
		c9.25-5.54,19.63-8.72,29.47-13.02c7.5-2.18,14-7.62,22.07-7.65c6.72-0.05,13.39-1.38,20.13-0.77c7.92,0.46,15.76-2.61,23.66-1
		c13.93,2.83,28.51,7.4,42.71,3.53c5.42-2.21,11.28-2.74,17.07-3.14c14.54-0.89,27.66-8.68,38.63-17.8
		c8.25-5.82,14.91-13.86,24.44-17.77c10.28-6.34,20.93-12.2,32.24-16.44c14.34-0.61,28.28-3.98,41.97-8.15
		c6.72-2.42,14.44-2.04,20.33-6.59c4.64-3.3,11.05-3.78,14.52-8.69c7.6-9.8,17.62-17.17,27.41-24.57
		c7.2-7.75,11.94-17.39,18.28-25.78c10.69-9.13,19.08-20.54,26.98-32.07c6.34-7.35,5.65-17.93,3.97-26.83
		c-2.38-12.37-12.33-20.95-18.9-31.08c-3.75-8.58-7.35-17.32-7.95-26.79c-3.3-6.18-7.87-11.64-12.25-17.08
		c-7.01-10.43-12-23.1-22.75-30.39c-4.7-2.79-5.46-8.77-7.39-13.47c-3.25-11.84-9.28-23.35-18.65-31.45
		c-3.97-3.73-10.02-2.23-14.85-3.23c-8.15,0.01-15.87-2.64-23.86-3.75c-10.91-0.82-21.03-6.13-32.17-5.09
		c-3.95,0.28-6.98-3.37-6.48-7.17c1.9-6.48,7.64-11.74,14.3-12.92c6.8,8.23,18.5,10.93,28.75,10.11c5.46-1.32,9.46-5.72,13.85-9
		c16.28,7.67,33.9,0.69,50.81,1.41c15.23-1.72,30.48-5.04,45.87-3.56c10.51-0.85,20.93-3.07,31.52-2.95
		c14.56-0.8,28.65,3.5,42.99,5.27c12.39,2.6,24.87-0.41,37.25-1.55c13.33-0.94,27.07-0.61,39.82-5.29c4.86-1.68,9.61-4.02,14.75-4.8
		c13.39-1.48,26.64-4.93,38.69-11.03c9.52-5.24,18.76-11.89,29.68-13.72c7.5,3.45,12.55,10.41,18.8,15.56
		c5.39,5.36,12.06,9.2,17.6,14.39c7.85,9.06,17.58,16.5,24.11,26.7c4.69,4.04,8.72,8.77,12.52,13.67
		c8.26,6.08,13.22,15.39,21.25,21.76c16.2,17.16,35.93,31.06,49.38,50.7c9.44,12.13,22.44,21.77,29.1,35.94
		c6.84,13.27,20.26,21.2,28.39,33.56c8.38,9.75,11.02,23.35,21.09,31.78c9.11,13.31,17.4,27.2,26.59,40.49
		c4.18,5.94,6.54,13.05,11.35,18.57c7.18,8.8,12.62,18.82,18.76,28.35c4.84,6.22,9.03,12.9,13.25,19.57
		c7.17,12.63,15.94,24.32,22.29,37.43c2.44,5.97,6.9,10.71,10.27,16.14c6.24,9.19,10.11,19.71,15.85,29.18
		c8.62,9.58,15.57,20.51,22,31.64c2.71,8.62,8.26,15.89,12.83,23.6c4.24,5.79,9.2,11.14,12.1,17.82
		c5.9,12.77,15.24,23.42,22.44,35.42c8.44,14.17,20.84,25.28,30.55,38.52c12.34,15.95,28.4,28.36,43.75,41.25
		c11.5,7.29,25.13,9.82,37.64,14.85c11.38,4.97,24.32,4.98,35.59,10.3c6.06-2.75,12.94-1.12,19.28-2.79
		c8.93-0.61,15.1-7.61,22.74-11.33c6.97-4.23,15.56-6.28,20.78-12.96c7.8-13.55,14.24-27.81,22.08-41.36
		c5.92-16.07,6.29-33.54,10.71-50.01c5.53-33.75,7.4-67.96,7.1-102.11c-1.29-11.48-1.71-23.05-2.03-34.59
		c0.37-33.59-11.34-65.48-18.25-97.95c-2.67-11.42-6.84-22.46-8.86-34.02c-2.63-11.46-6.93-22.43-11.64-33.17
		c-7.44-20.34-14.18-41.06-18.22-62.38c-3.26-8.47-4.92-17.44-7.59-26.08c-6.43-17.21-11.45-35.09-20.57-51.16
		c-4.91-8.36-7.24-17.8-11.05-26.63c-2.07-9.87-7.33-18.64-9.56-28.44c-5.48-13.29-11.9-26.3-15.49-40.27
		c-5.31-9.14-9.11-19.03-14.01-28.37c-6.59-12.92-8.71-27.63-16.06-40.2c-3.15-7.05-8.75-13.22-9.12-21.24
		c-0.72-6.49-5.38-11.53-7.1-17.69c-1.47-4.09-4.03-7.81-4.57-12.2c-0.6-6.66-5.81-11.54-8.02-17.64
		c-3.86-10.89-8.41-21.5-13.24-31.97c-3.85-11.85-9.79-22.87-13.37-34.8c-5.55-12.66-11.69-25.16-15.04-38.62
		c-0.54-2.09-1.15-4.2-2.35-5.99c-5.65-8.38-8.89-18.1-14.42-26.53c-2.99-4.83-4.34-10.38-6.27-15.64
		c-4.2-12.32-10.68-23.69-14.75-36.05c-3.85-12.94-12.52-23.71-16.86-36.43c-3.47-10-7.46-19.83-13.05-28.85
		c-8.03-14.01-14.24-28.94-22.21-42.97c-4.9-9.22-11.65-17.29-16.47-26.55c-5.56-9.85-13.57-18.04-19.17-27.85
		c-1.64-2.92-4.39-4.92-7.11-6.72c-10.4-5.99-18.07-15.84-28.87-21.25c-7.42-3.66-13.95-8.97-21.67-12.02
		c-10.38-3.12-20.64-6.8-30.27-11.8c-7.54-3.64-15.82-5.36-23.44-8.79c-9.11-4.13-19.04-5.79-28.62-8.41
		c-15.11-3.61-29.02-10.84-43.68-15.78c-11.02-2.4-22.06-4.89-32.61-8.95c-13.29-7.06-28.62-8.02-42.83-12.26
		c-13.13-4.21-25.96-9.32-39.35-12.65c-15.04-6.89-30.34-13.91-43-24.79c-6.09-6.19-10.82-13.57-15.17-21.02
		c-1.88-2.95-5.68-2.62-8.71-2.78c12.6-12.45,25.58-24.59,36.88-38.26c30.41-35.89,53.75-77.37,70.83-121.1
		c22.3-57.07,34.29-118.03,36.88-179.19c2.74-77.24-6.71-155.72-34.15-228.29c-21.83-58.98-55.28-114.38-101.27-157.65
		c-42.98-42.09-100.01-71.47-160.57-75.43C68.84-577.23,36.3-574.61,6.07-563.93 M1917.97-549.05
		c-37.31,18.08-69.07,45.8-96.18,76.84c-23.99,27.84-43.99,59.05-59.7,92.25c-36.55,76.99-52.82,162.95-51.12,247.96
		c0.81,55.45,8.58,110.97,24.99,164.01c21.41,68.66,56.89,134.12,109.44,183.93c-6.27,4.34-7.65,12.46-12.18,18.23
		c-11.89,16.92-30.51,27.21-48.63,36.2c-17.55,6.99-34.61,15.37-52.84,20.49c-9.12,2.5-17.96,5.99-26.23,10.53
		c-11.2,5.13-23.05,8.61-34.65,12.61c-13.65,5.96-26.58,13.57-40.86,18.03c-10.16,3.02-20.11,6.75-29.55,11.56
		c-5.88,3.09-12.4,5.04-17.75,9.03c-10.91,8.43-25.38,9.66-36.79,17.27c-11.51,7.59-23.25,15.15-32.48,25.53
		c-4.53,5.5-11.89,8.09-15.53,14.35c-7.86,14.78-18.05,28.24-24.55,43.74c-9.56,16.37-16.03,34.21-23.29,51.64
		c-4.96,10.24-10.08,20.51-12.48,31.73c-3.7,15.63-12.62,29.35-16.63,44.87c-3.19,12.9-8.83,25.05-12.1,37.94
		c-2.73,13.3-10.14,24.95-15.1,37.45c-3.79,6.08-4.04,13.41-6.09,20.13c-1.75,9.43-5.93,18.11-8.79,27.21
		c-3.21,12.81-8.1,25.12-11.57,37.86c-9.09,23.14-15.08,47.29-23.56,70.63c-2.95,5.44-2.95,11.75-4.46,17.61
		c-2.86,6.77-5.66,13.57-8.47,20.36c-5.7,12.11-5.98,25.97-11.67,38.11c-4.35,8.58-6.53,18.01-10.9,26.58
		c-2.14,13.48-7.39,26.15-11.95,38.93c-1.13,9.47-5.55,18.07-7.34,27.39c-2.64,12.46-5.75,24.93-11.82,36.24
		c-6.34,15.23-9.83,31.48-14.41,47.3c-7.79,33.27-11.12,67.59-22.35,100.04c-5.55,14.15-5.82,29.6-10.89,43.87
		c-1.9,7.09-1.54,14.72-4.72,21.49c-3.2,7.21-2.97,15.37-6.01,22.64c-5.12,13.6-4.54,28.56-9.26,42.26
		c-2.59,7.41-2.2,15.46-3.91,23.11c-1.24,4.43-4.79,8.15-4.74,12.95c0.03,3.24-0.19,6.35-0.84,9.58
		c-6.58,26.94-8.58,54.77-14.04,81.93c0.45,9.49-2.57,18.87-0.78,28.34c1.27,15.17,2.7,30.37,5.77,45.31
		c1.46,5.42,1.07,11.24,3.2,16.5c4.08,12.69,11.02,24.15,15.9,36.53c5.54,10.51,11.65,20.73,18.02,30.78
		c3.77,7.7,6.84,15.7,10.54,23.46c3.57,8.55,9.31,15.9,13.84,23.94c3.98,8.91,12.11,14.86,19.52,20.74
		c9.44,6.8,21.29,5.45,32.05,7.94c7.19,1.78,14.25-1.39,21.34-2.24c10.19-1.24,20.54-2.6,30.26-6.05
		c12.01-5.84,24.51-10.87,37.64-13.57c17.73-5.94,35.35-12.5,52.14-20.8c7.77-4.79,15.77-9.19,24.16-12.8
		c14.34-8.08,28.58-16.42,42.26-25.59c10.21-6.62,17.85-16.16,26.87-24.14c16.62-19.05,31.94-40.27,39.13-64.79
		c3.34-10.14,10.51-18.53,13.22-28.91c3.2-11.11,11.57-19.8,15.03-30.84c5.69-16.1,14.33-30.81,22.05-45.95
		c4.1-7.89,5.66-16.92,10.64-24.38c8.82-14.45,12.56-31.32,21.28-45.81c3.5-6.3,6.64-12.76,9.75-19.24
		c4.81-9.96,11.86-18.67,16.31-28.81c5.27-10.16,12.06-19.54,20.12-27.67c4.89-7.04,9.77-14.14,15.77-20.31
		c5.59-5.76,10.17-12.52,16.5-17.53c8.09-6.55,15.98-13.34,24.06-19.91c4.34-3.68,10.01-5.12,14.68-8.31
		c9.76-6.94,21.44-10.18,31.74-16.14c11.46-4.42,20.22-13.36,30.82-19.31c5.06-3.09,9.12-7.5,13.65-11.27
		c8.69-6.23,16.92-13.04,24.82-20.25c7.03-5.6,14.17-11.21,19.56-18.5c2.79-4.07,7.64-5.67,11.55-8.37
		c9.42-5.64,17.67-12.95,26.07-19.97c7.35-8.13,16.71-13.93,24.95-21.07c11.48-10.24,25.34-17.25,37.77-26.23
		c10.63-7.88,21.87-14.86,33.08-21.87c13.93-8.55,26.65-18.96,40.94-26.95c5.27-3.12,11.09-5.39,16.06-9.04
		c9.9-8.02,21.67-13.08,32.62-19.44c14.15-7.22,28.01-14.99,42.57-21.4c10.96-6.65,21.49-14,32.52-20.56
		c14.9-9.04,26.32-22.57,36.46-36.52c2.35-3.28,5.85-5.39,8.73-8.14c5.35-7.49,9.98-16.49,8.3-25.99
		c-1.53-7.58-3.2-16.06-9.72-20.97c-2.64-2.93-7.12-1.42-10.33-1.53c-4.29,0.57-7.88-3.23-12.03-3.09
		c-5.24,1.24-9.81,4.25-14.8,6.15c-4.51,1.11-9.11,1.66-13.37,3.53c-5.52,2.47-10.57,5.99-16.41,7.65
		c-8.31,2.43-15.65,7.2-23.78,10.06c-10.43,3.74-19.17,10.84-29.48,14.82c-6.91,3.91-13.8,7.91-21.28,10.59
		c-9.29,3.38-17.53,9.1-27.05,11.91c-4.91,1.96-10.4,1.25-15.24,3.4c-3.87,1.7-8.68-0.86-10.07-4.69
		c-3.83-7.81,0.59-16.48,5.35-22.82c9.47-10.07,19.47-19.76,30.61-28c4.13-3.98,8.08-8.15,12.63-11.69
		c9.38-7.25,16.15-17.19,25.09-24.93c14.74-12.24,29.56-24.42,43.71-37.33c10.17-6.22,17.86-15.45,27.07-22.88
		c5-4.7,9.35-10.06,14.66-14.45c3.73-3.84,7.82-7.47,12.86-9.49c0.41-3.3,0.49-6.71,0.81-9.98c0.47-0.08,1.4-0.22,1.87-0.29
		c0.75,1.31,1.52,2.62,2.37,3.95c1.01-4.54,1.67-9.23,3.99-13.35c4.68-8.27,6.16-17.84,10.7-26.18c4.01-6.92,1.08-15.29-2.37-21.79
		c-3.88-6.78-8.61-13.52-15.5-17.45c-5.79-3.14-12.75-2.54-18.73-0.35c-11.22,2.87-20.9,9.44-30.69,15.31
		c-12.21,7.41-22.95,16.9-33.32,26.64c-8.66,8.12-18.6,14.67-27.35,22.66c-11.29,10.11-22.82,19.91-34.57,29.46
		c-5.93,4.74-9.22,11.94-14.81,16.96c-10.2,5.91-18.53,14.22-27.21,22.04c-6.94,6.68-11.57,15.63-19.47,21.29
		c-6.68,3.06-12.12,8.05-18.07,12.22c-4.08,3.04-9.41,3.45-14.15,4.67c-2.41-6.63-0.39-13.88,3.04-19.76
		c5.38-9.16,10.3-18.56,15.4-27.87c8.68-12.82,18.15-25.13,26.46-38.2c5.7-12.23,11.02-24.7,18.14-36.21
		c5.83-6.44,9.15-14.59,14.13-21.65c6.09-8.69,10.29-18.42,15.13-27.81c3.89-8.19,9.71-15.27,13.69-23.42
		c4.09-8.09,9.49-15.47,13.15-23.79c8.85-19.77,22.96-37.76,25.49-59.85c1.58-9.51,2.91-19.24,2.16-28.86
		c-2.62-7.24-7.87-13.39-12.8-19.15c-20.58-6.35-43.83,1.87-57.85,17.81c-16.87,16.43-26.81,38.19-42.06,55.91
		c-7.57,10.16-14.74,20.6-22.28,30.78c-6.89,8.45-10.39,19.07-17.68,27.27c-9.74,11.16-15.06,25.22-24.22,36.79
		c-7.21,8.74-12.17,18.98-18.76,28.15c-8.83,12.87-17.01,26.17-25.96,38.96c-5.77,10.01-12.5,19.45-19.82,28.39
		c-2.45,2.45-6.03,3.14-9.13,4.39c0.95-5.76,3.43-11.06,5.59-16.43c1.09-7.07,2.42-14.16,4.75-20.94
		c2.02-4.39,2.66-10.45,8.17-11.84c-0.56-4.58-0.45-9.28,1.6-13.51c4.48-10.91,6.46-22.67,11.21-33.49
		c3.06-7.71,7.14-15.06,8.94-23.23c3.17-11.61,9.14-22.21,12.2-33.85c2.31-7.39,7.81-13.21,10.36-20.52
		c8.24-17.94,15.5-36.32,23.93-54.17c4.13-6.74,3.53-14.98,4.48-22.49c1.7-13.79,0.9-28.05-3.19-41.37
		c-3.97-8.59-9.12-18.23-18.84-21.18c-6.6-0.14-13.15,0.72-19.43,2.6c-2.52,0.57-3.4,3.21-4.55,5.18
		c-4.47,8.5-12.08,14.76-16.81,23.08c-8.51,13.08-14.82,27.35-21.65,41.32c-3.92,8.72-6.63,18.02-11.68,26.19
		c-3.58,5.33-3.85,12.2-8,17.19c-4.34,5.31-6.49,11.89-9.07,18.14c-10.09,21.18-18.5,43.13-28.57,64.33
		c-4.14,6.89-4.84,15.14-8.76,22.13c-4.05,7.39-7.3,15.17-10.12,23.11c-5.27,13.56-12.96,26.02-18.22,39.59
		c-5.82,13.07-14.41,24.64-22.12,36.61c-1.67,2.97-2.32,6.39-4.04,9.33c-4.65,5.87-6.73,13.17-10.13,19.75
		c-2.72,9.15-9.29,16.86-17.8,21.15c-5.2-0.11-12.02,0.43-15.86-3.73c-7.87-13.22-11.88-28.59-11.78-43.97
		c-1.81-10.51-2.69-21.14-3.37-31.76c-0.46-12.38-3.84-24.42-6.99-36.32c-1.81-6.54-6.11-12.18-6.83-19.06
		c-1.95-11.25-7.94-21.31-14.31-30.58c-5.13-8.03-10.84-16.1-19.35-20.85c-8.4-6.88-20.26-7.1-30.43-5.59
		c-10.43,3.49-18.74,10.97-27.31,17.53c-4.85,3.43-9.25,7.69-12.23,12.85c-0.64,4.17,1.9,8.03,3.17,11.9
		c5.64,16.88,9.9,34.21,12.24,51.88c4.66,23.49,6.99,47.61,5.12,71.54c-0.61,5.47,1.93,11.03,0.4,16.44
		c-1.66,6.82-3.11,13.7-3.98,20.68c-0.95,4.56-2.24,9.08-1.65,13.83c0.11,5.11-3.34,9.62-2.29,14.9
		c0.34,13.62-6.24,26.17-8.16,39.48c-1.72,13.47-5.71,26.59-5.82,40.23c-9.11,18.04-9.43,38.56-14.17,57.84
		c-3.26,14.11-2.81,28.71-5.1,42.97c-2.25,14-0.76,28.18-0.18,42.25c1.56,10.29,3.02,20.6,4.21,30.97c0.5,6.57-7.11,8.91-9.83,13.96
		c-13.09,20.73-26.63,41.2-41.34,60.82c-9.75,10.88-20.7,20.58-31.31,30.59c-14.57,12.51-28.04,26.37-43.89,37.32
		c-7.35,7.13-17.06,11.3-24.06,18.85c-3.07,3.18-7.26,4.79-11.27,6.39c-10.48,3.03-17.72,11.83-26.62,17.58
		c-3.92,2.41-7.17,6.36-11.93,7.06c-8.54,1.71-14.88,8.6-22.94,11.38c-12.03,2.06-22.18,9.3-33.28,13.84
		c-10.23,4.81-18.12,13.05-27.34,19.37c-10.78,6.22-18.91,15.87-25.82,26.03c-7.59,10.83-14.9,22.13-18.57,34.98
		c-3.04,7.02-1.64,14.86-2,22.32c4.21-1.56,8.57-3.68,10.97-7.68c4.32-9.74,6.16-20.73,12.66-29.42c4.67-6.36,8.36-13.49,13.7-19.33
		c8.88-7.19,19.39-12.34,27.31-20.71c1.45-1.55,3.06-3,5.01-3.92c10.04-4.87,20.79-8.1,30.79-13.08c19.93-8.59,38.23-20.39,57-31.16
		c9.41-6.11,19.06-11.95,27.42-19.5c12.25-6.24,21.18-16.92,32.22-24.87c9.76-6.94,16.24-18.62,28.42-21.86
		c4.32-4.57,7.55-10.24,12.74-14.01c11.43-8.16,19.01-20.29,29.59-29.41c14.62-18.04,24.55-39.52,40.27-56.74
		c4.63-4.79,12.76-4.82,16.1-11.02c4.05-6.27,7.64-13.38,8.31-20.87c-6.49-33.44-8.84-68.02-3.04-101.73
		c1.17-12.34,5.04-24.5,3.55-36.99c-1.17-8.44,4.34-15.73,5.87-23.73c4.71-13.38,6.21-27.6,10.98-40.94
		c3.63-8.79,2.44-18.68,5.38-27.64c1.28-3.78,1.98-7.75,2.25-11.71c0.67-6.32-1.01-12.81,1.24-18.94
		c11.36-37.37,9.14-77.32,3.69-115.53c-0.69-10.91-1.68-21.92-4.87-32.41c-3.09-8.89-3.37-18.52-7.11-27.18
		c-1.73-5.03-4.6-10.79-1.99-16c6.25-7.74,17.07-13.43,27.1-9.85c7.67,1.8,13.75,7.31,18.95,12.95
		c12.08,15.47,17.35,34.72,23.6,53.01c2.67,11.71,7.05,23.3,6.68,35.49c0.1,8.87,1.57,17.61,2.48,26.44
		c0.26,18.93,5.34,37.74,13.77,54.63c5.37,5.66,12.89,10.4,20.98,10.05c13.58,1.61,24.68-7.51,33.7-16.41
		c8.33-7.9,12.99-18.63,18.31-28.58c4-10.53,9.93-20.11,14.81-30.22c3.98-8.19,9.93-15.27,13.56-23.66
		c13.41-24.46,21.49-51.28,32.11-76.96c2.29-4.92,6.49-8.69,8.77-13.61c2.2-7.33,4.03-14.87,7.85-21.58
		c4.64-8.43,7.23-17.77,11.74-26.26c3.72-6.98,5.53-14.77,9.31-21.72c8.55-16.52,17.47-32.88,24.62-50.06
		c4.83-12.43,9.13-25.27,16.97-36.21c5.68-9.73,11.96-19.99,22.3-25.32c2.51,2.26,5.36,4.34,6.89,7.5
		c6.09,11.06,7.69,24.41,5.41,36.76c-2.13,10.14-3,20.7-7.23,30.28c-4.6,12.09-11.3,23.46-14.11,36.19
		c-1.82,6.64-6.49,11.95-9.63,17.96c-1.67,5.63-4.58,10.73-7.2,15.95c-5.08,10.08-7.67,21.16-11.62,31.69
		c-2.95,8.29-7.84,15.76-10.2,24.29c-3.16,11.56-8.63,22.32-11.88,33.84c-3.28,8.23-7.97,15.94-9.75,24.72
		c-3.41,16.4-13.62,31.64-11.33,48.9c3.09,8.04,14.07,10.96,21.58,7.42c8-2.45,14.05-8.46,19.8-14.22
		c11.28-13.92,22.23-28.33,30.35-44.38c2.46-7,7.45-12.6,11.74-18.52c12.07-15.8,21.35-33.58,34.11-48.87
		c5.87-7.09,7.62-16.55,13.26-23.78c5.67-7.14,9.74-15.34,15.31-22.56c5.37-9.12,12.79-16.75,18.39-25.7
		c5.84-9.65,12.67-18.63,19.07-27.91c6.25-9.6,14.47-17.66,21.08-27c7.43-6.84,14.3-15.21,24.08-18.74
		c5.03-0.15,10.12,0.12,15.06,1.5c4.15,2.58,6.64,7.52,7.61,12.2c-0.5,14.21-5.73,27.67-11.23,40.6
		c-5.86,13.32-10.67,27.47-20.07,38.81c-5.48,8.99-8.11,19.45-13.84,28.37c-5.95,9.56-10.35,19.99-16.43,29.48
		c-12.33,21.27-25.47,42.06-37.61,63.45c-3.17,5.22-5.42,10.97-9.03,15.93c-14.3,21.04-29.9,41.57-39.64,65.27
		c-2.61,8.06-3.65,18.43,3.36,24.72c2.69,3.06,6.95,3.44,10.78,4.11c10.33,0.61,22.19,0.31,29.89-7.72
		c3.92-4.56,9.42-7.24,14.02-11.01c11.72-13.25,24.51-25.54,38.18-36.78c17.74-14.08,34.44-29.58,49.39-46.6
		c3.17-2.86,6.75-5.23,9.84-8.2c6.35-6.5,14.97-10.15,21.37-16.63c4.93-5.18,11.56-8.31,16.31-13.69
		c3.97-3.96,7.51-8.79,12.76-11.23c5.72-2.72,11.32-5.75,16.37-9.64c6.11-5.35,14.36-6.51,21.85-8.9
		c6.85,0.63,10.59,7.44,14.06,12.54c3.75,4.67-0.8,10.11-2.33,14.66c-3.3,8.94-6.89,17.89-12.48,25.68
		c-6.39,11.03-17.37,18.04-25.76,27.36c-11.58,10.79-22.97,21.82-35.45,31.58c-3.09,2.91-5.78,6.2-8.89,9.05
		c-17.62,14.65-34.66,30.03-51.9,45.11c-7.87,4.6-13.91,11.39-19.68,18.29c-4.63,5.82-11.81,8.81-16.4,14.65
		c-3.43,4.41-9.15,5.98-13.01,9.82c-2.83,4.33-5.15,9.02-7.35,13.7c-4.32,9.71-0.75,20.21-2.26,30.32
		c8.89,6.26,19.3,10.61,30.21,11.49c5.47-0.67,11.19-1.75,16.05-4.58c10.56-6,22.2-9.61,33.52-13.85
		c10.5-5.73,21.46-10.68,31.28-17.61c5.22-4.02,11.69-5.69,18.04-7c9.88-2.47,17.86-9.21,27.35-12.64
		c11.27-4.9,23.14-8.38,35.32-10.23c4.54,0.13,11.74-1.53,14.08,3.85c1.96,4.55,1.86,10.52-1.31,14.56
		c-4.02,5.61-7.53,11.57-10.39,17.85c-1.34,3.28-5.16,4.16-7.61,6.35c-6.62,5.71-11.39,13.46-18.94,18.06
		c-9.43,6.03-18.71,12.42-28.93,17.01c-6.62,3.32-13.49,6.13-19.68,10.21c-20.42,13.62-43.97,21.67-64.18,35.66
		c-12.54,6.9-24.95,14.04-36.31,22.8c-11.44,5.09-20.57,13.88-31.63,19.63c-12.08,6.45-21.61,16.52-33.34,23.48
		c-8.07,4.77-16.41,9.28-23.4,15.61c-4.15,3.39-9.62,4.71-13.38,8.64c-8.25,8.12-17.18,15.5-25.92,23.07
		c-7.63,7.79-16.22,14.51-24.89,21.08c-10.26,7.26-19.52,15.8-28.83,24.21c-6.77,6.42-15.67,10.07-22.04,16.94
		c-8.16,7.58-17.59,13.63-26.53,20.23c-16.86,7.65-34.28,14.74-49.3,25.76c-5.3,3.54-11.47,5.58-16.39,9.69
		c-13.18,8.93-24.05,20.64-36.32,30.68c-7.24,8.89-15.48,17.14-21.11,27.22c-5.04,7.75-11.86,14.27-15.9,22.68
		c-3.03,6.59-7.89,12.04-12.13,17.86c1.07,0.97,2.17,1.96,3.3,2.98c-5.25,4.66-11.01,9.25-13.46,16.1
		c-7.14,15.97-17.13,30.63-22.59,47.33c-4.89,11.63-11.15,22.66-15.37,34.59c-3.87,10.62-10.9,19.67-15.03,30.18
		c-4.87,8.97-8,18.71-11.81,28.14c-5.02,10.26-10.49,20.32-15.07,30.79c-3.21,8.88-7.04,17.5-10.66,26.22
		c-2.06,7.12-8.25,11.84-10.65,18.82c-6.25,8.83-7.54,20.48-15.58,28.15c-7.69,7.75-12.04,18.75-21.68,24.47
		c-4.95,4.05-9.46,8.82-15.46,11.37c-19.02,9.02-33.54,26.04-53.97,32.18c-4.43,1.44-7.57,5.05-11.42,7.46
		c-3.04,2.02-6.7,2.64-10.07,3.84c-19,6.32-38.6,11.33-56.46,20.6c-10.45,5.05-22.32,5.5-33.55,7.48
		c-10.13,1.96-21.15,2.59-30.62-2.03c-5.58-2.69-11.66-3.39-17.73-3.75c-5.81-10.89-12.34-21.39-19.72-31.27
		c-5.6-6.65-7.68-15.25-12.76-22.2c-5.73-9.91-8.24-21.53-15.01-30.88c-8.52-12.06-13.05-26.31-17.99-40.06
		c-1.47-6.62-1.57-13.44-4.21-19.76c-5.09-14.07-5-29.14-6.46-43.83c0.84-23.24,4.19-46.31,8.04-69.21
		c2.86-13.07,1.8-26.77,5.6-39.64c4.1-14.26,8.56-28.43,10.64-43.17c4.22-14.55,9.04-28.92,12.82-43.61
		c3.15-12.17,4.2-24.7,6.39-37.04c3.53-17.08,5.09-34.56,10.41-51.24c4.45-11.76,8.3-23.85,9.83-36.37c0.87-6,2.95-11.7,4.26-17.58
		c1.11-11.62,4.07-22.89,6.43-34.27c2.05-13.65,6.2-26.85,9.45-40.24c2.56-10.71,7.78-20.52,10.35-31.23
		c1.49-6.31,4.66-12.03,6.37-18.25c2.47-14.42,9.2-27.65,12.26-41.91c1.85-12.22,8.05-23.13,11.18-34.99
		c4.28-15.59,11.77-30.12,15.19-45.96c2.21-9.4,7.27-17.82,9.47-27.21c1.49-9.33,7.75-16.89,9.73-26.07
		c4.78-24.35,16.83-46.44,23.14-70.31c7.25-23.12,15.39-45.99,21.3-69.51c0.94-5.7,5.22-9.8,7.11-15.08
		c3.98-10.71,7.13-21.72,11.61-32.23c5.59-13.14,8.78-27.16,14.73-40.15c2.72-6.36,3.87-13.27,6.75-19.58
		c5.83-13.36,9.27-27.6,14.63-41.14c5.41-14.44,13.2-27.83,18.94-42.12c3.46-8.59,8.61-16.36,12.37-24.81
		c4.48-9.03,9.58-17.93,16.37-25.46c4.59-5.51,6.74-12.8,12.54-17.38c6.01-4.98,11.71-10.29,17.61-15.39
		c6.26-4.73,13.11-8.61,20.18-12c12.02-5.88,23.89-12.08,35.96-17.87c10.33-4.24,19.87-10.28,30.73-13.24
		c15.39-5.82,31.06-11.31,45.33-19.67c11.73-5.04,24.43-7.51,35.92-13.28c17.18-8.47,36.13-12.31,53.53-20.3
		c27.29-10.84,55.08-22.73,76.31-43.7c6.59-8.36,12.97-17.07,17.24-26.89c45.67,40.58,105.49,67.42,167.26,66.42
		c37.67,0.5,75.39-8.01,109.03-25.03c23.32-11.14,44.12-26.72,63.86-43.26c4.51,10.54,11.21,20.01,18.55,28.76
		c6.16,5.17,12.3,10.41,18.91,15.05c20.55,14.18,44.32,22.4,67.17,32.03c12.49,4.99,25.78,7.91,37.94,13.79
		c10.82,5.07,22.13,9.03,33.54,12.6c7.1,1.91,13.08,6.3,19.7,9.36c13.91,6.04,28.06,11.59,42.43,16.5
		c17.04,7.77,33.9,15.98,50.6,24.48c11.7,5.73,23.74,11.44,33.04,20.81c6.26,6.08,14.12,10.75,18.34,18.66
		c2.29,4.51,5.29,8.6,8.73,12.32c9.12,11.88,14.91,25.82,22.02,38.92c4.59,9.53,8.31,19.47,13.23,28.86
		c7.17,14.33,12.71,29.39,17.36,44.72c3.58,11.49,9.21,22.22,12.13,33.94c7.03,16.14,11.38,33.3,18.35,49.48
		c4.42,10.22,6.2,21.59,11.82,31.29c6.75,7.89,5.74,19.26,9.56,28.52c5.61,17.33,10.74,34.83,16.64,52.07
		c6.58,23.98,18.14,46.4,23.38,70.83c1.67,7.87,6.86,14.37,8.77,22.16c2.81,12.38,8.83,23.7,11.88,36.02
		c2.48,11.9,8.39,22.71,11.6,34.41c4.25,15.73,11.9,30.42,14.6,46.6c2.47,10.9,7.09,21.14,9.82,31.98
		c1.46,7.92,5.04,15.16,7.22,22.89c2.79,10.63,7.87,20.49,10.56,31.17c3.09,13.63,7.52,26.98,9.43,40.87
		c2.49,10.97,5.03,21.94,6.08,33.18c1.4,5.44,3.14,10.81,4.01,16.41c1.5,13.25,5.76,25.99,10.53,38.4
		c3.74,12.15,5.59,24.79,7.27,37.37c2,9.35,3.74,18.79,4.84,28.3c1.24,10.83,5.08,21.42,4.58,32.41c6.52,0.01,13.09,0.01,19.71,0.01
		c-2.71-21.18-6.14-42.26-10.2-63.22c-1.93-14.13-5.83-27.92-10.42-41.38c-5.31-18.42-9.7-37.11-12.71-56.03
		c-0.48-4.01-0.7-8.05-1.76-11.95c-4.88-23.55-10.46-47.05-19.16-69.51c-2.54-6.12-5.62-12.04-7.46-18.41
		c-3.54-12.49-5.8-25.32-10.11-37.58c-3.18-15.66-10.75-30.04-13.32-45.87c-2.52-7.11-6.1-13.83-8.14-21.12
		c-6.13-11.94-8.96-25.12-12.15-38.05c-3.39-9.65-7.84-18.91-11.56-28.4c-0.28-9.16-5-17.07-7.34-25.7
		c-10.63-34.53-22.97-68.54-33.16-103.24c-4.52-12.26-9.17-24.56-10.93-37.59c-5.98-15.19-14.98-29.34-18.44-45.46
		c-3.5-12.98-8.93-25.31-12.28-38.31c-2.69-11.37-8.81-21.46-12.48-32.48c-3.92-10.41-5.83-21.52-10.85-31.49
		c-10.23-19.63-15.83-41.36-27.44-60.33c-7.75-16.21-17.35-31.38-26.4-46.86c-4.05-5.01-10.25-7.63-14.36-12.55
		c-7.09-7.77-15.35-14.3-24.18-19.94c-11.49-9.12-25.74-13.35-38.97-19.08c-8.06-5.67-17.07-9.53-25.88-13.81
		c-13.21-7.35-28.46-9.76-42.07-16.16c-11.94-5.24-23.21-11.99-35.66-15.98c-8.4-2.36-16.56-5.6-24.66-8.73
		c-8.57-4.57-17.51-8.37-26.88-10.87c-13.04-3.69-25.5-8.92-37.88-14.28c-23.34-9.51-47.72-21.07-63.21-41.79
		c-5.46-5.97-5.53-16.93-14.73-18.84c39.81-37.74,69.85-84.97,91.16-135.32c25.67-60.67,39.28-126.21,42.08-191.95
		c2.78-77.98-6.92-157.24-34.93-230.39c-18.16-48.58-44.38-94.35-78.74-133.3c-25.63-28.16-54.81-53.77-88.98-71.04
		c-33.87-17.45-71.8-27.71-110.03-27.03C1989.32-574.58,1951.61-566.07,1917.97-549.05 M1044.13-202.01
		c-0.61,21.66,0.13,43.33-0.14,64.99c-20.68,0.25-41.35-0.39-62,0.14c-3.66-0.54-8.05,0.81-9.43,4.49
		c-2.28,4.72,1.05,11.22,6.43,11.26c21.65,0.59,43.32-0.14,64.99,0.14c0.24,20.66-0.4,41.33,0.14,62c-0.58,3.6,0.82,8.06,4.49,9.43
		c4.7,2.24,11.23-1.05,11.26-6.43c0.59-21.66-0.15-43.33,0.14-64.99c20.66-0.26,41.33,0.39,62-0.14c3.56,0.51,8.07-0.8,9.43-4.49
		c2.22-4.73-1.04-11.22-6.43-11.26c-21.67-0.6-43.34,0.14-64.99-0.14c-0.26-20.67,0.38-41.34-0.14-62c0.48-3.62-0.79-8.06-4.49-9.43
		C1050.64-210.7,1044.17-207.39,1044.13-202.01 M72.45-560.5c29-1.9,58.09,3.93,85.22,13.96c33.22,12.1,63.42,31.63,89.46,55.42
		c24.25,21.86,43.89,48.25,61.3,75.72c28.61,46.64,48.28,98.49,60.06,151.83c14.48,67.2,17.81,137.02,7.05,205.03
		c-7.41,46.92-20.1,93.15-39.61,136.52c-21.16,47.76-50.62,92.29-88.73,128.22c-39.7,36.16-89.78,62.54-143.65,68.26
		c-35.89,4.71-72.34-2.88-105.51-16.53c-39.44-16.3-74.15-42.8-102.53-74.47c-44.44-51.09-74.64-113.36-92.49-178.39
		c-22.53-84.05-26.59-173.38-8.63-258.69c16.29-80.22,50.09-158.43,105.5-219.5C-55.78-521.71,6.05-556.46,72.45-560.5
		 M2015.45-558.5c32.36-2.1,64.69,5.34,94.51,17.57c38.14,15.73,71.78,41.08,99.68,71.27c34.59,39.01,61.22,84.79,79.57,133.52
		c24.53,63.65,35.4,132.1,35.82,200.14c-0.86,66.44-13.08,132.92-37.23,194.87c-19.2,49.22-46.46,95.62-82.58,134.35
		c-41.59,44.22-97.75,76.59-158.67,83.24c-35.89,4.71-72.34-2.88-105.51-16.53c-38.14-15.73-71.79-41.08-99.68-71.27
		c-45.33-50.85-76.17-113.3-94.52-178.59c-23.26-84.92-27.62-175.37-9.45-261.69c15.97-78.62,48.71-155.25,102.18-215.8
		C1884.14-517.98,1947.36-554.34,2015.45-558.5 M200.62,260.6c18.05-9.69,34.06-22.52,50.35-34.8c-1.74,2.69-5.27,4.87-5.63,8.05
		c6.4,14.68,18.33,26.5,31.35,35.49c10.31,7.27,22.12,11.92,33.34,17.54c21.21,7.02,42.15,15.11,64.07,19.81
		c10.73,2.23,20.95,6.23,31.22,9.96c12.13,4.8,25.86,4.84,37.27,11.55c16.19,7.01,33.4,11.23,50.35,15.96
		c11.87,5.04,24.18,8.91,35.98,14.14c17.87,7.86,37.56,13.14,52.35,26.53c4.73,3.9,10.33,6.76,14.47,11.38
		c3.64,4.39,6.22,9.66,10.32,13.72c7.84,7.82,13.81,17.27,19.43,26.75c5.57,8.29,10.28,17.12,14.82,26.01
		c8.37,15.16,17.99,29.76,24.02,46.1c5.48,15.01,13.64,28.84,19.19,43.82c7.15,13.34,11.73,27.84,18.67,41.29
		c7.13,13.83,11.8,28.83,19.84,42.21c2.92,4.55,4.45,9.76,6.11,14.85c8.02,20.76,16.62,41.29,24.86,61.96
		c2.09,7.94,6.56,14.87,9.74,22.37c6.23,14.08,13.03,28.01,17.23,42.88c2.27,7.33,7.69,13.14,10.08,20.42
		c2.96,11.75,10.29,21.7,13.98,33.19c2.24,7.98,5.69,15.55,9.28,23c6.47,12.07,9.82,25.53,16.17,37.67
		c2.75,5.14,4.77,10.63,6.03,16.34c3.89,14.03,11.92,26.49,15.32,40.71c5.33,10.63,8.65,22.12,13.99,32.75
		c5.48,11.23,8.71,23.33,12.85,35.08c3.85,10.33,5.51,21.28,9.37,31.63c3.15,8.75,3.51,18.29,7.13,26.9
		c3.31,8.88,4.69,18.33,7.83,27.28c2.39,5.87,4.7,11.8,7.47,17.52c3.26,6.68,4.45,14.12,6.98,21.1c2.29,6.28,2.34,13.13,4.35,19.52
		c3.27,9.52,5.61,19.34,7.51,29.22c1.81,9.46,5.2,18.54,6.8,28.06c7.44,24.39,10.81,49.94,10.8,75.43
		c-0.29,14.02,2.61,27.84,2.61,41.86c-1.22,19.29-0.92,38.78-5.06,57.78c-1.84,14.75-4.71,29.38-6.18,44.19
		c-3.13,12.48-6.33,25.19-13.08,36.29c-4.18,6.63-5.75,14.92-11.62,20.38c-7.76,5.28-17.17,7.67-24.68,13.36
		c-5.53,4.04-12.88,3.72-19.36,4.64c-12.14,2.13-22.97-4.63-34.61-6.48c-4.48-0.81-8.17-3.73-12.42-5.05
		c-9.9-2.06-18.17-8.18-27.03-12.62c-9.05-7.51-18.55-14.71-25.76-24.08c-2.73-3.55-6.2-6.56-9.34-9.66
		c-8.42-8.06-14.87-17.83-22.22-26.79c-3.3-4.04-4.78-9.14-7.7-13.39c-7.9-10.63-15.61-21.44-21.96-33.08
		c-5.36-10.02-13.01-18.53-18.45-28.48c-4.19-6.64-6.89-14.09-11.41-20.53c-4.36-6.4-8.67-12.86-12.22-19.73
		c-4.33-8.41-11.57-14.98-15.34-23.69c-2.49-5.14-3.81-10.99-7.77-15.23c-6.43-7.35-9.5-16.88-15.54-24.49
		c-2.03-3.14-4.76-5.78-6.41-9.14c-3.57-9.32-9.34-17.5-14.45-25.98c-3.91-6.57-9.81-11.63-13.89-18.06
		c-6.82-10.27-12.37-21.34-19.37-31.49c-7.2-12.27-16.86-22.75-24.48-34.71c-6.04-8.51-10.1-18.23-16.59-26.41
		c-6.11-11.06-12.69-22.31-22.85-30.18c-5.38-6-9.55-12.99-15.13-18.82c-5.32-4.85-5.75-12.97-11.18-17.77
		c-10.16-9.2-19.19-19.49-28.03-29.93c-5.08-6.6-12.08-11.44-16.71-18.42c-8.62-12.12-22.61-18.55-32.34-29.57
		c-5.98-4.87-9.42-11.89-14.39-17.63c-5.62-6.7-10.65-14.01-17.65-19.39c-7.36-5.94-14.38-12.26-21.31-18.68
		c-8.52-8.47-19.79-14.27-26.55-24.32c-0.01-5.71,2.32-11.18,2.9-16.83c-5.6-2.46-11.44-4.1-17.45-5.12
		c-0.98,3.35-1.99,6.67-2.86,10.08c-6.32,0.65-11.33,4.83-16.92,7.37c-4.06,2.03-8.37,3.43-12.65,4.87
		c-3.82,1.33-5.36,5.76-9.09,7.25c-5.19,2.15-11.07,1.49-16.24,3.7c-3.49,1.42-7.25,1.93-10.84,2.93
		c-11.64,4.16-23.82,9.83-36.45,7.94c-10.74,0.41-20.9,5.87-31.78,4.45c-7.83-1.37-15.7,1.24-23.52-0.37
		c-8.43-0.42-16.53-2.4-24.68-4.27c-9.64-0.13-19.36-1.91-28.91,0.22c-24.12,3.82-48.58,4.63-72.8,7.73
		c-12.55,1.46-25.21,2.4-37.84,1.72c-2.64-0.14-4.41-2.65-4-5.18c1.05-14.41-3.3-28.48-3.33-42.87c10.7-3.78,16.4-14.62,26.45-19.54
		c5.7-2.26,9.81-7.16,13.54-11.8c4.55-8.45-4.28-14.36-8.52-20.41c-2.81-4.97-9.12-3.94-13.47-6.52
		c-12.34-5.55-26.89-12.3-30.93-26.48c-0.84-2.54-2.52-5.54-0.52-7.97c6.45-9.32,11.48-19.51,17.64-29.02
		c11.79,7.08,23.45,14.44,34.31,22.91c4.53,3.83,10.54,4.37,16.15,5.62c2.1-4.85,5.12-9.25,7.21-14.09
		c-1.07-5.58-7.25-7.13-11.7-9.15c-10.03-3.59-18-10.85-27.22-15.93c-9.91-6.15-21.14-12.86-24.68-24.8
		c-2.38-3.66-0.06-7.19,1.04-10.62c0.95-2.61,0.52-5.46,1.34-8.08c2.88-5.74,7.21-10.51,11.66-15.05c3.26,0.84,6.84,1.61,9.61,3.73
		c5.9,4.49,13.23,6.3,19.93,9.25c9.62,5.35,21.46,4.55,31.85,2.23c5.14-1.39,2.51-8.44-0.14-11.11c-7.56-5.09-16.4-8.14-25.25-10.13
		c-7.29-2.16-13.02-7.31-19.14-11.55c-2.11-1.72-4.77-3.31-5.53-6.08c-0.35-6.1,1.57-12.18,0.41-18.24
		c-1.02-4.93-2.46-9.75-3.35-14.69c-1.29-7.95,2.64-15.5,4-23.17c0.89-4.86,4.95-8.62,9.92-8.92c15.88-1.89,31.97-3.55,47.96-2.08
		c6.18,0.98,13.01-0.52,18.54,3.21c5.51,1.84,8.99,6.9,10.87,12.12c0.68,3.57-0.3,7.3-0.88,10.86c-0.52,2.18-0.66,5-2.94,6.15
		c-4.84,2.15-9.87,4.99-15.42,4.17c-6.48-1.08-13.07-1.44-19.51-2.69c-9.05-2.76-17.53-7.16-26.69-9.57
		c-1.1,4.82-4.1,9.74-3.16,14.78c1.99,2.63,3.81,6.45,7.32,7.43c10.2,2.86,20.19,7.01,30.82,8.08c9.02,0.85,17.81,3.49,26.94,3.37
		c13.58-0.05,26.86,4.08,40.49,3.07c3.66-0.34,7.23-2.55,10.95-1.37c9.06,2.48,18.4,4.26,27.81,4.34c3.72-2.2,6.72-5.45,9.78-8.47
		c-3.55-3.49-6.36-8.05-10.94-10.29c-4.53-0.89-9.18-0.2-13.73-0.7c-9.61-1-19.27-3.02-28.93-1.96c-5.47,1.24-11.08,0.38-16.59,0.07
		c0.79-2.02,1.78-3.99,2.11-6.15c1.11-11.65,1.9-23.48-0.24-35.06c6.32,2.39,12.94,3.8,19.69,2.95
		c23.26,4.33,45.75,11.84,68.8,17.07c10.42,3.67,20.73,7.69,31.58,10c7.76,4.85,16.93,6.34,24.77,11.02
		c5.55,3.18,9.31,8.62,14.33,12.52c3.95,2.79,8.41,4.87,12.15,8c6.99,6.27,15.57,10.34,23.13,15.87c5.32,4.01,11.44,6.68,17.25,9.85
		c7.33,8.94,15.97,16.68,25.08,23.77c6.76,7.38,15.94,11.93,22.48,19.53c14.56,12.72,27.78,26.91,42.29,39.71
		c5.78,4.85,13.47,7.82,16.84,15.08c2.01,3.02,1.86,7.56,5.14,9.59c6.11,2.73,10.06,8.24,15.29,12.17c2.3,1.73,3.91,4.16,5.49,6.54
		c11.39,15.41,25.8,28.08,38.68,42.19c4.95,4.71,10.6,8.92,14.17,14.9c5.51,9.29,14.97,14.96,21.81,23.14
		c7.68,8.7,17.97,14.63,25.56,23.43c6.06,6.99,13.94,12.01,20.25,18.74c8.5,7.52,15.56,16.86,25.45,22.66
		c7.78,7.55,16.06,14.54,24.37,21.52c5.45,4.52,8.86,11.66,15.78,14.31c12.32,5.31,19.58,17.33,30.92,24.11
		c9.04,7.37,19.19,13.16,27.99,20.83c6.71,5.76,13.73,11.15,21.31,15.74c4.43,2.49,6.45,7.51,10.46,10.51
		c11.26,8.23,23.76,15.48,32.56,26.56c5.19,5.83,10.99,11.24,17.78,15.21c5.89,3.62,10.1,9.54,16.4,12.57
		c13.56,7.25,24.03,18.84,36.8,27.26c10.93,7.9,19.78,18.17,30.07,26.84c5.66,5.99,13.21,10.32,17.41,17.64
		c4.16,5.55,3.76,12.98,7.02,18.94c4.4,1.85,9.6,1.72,14.33,1.53c2.63-1.49,4.69-3.8,7.1-5.62c-2.04-5.66-2.07-11.66-1.13-17.53
		c-10.41-7.83-18.39-18.22-28.25-26.64c-4.27-4.38-8.1-9.19-13.16-12.69c-8.21-6.1-15.42-13.37-23.68-19.36
		c-6.57-5.17-13.91-9.27-20.37-14.56c-8.94-7.41-17.1-15.77-26.64-22.4c-5.44-3.93-11.76-6.65-16.59-11.35
		c-5.9-5.44-10.66-12.03-16.8-17.17c-9.43-6.89-19.37-13.15-27.81-21.27c-5.46-5.45-12.72-8.43-18.65-13.25
		c-8.72-5.88-15.55-14.11-24.31-19.89c-10.65-7.07-20.78-14.96-29.9-23.92c-11.55-9.09-24.32-16.78-34.45-27.55
		c-8.25-7.19-16.45-14.48-25.44-20.73c-12.43-10.5-23.64-22.28-35.53-33.36c-4.48-4.22-8.15-9.17-12.49-13.47
		c-12.48-10.83-23.95-22.75-35.3-34.74c-13.09-11.54-24.37-24.97-36.91-37.07c-6.1-5.62-10.58-12.71-16.56-18.43
		c-4.21-4.79-9.17-8.81-13.57-13.38c-4.13-5.21-8.1-10.54-12.57-15.45c-4.86-5.91-11.73-9.63-17.24-14.84
		c-5.19-4.51-9.08-10.22-13.94-15.02c-3.77-3.07-8.56-4.6-12.22-7.83c-8.81-8.89-17.09-18.27-25.45-27.57
		c-3.35-2.5-7.97-2.87-10.87-6.02c-7.89-8.5-17.28-15.47-24.74-24.34c-9.47-6.84-18.68-14.03-28.4-20.53
		c-11.41-6.94-23.02-14.06-32.19-23.88c-4.99-4.13-9.26-9.45-15.65-11.51c-10.54-5.74-22.9-6.14-33.99-10.38
		c-12.25-4.56-24.48-9.25-36.82-13.52c-10.84-1.65-20.61-7-31.43-8.6c-8.42-1.5-16.51-4.26-24.76-6.42
		c-5.77-1.63-11.85-0.5-17.7-1.44c-6.2-1.3-11.66-5.44-18.01-5.93c-7.24,1.17-14.39,3.09-21.77,3.23
		c-6.19,0.87-12.14-1.64-18.3-1.64c-9.02-1.51-18,1.27-26.97,1.86c-8.51,0.52-17.04,1.49-25.3,3.69
		c-7.41,2.04-12.54,8.74-15.46,15.51c-2.23,4.85-6.23,8.46-9.71,12.4c-3.12,3.29-3.7,8.09-6.33,11.71
		c-4.35,4.62-9.22,8.74-14.22,12.66c-5.29,3.91-12.08,5.52-16.81,10.21c-2.04,1.94-4.32,4-7.3,4.1c-5.65,0.39-11.8,2.79-15.25,7.32
		c-2.73,10.86-0.13,22.38,3.3,32.83c9.17,8.21,19,16.45,30.66,20.92c2.6,6.2,1.72,13.32,4.05,19.66c1.2,3.78,4.13,6.58,6.26,9.86
		c2.85,3.92,1.2,9.13,1.04,13.53c-1.34,7.92-9.43,11.88-12.65,18.83c-2.23,4.94-4.96,9.72-6.78,14.84
		c-0.32,4.32,0.9,8.62,0.68,12.97c0.11,3.67-0.49,8.19,2.68,10.83c5.97,5.34,11.69,11,17.04,16.98c2.37,2.32,4.25,5.55,7.65,6.51
		c4.12,1.43,8.07,3.7,10.52,7.44c1.28,2.95,5.9,5.76,4.23,9.45c-2.3,6.68-10.51,6.88-15.03,11.47c-2.18-2.2-4.08-5.06-7.25-5.85
		c-3.23-0.92-6.41-2.06-9.25-3.86c-3.34-2.24-7.56-1.18-11.21-2.3c-2.67-1.5-5.11-3.28-7.73-4.8c-3.51-2.19-7.82-1.23-11.71-1.82
		c-8.37-0.43-16.7-4.06-25.05-1.53c-9.77,3.15-20.65,0.65-29.87,5.83c-6.22,3.93-12.12,8.38-17.66,13.24
		c-5.14,4.73-5.76,12.2-9.82,17.69c-2.66,7.65-10.15,11.43-14.56,17.81c-4.81,6.78-11.84,11.71-16.17,18.88
		c-4.31,7.37-12.34,11.11-18.83,16.13c-7.26,9.97-16.56,18.04-25.51,26.43c-8.35,5.03-12.46,14.2-19.89,20.22
		c-7.58,5.8-11,15.62-19.64,20.24c-9.19,5.19-16.1,13.32-24.43,19.65c-5.33,6.38-11.66,11.78-18.01,17.12
		c-10.12,12-19.24,24.81-28.14,37.73c-6.1,11.19-13.28,21.74-19.08,33.11c-6.83,10.26-8.77,22.98-15.7,33.15
		c-10.47,10.51-20.86,21.14-31.32,31.67c-7.38,8.06-17.68,12.12-27.37,16.63c-10.06,4.67-19.04,11.42-29.44,15.42
		c-8.31,3.18-15.8,8.23-24.4,10.71c-16.78,4.69-33.36,10.12-50.02,15.19c-15.36,2.24-29.57,8.99-44.85,11.62
		c-6.46,0.5-12.16,3.74-18.31,5.41c-9.15,3.58-19.06,4.59-28.21,8.22c-14.24,4.86-29.15,6.76-43.87,9.53
		c-12.8,4.44-26.53,2.86-39.59,5.9c-16.28,3.68-32.96,5.68-48.68,11.53c-13.24,4.53-27.75,5.93-39.93,13.16
		c-10.82,6.81-22.29,12.59-33.95,17.82c-6,1.69-9.75,7.07-14.83,10.36c-11.53,7.64-20.59,18.25-31.8,26.3
		c-4.05,3.04-3.98,8.39-4.8,12.97c3.99,0.46,8.75,2.47,12.02-0.88c8.6-7.17,17.95-13.29,26.87-20.04
		c6.07-5.27,13.83-7.84,20.39-12.34c9.4-5.11,19.13-9.61,28.36-15.03c4.98-2.98,10.87-3.81,16.07-6.33c3.48-1.42,6.06-4.49,9.7-5.56
		c27.79-4.78,54.69-15.02,83.09-16.12c9.11-0.24,17.79-3.39,26.78-4.51c7.93-1.55,16.2-2.21,23.54-5.85
		c9.79-2.73,19.7-5.27,29.79-6.67c7.12-1.31,13.7-4.44,20.63-6.42c11.26-3.47,23.28-4.61,33.82-10.26c8.38-4.44,18.27-3.62,26.99-7
		c9.08-3.57,19.12-3.68,27.99-7.9c21.31-9.05,44.62-13.86,64.39-26.36c10.76-5.73,23.16-9.29,31.71-18.42
		c6.06-6.17,15.16-8.47,20.35-15.62c2.85-4.07,5.81-8.1,10.02-10.9c6.82-5.14,11.49-12.5,17.09-18.82
		c5.62-12.22,10.77-24.68,16.17-37c3.03-8.28,8.63-15.16,13.8-22.16c6.49-10.43,12.39-21.34,20.33-30.78
		c3.35-4.28,8.92-6.34,11.65-11.15c1.94-3.32,3.71-6.97,7.08-9.1c9.32-6.18,16.16-15.24,25.22-21.74
		c4.98-3.43,6.99-9.71,12.42-12.63c10.06-7.13,17.94-16.73,26.16-25.79c9.27-9.1,18.07-18.64,26.45-28.55
		c14.32-11.13,27.69-23.65,39.22-37.69c2.81-5.32,6.5-9.97,11.52-13.44c7.02,6.52,13.51,13.58,20.51,20.13
		c2.02,1.94,3.09,4.37,4.46,6.86c6.75-1.88,12.81,2.37,18.51,5.34c4.33,2.59,9.36,3.55,14.03,5.4
		c-9.99,19.05-14.38,41.98-8.51,63.01c3.37,8.28,11.97,11.72,19.86,14.11c5.73,2.22,13.31-4.15,10.23-10.33
		c-2.18-6.82-11.51-6.3-14.91-12.12c-0.2-2.1,0.57-4.1,1.13-6.06c11.8,1.36,23.64,2.29,35.44,3.58c7.3,0.77,13.75,4.71,20.79,6.56
		c8.87,1.76,18.42,6.75,21.76,15.65c3.82,11.23,6.58,22.81,9.04,34.41c2.03,8.43,0.13,17.08-0.02,25.63
		c1,9.92-6.75,16.79-11.46,24.5c-8.31,14.92-17.87,29.17-27.47,43.3c-1.97,3.94,0.66,11.67-4.83,13.5
		c-5.15,1.14-7.51-5.34-9.78-8.69c-4.69-6.93-2.41-15.67,0.41-22.84c3.05-6.84,6.15-13.97,11.64-19.25
		c5.77-5.57,8.39-13.65,14.89-18.57c-1.66-7.07-3.27-14.09-4.72-21.17c-1.7-4.87-4.12-9.54-4.41-14.8
		c-7.89-4.69-14.33-13.85-24.65-12.2c-1.91-6.15-10.54-5.11-13.24-0.45c-2.16,2.43-1.53,5.92-1.94,8.91
		c6.72,5.78,14.58,10.22,20.72,16.67c5.64,5.83,7.38,15.64,2.06,22.33c-8.11,10.91-16.42,22.03-21.65,34.65
		c-1.44,11.13-2.68,22.4-2.93,33.63c2.52,8.29,8.51,14.79,13.14,21.95c7.51-0.76,15.39,0.22,22.64-2.07
		c12.4-6.86,19.74-19.61,26.47-31.58c3.29-9.36,14.08-8.55,21.88-11.18c4.61-1.8,8.77,2.51,10.48,6.4
		c1.86,3.23,0.08,6.86-0.62,10.17c-3.04,8.06-0.37,16.74-2.43,24.95c-2.61,11.28-5.82,22.4-8.42,33.69
		c-1.51,6.33-6.19,11.24-11.51,14.73c-8.03,5.75-15.81,12.79-25.95,14.33c-13.59,2.89-27.45,9.22-41.51,6.08
		c-6.23,4.91-14.53,5.61-21.61,8.82c-14.47,6.45-26.95,16.4-39.39,26.06c-5.65,6.21-12.59,11.28-20.23,14.76
		c-13.68,5.33-28.13,9.39-42.9,9.57c-9.51,0.31-18.79-2.21-28.01-4.17c-7.44-2.67-15.34-0.71-22.99-0.91
		c-14.12-0.42-28.26,2.18-41.51,7c-13.59,4.58-27.33,9.17-39.8,16.37c-4.77,2.77-9.88,4.88-14.87,7.23
		c-14.91,8.12-27.83,19.26-41.54,29.15c-8.58,6.45-18.22,11.58-25.78,19.3c-6.66,5.06-12.93,10.69-20.05,15.13
		c-3.72,2.49-6.43,6.13-9.73,9.11c-4.17,4.23-9.12,7.56-13.57,11.47c-8.88,9.81-18.7,18.76-29.03,27.01
		c-9.83,10.16-21.3,18.57-31.38,28.5c-8.93,7.11-16.08,16.22-25.44,22.78c-4.95,4.37-9.51,9.24-15.09,12.87
		c-7.55,6.45-15.01,13.05-23.34,18.52c-6.31,3.93-10.89,10.3-17.98,13.04c-6.7,2.82-11.54,8.37-17.15,12.75
		c-7.01,4.71-14.79,8.26-21.29,13.74c-4.86,4.17-10.51,7.12-16.11,10.12c-6.34,4.58-13.56,7.61-20.27,11.58
		c-11.3,6.43-22.48,13.5-35.18,16.85c-5.76,1.46-10.16,5.58-15.24,8.4c-9.55,3.83-18.75,8.49-27.99,13.02
		c-11.99,3.97-24.49,6.7-35.85,12.41c-13.91,6.7-29.88,7.49-43.71,14.35c-10.38-6.63-22.43-11.3-30.19-21.33
		c-2.66-2.76-2.75-6.74-2.93-10.31c-0.99,0.99-1.95,2.01-2.92,3.08c-3.24-4.2-6.97-8.19-8.47-13.37c-1.03-3.6-4.44-5.66-6.29-8.75
		c-3.46-5.51-5.71-11.65-8.87-17.31c-7.73-11.77-15.73-24.35-17.55-38.59c-0.34-11.16-5.01-21.58-7.61-32.3
		c-1.32-4.85,0.28-9.83-0.3-14.73c-1.29-8.73-0.37-17.57-0.49-26.33c-0.69-10.72,1.77-21.3,1.9-31.98
		c-0.51-11.55,3.23-22.7,4.78-34.02c1.33-7.06,1.09-14.34,2.78-21.3c4.22-14.38,12.76-27.05,16.65-41.54
		c5.48-15.59,13-30.36,20.61-44.99c6.79-18.95,16.96-36.41,25.67-54.49c96.82-194.49,196.55-387.58,303.06-576.96
		c30.67-55.1,62.03-109.8,93.59-164.39c7.93-12.26,13.84-25.74,22.45-37.57c5.97-7.69,10.02-16.96,17.84-23.06
		c5.49-4.13,10.36-8.99,15.61-13.41c10.78-8.27,23.48-13.38,35.45-19.61c13.49-7.03,27.35-13.28,41.08-19.81
		c19.13-6.96,38.62-13.5,56.33-23.7c13.61-5.04,27.68-8.92,40.77-15.35c11.97-5.73,25.02-8.59,37.3-13.51
		c26.03-10.98,53.59-20.22,75.67-38.48c4.24-3.74,9.26-6.69,12.7-11.26c5.46-7.12,10.69-14.49,14.78-22.5
		c24.19,19.48,51.72,35.07,81.26,44.82c29.45,10.28,61.08,12.88,92.08,11.58C134.62,288.87,169.38,277.64,200.62,260.6
		 M-40.6,636.36c5.88-5.41,13.92-7.44,20.15-12.38c3.1,7.61,2.91,16.01,3.42,24.07c0.4,3.48-2.81,5.81-5.05,7.85
		c-6.79,5.07-10.3,15.13-19.85,15.79c-7.91-2.81-12.09-10.85-17.37-16.84C-53.93,647.83-47.02,642.33-40.6,636.36 M1598.86,824.48
		c0.92-0.59,1.86-1.17,2.85-1.71c0.44,1.39,0.93,2.8,1.43,4.22C1601.69,826.14,1600.26,825.29,1598.86,824.48 M-85.11,853.18
		c-3.52-5.53,3.05-10.84,7.9-8.07c9.52,4.48,20.29,6.65,28.61,13.39c10.4,15.75,7.86,35.39,11.74,53.04
		c-7.4,0.79-12.62-4.63-17.71-9.05c-6.07-6.39-7.36-15.45-10.87-23.16C-73.43,871.8-79.29,862.37-85.11,853.18 M-128.18,852.92
		c3.09-2.31,6.56-4.09,9.51-6.61c3.83,2.64,8.14,4.5,12.77,5.17c4.85,9.36,8.2,19.4,12.8,28.88c1.87,3.22,3.68,6.49,4.98,10.01
		c-9.92-0.19-19.33-4.98-26.61-11.48c-4.39-2.99-10.21-4.15-13.41-8.68C-130.91,865.01-131.63,857.94-128.18,852.92 M28.75,1044.89
		c3.03,3.69,6.79,7.02,8.69,11.49c0.85,6.27-0.62,12.65-0.8,18.98c-0.12,5.37-2.95,10.22-6.22,14.3c-5.8-1.42-10.47-5.9-16.47-6.95
		C18.42,1069.92,23.71,1057.45,28.75,1044.89 M51.97,1097.78c5.73,5.5,12.12,12.55,9.3,21.29c-0.06,8.89-8.31,13.8-12.64,20.65
		c-3.84,5.21-7.97,10.24-12.42,14.95c1-9.28,2.24-18.55,3.05-27.83c2.12-6.87,5.41-13.34,7.19-20.32
		C46.4,1102.48,49.52,1100.26,51.97,1097.78L51.97,1097.78z"/>
	<path d="M6.07-563.93c30.23-10.68,62.77-13.3,94.62-11.76c60.56,3.96,117.59,33.34,160.57,75.43
		c45.99,43.27,79.44,98.67,101.27,157.65c27.44,72.57,36.89,151.05,34.15,228.29C394.09-53.16,382.1,7.8,359.8,64.87
		c-17.08,43.73-40.42,85.21-70.83,121.1c-11.3,13.67-24.28,25.81-36.88,38.26c3.03,0.16,6.83-0.17,8.71,2.78
		c4.35,7.45,9.08,14.83,15.17,21.02c12.66,10.88,27.96,17.9,43,24.79c13.39,3.33,26.22,8.44,39.35,12.65
		c14.21,4.24,29.54,5.2,42.83,12.26c10.55,4.06,21.59,6.55,32.61,8.95c14.66,4.94,28.57,12.17,43.68,15.78
		c9.58,2.62,19.51,4.28,28.62,8.41c7.62,3.43,15.9,5.15,23.44,8.79c9.63,5,19.89,8.68,30.27,11.8c7.72,3.05,14.25,8.36,21.67,12.02
		c10.8,5.41,18.47,15.26,28.87,21.25c2.72,1.8,5.47,3.8,7.11,6.72c5.6,9.81,13.61,18,19.17,27.85c4.82,9.26,11.57,17.33,16.47,26.55
		c7.97,14.03,14.18,28.96,22.21,42.97c5.59,9.02,9.58,18.85,13.05,28.85c4.34,12.72,13.01,23.49,16.86,36.43
		c4.07,12.36,10.55,23.73,14.75,36.05c1.93,5.26,3.28,10.81,6.27,15.64c5.53,8.43,8.77,18.15,14.42,26.53
		c1.2,1.79,1.81,3.9,2.35,5.99c3.35,13.46,9.49,25.96,15.04,38.62c3.58,11.93,9.52,22.95,13.37,34.8
		c4.83,10.47,9.38,21.08,13.24,31.97c2.21,6.1,7.42,10.98,8.02,17.64c0.54,4.39,3.1,8.11,4.57,12.2c1.72,6.16,6.38,11.2,7.1,17.69
		c0.37,8.02,5.97,14.19,9.12,21.24c7.35,12.57,9.47,27.28,16.06,40.2c4.9,9.34,8.7,19.23,14.01,28.37
		c3.59,13.97,10.01,26.98,15.49,40.27c2.23,9.8,7.49,18.57,9.56,28.44c3.81,8.83,6.14,18.27,11.05,26.63
		c9.12,16.07,14.14,33.95,20.57,51.16c2.67,8.64,4.33,17.61,7.59,26.08c4.04,21.32,10.78,42.04,18.22,62.38
		c4.71,10.74,9.01,21.71,11.64,33.17c2.02,11.56,6.19,22.6,8.86,34.02c6.91,32.47,18.62,64.36,18.25,97.95
		c0.32,11.54,0.74,23.11,2.03,34.59c0.3,34.15-1.57,68.36-7.1,102.11c-4.42,16.47-4.79,33.94-10.71,50.01
		c-7.84,13.55-14.28,27.81-22.08,41.36c-5.22,6.68-13.81,8.73-20.78,12.96c-7.64,3.72-13.81,10.72-22.74,11.33
		c-6.34,1.67-13.22,0.04-19.28,2.79c-11.27-5.32-24.21-5.33-35.59-10.3c-12.51-5.03-26.14-7.56-37.64-14.85
		c-15.35-12.89-31.41-25.3-43.75-41.25c-9.71-13.24-22.11-24.35-30.55-38.52c-7.2-12-16.54-22.65-22.44-35.42
		c-2.9-6.68-7.86-12.03-12.1-17.82c-4.57-7.71-10.12-14.98-12.83-23.6c-6.43-11.13-13.38-22.06-22-31.64
		c-5.74-9.47-9.61-19.99-15.85-29.18c-3.37-5.43-7.83-10.17-10.27-16.14c-6.35-13.11-15.12-24.8-22.29-37.43
		c-4.22-6.67-8.41-13.35-13.25-19.57c-6.14-9.53-11.58-19.55-18.76-28.35c-4.81-5.52-7.17-12.63-11.35-18.57
		c-9.19-13.29-17.48-27.18-26.59-40.49c-10.07-8.43-12.71-22.03-21.09-31.78c-8.13-12.36-21.55-20.29-28.39-33.56
		c-6.66-14.17-19.66-23.81-29.1-35.94c-13.45-19.64-33.18-33.54-49.38-50.7c-8.03-6.37-12.99-15.68-21.25-21.76
		c-3.8-4.9-7.83-9.63-12.52-13.67c-6.53-10.2-16.26-17.64-24.11-26.7c-5.54-5.19-12.21-9.03-17.6-14.39
		c-6.25-5.15-11.3-12.11-18.8-15.56c-10.92,1.83-20.16,8.48-29.68,13.72c-12.05,6.1-25.3,9.55-38.69,11.03
		c-5.14,0.78-9.89,3.12-14.75,4.8c-12.75,4.68-26.49,4.35-39.82,5.29c-12.38,1.14-24.86,4.15-37.25,1.55
		c-14.34-1.77-28.43-6.07-42.99-5.27c-10.59-0.12-21.01,2.1-31.52,2.95c-15.39-1.48-30.64,1.84-45.87,3.56
		c-16.91-0.72-34.53,6.26-50.81-1.41c-4.39,3.28-8.39,7.68-13.85,9c-10.25,0.82-21.95-1.88-28.75-10.11
		c-6.66,1.18-12.4,6.44-14.3,12.92c-0.5,3.8,2.53,7.45,6.48,7.17c11.14-1.04,21.26,4.27,32.17,5.09c7.99,1.11,15.71,3.76,23.86,3.75
		c4.83,1,10.88-0.5,14.85,3.23c9.37,8.1,15.4,19.61,18.65,31.45c1.93,4.7,2.69,10.68,7.39,13.47c10.75,7.29,15.74,19.96,22.75,30.39
		c4.38,5.44,8.95,10.9,12.25,17.08c0.6,9.47,4.2,18.21,7.95,26.79c6.57,10.13,16.52,18.71,18.9,31.08
		c1.68,8.9,2.37,19.48-3.97,26.83c-7.9,11.53-16.29,22.94-26.98,32.07c-6.34,8.39-11.08,18.03-18.28,25.78
		c-9.79,7.4-19.81,14.77-27.41,24.57c-3.47,4.91-9.88,5.39-14.52,8.69c-5.89,4.55-13.61,4.17-20.33,6.59
		c-13.69,4.17-27.63,7.54-41.97,8.15c-11.31,4.24-21.96,10.1-32.24,16.44c-9.53,3.91-16.19,11.95-24.44,17.77
		c-10.97,9.12-24.09,16.91-38.63,17.8c-5.79,0.4-11.65,0.93-17.07,3.14c-14.2,3.87-28.78-0.7-42.71-3.53
		c-7.9-1.61-15.74,1.46-23.66,1c-6.74-0.61-13.41,0.72-20.13,0.77c-8.07,0.03-14.57,5.47-22.07,7.65
		c-9.84,4.3-20.22,7.48-29.47,13.02c-5.25,2.78-11.04,4.61-15.73,8.37c-15.35,11.67-33.26,19.66-47.87,32.33
		c-4.31,3.76-9.33,6.59-13.57,10.45c-13.48,11.92-29.2,21.18-41.56,34.37c-8.3,7.8-18.34,13.51-25.86,22.18
		c-7.86,8.55-18.08,14.51-25.6,23.41c-11.1,12.37-23.37,24.1-38.11,31.97c-10.89,11.9-24.07,21.27-36.49,31.48
		c-5.79,3.6-11.15,10.5-18.67,9.41c-8.86,12.48-23.32,18.82-35.43,27.48c-8.66,8.21-19.99,12.56-29.79,19.14
		c-10.87,5.23-20.59,12.65-31.85,17.08c-8.39,3.01-15.17,9.16-23.52,12.31c-7.85,2.32-13.98,8.11-21.76,10.59
		c-10.04,3.09-18.9,8.95-28.91,12.14c-7.93,3.26-16.7,4.22-24.27,8.38c-7.22,3.69-14.87,6.8-21.04,12.19
		c-3.89,3.5-9.64,2.78-14.34,4.55c-11.25,3.47-22.59-1.09-32.81-5.5c-13.15-3.92-21.33-15.35-30.59-24.59
		c-6.6-6.32-11.46-14.17-16.37-21.79c-5.15-7.72-7.97-16.79-13.74-24.12c-3.36-4.41-3.78-10.19-6.11-15.08
		c-1.95-5.06-5.37-9.38-7.58-14.29c-2.94-6.05-2.9-12.88-4.58-19.26c-2.57-9.86-5.49-19.75-5.87-29.99
		c0.17-12.26-3.27-24.39-1.7-36.63c1.02-10.79-0.19-21.66,1.21-32.43c-0.23-16.91,6-32.8,8.21-49.36
		c1.69-10.13,2.66-20.53,6.92-29.99c4.8-9.94,9.13-20.07,13.68-30.11c4.43-13.41,9.77-26.59,17.48-38.48
		c17.81-39.02,37.47-77.17,56.56-115.58c50.07-99.47,100.81-198.62,152.86-297.08c51.86-97.83,105.38-194.78,159.92-291.14
		c23.43-41.53,47.62-82.63,70.92-124.23c6.04-9.07,9.52-19.71,17.02-27.81c7.74-8.55,15.74-16.94,24.49-24.48
		c10.22-7,19.82-15.25,31.59-19.61c7.12-2.99,13.98-6.56,20.85-10.09c8.35-5.07,17.69-8.1,26.31-12.66
		c12.47-6.47,26.39-9.17,39.18-14.87c13.61-5.76,26.25-13.88,40.78-17.37c9.55-3.28,19.15-6.65,28.02-11.53
		c12.35-6.05,26.04-8.41,38.7-13.65c24.75-10.37,50.88-19.44,71.22-37.61c9.02-7.66,15.54-17.78,19.93-28.69
		c-13.18-13.16-26.9-25.84-38.54-40.43c-49.64-60.39-80.1-134.82-94.82-211.14c-17.43-94.89-14.08-194.22,14.52-286.63
		c20.7-66.09,54.21-129.26,103.76-178.27C-72.93-524.78-35.55-550.02,6.07-563.93 M72.45-560.5
		c-66.4,4.04-128.23,38.79-172.56,87.38c-55.41,61.07-89.21,139.28-105.5,219.5c-17.96,85.31-13.9,174.64,8.63,258.69
		c17.85,65.03,48.05,127.3,92.49,178.39c28.38,31.67,63.09,58.17,102.53,74.47c33.17,13.65,69.62,21.24,105.51,16.53
		c53.87-5.72,103.95-32.1,143.65-68.26c38.11-35.93,67.57-80.46,88.73-128.22c19.51-43.37,32.2-89.6,39.61-136.52
		c10.76-68.01,7.43-137.83-7.05-205.03c-11.78-53.34-31.45-105.19-60.06-151.83c-17.41-27.47-37.05-53.86-61.3-75.72
		c-26.04-23.79-56.24-43.32-89.46-55.42C130.54-556.57,101.45-562.4,72.45-560.5 M200.62,260.6c-31.24,17.04-66,28.27-101.65,30.19
		c-31,1.3-62.63-1.3-92.08-11.58c-29.54-9.75-57.07-25.34-81.26-44.82c-4.09,8.01-9.32,15.38-14.78,22.5
		c-3.44,4.57-8.46,7.52-12.7,11.26c-22.08,18.26-49.64,27.5-75.67,38.48c-12.28,4.92-25.33,7.78-37.3,13.51
		c-13.09,6.43-27.16,10.31-40.77,15.35c-17.71,10.2-37.2,16.74-56.33,23.7c-13.73,6.53-27.59,12.78-41.08,19.81
		c-11.97,6.23-24.67,11.34-35.45,19.61c-5.25,4.42-10.12,9.28-15.61,13.41c-7.82,6.1-11.87,15.37-17.84,23.06
		c-8.61,11.83-14.52,25.31-22.45,37.57c-31.56,54.59-62.92,109.29-93.59,164.39C-644.45,826.42-744.18,1019.51-841,1214
		c-8.71,18.08-18.88,35.54-25.67,54.49c-7.61,14.63-15.13,29.4-20.61,44.99c-3.89,14.49-12.43,27.16-16.65,41.54
		c-1.69,6.96-1.45,14.24-2.78,21.3c-1.55,11.32-5.29,22.47-4.78,34.02c-0.13,10.68-2.59,21.26-1.9,31.98
		c0.12,8.76-0.8,17.6,0.49,26.33c0.58,4.9-1.02,9.88,0.3,14.73c2.6,10.72,7.27,21.14,7.61,32.3c1.82,14.24,9.82,26.82,17.55,38.59
		c3.16,5.66,5.41,11.8,8.87,17.31c1.85,3.09,5.26,5.15,6.29,8.75c1.5,5.18,5.23,9.17,8.47,13.37c0.97-1.07,1.93-2.09,2.92-3.08
		c0.18,3.57,0.27,7.55,2.93,10.31c7.76,10.03,19.81,14.7,30.19,21.33c13.83-6.86,29.8-7.65,43.71-14.35
		c11.36-5.71,23.86-8.44,35.85-12.41c9.24-4.53,18.44-9.19,27.99-13.02c5.08-2.82,9.48-6.94,15.24-8.4
		c12.7-3.35,23.88-10.42,35.18-16.85c6.71-3.97,13.93-7,20.27-11.58c5.6-3,11.25-5.95,16.11-10.12c6.5-5.48,14.28-9.03,21.29-13.74
		c5.61-4.38,10.45-9.93,17.15-12.75c7.09-2.74,11.67-9.11,17.98-13.04c8.33-5.47,15.79-12.07,23.34-18.52
		c5.58-3.63,10.14-8.5,15.09-12.87c9.36-6.56,16.51-15.67,25.44-22.78c10.08-9.93,21.55-18.34,31.38-28.5
		c10.33-8.25,20.15-17.2,29.03-27.01c4.45-3.91,9.4-7.24,13.57-11.47c3.3-2.98,6.01-6.62,9.73-9.11
		c7.12-4.44,13.39-10.07,20.05-15.13c7.56-7.72,17.2-12.85,25.78-19.3c13.71-9.89,26.63-21.03,41.54-29.15
		c4.99-2.35,10.1-4.46,14.87-7.23c12.47-7.2,26.21-11.79,39.8-16.37c13.25-4.82,27.39-7.42,41.51-7c7.65,0.2,15.55-1.76,22.99,0.91
		c9.22,1.96,18.5,4.48,28.01,4.17c14.77-0.18,29.22-4.24,42.9-9.57c7.64-3.48,14.58-8.55,20.23-14.76
		c12.44-9.66,24.92-19.61,39.39-26.06c7.08-3.21,15.38-3.91,21.61-8.82c14.06,3.14,27.92-3.19,41.51-6.08
		c10.14-1.54,17.92-8.58,25.95-14.33c5.32-3.49,10-8.4,11.51-14.73c2.6-11.29,5.81-22.41,8.42-33.69
		c2.06-8.21-0.61-16.89,2.43-24.95c0.7-3.31,2.48-6.94,0.62-10.17c-1.71-3.89-5.87-8.2-10.48-6.4c-7.8,2.63-18.59,1.82-21.88,11.18
		c-6.73,11.97-14.07,24.72-26.47,31.58c-7.25,2.29-15.13,1.31-22.64,2.07c-4.63-7.16-10.62-13.66-13.14-21.95
		c0.25-11.23,1.49-22.5,2.93-33.63c5.23-12.62,13.54-23.74,21.65-34.65c5.32-6.69,3.58-16.5-2.06-22.33
		c-6.14-6.45-14-10.89-20.72-16.67c0.41-2.99-0.22-6.48,1.94-8.91c2.7-4.66,11.33-5.7,13.24,0.45c10.32-1.65,16.76,7.51,24.65,12.2
		c0.29,5.26,2.71,9.93,4.41,14.8c1.45,7.08,3.06,14.1,4.72,21.17c-6.5,4.92-9.12,13-14.89,18.57c-5.49,5.28-8.59,12.41-11.64,19.25
		c-2.82,7.17-5.1,15.91-0.41,22.84c2.27,3.35,4.63,9.83,9.78,8.69c5.49-1.83,2.86-9.56,4.83-13.5c9.6-14.13,19.16-28.38,27.47-43.3
		c4.71-7.71,12.46-14.58,11.46-24.5c0.15-8.55,2.05-17.2,0.02-25.63c-2.46-11.6-5.22-23.18-9.04-34.41
		c-3.34-8.9-12.89-13.89-21.76-15.65c-7.04-1.85-13.49-5.79-20.79-6.56c-11.8-1.29-23.64-2.22-35.44-3.58
		c-0.56,1.96-1.33,3.96-1.13,6.06c3.4,5.82,12.73,5.3,14.91,12.12c3.08,6.18-4.5,12.55-10.23,10.33
		c-7.89-2.39-16.49-5.83-19.86-14.11c-5.87-21.03-1.48-43.96,8.51-63.01c-4.67-1.85-9.7-2.81-14.03-5.4
		c-5.7-2.97-11.76-7.22-18.51-5.34c-1.37-2.49-2.44-4.92-4.46-6.86c-7-6.55-13.49-13.61-20.51-20.13
		c-5.02,3.47-8.71,8.12-11.52,13.44c-11.53,14.04-24.9,26.56-39.22,37.69c-8.38,9.91-17.18,19.45-26.45,28.55
		c-8.22,9.06-16.1,18.66-26.16,25.79c-5.43,2.92-7.44,9.2-12.42,12.63c-9.06,6.5-15.9,15.56-25.22,21.74
		c-3.37,2.13-5.14,5.78-7.08,9.1c-2.73,4.81-8.3,6.87-11.65,11.15c-7.94,9.44-13.84,20.35-20.33,30.78
		c-5.17,7-10.77,13.88-13.8,22.16c-5.4,12.32-10.55,24.78-16.17,37c-5.6,6.32-10.27,13.68-17.09,18.82
		c-4.21,2.8-7.17,6.83-10.02,10.9c-5.19,7.15-14.29,9.45-20.35,15.62c-8.55,9.13-20.95,12.69-31.71,18.42
		c-19.77,12.5-43.08,17.31-64.39,26.36c-8.87,4.22-18.91,4.33-27.99,7.9c-8.72,3.38-18.61,2.56-26.99,7
		c-10.54,5.65-22.56,6.79-33.82,10.26c-6.93,1.98-13.51,5.11-20.63,6.42c-10.09,1.4-20,3.94-29.79,6.67
		c-7.34,3.64-15.61,4.3-23.54,5.85c-8.99,1.12-17.67,4.27-26.78,4.51c-28.4,1.1-55.3,11.34-83.09,16.12
		c-3.64,1.07-6.22,4.14-9.7,5.56c-5.2,2.52-11.09,3.35-16.07,6.33c-9.23,5.42-18.96,9.92-28.36,15.03
		c-6.56,4.5-14.32,7.07-20.39,12.34c-8.92,6.75-18.27,12.87-26.87,20.04c-3.27,3.35-8.03,1.34-12.02,0.88
		c0.82-4.58,0.75-9.93,4.8-12.97c11.21-8.05,20.27-18.66,31.8-26.3c5.08-3.29,8.83-8.67,14.83-10.36
		c11.66-5.23,23.13-11.01,33.95-17.82c12.18-7.23,26.69-8.63,39.93-13.16c15.72-5.85,32.4-7.85,48.68-11.53
		c13.06-3.04,26.79-1.46,39.59-5.9c14.72-2.77,29.63-4.67,43.87-9.53c9.15-3.63,19.06-4.64,28.21-8.22
		c6.15-1.67,11.85-4.91,18.31-5.41c15.28-2.63,29.49-9.38,44.85-11.62c16.66-5.07,33.24-10.5,50.02-15.19
		c8.6-2.48,16.09-7.53,24.4-10.71c10.4-4,19.38-10.75,29.44-15.42c9.69-4.51,19.99-8.57,27.37-16.63
		c10.46-10.53,20.85-21.16,31.32-31.67c6.93-10.17,8.87-22.89,15.7-33.15c5.8-11.37,12.98-21.92,19.08-33.11
		c8.9-12.92,18.02-25.73,28.14-37.73c6.35-5.34,12.68-10.74,18.01-17.12c8.33-6.33,15.24-14.46,24.43-19.65
		c8.64-4.62,12.06-14.44,19.64-20.24c7.43-6.02,11.54-15.19,19.89-20.22c8.95-8.39,18.25-16.46,25.51-26.43
		c6.49-5.02,14.52-8.76,18.83-16.13c4.33-7.17,11.36-12.1,16.17-18.88c4.41-6.38,11.9-10.16,14.56-17.81
		c4.06-5.49,4.68-12.96,9.82-17.69c5.54-4.86,11.44-9.31,17.66-13.24c9.22-5.18,20.1-2.68,29.87-5.83
		c8.35-2.53,16.68,1.1,25.05,1.53c3.89,0.59,8.2-0.37,11.71,1.82c2.62,1.52,5.06,3.3,7.73,4.8c3.65,1.12,7.87,0.06,11.21,2.3
		c2.84,1.8,6.02,2.94,9.25,3.86c3.17,0.79,5.07,3.65,7.25,5.85c4.52-4.59,12.73-4.79,15.03-11.47c1.67-3.69-2.95-6.5-4.23-9.45
		c-2.45-3.74-6.4-6.01-10.52-7.44c-3.4-0.96-5.28-4.19-7.65-6.51c-5.35-5.98-11.07-11.64-17.04-16.98
		c-3.17-2.64-2.57-7.16-2.68-10.83c0.22-4.35-1-8.65-0.68-12.97c1.82-5.12,4.55-9.9,6.78-14.84c3.22-6.95,11.31-10.91,12.65-18.83
		c0.16-4.4,1.81-9.61-1.04-13.53c-2.13-3.28-5.06-6.08-6.26-9.86c-2.33-6.34-1.45-13.46-4.05-19.66
		c-11.66-4.47-21.49-12.71-30.66-20.92c-3.43-10.45-6.03-21.97-3.3-32.83c3.45-4.53,9.6-6.93,15.25-7.32c2.98-0.1,5.26-2.16,7.3-4.1
		c4.73-4.69,11.52-6.3,16.81-10.21c5-3.92,9.87-8.04,14.22-12.66c2.63-3.62,3.21-8.42,6.33-11.71c3.48-3.94,7.48-7.55,9.71-12.4
		c2.92-6.77,8.05-13.47,15.46-15.51c8.26-2.2,16.79-3.17,25.3-3.69c8.97-0.59,17.95-3.37,26.97-1.86c6.16,0,12.11,2.51,18.3,1.64
		c7.38-0.14,14.53-2.06,21.77-3.23c6.35,0.49,11.81,4.63,18.01,5.93c5.85,0.94,11.93-0.19,17.7,1.44
		c8.25,2.16,16.34,4.92,24.76,6.42c10.82,1.6,20.59,6.95,31.43,8.6c12.34,4.27,24.57,8.96,36.82,13.52
		c11.09,4.24,23.45,4.64,33.99,10.38c6.39,2.06,10.66,7.38,15.65,11.51c9.17,9.82,20.78,16.94,32.19,23.88
		c9.72,6.5,18.93,13.69,28.4,20.53c7.46,8.87,16.85,15.84,24.74,24.34c2.9,3.15,7.52,3.52,10.87,6.02
		c8.36,9.3,16.64,18.68,25.45,27.57c3.66,3.23,8.45,4.76,12.22,7.83c4.86,4.8,8.75,10.51,13.94,15.02
		c5.51,5.21,12.38,8.93,17.24,14.84c4.47,4.91,8.44,10.24,12.57,15.45c4.4,4.57,9.36,8.59,13.57,13.38
		c5.98,5.72,10.46,12.81,16.56,18.43c12.54,12.1,23.82,25.53,36.91,37.07c11.35,11.99,22.82,23.91,35.3,34.74
		c4.34,4.3,8.01,9.25,12.49,13.47c11.89,11.08,23.1,22.86,35.53,33.36c8.99,6.25,17.19,13.54,25.44,20.73
		c10.13,10.77,22.9,18.46,34.45,27.55c9.12,8.96,19.25,16.85,29.9,23.92c8.76,5.78,15.59,14.01,24.31,19.89
		c5.93,4.82,13.19,7.8,18.65,13.25c8.44,8.12,18.38,14.38,27.81,21.27c6.14,5.14,10.9,11.73,16.8,17.17
		c4.83,4.7,11.15,7.42,16.59,11.35c9.54,6.63,17.7,14.99,26.64,22.4c6.46,5.29,13.8,9.39,20.37,14.56
		c8.26,5.99,15.47,13.26,23.68,19.36c5.06,3.5,8.89,8.31,13.16,12.69c9.86,8.42,17.84,18.81,28.25,26.64
		c-0.94,5.87-0.91,11.87,1.13,17.53c-2.41,1.82-4.47,4.13-7.1,5.62c-4.73,0.19-9.93,0.32-14.33-1.53
		c-3.26-5.96-2.86-13.39-7.02-18.94c-4.2-7.32-11.75-11.65-17.41-17.64c-10.29-8.67-19.14-18.94-30.07-26.84
		c-12.77-8.42-23.24-20.01-36.8-27.26c-6.3-3.03-10.51-8.95-16.4-12.57c-6.79-3.97-12.59-9.38-17.78-15.21
		c-8.8-11.08-21.3-18.33-32.56-26.56c-4.01-3-6.03-8.02-10.46-10.51c-7.58-4.59-14.6-9.98-21.31-15.74
		c-8.8-7.67-18.95-13.46-27.99-20.83c-11.34-6.78-18.6-18.8-30.92-24.11c-6.92-2.65-10.33-9.79-15.78-14.31
		c-8.31-6.98-16.59-13.97-24.37-21.52c-9.89-5.8-16.95-15.14-25.45-22.66c-6.31-6.73-14.19-11.75-20.25-18.74
		c-7.59-8.8-17.88-14.73-25.56-23.43c-6.84-8.18-16.3-13.85-21.81-23.14c-3.57-5.98-9.22-10.19-14.17-14.9
		c-12.88-14.11-27.29-26.78-38.68-42.19c-1.58-2.38-3.19-4.81-5.49-6.54c-5.23-3.93-9.18-9.44-15.29-12.17
		c-3.28-2.03-3.13-6.57-5.14-9.59c-3.37-7.26-11.06-10.23-16.84-15.08c-14.51-12.8-27.73-26.99-42.29-39.71
		c-6.54-7.6-15.72-12.15-22.48-19.53c-9.11-7.09-17.75-14.83-25.08-23.77c-5.81-3.17-11.93-5.84-17.25-9.85
		c-7.56-5.53-16.14-9.6-23.13-15.87c-3.74-3.13-8.2-5.21-12.15-8c-5.02-3.9-8.78-9.34-14.33-12.52
		c-7.84-4.68-17.01-6.17-24.77-11.02c-10.85-2.31-21.16-6.33-31.58-10c-23.05-5.23-45.54-12.74-68.8-17.07
		c-6.75,0.85-13.37-0.56-19.69-2.95c2.14,11.58,1.35,23.41,0.24,35.06c-0.33,2.16-1.32,4.13-2.11,6.15
		c5.51,0.31,11.12,1.17,16.59-0.07c9.66-1.06,19.32,0.96,28.93,1.96c4.55,0.5,9.2-0.19,13.73,0.7c4.58,2.24,7.39,6.8,10.94,10.29
		c-3.06,3.02-6.06,6.27-9.78,8.47c-9.41-0.08-18.75-1.86-27.81-4.34c-3.72-1.18-7.29,1.03-10.95,1.37
		c-13.63,1.01-26.91-3.12-40.49-3.07c-9.13,0.12-17.92-2.52-26.94-3.37c-10.63-1.07-20.62-5.22-30.82-8.08
		c-3.51-0.98-5.33-4.8-7.32-7.43c-0.94-5.04,2.06-9.96,3.16-14.78c9.16,2.41,17.64,6.81,26.69,9.57c6.44,1.25,13.03,1.61,19.51,2.69
		c5.55,0.82,10.58-2.02,15.42-4.17c2.28-1.15,2.42-3.97,2.94-6.15c0.58-3.56,1.56-7.29,0.88-10.86
		c-1.88-5.22-5.36-10.28-10.87-12.12c-5.53-3.73-12.36-2.23-18.54-3.21c-15.99-1.47-32.08,0.19-47.96,2.08
		c-4.97,0.3-9.03,4.06-9.92,8.92c-1.36,7.67-5.29,15.22-4,23.17c0.89,4.94,2.33,9.76,3.35,14.69c1.16,6.06-0.76,12.14-0.41,18.24
		c0.76,2.77,3.42,4.36,5.53,6.08c6.12,4.24,11.85,9.39,19.14,11.55c8.85,1.99,17.69,5.04,25.25,10.13
		c2.65,2.67,5.28,9.72,0.14,11.11c-10.39,2.32-22.23,3.12-31.85-2.23c-6.7-2.95-14.03-4.76-19.93-9.25
		c-2.77-2.12-6.35-2.89-9.61-3.73c-4.45,4.54-8.78,9.31-11.66,15.05c-0.82,2.62-0.39,5.47-1.34,8.08c-1.1,3.43-3.42,6.96-1.04,10.62
		c3.54,11.94,14.77,18.65,24.68,24.8c9.22,5.08,17.19,12.34,27.22,15.93c4.45,2.02,10.63,3.57,11.7,9.15
		c-2.09,4.84-5.11,9.24-7.21,14.09c-5.61-1.25-11.62-1.79-16.15-5.62c-10.86-8.47-22.52-15.83-34.31-22.91
		c-6.16,9.51-11.19,19.7-17.64,29.02c-2,2.43-0.32,5.43,0.52,7.97c4.04,14.18,18.59,20.93,30.93,26.48
		c4.35,2.58,10.66,1.55,13.47,6.52c4.24,6.05,13.07,11.96,8.52,20.41c-3.73,4.64-7.84,9.54-13.54,11.8
		c-10.05,4.92-15.75,15.76-26.45,19.54c0.03,14.39,4.38,28.46,3.33,42.87c-0.41,2.53,1.36,5.04,4,5.18
		c12.63,0.68,25.29-0.26,37.84-1.72c24.22-3.1,48.68-3.91,72.8-7.73c9.55-2.13,19.27-0.35,28.91-0.22
		c8.15,1.87,16.25,3.85,24.68,4.27c7.82,1.61,15.69-1,23.52,0.37c10.88,1.42,21.04-4.04,31.78-4.45
		c12.63,1.89,24.81-3.78,36.45-7.94c3.59-1,7.35-1.51,10.84-2.93c5.17-2.21,11.05-1.55,16.24-3.7c3.73-1.49,5.27-5.92,9.09-7.25
		c4.28-1.44,8.59-2.84,12.65-4.87c5.59-2.54,10.6-6.72,16.92-7.37c0.87-3.41,1.88-6.73,2.86-10.08c6.01,1.02,11.85,2.66,17.45,5.12
		c-0.58,5.65-2.91,11.12-2.9,16.83c6.76,10.05,18.03,15.85,26.55,24.32c6.93,6.42,13.95,12.74,21.31,18.68
		c7,5.38,12.03,12.69,17.65,19.39c4.97,5.74,8.41,12.76,14.39,17.63c9.73,11.02,23.72,17.45,32.34,29.57
		c4.63,6.98,11.63,11.82,16.71,18.42c8.84,10.44,17.87,20.73,28.03,29.93c5.43,4.8,5.86,12.92,11.18,17.77
		c5.58,5.83,9.75,12.82,15.13,18.82c10.16,7.87,16.74,19.12,22.85,30.18c6.49,8.18,10.55,17.9,16.59,26.41
		c7.62,11.96,17.28,22.44,24.48,34.71c7,10.15,12.55,21.22,19.37,31.49c4.08,6.43,9.98,11.49,13.89,18.06
		c5.11,8.48,10.88,16.66,14.45,25.98c1.65,3.36,4.38,6,6.41,9.14c6.04,7.61,9.11,17.14,15.54,24.49c3.96,4.24,5.28,10.09,7.77,15.23
		c3.77,8.71,11.01,15.28,15.34,23.69c3.55,6.87,7.86,13.33,12.22,19.73c4.52,6.44,7.22,13.89,11.41,20.53
		c5.44,9.95,13.09,18.46,18.45,28.48c6.35,11.64,14.06,22.45,21.96,33.08c2.92,4.25,4.4,9.35,7.7,13.39
		c7.35,8.96,13.8,18.73,22.22,26.79c3.14,3.1,6.61,6.11,9.34,9.66c7.21,9.37,16.71,16.57,25.76,24.08
		c8.86,4.44,17.13,10.56,27.03,12.62c4.25,1.32,7.94,4.24,12.42,5.05c11.64,1.85,22.47,8.61,34.61,6.48
		c6.48-0.92,13.83-0.6,19.36-4.64c7.51-5.69,16.92-8.08,24.68-13.36c5.87-5.46,7.44-13.75,11.62-20.38
		c6.75-11.1,9.95-23.81,13.08-36.29c1.47-14.81,4.34-29.44,6.18-44.19c4.14-19,3.84-38.49,5.06-57.78c0-14.02-2.9-27.84-2.61-41.86
		c0.01-25.49-3.36-51.04-10.8-75.43c-1.6-9.52-4.99-18.6-6.8-28.06c-1.9-9.88-4.24-19.7-7.51-29.22
		c-2.01-6.39-2.06-13.24-4.35-19.52c-2.53-6.98-3.72-14.42-6.98-21.1c-2.77-5.72-5.08-11.65-7.47-17.52
		c-3.14-8.95-4.52-18.4-7.83-27.28c-3.62-8.61-3.98-18.15-7.13-26.9c-3.86-10.35-5.52-21.3-9.37-31.63
		c-4.14-11.75-7.37-23.85-12.85-35.08c-5.34-10.63-8.66-22.12-13.99-32.75c-3.4-14.22-11.43-26.68-15.32-40.71
		c-1.26-5.71-3.28-11.2-6.03-16.34c-6.35-12.14-9.7-25.6-16.17-37.67c-3.59-7.45-7.04-15.02-9.28-23
		c-3.69-11.49-11.02-21.44-13.98-33.19c-2.39-7.28-7.81-13.09-10.08-20.42c-4.2-14.87-11-28.8-17.23-42.88
		c-3.18-7.5-7.65-14.43-9.74-22.37c-8.24-20.67-16.84-41.2-24.86-61.96c-1.66-5.09-3.19-10.3-6.11-14.85
		c-8.04-13.38-12.71-28.38-19.84-42.21c-6.94-13.45-11.52-27.95-18.67-41.29c-5.55-14.98-13.71-28.81-19.19-43.82
		c-6.03-16.34-15.65-30.94-24.02-46.1c-4.54-8.89-9.25-17.72-14.82-26.01c-5.62-9.48-11.59-18.93-19.43-26.75
		c-4.1-4.06-6.68-9.33-10.32-13.72c-4.14-4.62-9.74-7.48-14.47-11.38c-14.79-13.39-34.48-18.67-52.35-26.53
		c-11.8-5.23-24.11-9.1-35.98-14.14c-16.95-4.73-34.16-8.95-50.35-15.96c-11.41-6.71-25.14-6.75-37.27-11.55
		c-10.27-3.73-20.49-7.73-31.22-9.96c-21.92-4.7-42.86-12.79-64.07-19.81c-11.22-5.62-23.03-10.27-33.34-17.54
		c-13.02-8.99-24.95-20.81-31.35-35.49c0.36-3.18,3.89-5.36,5.63-8.05C234.68,238.08,218.67,250.91,200.62,260.6 M-40.6,636.36
		c-6.42,5.97-13.33,11.47-18.7,18.49c5.28,5.99,9.46,14.03,17.37,16.84c9.55-0.66,13.06-10.72,19.85-15.79
		c2.24-2.04,5.45-4.37,5.05-7.85c-0.51-8.06-0.32-16.46-3.42-24.07C-26.68,628.92-34.72,630.95-40.6,636.36 M-85.11,853.18
		c5.82,9.19,11.68,18.62,19.67,26.15c3.51,7.71,4.8,16.77,10.87,23.16c5.09,4.42,10.31,9.84,17.71,9.05
		c-3.88-17.65-1.34-37.29-11.74-53.04c-8.32-6.74-19.09-8.91-28.61-13.39C-82.06,842.34-88.63,847.65-85.11,853.18 M-128.18,852.92
		c-3.45,5.02-2.73,12.09,0.04,17.29c3.2,4.53,9.02,5.69,13.41,8.68c7.28,6.5,16.69,11.29,26.61,11.48
		c-1.3-3.52-3.11-6.79-4.98-10.01c-4.6-9.48-7.95-19.52-12.8-28.88c-4.63-0.67-8.94-2.53-12.77-5.17
		C-121.62,848.83-125.09,850.61-128.18,852.92 M28.75,1044.89c-5.04,12.56-10.33,25.03-14.8,37.82c6,1.05,10.67,5.53,16.47,6.95
		c3.27-4.08,6.1-8.93,6.22-14.3c0.18-6.33,1.65-12.71,0.8-18.98C35.54,1051.91,31.78,1048.58,28.75,1044.89 M51.97,1097.78
		c-2.45,2.48-5.57,4.7-5.52,8.74c-1.78,6.98-5.07,13.45-7.19,20.32c-0.81,9.28-2.05,18.55-3.05,27.83
		c4.45-4.71,8.58-9.74,12.42-14.95c4.33-6.85,12.58-11.76,12.64-20.65C64.09,1110.33,57.7,1103.28,51.97,1097.78 M1917.97-549.05
		c33.64-17.02,71.35-25.53,109.03-25.03c38.23-0.68,76.16,9.58,110.03,27.03c34.17,17.27,63.35,42.88,88.98,71.04
		c34.36,38.95,60.58,84.72,78.74,133.3c28.01,73.15,37.71,152.41,34.93,230.39c-2.8,65.74-16.41,131.28-42.08,191.95
		c-21.31,50.35-51.35,97.58-91.16,135.32c9.2,1.91,9.27,12.87,14.73,18.84c15.49,20.72,39.87,32.28,63.21,41.79
		c12.38,5.36,24.84,10.59,37.88,14.28c9.37,2.5,18.31,6.3,26.88,10.87c8.1,3.13,16.26,6.37,24.66,8.73
		c12.45,3.99,23.72,10.74,35.66,15.98c13.61,6.4,28.86,8.81,42.07,16.16c8.81,4.28,17.82,8.14,25.88,13.81
		c13.23,5.73,27.48,9.96,38.97,19.08c8.83,5.64,17.09,12.17,24.18,19.94c4.11,4.92,10.31,7.54,14.36,12.55
		c9.05,15.48,18.65,30.65,26.4,46.86c11.61,18.97,17.21,40.7,27.44,60.33c5.02,9.97,6.93,21.08,10.85,31.49
		c3.67,11.02,9.79,21.11,12.48,32.48c3.35,13,8.78,25.33,12.28,38.31c3.46,16.12,12.46,30.27,18.44,45.46
		c1.76,13.03,6.41,25.33,10.93,37.59c10.19,34.7,22.53,68.71,33.16,103.24c2.34,8.63,7.06,16.54,7.34,25.7
		c3.72,9.49,8.17,18.75,11.56,28.4c3.19,12.93,6.02,26.11,12.15,38.05c2.04,7.29,5.62,14.01,8.14,21.12
		c2.57,15.83,10.14,30.21,13.32,45.87c4.31,12.26,6.57,25.09,10.11,37.58c1.84,6.37,4.92,12.29,7.46,18.41
		c8.7,22.46,14.28,45.96,19.16,69.51c1.06,3.9,1.28,7.94,1.76,11.95c3.01,18.92,7.4,37.61,12.71,56.03
		c4.59,13.46,8.49,27.25,10.42,41.38c4.06,20.96,7.49,42.04,10.2,63.22c-6.62,0-13.19,0-19.71-0.01c0.5-10.99-3.34-21.58-4.58-32.41
		c-1.1-9.51-2.84-18.95-4.84-28.3c-1.68-12.58-3.53-25.22-7.27-37.37c-4.77-12.41-9.03-25.15-10.53-38.4
		c-0.87-5.6-2.61-10.97-4.01-16.41c-1.05-11.24-3.59-22.21-6.08-33.18c-1.91-13.89-6.34-27.24-9.43-40.87
		c-2.69-10.68-7.77-20.54-10.56-31.17c-2.18-7.73-5.76-14.97-7.22-22.89c-2.73-10.84-7.35-21.08-9.82-31.98
		c-2.7-16.18-10.35-30.87-14.6-46.6c-3.21-11.7-9.12-22.51-11.6-34.41c-3.05-12.32-9.07-23.64-11.88-36.02
		c-1.91-7.79-7.1-14.29-8.77-22.16c-5.24-24.43-16.8-46.85-23.38-70.83c-5.9-17.24-11.03-34.74-16.64-52.07
		c-3.82-9.26-2.81-20.63-9.56-28.52c-5.62-9.7-7.4-21.07-11.82-31.29c-6.97-16.18-11.32-33.34-18.35-49.48
		c-2.92-11.72-8.55-22.45-12.13-33.94c-4.65-15.33-10.19-30.39-17.36-44.72c-4.92-9.39-8.64-19.33-13.23-28.86
		c-7.11-13.1-12.9-27.04-22.02-38.92c-3.44-3.72-6.44-7.81-8.73-12.32c-4.22-7.91-12.08-12.58-18.34-18.66
		c-9.3-9.37-21.34-15.08-33.04-20.81c-16.7-8.5-33.56-16.71-50.6-24.48c-14.37-4.91-28.52-10.46-42.43-16.5
		c-6.62-3.06-12.6-7.45-19.7-9.36c-11.41-3.57-22.72-7.53-33.54-12.6c-12.16-5.88-25.45-8.8-37.94-13.79
		c-22.85-9.63-46.62-17.85-67.17-32.03c-6.61-4.64-12.75-9.88-18.91-15.05c-7.34-8.75-14.04-18.22-18.55-28.76
		c-19.74,16.54-40.54,32.12-63.86,43.26c-33.64,17.02-71.36,25.53-109.03,25.03c-61.77,1-121.59-25.84-167.26-66.42
		c-4.27,9.82-10.65,18.53-17.24,26.89c-21.23,20.97-49.02,32.86-76.31,43.7c-17.4,7.99-36.35,11.83-53.53,20.3
		c-11.49,5.77-24.19,8.24-35.92,13.28c-14.27,8.36-29.94,13.85-45.33,19.67c-10.86,2.96-20.4,9-30.73,13.24
		c-12.07,5.79-23.94,11.99-35.96,17.87c-7.07,3.39-13.92,7.27-20.18,12c-5.9,5.1-11.6,10.41-17.61,15.39
		c-5.8,4.58-7.95,11.87-12.54,17.38c-6.79,7.53-11.89,16.43-16.37,25.46c-3.76,8.45-8.91,16.22-12.37,24.81
		c-5.74,14.29-13.53,27.68-18.94,42.12c-5.36,13.54-8.8,27.78-14.63,41.14c-2.88,6.31-4.03,13.22-6.75,19.58
		c-5.95,12.99-9.14,27.01-14.73,40.15c-4.48,10.51-7.63,21.52-11.61,32.23c-1.89,5.28-6.17,9.38-7.11,15.08
		c-5.91,23.52-14.05,46.39-21.3,69.51c-6.31,23.87-18.36,45.96-23.14,70.31c-1.98,9.18-8.24,16.74-9.73,26.07
		c-2.2,9.39-7.26,17.81-9.47,27.21c-3.42,15.84-10.91,30.37-15.19,45.96c-3.13,11.86-9.33,22.77-11.18,34.99
		c-3.06,14.26-9.79,27.49-12.26,41.91c-1.71,6.22-4.88,11.94-6.37,18.25c-2.57,10.71-7.79,20.52-10.35,31.23
		c-3.25,13.39-7.4,26.59-9.45,40.24c-2.36,11.38-5.32,22.65-6.43,34.27c-1.31,5.88-3.39,11.58-4.26,17.58
		c-1.53,12.52-5.38,24.61-9.83,36.37c-5.32,16.68-6.88,34.16-10.41,51.24c-2.19,12.34-3.24,24.87-6.39,37.04
		c-3.78,14.69-8.6,29.06-12.82,43.61c-2.08,14.74-6.54,28.91-10.64,43.17c-3.8,12.87-2.74,26.57-5.6,39.64
		c-3.85,22.9-7.2,45.97-8.04,69.21c1.46,14.69,1.37,29.76,6.46,43.83c2.64,6.32,2.74,13.14,4.21,19.76
		c4.94,13.75,9.47,28,17.99,40.06c6.77,9.35,9.28,20.97,15.01,30.88c5.08,6.95,7.16,15.55,12.76,22.2
		c7.38,9.88,13.91,20.38,19.72,31.27c6.07,0.36,12.15,1.06,17.73,3.75c9.47,4.62,20.49,3.99,30.62,2.03
		c11.23-1.98,23.1-2.43,33.55-7.48c17.86-9.27,37.46-14.28,56.46-20.6c3.37-1.2,7.03-1.82,10.07-3.84
		c3.85-2.41,6.99-6.02,11.42-7.46c20.43-6.14,34.95-23.16,53.97-32.18c6-2.55,10.51-7.32,15.46-11.37
		c9.64-5.72,13.99-16.72,21.68-24.47c8.04-7.67,9.33-19.32,15.58-28.15c2.4-6.98,8.59-11.7,10.65-18.82
		c3.62-8.72,7.45-17.34,10.66-26.22c4.58-10.47,10.05-20.53,15.07-30.79c3.81-9.43,6.94-19.17,11.81-28.14
		c4.13-10.51,11.16-19.56,15.03-30.18c4.22-11.93,10.48-22.96,15.37-34.59c5.46-16.7,15.45-31.36,22.59-47.33
		c2.45-6.85,8.21-11.44,13.46-16.1c-1.13-1.02-2.23-2.01-3.3-2.98c4.24-5.82,9.1-11.27,12.13-17.86
		c4.04-8.41,10.86-14.93,15.9-22.68c5.63-10.08,13.87-18.33,21.11-27.22c12.27-10.04,23.14-21.75,36.32-30.68
		c4.92-4.11,11.09-6.15,16.39-9.69c15.02-11.02,32.44-18.11,49.3-25.76c8.94-6.6,18.37-12.65,26.53-20.23
		c6.37-6.87,15.27-10.52,22.04-16.94c9.31-8.41,18.57-16.95,28.83-24.21c8.67-6.57,17.26-13.29,24.89-21.08
		c8.74-7.57,17.67-14.95,25.92-23.07c3.76-3.93,9.23-5.25,13.38-8.64c6.99-6.33,15.33-10.84,23.4-15.61
		c11.73-6.96,21.26-17.03,33.34-23.48c11.06-5.75,20.19-14.54,31.63-19.63c11.36-8.76,23.77-15.9,36.31-22.8
		c20.21-13.99,43.76-22.04,64.18-35.66c6.19-4.08,13.06-6.89,19.68-10.21c10.22-4.59,19.5-10.98,28.93-17.01
		c7.55-4.6,12.32-12.35,18.94-18.06c2.45-2.19,6.27-3.07,7.61-6.35c2.86-6.28,6.37-12.24,10.39-17.85
		c3.17-4.04,3.27-10.01,1.31-14.56c-2.34-5.38-9.54-3.72-14.08-3.85c-12.18,1.85-24.05,5.33-35.32,10.23
		c-9.49,3.43-17.47,10.17-27.35,12.64c-6.35,1.31-12.82,2.98-18.04,7c-9.82,6.93-20.78,11.88-31.28,17.61
		c-11.32,4.24-22.96,7.85-33.52,13.85c-4.86,2.83-10.58,3.91-16.05,4.58c-10.91-0.88-21.32-5.23-30.21-11.49
		c1.51-10.11-2.06-20.61,2.26-30.32c2.2-4.68,4.52-9.37,7.35-13.7c3.86-3.84,9.58-5.41,13.01-9.82c4.59-5.84,11.77-8.83,16.4-14.65
		c5.77-6.9,11.81-13.69,19.68-18.29c17.24-15.08,34.28-30.46,51.9-45.11c3.11-2.85,5.8-6.14,8.89-9.05
		c12.48-9.76,23.87-20.79,35.45-31.58c8.39-9.32,19.37-16.33,25.76-27.36c5.59-7.79,9.18-16.74,12.48-25.68
		c1.53-4.55,6.08-9.99,2.33-14.66c-3.47-5.1-7.21-11.91-14.06-12.54c-7.49,2.39-15.74,3.55-21.85,8.9
		c-5.05,3.89-10.65,6.92-16.37,9.64c-5.25,2.44-8.79,7.27-12.76,11.23c-4.75,5.38-11.38,8.51-16.31,13.69
		c-6.4,6.48-15.02,10.13-21.37,16.63c-3.09,2.97-6.67,5.34-9.84,8.2c-14.95,17.02-31.65,32.52-49.39,46.6
		c-13.67,11.24-26.46,23.53-38.18,36.78c-4.6,3.77-10.1,6.45-14.02,11.01c-7.7,8.03-19.56,8.33-29.89,7.72
		c-3.83-0.67-8.09-1.05-10.78-4.11c-7.01-6.29-5.97-16.66-3.36-24.72c9.74-23.7,25.34-44.23,39.64-65.27
		c3.61-4.96,5.86-10.71,9.03-15.93c12.14-21.39,25.28-42.18,37.61-63.45c6.08-9.49,10.48-19.92,16.43-29.48
		c5.73-8.92,8.36-19.38,13.84-28.37c9.4-11.34,14.21-25.49,20.07-38.81c5.5-12.93,10.73-26.39,11.23-40.6
		c-0.97-4.68-3.46-9.62-7.61-12.2c-4.94-1.38-10.03-1.65-15.06-1.5c-9.78,3.53-16.65,11.9-24.08,18.74
		c-6.61,9.34-14.83,17.4-21.08,27c-6.4,9.28-13.23,18.26-19.07,27.91c-5.6,8.95-13.02,16.58-18.39,25.7
		c-5.57,7.22-9.64,15.42-15.31,22.56c-5.64,7.23-7.39,16.69-13.26,23.78c-12.76,15.29-22.04,33.07-34.11,48.87
		c-4.29,5.92-9.28,11.52-11.74,18.52c-8.12,16.05-19.07,30.46-30.35,44.38c-5.75,5.76-11.8,11.77-19.8,14.22
		c-7.51,3.54-18.49,0.62-21.58-7.42c-2.29-17.26,7.92-32.5,11.33-48.9c1.78-8.78,6.47-16.49,9.75-24.72
		c3.25-11.52,8.72-22.28,11.88-33.84c2.36-8.53,7.25-16,10.2-24.29c3.95-10.53,6.54-21.61,11.62-31.69
		c2.62-5.22,5.53-10.32,7.2-15.95c3.14-6.01,7.81-11.32,9.63-17.96c2.81-12.73,9.51-24.1,14.11-36.19
		c4.23-9.58,5.1-20.14,7.23-30.28c2.28-12.35,0.68-25.7-5.41-36.76c-1.53-3.16-4.38-5.24-6.89-7.5
		c-10.34,5.33-16.62,15.59-22.3,25.32c-7.84,10.94-12.14,23.78-16.97,36.21c-7.15,17.18-16.07,33.54-24.62,50.06
		c-3.78,6.95-5.59,14.74-9.31,21.72c-4.51,8.49-7.1,17.83-11.74,26.26c-3.82,6.71-5.65,14.25-7.85,21.58
		c-2.28,4.92-6.48,8.69-8.77,13.61c-10.62,25.68-18.7,52.5-32.11,76.96c-3.63,8.39-9.58,15.47-13.56,23.66
		c-4.88,10.11-10.81,19.69-14.81,30.22c-5.32,9.95-9.98,20.68-18.31,28.58c-9.02,8.9-20.12,18.02-33.7,16.41
		c-8.09,0.35-15.61-4.39-20.98-10.05c-8.43-16.89-13.51-35.7-13.77-54.63c-0.91-8.83-2.38-17.57-2.48-26.44
		c0.37-12.19-4.01-23.78-6.68-35.49c-6.25-18.29-11.52-37.54-23.6-53.01c-5.2-5.64-11.28-11.15-18.95-12.95
		c-10.03-3.58-20.85,2.11-27.1,9.85c-2.61,5.21,0.26,10.97,1.99,16c3.74,8.66,4.02,18.29,7.11,27.18
		c3.19,10.49,4.18,21.5,4.87,32.41c5.45,38.21,7.67,78.16-3.69,115.53c-2.25,6.13-0.57,12.62-1.24,18.94
		c-0.27,3.96-0.97,7.93-2.25,11.71c-2.94,8.96-1.75,18.85-5.38,27.64c-4.77,13.34-6.27,27.56-10.98,40.94
		c-1.53,8-7.04,15.29-5.87,23.73c1.49,12.49-2.38,24.65-3.55,36.99c-5.8,33.71-3.45,68.29,3.04,101.73
		c-0.67,7.49-4.26,14.6-8.31,20.87c-3.34,6.2-11.47,6.23-16.1,11.02c-15.72,17.22-25.65,38.7-40.27,56.74
		c-10.58,9.12-18.16,21.25-29.59,29.41c-5.19,3.77-8.42,9.44-12.74,14.01c-12.18,3.24-18.66,14.92-28.42,21.86
		c-11.04,7.95-19.97,18.63-32.22,24.87c-8.36,7.55-18.01,13.39-27.42,19.5c-18.77,10.77-37.07,22.57-57,31.16
		c-10,4.98-20.75,8.21-30.79,13.08c-1.95,0.92-3.56,2.37-5.01,3.92c-7.92,8.37-18.43,13.52-27.31,20.71
		c-5.34,5.84-9.03,12.97-13.7,19.33c-6.5,8.69-8.34,19.68-12.66,29.42c-2.4,4-6.76,6.12-10.97,7.68c0.36-7.46-1.04-15.3,2-22.32
		c3.67-12.85,10.98-24.15,18.57-34.98c6.91-10.16,15.04-19.81,25.82-26.03c9.22-6.32,17.11-14.56,27.34-19.37
		c11.1-4.54,21.25-11.78,33.28-13.84c8.06-2.78,14.4-9.67,22.94-11.38c4.76-0.7,8.01-4.65,11.93-7.06
		c8.9-5.75,16.14-14.55,26.62-17.58c4.01-1.6,8.2-3.21,11.27-6.39c7-7.55,16.71-11.72,24.06-18.85
		c15.85-10.95,29.32-24.81,43.89-37.32c10.61-10.01,21.56-19.71,31.31-30.59c14.71-19.62,28.25-40.09,41.34-60.82
		c2.72-5.05,10.33-7.39,9.83-13.96c-1.19-10.37-2.65-20.68-4.21-30.97c-0.58-14.07-2.07-28.25,0.18-42.25
		c2.29-14.26,1.84-28.86,5.1-42.97c4.74-19.28,5.06-39.8,14.17-57.84c0.11-13.64,4.1-26.76,5.82-40.23
		c1.92-13.31,8.5-25.86,8.16-39.48c-1.05-5.28,2.4-9.79,2.29-14.9c-0.59-4.75,0.7-9.27,1.65-13.83c0.87-6.98,2.32-13.86,3.98-20.68
		c1.53-5.41-1.01-10.97-0.4-16.44c1.87-23.93-0.46-48.05-5.12-71.54c-2.34-17.67-6.6-35-12.24-51.88c-1.27-3.87-3.81-7.73-3.17-11.9
		c2.98-5.16,7.38-9.42,12.23-12.85c8.57-6.56,16.88-14.04,27.31-17.53c10.17-1.51,22.03-1.29,30.43,5.59
		c8.51,4.75,14.22,12.82,19.35,20.85c6.37,9.27,12.36,19.33,14.31,30.58c0.72,6.88,5.02,12.52,6.83,19.06
		c3.15,11.9,6.53,23.94,6.99,36.32c0.68,10.62,1.56,21.25,3.37,31.76c-0.1,15.38,3.91,30.75,11.78,43.97
		c3.84,4.16,10.66,3.62,15.86,3.73c8.51-4.29,15.08-12,17.8-21.15c3.4-6.58,5.48-13.88,10.13-19.75c1.72-2.94,2.37-6.36,4.04-9.33
		c7.71-11.97,16.3-23.54,22.12-36.61c5.26-13.57,12.95-26.03,18.22-39.59c2.82-7.94,6.07-15.72,10.12-23.11
		c3.92-6.99,4.62-15.24,8.76-22.13c10.07-21.2,18.48-43.15,28.57-64.33c2.58-6.25,4.73-12.83,9.07-18.14
		c4.15-4.99,4.42-11.86,8-17.19c5.05-8.17,7.76-17.47,11.68-26.19c6.83-13.97,13.14-28.24,21.65-41.32
		c4.73-8.32,12.34-14.58,16.81-23.08c1.15-1.97,2.03-4.61,4.55-5.18c6.28-1.88,12.83-2.74,19.43-2.6
		c9.72,2.95,14.87,12.59,18.84,21.18c4.09,13.32,4.89,27.58,3.19,41.37c-0.95,7.51-0.35,15.75-4.48,22.49
		c-8.43,17.85-15.69,36.23-23.93,54.17c-2.55,7.31-8.05,13.13-10.36,20.52c-3.06,11.64-9.03,22.24-12.2,33.85
		c-1.8,8.17-5.88,15.52-8.94,23.23c-4.75,10.82-6.73,22.58-11.21,33.49c-2.05,4.23-2.16,8.93-1.6,13.51
		c-5.51,1.39-6.15,7.45-8.17,11.84c-2.33,6.78-3.66,13.87-4.75,20.94c-2.16,5.37-4.64,10.67-5.59,16.43
		c3.1-1.25,6.68-1.94,9.13-4.39c7.32-8.94,14.05-18.38,19.82-28.39c8.95-12.79,17.13-26.09,25.96-38.96
		c6.59-9.17,11.55-19.41,18.76-28.15c9.16-11.57,14.48-25.63,24.22-36.79c7.29-8.2,10.79-18.82,17.68-27.27
		c7.54-10.18,14.71-20.62,22.28-30.78c15.25-17.72,25.19-39.48,42.06-55.91c14.02-15.94,37.27-24.16,57.85-17.81
		c4.93,5.76,10.18,11.91,12.8,19.15c0.75,9.62-0.58,19.35-2.16,28.86c-2.53,22.09-16.64,40.08-25.49,59.85
		c-3.66,8.32-9.06,15.7-13.15,23.79c-3.98,8.15-9.8,15.23-13.69,23.42c-4.84,9.39-9.04,19.12-15.13,27.81
		c-4.98,7.06-8.3,15.21-14.13,21.65c-7.12,11.51-12.44,23.98-18.14,36.21c-8.31,13.07-17.78,25.38-26.46,38.2
		c-5.1,9.31-10.02,18.71-15.4,27.87c-3.43,5.88-5.45,13.13-3.04,19.76c4.74-1.22,10.07-1.63,14.15-4.67
		c5.95-4.17,11.39-9.16,18.07-12.22c7.9-5.66,12.53-14.61,19.47-21.29c8.68-7.82,17.01-16.13,27.21-22.04
		c5.59-5.02,8.88-12.22,14.81-16.96c11.75-9.55,23.28-19.35,34.57-29.46c8.75-7.99,18.69-14.54,27.35-22.66
		c10.37-9.74,21.11-19.23,33.32-26.64c9.79-5.87,19.47-12.44,30.69-15.31c5.98-2.19,12.94-2.79,18.73,0.35
		c6.89,3.93,11.62,10.67,15.5,17.45c3.45,6.5,6.38,14.87,2.37,21.79c-4.54,8.34-6.02,17.91-10.7,26.18
		c-2.32,4.12-2.98,8.81-3.99,13.35c-0.85-1.33-1.62-2.64-2.37-3.95c-0.47,0.07-1.4,0.21-1.87,0.29c-0.32,3.27-0.4,6.68-0.81,9.98
		c-5.04,2.02-9.13,5.65-12.86,9.49c-5.31,4.39-9.66,9.75-14.66,14.45c-9.21,7.43-16.9,16.66-27.07,22.88
		c-14.15,12.91-28.97,25.09-43.71,37.33c-8.94,7.74-15.71,17.68-25.09,24.93c-4.55,3.54-8.5,7.71-12.63,11.69
		c-11.14,8.24-21.14,17.93-30.61,28c-4.76,6.34-9.18,15.01-5.35,22.82c1.39,3.83,6.2,6.39,10.07,4.69
		c4.84-2.15,10.33-1.44,15.24-3.4c9.52-2.81,17.76-8.53,27.05-11.91c7.48-2.68,14.37-6.68,21.28-10.59
		c10.31-3.98,19.05-11.08,29.48-14.82c8.13-2.86,15.47-7.63,23.78-10.06c5.84-1.66,10.89-5.18,16.41-7.65
		c4.26-1.87,8.86-2.42,13.37-3.53c4.99-1.9,9.56-4.91,14.8-6.15c4.15-0.14,7.74,3.66,12.03,3.09c3.21,0.11,7.69-1.4,10.33,1.53
		c6.52,4.91,8.19,13.39,9.72,20.97c1.68,9.5-2.95,18.5-8.3,25.99c-2.88,2.75-6.38,4.86-8.73,8.14
		c-10.14,13.95-21.56,27.48-36.46,36.52c-11.03,6.56-21.56,13.91-32.52,20.56c-14.56,6.41-28.42,14.18-42.57,21.4
		c-10.95,6.36-22.72,11.42-32.62,19.44c-4.97,3.65-10.79,5.92-16.06,9.04c-14.29,7.99-27.01,18.4-40.94,26.95
		c-11.21,7.01-22.45,13.99-33.08,21.87c-12.43,8.98-26.29,15.99-37.77,26.23c-8.24,7.14-17.6,12.94-24.95,21.07
		c-8.4,7.02-16.65,14.33-26.07,19.97c-3.91,2.7-8.76,4.3-11.55,8.37c-5.39,7.29-12.53,12.9-19.56,18.5
		c-7.9,7.21-16.13,14.02-24.82,20.25c-4.53,3.77-8.59,8.18-13.65,11.27c-10.6,5.95-19.36,14.89-30.82,19.31
		c-10.3,5.96-21.98,9.2-31.74,16.14c-4.67,3.19-10.34,4.63-14.68,8.31c-8.08,6.57-15.97,13.36-24.06,19.91
		c-6.33,5.01-10.91,11.77-16.5,17.53c-6,6.17-10.88,13.27-15.77,20.31c-8.06,8.13-14.85,17.51-20.12,27.67
		c-4.45,10.14-11.5,18.85-16.31,28.81c-3.11,6.48-6.25,12.94-9.75,19.24c-8.72,14.49-12.46,31.36-21.28,45.81
		c-4.98,7.46-6.54,16.49-10.64,24.38c-7.72,15.14-16.36,29.85-22.05,45.95c-3.46,11.04-11.83,19.73-15.03,30.84
		c-2.71,10.38-9.88,18.77-13.22,28.91c-7.19,24.52-22.51,45.74-39.13,64.79c-9.02,7.98-16.66,17.52-26.87,24.14
		c-13.68,9.17-27.92,17.51-42.26,25.59c-8.39,3.61-16.39,8.01-24.16,12.8c-16.79,8.3-34.41,14.86-52.14,20.8
		c-13.13,2.7-25.63,7.73-37.64,13.57c-9.72,3.45-20.07,4.81-30.26,6.05c-7.09,0.85-14.15,4.02-21.34,2.24
		c-10.76-2.49-22.61-1.14-32.05-7.94c-7.41-5.88-15.54-11.83-19.52-20.74c-4.53-8.04-10.27-15.39-13.84-23.94
		c-3.7-7.76-6.77-15.76-10.54-23.46c-6.37-10.05-12.48-20.27-18.02-30.78c-4.88-12.38-11.82-23.84-15.9-36.53
		c-2.13-5.26-1.74-11.08-3.2-16.5c-3.07-14.94-4.5-30.14-5.77-45.31c-1.79-9.47,1.23-18.85,0.78-28.34
		c5.46-27.16,7.46-54.99,14.04-81.93c0.65-3.23,0.87-6.34,0.84-9.58c-0.05-4.8,3.5-8.52,4.74-12.95c1.71-7.65,1.32-15.7,3.91-23.11
		c4.72-13.7,4.14-28.66,9.26-42.26c3.04-7.27,2.81-15.43,6.01-22.64c3.18-6.77,2.82-14.4,4.72-21.49
		c5.07-14.27,5.34-29.72,10.89-43.87c11.23-32.45,14.56-66.77,22.35-100.04c4.58-15.82,8.07-32.07,14.41-47.3
		c6.07-11.31,9.18-23.78,11.82-36.24c1.79-9.32,6.21-17.92,7.34-27.39c4.56-12.78,9.81-25.45,11.95-38.93
		c4.37-8.57,6.55-18,10.9-26.58c5.69-12.14,5.97-26,11.67-38.11c2.81-6.79,5.61-13.59,8.47-20.36c1.51-5.86,1.51-12.17,4.46-17.61
		c8.48-23.34,14.47-47.49,23.56-70.63c3.47-12.74,8.36-25.05,11.57-37.86c2.86-9.1,7.04-17.78,8.79-27.21
		c2.05-6.72,2.3-14.05,6.09-20.13c4.96-12.5,12.37-24.15,15.1-37.45c3.27-12.89,8.91-25.04,12.1-37.94
		c4.01-15.52,12.93-29.24,16.63-44.87c2.4-11.22,7.52-21.49,12.48-31.73c7.26-17.43,13.73-35.27,23.29-51.64
		c6.5-15.5,16.69-28.96,24.55-43.74c3.64-6.26,11-8.85,15.53-14.35c9.23-10.38,20.97-17.94,32.48-25.53
		c11.41-7.61,25.88-8.84,36.79-17.27c5.35-3.99,11.87-5.94,17.75-9.03c9.44-4.81,19.39-8.54,29.55-11.56
		c14.28-4.46,27.21-12.07,40.86-18.03c11.6-4,23.45-7.48,34.65-12.61c8.27-4.54,17.11-8.03,26.23-10.53
		c18.23-5.12,35.29-13.5,52.84-20.49c18.12-8.99,36.74-19.28,48.63-36.2c4.53-5.77,5.91-13.89,12.18-18.23
		c-52.55-49.81-88.03-115.27-109.44-183.93c-16.41-53.04-24.18-108.56-24.99-164.01c-1.7-85.01,14.57-170.97,51.12-247.96
		c15.71-33.2,35.71-64.41,59.7-92.25C1848.9-503.25,1880.66-530.97,1917.97-549.05 M2015.45-558.5
		c-68.09,4.16-131.31,40.52-175.88,91.08c-53.47,60.55-86.21,137.18-102.18,215.8c-18.17,86.32-13.81,176.77,9.45,261.69
		c18.35,65.29,49.19,127.74,94.52,178.59c27.89,30.19,61.54,55.54,99.68,71.27c33.17,13.65,69.62,21.24,105.51,16.53
		c60.92-6.65,117.08-39.02,158.67-83.24c36.12-38.73,63.38-85.13,82.58-134.35c24.15-61.95,36.37-128.43,37.23-194.87
		c-0.42-68.04-11.29-136.49-35.82-200.14c-18.35-48.73-44.98-94.51-79.57-133.52c-27.9-30.19-61.54-55.54-99.68-71.27
		C2080.14-553.16,2047.81-560.6,2015.45-558.5 M1598.86,824.48c1.4,0.81,2.83,1.66,4.28,2.51c-0.5-1.42-0.99-2.83-1.43-4.22
		C1600.72,823.31,1599.78,823.89,1598.86,824.48 M1044.13-202.01c0.04-5.38,6.51-8.69,11.26-6.43c3.7,1.37,4.97,5.81,4.49,9.43
		c0.52,20.66-0.12,41.33,0.14,62c21.65,0.28,43.32-0.46,64.99,0.14c5.39,0.04,8.65,6.53,6.43,11.26c-1.36,3.69-5.87,5-9.43,4.49
		c-20.67,0.53-41.34-0.12-62,0.14c-0.29,21.66,0.45,43.33-0.14,64.99c-0.03,5.38-6.56,8.67-11.26,6.43
		c-3.67-1.37-5.07-5.83-4.49-9.43c-0.54-20.67,0.1-41.34-0.14-62c-21.67-0.28-43.34,0.45-64.99-0.14
		c-5.38-0.04-8.71-6.54-6.43-11.26c1.38-3.68,5.77-5.03,9.43-4.49c20.65-0.53,41.32,0.11,62-0.14
		C1044.26-158.68,1043.52-180.35,1044.13-202.01L1044.13-202.01z"/>
</g>
</svg>
