<?xml version="1.0" encoding="iso-8859-1"?>
<!-- Generator: Adobe Illustrator 28.5.0, SVG Export Plug-In . SVG Version: 9.03 Build 54727)  -->
<svg version="1.1" id="Layer_1" xmlns="http://www.w3.org/2000/svg" xmlns:xlink="http://www.w3.org/1999/xlink" x="0px" y="0px"
	 viewBox="0 0 1920 1080" style="enable-background:new 0 0 1920 1080;" xml:space="preserve">
<g>
	<path style="fill:#FFFFFF;" d="M94-585h1731v2251H94V-585 M913.47-527.84c-10.82,3.9-22.25,6.4-32.36,12.09
		c-10.51,5.59-21.46,10.35-31.83,16.2c-5.92,4.73-12.63,8.31-18.7,12.83c-8.29,3.24-12.71,11.43-19.89,16.13
		c-8.82,3.73-14.39,11.78-21.19,18.09c-6.29,6.9-14.51,12.4-18.31,21.24c-3.63,6.29-10.51,9.91-14.01,16.3
		c-1.97,4.78-5.68,8.38-9.13,12.09c-2.88,2.92-4.26,6.88-6.74,10.1c-6.09,7.26-8.48,16.88-14.91,23.92
		c-5.95,10.48-11.23,21.37-16.22,32.34c-3.18,13.27-12.16,24.14-15.2,37.45c-9.62,26.01-15.03,53.25-21.16,80.21
		c-1.12,8.69-2.29,17.38-3.71,26.03c-1.79,12.33,0.01,25.2-4.23,37.12c-1.8,13.8-0.87,27.82-0.96,41.71
		c-0.42,11.83,3.55,23.2,3.83,34.97c-0.26,16.19,4.82,31.68,5.4,47.84c3.63,17.53,8.61,34.77,12.86,52.16
		c4.16,12.44,8.06,24.96,12.59,37.27c3.33,6.4,5.59,13.22,7.98,20.01c7.77,15.7,15.44,31.46,23.57,46.97
		c3.96,4.8,7.11,10.12,9.71,15.78c1.73,5.21,6.06,8.67,9.55,12.63c2.64,2.83,3.7,6.71,6.22,9.64c2.62,3.33,6.14,5.98,8.16,9.77
		c3.31,7.61,10.13,12.62,15.72,18.44c11.05,10.55,21.09,22.21,32.85,31.98c-2.61,13.99-3.46,29.61-12.87,41.1
		c-3.73,4.37-5.57,10.09-9.94,13.97c-6.75,6.37-12.54,14.1-21.21,18.04c-6.54,5.26-14.07,9.12-21.81,12.31
		c-16.75,5.37-33.23,11.7-50.49,15.33c-18.2,4-36.19,9.24-54.78,11.11c-9.52,2.72-19.64,2.12-29.07,5.04
		c-14.12,7.34-31.21,5.9-44.89,14.5c0.83,5.41,1.28,12.07,6.64,15.09c6.54-2.14,12.89-4.85,19.47-6.9
		c7.05-1.64,14.51-0.75,21.46-2.96c5.64-2.24,10.62-6.63,17.11-5.92c20.26-0.73,39.81-6.54,59.64-10.24
		c13.32-2.68,25.9-7.95,39.17-10.83c5.27-0.99,9.8-3.96,14.73-5.88c11.5-3.58,22.73-8.64,32.24-16.11
		c5.55-2.6,10.17-6.61,14.29-11.07c7.25-7.72,15.18-14.76,22.31-22.58c7.43-12.08,12.7-25.64,14.47-39.77
		c5.6,4.37,12.29,6.94,18.4,10.47c11.08,8.84,24.61,13.8,37.11,20.25c17.33,5.76,34.5,12.19,52.39,16.05
		c11.88,2.47,24.49,0.1,36.04,4.28c7.23,2.35,15.04,1.16,22.26-0.69c11.99-2.93,24.58-1.2,36.6-4.03
		c17.67-4.02,34.6-10.6,51.8-16.21c10.82-5.3,21.73-10.47,32.29-16.27c5.63-4.84,12.14-8.81,19.5-10.34
		c4.88,14.37,9.25,29.42,18.91,41.46c2.63,4.03,4.67,8.57,8.31,11.87c6.76,6.37,12.55,14.1,21.22,18.04
		c7.37,6.34,17.03,9.05,24.51,15.23c3.97,2.65,8.98,3.21,13.24,5.41c14.15,7.33,30.17,9.36,45.32,13.78
		c9.91,3.48,20.61,2.98,30.71,5.78c31.43,4.86,62.68,10.76,94.18,15.28c17.44,4.7,35.67,7.54,51.9,15.88
		c6.57,2.69,13.71,4.16,19.75,8.13c7.99,6.04,16.48,11.39,24.96,16.72c3.81,2.75,6.63,6.75,10.82,9
		c7.83,3.42,12.91,10.51,18.95,16.21c7.28,7.39,14.74,14.61,22.04,21.99c3.75,3.5,5,8.75,8.54,12.43c2.43,2.85,5.55,5.2,7.33,8.58
		c6.74,13.3,13.22,26.72,19.98,40.01c4.35,9.2,9.83,17.95,12.72,27.79c2.41,8.28,7.54,15.41,10.51,23.48
		c1.43,4.23,2.76,8.67,4.79,12.73c5.25,10.17,7.01,21.72,11.97,32.01c2.96,5.46,4.55,11.41,6.6,17.26
		c6.8,20.69,13.71,41.34,20.65,61.98c4.3,12.39,6.54,25.37,11,37.72c2.38,9.69,5.09,19.32,8.24,28.81
		c3.03,14.32,8.77,27.88,11.59,42.27c11.04,41.72,19.37,84.07,29.14,126.1c3.81,19.37,7.38,38.8,12.08,57.99
		c1.24,14.58,4.07,28.95,7.82,43.09c1.45,13.6,4.87,26.89,6.38,40.49c2.83,11.41,2.21,23.36,5.39,34.72
		c4.25,25.65,8.04,51.37,10.5,77.27c3.08,12.72,2.22,26,5.34,38.74c1.31,15.57,3.56,31.04,5.89,46.5
		c5.17-0.01,10.36,0.01,15.59,0.05c-0.09-10.69,0.63-21.58-2.37-31.94c-2.09-10.25-1.4-20.88-3.83-31.04
		c-2.29-10.54-1.39-21.53-4.03-31.97c-2.26-9.19-1.68-18.86-4.02-28.01c-1.9-7.79-1.7-15.94-3.13-23.78
		c-3.04-11.66-2.4-23.95-5.67-35.54c-1.59-13.6-4.87-26.87-6.38-40.48c-3.26-12.91-3.2-26.39-6.72-39.24
		c-4.46-14.34-4.32-29.5-7.87-44.03c-4.1-22.24-10.1-44.06-14.13-66.3c-4.17-22.51-10.59-44.49-15.88-66.74
		c-6.95-26.12-12.25-52.7-20.63-78.42c-2.09-8.97-4.7-17.76-7.56-26.5c-5.05-21.66-13.39-42.34-20.03-63.53
		c-7.03-19.28-11.8-39.44-20.67-58c-3.56-9.83-6.04-20.1-10.84-29.44c-2.25-4.68-3.2-9.87-5.48-14.5
		c-3.28-7.06-7.41-13.78-9.47-21.35c-1.67-5.72-4.58-10.95-7.24-16.23c-5.39-10.64-10.68-21.33-16.03-31.98
		c-4.68-9.1-8.46-18.78-14.98-26.76c-3.5-7.85-10.24-13.29-16.13-19.23c-12.83-12.85-25.7-25.64-38.45-38.55
		c-4.13-4.5-10.48-5.88-14.52-10.47c-8.1-9.22-21.26-10.92-30.55-18.55c-4.16-3.74-10.05-4.19-14.89-6.64
		c-9.81-4.94-20.51-7.7-30.9-11.09c-19.85-4.75-39.7-9.54-59.94-12.18c-25.11-2.78-49.79-8.22-74.84-11.47
		c-16.55-4.35-33.36-7.81-49.69-12.85c-7.16-4.62-16.62-4.6-22.86-10.64c-4.71-3.73-10.54-5.66-15.69-8.62
		c-4.27-2.8-7.18-7.32-11.72-9.73c-3.29-1.61-6.54-3.44-9.06-6.13c-4.15-4.09-5.83-9.92-9.76-14.2
		c-6.7-10.28-11.69-21.85-13.83-33.96c-1.34-4.43,0.29-9.06,3.62-11.98c12.46-12.2,24.7-24.64,37.09-36.92
		c4.83-4.75,10.16-9.3,12.82-15.73c2.67-4.63,7.4-7.65,9.96-12.34c1.97-4.79,5.7-8.38,9.2-12.03c3.31-3.29,4.65-7.92,6.93-11.91
		c2.25-5.93,7.61-9.86,9.87-15.79c5.84-11.54,11.47-23.19,17.39-34.69c4.67-8.59,6.46-18.34,11.18-26.9
		c5.8-17.02,12.05-33.97,15.86-51.59c4.42-19.63,9.88-39.09,11.72-59.2c2.74-13.59,1.26-27.61,4.13-41.16
		c2.11-9.75,2.11-19.76,2.17-29.68c-0.16-10.54,0.57-21.43-3.16-31.48c-2.31-12.26,0.06-24.95-2.07-37.25
		c-3.69-11.15-3.23-23.1-6.01-34.45c-5.13-24.24-10.82-48.48-19.84-71.59c-4.71-8.85-6.8-18.75-11.47-27.61
		c-4.76-15.27-12.88-29.18-20.15-43.33c-6.88-7.78-9.71-18.14-16.41-26.06c-3.29-8.24-11.66-12.76-14.94-20.96
		c-3.63-6.3-10.52-9.92-14.01-16.31c-3.6-8.28-11.23-13.52-17.18-19.96c-5.86-5.37-10.7-11.93-17.32-16.4
		c-9.97-3.72-14.55-14.52-24.31-18.53c-2.97-1.73-5.51-4.1-8.47-5.82c-5.82-2.87-10.17-7.96-16.26-10.34
		c-10.73-5.26-21.32-10.82-32.11-15.94c-20.21-8.05-41.61-12.29-62.79-16.87c-14.82-2.06-29.84-0.98-44.74-1.23
		C953.33-538.7,933.29-532.92,913.47-527.84 M410.12,239.23c-4.89,3.82-8.76,8.78-13.53,12.77c3.6,3.08,6.59,6.89,10.44,9.69
		c5.49-1.31,11.2-5.25,17.02-2.73c3.71,2.56,5.86,6.66,6.08,11.25c5.02-1.85,9.96-3.97,15.24-5.01c-0.51-3.41-1.11-6.78-1.81-10.11
		c-3.6-4.89-8.32-8.81-12.51-13.16C425.97,236.16,416.72,237.28,410.12,239.23 M297.58,276.09c-3.35,2.08-6.33,4.84-8.6,8.06
		c0.62,6.11,5.76,10.21,10.19,13.82c5.62,0.17,8.54-4.87,11.91-8.41c2.98,3.47,6.04,6.87,9.32,10.07c4.59,5.42,13.48,1.7,16.7-3.66
		c-2.71-7.67-6.01-15.93-13.03-20.66c-4.22-1.94-8.83-2.81-13.07-4.69C307.01,273.49,302.01,274.17,297.58,276.09 M385.7,269.47
		c-1,17.66-16.78,30.16-17.19,47.88c5.2,1.69,10.24,3.88,15.57,5.18c3.31-10.96,10.49-20.27,13.5-31.34
		c1.67-5.72,4.45-11.06,7.7-16.03C399.12,272.11,392.64,269.8,385.7,269.47 M425.84,287.44c-3.16,9.93-5.6,20.21-10.61,29.44
		c-2.06,3.81-1.91,8.28-2.72,12.47c5.2,1.69,10.24,3.88,15.58,5.18c2.04-6.25,5.15-12.03,7.75-18.03
		c3.19-9.93,7.01-19.68,9.68-29.77c-3.89-1.32-7.58-3.23-11.58-4.15C430.05,281.36,427.67,284.81,425.84,287.44 M266.01,319.72
		c-5.01,9.58-10.82,18.99-13.75,29.48c3.96,1.3,7.72,3.27,11.8,4.21c3.84,1.36,5.78-2.05,7.79-4.34c5.2-8.95,8.19-19.25,14.96-27.24
		c2.47-3.25,4.14-7.02,6.5-10.34c-4.44-4.01-9.85-6.58-14.84-9.78C273.69,307.28,270.7,314.07,266.01,319.72 M313.12,333.01
		c-4.18,9.44-10.32,18.08-12.86,28.19c3.96,1.31,7.72,3.27,11.8,4.21c3.85,1.39,5.77-2.05,7.78-4.34
		c7.15-13.54,14.19-27.32,17.71-42.32c-5.22-1.24-10.9-1.54-15.35-4.82C316.97,319.12,316.36,326.7,313.12,333.01 M357.91,329.47
		c-2.04,6.24-5.15,12.02-7.75,18.03c-3.2,9.93-7.01,19.67-9.68,29.77c3.88,1.29,7.58,3.23,11.58,4.15c3.88,1.18,6.28-2.22,8.1-4.86
		c3.16-9.93,5.6-20.22,10.61-29.44c2.06-3.81,1.88-8.36,2.72-12.47C368.29,332.94,363.25,330.77,357.91,329.47 M405.53,346.14
		c-5.02,15.53-12.48,30.62-12.91,47.24c5.23,1.72,10.31,3.92,15.67,5.23c2.73-18.01,13.2-34.07,13.2-52.61
		C416.16,346.02,410.84,346.06,405.53,346.14 M548.32,361.13c-8.59,0.85-17,2.74-25.47,4.31c-4.57,2-8.66-0.94-12.22-3.31
		c-1.76,1.78-3.56,3.51-5.45,5.15c-0.06,3.7-0.17,11.09-0.22,14.79c17.76,1.41,35.1-2.13,52.54-4.69
		c-1.27-7.03-3.52-13.76-6.37-20.28C550.16,358.41,549.23,359.76,548.32,361.13 M245.74,361.41c-6.22,16.99-11.78,34.41-13.37,52.53
		c6.82,0.05,13.63,0.07,20.45,0.06c0.16-6.29,0.17-12.61,0.98-18.83c2.3-9.6,7.22-18.48,7.67-28.52
		C256.21,364.92,251.13,362.71,245.74,361.41 M436.71,370.68c2.63,6.26,4.25,12.78,5.1,19.52c13.51-10.08,31.37-8.17,47.18-8.34
		c0.02-6.69,0.02-13.37,0-20.04C470.85,360.2,454.31,368.33,436.71,370.68 M617.62,369.45c-1.2,4.91-0.39,10.97-4.47,14.65
		c-4.85,5.94-12.29,8.76-19.43,10.85c-1.22,5.42-2.55,10.94-5.57,15.7c-6.04-1.57-11.9-3.77-18.12-4.43
		c-6.55,1.23-10.05,7.81-16.22,10.03c-6.23,4.93-13.1,9.45-21.14,10.7c0.46,3.33,1.02,6.66,1.69,10c1.89,2.73,4.48,4.87,6.98,7.05
		c-5.87,4.16-9.21,10.44-12.61,16.56c5.65,1.89,10.77,4.97,14.4,9.76c4.13-4.85,9.92-8.73,11.2-15.43
		c9.43-3.51,15.74-11.89,22.42-18.95c-1.24-4.41-3.15-8.59-4.27-13.03c4.2-1.54,8.38-3.16,12.38-5.16c0.11,2.88,0.21,5.79,0.3,8.7
		c15.93-3.11,31.4-8.79,47.82-8.89c0.01-5.17,0.02-10.33,0.04-15.46c-2.95-0.17-5.89-0.3-8.81-0.41c1.3-3.36,2.29-6.95,4.85-9.6
		c4.46-4.84,7.26-11.04,8.74-17.4C631.25,372.27,624.63,370.06,617.62,369.45 M288.91,382.74c0.15,12.72-0.44,25.47,0.47,38.18
		c-0.48,3.86,2.47,6.5,4.97,8.81c5.53,1.84,10.34-1.81,14.76-4.5c-0.17-15.91-0.08-31.81-0.14-47.71
		C302.05,378.11,294.57,378.23,288.91,382.74 M417.65,389.59c-4.17,11.82-9.1,23.58-9.19,36.36c-1.14,0.01-2.28,0.03-3.41,0.06
		c-0.03-5.35-0.06-10.69-0.08-16.01c-5.33-0.02-10.65-0.02-15.96,0c-0.02,17.32-0.03,34.64,0,51.97c3.99,0,7.98,0.03,11.98,0.07
		c0.01,5.28,0.01,10.58,0.02,15.89c-2.85,0.06-5.69,0.13-8.52,0.19c1.14,9.36,3.62,18.5,5.04,27.83c4.99-0.01,9.98-0.02,14.98-0.03
		c5.44-15.24,3.36-31.84,8.87-47.01c-2.93-1.15-6.39-1.35-8.84-3.42c-4.29-3.24-5.36-8.87-8.01-13.3
		c6.76-0.11,13.53-0.19,20.29-0.25c0.16-6.27,0.17-12.57,0.96-18.78c1.77-8.23,6.32-15.67,7.12-24.12c0.22-3.77-2.58-6.41-5.24-8.47
		C425.16,390.33,420.15,389.84,417.65,389.59 M337.59,393.53c-5.06,17.08-6.13,34.93-9.21,52.41c6.82,0.05,13.64,0.07,20.47,0.06
		c-0.22-11.19,0.63-22.34,3.24-33.22c1.72-6.3,1.81-14.52-4.43-18.21C345.14,394.31,340.11,393.79,337.59,393.53 M161.98,399.84
		c-6.12,2.04-14.12,2.43-17.18,9.01c-5.79,8.64-3.37,19.41-3.97,29.18c5.25-0.06,10.5-0.11,15.75-0.16
		c2.53-6.36,4.37-12.95,5.04-19.77c5.13-0.07,10.27-0.12,15.41-0.15c-0.05-5.17-0.11-10.33-0.19-15.48
		C171.98,401.18,167.16,397.12,161.98,399.84 M732.16,413.05c-11.5,10.85-22.35,22.39-33.66,33.45c-5.5,5.72-12.2,10.66-15.31,18.23
		c-2.83,4.87-7.51,8.19-11.23,12.29c-3.1,3.11-4.48,7.38-6.54,11.18c-4.32,9.54-10.07,18.48-13.03,28.6
		c-1.63,5.74-4.67,10.9-7.3,16.21c-5.46,10.08-7.17,21.62-10.28,32.52c-4.67,14.46-9.7,28.82-14.44,43.27
		c-2.68,6.74-3.08,14-3.91,21.15c-1.15,0.01-2.29,0.03-3.42,0.06c-0.08-12.01-0.01-24.02-0.06-36.01c-5.32-0.02-10.64-0.02-15.94,0
		c0.04,8.33,0.22,16.67-0.06,25.03c0.06,9.16-3.47,17.79-4.7,26.78c7.08,0.13,14.16,0.29,21.24,0.5c-1.4,2.25-3.49,4.16-4.25,6.76
		c-0.59,6.97-0.34,14.01-0.39,21.04c-1.59-0.29-3.18-0.56-4.76-0.81c0.69-3.54,1.13-7.1,1.3-10.68c-5.18-1.7-10.2-3.86-15.51-5.16
		c-2.45,7.62-5.81,15.08-11.05,21.21c-3.33,5.47-6.35,11.79-12.15,15.09c-1.34-1.18-2.52-2.5-3.81-3.71
		c-4.29-4.61-10.9-6.06-14.96-10.98c-9.08-9.78-19.36-18.45-27.84-28.77c13.26-0.57,26.56,0.26,39.82-0.69
		c3.87,0.47,6.5-2.46,8.81-4.96c1.82-5.77-2.1-10.6-4.66-15.3c-10.03,1.39-19.87,4.32-30.05,4.58c-15.33,0.36-30.68-0.22-46,0.61
		c1.47,1.66,3.04,3.23,4.67,4.75c0.12,6.88,0.09,13.8,0.66,20.71c4.13,16.71,3.93,34.15,8.82,50.75c1.42-1.47,2.75-3.01,4.05-4.57
		c2.74-0.06,8.22-0.18,10.96-0.24c0.61-12.56-3.31-24.54-4.11-36.96c8.26,6.3,14.89,14.42,22.44,21.52
		c6.47,6.05,11.84,13.65,20.15,17.39c2.3,1.35,4.24,3.2,6.23,4.96c-2.74,0.61-5.49,1.19-8.24,1.74c-2.6,7.61-7.35,14.34-9.24,22.22
		c-2.95,7.7-3.14,16.34-7.13,23.64c1.73,1.73,3.41,3.52,4.99,5.4c3.55,0.03,10.65,0.1,14.2,0.13c0.84-12.23,4.68-24.04,10.3-34.87
		c2.2-4.21,2.16-9.22,3.37-13.67c4.36,4.3,8.87,8.53,14.52,11.13c5.06,4.07,10.81,7.08,16.42,10.32
		c-0.31,15.3,0.81,30.68-0.85,45.94c-2.38,9.54-5.85,18.85-10.67,27.45c-2.5,6.08-7.61,10.48-10.34,16.44
		c-2.74,4.58-7.46,7.62-10.01,12.33c-3.36,7.36-9.58,12.84-15.79,17.77c-0.22-4.34-0.41-8.66-0.56-12.95
		c-4.99,0.2-9.97,0.47-14.94,0.8c-1.59,1.78-3.3,3.45-5.03,5.11c7.55,5.53,3.23,16.38,4.19,24.27c1.9,11.15-9.56,15.31-14.71,23.02
		c-5.48,11.97-16.87,19.35-25.42,28.91c-4.05,3.87-5.37,9.67-9.41,13.57c-7.02,7.8-16.4,13.81-20.69,23.74
		c-8.33,11.77-22.1,19.11-28.31,32.47c-8.56,11.59-22.13,19.09-28.32,32.48c-5.56,7.03-12.61,12.71-18.72,19.26
		c-6.91,7.31-14.67,13.85-21.12,21.58c-4.46,9.83-13.03,16.73-20.83,23.82c-0.31-6.99-0.55-13.95-0.71-20.9
		c-6.79-0.04-13.58-0.01-20.37,0.09c4.29,12.54,5.29,25.76,4.14,38.94c-8.11,6.71-15.01,14.71-22.62,21.96
		c-8.4,7.97-15.54,17.63-26.31,22.59c-24.93,24.14-48.99,49.23-73.9,73.41c-0.73-16.36,4.59-32.04,7.98-47.83
		c25.84-116.9,51.99-233.72,77.81-350.61c3.01-11.17,5.38-22.53,6.15-34.09c5.66-4.63,12.35-8.09,19.58-9.42
		c-1.44-7.45-3.43-14.76-5.88-21.93c-2.03-3.1-4.95-5.47-7.39-8.21c-3.65-3.69-4.66-9.16-8.32-12.85c-4.58-0.59-9.81,0.01-12.95,3.7
		c-3.48,2.52-1.69,7.77-0.63,11.16c1.91,2.49,4.3,4.55,6.64,6.63c-3.33,5.11-3.41,11.45-4.88,17.25
		c-18.1,80.77-35.8,161.62-53.98,242.37c-9.34,44.69-20.71,88.92-29.95,133.63c-11.83,51.7-22.89,103.58-34.72,155.27
		c-4.23,11.7-4.38,24.17-7.12,36.22c-1.41,16.96-5.19,33.67-5.31,50.75c-0.24,10.78-4.65,21.03-3.88,31.95
		c0.62,23.22-1.31,46.61,1.1,69.74c3.98,12.79,2.52,26.57,6.52,39.4c2.24,12.05,9.42,22.26,14.48,33.23
		c5.18,6.92,12.13,12.28,17.9,18.71c5.58,6.53,14.04,9.25,21.54,12.87c13.29,6.33,28.25,5.26,42.54,5.25
		c16.82-0.09,33.18-5.07,48.77-11c7.01-4.03,15.04-5.52,22.24-9.05c25.37-12.83,50.96-25.25,76.21-38.28
		c6.39-5.56,14.32-8.68,21.47-13.02c4.92-4.3,11.36-6.45,15.85-11.27c12.91-13.09,25.93-26.08,39-39.01c4.2-3.77,5.52-9.58,9.5-13.5
		c3.61-3.68,7.39-7.38,9.03-12.45c2.34-5.49,5.71-10.29,9.32-14.97c10.62-20.7,21.1-41.5,31.17-62.47
		c3.35-13.4,11.57-24.72,16.54-37.44c3.26-12.88,11.3-23.72,16-36c4.15-15.77,14.95-28.75,18.91-44.6
		c7.44-16.23,16.13-31.87,23.71-48.04c2.44-5.23,3.42-11.01,6.14-16.1c16.03-31.99,31.98-64.02,48.05-95.99
		c3.53-6.32,4.65-13.61,7.95-20.01c9.21-18.41,18.39-36.83,27.68-55.2c4.75-8.49,5.61-18.66,11.57-26.53
		c4.48-5.29,7.47-11.58,11.76-17c4-8.97,12.08-14.81,18.62-21.75c7.01-6.5,12.75-14.7,21.68-18.77
		c8.78-6.89,19.05-11.49,29.17-16.05c15.02-4.08,30.42-6.52,45.65-9.67c16.54-3.48,33.83-5.42,48.86-13.72
		c7.17-3.87,15.01-6.78,21.33-12.06c4.34-2.99,9.33-5.11,12.86-9.17c9.09-9.25,18.27-18.4,27.46-27.55
		c4.96-4.94,10.57-9.57,13.32-16.23c2.67-4.62,7.41-7.64,9.96-12.33c3.77-9.6,14.44-13.99,18-23.71c2.95-5.29,7.88-9.3,13.52-11.47
		c9.14-5.24,19.64-6.89,29.82-8.94c11.66-1.62,23.76-1.76,35.19,1.47c4.73,0.89,10.05,2.75,14.62,0.02
		c5.87-2.7,13.74-5.16,14.06-12.99c4.12-10.25,2.85-21.57,2.62-32.32c-2.76-2.14-5.62-4.29-7.68-7.13
		c-0.31-8.25,8.53-11.26,15.3-11.08c3.71-3.97,8.08-7.36,11.32-11.75c1.73-5.69,2.42-11.67,4.75-17.14
		c-3.59-4.77-3.2-11.49-7.28-15.88c-2.99-3.36-6.3-6.42-9.46-9.6c-5.26-5.53-12.93-7.59-19.38-11.3c-5.94-3.41-12.7-4.97-18.93-7.57
		c-4.58-3.94-9.82-6.89-15.27-9.42c-5.83-2.07-9.83-6.87-14.02-11.12c-7.44-7.56-14.99-15.01-22.47-22.51
		c-6.33-6.14-11.89-13.4-20.16-17.09c-11.72-9.59-27.23-14.68-42.37-13.51c-12.77-0.08-21.62,12.47-34.58,11.68
		c3.58-6.75,11.27-8.75,16.73-13.46c9.01-6.3,20.21-8.98,28.51-16.36c7.67-4.92,16.18-8.33,24.22-12.57
		c14.06-7.01,28.09-14.09,42.18-21.07c6.02-3.17,12.85-5.36,17.58-10.5c6.36-5.78,12.14-13.62,11.56-22.63
		c1.44-10.21-4.11-18.91-9.05-27.22c-8.66,0.12-17.35-0.14-25.94,0.99c-8.18,2.01-15.95,5.35-24,7.8
		c-8.34,2.83-16.87,5.25-24.68,9.4c-15.14,6.21-31.66,9.02-46.02,17.13c-12.35,6.33-24.87,12.34-37.26,18.6
		c-4.57,2.77-7.57,7.52-12.24,10.16c-4.42,2.03-7.96,5.4-12.11,7.84c-7.61,3.25-11.82,11.12-19.58,14.13
		c-4.62,2.67-7.65,7.4-12.34,9.96c-7.68,3.13-11.94,10.93-19.56,14.15c-4.51,2.81-8.17,7.61-14.38,6.22
		c3.8-5.33,8.86-9.72,11.55-15.83c4.6-5.48,6.99-12.56,12.42-17.35c4.24-4.03,8.62-8.14,10.84-13.72
		c3.48-6.06,9.96-9.63,13.59-15.57c4.42-9.38,12.4-17.05,22.04-20.91c16.25-9.32,34.75-13.11,52.07-19.78
		c5.62-1.73,9.49-6.09,13.6-9.97c3.68-3.76,9.83-4.41,12.56-9.18c2.43-5.12,5.27-10.06,7.37-15.31c1.51-6.09-2-11.73-3.36-17.44
		c-0.98-5.35-5.1-9.28-9.14-12.52c-17.05-2.81-34.29,1.89-50.83,5.82c-15.04,5.63-31.11,8.84-45.22,16.75
		c-9.2,5.04-19.79,6.75-28.81,12.22c-6.4,2.09-10.14,7.86-15.36,11.63c-8.85,4.17-16.39,11.34-20.47,20.3
		c-4.84,7.48-13.18,12-17.68,19.74c-3.03,7.74-11.06,11.88-13.99,19.69c-3.62,6.3-10.52,9.92-14,16.31
		c-3.15,8.32-11.64,12.54-16,19.99c-1.5,5.15-6.99,6.39-10.72,9.4c-3.24-4.07-6.85-8.76-5.49-14.4
		c2.88-20.49,15.17-37.77,23.43-56.31c2.72-8.29,11.45-12.3,14.41-20.45c3.48-6.09,9.95-9.68,13.71-15.53
		c2.68-5.29,5.74-10.43,7.91-15.96c3.58-15.37-3.57-34.57-19.24-40.29C745.88,403.92,738.25,409.4,732.16,413.05 M640.53,423.06
		c1.28,4.48,5.55,8.87,3.23,13.83c-4.48,5.57-9.95,10.25-15.2,15.08c3.67,3.17,6.76,6.99,10.6,9.97c6.24-2.07,12.7-4.62,17.49-9.3
		c5.72-5.68,10.77-14.73,6.14-22.52c-2.68-5.35-5.59-10.59-7.37-16.32C651.11,417.85,645.53,420.02,640.53,423.06 M180.4,421.99
		c0.59,6.53,1.2,13.11,2.84,19.51c2.54,10.62,1.71,21.66,1.88,32.5c5.28-0.01,10.57-0.01,15.86,0c0.15-17.41,1.58-35.28-4.57-51.88
		C191.07,422.05,185.73,422.01,180.4,421.99 M468.58,426.69c0.72,7.11-0.41,15.21,3.94,21.4c-5.72,7.21-6.52,17.13-8.25,25.83
		c6.73,0.04,13.47,0.06,20.21,0.04c-0.47-12.05,4.87-23.18,13.3-31.4c6.23-0.34,12.46-0.62,18.71-0.85c1.27-3.63,3.07-7.05,4-10.78
		c-0.51-3.49-2.6-6.26-4.29-9.19C500.07,420.77,484.41,424.47,468.58,426.69 M232.5,430.06c3.49,17.25,5.55,34.72,4.6,52.37
		c6.77-1,16.14,0.78,19.91-6.47c-4.17-14.96-4.59-30.53-4.1-45.96C246.11,429.97,239.3,429.99,232.5,430.06 M292.74,446.44
		c0.51,6.34,0.46,12.87,2.53,19c2.44,7.61,1.65,15.79,2.57,23.67c1.4,1.32,2.76,2.7,4.06,4.14c5.44,0.48,10.88,0.96,16.33,1.44
		c-3.92-14.25-5.49-28.87-5.83-43.6c0.74-3.92-2.29-6.5-4.74-8.83C302.15,440.57,297.4,444.23,292.74,446.44 M141.02,453.99
		c0.06,14.3-0.64,28.63,0.39,42.92c0.52,3.48,2.63,6.32,4.34,9.28c3.84-0.06,11.52-0.17,15.36-0.23
		c1.29-17.55-3.12-34.59-4.58-51.93C151.36,453.99,146.19,453.98,141.02,453.99 M325.5,462.05c-1.43,11.04-3.37,22.18-7.27,32.64
		c-1.62,3.39-3.26,6.81-5.41,9.92c4.4,3.95,9.74,6.48,14.68,9.66c6.93-7.23,10.03-17.06,12.69-26.48c1.15-8.56,0.84-17.21,0.96-25.8
		C335.93,461.98,330.71,462,325.5,462.05 M606.87,473.88c-9.85,9.27-12.34,23.33-17.93,35.07c6.09,3.02,12.5,5.19,19.36,5.58
		c0.98-8.18,4.03-15.74,8.07-22.84c2.45-6.6,7.86-11.25,13.06-15.65c-3.68-3.2-6.78-7.03-10.62-10.03
		C613.48,466.13,610.38,470.62,606.87,473.88 M521.63,477.46c-2.52,15.26-8.47,29.76-16.63,42.86c3.49,3.1,6.45,6.79,10.18,9.62
		c7.16,0.63,9.95-7.1,12.51-12.18c6.14-10.9,7.59-23.69,13.37-34.71C534.95,480.02,528.5,477.83,521.63,477.46 M188.64,490.68
		c5.36,13.28,8.08,27.61,15.11,40.19c2.52,4.98,4.85,10.07,7.6,14.94c3.2,4.23,6.92,8.17,11.14,11.4c2.47,0.31,7.4,0.92,9.87,1.22
		c1.39-5.14,5.15-9.93,3.73-15.49c-2.53-3.34-6.21-5.6-10.42-6.15c-2.99-7.25-7.26-13.96-9.32-21.57
		c-3.19-9.74-7.21-19.3-8.04-29.63C201.66,486.92,195.21,489.03,188.64,490.68 M468.56,490.07c3.53,18.68,8,38.82,22.35,52.41
		c3.21-3.68,7.03-6.81,10.05-10.65c-2.31-7.88-7.51-14.48-10.18-22.22c-1.98-6.35-1.69-13.08-2.3-19.59
		C481.84,489.98,475.2,490,468.56,490.07 M240.92,498.64c-0.04,9.44-0.23,19.05,2.63,28.19c2.32,6.39-1.83,12.32-3.08,18.41
		c5.05,1.18,10.49,1.63,14.96,4.49c1.76-1.73,3.57-3.41,5.47-4.98c-0.07-17.11,2.49-35.21-5.35-51.05
		C252.12,498.39,246.18,498.09,240.92,498.64 M148.63,522.77c2.11,15.27,10.13,28.59,14.83,43.04c0.75,1.58,1.55,3.15,2.34,4.74
		c5.08-2.05,10.11-4.29,15.49-5.47c-3.27-8.72-5.84-17.7-9.93-26.09c-3.05-6.79-1.54-15.64-7.57-20.87
		C158.64,519.33,153.84,521.71,148.63,522.77 M588.57,530.13c1.58,4.88,4.09,9.58,3.92,14.89c0.24,12.79,2.49,25.36,5.69,37.72
		c1.41-1.46,2.74-3.01,4.04-4.56c2.74-0.06,8.21-0.18,10.94-0.24c-0.3-7.64,0.21-15.49-2.26-22.8c-2.85-8.04-1.63-16.84-2.2-25.16
		C601.99,529.98,595.28,530.02,588.57,530.13 M172.63,587.35c11.04,12.26,12.21,29.72,21.35,43.11c5.08-2.02,10.09-4.26,15.46-5.44
		c-2.03-5.68-4.96-10.97-7.23-16.53c-3.28-10.93-8.29-21.35-14.54-30.87C183.24,581.72,177.52,583.9,172.63,587.35 M204.59,642.82
		c0.97,7.85,3.7,15.65,8.96,21.7c3.29,3.6,5.06,8.22,7.31,12.5c1.95,5.5,6.37,9.4,10.38,13.4c3.44-4.76,7.73-9.27,13.92-10.11
		c-4.1-4.53-6.36-10.32-10.31-14.96c-5.15-9.09-13.3-16.77-14.89-27.58C214.89,639.62,209.91,641.74,204.59,642.82 M240.56,698.96
		c1.62,4.77,3.7,9.38,6.08,13.83c2.81,4.55,7.63,7.5,10.17,12.25c2.88,6.42,8.07,11.31,13.13,16.02c1.71,1.87,4.62,0.25,6.5-0.72
		c3.11-2.41,5.99-5.16,8.4-8.26c-2.45-3.12-5.76-5.57-7.62-9.14c-2.55-6.13-7.69-10.39-12.26-14.92c-4.22-3.97-5.98-9.65-8.97-14.47
		C250.92,695.55,245.92,697.79,240.56,698.96 M537.14,777.9c-0.31,8.98,0.69,18.28-2.26,26.96c-2.81,8.03-1.64,16.76-2.14,25.13
		c6.74,0.01,13.49,0.01,20.25,0c0.03-15.8,0.05-31.6-0.08-47.39C547.51,781.46,542.09,780.38,537.14,777.9 M313.92,806.67
		c-1.58,1.76-3.27,3.43-4.99,5.08c1.56,1.84,3.88,3.5,3.82,6.2c0.81,13.48,3.76,26.69,4.71,40.15c4.87-0.24,9.74-0.49,14.62-0.77
		c1.57-1.78,3.27-3.44,4.99-5.08c-1.57-1.86-3.88-3.52-3.82-6.2c-0.81-13.49-3.77-26.7-4.71-40.15
		C323.66,806.09,318.79,806.35,313.92,806.67 M320.89,873.97c-1.29,17.71,3.12,34.95,4.73,52.46c5.06-1.84,10-4.04,15.24-5.35
		c0.6-15.81,1.1-31.93-4.45-46.95C331.23,874.04,326.06,873.99,320.89,873.97 M324.26,942.96c4,15.37,5.62,31.14,4.86,47.04
		c5.28-0.02,10.57-0.02,15.86,0c-0.06-14.32,0.61-28.65-0.36-42.92c0.47-3.91-2.47-6.49-4.97-8.81
		C333.88,936.41,328.99,940.42,324.26,942.96 M329.02,1006.01c0.06,14.28-0.64,28.61,0.39,42.9c0.52,3.47,2.63,6.33,4.34,9.28
		c3.81-0.06,11.43-0.17,15.24-0.23c0.02-17.33,0.02-34.64,0-51.95C342.33,1005.96,335.67,1005.96,329.02,1006.01 M970.04-519.96
		c10.19-3.04,21.18-2.89,31.46-0.29c9.82,2.64,20.11,1.92,30.1,3.53c13.78,3.08,27.23,7.47,40.57,12.09
		c11.3,5.21,22.28,11.09,33.47,16.54c6.31,2.56,10.88,7.82,17.04,10.66c5.31,3.6,9.09,9.25,15.28,11.61
		c6.19,3.4,9.78,9.96,15.74,13.68c8.55,3.96,15.01,11.21,20.84,18.38c4.75,12.07,18.06,17.52,23.17,29.34
		c10.02,14.45,19.31,29.39,29.47,43.73c6.88,13.92,14.96,27.38,19.51,42.31c4.48,8.36,6.4,17.76,10.82,26.15
		c4.56,9.72,6.71,20.33,9.48,30.63c5.49,15,7.69,30.87,11.03,46.41c2.46,10.41,2.63,21.18,4.24,31.72
		c4.18,13.42,2.56,27.64,2.79,41.47c-0.5,21.64,0.8,43.33-0.52,64.95c-3.43,19.37-5.22,38.97-8.85,58.31
		c-4.48,14.71-6.99,29.96-12.21,44.45c-2.96,8.22-5.22,16.69-8.5,24.79c-4.43,8.04-6.09,17.2-10.42,25.28
		c-4.26,8.46-8.58,16.88-12.73,25.39c-8.02,17.97-21.03,32.95-30.97,49.8c-2.64,4.65-7.34,7.69-10.02,12.32
		c-2.66,6.43-7.99,10.98-12.82,15.73c-8.21,8.12-16.35,16.32-24.46,24.54c-3.17,3.48-7.48,5.46-11.44,7.84
		c-4.82,3.87-8.82,8.87-14.69,11.31c-6.45,4.69-13.37,8.67-19.73,13.48c-14.09,6.86-27.58,15.26-42.76,19.55
		c-7.76,2.46-15.41,5.21-23.14,7.75c-8.4,2.72-17.47,1.84-25.88,4.42c-11,3.22-22.62,1.93-33.91,2.28
		c-10.01-0.41-20.37,0.84-30.11-1.96c-7.21-2.21-14.9-1.64-22.13-3.52c-12.24-4.3-24.63-8.14-36.84-12.48
		c-12.36-6.4-25.72-11.33-36.73-20.02c-5.78-2.87-10.37-7.54-16.17-10.36c-4.65-2.64-7.68-7.34-12.31-10.02
		c-8.39-3.61-13.72-11.29-20.2-17.33c-7.87-8.39-16.86-15.77-24.05-24.73c-2.37-6.03-7.21-10.25-11.28-15.03
		c-8.22-12.83-16.63-25.56-25.37-38.05c-9.26-18.05-18.2-36.26-27.27-54.41c-5.76-16.34-11.02-32.87-16.53-49.3
		c-5.72-23.43-13.19-46.73-14.22-70.99c0.12-9.2-3.76-17.81-3.75-26.96c-0.32-25.01,0.15-50.02-0.16-75.03
		c-0.71-16.17,4.43-31.7,5.19-47.76c3.32-13.88,6.08-27.89,8.86-41.88c6.38-20.21,10.14-41.41,19.61-60.54
		c4.54-15.4,13.18-29.05,19.86-43.53c2.84-7.18,9.08-12.19,11.8-19.44c2.7-6.86,8.11-12,11.37-18.53c2.71-4.26,7.05-7.22,9.59-11.61
		c4.95-11.74,18.23-17.05,22.84-29.05c5.96-7.32,12.62-14.63,21.35-18.65c6.86-4.8,11.38-12.25,18.35-16.91
		c6.48-3.19,11.74-8.22,18.12-11.58c6.58-5.64,14.73-8.82,22.35-12.75c10.8-4.99,20.92-11.63,32.53-14.72
		c9.7-3.38,19.48-6.54,29.52-8.78C947.26-518.66,958.96-517.24,970.04-519.96 M738.97,429.93c3.17-3.88,8.6-3.27,13.08-4.26
		c0.92,4.78,2.96,9.23,5.19,13.52c-3.06,5.38-6.19,10.71-9.96,15.63c-4.23,10.19-15.3,15.12-19.41,25.41
		c-7.24,8.92-11.21,19.85-16.56,29.91c-3.9,8.05-8.21,15.9-12.02,24c-2.2,6.7-3.14,13.76-4.63,20.67
		c-2.19,6.15,1.75,11.9,3.23,17.65c3.54,4.86,8.63,8.37,12.14,13.27c11.84,1.24,26.61-0.89,32.85-12.41
		c4.46-11.7,17.48-16.84,22.33-28.27c3.37-5.81,9.57-9.53,11.97-16.01c3.5-6.39,10.38-10.01,14.01-16.3
		c3.68-8.64,11.65-14.04,17.82-20.73c6.96-6.49,12.7-14.63,21.57-18.73c3.86-2.4,7.02-5.85,11.39-7.45
		c6.61-3.54,14.3-4.44,20.79-8.31c12.28-6.98,26.08-10.46,39.44-14.72c13.85-5.1,29.32-2.71,42.69-9.28c0,3.8-0.01,11.4-0.01,15.2
		c-6.21,4.66-10.64,11.31-17.07,15.67c-16.02,8.37-34.57,10.45-50.53,19.01c-5.2,2.8-10.82,4.94-15.74,8.24
		c-5.28,4.67-10.05,9.88-15.07,14.82c-3.91,3.69-5.18,9.21-8.93,13.01c-5.71,6.37-13.29,11.34-16.75,19.48
		c-2.55,4.71-7.28,7.74-10.02,12.33c-2.67,5.64-7.17,10.09-10.01,15.62c-2.34,4.18-6.6,7.22-7.37,12.24
		c-1.72,6.35-6.16,13.71-2.41,20.12c2.2,6.35,7.99,13.5,15.76,10.06c14.98-5.53,26.86-16.49,40.58-24.3
		c3.91-2.76,6.81-6.76,10.97-9.19c7.76-3,11.95-10.94,19.66-14.04c4.18-2.26,7.01-6.25,10.82-9c8.69-5.38,17.22-11.04,25.54-16.98
		c12.7-6.62,25.59-12.89,38.41-19.27c15.47-5.58,31.24-10.3,46.77-15.71c14.49-6.82,29.81-12.01,45.47-15.36
		c0,6.68-0.05,13.37-0.16,20.06c-28.18,14.55-56.7,28.42-85.02,42.68c-4.39,1.71-7.73,5.02-11.55,7.61
		c-6.66,3.64-13.69,6.72-19.57,11.6c-9.75,4.49-15.94,13.54-23.68,20.56c-4.61,4.5-9.63,8.88-12.16,14.98
		c-3.49,6.39-10.4,9.99-14,16.3c-2.46,6.3-7.71,10.6-12.36,15.2c-4.65,4.45-6.54,10.83-9.71,16.28c2.16,3.66,3.63,7.63,5.11,11.62
		c2.42-0.27,7.25-0.82,9.67-1.09c4.48-3.43,7.67-8.25,12.14-11.69c3.15-2.6,7.28-3.72,10.2-6.63c3.72-3.44,7.3-7.17,12.08-9.16
		c4.7-2.57,7.74-7.28,12.33-10.02c6.07-2.98,10.93-7.8,16.97-10.84c5.65-4.5,11.77-8.69,18.84-10.55
		c8.19-0.87,16.52-0.92,24.71,0.23c7.83,2.38,13.24,8.97,20.55,12.36c7,5.48,12.69,12.45,19.21,18.48
		c4.88,4.13,6.11,10.89,10.83,15.14c3.08,3.22,7.31,4.78,10.94,7.28c8.07,6.6,18.06,10.12,27.17,14.99c8.42,4.49,17.4,8,25.37,13.28
		c4.59,4.24,11.16,5.76,15.08,10.78c0.43,3.55,1.27,10.64,1.69,14.18c-12.03,8.67-28.23,5.04-40.7-0.91
		c-15.7-8.34-33.45-11.14-50.49-15.45c-4.28-1.36-8.6-3.13-11.59-6.59c-4.16-3.81-5.41-9.65-9.32-13.62
		c-3.55-3.81-7.38-7.34-10.98-11.09c-8.57-9.72-22.8-11.05-32.16-19.74c-2.4,6.42-4.26,13.01-6.45,19.49
		c-3.31,3.54-8.37,4.5-11.9,7.75c-4.58,3.91-8.75,8.45-11.25,14.01c-2.57,4.7-7.28,7.74-10.02,12.34c-1.79,3.59-4.18,6.82-6.66,9.96
		c-6.59,8.91-7.96,20.15-10.41,30.67c2.01,6.84,6.58,12.75,12.37,16.85c22.05,6.25,42.53-5.74,61.21-15.77
		c6.82-5.48,14.51-11,23.67-10.9c15.08-0.3,30.37-1.17,45.32,1.38c13.92,2.95,29.17,7.18,38.82,18.43c4.06,3.94,5.9,9.44,9.37,13.85
		c-2.3,4.39-2.98,9.35-4.09,14.16c-20.09,0.48-40.23-0.79-60.27,0.62c-10.73,2.89-21.12,7.29-30.58,13.09
		c-6.22,5.98-12.75,11.8-18.07,18.61c-2.18,4.93-5.61,9.05-9.4,12.81c-3.52,3.37-4.74,8.34-8.05,11.87
		c-3.66,4.18-8.37,7.47-11.2,12.34c-3.22,7.8-10.18,12.82-15.82,18.73c-6.03,5.71-11.11,12.8-18.94,16.22
		c-4.7,2.56-7.75,7.26-12.34,10c-4.45,1.96-7.88,5.46-11.94,8c-19.92,7.19-40.93,10.51-61.61,14.73
		c-12.32,2.69-24.99,4.02-36.83,8.58c-8.42,3.92-16.6,8.33-24.97,12.34c-11.84,4.23-16.7,17.75-28.4,22.2
		c-4.54,1.91-5.94,7.05-8.35,10.87c-4.49,6.04-10.9,10.33-15.47,16.3c-6.02,9.78-13.16,18.94-17.13,29.88
		c-3.3,12.3-10.02,23.19-15.48,34.57c-5.34,11.01-11.19,21.77-16.3,32.89c-3.32,12.29-9.94,23.22-15.43,34.59
		c-12.01,23.99-24,47.99-36,71.99c-4.45,8.91-9.48,17.62-11.98,27.36c-7.65,17.16-17.03,33.5-24.8,50.61
		c-3.3,12.85-10.85,23.91-16.01,36c-3.29,12.85-10.84,23.91-16,36c-3.26,12.65-10.58,23.6-15.79,35.45
		c-4.01,14.35-12.04,27.02-18.33,40.41c-4.64,8.75-8.37,18-13.66,26.39c-4.8,5.31-7.35,12.09-10.86,18.25
		c-5.97,8.42-11.69,17.02-17.1,25.81c-5.99,6.92-12.96,12.93-19.27,19.57c-6.59,6.19-12.11,13.88-20.58,17.71
		c-10.44,7.37-21.39,13.97-31.73,21.48c-23.84,12.24-47.98,23.88-71.84,36.09c-8.44,4.73-18.14,6.4-26.59,11.13
		c-20.4,7.51-42.54,14.2-64.34,8.96c-8.67-2.05-17.01-5.65-23.79-11.48c-8.57-4.34-16.09-11.12-20.43-19.77
		c-2.24-4.24-6.6-7.23-7.29-12.26c-3.21-8.78-4.65-18.09-6.62-27.16c-3.38-16.3-0.82-33.01-2.15-49.46
		c-0.91-1.96-2.71-3.31-4.07-4.91c1.4-0.67,2.8-1.3,4.21-1.89c1.51-26.86-2.57-54.18,2.99-80.69c1.35-16.8,3.65-33.45,6.57-50.03
		c5.22-19.36,6.78-40.17,16.81-57.93c3.84-9.3,10.11-17.13,15.23-25.68c2.76-3.61,6.46-6.46,8.79-10.4
		c3.05-7.33,9.46-12.19,14.82-17.71c14.51-14.49,29.02-28.99,43.47-43.53c3.88-4.06,9.68-5.37,13.56-9.42
		c30.79-30.89,61.61-61.74,92.51-92.51c3.9-3.7,5.18-9.22,8.93-13.01c10.96-11.42,22.79-22.03,33.39-33.78
		c6.28-13.59,19.95-21.27,28.69-32.99c6.21-13.36,19.98-20.7,28.31-32.47c4.96-11.48,16.64-17.62,23.69-27.52
		c5.31-11.47,16.28-18.56,24.52-27.72c4.35-3.94,5.66-10.05,9.91-14.05c4.52-4.59,9.75-8.79,12.22-14.96
		c3.48-6.39,10.38-10.01,14-16.31c2.95-7.8,10.93-11.97,14.02-19.68c2.57-4.7,7.27-7.75,10.01-12.34
		c2.74-5.94,7.83-10.35,10.34-16.43c4.82-8.6,8.29-17.91,10.68-27.45c1.6-14.45,0.58-29,0.79-43.48
		c13.93,0.16,24.64,9.94,37.08,14.69c9.52,3.55,19.63,5.67,28.66,10.47c6,3,12.84,3.54,19.18,5.67c22.3,7.38,45.4,12.37,68.77,14.83
		c14.18,4.85,29.39,1.77,43.98,3.86c14.09,4.71,29.43,3.88,44,2.27c11.92-4.46,24.85-2.69,37.31-3.38
		c6.56,0.26,12.54-2.81,19.02-3.22c11.3-0.67,22.05-4.32,33.12-6.35c22.26-4.46,43.41-12.94,64.9-20.02
		c9.82-6.09,23.27-5.9,31.01-15.13c0.63-3.49,2.73-8.76-0.82-11.29c-2.41-2.75-6.62-4.57-9.93-2.37
		c-6.29,3.61-13.12,5.95-19.93,8.31c-10.03,5.14-20.97,8.06-31.58,11.72c-16.25,5.98-33.25,9.44-50,13.62
		c-13.54,3.58-27.51,4.56-41.33,6.23c-15.06,4.57-31,2.33-46.47,2.76c-18.61-0.48-37.47,1.6-55.85-2.11
		c-10.74-2.13-21.89-1.58-32.43-4.72c-23.06-5.02-46.23-9.96-68.45-18.07c-11.46-4.3-23.68-6.74-34.43-12.77
		c-10.54-5.08-20.64-11.17-31.72-15.06c-1.94-22.2,2.95-43.93,5.1-65.88c5.04-21.08,8.86-42.52,15.65-63.15
		c4.23-12.66,8.58-25.29,12.68-37.99c2.35-7.36,2.98-15.26,6.92-22.04c3.52-6.64,6.78-13.43,8.72-20.74
		c3.72-8.51,7.73-16.95,12.58-24.87c4.15-4.66,6.18-10.8,10.75-15.09c4.96-4.04,6.78-10.37,10.94-15
		C715.93,452.97,727.55,441.55,738.97,429.93 M921.25,598.44c0.96-1.68,2.01-3.3,3.14-4.85
		C923.46,595.27,922.42,596.91,921.25,598.44 M916.97,597.94c1.41,0.15,2.84,0.32,4.28,0.5c-0.13,1.15-0.25,2.31-0.37,3.48
		c-1.3,0.02-2.6,0.06-3.88,0.13C916.98,600.66,916.97,599.29,916.97,597.94 M584.29,708.56c4.9-12.71,14.33-22.86,19.83-35.26
		c0.61,13.67,3.35,28.83-3.72,41.35C595.07,712.51,589.77,710.29,584.29,708.56 M945.57,683.14c9.84-4.16,20.54-5.57,30.47-9.47
		c2.97,4.78,4.76,10.38,8.9,14.36c5.52,5.53,11.03,11.08,16.84,16.32c-8.75,8.07-22.2,4.41-32.01,10.68
		c-6.96,2.63-11.69,8.66-18.48,11.54c-10.6,6-22.34,9.72-34.27,11.95c0.06-3.77,0.17-11.3,0.23-15.06c8.65-5.9,8.91-17.9,16.69-24.5
		C938.69,694.4,944.22,690.03,945.57,683.14 M561.89,712.85c1.21,1.01,2.45,1.99,3.69,3.01c-1.3,1.03-2.61,2.03-3.92,3.07
		C561.72,716.89,561.78,714.85,561.89,712.85 M204.64,1229.85c1.71,0.35,3.42,0.73,5.14,1.14c-1.27,1.26-2.52,2.53-3.8,3.82
		C205.52,1233.14,205.08,1231.48,204.64,1229.85L204.64,1229.85z"/>
	<path d="M913.47-527.84c19.82-5.08,39.86-10.86,60.53-10.29c14.9,0.25,29.92-0.83,44.74,1.23c21.18,4.58,42.58,8.82,62.79,16.87
		c10.79,5.12,21.38,10.68,32.11,15.94c6.09,2.38,10.44,7.47,16.26,10.34c2.96,1.72,5.5,4.09,8.47,5.82
		c9.76,4.01,14.34,14.81,24.31,18.53c6.62,4.47,11.46,11.03,17.32,16.4c5.95,6.44,13.58,11.68,17.18,19.96
		c3.49,6.39,10.38,10.01,14.01,16.31c3.28,8.2,11.65,12.72,14.94,20.96c6.7,7.92,9.53,18.28,16.41,26.06
		c7.27,14.15,15.39,28.06,20.15,43.33c4.67,8.86,6.76,18.76,11.47,27.61c9.02,23.11,14.71,47.35,19.84,71.59
		c2.78,11.35,2.32,23.3,6.01,34.45c2.13,12.3-0.24,24.99,2.07,37.25c3.73,10.05,3,20.94,3.16,31.48
		c-0.06,9.92-0.06,19.93-2.17,29.68c-2.87,13.55-1.39,27.57-4.13,41.16c-1.84,20.11-7.3,39.57-11.72,59.2
		c-3.81,17.62-10.06,34.57-15.86,51.59c-4.72,8.56-6.51,18.31-11.18,26.9c-5.92,11.5-11.55,23.15-17.39,34.69
		c-2.26,5.93-7.62,9.86-9.87,15.79c-2.28,3.99-3.62,8.62-6.93,11.91c-3.5,3.65-7.23,7.24-9.2,12.03c-2.56,4.69-7.29,7.71-9.96,12.34
		c-2.66,6.43-7.99,10.98-12.82,15.73c-12.39,12.28-24.63,24.72-37.09,36.92c-3.33,2.92-4.96,7.55-3.62,11.98
		c2.14,12.11,7.13,23.68,13.83,33.96c3.93,4.28,5.61,10.11,9.76,14.2c2.52,2.69,5.77,4.52,9.06,6.13c4.54,2.41,7.45,6.93,11.72,9.73
		c5.15,2.96,10.98,4.89,15.69,8.62c6.24,6.04,15.7,6.02,22.86,10.64c16.33,5.04,33.14,8.5,49.69,12.85
		c25.05,3.25,49.73,8.69,74.84,11.47c20.24,2.64,40.09,7.43,59.94,12.18c10.39,3.39,21.09,6.15,30.9,11.09
		c4.84,2.45,10.73,2.9,14.89,6.64c9.29,7.63,22.45,9.33,30.55,18.55c4.04,4.59,10.39,5.97,14.52,10.47
		c12.75,12.91,25.62,25.7,38.45,38.55c5.89,5.94,12.63,11.38,16.13,19.23c6.52,7.98,10.3,17.66,14.98,26.76
		c5.35,10.65,10.64,21.34,16.03,31.98c2.66,5.28,5.57,10.51,7.24,16.23c2.06,7.57,6.19,14.29,9.47,21.35
		c2.28,4.63,3.23,9.82,5.48,14.5c4.8,9.34,7.28,19.61,10.84,29.44c8.87,18.56,13.64,38.72,20.67,58
		c6.64,21.19,14.98,41.87,20.03,63.53c2.86,8.74,5.47,17.53,7.56,26.5c8.38,25.72,13.68,52.3,20.63,78.42
		c5.29,22.25,11.71,44.23,15.88,66.74c4.03,22.24,10.03,44.06,14.13,66.3c3.55,14.53,3.41,29.69,7.87,44.03
		c3.52,12.85,3.46,26.33,6.72,39.24c1.51,13.61,4.79,26.88,6.38,40.48c3.27,11.59,2.63,23.88,5.67,35.54
		c1.43,7.84,1.23,15.99,3.13,23.78c2.34,9.15,1.76,18.82,4.02,28.01c2.64,10.44,1.74,21.43,4.03,31.97
		c2.43,10.16,1.74,20.79,3.83,31.04c3,10.36,2.28,21.25,2.37,31.94c-5.23-0.04-10.42-0.06-15.59-0.05
		c-2.33-15.46-4.58-30.93-5.89-46.5c-3.12-12.74-2.26-26.02-5.34-38.74c-2.46-25.9-6.25-51.62-10.5-77.27
		c-3.18-11.36-2.56-23.31-5.39-34.72c-1.51-13.6-4.93-26.89-6.38-40.49c-3.75-14.14-6.58-28.51-7.82-43.09
		c-4.7-19.19-8.27-38.62-12.08-57.99c-9.77-42.03-18.1-84.38-29.14-126.1c-2.82-14.39-8.56-27.95-11.59-42.27
		c-3.15-9.49-5.86-19.12-8.24-28.81c-4.46-12.35-6.7-25.33-11-37.72c-6.94-20.64-13.85-41.29-20.65-61.98
		c-2.05-5.85-3.64-11.8-6.6-17.26c-4.96-10.29-6.72-21.84-11.97-32.01c-2.03-4.06-3.36-8.5-4.79-12.73
		c-2.97-8.07-8.1-15.2-10.51-23.48c-2.89-9.84-8.37-18.59-12.72-27.79c-6.76-13.29-13.24-26.71-19.98-40.01
		c-1.78-3.38-4.9-5.73-7.33-8.58c-3.54-3.68-4.79-8.93-8.54-12.43c-7.3-7.38-14.76-14.6-22.04-21.99
		c-6.04-5.7-11.12-12.79-18.95-16.21c-4.19-2.25-7.01-6.25-10.82-9c-8.48-5.33-16.97-10.68-24.96-16.72
		c-6.04-3.97-13.18-5.44-19.75-8.13c-16.23-8.34-34.46-11.18-51.9-15.88c-31.5-4.52-62.75-10.42-94.18-15.28
		c-10.1-2.8-20.8-2.3-30.71-5.78c-15.15-4.42-31.17-6.45-45.32-13.78c-4.26-2.2-9.27-2.76-13.24-5.41
		c-7.48-6.18-17.14-8.89-24.51-15.23c-8.67-3.94-14.46-11.67-21.22-18.04c-3.64-3.3-5.68-7.84-8.31-11.87
		c-9.66-12.04-14.03-27.09-18.91-41.46c-7.36,1.53-13.87,5.5-19.5,10.34c-10.56,5.8-21.47,10.97-32.29,16.27
		c-17.2,5.61-34.13,12.19-51.8,16.21c-12.02,2.83-24.61,1.1-36.6,4.03c-7.22,1.85-15.03,3.04-22.26,0.69
		c-11.55-4.18-24.16-1.81-36.04-4.28c-17.89-3.86-35.06-10.29-52.39-16.05c-12.5-6.45-26.03-11.41-37.11-20.25
		c-6.11-3.53-12.8-6.1-18.4-10.47c-1.77,14.13-7.04,27.69-14.47,39.77c-7.13,7.82-15.06,14.86-22.31,22.58
		c-4.12,4.46-8.74,8.47-14.29,11.07c-9.51,7.47-20.74,12.53-32.24,16.11c-4.93,1.92-9.46,4.89-14.73,5.88
		c-13.27,2.88-25.85,8.15-39.17,10.83c-19.83,3.7-39.38,9.51-59.64,10.24c-6.49-0.71-11.47,3.68-17.11,5.92
		c-6.95,2.21-14.41,1.32-21.46,2.96c-6.58,2.05-12.93,4.76-19.47,6.9c-5.36-3.02-5.81-9.68-6.64-15.09
		c13.68-8.6,30.77-7.16,44.89-14.5c9.43-2.92,19.55-2.32,29.07-5.04c18.59-1.87,36.58-7.11,54.78-11.11
		c17.26-3.63,33.74-9.96,50.49-15.33c7.74-3.19,15.27-7.05,21.81-12.31c8.67-3.94,14.46-11.67,21.21-18.04
		c4.37-3.88,6.21-9.6,9.94-13.97c9.41-11.49,10.26-27.11,12.87-41.1c-11.76-9.77-21.8-21.43-32.85-31.98
		c-5.59-5.82-12.41-10.83-15.72-18.44c-2.02-3.79-5.54-6.44-8.16-9.77c-2.52-2.93-3.58-6.81-6.22-9.64
		c-3.49-3.96-7.82-7.42-9.55-12.63c-2.6-5.66-5.75-10.98-9.71-15.78c-8.13-15.51-15.8-31.27-23.57-46.97
		c-2.39-6.79-4.65-13.61-7.98-20.01c-4.53-12.31-8.43-24.83-12.59-37.27c-4.25-17.39-9.23-34.63-12.86-52.16
		c-0.58-16.16-5.66-31.65-5.4-47.84c-0.28-11.77-4.25-23.14-3.83-34.97c0.09-13.89-0.84-27.91,0.96-41.71
		c4.24-11.92,2.44-24.79,4.23-37.12c1.42-8.65,2.59-17.34,3.71-26.03c6.13-26.96,11.54-54.2,21.16-80.21
		c3.04-13.31,12.02-24.18,15.2-37.45c4.99-10.97,10.27-21.86,16.22-32.34c6.43-7.04,8.82-16.66,14.91-23.92
		c2.48-3.22,3.86-7.18,6.74-10.1c3.45-3.71,7.16-7.31,9.13-12.09c3.5-6.39,10.38-10.01,14.01-16.3c3.8-8.84,12.02-14.34,18.31-21.24
		c6.8-6.31,12.37-14.36,21.19-18.09c7.18-4.7,11.6-12.89,19.89-16.13c6.07-4.52,12.78-8.1,18.7-12.83
		c10.37-5.85,21.32-10.61,31.83-16.2C891.22-521.44,902.65-523.94,913.47-527.84 M970.04-519.96c-11.08,2.72-22.78,1.3-33.82,4.23
		c-10.04,2.24-19.82,5.4-29.52,8.78c-11.61,3.09-21.73,9.73-32.53,14.72c-7.62,3.93-15.77,7.11-22.35,12.75
		c-6.38,3.36-11.64,8.39-18.12,11.58c-6.97,4.66-11.49,12.11-18.35,16.91c-8.73,4.02-15.39,11.33-21.35,18.65
		c-4.61,12-17.89,17.31-22.84,29.05c-2.54,4.39-6.88,7.35-9.59,11.61c-3.26,6.53-8.67,11.67-11.37,18.53
		c-2.72,7.25-8.96,12.26-11.8,19.44c-6.68,14.48-15.32,28.13-19.86,43.53c-9.47,19.13-13.23,40.33-19.61,60.54
		c-2.78,13.99-5.54,28-8.86,41.88c-0.76,16.06-5.9,31.59-5.19,47.76c0.31,25.01-0.16,50.02,0.16,75.03
		c-0.01,9.15,3.87,17.76,3.75,26.96c1.03,24.26,8.5,47.56,14.22,70.99c5.51,16.43,10.77,32.96,16.53,49.3
		c9.07,18.15,18.01,36.36,27.27,54.41c8.74,12.49,17.15,25.22,25.37,38.05c4.07,4.78,8.91,9,11.28,15.03
		c7.19,8.96,16.18,16.34,24.05,24.73c6.48,6.04,11.81,13.72,20.2,17.33c4.63,2.68,7.66,7.38,12.31,10.02
		c5.8,2.82,10.39,7.49,16.17,10.36c11.01,8.69,24.37,13.62,36.73,20.02c12.21,4.34,24.6,8.18,36.84,12.48
		c7.23,1.88,14.92,1.31,22.13,3.52c9.74,2.8,20.1,1.55,30.11,1.96c11.29-0.35,22.91,0.94,33.91-2.28c8.41-2.58,17.48-1.7,25.88-4.42
		c7.73-2.54,15.38-5.29,23.14-7.75c15.18-4.29,28.67-12.69,42.76-19.55c6.36-4.81,13.28-8.79,19.73-13.48
		c5.87-2.44,9.87-7.44,14.69-11.31c3.96-2.38,8.27-4.36,11.44-7.84c8.11-8.22,16.25-16.42,24.46-24.54
		c4.83-4.75,10.16-9.3,12.82-15.73c2.68-4.63,7.38-7.67,10.02-12.32c9.94-16.85,22.95-31.83,30.97-49.8
		c4.15-8.51,8.47-16.93,12.73-25.39c4.33-8.08,5.99-17.24,10.42-25.28c3.28-8.1,5.54-16.57,8.5-24.79
		c5.22-14.49,7.73-29.74,12.21-44.45c3.63-19.34,5.42-38.94,8.85-58.31c1.32-21.62,0.02-43.31,0.52-64.95
		c-0.23-13.83,1.39-28.05-2.79-41.47c-1.61-10.54-1.78-21.31-4.24-31.72c-3.34-15.54-5.54-31.41-11.03-46.41
		c-2.77-10.3-4.92-20.91-9.48-30.63c-4.42-8.39-6.34-17.79-10.82-26.15c-4.55-14.93-12.63-28.39-19.51-42.31
		c-10.16-14.34-19.45-29.28-29.47-43.73c-5.11-11.82-18.42-17.27-23.17-29.34c-5.83-7.17-12.29-14.42-20.84-18.38
		c-5.96-3.72-9.55-10.28-15.74-13.68c-6.19-2.36-9.97-8.01-15.28-11.61c-6.16-2.84-10.73-8.1-17.04-10.66
		c-11.19-5.45-22.17-11.33-33.47-16.54c-13.34-4.62-26.79-9.01-40.57-12.09c-9.99-1.61-20.28-0.89-30.1-3.53
		C991.22-522.85,980.23-523,970.04-519.96 M410.12,239.23c6.6-1.95,15.85-3.07,20.93,2.7c4.19,4.35,8.91,8.27,12.51,13.16
		c0.7,3.33,1.3,6.7,1.81,10.11c-5.28,1.04-10.22,3.16-15.24,5.01c-0.22-4.59-2.37-8.69-6.08-11.25c-5.82-2.52-11.53,1.42-17.02,2.73
		c-3.85-2.8-6.84-6.61-10.44-9.69C401.36,248.01,405.23,243.05,410.12,239.23 M297.58,276.09c4.43-1.92,9.43-2.6,13.42-5.47
		c4.24,1.88,8.85,2.75,13.07,4.69c7.02,4.73,10.32,12.99,13.03,20.66c-3.22,5.36-12.11,9.08-16.7,3.66
		c-3.28-3.2-6.34-6.6-9.32-10.07c-3.37,3.54-6.29,8.58-11.91,8.41c-4.43-3.61-9.57-7.71-10.19-13.82
		C291.25,280.93,294.23,278.17,297.58,276.09 M385.7,269.47c6.94,0.33,13.42,2.64,19.58,5.69c-3.25,4.97-6.03,10.31-7.7,16.03
		c-3.01,11.07-10.19,20.38-13.5,31.34c-5.33-1.3-10.37-3.49-15.57-5.18C368.92,299.63,384.7,287.13,385.7,269.47 M425.84,287.44
		c1.83-2.63,4.21-6.08,8.1-4.86c4,0.92,7.69,2.83,11.58,4.15c-2.67,10.09-6.49,19.84-9.68,29.77c-2.6,6-5.71,11.78-7.75,18.03
		c-5.34-1.3-10.38-3.49-15.58-5.18c0.81-4.19,0.66-8.66,2.72-12.47C420.24,307.65,422.68,297.37,425.84,287.44 M266.01,319.72
		c4.69-5.65,7.68-12.44,12.46-18.01c4.99,3.2,10.4,5.77,14.84,9.78c-2.36,3.32-4.03,7.09-6.5,10.34
		c-6.77,7.99-9.76,18.29-14.96,27.24c-2.01,2.29-3.95,5.7-7.79,4.34c-4.08-0.94-7.84-2.91-11.8-4.21
		C255.19,338.71,261,329.3,266.01,319.72 M313.12,333.01c3.24-6.31,3.85-13.89,9.08-19.08c4.45,3.28,10.13,3.58,15.35,4.82
		c-3.52,15-10.56,28.78-17.71,42.32c-2.01,2.29-3.93,5.73-7.78,4.34c-4.08-0.94-7.84-2.9-11.8-4.21
		C302.8,351.09,308.94,342.45,313.12,333.01 M357.91,329.47c5.34,1.3,10.38,3.47,15.58,5.18c-0.84,4.11-0.66,8.66-2.72,12.47
		c-5.01,9.22-7.45,19.51-10.61,29.44c-1.82,2.64-4.22,6.04-8.1,4.86c-4-0.92-7.7-2.86-11.58-4.15c2.67-10.1,6.48-19.84,9.68-29.77
		C352.76,341.49,355.87,335.71,357.91,329.47 M405.53,346.14c5.31-0.08,10.63-0.12,15.96-0.14c0,18.54-10.47,34.6-13.2,52.61
		c-5.36-1.31-10.44-3.51-15.67-5.23C393.05,376.76,400.51,361.67,405.53,346.14 M548.32,361.13c0.91-1.37,1.84-2.72,2.81-4.03
		c2.85,6.52,5.1,13.25,6.37,20.28c-17.44,2.56-34.78,6.1-52.54,4.69c0.05-3.7,0.16-11.09,0.22-14.79c1.89-1.64,3.69-3.37,5.45-5.15
		c3.56,2.37,7.65,5.31,12.22,3.31C531.32,363.87,539.73,361.98,548.32,361.13 M245.74,361.41c5.39,1.3,10.47,3.51,15.73,5.24
		c-0.45,10.04-5.37,18.92-7.67,28.52c-0.81,6.22-0.82,12.54-0.98,18.83c-6.82,0.01-13.63-0.01-20.45-0.06
		C233.96,395.82,239.52,378.4,245.74,361.41 M436.71,370.68c17.6-2.35,34.14-10.48,52.28-8.86c0.02,6.67,0.02,13.35,0,20.04
		c-15.81,0.17-33.67-1.74-47.18,8.34C440.96,383.46,439.34,376.94,436.71,370.68 M617.62,369.45c7.01,0.61,13.63,2.82,20.18,5.24
		c-1.48,6.36-4.28,12.56-8.74,17.4c-2.56,2.65-3.55,6.24-4.85,9.6c2.92,0.11,5.86,0.24,8.81,0.41c-0.02,5.13-0.03,10.29-0.04,15.46
		c-16.42,0.1-31.89,5.78-47.82,8.89c-0.09-2.91-0.19-5.82-0.3-8.7c-4,2-8.18,3.62-12.38,5.16c1.12,4.44,3.03,8.62,4.27,13.03
		c-6.68,7.06-12.99,15.44-22.42,18.95c-1.28,6.7-7.07,10.58-11.2,15.43c-3.63-4.79-8.75-7.87-14.4-9.76
		c3.4-6.12,6.74-12.4,12.61-16.56c-2.5-2.18-5.09-4.32-6.98-7.05c-0.67-3.34-1.23-6.67-1.69-10c8.04-1.25,14.91-5.77,21.14-10.7
		c6.17-2.22,9.67-8.8,16.22-10.03c6.22,0.66,12.08,2.86,18.12,4.43c3.02-4.76,4.35-10.28,5.57-15.7
		c7.14-2.09,14.58-4.91,19.43-10.85C617.23,380.42,616.42,374.36,617.62,369.45 M288.91,382.74c5.66-4.51,13.14-4.63,20.06-5.22
		c0.06,15.9-0.03,31.8,0.14,47.71c-4.42,2.69-9.23,6.34-14.76,4.5c-2.5-2.31-5.45-4.95-4.97-8.81
		C288.47,408.21,289.06,395.46,288.91,382.74 M417.65,389.59c2.5,0.25,7.51,0.74,10.01,0.98c2.66,2.06,5.46,4.7,5.24,8.47
		c-0.8,8.45-5.35,15.89-7.12,24.12c-0.79,6.21-0.8,12.51-0.96,18.78c-6.76,0.06-13.53,0.14-20.29,0.25
		c2.65,4.43,3.72,10.06,8.01,13.3c2.45,2.07,5.91,2.27,8.84,3.42c-5.51,15.17-3.43,31.77-8.87,47.01c-5,0.01-9.99,0.02-14.98,0.03
		c-1.42-9.33-3.9-18.47-5.04-27.83c2.83-0.06,5.67-0.13,8.52-0.19c-0.01-5.31-0.01-10.61-0.02-15.89c-4-0.04-7.99-0.07-11.98-0.07
		c-0.03-17.33-0.02-34.65,0-51.97c5.31-0.02,10.63-0.02,15.96,0c0.02,5.32,0.05,10.66,0.08,16.01c1.13-0.03,2.27-0.05,3.41-0.06
		C408.55,413.17,413.48,401.41,417.65,389.59 M337.59,393.53c2.52,0.26,7.55,0.78,10.07,1.04c6.24,3.69,6.15,11.91,4.43,18.21
		c-2.61,10.88-3.46,22.03-3.24,33.22c-6.83,0.01-13.65-0.01-20.47-0.06C331.46,428.46,332.53,410.61,337.59,393.53 M161.98,399.84
		c5.18-2.72,10,1.34,14.86,2.63c0.08,5.15,0.14,10.31,0.19,15.48c-5.14,0.03-10.28,0.08-15.41,0.15
		c-0.67,6.82-2.51,13.41-5.04,19.77c-5.25,0.05-10.5,0.1-15.75,0.16c0.6-9.77-1.82-20.54,3.97-29.18
		C147.86,402.27,155.86,401.88,161.98,399.84 M732.16,413.05c6.09-3.65,13.72-9.13,21.04-5.56c15.67,5.72,22.82,24.92,19.24,40.29
		c-2.17,5.53-5.23,10.67-7.91,15.96c-3.76,5.85-10.23,9.44-13.71,15.53c-2.96,8.15-11.69,12.16-14.41,20.45
		c-8.26,18.54-20.55,35.82-23.43,56.31c-1.36,5.64,2.25,10.33,5.49,14.4c3.73-3.01,9.22-4.25,10.72-9.4
		c4.36-7.45,12.85-11.67,16-19.99c3.48-6.39,10.38-10.01,14-16.31c2.93-7.81,10.96-11.95,13.99-19.69
		c4.5-7.74,12.84-12.26,17.68-19.74c4.08-8.96,11.62-16.13,20.47-20.3c5.22-3.77,8.96-9.54,15.36-11.63
		c9.02-5.47,19.61-7.18,28.81-12.22c14.11-7.91,30.18-11.12,45.22-16.75c16.54-3.93,33.78-8.63,50.83-5.82
		c4.04,3.24,8.16,7.17,9.14,12.52c1.36,5.71,4.87,11.35,3.36,17.44c-2.1,5.25-4.94,10.19-7.37,15.31
		c-2.73,4.77-8.88,5.42-12.56,9.18c-4.11,3.88-7.98,8.24-13.6,9.97c-17.32,6.67-35.82,10.46-52.07,19.78
		c-9.64,3.86-17.62,11.53-22.04,20.91c-3.63,5.94-10.11,9.51-13.59,15.57c-2.22,5.58-6.6,9.69-10.84,13.72
		c-5.43,4.79-7.82,11.87-12.42,17.35c-2.69,6.11-7.75,10.5-11.55,15.83c6.21,1.39,9.87-3.41,14.38-6.22
		c7.62-3.22,11.88-11.02,19.56-14.15c4.69-2.56,7.72-7.29,12.34-9.96c7.76-3.01,11.97-10.88,19.58-14.13
		c4.15-2.44,7.69-5.81,12.11-7.84c4.67-2.64,7.67-7.39,12.24-10.16c12.39-6.26,24.91-12.27,37.26-18.6
		c14.36-8.11,30.88-10.92,46.02-17.13c7.81-4.15,16.34-6.57,24.68-9.4c8.05-2.45,15.82-5.79,24-7.8c8.59-1.13,17.28-0.87,25.94-0.99
		c4.94,8.31,10.49,17.01,9.05,27.22c0.58,9.01-5.2,16.85-11.56,22.63c-4.73,5.14-11.56,7.33-17.58,10.5
		c-14.09,6.98-28.12,14.06-42.18,21.07c-8.04,4.24-16.55,7.65-24.22,12.57c-8.3,7.38-19.5,10.06-28.51,16.36
		c-5.46,4.71-13.15,6.71-16.73,13.46c-1.13,1.55-2.18,3.17-3.14,4.85c-1.44-0.18-2.87-0.35-4.28-0.5c0,1.35,0.01,2.72,0.03,4.11
		c1.28-0.07,2.58-0.11,3.88-0.13c0.12-1.17,0.24-2.33,0.37-3.48c1.17-1.53,2.21-3.17,3.14-4.85c12.96,0.79,21.81-11.76,34.58-11.68
		c15.14-1.17,30.65,3.92,42.37,13.51c8.27,3.69,13.83,10.95,20.16,17.09c7.48,7.5,15.03,14.95,22.47,22.51
		c4.19,4.25,8.19,9.05,14.02,11.12c5.45,2.53,10.69,5.48,15.27,9.42c6.23,2.6,12.99,4.16,18.93,7.57
		c6.45,3.71,14.12,5.77,19.38,11.3c3.16,3.18,6.47,6.24,9.46,9.6c4.08,4.39,3.69,11.11,7.28,15.88c-2.33,5.47-3.02,11.45-4.75,17.14
		c-3.24,4.39-7.61,7.78-11.32,11.75c-6.77-0.18-15.61,2.83-15.3,11.08c2.06,2.84,4.92,4.99,7.68,7.13
		c0.23,10.75,1.5,22.07-2.62,32.32c-0.32,7.83-8.19,10.29-14.06,12.99c-4.57,2.73-9.89,0.87-14.62-0.02
		c-11.43-3.23-23.53-3.09-35.19-1.47c-10.18,2.05-20.68,3.7-29.82,8.94c-5.64,2.17-10.57,6.18-13.52,11.47
		c-3.56,9.72-14.23,14.11-18,23.71c-2.55,4.69-7.29,7.71-9.96,12.33c-2.75,6.66-8.36,11.29-13.32,16.23
		c-9.19,9.15-18.37,18.3-27.46,27.55c-3.53,4.06-8.52,6.18-12.86,9.17c-6.32,5.28-14.16,8.19-21.33,12.06
		c-15.03,8.3-32.32,10.24-48.86,13.72c-15.23,3.15-30.63,5.59-45.65,9.67c-10.12,4.56-20.39,9.16-29.17,16.05
		c-8.93,4.07-14.67,12.27-21.68,18.77c-6.54,6.94-14.62,12.78-18.62,21.75c-4.29,5.42-7.28,11.71-11.76,17
		c-5.96,7.87-6.82,18.04-11.57,26.53c-9.29,18.37-18.47,36.79-27.68,55.2c-3.3,6.4-4.42,13.69-7.95,20.01
		c-16.07,31.97-32.02,64-48.05,95.99c-2.72,5.09-3.7,10.87-6.14,16.1c-7.58,16.17-16.27,31.81-23.71,48.04
		c-3.96,15.85-14.76,28.83-18.91,44.6c-4.7,12.28-12.74,23.12-16,36c-4.97,12.72-13.19,24.04-16.54,37.44
		c-10.07,20.97-20.55,41.77-31.17,62.47c-3.61,4.68-6.98,9.48-9.32,14.97c-1.64,5.07-5.42,8.77-9.03,12.45
		c-3.98,3.92-5.3,9.73-9.5,13.5c-13.07,12.93-26.09,25.92-39,39.01c-4.49,4.82-10.93,6.97-15.85,11.27
		c-7.15,4.34-15.08,7.46-21.47,13.02c-25.25,13.03-50.84,25.45-76.21,38.28c-7.2,3.53-15.23,5.02-22.24,9.05
		c-15.59,5.93-31.95,10.91-48.77,11c-14.29,0.01-29.25,1.08-42.54-5.25c-7.5-3.62-15.96-6.34-21.54-12.87
		c-5.77-6.43-12.72-11.79-17.9-18.71c-5.06-10.97-12.24-21.18-14.48-33.23c-4-12.83-2.54-26.61-6.52-39.4
		c-2.41-23.13-0.48-46.52-1.1-69.74c-0.77-10.92,3.64-21.17,3.88-31.95c0.12-17.08,3.9-33.79,5.31-50.75
		c2.74-12.05,2.89-24.52,7.12-36.22c11.83-51.69,22.89-103.57,34.72-155.27c9.24-44.71,20.61-88.94,29.95-133.63
		c18.18-80.75,35.88-161.6,53.98-242.37c1.47-5.8,1.55-12.14,4.88-17.25c-2.34-2.08-4.73-4.14-6.64-6.63
		c-1.06-3.39-2.85-8.64,0.63-11.16c3.14-3.69,8.37-4.29,12.95-3.7c3.66,3.69,4.67,9.16,8.32,12.85c2.44,2.74,5.36,5.11,7.39,8.21
		c2.45,7.17,4.44,14.48,5.88,21.93c-7.23,1.33-13.92,4.79-19.58,9.42c-0.77,11.56-3.14,22.92-6.15,34.09
		c-25.82,116.89-51.97,233.71-77.81,350.61c-3.39,15.79-8.71,31.47-7.98,47.83c-1.72-0.41-3.43-0.79-5.14-1.14
		c0.44,1.63,0.88,3.29,1.34,4.96c1.28-1.29,2.53-2.56,3.8-3.82c24.91-24.18,48.97-49.27,73.9-73.41
		c10.77-4.96,17.91-14.62,26.31-22.59c7.61-7.25,14.51-15.25,22.62-21.96c1.15-13.18,0.15-26.4-4.14-38.94
		c6.79-0.1,13.58-0.13,20.37-0.09c0.16,6.95,0.4,13.91,0.71,20.9c7.8-7.09,16.37-13.99,20.83-23.82
		c6.45-7.73,14.21-14.27,21.12-21.58c6.11-6.55,13.16-12.23,18.72-19.26c6.19-13.39,19.76-20.89,28.32-32.48
		c6.21-13.36,19.98-20.7,28.31-32.47c4.29-9.93,13.67-15.94,20.69-23.74c4.04-3.9,5.36-9.7,9.41-13.57
		c8.55-9.56,19.94-16.94,25.42-28.91c5.15-7.71,16.61-11.87,14.71-23.02c-0.96-7.89,3.36-18.74-4.19-24.27
		c1.73-1.66,3.44-3.33,5.03-5.11c4.97-0.33,9.95-0.6,14.94-0.8c0.15,4.29,0.34,8.61,0.56,12.95c6.21-4.93,12.43-10.41,15.79-17.77
		c2.55-4.71,7.27-7.75,10.01-12.33c2.73-5.96,7.84-10.36,10.34-16.44c4.82-8.6,8.29-17.91,10.67-27.45
		c1.66-15.26,0.54-30.64,0.85-45.94c-5.61-3.24-11.36-6.25-16.42-10.32c-5.65-2.6-10.16-6.83-14.52-11.13
		c-1.21,4.45-1.17,9.46-3.37,13.67c-5.62,10.83-9.46,22.64-10.3,34.87c-3.55-0.03-10.65-0.1-14.2-0.13
		c-1.58-1.88-3.26-3.67-4.99-5.4c3.99-7.3,4.18-15.94,7.13-23.64c1.89-7.88,6.64-14.61,9.24-22.22c2.75-0.55,5.5-1.13,8.24-1.74
		c-0.11,2-0.17,4.04-0.23,6.08c1.31-1.04,2.62-2.04,3.92-3.07c-1.24-1.02-2.48-2-3.69-3.01c-1.99-1.76-3.93-3.61-6.23-4.96
		c-8.31-3.74-13.68-11.34-20.15-17.39c-7.55-7.1-14.18-15.22-22.44-21.52c0.8,12.42,4.72,24.4,4.11,36.96
		c-2.74,0.06-8.22,0.18-10.96,0.24c-1.3,1.56-2.63,3.1-4.05,4.57c-4.89-16.6-4.69-34.04-8.82-50.75
		c-0.57-6.91-0.54-13.83-0.66-20.71c-1.63-1.52-3.2-3.09-4.67-4.75c15.32-0.83,30.67-0.25,46-0.61c10.18-0.26,20.02-3.19,30.05-4.58
		c2.56,4.7,6.48,9.53,4.66,15.3c-2.31,2.5-4.94,5.43-8.81,4.96c-13.26,0.95-26.56,0.12-39.82,0.69
		c8.48,10.32,18.76,18.99,27.84,28.77c4.06,4.92,10.67,6.37,14.96,10.98c1.29,1.21,2.47,2.53,3.81,3.71
		c5.8-3.3,8.82-9.62,12.15-15.09c5.24-6.13,8.6-13.59,11.05-21.21c5.31,1.3,10.33,3.46,15.51,5.16c-0.17,3.58-0.61,7.14-1.3,10.68
		c-5.5,12.4-14.93,22.55-19.83,35.26c5.48,1.73,10.78,3.95,16.11,6.09c7.07-12.52,4.33-27.68,3.72-41.35
		c1.58,0.25,3.17,0.52,4.76,0.81c0.05-7.03-0.2-14.07,0.39-21.04c0.76-2.6,2.85-4.51,4.25-6.76c-7.08-0.21-14.16-0.37-21.24-0.5
		c1.23-8.99,4.76-17.62,4.7-26.78c0.28-8.36,0.1-16.7,0.06-25.03c5.3-0.02,10.62-0.02,15.94,0c0.05,11.99-0.02,24,0.06,36.01
		c1.13-0.03,2.27-0.05,3.42-0.06c0.83-7.15,1.23-14.41,3.91-21.15c4.74-14.45,9.77-28.81,14.44-43.27
		c3.11-10.9,4.82-22.44,10.28-32.52c2.63-5.31,5.67-10.47,7.3-16.21c2.96-10.12,8.71-19.06,13.03-28.6
		c2.06-3.8,3.44-8.07,6.54-11.18c3.72-4.1,8.4-7.42,11.23-12.29c3.11-7.57,9.81-12.51,15.31-18.23
		C709.81,435.44,720.66,423.9,732.16,413.05 M738.97,429.93c-11.42,11.62-23.04,23.04-34.51,34.6c-4.16,4.63-5.98,10.96-10.94,15
		c-4.57,4.29-6.6,10.43-10.75,15.09c-4.85,7.92-8.86,16.36-12.58,24.87c-1.94,7.31-5.2,14.1-8.72,20.74
		c-3.94,6.78-4.57,14.68-6.92,22.04c-4.1,12.7-8.45,25.33-12.68,37.99c-6.79,20.63-10.61,42.07-15.65,63.15
		c-2.15,21.95-7.04,43.68-5.1,65.88c11.08,3.89,21.18,9.98,31.72,15.06c10.75,6.03,22.97,8.47,34.43,12.77
		c22.22,8.11,45.39,13.05,68.45,18.07c10.54,3.14,21.69,2.59,32.43,4.72c18.38,3.71,37.24,1.63,55.85,2.11
		c15.47-0.43,31.41,1.81,46.47-2.76c13.82-1.67,27.79-2.65,41.33-6.23c16.75-4.18,33.75-7.64,50-13.62
		c10.61-3.66,21.55-6.58,31.58-11.72c6.81-2.36,13.64-4.7,19.93-8.31c3.31-2.2,7.52-0.38,9.93,2.37c3.55,2.53,1.45,7.8,0.82,11.29
		c-7.74,9.23-21.19,9.04-31.01,15.13c-21.49,7.08-42.64,15.56-64.9,20.02c-11.07,2.03-21.82,5.68-33.12,6.35
		c-6.48,0.41-12.46,3.48-19.02,3.22c-12.46,0.69-25.39-1.08-37.31,3.38c-14.57,1.61-29.91,2.44-44-2.27
		c-14.59-2.09-29.8,0.99-43.98-3.86c-23.37-2.46-46.47-7.45-68.77-14.83c-6.34-2.13-13.18-2.67-19.18-5.67
		c-9.03-4.8-19.14-6.92-28.66-10.47c-12.44-4.75-23.15-14.53-37.08-14.69c-0.21,14.48,0.81,29.03-0.79,43.48
		c-2.39,9.54-5.86,18.85-10.68,27.45c-2.51,6.08-7.6,10.49-10.34,16.43c-2.74,4.59-7.44,7.64-10.01,12.34
		c-3.09,7.71-11.07,11.88-14.02,19.68c-3.62,6.3-10.52,9.92-14,16.31c-2.47,6.17-7.7,10.37-12.22,14.96
		c-4.25,4-5.56,10.11-9.91,14.05c-8.24,9.16-19.21,16.25-24.52,27.72c-7.05,9.9-18.73,16.04-23.69,27.52
		c-8.33,11.77-22.1,19.11-28.31,32.47c-8.74,11.72-22.41,19.4-28.69,32.99c-10.6,11.75-22.43,22.36-33.39,33.78
		c-3.75,3.79-5.03,9.31-8.93,13.01c-30.9,30.77-61.72,61.62-92.51,92.51c-3.88,4.05-9.68,5.36-13.56,9.42
		c-14.45,14.54-28.96,29.04-43.47,43.53c-5.36,5.52-11.77,10.38-14.82,17.71c-2.33,3.94-6.03,6.79-8.79,10.4
		c-5.12,8.55-11.39,16.38-15.23,25.68c-10.03,17.76-11.59,38.57-16.81,57.93c-2.92,16.58-5.22,33.23-6.57,50.03
		c-5.56,26.51-1.48,53.83-2.99,80.69c-1.41,0.59-2.81,1.22-4.21,1.89c1.36,1.6,3.16,2.95,4.07,4.91
		c1.33,16.45-1.23,33.16,2.15,49.46c1.97,9.07,3.41,18.38,6.62,27.16c0.69,5.03,5.05,8.02,7.29,12.26
		c4.34,8.65,11.86,15.43,20.43,19.77c6.78,5.83,15.12,9.43,23.79,11.48c21.8,5.24,43.94-1.45,64.34-8.96
		c8.45-4.73,18.15-6.4,26.59-11.13c23.86-12.21,48-23.85,71.84-36.09c10.34-7.51,21.29-14.11,31.73-21.48
		c8.47-3.83,13.99-11.52,20.58-17.71c6.31-6.64,13.28-12.65,19.27-19.57c5.41-8.79,11.13-17.39,17.1-25.81
		c3.51-6.16,6.06-12.94,10.86-18.25c5.29-8.39,9.02-17.64,13.66-26.39c6.29-13.39,14.32-26.06,18.33-40.41
		c5.21-11.85,12.53-22.8,15.79-35.45c5.16-12.09,12.71-23.15,16-36c5.16-12.09,12.71-23.15,16.01-36
		c7.77-17.11,17.15-33.45,24.8-50.61c2.5-9.74,7.53-18.45,11.98-27.36c12-24,23.99-48,36-71.99c5.49-11.37,12.11-22.3,15.43-34.59
		c5.11-11.12,10.96-21.88,16.3-32.89c5.46-11.38,12.18-22.27,15.48-34.57c3.97-10.94,11.11-20.1,17.13-29.88
		c4.57-5.97,10.98-10.26,15.47-16.3c2.41-3.82,3.81-8.96,8.35-10.87c11.7-4.45,16.56-17.97,28.4-22.2
		c8.37-4.01,16.55-8.42,24.97-12.34c11.84-4.56,24.51-5.89,36.83-8.58c20.68-4.22,41.69-7.54,61.61-14.73
		c4.06-2.54,7.49-6.04,11.94-8c4.59-2.74,7.64-7.44,12.34-10c7.83-3.42,12.91-10.51,18.94-16.22c5.64-5.91,12.6-10.93,15.82-18.73
		c2.83-4.87,7.54-8.16,11.2-12.34c3.31-3.53,4.53-8.5,8.05-11.87c3.79-3.76,7.22-7.88,9.4-12.81c5.32-6.81,11.85-12.63,18.07-18.61
		c9.46-5.8,19.85-10.2,30.58-13.09c20.04-1.41,40.18-0.14,60.27-0.62c1.11-4.81,1.79-9.77,4.09-14.16
		c-3.47-4.41-5.31-9.91-9.37-13.85c-9.65-11.25-24.9-15.48-38.82-18.43c-14.95-2.55-30.24-1.68-45.32-1.38
		c-9.16-0.1-16.85,5.42-23.67,10.9c-18.68,10.03-39.16,22.02-61.21,15.77c-5.79-4.1-10.36-10.01-12.37-16.85
		c2.45-10.52,3.82-21.76,10.41-30.67c2.48-3.14,4.87-6.37,6.66-9.96c2.74-4.6,7.45-7.64,10.02-12.34c2.5-5.56,6.67-10.1,11.25-14.01
		c3.53-3.25,8.59-4.21,11.9-7.75c2.19-6.48,4.05-13.07,6.45-19.49c9.36,8.69,23.59,10.02,32.16,19.74
		c3.6,3.75,7.43,7.28,10.98,11.09c3.91,3.97,5.16,9.81,9.32,13.62c2.99,3.46,7.31,5.23,11.59,6.59
		c17.04,4.31,34.79,7.11,50.49,15.45c12.47,5.95,28.67,9.58,40.7,0.91c-0.42-3.54-1.26-10.63-1.69-14.18
		c-3.92-5.02-10.49-6.54-15.08-10.78c-7.97-5.28-16.95-8.79-25.37-13.28c-9.11-4.87-19.1-8.39-27.17-14.99
		c-3.63-2.5-7.86-4.06-10.94-7.28c-4.72-4.25-5.95-11.01-10.83-15.14c-6.52-6.03-12.21-13-19.21-18.48
		c-7.31-3.39-12.72-9.98-20.55-12.36c-8.19-1.15-16.52-1.1-24.71-0.23c-7.07,1.86-13.19,6.05-18.84,10.55
		c-6.04,3.04-10.9,7.86-16.97,10.84c-4.59,2.74-7.63,7.45-12.33,10.02c-4.78,1.99-8.36,5.72-12.08,9.16
		c-2.92,2.91-7.05,4.03-10.2,6.63c-4.47,3.44-7.66,8.26-12.14,11.69c-2.42,0.27-7.25,0.82-9.67,1.09
		c-1.48-3.99-2.95-7.96-5.11-11.62c3.17-5.45,5.06-11.83,9.71-16.28c4.65-4.6,9.9-8.9,12.36-15.2c3.6-6.31,10.51-9.91,14-16.3
		c2.53-6.1,7.55-10.48,12.16-14.98c7.74-7.02,13.93-16.07,23.68-20.56c5.88-4.88,12.91-7.96,19.57-11.6
		c3.82-2.59,7.16-5.9,11.55-7.61c28.32-14.26,56.84-28.13,85.02-42.68c0.11-6.69,0.16-13.38,0.16-20.06
		c-15.66,3.35-30.98,8.54-45.47,15.36c-15.53,5.41-31.3,10.13-46.77,15.71c-12.82,6.38-25.71,12.65-38.41,19.27
		c-8.32,5.94-16.85,11.6-25.54,16.98c-3.81,2.75-6.64,6.74-10.82,9c-7.71,3.1-11.9,11.04-19.66,14.04
		c-4.16,2.43-7.06,6.43-10.97,9.19c-13.72,7.81-25.6,18.77-40.58,24.3c-7.77,3.44-13.56-3.71-15.76-10.06
		c-3.75-6.41,0.69-13.77,2.41-20.12c0.77-5.02,5.03-8.06,7.37-12.24c2.84-5.53,7.34-9.98,10.01-15.62
		c2.74-4.59,7.47-7.62,10.02-12.33c3.46-8.14,11.04-13.11,16.75-19.48c3.75-3.8,5.02-9.32,8.93-13.01
		c5.02-4.94,9.79-10.15,15.07-14.82c4.92-3.3,10.54-5.44,15.74-8.24c15.96-8.56,34.51-10.64,50.53-19.01
		c6.43-4.36,10.86-11.01,17.07-15.67c0-3.8,0.01-11.4,0.01-15.2c-13.37,6.57-28.84,4.18-42.69,9.28
		c-13.36,4.26-27.16,7.74-39.44,14.72c-6.49,3.87-14.18,4.77-20.79,8.31c-4.37,1.6-7.53,5.05-11.39,7.45
		c-8.87,4.1-14.61,12.24-21.57,18.73c-6.17,6.69-14.14,12.09-17.82,20.73c-3.63,6.29-10.51,9.91-14.01,16.3
		c-2.4,6.48-8.6,10.2-11.97,16.01c-4.85,11.43-17.87,16.57-22.33,28.27c-6.24,11.52-21.01,13.65-32.85,12.41
		c-3.51-4.9-8.6-8.41-12.14-13.27c-1.48-5.75-5.42-11.5-3.23-17.65c1.49-6.91,2.43-13.97,4.63-20.67c3.81-8.1,8.12-15.95,12.02-24
		c5.35-10.06,9.32-20.99,16.56-29.91c4.11-10.29,15.18-15.22,19.41-25.41c3.77-4.92,6.9-10.25,9.96-15.63
		c-2.23-4.29-4.27-8.74-5.19-13.52C747.57,426.66,742.14,426.05,738.97,429.93 M945.57,683.14c-1.35,6.89-6.88,11.26-11.63,15.82
		c-7.78,6.6-8.04,18.6-16.69,24.5c-0.06,3.76-0.17,11.29-0.23,15.06c11.93-2.23,23.67-5.95,34.27-11.95
		c6.79-2.88,11.52-8.91,18.48-11.54c9.81-6.27,23.26-2.61,32.01-10.68c-5.81-5.24-11.32-10.79-16.84-16.32
		c-4.14-3.98-5.93-9.58-8.9-14.36C966.11,677.57,955.41,678.98,945.57,683.14 M640.53,423.06c5-3.04,10.58-5.21,14.89-9.26
		c1.78,5.73,4.69,10.97,7.37,16.32c4.63,7.79-0.42,16.84-6.14,22.52c-4.79,4.68-11.25,7.23-17.49,9.3c-3.84-2.98-6.93-6.8-10.6-9.97
		c5.25-4.83,10.72-9.51,15.2-15.08C646.08,431.93,641.81,427.54,640.53,423.06 M180.4,421.99c5.33,0.02,10.67,0.06,16.01,0.13
		c6.15,16.6,4.72,34.47,4.57,51.88c-5.29-0.01-10.58-0.01-15.86,0c-0.17-10.84,0.66-21.88-1.88-32.5
		C181.6,435.1,180.99,428.52,180.4,421.99 M468.58,426.69c15.83-2.22,31.49-5.92,47.62-4.95c1.69,2.93,3.78,5.7,4.29,9.19
		c-0.93,3.73-2.73,7.15-4,10.78c-6.25,0.23-12.48,0.51-18.71,0.85c-8.43,8.22-13.77,19.35-13.3,31.4c-6.74,0.02-13.48,0-20.21-0.04
		c1.73-8.7,2.53-18.62,8.25-25.83C468.17,441.9,469.3,433.8,468.58,426.69 M232.5,430.06c6.8-0.07,13.61-0.09,20.41-0.06
		c-0.49,15.43-0.07,31,4.1,45.96c-3.77,7.25-13.14,5.47-19.91,6.47C238.05,464.78,235.99,447.31,232.5,430.06 M292.74,446.44
		c4.66-2.21,9.41-5.87,14.92-4.18c2.45,2.33,5.48,4.91,4.74,8.83c0.34,14.73,1.91,29.35,5.83,43.6c-5.45-0.48-10.89-0.96-16.33-1.44
		c-1.3-1.44-2.66-2.82-4.06-4.14c-0.92-7.88-0.13-16.06-2.57-23.67C293.2,459.31,293.25,452.78,292.74,446.44 M141.02,453.99
		c5.17-0.01,10.34,0,15.51,0.04c1.46,17.34,5.87,34.38,4.58,51.93c-3.84,0.06-11.52,0.17-15.36,0.23c-1.71-2.96-3.82-5.8-4.34-9.28
		C140.38,482.62,141.08,468.29,141.02,453.99 M325.5,462.05c5.21-0.05,10.43-0.07,15.65-0.06c-0.12,8.59,0.19,17.24-0.96,25.8
		c-2.66,9.42-5.76,19.25-12.69,26.48c-4.94-3.18-10.28-5.71-14.68-9.66c2.15-3.11,3.79-6.53,5.41-9.92
		C322.13,484.23,324.07,473.09,325.5,462.05 M606.87,473.88c3.51-3.26,6.61-7.75,11.94-7.87c3.84,3,6.94,6.83,10.62,10.03
		c-5.2,4.4-10.61,9.05-13.06,15.65c-4.04,7.1-7.09,14.66-8.07,22.84c-6.86-0.39-13.27-2.56-19.36-5.58
		C594.53,497.21,597.02,483.15,606.87,473.88 M521.63,477.46c6.87,0.37,13.32,2.56,19.43,5.59c-5.78,11.02-7.23,23.81-13.37,34.71
		c-2.56,5.08-5.35,12.81-12.51,12.18c-3.73-2.83-6.69-6.52-10.18-9.62C513.16,507.22,519.11,492.72,521.63,477.46 M188.64,490.68
		c6.57-1.65,13.02-3.76,19.67-5.09c0.83,10.33,4.85,19.89,8.04,29.63c2.06,7.61,6.33,14.32,9.32,21.57
		c4.21,0.55,7.89,2.81,10.42,6.15c1.42,5.56-2.34,10.35-3.73,15.49c-2.47-0.3-7.4-0.91-9.87-1.22c-4.22-3.23-7.94-7.17-11.14-11.4
		c-2.75-4.87-5.08-9.96-7.6-14.94C196.72,518.29,194,503.96,188.64,490.68 M468.56,490.07c6.64-0.07,13.28-0.09,19.92-0.05
		c0.61,6.51,0.32,13.24,2.3,19.59c2.67,7.74,7.87,14.34,10.18,22.22c-3.02,3.84-6.84,6.97-10.05,10.65
		C476.56,528.89,472.09,508.75,468.56,490.07 M240.92,498.64c5.26-0.55,11.2-0.25,14.63-4.94c7.84,15.84,5.28,33.94,5.35,51.05
		c-1.9,1.57-3.71,3.25-5.47,4.98c-4.47-2.86-9.91-3.31-14.96-4.49c1.25-6.09,5.4-12.02,3.08-18.41
		C240.69,517.69,240.88,508.08,240.92,498.64 M148.63,522.77c5.21-1.06,10.01-3.44,15.16-4.65c6.03,5.23,4.52,14.08,7.57,20.87
		c4.09,8.39,6.66,17.37,9.93,26.09c-5.38,1.18-10.41,3.42-15.49,5.47c-0.79-1.59-1.59-3.16-2.34-4.74
		C158.76,551.36,150.74,538.04,148.63,522.77 M588.57,530.13c6.71-0.11,13.42-0.15,20.13-0.15c0.57,8.32-0.65,17.12,2.2,25.16
		c2.47,7.31,1.96,15.16,2.26,22.8c-2.73,0.06-8.2,0.18-10.94,0.24c-1.3,1.55-2.63,3.1-4.04,4.56c-3.2-12.36-5.45-24.93-5.69-37.72
		C592.66,539.71,590.15,535.01,588.57,530.13 M172.63,587.35c4.89-3.45,10.61-5.63,15.04-9.73c6.25,9.52,11.26,19.94,14.54,30.87
		c2.27,5.56,5.2,10.85,7.23,16.53c-5.37,1.18-10.38,3.42-15.46,5.44C184.84,617.07,183.67,599.61,172.63,587.35 M204.59,642.82
		c5.32-1.08,10.3-3.2,15.37-5.05c1.59,10.81,9.74,18.49,14.89,27.58c3.95,4.64,6.21,10.43,10.31,14.96
		c-6.19,0.84-10.48,5.35-13.92,10.11c-4.01-4-8.43-7.9-10.38-13.4c-2.25-4.28-4.02-8.9-7.31-12.5
		C208.29,658.47,205.56,650.67,204.59,642.82 M240.56,698.96c5.36-1.17,10.36-3.41,15.43-5.41c2.99,4.82,4.75,10.5,8.97,14.47
		c4.57,4.53,9.71,8.79,12.26,14.92c1.86,3.57,5.17,6.02,7.62,9.14c-2.41,3.1-5.29,5.85-8.4,8.26c-1.88,0.97-4.79,2.59-6.5,0.72
		c-5.06-4.71-10.25-9.6-13.13-16.02c-2.54-4.75-7.36-7.7-10.17-12.25C244.26,708.34,242.18,703.73,240.56,698.96 M537.14,777.9
		c4.95,2.48,10.37,3.56,15.77,4.7c0.13,15.79,0.11,31.59,0.08,47.39c-6.76,0.01-13.51,0.01-20.25,0c0.5-8.37-0.67-17.1,2.14-25.13
		C537.83,796.18,536.83,786.88,537.14,777.9 M313.92,806.67c4.87-0.32,9.74-0.58,14.62-0.77c0.94,13.45,3.9,26.66,4.71,40.15
		c-0.06,2.68,2.25,4.34,3.82,6.2c-1.72,1.64-3.42,3.3-4.99,5.08c-4.88,0.28-9.75,0.53-14.62,0.77c-0.95-13.46-3.9-26.67-4.71-40.15
		c0.06-2.7-2.26-4.36-3.82-6.2C310.65,810.1,312.34,808.43,313.92,806.67 M320.89,873.97c5.17,0.02,10.34,0.07,15.52,0.16
		c5.55,15.02,5.05,31.14,4.45,46.95c-5.24,1.31-10.18,3.51-15.24,5.35C324.01,908.92,319.6,891.68,320.89,873.97 M324.26,942.96
		c4.73-2.54,9.62-6.55,15.39-4.69c2.5,2.32,5.44,4.9,4.97,8.81c0.97,14.27,0.3,28.6,0.36,42.92c-5.29-0.02-10.58-0.02-15.86,0
		C329.88,974.1,328.26,958.33,324.26,942.96 M329.02,1006.01c6.65-0.05,13.31-0.05,19.97,0c0.02,17.31,0.02,34.62,0,51.95
		c-3.81,0.06-11.43,0.17-15.24,0.23c-1.71-2.95-3.82-5.81-4.34-9.28C328.38,1034.62,329.08,1020.29,329.02,1006.01L329.02,1006.01z"
		/>
</g>
</svg>
