<?xml version="1.0" encoding="iso-8859-1"?>
<!-- Generator: Adobe Illustrator 28.5.0, SVG Export Plug-In . SVG Version: 9.03 Build 54727)  -->
<svg version="1.1" id="Layer_1" xmlns="http://www.w3.org/2000/svg" xmlns:xlink="http://www.w3.org/1999/xlink" x="0px" y="0px"
	 viewBox="0 0 1920 1080" style="enable-background:new 0 0 1920 1080;" xml:space="preserve">
<g>
	<path style="fill:#FFFFFF;" d="M136-675h1648v2430H136V-675 M512.02-616.9c-19.03,3.72-36.98,11.16-55.1,17.82
		c-28.37,11.1-54.23,27.53-79.2,44.78c-25.84,19.16-49.15,41.62-69.61,66.42c-13.47,15.64-24.22,33.32-35.49,50.54
		c-8.12,12.35-13.29,26.25-19.17,39.73c-8.73,20.26-13.44,41.92-18.88,63.22c-12.51,63.98-12.49,130.16-2.76,194.53
		C239.96-95.5,254.1-52.37,272-11.02c9.6,22.8,20.72,44.9,30.41,67.66c5.35,10.35,10.12,20.99,14.02,31.98
		c13.61,30.53,20.67,63.54,25.06,96.55c0.75,9.91,0.72,19.89,0.3,29.82c-0.35,18.34-5.44,36.1-10.14,53.69
		c-3.54,12.95-10.56,24.51-14.74,37.22c-14.22,36.57-31.5,71.84-47.37,107.7C244.5,469.56,222.28,526.92,206,586.07
		c-18.44,64.06-30.63,129.8-39.03,195.89c-9.88,83.6-12.48,167.91-11.97,252.04c-0.57,83.38,2.49,166.71,6.07,250.01
		c3.69,73.48,7.84,146.95,13.62,220.31c2.12,22.97,2.74,46.16,6.13,68.98c2.12,7.94,15.01,6.7,15.84-1.39
		c-1.26-23.05-3.95-46.01-5.41-69.05c-11.5-160.69-20.4-321.71-19.25-482.86c-0.54-48.37,1.38-96.72,4.02-145
		c7.75-133.07,32.64-265.92,81.79-390.14c20.74-53.67,46.49-105.2,68.88-158.16c2.89-6.84,5.21-13.92,8.65-20.5
		c7.04-12.87,11.97-26.8,15.94-40.88c3.37-12.81,6.89-25.65,8.3-38.85c3.32-41.26-5.09-82.42-17.54-121.56
		c-5.57-13.53-10.42-27.35-16.16-40.82c-18.1-40.45-38.62-79.97-53.02-121.97c-8.37-21.63-14.3-44.09-19.56-66.65
		c-5.01-20.19-7.47-40.92-8.99-61.64c-4-60.19-0.03-121.44,17.01-179.52c5.92-22.58,15.99-43.89,28.08-63.79
		c10.81-20.38,25.7-38.18,39.97-56.17c35.4-39.39,78.56-72.24,127.13-93.66c15.93-6.42,31.74-13.33,48.41-17.66
		c35.92-9.21,73.18-13.82,110.27-12.03c29.67,1.96,59.24,6.83,87.8,15.18c14.84,5.13,29.52,10.75,43.92,17.01
		c22.1,11.48,44.53,23,63.53,39.34c32.11,26.78,61.45,57.95,80.61,95.45c7.75,13.55,13.15,28.23,18.09,42.98
		c9.85,27.87,15.5,57.41,14.96,87.04c0.03,33.94-4.24,67.73-9.93,101.14c-5.22,25.45-10.3,50.98-13.31,76.8
		c-3.83,36.79,8.48,72.48,22.25,106.01c2.17,5.65,5.25,11.05,6.58,17c-1.93,3.22-5.3,5.23-7.89,7.86
		C908.75,8,898.13,21.9,890.22,37.12c-7.83,15.24-9.57,32.48-12.77,49.06c-4,27.84-3.46,56.27-9.54,83.83
		c-2.76,12.64-9.57,25.12-20.92,31.94c-9.65,5.59-20.39,9.6-31.56,10.52c-21.37,1.85-42.98,0.17-63.76-5.11
		c-27.11-6.52-49.99-23.53-71.32-40.74c-8.1-6.55-13.6-15.91-22.3-21.72c-4.92-2.92-9.83,2.31-11.77,6.45
		c-0.87,4.34,2.01,7.79,4.55,10.83c20.32,21.71,43.86,40.86,71.11,53.2c-1.34,0.35-4.02,1.06-5.36,1.42
		c-1.27,8.11,0.5,16.27,2.62,24.08c1.47,9.82,7.39,18.41,7.8,28.43c2.41,9.83,6.9,19.04,9.55,28.81c0.79,4.99,0.49,10.19,2.4,14.97
		c1.89,4.85,1.5,10.31,3.86,15c2.49,5.5,5.11,10.94,7.38,16.55c-0.57-0.07-1.72-0.21-2.29-0.28c5.98,9.83,10.18,20.61,15.27,30.9
		c3,4.99,5.95,10.07,7.42,15.76c2.82,5.65,5.42,11.42,8.23,17.08c4.9,8.61,5.14,18.85,8.93,27.89c3.33,11.01,9.14,21.19,11.1,32.62
		c2.13,13.2,9.84,24.43,13.75,37.07c2.73,6.61,3.16,13.92,6.41,20.36c2.34,4.37,1.95,9.48,3.7,14.04
		c2.29,6.37,3.81,12.96,5.49,19.52c1.85,5.08,4.41,9.9,6,15.1c-0.5-0.14-1.5-0.44-1.99-0.58c5.09,7.99,6.16,17.51,9.39,26.24
		c0.66,8.38,5.97,15.36,7.52,23.55c2.31,10.04,5.68,19.79,8.16,29.78c1.27,10.2,5.79,19.54,8.29,29.42
		c1.47,8.54,1.64,17.35,4.55,25.62c1.76,6.98,5.88,12.99,8.54,19.62c2.68,6.12,2.96,13,5.91,19.05c2.6,5.15,3.04,10.98,4.51,16.5
		c1.71,7.43,4.3,14.61,6.08,22.03c2.21,8.12,3.11,16.8,7.65,24.1c4.83,7.82,2.7,17.45,5.44,25.89c2.43,8.31,4.13,16.81,6.37,25.18
		c2.78,9.74,1.58,19.96,3.67,29.82c4.56,14.61,4.05,30.2,7.91,45.01c4.81,17.39,7,35.34,9.13,53.24
		c0.59,14.17,3.34,28.15,3.57,42.35c3.06,19.39,7.97,38.83,6.56,58.62c-0.5,7.21,2.78,14.48,1.37,21.62
		c-12.45,9.81-22.03,22.79-34.92,32.12c-8.99,5.85-13.89,15.7-20.02,24.13c-2.88,3.29-7.29,4.64-10.67,7.32
		c-5.93,3.56-10.29,9.09-14.34,14.58c-4.05,5.54-11.15,7.44-17.04,10.27c-2.85-4.65-4.69-9.76-4.25-15.3
		c0.56-9.76-6.97-17.68-6.62-27.42c-0.81-10.76-5.73-20.56-7.67-31.07c-1.04-4.79-4.56-8.79-4.7-13.76
		c0.41-8.04-2.42-15.67-3.07-23.59c-1.07-12.15-5.04-23.75-6.31-35.86c-3.44-11.98-3.9-24.52-5.81-36.75
		c-5.19-13.49-2.66-28.35-6.68-42.13c-2.81-8.33-1.74-17.2-3.24-25.72c-2.05-10.51-0.77-21.29-1.21-31.88
		c-0.3-3.45-2.23-6.54-2.38-10.01c0.03-17.03-1.3-34.02-2.7-51c-0.47-4.98,0.04-10.18-1.99-14.87c-1.38-3.94-3.7-7.87-3.2-12.17
		c1.92-8.23,0.53-16.68,1.42-25c0.17-7.57-0.65-15.15-1.42-22.65c-2.2-13.58-1.43-27.69-6.55-40.68
		c-5.93-13.71-2.58-29.01-3.01-43.41c-0.6-3.91-3.21-7.19-3.87-11.08c0.45-12.69,0.88-26.15-4.49-37.95
		c-2.15-4.16-0.52-8.86-1.48-13.24c-1.15-6.48-3.47-12.83-3.1-19.49c0.42-4.6-2.08-8.61-3.56-12.75c-1.54-5.27-1.19-10.9-2.74-16.15
		c-1.78-5.84-4.72-11.28-6.1-17.23c-1.6-9.09-6.18-17.27-7.98-26.3c-3.15-12.38-9.85-23.4-14.1-35.37
		c-2.7-9.88-11.2-16.41-16.53-24.75c-8.04-12.77-15.4-26.19-26.01-37.07c-3.84-3.89-5.9-9.39-10.47-12.53
		c-14.28-8.23-29.95-13.64-44.45-21.42c-14.94-4.26-29.91-8.87-45.53-9.89c-7.95-2.11-16.39-0.53-23.8,2.59
		c-3.45,3.28-1.77,8.17,0.32,11.69c10.34-3.37,20.41,1.51,30.6,2.72c15.78,2.25,30.24,9.41,44.92,15.19
		c4.9,2.36,10.48,1.37,15.71,1.84c1.27,7.21,10.27,7.2,14.45,11.95c4.72,6.55,9.92,12.71,15.58,18.49
		c5.76,6.9,9.95,14.92,14.51,22.64c7.69,9.88,14.25,20.69,19.54,32.04c3.34,12.65,10.83,23.53,17.32,34.72
		c1.85,2.96,1.97,6.41,2.88,9.76c1.48,7.75,4.88,14.98,6.62,22.69c2.71,18.61,11.64,35.95,12.31,54.96c0.07,7.53,1.08,15,4.22,21.94
		c6.04,16.64,2.66,34.74,6.29,51.86c2.07,8.82,1.5,18.06,3.86,26.85c1.74,7.32,2.29,14.86,2.11,22.38
		c-0.92,7.94,2.45,15.37,3.21,23.16c0.67,13.79,0.56,27.62,0.73,41.43c0.05,4.12,1.56,8.05,2.63,12.02
		c2.71,6.74,1.07,13.99,1.66,21.03c0.73,7.5,1.99,14.98,2.64,22.52c0.23,6.98-0.03,14.1,2.07,20.87c1.96,6.86-0.31,13.94-0.12,20.93
		c-0.2,8.51,1.63,16.88,2.12,25.36c0.93,13.13,4.43,26.03,4.04,39.27c-0.03,5.7,2.63,10.97,3.51,16.52
		c-0.1,9.55,1.13,19.15,4.02,28.29c2.21,7.09,1.2,14.67,2.86,21.9c2.18,10.33,6.28,20.37,6.66,31.03
		c0.31,6.83,3.65,13.13,3.86,19.99c-0.52,8.84,3.68,16.89,4.12,25.62c0.28,8.34,4.08,15.91,5.81,23.97
		c4.1,14.54,6.1,29.57,10.05,44.15c1.26,4.97,2.18,10.82-1.06,15.24c-7,8.86-16.51,15.66-22.78,25.1
		c-2.42,5.71-7.66,9.23-12.51,12.71c-7.34,6.97-13.41,15.16-20.84,22.06c-4.83,4.43-7.3,10.66-10.87,16.05
		c-3.47,6.29-9.16,10.84-13.73,16.29c-5.68,6.43-9.76,14.11-15.63,20.4c-6.41,6.2-8.89,14.98-14.35,21.88
		c-8.79,10.79-15.67,22.97-23.49,34.46c-3.89,4.69-8.81,8.54-12.21,13.66c-2.03,3.04-0.33,7.82,3.3,8.68
		c6.25,0.32,11.05-4.17,14.89-8.46c9.15-12.23,17.68-24.94,26.39-37.48c5.38-9.98,12.2-19.22,16.44-29.78
		c2.25-6.02,8.77-8.58,12.96-13.02c4.92-3.86,8.25-9.19,12-14.08c6.72-7.65,10.24-17.49,16.39-25.54c3.42-2.96,7.31-5.29,10.98-7.91
		c5.69-3.78,9.84-9.36,14.28-14.44c0.19-2.55-0.58-5.39,0.75-7.69c4.08-3.35,10.04-3.34,14.04-6.85
		c8.66-6.71,13.52-17.07,22.29-23.66c9.58-7.42,16.35-17.71,25.53-25.57c8.24-10.17,20.15-16.53,27.75-27.26
		c4.87-5.87,10.55-11.01,16.9-15.19c9.9-9.73,19.22-20.13,30.27-28.62c11.32-8.3,16.93-21.65,26.17-31.85
		c4.68-4.52,5.74-12.08,11.76-15.19c4.79-3,9.55-6.44,12.58-11.33c2.51-3.91,3.45-8.83,7.1-11.95c7.72-6.24,15.46-12.98,20.57-21.59
		c8.03-14.24,21.16-24.86,28.35-39.66c4.4-8,11.33-14.28,15.57-22.4c2.93-5.78,7.82-10.14,12.46-14.5
		c6.32-6.13,10.54-13.99,16.68-20.28c6.48-6.6,12.06-13.99,17.57-21.4c7.55-10.37,16.62-19.52,23.99-30.03
		c3.84-5.75,9.56-9.82,13.85-15.19c6.2-7.96,12.62-15.88,17.37-24.82c2.95-5.33,8.46-9.22,9.65-15.45
		c0.95-6.01,6.45-9.25,10.24-13.43c4.14-4.5,9.24-8.11,12.77-13.15c4.98-7.61,7.78-16.48,13.65-23.53
		c4.86-5.81,10.52-11.24,13.45-18.38c2.62-7.19,9.57-11.12,14.12-16.9c4.56-6.11,10.46-10.98,16.32-15.79
		c8.54-7.24,19.92-9.13,30.57-11.27c12.83,0.01,25.58-1.02,38.32-2.52c17.95,1.07,35.99,4.37,53.99,2.21
		c6.47,0.16,12.85-2.54,19.34-1.59c8.96,1.03,17.96,2.85,27.04,1.89c9.17-0.69,18.3,1.07,27.48,1.1c15.9,1.02,32.29-0.85,47.71,4.17
		c2.49,0.92,5.31,1.83,6.91,4.14c2.09,6.64,1.19,14.47-3.1,20.08c-8.67,11.83-17.87,23.3-25.01,36.15
		c-6.92,6.64-12.84,15.14-21.94,18.92c-12.57,4.84-23.67-4-34.72-8.36c-9.42-3.98-18.46-9.5-28.75-10.77
		c-11.4-2.17-22.64-5.21-33.49-9.33c-3.63-1.62-6.26-4.89-9.83-6.54c-3.74,0.17-6.69,3.07-9.93,4.57c1.63,2.63,3.36,5.35,6.02,7.09
		c8.81,5.88,18.82,10.95,29.69,10.88c7.08,0.31,13.26,3.97,19.62,6.72c4.87,2.15,10.33,2.12,15.32,3.99
		c4.77,2.84,9.53,5.82,14.66,8.02c10.43,5.14,23,5.16,32.17,12.87c7.51,5.63,16.56,12.81,13.98,23.53
		c-6.93,22.74-28.47,35.68-44.47,51.67c-2.02,2.18-4.98,0.64-6.98-0.7c-5.78-4.14-11.88-7.64-18.13-10.94
		c-17.99-12.04-34.23-26.58-52.16-38.69c-4.19-0.78-10.41,0.9-11.53,5.6c-0.67,5.19,5.31,7.49,8.61,10.28
		c4.38,3.52,10.57,4.17,14.15,8.8c8.22,8.21,17.94,14.71,27.05,21.91c10.46,6.85,21.56,14.06,27.74,25.33
		c0.26,8.01,0.03,16.86-4.35,23.91c-4.81,5.49-9.83,10.83-14.42,16.53c-7.05,6.05-15.93,9.71-22.42,16.52
		c-7.84,8.79-19,13.44-27.28,21.74c-7.4,6.85-15.91,13.44-26.26,14.65c-0.67-2.7-1.41-5.58-1.9-8.25
		c9.06-5.98,15.01-15.52,24.47-21.02c8.41-4.57,17.14-8.86,26.59-10.83c1.43-3.85,2.59-7.83,3.58-11.8
		c-9.25-4.47-20.66-2.72-29.28,2.42c-7.7,5.15-16.49,9.31-21.91,17.14c-4.08,6.28-12.03,7.7-17.22,12.74
		c-10.89,8.46-17.11,21.62-28.95,29.02c-8.46,5.23-16.57,11.03-25.27,15.89c-10.13,7.16-22.47,9.82-33.97,13.91
		c-13.08,2.99-25.06,9.56-38.38,11.61c-7.5,1.09-7.65,10.09-10.72,15.4c-7.19,14.06-14.04,28.51-24.05,40.85
		c-4.11,4.35-5.27,10.31-7.29,15.76c-4.79,15.67-16.69,28.16-19.6,44.6c-5.87,13.75-14.31,26.41-18.73,40.83
		c-2.54,8.74-5.6,17.4-9.69,25.56c-4.94,8.41-10.32,16.58-14.74,25.29c-4.43,8.67-5.48,18.8-10.82,27.06
		c-6.32,9.12-10.44,19.46-16.12,28.94c-5.89,9.07-9.54,19.36-15.62,28.33c-9.78,15.49-14.99,33.17-22.32,49.83
		c-7.06,12.88-14.69,25.46-21.07,38.71c-5.18,11.06-13.03,20.54-18.93,31.18c-5.98,13.45-15.99,24.53-22.15,37.9
		c-4.71,10.4-14.61,17.02-19.71,27.16c-3.73,7.58-10.07,13.24-15.58,19.49c-6.57,6.81-12.29,14.37-18.47,21.53
		c-4.82,5.1-11.46,7.83-17.01,12c-6.77,4.96-13.84,9.48-20.79,14.18c-13.43,10.67-28.54,18.88-42.89,28.2
		c-3.08,2.15-5.11,5.5-8.29,7.54c-3.5,2.26-7.34,3.94-10.96,6.01c-14.72,7.57-28.56,16.89-43.91,23.21
		c-11.98,3.86-23.88,7.97-35.53,12.75c-8.69,4.55-18.42,6.64-26.91,11.64c-12.37,4.2-25.42,6-38.28,7.96
		c-6.09,1.12-11.99-1.6-16.5-5.45c-9.6-9.42-15.84-21.46-23.91-32.07c-4.75-6.2-7.73-13.49-12.25-19.82
		c-5.21-7.03-8.32-15.35-13.66-22.29c-11.86-15.81-16.89-35.62-29.54-50.89c-1.56-4.2-0.71-9.23-3.75-12.78
		c-6.07-8.39-10.39-17.9-13.59-27.7c-2.3-7.22-7.8-13.24-8.28-21.02c-1.8-9.46-6.95-17.86-9.59-27.07
		c-2.72-6.24-3.7-13.07-6.32-19.32c-6.78-14.66-9.65-30.66-14.16-46.06c-2.13-5.44-3.18-11.21-4.34-16.88
		c-3.19-10.9-6.13-21.92-7.41-33.22c-1.54-16.4-8.55-31.59-11.29-47.73c-0.28-6.78,1.69-13.69-1.09-20.17
		c-3.55-8.05-0.91-17.16-3.87-25.39c-3.32-11.52-3.61-23.58-6.23-35.24c-2.16-16.22-3.81-32.52-5.78-48.76
		c-0.33-10.23,0.59-20.52-1.03-30.64c-2.2-12.69-3.44-25.52-5.04-38.29c-2.12-10.13-3.24-20.57-2.43-30.91
		c-0.47-19.04-5.61-37.9-3.97-57c-0.34-5.84-3.78-11.04-3.77-16.91c-0.28-7.97,0.08-15.96-0.9-23.85
		c-3.04-15.22-1.75-30.85-1.67-46.23c-0.44-5.3-1.11-10.6-0.93-15.91c0.73-7.92-4.01-15.13-3.63-23.04
		c0.59-15.44-4.57-30.38-4.05-45.77c-0.11-7.59-4.05-14.57-3.75-22.23c0.48-16.61-4.69-32.94-3.28-49.53
		c-0.22-5.58-1.98-10.95-4.13-16.02c-4.31,0.79-8.66,1.74-12.29,4.31c0.88,6.29,1.45,12.68,0.93,19.03
		c-0.66,20.96,2.01,41.78,3.92,62.61c2.77,19.9,2.23,40.38,7.97,59.78c1.45,7.44,0.28,15.11,1.63,22.61
		c1.39,6.84-0.02,13.83,0.68,20.74c-0.73,12.4,3.3,24.36,3.29,36.7c0.48,12.11,3.6,24.02,3.25,36.2
		c-0.08,15.06,2.54,29.92,4.87,44.74c-0.49,12.16,1.15,24.21,2.55,36.26c-1.57,12.18,3.88,23.69,4.9,35.7
		c1.94,14.08-0.23,28.34,1.86,42.39c2.43,11.23,1.36,22.79,3.09,34.12c1.01,7.12-0.78,14.63,2.12,21.46
		c5.89,13.24,2.98,28.15,7.01,41.85c2.18,7.53,1.75,15.59,3.91,23.15c1.86,6.58,3.62,13.21,4.93,19.93c3.66,8.67,3.1,18.34,6.75,27
		c1.66,11.01,0.6,22.48,4.28,33.18c3.12,9.37,5.74,18.96,9.87,27.98c2.32,5.04,4.03,10.37,5.3,15.79
		c2.61,14.95,9.1,28.86,11.84,43.82c1.12,7.97,5.62,14.94,7.12,22.83c3.75,8.18,6.81,16.73,8.12,25.69
		c6.11,16.27,16.42,30.54,22.89,46.68c5,12.01,13.54,22.25,17.37,34.79c3.47,11,10.33,20.46,17.12,29.63
		c2.55,4.42,3.27,9.7,6.08,14.03c6.41,10.04,12.79,20.11,18.37,30.65c6.36,11.99,15.8,21.99,26.46,30.27
		c4.72,0.9,9.99,0.96,14.37-1.28c7.05-3.41,15.02-3.99,22.45-6.23c16.45-3.21,32.19-9.42,47.03-17.09
		c10.52-2.77,20.59-7.09,31.33-9.03c10.88-1.62,19.34-9.4,29.79-12.32c11.23-3.67,19.69-12.48,30.36-17.33
		c11.2-5.2,21.65-12.03,30.36-20.8c6.31-7.33,17.17-7.36,23.41-14.62c7.8-6.26,17.14-10.44,26.55-13.64c4.38-2.7,7-7.52,11.42-10.2
		c6.58-3.91,12.23-9.2,17.04-15.13c5.37-6.68,13.54-10.41,18.54-17.43c6.44-8.81,13.31-17.27,20.75-25.25
		c8.06-8.37,13.57-18.75,19.3-28.75c5.11-11.18,13.44-20.52,17.89-32c3.15-8.2,9.62-14.69,17.4-18.64c3.12-1.37,6.49,0.08,9.67,0.46
		c1.73-3.67,3.26-7.46,4.89-11.14c3.75-1.55,7.56-2.96,11.34-4.44c6.26-2.42,11.55-6.87,18.01-8.83
		c22.06-6.23,42.63-16.5,63.66-25.45c8.21-2.47,11.94-10.82,18.44-15.65c4.25-3.99,9.88-6.01,14.47-9.55
		c10.58-8,22.94-14.14,31.07-24.92c4.24-4.81,6.82-11.01,11.9-15.06c5.19-4.12,9.48-9.38,15.19-12.83
		c11.61-6,17.79-18.11,27.1-26.76c4.89-7.77,8.68-16.23,12.85-24.4c8.91-12.85,18.9-25.1,25.75-39.23
		c3.02-6.29,8.81-10.56,12.18-16.58c4.91-10.06,10.46-19.85,16.83-29.05c1.36-3.54,0.56-7.62,2.38-10.99
		c2.03-3.78,4.22-7.48,5.69-11.51c2.27-5.68,8.38-9.33,8.46-15.93c-0.02-8.26,6.43-13.99,8.58-21.54c2.56-8,7.21-15.16,9.06-23.41
		c1.32-6.62,7.33-11.28,7.55-18.24c3.53-19.64,8.46-39.31,18.36-56.8c5.78-9.87,7.49-21.47,11.95-31.9
		c4.39-5.83,10.4-10.23,15.31-15.6c6.74-6.63,15.31-11.22,21.32-18.62c4.24-5.42,9.76-9.62,14.76-14.29
		c4.36-4.19,9.62-8.04,10.98-14.34c3.57-7.02,4.27-14.85,5.4-22.49c0.22-4.52,4.89-6.56,8.36-8.49c11.69-5.41,22.86-12.21,35.5-15.3
		c6.03-1.11,10.65-5.23,15.67-8.39c5.3-2.61,11.24-3.65,16.71-5.85c7.05-4.12,13.58-9.07,20.83-12.87
		c8.91-5.65,12.7-16.05,18.46-24.41c5.44-7.18,4.37-16.83,4.51-25.26c-0.29-10.48-8.26-18.39-14.44-26.02
		c-1.72-1.66-2.71-4.39-5.21-4.88c-7.55-2.25-14.98,1.4-22.57,0.99c-6.13,0-12.24-0.09-18.29,0.87c-0.38-0.95-0.76-1.88-1.12-2.79
		c5.43-6.82,9.87-14.31,14.55-21.63c4.76-7.59,11.88-13.9,14.24-22.8c1.98-5.63,3.82-11.64,2.02-17.61
		c-1.61-6.73-4.7-14.88,0.24-20.9c13.5-12.33,24.53-27,35.69-41.39c3.5-3.8,9.07-4.65,12.83-8.11c3.68-4.59,4.09-10.83,6.14-16.12
		c2.85-4.62,6.46-8.71,9.42-13.24c3.85-6.74,6.23-14.19,8.48-21.57c2.6-7.88,7.05-15.05,9.09-23.13c2.44-7.74,6.04-15.03,9.15-22.5
		c1.37-4.8,1.43-9.86,2.31-14.74c1.84-1.2,3.82-2.22,5.52-3.64c2.28-5.23,2.11-11.25,4.73-16.35c5.52-9.17,7.52-19.88,10.5-30.01
		c0.54-6.52,1.29-13.19,4.34-19.1c1.71-2.81,4.33-4.93,6.04-7.74c4.42-7.79,5.98-17.18,12.31-23.84c3.74-3.99,7.47-8.05,10.27-12.78
		c7.15-12.74,20.08-20.6,28.67-32.2c6.69-9.13,14.23-17.77,19.41-27.89c4.11-6.04,10.08-10.91,12.7-17.88
		c0.08-10.34-0.5-21.09-4.74-30.7c-3.83-9.58-6.78-21.03-16.5-26.37c-8.53-4.32-17.32-8.45-26.84-9.99
		c-3.32-0.74-6.88-1.83-10.16-0.32c-11.49,4.48-22.23,10.71-32.35,17.69c-4.65,3.18-5.86,9.26-10.35,12.63
		c-8.8,8.92-16.85,18.55-24.47,28.48c-11.31,9.75-18.61,22.9-26.72,35.2c-4.07,6.42-5.78,14-9.63,20.51
		c-6.44,7.07-13.23,14.02-17.85,22.49c-10.61-2.5-16.83-12.13-24.37-19.09c-7.03-4.08-15.22-6.72-23.4-6.3
		c-3.07,2.67-3.53,6.9-5.04,10.45c-1.34,3.01-4.57,4.46-7.46,5.58c-3.52-6.03-4.69-13.1-7.56-19.44c-2.48-5.26-0.8-11.15-1.07-16.69
		c0.22-18.84-2.97-37.37-4.85-56.03c-1.9-15.73-1.79-31.62-4.13-47.31c-1.91-9.21,0.51-18.55-0.54-27.81
		c-0.62-9.09-1.88-18.15-1.68-27.27c0.63-12.16,1.59-24.43,0.01-36.55c-0.48-4.92-2.57-9.82-1.7-14.82
		c2.26-12.5,1.02-25.54-2.73-37.62c-1.36-4.7,1.73-9.07,2.61-13.55c-0.35-4.94-2.2-9.66-2.85-14.55
		c-3.45-16.22-14.05-29.74-24.93-41.78c0.49-3.14,0.84-6.35,0.93-9.52c-2.75-8.59-9.18-15.29-12.72-23.5
		c-1.57-2.98-2.41-6.83-5.79-8.29c-3.72-1.88-7.44-3.82-10.52-6.66c-3.78-3.43-9.09-4.11-13.31-6.7
		c-5.06-4.18-12.22-1.88-18.02-1.13c-3.56,1.5-9.82,0.9-11.09,5.48c-0.38,7.71-2.59,15.32-2.02,23.08
		c0.93,10.95-1.05,21.8-2.55,32.6c-1.34,8.92,1.51,18.15-2.37,26.7c-0.7,15.52-1.67,31.11-3.7,46.56
		c-0.55,4.54-2.12,9.01-1.93,13.63c0.86,10.97-4.14,21.4-3.84,32.38c-1.35,9.65,0.28,19.37-1.06,29.01
		c-1.75,11.37-1.14,22.99-3.61,34.28c-2.61,12.51-0.92,25.46-3.6,37.93c-1.08,9.42-0.75,18.94-1.9,28.36
		c-2.77,18.69-1.87,37.74-5.26,56.37c-2.49,10.27,0.22,20.89,0.05,31.27c-2.35,10.77-1.93,21.86-1.95,32.84
		c-0.78,9.2-1.47,18.4-2.35,27.61c-1.46,10.71,3.63,21.24,0.92,31.95c-3.02,11.87,0.88,24.09-1.63,36
		c-2.78,18.28-2.33,36.81-4.48,55.15c-1.75,11.05,2.43,21.93,1.31,33.01c0.94,8.29-2.62,16.19-2.23,24.48
		c-0.5,9.4-3.46,18.76-8.33,26.8c-4.94,5.09-9.39,10.97-15.72,14.44c-7.3,4.49-12.21,11.68-17.85,17.87
		c-8.09,3.18-16.76,4.61-25.16,6.81c-6.26,2.06-12.74,0.61-18.95-0.66c-7.02,11.45-11.04,24.68-19.56,35.25
		c-2.92,3.72-7.32,6.19-9.44,10.54c-7.66,14.54-19.05,26.7-26.76,41.22c-6.34,11.89-18.46,19.33-24.69,31.29
		c-7.48,13.64-17.43,25.69-28.12,36.92c-4.57,6.91-9.57,13.53-16.09,18.76c-4.75,7.74-9.92,15.34-16.37,21.78
		c-7,7.07-12.21,15.74-19.84,22.19c-8.23,7.19-16.19,15.13-20.81,25.21c-1.8,5.52-7.21,8.11-10.96,12.06
		c-4.89,4.01-4.96,11.14-9.64,15.31c-9.12,8.83-15.65,19.77-23.17,29.89c-2.45,3.35-7.47,7-10.91,2.49
		c-9.4-9.87-14.61-22.78-21.54-34.32c-6.03-13.57-11.25-27.54-18.76-40.39c-4.69-10.45-12.6-19.41-15.32-30.69
		c-1.1-4.28-2.36-8.49-4.71-12.23c-5.06-8.18-8.2-17.31-11.92-26.11c-2.98-7.72-6.13-15.39-7.85-23.5
		c-1.56-6.83-6.67-12.4-7.24-19.49c-1.36-15.55-10.9-28.93-11.73-44.56c-1.7-9.89-7.91-18.2-10.02-27.96
		c-1.3-4.22-1.6-8.68-2.04-13.03c-0.97-7.31-3.95-14.08-6.31-20.97c-1.62-7.66-0.89-16.15-5.29-22.97
		c-3.39-5.47-3.15-12.13-5.11-18.09c-1.46-5.49-3.03-11.03-5.85-15.99c-2.22-3.62,0.66-7.66,0.52-11.49
		c-0.87-8.33-3.61-16.28-6.11-24.22c-0.65-11.17-1.77-22.38-4.08-33.33c-4.68-11.49-5.95-24.02-10.89-35.44
		c-2.74-5.89-1.16-12.61-2.5-18.75c-1.99-6.92-4.98-13.49-7.41-20.26c-2.09-5.02,0.04-10.88-2.46-15.77
		c-5.87-11.56-7.34-24.54-9.2-37.17c-4.25-12.08-7.17-24.73-13.46-35.98c-4.19-7.15-2.29-16.55-8.28-22.79
		c-4.4-5.37-8.05-11.26-10.43-17.79c-9.88-15.73-25.19-26.91-39.57-38.2c-11.1-8.63-15.53-22.64-19.07-35.65
		c-2.13-11.97-6.42-23.46-7.91-35.55c-0.77-4.28-3.02-8.11-3.99-12.34c-1.54-7.27-5.52-13.73-7.14-20.97
		c-1.91-9.58-3.09-19.31-5.76-28.72c1.7,0.02,5.1,0.07,6.8,0.1c0.31,1.49,0.92,4.48,1.23,5.98c13.91,4.56,28.32,7.53,42.89,9.01
		c10.98,0.14,21.98,0.21,32.97-0.05c9.13-1.36,18.13-3.61,26.92-6.44c13.62-4.91,25.52-14.23,33.87-26.02
		c9.86-16.08,12.81-35.14,14.5-53.6c3.79-31.21,3.03-63.37,13.43-93.42c6.99-16.93,18.12-32.19,32.3-43.82
		c4.4-3.9,9.57-7.11,13.02-11.98c2.66-4.31-0.07-9.68-1.79-13.8c-6.82-14.33-12.66-29.11-17.89-44.1
		c-7.13-21.88-13.22-44.82-10.41-68.04c3.78-31.87,10.03-63.39,16.15-94.87c7.92-51.37,11.89-104.74-1.53-155.53
		c-4.47-13.64-7.57-27.69-12.81-41.08c-10.48-26.87-25.4-51.95-43.58-74.32c-11.1-13.48-21.87-27.53-36.04-37.99
		c-14.73-14.52-30.98-27.51-48.61-38.35c-25-16.86-53.24-28.2-81.82-37.39c-13.46-5.27-27.73-7.93-41.81-10.93
		C617.15-632.18,563.06-629.65,512.02-616.9 M1402.36,20.62c9.89-0.96,18.25,5.8,25.85,11.13c8.57,5.53,11.21,16.08,14.81,24.94
		c-12.68,1.57-26.69,1.17-37.57,8.79c-4.34,2.99-2.72,8.65-2.41,13.03c1.22,6.92-1.5,14.03,0.61,20.84
		c1.62,4.91-1.05,9.82-1.19,14.73c-1.01,7.11-0.08,14.25,0.87,21.31c0.36,16.31-7.38,32.19-3.85,48.56
		c0.32,20.89-0.92,42.01-5.56,62.42c-1.03,4.49-0.71,9.21-0.02,13.74c1.47,7.73-1.4,15.45-1.24,23.22
		c-0.54,6.28,1.86,12.78-0.54,18.84c-2.63,7.08-3.16,14.8-2.14,22.26c0.72,11.2-0.98,22.37-0.78,33.58
		c-0.02,6.62,1.2,13.35-0.73,19.85c-1.6,6.58-3.3,13.2-3.4,20.03c2.25,3.76,5.63,7.85,10.76,6.09c5.56-7.39,5.94-17.45,4.94-26.37
		c-0.42-7.33,1.57-14.53,2.02-21.81c-1.88-30.5,1.46-60.97,3-91.41c3.32-17.88-0.72-36.38,3.89-54.11
		c3.94-13.73,0.73-28.24,2.75-42.21c1.69-12.55,0.98-25.33,3.65-37.74c1.28-6.07,0.24-12.24-0.36-18.29
		c-0.48-3.96-2.16-7.93-0.87-11.91c1.91-6.35-1.32-13.78,2.98-19.35c5.03-4.24,11.83-5.52,18.21-6.37
		c7.28,0.43,13.92,4.64,19.6,8.92c8.62,10.06,10.96,23.43,12.71,36.12c1.8,16.07,0.96,32.25,1.32,48.37
		c2.32,9.58,1.08,19.4,1.6,29.14c-1.39,15.55,0.41,31.15,1.7,46.66c-0.5,9.14,0.51,18.27,0.29,27.43c-0.62,9.43,3.31,18.32,4,27.62
		c-0.6,12.48-0.77,25.22,2.15,37.46c1.65,7.86,0.51,15.91,0.74,23.88c-0.62,10.46,2.57,20.59,2.68,31.02
		c0.23,9.39,2.44,18.61,5.42,27.5c1.5,6.4,5.67,14.38,0.48,20.2c-7.62,10.07-10.16,22.93-18.06,32.82
		c-5.13,9.2-8.87,19.28-15.67,27.48c-6.45,7.22-10.27,16.23-16.2,23.82c-4.38,6.22-9.95,11.58-13.6,18.31
		c-3.32,6.26-5.73,13.11-10.47,18.51c-7.73,9.53-12.7,21.01-20.89,30.2c-5.37,5.41-7.78,12.81-11.99,19.01
		c-2.64,3.03-6.18,5.12-8.89,8.08c-4.19,4.24-6.26,9.94-8.79,15.21c-0.86-0.04-2.58-0.1-3.43-0.13
		c-3.86-10.23-1.65-21.28-2.17-31.87c-0.95-5.91-2.13-11.85-1.25-17.85c-1.49-1.4-3-2.76-4.46-4.15
		c8.17-10.71,6.81-24.94,5.96-37.58c-0.94-8.89,4.2-17.09,3.99-25.84c-2.97-9.51,1.35-19.23,0.84-28.89
		c0.78-8.84-0.43-17.71,0.71-26.53c0.86-8.3-0.75-16.6-0.39-24.86c3.94-11.73,3.27-24.26,3.8-36.45
		c1.79-18.83,1.28-37.81,2.72-56.69c0.86-8.44,3.92-16.59,3.64-25.15c-1-13.65,2.6-27.31,0.26-40.93
		c-3.11-10.12,1.81-20.37,3.24-30.36c2.17-6.46-1.15-13.09,0.81-19.51c2.16-8.64,4.68-17.37,3.69-26.39
		c-1.02-9.82-0.19-19.65,1.77-29.28c1.18-4.94-1.94-9.63-1.05-14.59c-0.03-11.35,7.78-21.26,6.53-32.71
		c-0.61-11.18-2.13-22.77,1.47-33.63c4.04-11.91,2.41-24.72,4.3-37C1394.08,40.74,1399.03,30.78,1402.36,20.62 M1680.81,305.8
		c7.13-4.29,16.01-1.7,23.57-0.21c10.81,2.39,18.24,12.11,21.71,22.14c2.97,13.38,6.97,29.25-2.11,41.19
		c-13.36,10.5-20.78,26.37-33.71,37.34c-7.44,5.99-12.55,14.16-18.65,21.39c-11.49,11.26-18.9,25.78-26.14,39.96
		c-3.54,6.49-3.73,14.16-6.92,20.82c-4.71,16.02-11.07,31.48-15.9,47.46c-4.78,11.99-6.75,25.05-13.4,36.27
		c-7.26,13.12-12.66,27.12-15.66,41.84c-0.83,5.67-6,9.13-8.29,14.13c-4.53,9.27-8.71,18.87-15.18,27.01
		c-3.95,4.06-8.99,7.01-12.38,11.62c-4.51,5.45-7.47,12.39-13.64,16.25c-10.5,6.25-18.55,15.94-29.69,21.21
		c-12.24,3.33-24.97,1.08-37.37,0.35c-12.13-1.65-24.45,0.68-36.42-2.52c0.94-6.37,0.31-15.11,7.14-18.34
		c7.29-3.48,7.68-12.63,11.23-18.96c5.47-6.07,12.33-11.06,16.05-18.54c3.07-6.86,7-13.28,10.14-20.1
		c2.15-4.84,6.62-8.05,9.58-12.34c7.64-10.52,10.27-23.61,16.69-34.78c3.65-5.28,7.68-10.32,10.63-16.04
		c7.42-14.62,19.12-27.12,22.9-43.46c13.27-14.73,14.31-35.5,22.45-52.8c3.03-8.52,2.87-17.68,4.9-26.39
		c0.86-5.65,5.78-9.11,7.63-14.29c1.55-3.22,2.47-7.2,5.83-9.05c3.06-2.18,6.93-3.8,8.65-7.35c2.59-5.19,4.38-10.74,7.33-15.76
		c3.72-6.26,5.85-13.69,11.38-18.71c6.8-6.52,9.73-15.87,16.4-22.46c9.27-8.43,18.03-17.48,26.04-27.13
		C1662.95,317.74,1671.63,311.31,1680.81,305.8 M779.17,371.25c11.53,6.04,18.55,17.42,25.27,28.07c2.9,6.31,6.1,12.48,10.08,18.21
		c6.85,8.87,8.46,20.36,12.76,30.46c1.32,2.49,3.16,4.71,4.2,7.37c8.04,23.72,5.7,50.34,17.89,72.76c2.42,11.87,4.12,24,8.03,35.53
		c1.22,4.18,3.12,8.3,3.75,12.68c0.4,14.37,5.66,28.03,7.97,42.14c-0.23,9.44,2.82,18.36,5.21,27.35
		c1.53,5.81,5.42,11.08,5.26,17.28c0.04,3.72,0.01,7.45-0.25,11.19c-5-13.29-7.23-27.38-11.7-40.84
		c-3.17-9.03-4.33-18.66-8.64-27.29c-2.77-5.29-0.69-11.53-3.42-16.78c-3.36-7.5-5.8-15.34-8.22-23.17
		c-3.66-9.06-6.58-18.39-7.88-28.1c-3.42-9.35-5.42-19.14-9.47-28.23c-0.3-7.56-4.95-13.9-6.03-21.25
		c-1.06-6.44-6.18-11.27-7.32-17.7c-2.22-13.86-11.07-25.62-13.31-39.5c-0.61-2.84-1.93-5.45-3.07-8.09
		c-1.87-4.65-2.38-9.72-4.33-14.33c-1.56-3.94-3.79-7.56-5.23-11.54C787.65,388.4,783.08,379.96,779.17,371.25 M1522.45,420.36
		c1.62-2.21,4.4-4.08,7.23-3.08c9.89,3.53,15.08,13.61,19.21,22.55c2.22,9.25,6.06,19.53,1.57,28.72
		c-5.76,12.18-7.91,25.65-13.15,38.03c-3.51,8.56-10.58,14.99-14.3,23.45c-4.33,7.3-5.67,16.16-11.25,22.72
		c-5.13,6.63-7.81,14.75-12.58,21.62c-5.32,6.82-8.51,14.87-11.2,23c-7.91,13.89-15.91,27.74-24.6,41.17
		c-3.33,5.21-8.7,8.54-12.8,13.06c-5.36,7-7.91,15.67-13.19,22.73c-6.51,8.47-13.16,16.85-20.32,24.77
		c-2.07,3.23-6.16,2.88-9.5,3.43c-13.84,1.09-27.82,1.74-41.58-0.53c-12.59-1-25.3-1.8-37.91-0.8c4.87-9.6,12.04-17.87,19.37-25.66
		c5.18-8.35,12.63-14.94,17.66-23.39c8.57-14.1,20.96-25.36,29.1-39.74c4.16-8.29,12.52-13.69,15.87-22.46
		c5.07-12.4,15.18-21.51,22.32-32.61c3.29-3.71,2.41-9.09,4.72-13.25c2.76-5.34,10.37-5.41,12.74-11.14
		c8.64-12.82,12.98-28.15,23.08-40.01c4.66-6.46,8.14-13.68,13.06-19.96c5.38-6.5,8.44-14.47,12-22c2.69-5.98,8.76-9.21,12.92-14.04
		C1515.2,431.73,1518.52,425.82,1522.45,420.36 M881.14,679.11c1.29,0.66,1.28,1.33-0.03,2.03
		C879.8,680.46,879.81,679.78,881.14,679.11 M1488.52,810.69c15.3-8.64,33.97-9.48,50.97-7.01c8.1,4.85,14.88,14.49,11.46,24.31
		c-1.32,7.9-6.01,14.53-9.54,21.55c-5.36,10.83-16.56,16.65-26.73,22.13c-8.92,4.47-18.7,6.9-28.26,9.59
		c1.23-5.89,4.72-10.83,8.43-15.4c4.53-7.07,5.6-15.66,7.32-23.74c0.34-3.87,2.17-8,0.37-11.73
		C1498.24,823.55,1492.98,817.41,1488.52,810.69 M924.54,853.97c0.9,0,2.69-0.01,3.58-0.02c0.95,2.19,1.72,4.44,2.37,6.76
		c-2.09-0.12-4.33,0.24-6.23-0.77C924.19,857.93,924.38,855.95,924.54,853.97 M930.82,873.25c-1.43-3.16,2.62-4.69,4.62-6.19
		c2.46,11.74,6.5,23.03,11.84,33.77c4.12,16.83,16.94,29.65,21.96,46.13c4.21,10.05,10.1,19.38,13.12,29.94
		c3.99,12.03,12.69,21.44,17.92,32.84c3.56,7.38,8.52,14.21,10.49,22.27c-1.96,7.52-7.32,13.76-11.84,19.9
		c-8.97,6.79-14.79,16.54-21.81,25.13c-4.65,5.83-8.54,13.04-15.96,15.71c-1.41-12.82-2.04-26.23-7.63-38.06
		c0.92-2.79,3.16-5.79,1.51-8.73c-2.25-4.88-5.77-9.08-7.58-14.16c2.1-1.89,4.18-3.79,6.22-5.73c-2.89-16.93-5-33.98-7.45-50.97
		c-0.8-3.56-3.72-6.47-3.47-10.27c0.3-7.31-0.89-14.55-1.28-21.81c0.16-6.82-3.37-12.74-5.49-18.98c-1.72-4.86-0.76-10.12-1.71-15.1
		c-0.9-6.6-2.48-13.27-1.24-19.94C934.25,883.64,932.02,878.36,930.82,873.25 M1311.42,1026.41c2.67-2.37,5.94-5.63,9.91-3.21
		c10.29,3.04,20.76,6.07,31.63,5.43c-1.81,11.48-6.6,22.17-11.79,32.48c-3.01,8.19-2.31,17.24-4.89,25.58
		c-4.2,12.18-5.05,25.53-11.68,36.84c-3.89,6.13-7.26,12.64-9.54,19.56c-3.99,13.65-11.66,25.82-16.54,39.16
		c-2.06,5.77-3.88,11.77-7.38,16.91c-4.65,7.08-6.05,15.87-11.55,22.46c-3.13,4.15-7.38,7.32-10.37,11.59
		c-9.38,17.73-21.13,34.08-32.3,50.73c-6.05,7.66-9.73,17.26-17.84,23.15c-6.85,5.54-12.48,12.29-17.63,19.39
		c-15.09,14.57-30.75,28.54-45.89,43.07c-5.13,5.03-11.92,7.89-17.04,12.94c-6.39,6.62-14.94,10.46-22.49,15.54
		c-5.34,3.22-10.25,7.18-15.84,9.97c-6.12,2.17-12.43,3.92-18.08,7.2c-9.08,5.23-19.59,7.01-29.26,10.74
		c-9.4,5.02-18.1,11.81-28.72,14.13c-2.57-9.18,5.76-14.7,9.41-21.85c3.56-4.77,6.88-9.88,7.9-15.86
		c4.29-13.56,8.49-27.43,15.97-39.61c6.27-13.53,16.39-24.77,23.83-37.6c6.56-11.1,8.6-24.18,15.74-34.98
		c5.57-15.75,18.18-29.48,18.68-46.82c6.64-4.76,11.58-11.97,12.1-20.27c1.76-10.93,9.36-19.5,12.68-29.86
		c4.83-10.55,10.32-20.84,13.8-31.96c1.77-7.87,7.91-13.52,11.1-20.71c2.88-7.13,4.15-15.1,9.09-21.22
		c6.11-8.04,10.85-16.97,16.17-25.51c1.91-5.54,2.96-11.3,4.43-16.95c13.2,0.14,25.59-4.81,37.76-9.31
		c10.11-4.4,20.73-7.72,30.12-13.62c4.41-3.27,10.28-2.33,14.94-5.01C1289.57,1042.29,1301.6,1035.78,1311.42,1026.41
		L1311.42,1026.41z"/>
	<path d="M512.02-616.9c51.04-12.75,105.13-15.28,156.64-3.71c14.08,3,28.35,5.66,41.81,10.93c28.58,9.19,56.82,20.53,81.82,37.39
		c17.63,10.84,33.88,23.83,48.61,38.35c14.17,10.46,24.94,24.51,36.04,37.99c18.18,22.37,33.1,47.45,43.58,74.32
		c5.24,13.39,8.34,27.44,12.81,41.08c13.42,50.79,9.45,104.16,1.53,155.53c-6.12,31.48-12.37,63-16.15,94.87
		c-2.81,23.22,3.28,46.16,10.41,68.04c5.23,14.99,11.07,29.77,17.89,44.1c1.72,4.12,4.45,9.49,1.79,13.8
		c-3.45,4.87-8.62,8.08-13.02,11.98c-14.18,11.63-25.31,26.89-32.3,43.82c-10.4,30.05-9.64,62.21-13.43,93.42
		c-1.69,18.46-4.64,37.52-14.5,53.6c-8.35,11.79-20.25,21.11-33.87,26.02c-8.79,2.83-17.79,5.08-26.92,6.44
		c-10.99,0.26-21.99,0.19-32.97,0.05c-14.57-1.48-28.98-4.45-42.89-9.01c-0.31-1.5-0.92-4.49-1.23-5.98c-1.7-0.03-5.1-0.08-6.8-0.1
		c2.67,9.41,3.85,19.14,5.76,28.72c1.62,7.24,5.6,13.7,7.14,20.97c0.97,4.23,3.22,8.06,3.99,12.34c1.49,12.09,5.78,23.58,7.91,35.55
		c3.54,13.01,7.97,27.02,19.07,35.65c14.38,11.29,29.69,22.47,39.57,38.2c2.38,6.53,6.03,12.42,10.43,17.79
		c5.99,6.24,4.09,15.64,8.28,22.79c6.29,11.25,9.21,23.9,13.46,35.98c1.86,12.63,3.33,25.61,9.2,37.17
		c2.5,4.89,0.37,10.75,2.46,15.77c2.43,6.77,5.42,13.34,7.41,20.26c1.34,6.14-0.24,12.86,2.5,18.75
		c4.94,11.42,6.21,23.95,10.89,35.44c2.31,10.95,3.43,22.16,4.08,33.33c2.5,7.94,5.24,15.89,6.11,24.22
		c0.14,3.83-2.74,7.87-0.52,11.49c2.82,4.96,4.39,10.5,5.85,15.99c1.96,5.96,1.72,12.62,5.11,18.09c4.4,6.82,3.67,15.31,5.29,22.97
		c2.36,6.89,5.34,13.66,6.31,20.97c0.44,4.35,0.74,8.81,2.04,13.03c2.11,9.76,8.32,18.07,10.02,27.96
		c0.83,15.63,10.37,29.01,11.73,44.56c0.57,7.09,5.68,12.66,7.24,19.49c1.72,8.11,4.87,15.78,7.85,23.5
		c3.72,8.8,6.86,17.93,11.92,26.11c2.35,3.74,3.61,7.95,4.71,12.23c2.72,11.28,10.63,20.24,15.32,30.69
		c7.51,12.85,12.73,26.82,18.76,40.39c6.93,11.54,12.14,24.45,21.54,34.32c3.44,4.51,8.46,0.86,10.91-2.49
		c7.52-10.12,14.05-21.06,23.17-29.89c4.68-4.17,4.75-11.3,9.64-15.31c3.75-3.95,9.16-6.54,10.96-12.06
		c4.62-10.08,12.58-18.02,20.81-25.21c7.63-6.45,12.84-15.12,19.84-22.19c6.45-6.44,11.62-14.04,16.37-21.78
		c6.52-5.23,11.52-11.85,16.09-18.76c10.69-11.23,20.64-23.28,28.12-36.92c6.23-11.96,18.35-19.4,24.69-31.29
		c7.71-14.52,19.1-26.68,26.76-41.22c2.12-4.35,6.52-6.82,9.44-10.54c8.52-10.57,12.54-23.8,19.56-35.25
		c6.21,1.27,12.69,2.72,18.95,0.66c8.4-2.2,17.07-3.63,25.16-6.81c5.64-6.19,10.55-13.38,17.85-17.87
		c6.33-3.47,10.78-9.35,15.72-14.44c4.87-8.04,7.83-17.4,8.33-26.8c-0.39-8.29,3.17-16.19,2.23-24.48
		c1.12-11.08-3.06-21.96-1.31-33.01c2.15-18.34,1.7-36.87,4.48-55.15c2.51-11.91-1.39-24.13,1.63-36
		c2.71-10.71-2.38-21.24-0.92-31.95c0.88-9.21,1.57-18.41,2.35-27.61c0.02-10.98-0.4-22.07,1.95-32.84
		c0.17-10.38-2.54-21-0.05-31.27c3.39-18.63,2.49-37.68,5.26-56.37c1.15-9.42,0.82-18.94,1.9-28.36c2.68-12.47,0.99-25.42,3.6-37.93
		c2.47-11.29,1.86-22.91,3.61-34.28c1.34-9.64-0.29-19.36,1.06-29.01c-0.3-10.98,4.7-21.41,3.84-32.38
		c-0.19-4.62,1.38-9.09,1.93-13.63c2.03-15.45,3-31.04,3.7-46.56c3.88-8.55,1.03-17.78,2.37-26.7c1.5-10.8,3.48-21.65,2.55-32.6
		c-0.57-7.76,1.64-15.37,2.02-23.08c1.27-4.58,7.53-3.98,11.09-5.48c5.8-0.75,12.96-3.05,18.02,1.13c4.22,2.59,9.53,3.27,13.31,6.7
		c3.08,2.84,6.8,4.78,10.52,6.66c3.38,1.46,4.22,5.31,5.79,8.29c3.54,8.21,9.97,14.91,12.72,23.5c-0.09,3.17-0.44,6.38-0.93,9.52
		c10.88,12.04,21.48,25.56,24.93,41.78c0.65,4.89,2.5,9.61,2.85,14.55c-0.88,4.48-3.97,8.85-2.61,13.55
		c3.75,12.08,4.99,25.12,2.73,37.62c-0.87,5,1.22,9.9,1.7,14.82c1.58,12.12,0.62,24.39-0.01,36.55c-0.2,9.12,1.06,18.18,1.68,27.27
		c1.05,9.26-1.37,18.6,0.54,27.81c2.34,15.69,2.23,31.58,4.13,47.31c1.88,18.66,5.07,37.19,4.85,56.03
		c0.27,5.54-1.41,11.43,1.07,16.69c2.87,6.34,4.04,13.41,7.56,19.44c2.89-1.12,6.12-2.57,7.46-5.58c1.51-3.55,1.97-7.78,5.04-10.45
		c8.18-0.42,16.37,2.22,23.4,6.3c7.54,6.96,13.76,16.59,24.37,19.09c4.62-8.47,11.41-15.42,17.85-22.49
		c3.85-6.51,5.56-14.09,9.63-20.51c8.11-12.3,15.41-25.45,26.72-35.2c7.62-9.93,15.67-19.56,24.47-28.48
		c4.49-3.37,5.7-9.45,10.35-12.63c10.12-6.98,20.86-13.21,32.35-17.69c3.28-1.51,6.84-0.42,10.16,0.32
		c9.52,1.54,18.31,5.67,26.84,9.99c9.72,5.34,12.67,16.79,16.5,26.37c4.24,9.61,4.82,20.36,4.74,30.7
		c-2.62,6.97-8.59,11.84-12.7,17.88c-5.18,10.12-12.72,18.76-19.41,27.89c-8.59,11.6-21.52,19.46-28.67,32.2
		c-2.8,4.73-6.53,8.79-10.27,12.78c-6.33,6.66-7.89,16.05-12.31,23.84c-1.71,2.81-4.33,4.93-6.04,7.74
		c-3.05,5.91-3.8,12.58-4.34,19.1c-2.98,10.13-4.98,20.84-10.5,30.01c-2.62,5.1-2.45,11.12-4.73,16.35
		c-1.7,1.42-3.68,2.44-5.52,3.64c-0.88,4.88-0.94,9.94-2.31,14.74c-3.11,7.47-6.71,14.76-9.15,22.5
		c-2.04,8.08-6.49,15.25-9.09,23.13c-2.25,7.38-4.63,14.83-8.48,21.57c-2.96,4.53-6.57,8.62-9.42,13.24
		c-2.05,5.29-2.46,11.53-6.14,16.12c-3.76,3.46-9.33,4.31-12.83,8.11c-11.16,14.39-22.19,29.06-35.69,41.39
		c-4.94,6.02-1.85,14.17-0.24,20.9c1.8,5.97-0.04,11.98-2.02,17.61c-2.36,8.9-9.48,15.21-14.24,22.8
		c-4.68,7.32-9.12,14.81-14.55,21.63c0.36,0.91,0.74,1.84,1.12,2.79c6.05-0.96,12.16-0.87,18.29-0.87
		c7.59,0.41,15.02-3.24,22.57-0.99c2.5,0.49,3.49,3.22,5.21,4.88c6.18,7.63,14.15,15.54,14.44,26.02
		c-0.14,8.43,0.93,18.08-4.51,25.26c-5.76,8.36-9.55,18.76-18.46,24.41c-7.25,3.8-13.78,8.75-20.83,12.87
		c-5.47,2.2-11.41,3.24-16.71,5.85c-5.02,3.16-9.64,7.28-15.67,8.39c-12.64,3.09-23.81,9.89-35.5,15.3
		c-3.47,1.93-8.14,3.97-8.36,8.49c-1.13,7.64-1.83,15.47-5.4,22.49c-1.36,6.3-6.62,10.15-10.98,14.34
		c-5,4.67-10.52,8.87-14.76,14.29c-6.01,7.4-14.58,11.99-21.32,18.62c-4.91,5.37-10.92,9.77-15.31,15.6
		c-4.46,10.43-6.17,22.03-11.95,31.9c-9.9,17.49-14.83,37.16-18.36,56.8c-0.22,6.96-6.23,11.62-7.55,18.24
		c-1.85,8.25-6.5,15.41-9.06,23.41c-2.15,7.55-8.6,13.28-8.58,21.54c-0.08,6.6-6.19,10.25-8.46,15.93
		c-1.47,4.03-3.66,7.73-5.69,11.51c-1.82,3.37-1.02,7.45-2.38,10.99c-6.37,9.2-11.92,18.99-16.83,29.05
		c-3.37,6.02-9.16,10.29-12.18,16.58c-6.85,14.13-16.84,26.38-25.75,39.23c-4.17,8.17-7.96,16.63-12.85,24.4
		c-9.31,8.65-15.49,20.76-27.1,26.76c-5.71,3.45-10,8.71-15.19,12.83c-5.08,4.05-7.66,10.25-11.9,15.06
		c-8.13,10.78-20.49,16.92-31.07,24.92c-4.59,3.54-10.22,5.56-14.47,9.55c-6.5,4.83-10.23,13.18-18.44,15.65
		c-21.03,8.95-41.6,19.22-63.66,25.45c-6.46,1.96-11.75,6.41-18.01,8.83c-3.78,1.48-7.59,2.89-11.34,4.44
		c-1.63,3.68-3.16,7.47-4.89,11.14c-3.18-0.38-6.55-1.83-9.67-0.46c-7.78,3.95-14.25,10.44-17.4,18.64
		c-4.45,11.48-12.78,20.82-17.89,32c-5.73,10-11.24,20.38-19.3,28.75c-7.44,7.98-14.31,16.44-20.75,25.25
		c-5,7.02-13.17,10.75-18.54,17.43c-4.81,5.93-10.46,11.22-17.04,15.13c-4.42,2.68-7.04,7.5-11.42,10.2
		c-9.41,3.2-18.75,7.38-26.55,13.64c-6.24,7.26-17.1,7.29-23.41,14.62c-8.71,8.77-19.16,15.6-30.36,20.8
		c-10.67,4.85-19.13,13.66-30.36,17.33c-10.45,2.92-18.91,10.7-29.79,12.32c-10.74,1.94-20.81,6.26-31.33,9.03
		c-14.84,7.67-30.58,13.88-47.03,17.09c-7.43,2.24-15.4,2.82-22.45,6.23c-4.38,2.24-9.65,2.18-14.37,1.28
		c-10.66-8.28-20.1-18.28-26.46-30.27c-5.58-10.54-11.96-20.61-18.37-30.65c-2.81-4.33-3.53-9.61-6.08-14.03
		c-6.79-9.17-13.65-18.63-17.12-29.63c-3.83-12.54-12.37-22.78-17.37-34.79c-6.47-16.14-16.78-30.41-22.89-46.68
		c-1.31-8.96-4.37-17.51-8.12-25.69c-1.5-7.89-6-14.86-7.12-22.83c-2.74-14.96-9.23-28.87-11.84-43.82
		c-1.27-5.42-2.98-10.75-5.3-15.79c-4.13-9.02-6.75-18.61-9.87-27.98c-3.68-10.7-2.62-22.17-4.28-33.18
		c-3.65-8.66-3.09-18.33-6.75-27c-1.31-6.72-3.07-13.35-4.93-19.93c-2.16-7.56-1.73-15.62-3.91-23.15
		c-4.03-13.7-1.12-28.61-7.01-41.85c-2.9-6.83-1.11-14.34-2.12-21.46c-1.73-11.33-0.66-22.89-3.09-34.12
		c-2.09-14.05,0.08-28.31-1.86-42.39c-1.02-12.01-6.47-23.52-4.9-35.7c-1.4-12.05-3.04-24.1-2.55-36.26
		c-2.33-14.82-4.95-29.68-4.87-44.74c0.35-12.18-2.77-24.09-3.25-36.2c0.01-12.34-4.02-24.3-3.29-36.7
		c-0.7-6.91,0.71-13.9-0.68-20.74c-1.35-7.5-0.18-15.17-1.63-22.61c-5.74-19.4-5.2-39.88-7.97-59.78
		c-1.91-20.83-4.58-41.65-3.92-62.61c0.52-6.35-0.05-12.74-0.93-19.03c3.63-2.57,7.98-3.52,12.29-4.31
		c2.15,5.07,3.91,10.44,4.13,16.02c-1.41,16.59,3.76,32.92,3.28,49.53c-0.3,7.66,3.64,14.64,3.75,22.23
		c-0.52,15.39,4.64,30.33,4.05,45.77c-0.38,7.91,4.36,15.12,3.63,23.04c-0.18,5.31,0.49,10.61,0.93,15.91
		c-0.08,15.38-1.37,31.01,1.67,46.23c0.98,7.89,0.62,15.88,0.9,23.85c-0.01,5.87,3.43,11.07,3.77,16.91
		c-1.64,19.1,3.5,37.96,3.97,57c-0.81,10.34,0.31,20.78,2.43,30.91c1.6,12.77,2.84,25.6,5.04,38.29c1.62,10.12,0.7,20.41,1.03,30.64
		c1.97,16.24,3.62,32.54,5.78,48.76c2.62,11.66,2.91,23.72,6.23,35.24c2.96,8.23,0.32,17.34,3.87,25.39
		c2.78,6.48,0.81,13.39,1.09,20.17c2.74,16.14,9.75,31.33,11.29,47.73c1.28,11.3,4.22,22.32,7.41,33.22
		c1.16,5.67,2.21,11.44,4.34,16.88c4.51,15.4,7.38,31.4,14.16,46.06c2.62,6.25,3.6,13.08,6.32,19.32
		c2.64,9.21,7.79,17.61,9.59,27.07c0.48,7.78,5.98,13.8,8.28,21.02c3.2,9.8,7.52,19.31,13.59,27.7c3.04,3.55,2.19,8.58,3.75,12.78
		c12.65,15.27,17.68,35.08,29.54,50.89c5.34,6.94,8.45,15.26,13.66,22.29c4.52,6.33,7.5,13.62,12.25,19.82
		c8.07,10.61,14.31,22.65,23.91,32.07c4.51,3.85,10.41,6.57,16.5,5.45c12.86-1.96,25.91-3.76,38.28-7.96
		c8.49-5,18.22-7.09,26.91-11.64c11.65-4.78,23.55-8.89,35.53-12.75c15.35-6.32,29.19-15.64,43.91-23.21
		c3.62-2.07,7.46-3.75,10.96-6.01c3.18-2.04,5.21-5.39,8.29-7.54c14.35-9.32,29.46-17.53,42.89-28.2
		c6.95-4.7,14.02-9.22,20.79-14.18c5.55-4.17,12.19-6.9,17.01-12c6.18-7.16,11.9-14.72,18.47-21.53
		c5.51-6.25,11.85-11.91,15.58-19.49c5.1-10.14,15-16.76,19.71-27.16c6.16-13.37,16.17-24.45,22.15-37.9
		c5.9-10.64,13.75-20.12,18.93-31.18c6.38-13.25,14.01-25.83,21.07-38.71c7.33-16.66,12.54-34.34,22.32-49.83
		c6.08-8.97,9.73-19.26,15.62-28.33c5.68-9.48,9.8-19.82,16.12-28.94c5.34-8.26,6.39-18.39,10.82-27.06
		c4.42-8.71,9.8-16.88,14.74-25.29c4.09-8.16,7.15-16.82,9.69-25.56c4.42-14.42,12.86-27.08,18.73-40.83
		c2.91-16.44,14.81-28.93,19.6-44.6c2.02-5.45,3.18-11.41,7.29-15.76c10.01-12.34,16.86-26.79,24.05-40.85
		c3.07-5.31,3.22-14.31,10.72-15.4c13.32-2.05,25.3-8.62,38.38-11.61c11.5-4.09,23.84-6.75,33.97-13.91
		c8.7-4.86,16.81-10.66,25.27-15.89c11.84-7.4,18.06-20.56,28.95-29.02c5.19-5.04,13.14-6.46,17.22-12.74
		c5.42-7.83,14.21-11.99,21.91-17.14c8.62-5.14,20.03-6.89,29.28-2.42c-0.99,3.97-2.15,7.95-3.58,11.8
		c-9.45,1.97-18.18,6.26-26.59,10.83c-9.46,5.5-15.41,15.04-24.47,21.02c0.49,2.67,1.23,5.55,1.9,8.25
		c10.35-1.21,18.86-7.8,26.26-14.65c8.28-8.3,19.44-12.95,27.28-21.74c6.49-6.81,15.37-10.47,22.42-16.52
		c4.59-5.7,9.61-11.04,14.42-16.53c4.38-7.05,4.61-15.9,4.35-23.91c-6.18-11.27-17.28-18.48-27.74-25.33
		c-9.11-7.2-18.83-13.7-27.05-21.91c-3.58-4.63-9.77-5.28-14.15-8.8c-3.3-2.79-9.28-5.09-8.61-10.28c1.12-4.7,7.34-6.38,11.53-5.6
		c17.93,12.11,34.17,26.65,52.16,38.69c6.25,3.3,12.35,6.8,18.13,10.94c2,1.34,4.96,2.88,6.98,0.7c16-15.99,37.54-28.93,44.47-51.67
		c2.58-10.72-6.47-17.9-13.98-23.53c-9.17-7.71-21.74-7.73-32.17-12.87c-5.13-2.2-9.89-5.18-14.66-8.02
		c-4.99-1.87-10.45-1.84-15.32-3.99c-6.36-2.75-12.54-6.41-19.62-6.72c-10.87,0.07-20.88-5-29.69-10.88
		c-2.66-1.74-4.39-4.46-6.02-7.09c3.24-1.5,6.19-4.4,9.93-4.57c3.57,1.65,6.2,4.92,9.83,6.54c10.85,4.12,22.09,7.16,33.49,9.33
		c10.29,1.27,19.33,6.79,28.75,10.77c11.05,4.36,22.15,13.2,34.72,8.36c9.1-3.78,15.02-12.28,21.94-18.92
		c7.14-12.85,16.34-24.32,25.01-36.15c4.29-5.61,5.19-13.44,3.1-20.08c-1.6-2.31-4.42-3.22-6.91-4.14
		c-15.42-5.02-31.81-3.15-47.71-4.17c-9.18-0.03-18.31-1.79-27.48-1.1c-9.08,0.96-18.08-0.86-27.04-1.89
		c-6.49-0.95-12.87,1.75-19.34,1.59c-18,2.16-36.04-1.14-53.99-2.21c-12.74,1.5-25.49,2.53-38.32,2.52
		c-10.65,2.14-22.03,4.03-30.57,11.27c-5.86,4.81-11.76,9.68-16.32,15.79c-4.55,5.78-11.5,9.71-14.12,16.9
		c-2.93,7.14-8.59,12.57-13.45,18.38c-5.87,7.05-8.67,15.92-13.65,23.53c-3.53,5.04-8.63,8.65-12.77,13.15
		c-3.79,4.18-9.29,7.42-10.24,13.43c-1.19,6.23-6.7,10.12-9.65,15.45c-4.75,8.94-11.17,16.86-17.37,24.82
		c-4.29,5.37-10.01,9.44-13.85,15.19c-7.37,10.51-16.44,19.66-23.99,30.03c-5.51,7.41-11.09,14.8-17.57,21.4
		c-6.14,6.29-10.36,14.15-16.68,20.28c-4.64,4.36-9.53,8.72-12.46,14.5c-4.24,8.12-11.17,14.4-15.57,22.4
		c-7.19,14.8-20.32,25.42-28.35,39.66c-5.11,8.61-12.85,15.35-20.57,21.59c-3.65,3.12-4.59,8.04-7.1,11.95
		c-3.03,4.89-7.79,8.33-12.58,11.33c-6.02,3.11-7.08,10.67-11.76,15.19c-9.24,10.2-14.85,23.55-26.17,31.85
		c-11.05,8.49-20.37,18.89-30.27,28.62c-6.35,4.18-12.03,9.32-16.9,15.19c-7.6,10.73-19.51,17.09-27.75,27.26
		c-9.18,7.86-15.95,18.15-25.53,25.57c-8.77,6.59-13.63,16.95-22.29,23.66c-4,3.51-9.96,3.5-14.04,6.85
		c-1.33,2.3-0.56,5.14-0.75,7.69c-4.44,5.08-8.59,10.66-14.28,14.44c-3.67,2.62-7.56,4.95-10.98,7.91
		c-6.15,8.05-9.67,17.89-16.39,25.54c-3.75,4.89-7.08,10.22-12,14.08c-4.19,4.44-10.71,7-12.96,13.02
		c-4.24,10.56-11.06,19.8-16.44,29.78c-8.71,12.54-17.24,25.25-26.39,37.48c-3.84,4.29-8.64,8.78-14.89,8.46
		c-3.63-0.86-5.33-5.64-3.3-8.68c3.4-5.12,8.32-8.97,12.21-13.66c7.82-11.49,14.7-23.67,23.49-34.46
		c5.46-6.9,7.94-15.68,14.35-21.88c5.87-6.29,9.95-13.97,15.63-20.4c4.57-5.45,10.26-10,13.73-16.29
		c3.57-5.39,6.04-11.62,10.87-16.05c7.43-6.9,13.5-15.09,20.84-22.06c4.85-3.48,10.09-7,12.51-12.71
		c6.27-9.44,15.78-16.24,22.78-25.1c3.24-4.42,2.32-10.27,1.06-15.24c-3.95-14.58-5.95-29.61-10.05-44.15
		c-1.73-8.06-5.53-15.63-5.81-23.97c-0.44-8.73-4.64-16.78-4.12-25.62c-0.21-6.86-3.55-13.16-3.86-19.99
		c-0.38-10.66-4.48-20.7-6.66-31.03c-1.66-7.23-0.65-14.81-2.86-21.9c-2.89-9.14-4.12-18.74-4.02-28.29
		c-0.88-5.55-3.54-10.82-3.51-16.52c0.39-13.24-3.11-26.14-4.04-39.27c-0.49-8.48-2.32-16.85-2.12-25.36
		c-0.19-6.99,2.08-14.07,0.12-20.93c-2.1-6.77-1.84-13.89-2.07-20.87c-0.65-7.54-1.91-15.02-2.64-22.52
		c-0.59-7.04,1.05-14.29-1.66-21.03c-1.07-3.97-2.58-7.9-2.63-12.02c-0.17-13.81-0.06-27.64-0.73-41.43
		c-0.76-7.79-4.13-15.22-3.21-23.16c0.18-7.52-0.37-15.06-2.11-22.38c-2.36-8.79-1.79-18.03-3.86-26.85
		c-3.63-17.12-0.25-35.22-6.29-51.86c-3.14-6.94-4.15-14.41-4.22-21.94c-0.67-19.01-9.6-36.35-12.31-54.96
		c-1.74-7.71-5.14-14.94-6.62-22.69c-0.91-3.35-1.03-6.8-2.88-9.76c-6.49-11.19-13.98-22.07-17.32-34.72
		c-5.29-11.35-11.85-22.16-19.54-32.04c-4.56-7.72-8.75-15.74-14.51-22.64c-5.66-5.78-10.86-11.94-15.58-18.49
		c-4.18-4.75-13.18-4.74-14.45-11.95c-5.23-0.47-10.81,0.52-15.71-1.84c-14.68-5.78-29.14-12.94-44.92-15.19
		c-10.19-1.21-20.26-6.09-30.6-2.72c-2.09-3.52-3.77-8.41-0.32-11.69c7.41-3.12,15.85-4.7,23.8-2.59
		c15.62,1.02,30.59,5.63,45.53,9.89c14.5,7.78,30.17,13.19,44.45,21.42c4.57,3.14,6.63,8.64,10.47,12.53
		c10.61,10.88,17.97,24.3,26.01,37.07c5.33,8.34,13.83,14.87,16.53,24.75c4.25,11.97,10.95,22.99,14.1,35.37
		c1.8,9.03,6.38,17.21,7.98,26.3c1.38,5.95,4.32,11.39,6.1,17.23c1.55,5.25,1.2,10.88,2.74,16.15c1.48,4.14,3.98,8.15,3.56,12.75
		c-0.37,6.66,1.95,13.01,3.1,19.49c0.96,4.38-0.67,9.08,1.48,13.24c5.37,11.8,4.94,25.26,4.49,37.95c0.66,3.89,3.27,7.17,3.87,11.08
		c0.43,14.4-2.92,29.7,3.01,43.41c5.12,12.99,4.35,27.1,6.55,40.68c0.77,7.5,1.59,15.08,1.42,22.65c-0.89,8.32,0.5,16.77-1.42,25
		c-0.5,4.3,1.82,8.23,3.2,12.17c2.03,4.69,1.52,9.89,1.99,14.87c1.4,16.98,2.73,33.97,2.7,51c0.15,3.47,2.08,6.56,2.38,10.01
		c0.44,10.59-0.84,21.37,1.21,31.88c1.5,8.52,0.43,17.39,3.24,25.72c4.02,13.78,1.49,28.64,6.68,42.13
		c1.91,12.23,2.37,24.77,5.81,36.75c1.27,12.11,5.24,23.71,6.31,35.86c0.65,7.92,3.48,15.55,3.07,23.59
		c0.14,4.97,3.66,8.97,4.7,13.76c1.94,10.51,6.86,20.31,7.67,31.07c-0.35,9.74,7.18,17.66,6.62,27.42
		c-0.44,5.54,1.4,10.65,4.25,15.3c5.89-2.83,12.99-4.73,17.04-10.27c4.05-5.49,8.41-11.02,14.34-14.58
		c3.38-2.68,7.79-4.03,10.67-7.32c6.13-8.43,11.03-18.28,20.02-24.13c12.89-9.33,22.47-22.31,34.92-32.12
		c1.41-7.14-1.87-14.41-1.37-21.62c1.41-19.79-3.5-39.23-6.56-58.62c-0.23-14.2-2.98-28.18-3.57-42.35
		c-2.13-17.9-4.32-35.85-9.13-53.24c-3.86-14.81-3.35-30.4-7.91-45.01c-2.09-9.86-0.89-20.08-3.67-29.82
		c-2.24-8.37-3.94-16.87-6.37-25.18c-2.74-8.44-0.61-18.07-5.44-25.89c-4.54-7.3-5.44-15.98-7.65-24.1
		c-1.78-7.42-4.37-14.6-6.08-22.03c-1.47-5.52-1.91-11.35-4.51-16.5c-2.95-6.05-3.23-12.93-5.91-19.05
		c-2.66-6.63-6.78-12.64-8.54-19.62c-2.91-8.27-3.08-17.08-4.55-25.62c-2.5-9.88-7.02-19.22-8.29-29.42
		c-2.48-9.99-5.85-19.74-8.16-29.78c-1.55-8.19-6.86-15.17-7.52-23.55c-3.23-8.73-4.3-18.25-9.39-26.24
		c0.49,0.14,1.49,0.44,1.99,0.58c-1.59-5.2-4.15-10.02-6-15.1c-1.68-6.56-3.2-13.15-5.49-19.52c-1.75-4.56-1.36-9.67-3.7-14.04
		c-3.25-6.44-3.68-13.75-6.41-20.36c-3.91-12.64-11.62-23.87-13.75-37.07c-1.96-11.43-7.77-21.61-11.1-32.62
		c-3.79-9.04-4.03-19.28-8.93-27.89c-2.81-5.66-5.41-11.43-8.23-17.08c-1.47-5.69-4.42-10.77-7.42-15.76
		c-5.09-10.29-9.29-21.07-15.27-30.9c0.57,0.07,1.72,0.21,2.29,0.28c-2.27-5.61-4.89-11.05-7.38-16.55
		c-2.36-4.69-1.97-10.15-3.86-15c-1.91-4.78-1.61-9.98-2.4-14.97c-2.65-9.77-7.14-18.98-9.55-28.81
		c-0.41-10.02-6.33-18.61-7.8-28.43c-2.12-7.81-3.89-15.97-2.62-24.08c1.34-0.36,4.02-1.07,5.36-1.42
		c-27.25-12.34-50.79-31.49-71.11-53.2c-2.54-3.04-5.42-6.49-4.55-10.83c1.94-4.14,6.85-9.37,11.77-6.45
		c8.7,5.81,14.2,15.17,22.3,21.72c21.33,17.21,44.21,34.22,71.32,40.74c20.78,5.28,42.39,6.96,63.76,5.11
		c11.17-0.92,21.91-4.93,31.56-10.52c11.35-6.82,18.16-19.3,20.92-31.94c6.08-27.56,5.54-55.99,9.54-83.83
		c3.2-16.58,4.94-33.82,12.77-49.06C898.13,21.9,908.75,8,921.79-3.19c2.59-2.63,5.96-4.64,7.89-7.86c-1.33-5.95-4.41-11.35-6.58-17
		c-13.77-33.53-26.08-69.22-22.25-106.01c3.01-25.82,8.09-51.35,13.31-76.8c5.69-33.41,9.96-67.2,9.93-101.14
		c0.54-29.63-5.11-59.17-14.96-87.04c-4.94-14.75-10.34-29.43-18.09-42.98c-19.16-37.5-48.5-68.67-80.61-95.45
		c-19-16.34-41.43-27.86-63.53-39.34c-14.4-6.26-29.08-11.88-43.92-17.01c-28.56-8.35-58.13-13.22-87.8-15.18
		c-37.09-1.79-74.35,2.82-110.27,12.03c-16.67,4.33-32.48,11.24-48.41,17.66c-48.57,21.42-91.73,54.27-127.13,93.66
		c-14.27,17.99-29.16,35.79-39.97,56.17c-12.09,19.9-22.16,41.21-28.08,63.79c-17.04,58.08-21.01,119.33-17.01,179.52
		c1.52,20.72,3.98,41.45,8.99,61.64c5.26,22.56,11.19,45.02,19.56,66.65c14.4,42,34.92,81.52,53.02,121.97
		c5.74,13.47,10.59,27.29,16.16,40.82c12.45,39.14,20.86,80.3,17.54,121.56c-1.41,13.2-4.93,26.04-8.3,38.85
		c-3.97,14.08-8.9,28.01-15.94,40.88c-3.44,6.58-5.76,13.66-8.65,20.5c-22.39,52.96-48.14,104.49-68.88,158.16
		C208.66,609.08,183.77,741.93,176.02,875c-2.64,48.28-4.56,96.63-4.02,145c-1.15,161.15,7.75,322.17,19.25,482.86
		c1.46,23.04,4.15,46,5.41,69.05c-0.83,8.09-13.72,9.33-15.84,1.39c-3.39-22.82-4.01-46.01-6.13-68.98
		c-5.78-73.36-9.93-146.83-13.62-220.31c-3.58-83.3-6.64-166.63-6.07-250.01c-0.51-84.13,2.09-168.44,11.97-252.04
		c8.4-66.09,20.59-131.83,39.03-195.89c16.28-59.15,38.5-116.51,63.54-172.47c15.87-35.86,33.15-71.13,47.37-107.7
		c4.18-12.71,11.2-24.27,14.74-37.22c4.7-17.59,9.79-35.35,10.14-53.69c0.42-9.93,0.45-19.91-0.3-29.82
		c-4.39-33.01-11.45-66.02-25.06-96.55c-3.9-10.99-8.67-21.63-14.02-31.98C292.72,33.88,281.6,11.78,272-11.02
		c-17.9-41.35-32.04-84.48-40.19-128.84c-9.73-64.37-9.75-130.55,2.76-194.53c5.44-21.3,10.15-42.96,18.88-63.22
		c5.88-13.48,11.05-27.38,19.17-39.73c11.27-17.22,22.02-34.9,35.49-50.54c20.46-24.8,43.77-47.26,69.61-66.42
		c24.97-17.25,50.83-33.68,79.2-44.78C475.04-605.74,492.99-613.18,512.02-616.9 M1402.36,20.62c-3.33,10.16-8.28,20.12-7.21,31.16
		c-1.89,12.28-0.26,25.09-4.3,37c-3.6,10.86-2.08,22.45-1.47,33.63c1.25,11.45-6.56,21.36-6.53,32.71
		c-0.89,4.96,2.23,9.65,1.05,14.59c-1.96,9.63-2.79,19.46-1.77,29.28c0.99,9.02-1.53,17.75-3.69,26.39
		c-1.96,6.42,1.36,13.05-0.81,19.51c-1.43,9.99-6.35,20.24-3.24,30.36c2.34,13.62-1.26,27.28-0.26,40.93
		c0.28,8.56-2.78,16.71-3.64,25.15c-1.44,18.88-0.93,37.86-2.72,56.69c-0.53,12.19,0.14,24.72-3.8,36.45
		c-0.36,8.26,1.25,16.56,0.39,24.86c-1.14,8.82,0.07,17.69-0.71,26.53c0.51,9.66-3.81,19.38-0.84,28.89
		c0.21,8.75-4.93,16.95-3.99,25.84c0.85,12.64,2.21,26.87-5.96,37.58c1.46,1.39,2.97,2.75,4.46,4.15c-0.88,6,0.3,11.94,1.25,17.85
		c0.52,10.59-1.69,21.64,2.17,31.87c0.85,0.03,2.57,0.09,3.43,0.13c2.53-5.27,4.6-10.97,8.79-15.21c2.71-2.96,6.25-5.05,8.89-8.08
		c4.21-6.2,6.62-13.6,11.99-19.01c8.19-9.19,13.16-20.67,20.89-30.2c4.74-5.4,7.15-12.25,10.47-18.51
		c3.65-6.73,9.22-12.09,13.6-18.31c5.93-7.59,9.75-16.6,16.2-23.82c6.8-8.2,10.54-18.28,15.67-27.48
		c7.9-9.89,10.44-22.75,18.06-32.82c5.19-5.82,1.02-13.8-0.48-20.2c-2.98-8.89-5.19-18.11-5.42-27.5
		c-0.11-10.43-3.3-20.56-2.68-31.02c-0.23-7.97,0.91-16.02-0.74-23.88c-2.92-12.24-2.75-24.98-2.15-37.46
		c-0.69-9.3-4.62-18.19-4-27.62c0.22-9.16-0.79-18.29-0.29-27.43c-1.29-15.51-3.09-31.11-1.7-46.66c-0.52-9.74,0.72-19.56-1.6-29.14
		c-0.36-16.12,0.48-32.3-1.32-48.37c-1.75-12.69-4.09-26.06-12.71-36.12c-5.68-4.28-12.32-8.49-19.6-8.92
		c-6.38,0.85-13.18,2.13-18.21,6.37c-4.3,5.57-1.07,13-2.98,19.35c-1.29,3.98,0.39,7.95,0.87,11.91c0.6,6.05,1.64,12.22,0.36,18.29
		c-2.67,12.41-1.96,25.19-3.65,37.74c-2.02,13.97,1.19,28.48-2.75,42.21c-4.61,17.73-0.57,36.23-3.89,54.11
		c-1.54,30.44-4.88,60.91-3,91.41c-0.45,7.28-2.44,14.48-2.02,21.81c1,8.92,0.62,18.98-4.94,26.37c-5.13,1.76-8.51-2.33-10.76-6.09
		c0.1-6.83,1.8-13.45,3.4-20.03c1.93-6.5,0.71-13.23,0.73-19.85c-0.2-11.21,1.5-22.38,0.78-33.58c-1.02-7.46-0.49-15.18,2.14-22.26
		c2.4-6.06,0-12.56,0.54-18.84c-0.16-7.77,2.71-15.49,1.24-23.22c-0.69-4.53-1.01-9.25,0.02-13.74c4.64-20.41,5.88-41.53,5.56-62.42
		c-3.53-16.37,4.21-32.25,3.85-48.56c-0.95-7.06-1.88-14.2-0.87-21.31c0.14-4.91,2.81-9.82,1.19-14.73
		c-2.11-6.81,0.61-13.92-0.61-20.84c-0.31-4.38-1.93-10.04,2.41-13.03c10.88-7.62,24.89-7.22,37.57-8.79
		c-3.6-8.86-6.24-19.41-14.81-24.94C1420.61,26.42,1412.25,19.66,1402.36,20.62 M1680.81,305.8c-9.18,5.51-17.86,11.94-25.21,19.75
		c-8.01,9.65-16.77,18.7-26.04,27.13c-6.67,6.59-9.6,15.94-16.4,22.46c-5.53,5.02-7.66,12.45-11.38,18.71
		c-2.95,5.02-4.74,10.57-7.33,15.76c-1.72,3.55-5.59,5.17-8.65,7.35c-3.36,1.85-4.28,5.83-5.83,9.05
		c-1.85,5.18-6.77,8.64-7.63,14.29c-2.03,8.71-1.87,17.87-4.9,26.39c-8.14,17.3-9.18,38.07-22.45,52.8
		c-3.78,16.34-15.48,28.84-22.9,43.46c-2.95,5.72-6.98,10.76-10.63,16.04c-6.42,11.17-9.05,24.26-16.69,34.78
		c-2.96,4.29-7.43,7.5-9.58,12.34c-3.14,6.82-7.07,13.24-10.14,20.1c-3.72,7.48-10.58,12.47-16.05,18.54
		c-3.55,6.33-3.94,15.48-11.23,18.96c-6.83,3.23-6.2,11.97-7.14,18.34c11.97,3.2,24.29,0.87,36.42,2.52
		c12.4,0.73,25.13,2.98,37.37-0.35c11.14-5.27,19.19-14.96,29.69-21.21c6.17-3.86,9.13-10.8,13.64-16.25
		c3.39-4.61,8.43-7.56,12.38-11.62c6.47-8.14,10.65-17.74,15.18-27.01c2.29-5,7.46-8.46,8.29-14.13c3-14.72,8.4-28.72,15.66-41.84
		c6.65-11.22,8.62-24.28,13.4-36.27c4.83-15.98,11.19-31.44,15.9-47.46c3.19-6.66,3.38-14.33,6.92-20.82
		c7.24-14.18,14.65-28.7,26.14-39.96c6.1-7.23,11.21-15.4,18.65-21.39c12.93-10.97,20.35-26.84,33.71-37.34
		c9.08-11.94,5.08-27.81,2.11-41.19c-3.47-10.03-10.9-19.75-21.71-22.14C1696.82,304.1,1687.94,301.51,1680.81,305.8 M779.17,371.25
		c3.91,8.71,8.48,17.15,11.55,26.22c1.44,3.98,3.67,7.6,5.23,11.54c1.95,4.61,2.46,9.68,4.33,14.33c1.14,2.64,2.46,5.25,3.07,8.09
		c2.24,13.88,11.09,25.64,13.31,39.5c1.14,6.43,6.26,11.26,7.32,17.7c1.08,7.35,5.73,13.69,6.03,21.25
		c4.05,9.09,6.05,18.88,9.47,28.23c1.3,9.71,4.22,19.04,7.88,28.1c2.42,7.83,4.86,15.67,8.22,23.17c2.73,5.25,0.65,11.49,3.42,16.78
		c4.31,8.63,5.47,18.26,8.64,27.29c4.47,13.46,6.7,27.55,11.7,40.84c0.26-3.74,0.29-7.47,0.25-11.19c0.16-6.2-3.73-11.47-5.26-17.28
		c-2.39-8.99-5.44-17.91-5.21-27.35c-2.31-14.11-7.57-27.77-7.97-42.14c-0.63-4.38-2.53-8.5-3.75-12.68
		c-3.91-11.53-5.61-23.66-8.03-35.53c-12.19-22.42-9.85-49.04-17.89-72.76c-1.04-2.66-2.88-4.88-4.2-7.37
		c-4.3-10.1-5.91-21.59-12.76-30.46c-3.98-5.73-7.18-11.9-10.08-18.21C797.72,388.67,790.7,377.29,779.17,371.25 M1522.45,420.36
		c-3.93,5.46-7.25,11.37-11.53,16.58c-4.16,4.83-10.23,8.06-12.92,14.04c-3.56,7.53-6.62,15.5-12,22
		c-4.92,6.28-8.4,13.5-13.06,19.96c-10.1,11.86-14.44,27.19-23.08,40.01c-2.37,5.73-9.98,5.8-12.74,11.14
		c-2.31,4.16-1.43,9.54-4.72,13.25c-7.14,11.1-17.25,20.21-22.32,32.61c-3.35,8.77-11.71,14.17-15.87,22.46
		c-8.14,14.38-20.53,25.64-29.1,39.74c-5.03,8.45-12.48,15.04-17.66,23.39c-7.33,7.79-14.5,16.06-19.37,25.66
		c12.61-1,25.32-0.2,37.91,0.8c13.76,2.27,27.74,1.62,41.58,0.53c3.34-0.55,7.43-0.2,9.5-3.43c7.16-7.92,13.81-16.3,20.32-24.77
		c5.28-7.06,7.83-15.73,13.19-22.73c4.1-4.52,9.47-7.85,12.8-13.06c8.69-13.43,16.69-27.28,24.6-41.17c2.69-8.13,5.88-16.18,11.2-23
		c4.77-6.87,7.45-14.99,12.58-21.62c5.58-6.56,6.92-15.42,11.25-22.72c3.72-8.46,10.79-14.89,14.3-23.45
		c5.24-12.38,7.39-25.85,13.15-38.03c4.49-9.19,0.65-19.47-1.57-28.72c-4.13-8.94-9.32-19.02-19.21-22.55
		C1526.85,416.28,1524.07,418.15,1522.45,420.36 M881.14,679.11c-1.33,0.67-1.34,1.35-0.03,2.03
		C882.42,680.44,882.43,679.77,881.14,679.11 M1488.52,810.69c4.46,6.72,9.72,12.86,14.02,19.7c1.8,3.73-0.03,7.86-0.37,11.73
		c-1.72,8.08-2.79,16.67-7.32,23.74c-3.71,4.57-7.2,9.51-8.43,15.4c9.56-2.69,19.34-5.12,28.26-9.59
		c10.17-5.48,21.37-11.3,26.73-22.13c3.53-7.02,8.22-13.65,9.54-21.55c3.42-9.82-3.36-19.46-11.46-24.31
		C1522.49,801.21,1503.82,802.05,1488.52,810.69 M924.54,853.97c-0.16,1.98-0.35,3.96-0.28,5.97c1.9,1.01,4.14,0.65,6.23,0.77
		c-0.65-2.32-1.42-4.57-2.37-6.76C927.23,853.96,925.44,853.97,924.54,853.97 M930.82,873.25c1.2,5.11,3.43,10.39,2.22,15.75
		c-1.24,6.67,0.34,13.34,1.24,19.94c0.95,4.98-0.01,10.24,1.71,15.1c2.12,6.24,5.65,12.16,5.49,18.98
		c0.39,7.26,1.58,14.5,1.28,21.81c-0.25,3.8,2.67,6.71,3.47,10.27c2.45,16.99,4.56,34.04,7.45,50.97c-2.04,1.94-4.12,3.84-6.22,5.73
		c1.81,5.08,5.33,9.28,7.58,14.16c1.65,2.94-0.59,5.94-1.51,8.73c5.59,11.83,6.22,25.24,7.63,38.06
		c7.42-2.67,11.31-9.88,15.96-15.71c7.02-8.59,12.84-18.34,21.81-25.13c4.52-6.14,9.88-12.38,11.84-19.9
		c-1.97-8.06-6.93-14.89-10.49-22.27c-5.23-11.4-13.93-20.81-17.92-32.84c-3.02-10.56-8.91-19.89-13.12-29.94
		c-5.02-16.48-17.84-29.3-21.96-46.13c-5.34-10.74-9.38-22.03-11.84-33.77C933.44,868.56,929.39,870.09,930.82,873.25
		 M1311.42,1026.41c-9.82,9.37-21.85,15.88-33.57,22.52c-4.66,2.68-10.53,1.74-14.94,5.01c-9.39,5.9-20.01,9.22-30.12,13.62
		c-12.17,4.5-24.56,9.45-37.76,9.31c-1.47,5.65-2.52,11.41-4.43,16.95c-5.32,8.54-10.06,17.47-16.17,25.51
		c-4.94,6.12-6.21,14.09-9.09,21.22c-3.19,7.19-9.33,12.84-11.1,20.71c-3.48,11.12-8.97,21.41-13.8,31.96
		c-3.32,10.36-10.92,18.93-12.68,29.86c-0.52,8.3-5.46,15.51-12.1,20.27c-0.5,17.34-13.11,31.07-18.68,46.82
		c-7.14,10.8-9.18,23.88-15.74,34.98c-7.44,12.83-17.56,24.07-23.83,37.6c-7.48,12.18-11.68,26.05-15.97,39.61
		c-1.02,5.98-4.34,11.09-7.9,15.86c-3.65,7.15-11.98,12.67-9.41,21.85c10.62-2.32,19.32-9.11,28.72-14.13
		c9.67-3.73,20.18-5.51,29.26-10.74c5.65-3.28,11.96-5.03,18.08-7.2c5.59-2.79,10.5-6.75,15.84-9.97
		c7.55-5.08,16.1-8.92,22.49-15.54c5.12-5.05,11.91-7.91,17.04-12.94c15.14-14.53,30.8-28.5,45.89-43.07
		c5.15-7.1,10.78-13.85,17.63-19.39c8.11-5.89,11.79-15.49,17.84-23.15c11.17-16.65,22.92-33,32.3-50.73
		c2.99-4.27,7.24-7.44,10.37-11.59c5.5-6.59,6.9-15.38,11.55-22.46c3.5-5.14,5.32-11.14,7.38-16.91
		c4.88-13.34,12.55-25.51,16.54-39.16c2.28-6.92,5.65-13.43,9.54-19.56c6.63-11.31,7.48-24.66,11.68-36.84
		c2.58-8.34,1.88-17.39,4.89-25.58c5.19-10.31,9.98-21,11.79-32.48c-10.87,0.64-21.34-2.39-31.63-5.43
		C1317.36,1020.78,1314.09,1024.04,1311.42,1026.41L1311.42,1026.41z"/>
</g>
</svg>
